<?xml version="1.0" encoding="UTF-8"?>
<svg xmlns="http://www.w3.org/2000/svg" width="300" height="250" xmlns:xlink="http://www.w3.org/1999/xlink" viewBox="0 0 300 250">
  <defs>
    <linearGradient id="linear-gradient" x1="150" y1="250.55" x2="150" y2="-.18" gradientUnits="userSpaceOnUse">
      <stop offset="0" stop-color="#faab19"/>
      <stop offset="0" stop-color="#faad20"/>
      <stop offset=".08" stop-color="#fbc55c"/>
      <stop offset=".15" stop-color="#fcd88e"/>
      <stop offset=".22" stop-color="#fde8b5"/>
      <stop offset=".28" stop-color="#fef3d1"/>
      <stop offset=".33" stop-color="#fef9e2"/>
      <stop offset=".37" stop-color="#fffce8"/>
      <stop offset=".42" stop-color="#f6f8e7"/>
      <stop offset=".51" stop-color="#def0e4"/>
      <stop offset=".62" stop-color="#b8e3df"/>
      <stop offset=".74" stop-color="#83d0d9"/>
      <stop offset=".88" stop-color="#3fb8d2"/>
      <stop offset="1" stop-color="#00a2cb"/>
    </linearGradient>
    <radialGradient id="radial-gradient" cx="93.37" cy="100.41" fx="93.37" fy="100.41" r="60.51" gradientUnits="userSpaceOnUse">
      <stop offset="0" stop-color="#fdf57a"/>
      <stop offset=".11" stop-color="#f6f07a"/>
      <stop offset=".28" stop-color="#e3e27c"/>
      <stop offset=".47" stop-color="#c4cc7e"/>
      <stop offset=".69" stop-color="#98ad82"/>
      <stop offset=".92" stop-color="#618587"/>
      <stop offset="1" stop-color="#4d7789"/>
    </radialGradient>
    <radialGradient id="radial-gradient-2" cx="205.32" cy="74.3" fx="205.32" fy="74.3" r="60.51" gradientTransform="translate(0 80.42) scale(1 -1)" xlink:href="#radial-gradient"/>
    <filter id="luminosity-noclip" x="11.16" y="-8317" width="30.5" height="32766" color-interpolation-filters="sRGB" filterUnits="userSpaceOnUse">
      <feFlood flood-color="#fff" result="bg"/>
      <feBlend in="SourceGraphic" in2="bg"/>
    </filter>
    <mask id="mask-1" x="11.16" y="-8317" width="30.5" height="32766" maskUnits="userSpaceOnUse"/>
    <radialGradient id="radial-gradient-3" cx="26.41" cy="25.53" fx="26.41" fy="25.53" r="15.25" gradientUnits="userSpaceOnUse">
      <stop offset=".76" stop-color="#fff"/>
      <stop offset=".78" stop-color="#d7d7d7"/>
      <stop offset=".8" stop-color="#a5a5a5"/>
      <stop offset=".82" stop-color="#797979"/>
      <stop offset=".85" stop-color="#535353"/>
      <stop offset=".87" stop-color="#353535"/>
      <stop offset=".9" stop-color="#1d1d1d"/>
      <stop offset=".93" stop-color="#0d0d0d"/>
      <stop offset=".96" stop-color="#030303"/>
      <stop offset="1" stop-color="#000"/>
    </radialGradient>
    <mask id="mask" x="11.16" y="10.28" width="30.5" height="30.5" maskUnits="userSpaceOnUse">
      <g style="mask: url(#mask-1);">
        <path d="m41.66,25.53c0,8.42-6.83,15.25-15.25,15.25s-15.25-6.83-15.25-15.25,6.83-15.25,15.25-15.25,15.25,6.83,15.25,15.25Z" style="fill: url(#radial-gradient-3); mix-blend-mode: multiply;"/>
      </g>
    </mask>
    <filter id="luminosity-noclip-2" x="11.16" y="10.28" width="30.5" height="30.5" color-interpolation-filters="sRGB" filterUnits="userSpaceOnUse">
      <feFlood flood-color="#fff" result="bg"/>
      <feBlend in="SourceGraphic" in2="bg"/>
    </filter>
    <filter id="luminosity-noclip-3" x="11.16" y="-8317" width="30.5" height="32766" color-interpolation-filters="sRGB" filterUnits="userSpaceOnUse">
      <feFlood flood-color="#fff" result="bg"/>
      <feBlend in="SourceGraphic" in2="bg"/>
    </filter>
    <mask id="mask-3" x="11.16" y="-8317" width="30.5" height="32766" maskUnits="userSpaceOnUse"/>
    <mask id="mask-2" x="11.16" y="10.28" width="30.5" height="30.5" maskUnits="userSpaceOnUse">
      <g style="filter: url(#luminosity-noclip-2);">
        <g style="mask: url(#mask-3);">
          <path d="m41.66,25.53c0,8.42-6.83,15.25-15.25,15.25s-15.25-6.83-15.25-15.25,6.83-15.25,15.25-15.25,15.25,6.83,15.25,15.25Z" style="fill: url(#radial-gradient-3); mix-blend-mode: multiply;"/>
        </g>
      </g>
    </mask>
    <radialGradient id="radial-gradient-4" cx="26.41" cy="25.53" fx="26.41" fy="25.53" r="15.25" gradientUnits="userSpaceOnUse">
      <stop offset=".76" stop-color="#fcdf5f"/>
      <stop offset=".77" stop-color="#fce153"/>
      <stop offset=".81" stop-color="#fde935"/>
      <stop offset=".85" stop-color="#feef1d"/>
      <stop offset=".89" stop-color="#fef30d"/>
      <stop offset=".94" stop-color="#fef603"/>
      <stop offset="1" stop-color="#fff700"/>
    </radialGradient>
    <filter id="luminosity-noclip-4" x="11.51" y="-8317" width="30.06" height="32766" color-interpolation-filters="sRGB" filterUnits="userSpaceOnUse">
      <feFlood flood-color="#fff" result="bg"/>
      <feBlend in="SourceGraphic" in2="bg"/>
    </filter>
    <mask id="mask-5" x="11.51" y="-8317" width="30.06" height="32766" maskUnits="userSpaceOnUse"/>
    <radialGradient id="radial-gradient-5" cx="26.54" cy="25.89" fx="26.54" fy="25.89" r="15.03" gradientUnits="userSpaceOnUse">
      <stop offset=".76" stop-color="#fff"/>
      <stop offset=".84" stop-color="#a6a6a6"/>
      <stop offset=".92" stop-color="#4d4d4d"/>
      <stop offset=".97" stop-color="#151515"/>
      <stop offset="1" stop-color="#000"/>
    </radialGradient>
    <mask id="mask-4" x="11.51" y="10.86" width="30.06" height="30.06" maskUnits="userSpaceOnUse">
      <g style="mask: url(#mask-5);">
        <polygon points="26.54 17.51 27.73 10.86 27.85 17.62 30.06 11.23 29.13 17.92 32.31 11.96 30.34 18.43 34.42 13.04 31.47 19.11 36.33 14.43 32.47 19.97 38.01 16.1 33.32 20.97 39.4 18.01 34.01 22.09 40.47 20.12 34.51 23.3 41.2 22.37 34.82 24.58 41.57 24.71 34.92 25.89 41.57 27.07 34.82 27.2 41.2 29.41 34.51 28.48 40.47 31.66 34.01 29.69 39.4 33.77 33.32 30.81 38.01 35.68 32.47 31.81 36.33 37.35 31.47 32.67 34.42 38.74 30.34 33.35 32.31 39.82 29.13 33.86 30.06 40.55 27.85 34.16 27.73 40.92 26.54 34.27 25.36 40.92 25.23 34.16 23.02 40.55 23.95 33.86 20.77 39.82 22.74 33.35 18.67 38.74 21.62 32.67 16.75 37.35 20.62 31.81 15.08 35.68 19.77 30.81 13.69 33.77 19.08 29.69 12.61 31.66 18.58 28.48 11.88 29.41 18.27 27.2 11.51 27.07 18.17 25.89 11.51 24.71 18.27 24.58 11.88 22.37 18.58 23.3 12.61 20.12 19.08 22.09 13.69 18.01 19.77 20.97 15.08 16.1 20.62 19.97 16.75 14.43 21.62 19.11 18.67 13.04 22.74 18.43 20.77 11.96 23.95 17.92 23.02 11.23 25.23 17.62 25.36 10.86 26.54 17.51" style="fill: url(#radial-gradient-5); mix-blend-mode: multiply;"/>
      </g>
    </mask>
    <filter id="luminosity-noclip-5" x="11.51" y="10.86" width="30.06" height="30.06" color-interpolation-filters="sRGB" filterUnits="userSpaceOnUse">
      <feFlood flood-color="#fff" result="bg"/>
      <feBlend in="SourceGraphic" in2="bg"/>
    </filter>
    <filter id="luminosity-noclip-6" x="11.51" y="-8317" width="30.06" height="32766" color-interpolation-filters="sRGB" filterUnits="userSpaceOnUse">
      <feFlood flood-color="#fff" result="bg"/>
      <feBlend in="SourceGraphic" in2="bg"/>
    </filter>
    <mask id="mask-7" x="11.51" y="-8317" width="30.06" height="32766" maskUnits="userSpaceOnUse"/>
    <mask id="mask-6" x="11.51" y="10.86" width="30.06" height="30.06" maskUnits="userSpaceOnUse">
      <g style="filter: url(#luminosity-noclip-5);">
        <g style="mask: url(#mask-7);">
          <polygon points="26.54 17.51 27.73 10.86 27.85 17.62 30.06 11.23 29.13 17.92 32.31 11.96 30.34 18.43 34.42 13.04 31.47 19.11 36.33 14.43 32.47 19.97 38.01 16.1 33.32 20.97 39.4 18.01 34.01 22.09 40.47 20.12 34.51 23.3 41.2 22.37 34.82 24.58 41.57 24.71 34.92 25.89 41.57 27.07 34.82 27.2 41.2 29.41 34.51 28.48 40.47 31.66 34.01 29.69 39.4 33.77 33.32 30.81 38.01 35.68 32.47 31.81 36.33 37.35 31.47 32.67 34.42 38.74 30.34 33.35 32.31 39.82 29.13 33.86 30.06 40.55 27.85 34.16 27.73 40.92 26.54 34.27 25.36 40.92 25.23 34.16 23.02 40.55 23.95 33.86 20.77 39.82 22.74 33.35 18.67 38.74 21.62 32.67 16.75 37.35 20.62 31.81 15.08 35.68 19.77 30.81 13.69 33.77 19.08 29.69 12.61 31.66 18.58 28.48 11.88 29.41 18.27 27.2 11.51 27.07 18.17 25.89 11.51 24.71 18.27 24.58 11.88 22.37 18.58 23.3 12.61 20.12 19.08 22.09 13.69 18.01 19.77 20.97 15.08 16.1 20.62 19.97 16.75 14.43 21.62 19.11 18.67 13.04 22.74 18.43 20.77 11.96 23.95 17.92 23.02 11.23 25.23 17.62 25.36 10.86 26.54 17.51" style="fill: url(#radial-gradient-5); mix-blend-mode: multiply;"/>
        </g>
      </g>
    </mask>
    <radialGradient id="radial-gradient-6" cx="26.54" cy="25.89" fx="26.54" fy="25.89" r="15.03" gradientUnits="userSpaceOnUse">
      <stop offset=".76" stop-color="#fcdf5f"/>
      <stop offset=".8" stop-color="#fce24d"/>
      <stop offset=".94" stop-color="#fcef15"/>
      <stop offset="1" stop-color="#fcf400"/>
    </radialGradient>
    <filter id="luminosity-noclip-7" x="9.85" y="-8317" width="33.38" height="32766" color-interpolation-filters="sRGB" filterUnits="userSpaceOnUse">
      <feFlood flood-color="#fff" result="bg"/>
      <feBlend in="SourceGraphic" in2="bg"/>
    </filter>
    <mask id="mask-9" x="9.85" y="-8317" width="33.38" height="32766" maskUnits="userSpaceOnUse"/>
    <radialGradient id="radial-gradient-7" cx="26.09" cy="80.61" fx="26.09" fy="80.61" r="16.64" gradientTransform="translate(7.3 -56.62) rotate(4.81)" xlink:href="#radial-gradient-5"/>
    <mask id="mask-8" x="9.85" y="9.2" width="33.38" height="33.38" maskUnits="userSpaceOnUse">
      <g style="mask: url(#mask-9);">
        <polygon points="27.32 16.65 29.24 9.42 28.76 16.89 31.79 10.04 30.14 17.34 34.2 11.06 31.43 18.01 36.43 12.44 32.6 18.87 38.41 14.15 33.63 19.91 40.1 16.15 34.48 21.09 41.45 18.39 35.13 22.39 42.44 20.82 35.57 23.77 43.04 23.37 35.79 25.21 43.23 25.98 35.78 26.67 43.01 28.59 35.55 28.1 42.39 31.13 35.09 29.48 41.37 33.55 34.42 30.78 39.99 35.77 33.56 31.95 38.28 37.75 32.53 32.97 36.28 39.45 31.34 33.82 34.04 40.8 30.04 34.48 31.61 41.79 28.66 34.92 29.07 42.39 27.22 35.14 26.45 42.58 25.77 35.13 23.84 42.36 24.33 34.89 21.3 41.74 22.95 34.44 18.89 40.72 21.66 33.77 16.66 39.34 20.48 32.91 14.68 37.63 19.46 31.87 12.99 35.63 18.61 30.69 11.63 33.39 17.96 29.39 10.64 30.96 17.51 28.01 10.04 28.41 17.3 26.57 9.85 25.8 17.3 25.11 10.07 23.19 17.54 23.68 10.7 20.65 18 22.3 11.71 18.23 18.66 21 13.09 16.01 19.52 19.83 14.8 14.03 20.56 18.81 16.8 12.34 21.74 17.96 19.04 10.98 23.04 17.3 21.47 9.99 24.43 16.86 24.02 9.39 25.86 16.64 26.63 9.2 27.32 16.65" style="fill: url(#radial-gradient-7); mix-blend-mode: multiply;"/>
      </g>
    </mask>
    <filter id="luminosity-noclip-8" x="9.85" y="9.2" width="33.38" height="33.38" color-interpolation-filters="sRGB" filterUnits="userSpaceOnUse">
      <feFlood flood-color="#fff" result="bg"/>
      <feBlend in="SourceGraphic" in2="bg"/>
    </filter>
    <filter id="luminosity-noclip-9" x="9.85" y="-8317" width="33.38" height="32766" color-interpolation-filters="sRGB" filterUnits="userSpaceOnUse">
      <feFlood flood-color="#fff" result="bg"/>
      <feBlend in="SourceGraphic" in2="bg"/>
    </filter>
    <mask id="mask-11" x="9.85" y="-8317" width="33.38" height="32766" maskUnits="userSpaceOnUse"/>
    <radialGradient id="radial-gradient-8" cx="26.09" cy="80.61" fx="26.09" fy="80.61" r="16.64" gradientTransform="translate(7.3 -56.62) rotate(4.81)" xlink:href="#radial-gradient-5"/>
    <mask id="mask-10" x="9.85" y="9.2" width="33.38" height="33.38" maskUnits="userSpaceOnUse">
      <g style="filter: url(#luminosity-noclip-8);">
        <g style="mask: url(#mask-11);">
          <polygon points="27.32 16.65 29.24 9.42 28.76 16.89 31.79 10.04 30.14 17.34 34.2 11.06 31.43 18.01 36.43 12.44 32.6 18.87 38.41 14.15 33.63 19.91 40.1 16.15 34.48 21.09 41.45 18.39 35.13 22.39 42.44 20.82 35.57 23.77 43.04 23.37 35.79 25.21 43.23 25.98 35.78 26.67 43.01 28.59 35.55 28.1 42.39 31.13 35.09 29.48 41.37 33.55 34.42 30.78 39.99 35.77 33.56 31.95 38.28 37.75 32.53 32.97 36.28 39.45 31.34 33.82 34.04 40.8 30.04 34.48 31.61 41.79 28.66 34.92 29.07 42.39 27.22 35.14 26.45 42.58 25.77 35.13 23.84 42.36 24.33 34.89 21.3 41.74 22.95 34.44 18.89 40.72 21.66 33.77 16.66 39.34 20.48 32.91 14.68 37.63 19.46 31.87 12.99 35.63 18.61 30.69 11.63 33.39 17.96 29.39 10.64 30.96 17.51 28.01 10.04 28.41 17.3 26.57 9.85 25.8 17.3 25.11 10.07 23.19 17.54 23.68 10.7 20.65 18 22.3 11.71 18.23 18.66 21 13.09 16.01 19.52 19.83 14.8 14.03 20.56 18.81 16.8 12.34 21.74 17.96 19.04 10.98 23.04 17.3 21.47 9.99 24.43 16.86 24.02 9.39 25.86 16.64 26.63 9.2 27.32 16.65" style="fill: url(#radial-gradient-8); mix-blend-mode: multiply;"/>
        </g>
      </g>
    </mask>
    <radialGradient id="radial-gradient-9" cx="26.09" cy="80.61" fx="26.09" fy="80.61" r="16.64" gradientTransform="translate(7.3 -56.62) rotate(4.81)" xlink:href="#radial-gradient-6"/>
    <filter id="luminosity-noclip-10" x="9.85" y="-8317" width="33.38" height="32766" color-interpolation-filters="sRGB" filterUnits="userSpaceOnUse">
      <feFlood flood-color="#fff" result="bg"/>
      <feBlend in="SourceGraphic" in2="bg"/>
    </filter>
    <mask id="mask-13" x="9.85" y="-8317" width="33.38" height="32766" maskUnits="userSpaceOnUse"/>
    <radialGradient id="radial-gradient-10" cx="26.09" cy="80.61" fx="26.09" fy="80.61" r="16.64" gradientTransform="translate(7.3 -56.62) rotate(4.81)" xlink:href="#radial-gradient-5"/>
    <mask id="mask-12" x="9.85" y="9.2" width="33.38" height="33.38" maskUnits="userSpaceOnUse">
      <g style="mask: url(#mask-13);">
        <polygon points="27.32 16.65 29.24 9.42 28.76 16.89 31.79 10.04 30.14 17.34 34.2 11.06 31.43 18.01 36.43 12.44 32.6 18.87 38.41 14.15 33.63 19.91 40.1 16.15 34.48 21.09 41.45 18.39 35.13 22.39 42.44 20.82 35.57 23.77 43.04 23.37 35.79 25.21 43.23 25.98 35.78 26.67 43.01 28.59 35.55 28.1 42.39 31.13 35.09 29.48 41.37 33.55 34.42 30.78 39.99 35.77 33.56 31.95 38.28 37.75 32.53 32.97 36.28 39.45 31.34 33.82 34.04 40.8 30.04 34.48 31.61 41.79 28.66 34.92 29.07 42.39 27.22 35.14 26.45 42.58 25.77 35.13 23.84 42.36 24.33 34.89 21.3 41.74 22.95 34.44 18.89 40.72 21.66 33.77 16.66 39.34 20.48 32.91 14.68 37.63 19.46 31.87 12.99 35.63 18.61 30.69 11.63 33.39 17.96 29.39 10.64 30.96 17.51 28.01 10.04 28.41 17.3 26.57 9.85 25.8 17.3 25.11 10.07 23.19 17.54 23.68 10.7 20.65 18 22.3 11.71 18.23 18.66 21 13.09 16.01 19.52 19.83 14.8 14.03 20.56 18.81 16.8 12.34 21.74 17.96 19.04 10.98 23.04 17.3 21.47 9.99 24.43 16.86 24.02 9.39 25.86 16.64 26.63 9.2 27.32 16.65" style="fill: url(#radial-gradient-10); mix-blend-mode: multiply;"/>
      </g>
    </mask>
    <linearGradient id="linear-gradient-2" x1="26.54" y1="42.53" x2="26.54" y2="9.22" gradientUnits="userSpaceOnUse">
      <stop offset="0" stop-color="#fea30a"/>
      <stop offset="1" stop-color="#fde07a"/>
    </linearGradient>
    <linearGradient id="linear-gradient-3" x1="26.41" y1="36.94" x2="26.41" y2="14.42" gradientTransform="translate(1 -.99) rotate(2.2)" gradientUnits="userSpaceOnUse">
      <stop offset="0" stop-color="#fea008"/>
      <stop offset=".5" stop-color="#fcca1e"/>
      <stop offset="1" stop-color="#feeda0"/>
    </linearGradient>
    <linearGradient id="linear-gradient-4" x1="26.41" y1="22.05" x2="26.41" y2="14.87" gradientUnits="userSpaceOnUse">
      <stop offset="0" stop-color="#fdea56"/>
      <stop offset=".6" stop-color="#fef099"/>
      <stop offset="1" stop-color="#fff5c9"/>
    </linearGradient>
  </defs>
  <g style="isolation: isolate;">
    <g id="transparent">
      <rect width="300" height="250" style="fill: none;"/>
    </g>
    <g id="background">
      <rect y="0" width="300" height="250" style="fill: url(#linear-gradient);"/>
      <path d="m26.54,52.84s3.96-4.46,5.95-5.07l3.46-.78s.48-.18.51-.34c0,0-.22-.32.64-.39,0,0,.44.06.54.05.09-.01.35-.06.6-.17,0,0,2.93-1.98,3.01-2.1,0,0,2.14-.74,7.33.16,0,0,.77.02.97,0,0,0,0,.22-.37.28-.37.06-1.9.24-2.52.28-.62.04-1.92.09-2.63.33-.7.24-2.24.7-3.14,1.26-.9.56-1.13.71-1.42,1.04-.29.33-.57.69-.57.69l-.08.1v.47s.49.75.49.75c0,0,.08.18,0,.25-.09.07-.45.43-.45.43,0,0-.25.14-.39.15-.14.02-.71.05-.71.05,0,0-.18-.09-.22-.24-.03-.15-.18-.9-.18-.9,0,0-.51-.52-.52-.56,0-.05-.38-.08-.49-.07-.11.01-2.41-.04-5.97,2.36,0,0-3.09,1.92-3.4,1.98-.31.05-.16.16-.43-.01Z" style="fill: url(#radial-gradient);"/>
      <path d="m138.5,53.68s3.96,4.46,5.95,5.07l3.46.78s.48.18.51.34c0,0-.22.32.64.39,0,0,.44-.06.54-.05.09.01.35.06.6.17,0,0,2.93,1.98,3.01,2.1,0,0,2.14.74,7.33-.16,0,0,.77-.02.97,0,0,0,0-.22-.37-.28-.37-.06-1.9-.24-2.52-.28-.62-.04-1.92-.09-2.63-.33-.7-.24-2.24-.7-3.14-1.26-.9-.56-1.13-.71-1.42-1.04-.29-.33-.57-.69-.57-.69l-.08-.1v-.47s.49-.75.49-.75c0,0,.08-.18,0-.25-.09-.07-.45-.43-.45-.43,0,0-.25-.14-.39-.15-.14-.02-.71-.05-.71-.05,0,0-.18.09-.22.24-.03.15-.18.9-.18.9,0,0-.51.52-.52.56,0,.05-.38.08-.49.07-.11-.01-2.41.04-5.97-2.36,0,0-3.09-1.92-3.4-1.98-.31-.05-.16-.16-.43.01Z" style="fill: url(#radial-gradient-2);"/>
    </g>
    <g id="white">
      <path d="m95.42,41.9s-32.73,0-32.73,0c-5.22-4.58-2.04-10.39,2.5-10.39.11,0,.22,0,.33.01.1-4,3.37-7.22,7.39-7.22,1.01,0,1.96.2,2.84.56,1.6-4.41,6.76-7.12,12.01-4.63.14.07.27.15.39.25,3.52,2.94,4.24,5.71,3.97,8.19.04,0,.08,0,.12,0,5.77,0,9.82,7.39,3.18,13.23Z" style="fill: #fff;"/>
      <path d="m201.26,29.78c-.09,0-.18,0-.27,0-.08-3.26-2.75-5.88-6.03-5.88-.55,0-1.08.08-1.59.21-.6-2.86-3.14-5.01-6.18-5.01s-5.64,2.2-6.2,5.11c-.57-.15-1.16-.22-1.77-.22-3.94,0-7.13,3.19-7.13,7.13s3.19,7.13,7.13,7.13h22.05c2.34,0,4.24-1.9,4.24-4.24s-1.9-4.24-4.24-4.24Z" style="fill: #fff;"/>
      <path d="m268.57,36.75s0,0,0,0h3.02c1.39,1.65,3.48,2.71,5.81,2.71s4.31-1,5.7-2.57c.66.66,1.56,1.07,2.57,1.07,1.07,0,2.03-.47,2.69-1.2h3.49c2.47,0,4.48-2,4.48-4.48s-2-4.48-4.48-4.48c-.1,0-.19,0-.29.01-.08-3.45-2.9-6.21-6.37-6.21-.87,0-1.69.17-2.44.49-1.02-2.8-3.7-4.8-6.85-4.8-4.02,0-7.29,3.26-7.29,7.29,0,.27.02.53.04.8-.03,0-.07,0-.1,0-3.15,0-5.7,2.55-5.7,5.7s2.55,5.7,5.7,5.7Z" style="fill: #fff;"/>
    </g>
    <g id="_ÎÓÈ_1" data-name="—ÎÓÈ_1">
      <g>
        <g style="mask: url(#mask);">
          <g style="mask: url(#mask-2);">
            <path d="m41.66,25.53c0,8.42-6.83,15.25-15.25,15.25s-15.25-6.83-15.25-15.25,6.83-15.25,15.25-15.25,15.25,6.83,15.25,15.25Z" style="fill: url(#radial-gradient-4);"/>
          </g>
        </g>
        <g style="mask: url(#mask-4);">
          <g style="mask: url(#mask-6);">
            <polygon points="26.54 17.51 27.73 10.86 27.85 17.62 30.06 11.23 29.13 17.92 32.31 11.96 30.34 18.43 34.42 13.04 31.47 19.11 36.33 14.43 32.47 19.97 38.01 16.1 33.32 20.97 39.4 18.01 34.01 22.09 40.47 20.12 34.51 23.3 41.2 22.37 34.82 24.58 41.57 24.71 34.92 25.89 41.57 27.07 34.82 27.2 41.2 29.41 34.51 28.48 40.47 31.66 34.01 29.69 39.4 33.77 33.32 30.81 38.01 35.68 32.47 31.81 36.33 37.35 31.47 32.67 34.42 38.74 30.34 33.35 32.31 39.82 29.13 33.86 30.06 40.55 27.85 34.16 27.73 40.92 26.54 34.27 25.36 40.92 25.23 34.16 23.02 40.55 23.95 33.86 20.77 39.82 22.74 33.35 18.67 38.74 21.62 32.67 16.75 37.35 20.62 31.81 15.08 35.68 19.77 30.81 13.69 33.77 19.08 29.69 12.61 31.66 18.58 28.48 11.88 29.41 18.27 27.2 11.51 27.07 18.17 25.89 11.51 24.71 18.27 24.58 11.88 22.37 18.58 23.3 12.61 20.12 19.08 22.09 13.69 18.01 19.77 20.97 15.08 16.1 20.62 19.97 16.75 14.43 21.62 19.11 18.67 13.04 22.74 18.43 20.77 11.96 23.95 17.92 23.02 11.23 25.23 17.62 25.36 10.86 26.54 17.51" style="fill: url(#radial-gradient-6);"/>
          </g>
        </g>
        <g style="mask: url(#mask-8);">
          <g style="mask: url(#mask-10);">
            <polygon points="27.32 16.65 29.24 9.42 28.76 16.89 31.79 10.04 30.14 17.34 34.2 11.06 31.43 18.01 36.43 12.44 32.6 18.87 38.41 14.15 33.63 19.91 40.1 16.15 34.48 21.09 41.45 18.39 35.13 22.39 42.44 20.82 35.57 23.77 43.04 23.37 35.79 25.21 43.23 25.98 35.78 26.67 43.01 28.59 35.55 28.1 42.39 31.13 35.09 29.48 41.37 33.55 34.42 30.78 39.99 35.77 33.56 31.95 38.28 37.75 32.53 32.97 36.28 39.45 31.34 33.82 34.04 40.8 30.04 34.48 31.61 41.79 28.66 34.92 29.07 42.39 27.22 35.14 26.45 42.58 25.77 35.13 23.84 42.36 24.33 34.89 21.3 41.74 22.95 34.44 18.89 40.72 21.66 33.77 16.66 39.34 20.48 32.91 14.68 37.63 19.46 31.87 12.99 35.63 18.61 30.69 11.63 33.39 17.96 29.39 10.64 30.96 17.51 28.01 10.04 28.41 17.3 26.57 9.85 25.8 17.3 25.11 10.07 23.19 17.54 23.68 10.7 20.65 18 22.3 11.71 18.23 18.66 21 13.09 16.01 19.52 19.83 14.8 14.03 20.56 18.81 16.8 12.34 21.74 17.96 19.04 10.98 23.04 17.3 21.47 9.99 24.43 16.86 24.02 9.39 25.86 16.64 26.63 9.2 27.32 16.65" style="fill: url(#radial-gradient-9);"/>
          </g>
        </g>
        <g style="mask: url(#mask-12);">
          <polygon points="27.32 16.65 29.24 9.42 28.76 16.89 31.79 10.04 30.14 17.34 34.2 11.06 31.43 18.01 36.43 12.44 32.6 18.87 38.41 14.15 33.63 19.91 40.1 16.15 34.48 21.09 41.45 18.39 35.13 22.39 42.44 20.82 35.57 23.77 43.04 23.37 35.79 25.21 43.23 25.98 35.78 26.67 43.01 28.59 35.55 28.1 42.39 31.13 35.09 29.48 41.37 33.55 34.42 30.78 39.99 35.77 33.56 31.95 38.28 37.75 32.53 32.97 36.28 39.45 31.34 33.82 34.04 40.8 30.04 34.48 31.61 41.79 28.66 34.92 29.07 42.39 27.22 35.14 26.45 42.58 25.77 35.13 23.84 42.36 24.33 34.89 21.3 41.74 22.95 34.44 18.89 40.72 21.66 33.77 16.66 39.34 20.48 32.91 14.68 37.63 19.46 31.87 12.99 35.63 18.61 30.69 11.63 33.39 17.96 29.39 10.64 30.96 17.51 28.01 10.04 28.41 17.3 26.57 9.85 25.8 17.3 25.11 10.07 23.19 17.54 23.68 10.7 20.65 18 22.3 11.71 18.23 18.66 21 13.09 16.01 19.52 19.83 14.8 14.03 20.56 18.81 16.8 12.34 21.74 17.96 19.04 10.98 23.04 17.3 21.47 9.99 24.43 16.86 24.02 9.39 25.86 16.64 26.63 9.2 27.32 16.65" style="fill: url(#linear-gradient-2); opacity: .22;"/>
        </g>
        <circle cx="26.41" cy="25.53" r="11.26" transform="translate(-.96 1.03) rotate(-2.2)" style="fill: url(#linear-gradient-3);"/>
        <path d="m32.86,18.57c0,1.96-2.89,3.55-6.45,3.55s-6.44-1.59-6.44-3.55,2.89-3.55,6.44-3.55,6.45,1.59,6.45,3.55Z" style="fill: url(#linear-gradient-4); mix-blend-mode: screen; opacity: .27;"/>
      </g>
    </g>
    <g id="Layer_3" data-name="Layer 3">
      <g>
        <path d="m121.11,32.36c-1.41-2.76-2.46-5.71-3.16-8.85-.42-1.87-.46-3.69-.12-5.44,1.35-4.78,3.75-7.26,7.21-7.42h.29c-1.9.07-3.22,2.55-3.96,7.42-.17,1.76-.15,3.57.06,5.44.38,3.14.95,6.09,1.7,8.85h-2.02Zm2.61,9.58h3.76v.87h-4.31v-.87h.55Zm4.02-9.58h-2.36l.03-20.18v-1.53h.15c1.89.11,3.2,2.59,3.93,7.42.18,1.76.16,3.57-.06,5.44-.37,3.14-.93,6.09-1.69,8.85Zm-1.96-21.71c5.07.11,8.58,2.59,10.53,7.42.47,1.76.41,3.57-.18,5.44-.99,3.14-2.49,6.09-4.51,8.85h-1.86c1.41-2.76,2.46-5.71,3.16-8.85.42-1.87.46-3.69.12-5.44-1.35-4.79-3.77-7.27-7.27-7.42Zm-.18,27.48c0,.07-.02.13-.06.17-.05.05-.11.08-.18.08-.06,0-.12-.03-.17-.08-.05-.04-.08-.1-.08-.17s.03-.13.08-.18c.05-.04.11-.06.17-.06.07,0,.13.02.18.06.04.05.06.11.06.18Z" style="fill: #fbcf54; fill-rule: evenodd;"/>
        <path d="m125.56,10.65h.21c3.5.15,5.92,2.63,7.27,7.42.34,1.76.3,3.57-.12,5.44-.7,3.14-1.75,6.09-3.16,8.85h-2.02c.76-2.76,1.32-5.71,1.69-8.85.22-1.87.25-3.69.06-5.44-.73-4.84-2.03-7.31-3.93-7.42Zm-1.98,32.17h3.45v1.7h-3.45v-1.7Zm1.46-32.17c-3.46.16-5.86,2.64-7.21,7.42-.34,1.76-.3,3.57.12,5.44.7,3.14,1.75,6.09,3.16,8.85h-1.86c-2-2.76-3.51-5.71-4.51-8.85-.59-1.87-.65-3.69-.18-5.44,1.95-4.84,5.44-7.31,10.47-7.42Zm.37,1.53l-.03,20.18h-2.24c-.76-2.76-1.32-5.71-1.7-8.85-.21-1.87-.24-3.69-.06-5.44.74-4.88,2.05-7.35,3.96-7.42h.05l.03,1.53Z" style="fill: #00a6cc; fill-rule: evenodd;"/>
        <path d="m127.74,32.36h3.88c-1.28,1.77-2.77,3.46-4.46,5.06l-.02.02h-.14v4.51h-.18v-4.52h-.89v1.03h.21v.51h-.43v1.12h-.75v-1.12h-.38v-.51h.21v-1.03h-.89v4.52h-.18v-4.52c-1.7-1.6-3.18-3.29-4.46-5.06h8.48Zm-1.99,5.06h-.77v1.03h.77v-1.03Z" style="fill: #de5374; fill-rule: evenodd;"/>
      </g>
    </g>
    <g id="layer_1" data-name="layer 1">
      <g>
        <polygon points="233.84 23.52 236.72 22.15 234.72 21.76 229.51 22.67 233.84 23.52" style="fill: #f3581a;"/>
        <polygon points="243.93 24.37 250.15 17.47 252.15 17.86 248.55 25.89 243.93 24.37" style="fill: #f3581a;"/>
        <path d="m219.1,20.54c4.42.87,19.69,3.85,19.69,3.85l5.31-.21.03.2,5.25,1.67-.3,1.51s-9.17,1.9-11.06,1.93c-1.89.02-14.36-2.42-18.27-3.18-3.91-.76-7.77-2.53-7.53-3.77,0,0,2.45-2.87,6.87-2Z" style="fill: #fff;"/>
        <polygon points="248.02 26.91 249.46 31.61 247.88 31.3 243.99 25.73 248.02 26.91" style="fill: #f3581a;"/>
        <path d="m214.11,21.17l2.79.55s-.26.54-3.56-.11c0,0,.21-.15.4-.25.14-.07.36-.19.36-.19Z" style="fill: #27968e;"/>
        <polygon points="245.12 28.36 219.12 23.27 217.83 23.96 242.67 28.82 245.12 28.36" style="fill: #27968e;"/>
        <path d="m233.76,26.63l4.1,6.21-2.84-.56-8.66-7.1s4.38-.43,7.4,1.45Z" style="fill: #f3581a;"/>
        <g>
          <g>
            <g>
              <g>
                <path d="m220.13,22.6c-.03.18.06.34.21.37h0c.15.03.3-.09.34-.27l.07-.37c.03-.18-.06-.34-.21-.37h0c-.15-.03-.3.09-.34.27l-.07.37Z" style="fill: #27968e;"/>
                <path d="m221.33,22.84c-.03.18.06.34.21.37h0c.15.03.3-.09.34-.27l.07-.37c.03-.18-.06-.34-.21-.37h0c-.15-.03-.3.09-.34.27l-.07.37Z" style="fill: #27968e;"/>
              </g>
              <g>
                <path d="m222.54,23.07c-.03.18.06.34.21.37h0c.15.03.3-.09.34-.27l.07-.37c.03-.18-.06-.34-.21-.37h0c-.15-.03-.3.09-.34.27l-.07.37Z" style="fill: #27968e;"/>
                <path d="m223.74,23.31c-.03.18.06.34.21.37h0c.15.03.3-.09.34-.27l.07-.37c.03-.18-.06-.34-.21-.37h0c-.15-.03-.3.09-.34.27l-.07.37Z" style="fill: #27968e;"/>
              </g>
            </g>
            <g>
              <g>
                <path d="m224.94,23.54c-.03.18.06.34.21.37h0c.15.03.3-.09.34-.27l.07-.37c.03-.18-.06-.34-.21-.37h0c-.15-.03-.3.09-.34.27l-.07.37Z" style="fill: #27968e;"/>
                <path d="m226.14,23.78c-.03.18.06.34.21.37h0c.15.03.3-.09.34-.27l.07-.37c.03-.18-.06-.34-.21-.37h0c-.15-.03-.3.09-.34.27l-.07.37Z" style="fill: #27968e;"/>
              </g>
              <g>
                <path d="m227.34,24.01c-.03.18.06.34.21.37h0c.15.03.3-.09.34-.27l.07-.37c.03-.18-.06-.34-.21-.37h0c-.15-.03-.3.09-.34.27l-.07.37Z" style="fill: #27968e;"/>
                <path d="m228.54,24.25c-.03.18.06.34.21.37h0c.15.03.3-.09.34-.27l.07-.37c.03-.18-.06-.34-.21-.37h0c-.15-.03-.3.09-.34.27l-.07.37Z" style="fill: #27968e;"/>
              </g>
            </g>
          </g>
          <g>
            <g>
              <g>
                <path d="m229.74,24.48c-.03.18.06.34.21.37h0c.15.03.3-.09.34-.27l.07-.37c.03-.18-.06-.34-.21-.37h0c-.15-.03-.3.09-.34.27l-.07.37Z" style="fill: #27968e;"/>
                <path d="m230.95,24.72c-.03.18.06.34.21.37h0c.15.03.3-.09.34-.27l.07-.37c.03-.18-.06-.34-.21-.37h0c-.15-.03-.3.09-.34.27l-.07.37Z" style="fill: #27968e;"/>
              </g>
              <g>
                <path d="m232.15,24.95c-.03.18.06.34.21.37h0c.15.03.3-.09.34-.27l.07-.37c.03-.18-.06-.34-.21-.37h0c-.15-.03-.3.09-.34.27l-.07.37Z" style="fill: #27968e;"/>
                <path d="m233.35,25.19c-.03.18.06.34.21.37h0c.15.03.3-.09.34-.27l.07-.37c.03-.18-.06-.34-.21-.37h0c-.15-.03-.3.09-.34.27l-.07.37Z" style="fill: #27968e;"/>
              </g>
            </g>
            <g>
              <g>
                <path d="m234.55,25.42c-.03.18.06.34.21.37h0c.15.03.3-.09.34-.27l.07-.37c.03-.18-.06-.34-.21-.37h0c-.15-.03-.3.09-.34.27l-.07.37Z" style="fill: #27968e;"/>
                <path d="m235.75,25.66c-.03.18.06.34.21.37h0c.15.03.3-.09.34-.27l.07-.37c.03-.18-.06-.34-.21-.37h0c-.15-.03-.3.09-.34.27l-.07.37Z" style="fill: #27968e;"/>
              </g>
              <g>
                <path d="m236.95,25.89c-.03.18.06.34.21.37h0c.15.03.3-.09.34-.27l.07-.37c.03-.18-.06-.34-.21-.37h0c-.15-.03-.3.09-.34.27l-.07.37Z" style="fill: #27968e;"/>
                <path d="m238.16,26.13c-.03.18.06.34.21.37h0c.15.03.3-.09.34-.27l.07-.37c.03-.18-.06-.34-.21-.37h0c-.15-.03-.3.09-.34.27l-.07.37Z" style="fill: #27968e;"/>
              </g>
            </g>
          </g>
        </g>
      </g>
    </g>
  </g>
</svg>