<?xml version="1.0" encoding="UTF-8"?>
<svg xmlns="http://www.w3.org/2000/svg" width="300" height="250" viewBox="0 0 300 250">
  <g id="transparent">
    <rect width="300" height="250" style="fill: none;"/>
  </g>
  <g id="eight">
    <g>
      <path d="m262.5,226.37c4.87-6.58,3.68-11.01,1.13-20.67.16-3.42-1.57-6.07-2.68-8.54.83-6.78-2.81-9.86-2.93-11.69,3.79-2.91,8.06-10.15,3.99-16.31-6.63,1.92-7.1,9.34-8.28,13.27-.87-.75-3.03-.64-3.97-.11-.54-3.72-2.49-11.68-9.4-12.88-2.65,7.9,1.75,13.7,4.86,15.92-.11,2.53-3.41,5.07-2.72,11.66-1.09,1.87-2.79,5.54-2.11,9.72-2.54,9.57-3.9,13.09.56,19.29-2.46,7.71,3.7,5.36,5.25.89,2.42.28,8.42.57,10.84-.24,1.69,4.84,7.93,7.11,5.46-.31h0Zm0,0" style="fill: #999;"/>
      <path d="m246.53,185.67c-1.7-.07-2.25,3.08-.45,3.36,2.17.34,2.48-3.29.45-3.36h0Zm0,0" style="fill: #c6c6c6;"/>
      <path d="m256.62,185.95c1.7-.06,2.25,3.08.45,3.37-2.17.34-2.48-3.29-.45-3.37h0Zm0,0" style="fill: #c6c6c6;"/>
      <path d="m244.37,197.07c1.49,1.43,3.9,2.33,5.97,2.33-2.63,1.29-5.66-.42-5.97-2.33h0Zm0,0" style="fill: #c6c6c6;"/>
      <path d="m259.12,197.11c-1.48,1.43-3.9,2.33-5.97,2.33,2.62,1.3,5.65-.41,5.97-2.33h0Zm0,0" style="fill: #c6c6c6;"/>
      <path d="m247.47,187.64c-.17.73-.79,1.21-1.36,1.07-.58-.14-.91-.85-.73-1.57.17-.73.79-1.21,1.36-1.07.58.14.9.84.73,1.58h0Zm0,0"/>
      <path d="m255.73,187.86c.18.73.79,1.21,1.36,1.07.58-.14.9-.85.73-1.57-.18-.73-.79-1.21-1.36-1.07-.58.14-.9.84-.73,1.58h0Zm0,0"/>
      <path d="m252.83,190.09c-.07.01-.13.08-.14.15-.08.48-.23.83-.39,1.05-.16.22-.35.3-.51.3s-.35-.1-.52-.31c-.18-.21-.33-.56-.42-1.02-.02-.1-.12-.17-.22-.15-.09.02-.16.12-.15.22.1.51.27.91.5,1.19.22.28.51.45.8.45.3,0,.58-.17.8-.45.22-.28.38-.68.46-1.2.03-.12-.1-.24-.22-.22h0Zm0,0" style="fill: #666;"/>
      <path d="m251.74,191.59c-.09.02-.15.11-.15.2l.06,1.07c.01.1.1.18.2.18.09,0,.18-.1.17-.2l-.06-1.07c0-.11-.11-.2-.22-.18h0Zm0,0" style="fill: #666;"/>
      <path d="m251.8,192.67c-.06.01-.12.06-.14.12-.11.25-.55.55-.88.63-.16.04-.28.03-.32,0-.02-.01-.03-.03-.04-.07-.01-.05-.01-.11.02-.22.06-.1,0-.23-.11-.26-.1-.03-.23.05-.24.16-.04.14-.06.27-.03.39.02.12.08.23.17.3.19.13.41.13.63.07.37-.09.73-.36.96-.68.26.31.67.56,1.08.64.24.05.48.06.67-.09.09-.07.15-.18.17-.31.02-.13.01-.27-.04-.43-.03-.09-.13-.15-.23-.13-.1.03-.15.14-.13.23.04.12.04.2.04.25-.01.05-.03.08-.05.09-.05.04-.18.06-.37.03-.37-.08-.85-.41-.98-.64-.04-.07-.12-.1-.2-.09h0Zm0,0" style="fill: #666;"/>
      <path d="m256.71,201.73s-.06.01-.08.04c-.36.24-.93.81-1.57,1.58-.64.77-1.33,1.74-1.89,2.75-.56,1.01-.97,2.07-1.04,3.04-.07.97.23,1.88,1.1,2.47.56.38,1.1.48,1.58.38.48-.1.9-.38,1.27-.73.74-.69,1.33-1.65,1.81-2.02,1.31-1.02,2.04-2.4,3.74-2.97.09-.03.15-.14.11-.24-.03-.09-.15-.14-.24-.11-1.84.61-2.61,2.08-3.84,3.03-.59.46-1.15,1.41-1.83,2.05-.34.32-.7.56-1.08.63-.39.08-.81,0-1.31-.33-.76-.52-1-1.25-.94-2.14.06-.88.46-1.89,1-2.88.54-.98,1.23-1.93,1.85-2.68.63-.76,1.21-1.33,1.49-1.52.13-.09.04-.36-.12-.33h0Zm0,0" style="fill: #666;"/>
      <path d="m246.48,201.96c-.16.03-.18.31-.03.36,2.27.86,4.44,2.77,4.85,4.45.15.62.5,1.48.57,2.27.04.39,0,.75-.15,1.05-.14.29-.38.54-.82.7-.6.22-1.1.08-1.66-.26-.56-.34-1.14-.89-1.81-1.47-1.45-1.26-2.71-1.27-3.96-1.92-.08-.06-.22-.03-.27.07-.05.09,0,.22.1.26,1.33.69,2.51.68,3.89,1.87.65.57,1.24,1.14,1.85,1.51.61.38,1.27.55,1.98.29.51-.19.85-.51,1.03-.89s.21-.81.17-1.25c-.07-.87-.42-1.76-.56-2.33-.46-1.9-2.72-3.8-5.08-4.7-.03-.01-.07-.02-.1-.01h0Zm0,0" style="fill: #666;"/>
      <path d="m246.26,226.88c-1.07-5.55.17-13.81,5.59-13.88,5.42-.07,6.16,8.46,5.2,13.72-3.71.73-7.08.69-10.79.16h0Zm0,0" style="fill: #c6c6c6;"/>
    </g>
  </g>
</svg>