<?xml version="1.0" encoding="UTF-8"?>
<svg xmlns="http://www.w3.org/2000/svg" width="300" height="250" viewBox="0 0 300 250">
  <g id="transparent">
    <rect width="300" height="250" style="fill: none;"/>
  </g>
  <g id="five">
    <g>
      <path d="m183.74,180.16c0-9.78-7.91-20.74-17.25-20.41-1.98-1.23-6.07-1.09-7.59-.29-.18-6.48-6.12-14-11.11-18.19-1.52,12.49.75,16.47,7.16,20.66-1.2,2.52-2.06,3.91-2.43,6.29-2,2.89-2.33,9.31-.27,11.08-.71,5.09-3.4,8.35-3.72,16.24.56,2.56-9.35,18.29,1.58,33.57-.29,2.52-2.28,6.42.6,6.6,4.02.26,5.04-3.16,5.61-5.78,3.71,1.27,8.04,1,11.37.12.52,3.1,2.47,6.57,5.26,5.91,3.06-.73.88-4.47.48-7.09,11.54-14.5,1.07-30.12,1.48-33.16-.41-7.89-2.75-11.53-3.4-15.96,1.56-1.31,2-6.08.23-9.9,2.55,4.56,5.33,10.3,12.01,10.32h0Zm0,0" style="fill: #fc9451;"/>
      <path d="m173.35,228.85c1.28,2.92,1.55,6.21.52,6.82-2.67,1.59-6.15-1.47-6.08-5.57-4.14.96-8.45,1.15-11.47-.11.07,4.18-3.75,6.88-6.41,5.61-2.11-1-.35-4.79.15-6.39.03-16.48,6.31-36.9,12.02-36.91,5.71,0,11.89,26.89,11.27,36.54h0Zm0,0" style="fill: #ffdcc5;"/>
      <path d="m151.19,198.03c1.98,4.15,3.61,8.64,6.91,10.77,1.08.95,1.3,1.58,2.51,1,2.43-1.13.47-4.82-.31-6.22-.99-2.47-2.1-5.08-2.51-7.74-.51-1.13-1.15-2.17-2.02-2.72-2.53.52-3.46,2.85-4.58,4.9h0Zm0,0" style="fill: #fc9451;"/>
      <path d="m172.36,198.01c-1.98,4.15-3.61,8.64-6.91,10.77-1.08.94-1.3,1.58-2.51,1.01-2.42-1.14-.47-4.82.31-6.23.99-2.47,2.1-5.09,2.51-7.74.25-9.12,8.62-3.25,6.6,2.19h0Zm0,0" style="fill: #fc9451;"/>
      <path d="m161.56,173.43c-3.33,0-2.44,5.81-8.88,5.81.05,1.45,5.79,2.08,9.12,2.07,3.32,0,9.62-.39,9.52-1.64-6.32-.45-6.43-6.25-9.76-6.24h0Zm0,0" style="fill: #ffdcc5;"/>
      <path d="m157.75,195.58c-.13.02-.22.17-.2.31.42,2.7,1.54,5.34,2.53,7.81,0,0,0,0,.01.01.39.69,1.07,1.96,1.34,3.14.14.6.16,1.17.03,1.63-.13.47-.39.84-.94,1.09-.58.27-.82.24-1.1.07-.28-.17-.61-.55-1.17-1.04-.01,0-.02-.01-.03-.01-3.21-2.07-4.82-6.51-6.81-10.67-.05-.14-.22-.21-.34-.14-.12.07-.16.26-.09.38,1.97,4.12,3.58,8.66,6.97,10.86.01,0,.02,0,.03.01.5.45.82.85,1.22,1.08.4.24.88.25,1.52-.05.66-.31,1.05-.82,1.22-1.42.16-.59.12-1.24-.03-1.88-.29-1.28-.97-2.55-1.37-3.26v-.02s-.01,0-.01-.01c-.99-2.46-2.09-5.05-2.5-7.64-.01-.14-.14-.25-.27-.23h0Zm0,0" style="fill: #666;"/>
      <path d="m165.7,195.57c-.09.02-.16.11-.18.21-.41,2.6-1.5,5.19-2.49,7.66,0,0,0,.02-.01.03-.39.71-1.09,1.96-1.39,3.24-.14.65-.19,1.3-.03,1.89.16.59.56,1.11,1.22,1.42.65.3,1.12.31,1.52.07.39-.23.71-.63,1.22-1.08.01-.01.02-.02.03-.04,3.38-2.2,5-6.74,6.97-10.85.09-.12.05-.33-.08-.4-.13-.07-.31.02-.35.17-1.99,4.16-3.61,8.6-6.82,10.66,0,0-.02.01-.03.01-.56.49-.89.9-1.17,1.06-.29.17-.52.19-1.1-.08-.55-.26-.82-.63-.94-1.09-.12-.47-.1-1.02.03-1.61.27-1.19.95-2.45,1.34-3.14,0-.01.01-.02.01-.04.98-2.46,2.11-5.1,2.53-7.81.02-.16-.14-.33-.29-.29h0Zm0,0" style="fill: #666;"/>
      <path d="m162.61,170.63c-.14,0-.26.15-.25.29.04.63-.09,1.05-.26,1.3-.18.26-.39.37-.61.36-.45-.02-1-.52-.94-1.63,0-.14-.1-.27-.22-.28-.13,0-.25.11-.26.25-.06,1.32.63,2.15,1.41,2.18.38.01.77-.19,1.03-.57.26-.39.4-.95.35-1.67,0-.13-.12-.24-.24-.24h0Zm0,0" style="fill: #666;"/>
      <path d="m161.49,172.68c-.11.02-.2.15-.2.28l.05,2.07c0,.14.12.26.24.26.13,0,.25-.12.25-.26l-.04-2.09c0-.15-.15-.29-.29-.26h0Zm0,0" style="fill: #666;"/>
      <path d="m159.67,174.39c-.13,0-.25.12-.25.26-.03.53.35.99.84,1.16.42.15.94-.06,1.35-.59.43.5.93.71,1.35.59.49-.14.86-.6.82-1.12,0-.14-.14-.26-.27-.24-.13.01-.23.15-.22.28.01.23-.18.49-.46.58-.28.08-.65.01-1.03-.58-.1-.15-.33-.13-.41.01-.35.62-.71.67-1.01.58-.29-.1-.5-.42-.49-.63.02-.15-.1-.3-.24-.3h0Zm0,0" style="fill: #666;"/>
      <path d="m155.04,166.88c0,.72-.53,1.31-1.18,1.31s-1.18-.59-1.18-1.31.53-1.32,1.18-1.32,1.18.59,1.18,1.32h0Zm0,0"/>
      <path d="m171.08,167.28c0,.72-.52,1.31-1.18,1.31s-1.18-.59-1.18-1.31.52-1.32,1.18-1.32,1.18.59,1.18,1.32h0Zm0,0"/>
    </g>
  </g>
</svg>