<?xml version="1.0" encoding="UTF-8"?>
<svg xmlns="http://www.w3.org/2000/svg" width="300" height="250" viewBox="0 0 300 250">
  <g id="transparent">
    <rect width="300" height="250" style="fill: none;"/>
  </g>
  <g id="grass">
    <g>
      <path d="m14.37,218.95c-1.09,2.41-1.96,5.23-2.58,7.91-.42,1.84-.72,3.61-.88,5.15-.13,1.23-.17,2.3-.13,3.14-.26-2.3-.59-4.71-1.02-7.07-.26-1.45-.55-2.88-.88-4.26-.44-1.86-.94-3.63-1.51-5.21-.82-2.25-1.76-4.14-2.86-5.39.61,1.79,1.14,3.55,1.58,5.33,1.13,4.45,1.75,9.09,1.75,15.01-3.57-4.13-3.17-8.92-7.73-10.37,2.05,2.52,3.59,6.06,3.74,10.67-.71-1.38-.97-3.63-2.95-5.88.55,2.45,1.12,4.88.92,6.89-.79-.54-.65-.58-1.45-.52l14.1,15.65v-.22c.07-4.33.27-10.59.72-16.79.37-5.05.9-10.05,1.68-13.92.5-2.54,1.11-4.59,1.84-5.85-1.68.93-3.16,3.08-4.36,5.73Z" style="fill: #a4d342;"/>
      <path d="m21.15,217.55c.16-.13.32-.24.49-.34-.16.05-.32.16-.49.34Zm32.96,3.32c-1.36,3.6-2.27,7.73-2.64,10.92-.14,1.31-.19,2.47-.15,3.36-.2-1.78-.44-3.62-.75-5.45-.52-3.18-1.18-6.34-2.02-9.1-.93-3.14-2.09-5.78-3.5-7.38.83,2.45,1.52,4.83,2.05,7.31.34,1.55.61,3.15.82,4.84.3,2.49.46,5.18.46,8.19-.03-.03-.05-.06-.08-.09-3.47-4.11-3.12-8.84-7.65-10.28,2.05,2.52,3.59,6.06,3.74,10.67-.7-1.38-1.97-3.63-3.94-5.88.55,2.45,2.12,4.88,1.91,6.89-1.6-1.08-3.48-.16-4.52-.49-.5-4.56.79-9.5,2.15-14.19.29-1.01.58-2,.86-2.98-.45.88-.93,1.87-1.41,2.95-1.84,4.1-3.71,9.4-4.15,14.47-1.14-4.26-2.58-8.69-5.7-14.94-.57-1.16-1.2-2.38-1.9-3.68.47,1.26.91,2.48,1.3,3.65,2.18,6.35,3.36,11.38,4.01,15.06-1.73-3.03-3.59-5.46-6.77-7.54,1.95,3.85,2.86,5.71,3.67,7.65-4.69.2-6.03-3.63-7.21-10.44-.37,3.31.12,7.45.86,9.81-3.75-1.95-2.37-11.34-.24-14.6-2.84,2.37-4.11,8.97-3.08,14.85-1.08-1.08-2.04.03-3.17-.33-.26-4.55,1.37-11.48,3.02-14.89.34-.72.69-1.29,1.02-1.64-.51.41-.99.96-1.42,1.62-2.2,3.31-3.49,9.36-4.32,14.12-.05-.11-.11-.23-.16-.34-.88-1.84-1.76-3.97-3.41-6.13-.78-1.02-1.72-2.04-2.92-3.04-.56-.49-1.87-1.43-1.87-1.43,0,0,1.91,3.15,2.76,5.69.4,1.21.79,2.54,1.15,3.93C12.49,237.96-.03,227.59,0,250c0,0,6.02-.07,6.03,0h48.99c.06-4.1.24-10.03.66-16,.09-1.42.2-2.83.33-4.23.14-1.56.29-3.1.48-4.58-.01-.02,0-.03,0-.04.18-1.45.37-2.84.59-4.14.56-3.43,1.28-6.22,2.18-7.79-2.07,1.14-3.83,4.15-5.16,7.65Z" style="fill: #a4d342;"/>
      <path d="m296.02,234.83c.26-.72.53-1.44.86-2.25.55-1.36,1.25-2.99,2.3-5.4-2.03,1.54-3.45,3.27-4.64,5.29-.42.71-.82,1.46-1.2,2.25.11-.71.23-1.48.38-2.29.73-4.16,2-9.65,4.2-16.42-3.29,7.04-4.89,11.92-6.01,16.33-.2.78-.39,1.53-.56,2.29-.06-.77-.14-1.55-.26-2.33-.8-5.66-2.89-11.33-4.55-15.09,1.2,4.82,2.71,10.07,2.72,15,0,.73-.03,1.46-.1,2.17-.9.33-2.53-.59-3.91.49-.08-.87.13-1.83.44-2.83.39-1.3.95-2.68,1.21-4.06-1.05,1.4-1.88,2.8-2.5,4-.38.72-.68,1.36-.91,1.88.02-.66.06-1.3.13-1.92.39-3.69,1.58-6.59,3.1-8.75-3.39,1.25-3.6,4.98-5.57,8.63-.31.59-.67,1.17-1.1,1.74,0-.61.01-1.21.02-1.79.14-7.35,1.16-12.73,2.87-18.55-2.51,3.31-4.12,11.03-5.03,18.44-.11.87-.21,1.74-.3,2.6-.03.3-.06.6-.09.89.01-.29.02-.61,0-.95-.01-.75-.06-1.62-.16-2.56-.12-1.29-.33-2.73-.6-4.22-.16-.83-.34-1.69-.54-2.54-1.17-5.05-3.1-10.09-5.56-11.66,1.26,2.53,2.43,8.27,3.4,14.73.17,1.17.33,2.36.49,3.55.11.9.22,1.8.33,2.7.06.47.11.93.17,1.4h0c.61,5.42,1.05,10.67,1.23,14.4h23.73v-17.27c-.91,1.46-2.15,2.19-3.98,2.1Z" style="fill: #a4d342;"/>
      <path d="m276.21,224.88c-.89,1.02-1.59,2.05-2.16,3.07-.68,1.19-1.19,2.35-1.64,3.45-.28.67-.53,1.32-.79,1.93-.09-.64-.2-1.3-.3-1.98-.88-5.35-2.26-11.55-4.66-13.76,1.37,1.7,3.1,8.34,3.45,13.7.07,1,.09,1.96.05,2.83-.97.36-1.8-.75-2.74.33.17-1.08.26-2.19.29-3.28.15-4.88-.95-9.64-2.96-11.57,1.32,2.35,2.31,7.87,1.56,11.5-.3,1.42-.86,2.56-1.76,3.1.23-.85.44-1.95.59-3.15.26-2.1.35-4.55.15-6.66-.4,2.68-.82,4.9-1.44,6.6-.94,2.6-2.34,3.96-4.8,3.84.44-1.2.91-2.37,1.6-4,.42-1.01.93-2.19,1.57-3.65-1.42,1.08-2.55,2.26-3.5,3.56-.89,1.21-1.63,2.52-2.35,3.98.18-1.21.41-2.56.71-4.06.77-3.91,1.98-8.8,3.88-14.65-2.87,6.12-4.45,10.61-5.55,14.57-.39,1.4-.72,2.73-1.02,4.05-.1-1.37-.3-2.76-.56-4.13-.94-5.04-2.77-9.93-4.25-13.29,1.05,4.24,2.33,8.81,2.64,13.21.09,1.34.09,2.67-.03,3.96-.89.33-2.52-.59-3.9.49-.12-1.38.47-2.95,1.02-4.59.24-.76.48-1.53.63-2.3-.58.76-1.08,1.53-1.52,2.26-.86,1.42-1.48,2.71-1.88,3.62.04-1.31.17-2.54.39-3.69.54-2.86,1.57-5.18,2.84-6.98-2.86,1.05-3.46,3.85-4.75,6.89-.49,1.15-1.08,2.34-1.92,3.48,0-1.24.02-2.43.07-3.57.26-6.46,1.25-11.43,2.82-16.77-2.3,3.04-3.86,9.83-4.8,16.67-.25,1.77-.46,3.55-.62,5.26.06-1.31-.07-3.19-.37-5.31-.46-3.31-1.34-7.22-2.56-10.46-.34-.89-.69-1.72-1.07-2.48-.85-1.69-1.8-3.01-2.87-3.68.66,1.32,1.24,3.53,1.75,6.25.39,2.11.74,4.53,1.04,7.1.12,1.02.23,2.06.34,3.11.1.99.19,1.99.28,2.99.57,6.41.9,12.92,1.02,17.33h34.98c.45-3.77,1.08-9.25,1.93-14.39h0c.07-.48.15-.95.24-1.41.16-.9.32-1.79.5-2.64.29-1.49.62-2.89.97-4.14.61-2.23,1.3-4.02,2.08-5.03-1.03.81-1.89,1.65-2.63,2.49Zm-10.02-7.67c.15.1.29.21.43.35-.15-.18-.29-.3-.43-.35Z" style="fill: #a4d342;"/>
      <path d="m206.46,217.56c.14-.14.28-.25.43-.35-.14.05-.28.17-.43.35Zm30.09-.66c-.4.78-.77,1.65-1.11,2.57-1.15,3.11-2,6.81-2.48,10.03-.33,2.25-.48,4.26-.42,5.65-.18-1.86-.41-3.79-.68-5.71-.95-6.69-2.49-13.24-4.74-16.22,1.5,5.16,2.49,9.98,2.79,16.13.07,1.34.1,2.73.1,4.21-1.06-1.41-1.71-2.91-2.26-4.32-1.08-2.7-1.82-5.1-4.41-6.05,1.11,1.58,2.04,3.57,2.63,5.97.34,1.43.56,2.99.6,4.7-.51-1.16-1.36-2.93-2.64-4.8-.24-.36-.5-.72-.77-1.08.07.35.15.71.25,1.06.58,2.08,1.55,4.11,1.4,5.83-1.38-1.08-3.01-.16-3.91-.49-.17-1.77-.1-3.61.12-5.46.45-3.93,1.56-7.95,2.5-11.71-1.32,2.99-2.92,7.2-3.91,11.64-.43,1.91-.76,3.86-.9,5.78-.43-1.89-.92-3.8-1.56-5.9-1.08-3.52-2.59-7.54-5.01-12.72,1.58,4.89,2.7,9.12,3.46,12.65.51,2.31.87,4.34,1.13,6.06-1.18-2.41-2.46-4.44-4.3-6.21-.47-.46-.99-.9-1.55-1.33.2.45.39.88.56,1.28,1.31,3.01,1.99,4.66,2.61,6.37-3.19.16-4.59-2.18-5.53-6.51-.26-1.17-.48-2.48-.7-3.93-.12,1.23-.14,2.57-.07,3.89.09,2.24.41,4.44.81,5.92-1.46-.88-2.02-3.3-2.02-5.98,0-3.23.81-6.84,1.82-8.62-1.58,1.53-2.61,4.84-2.89,8.57-.16,2.04-.09,4.2.22,6.28-.93-1.08-1.76.03-2.74-.33-.09-1.77.08-3.91.39-6.05.23-1.58.55-3.17.9-4.62t.01-.02c.05-.22.1-.43.16-.64.63-2.42,1.37-4.38,2.02-5.2-1.25,1.15-2.22,3.41-3,6.07-.39,1.38-.74,2.86-1.04,4.36-.05.26-.1.52-.15.78,0,.01,0,.03-.01.05-.29,1.54-.54,3.06-.75,4.48-.08-.2-.17-.4-.25-.6h0c-.48-1.18-.97-2.46-1.65-3.79-.18-.36-.37-.72-.58-1.08-.79-1.39-1.83-2.82-3.28-4.2-.3-.29-.62-.58-.96-.86-.16-.14-.33-.27-.5-.41.23.29.45.65.66,1.07.57,1.08,1.11,2.56,1.61,4.28.21.68.4,1.39.59,2.14h0c.25.99.49,2.01.72,3.07.14.66.28,1.32.42,1.99.43,2.14.82,4.35,1.17,6.49.53,3.19.97,6.21,1.3,8.57h33.8c.16-4.38.58-10.85,1.22-17.22.1-1.05.22-2.1.34-3.13.12-1.04.24-2.07.38-3.08.33-2.6.72-5.06,1.14-7.19.53-2.68,1.13-4.85,1.78-6.16-1.06.67-2.01,1.99-2.86,3.68Z" style="fill: #a4d342;"/>
      <path d="m192.26,217.21c.15.1.29.21.43.35-.15-.18-.29-.3-.43-.35Zm12.14,5.58c-.34.29-.67.58-.97.87-1.46,1.41-2.51,2.84-3.31,4.25-.2.35-.38.69-.55,1.03-.72,1.42-1.23,2.78-1.73,4.01-.06.13-.11.25-.16.38-.17-1.09-.35-2.26-.56-3.44h0c-.13-.72-.26-1.43-.41-2.14-.29-1.4-.62-2.8-.99-4.09-.77-2.66-1.74-4.92-3-6.07.65.81,1.4,2.78,2.03,5.21.06.21.11.44.16.66.33,1.33.62,2.78.84,4.24.36,2.26.54,4.54.45,6.42-.97.36-1.79-.75-2.74.33.34-2.27.39-4.65.18-6.85-.34-3.5-1.34-6.55-2.84-8,.94,1.66,1.7,4.9,1.8,7.95.1,2.94-.42,5.69-2.01,6.65.45-1.65.79-4.19.84-6.71.03-1.06,0-2.12-.09-3.1-.17,1.1-.34,2.13-.52,3.07-.96,4.88-2.33,7.54-5.72,7.37.69-1.91,1.46-3.75,3.1-7.49.02-.05.05-.11.07-.16-.07.05-.13.1-.19.15-2.64,2.05-4.21,4.43-5.65,7.39.32-2.09.77-4.63,1.46-7.59.74-3.2,1.75-6.91,3.12-11.12-2.04,4.38-3.45,7.93-4.47,11.05-.92,2.77-1.54,5.19-2.09,7.57-.2-2.58-.71-5.22-1.38-7.73-.98-3.71-2.3-7.14-3.44-9.69.77,3.1,1.67,6.38,2.21,9.63.42,2.56.63,5.1.4,7.54-.9.33-2.53-.59-3.91.49-.18-2.01,1.18-4.44,1.66-6.89-1.7,2.25-2.8,4.5-3.42,5.88.08-2.79.6-5.19,1.39-7.21.51-1.32,1.14-2.47,1.84-3.46-1.69.63-2.59,1.86-3.31,3.39-.96,2.04-1.6,4.62-3.37,6.98,0-2.59.1-4.94.3-7.13.43-4.82,1.31-8.9,2.58-13.21-1.89,2.51-3.29,7.58-4.25,13.13-.5,2.9-.89,5.93-1.17,8.8.08-1.81-.19-4.69-.78-7.79-.07-.36-.14-.73-.22-1.11-.09-.46-.2-.93-.31-1.4-1.17-5.04-3.09-10.07-5.54-11.63,1.13,2.29,2.2,7.2,3.11,12.89.09.58.18,1.16.27,1.76.3,2.09.59,4.26.85,6.42.04.39.09.79.13,1.18.63,5.46,1.07,10.77,1.25,14.53h32.64c.36-2.36.85-5.38,1.43-8.57.4-2.23.86-4.55,1.34-6.77.15-.65.3-1.29.45-1.93h0c.32-1.37.65-2.67,1-3.88.01-.02.01-.04.01-.05.08-.26.15-.52.23-.77.56-1.85,1.15-3.44,1.76-4.58t.01-.02c.22-.41.44-.75.66-1.04-.17.13-.34.27-.5.4Z" style="fill: #a4d342;"/>
      <path d="m155.14,217.21c.14.09.27.19.4.32-.13-.16-.27-.27-.4-.32Zm10.15,7.64c-.39.44-.75.89-1.07,1.33-.41.57-.77,1.13-1.09,1.69-1.13,1.94-1.8,3.83-2.51,5.46-.35-2.31-.8-4.93-1.38-7.39-.87-3.65-2.04-6.96-3.7-8.41.95,1.08,2.09,4.55,2.84,8.37.55,2.83.88,5.84.76,8.22-.98.36-1.82-.75-2.77.33.45-2.91.4-5.99-.06-8.65-.47-2.72-1.38-5-2.64-6.2.76,1.33,1.42,3.7,1.7,6.15.4,3.55.03,7.3-1.9,8.45.56-2.06.96-5.47.83-8.5,0-.45-.04-.89-.08-1.31-.07.45-.14.88-.21,1.3-1,6-2.27,9.33-6.1,9.14.71-1.94,1.5-3.8,3.21-7.65-2.78,2.08-4.41,4.51-5.91,7.54.38-2.5.97-5.62,1.91-9.36.7-2.78,1.58-5.89,2.72-9.35-1.69,3.57-2.94,6.6-3.92,9.29-1.26,3.52-2.05,6.47-2.73,9.33-.24-3.22-.99-6.52-1.91-9.56-.91-3-2-5.73-2.95-7.86.63,2.52,1.34,5.16,1.88,7.81.64,3.16,1.04,6.35.75,9.36-.91.33-2.55-.59-3.95.49-.18-2.01,1.19-4.44,1.67-6.89-1.71,2.25-2.83,4.5-3.45,5.88.1-3.65.97-6.63,2.21-8.97.32-.61.68-1.18,1.05-1.7-.99.36-1.71.93-2.28,1.64-1.73,2.15-2.12,5.63-4.47,8.73,0-3.31.17-6.22.49-8.92.48-4.06,1.31-7.65,2.42-11.42-1.71,2.24-3.02,6.51-3.97,11.34-.67,3.43-1.17,7.13-1.51,10.59.11-2.39-.4-6.6-1.42-10.73-.12-.48-.24-.95-.37-1.42-.4-1.46-.86-2.88-1.39-4.17-1.03-2.6-2.3-4.7-3.76-5.61.95,1.87,1.73,5.49,2.37,9.86.06.39.11.79.16,1.2.49,3.63.88,7.68,1.19,11.64.01.14.02.29.03.44.39,5.14.63,10.08.73,13.64h35.38c.47-3.8,1.11-9.34,1.98-14.53.07-.39.13-.78.2-1.17.45-2.52.95-4.92,1.51-6.94.11-.38.21-.74.33-1.09.53-1.7,1.12-3.05,1.77-3.88-1.03.8-1.9,1.63-2.64,2.46Z" style="fill: #a4d342;"/>
      <path d="m96.79,217.56c.14-.14.28-.25.43-.35-.14.05-.28.17-.43.35Zm29.22,1.27c-.52,1.32-.99,2.76-1.38,4.25-.11.39-.21.78-.31,1.18-1.03,4.18-1.55,8.48-1.45,10.89-.35-3.61-.87-7.49-1.58-11.04-.93-4.64-2.19-8.72-3.84-10.89,1.05,3.58,1.84,7,2.32,10.82.37,2.87.56,5.97.56,9.52-2.74-3.67-2.77-7.86-5.51-9.76-.34-.25-.72-.45-1.16-.61.13.19.26.38.38.57,1.58,2.48,2.73,5.83,2.85,10.1-.61-1.38-1.7-3.63-3.41-5.88.47,2.45,1.83,4.88,1.66,6.89-1.39-1.08-3.02-.16-3.91-.49-.33-3.44.23-7.11,1.02-10.71.49-2.19,1.06-4.37,1.58-6.46-.79,1.78-1.67,3.99-2.47,6.42-1.11,3.41-2.06,7.27-2.34,11-.78-3.38-1.72-6.87-3.43-11.28-.84-2.19-1.86-4.6-3.15-7.34.85,2.63,1.56,5.06,2.16,7.3,1.24,4.66,1.97,8.47,2.42,11.41-1.49-3.03-3.11-5.46-5.85-7.54,1.69,3.85,2.48,5.71,3.18,7.65-4.06.2-5.22-3.63-6.24-10.44-.32,3.31.1,7.45.74,9.81-2.43-1.47-2.36-7.13-1.39-11.24.31-1.36.73-2.55,1.19-3.36-.77.74-1.4,1.9-1.88,3.33-1.06,3.11-1.38,7.49-.78,11.52-.93-1.08-1.76.03-2.73-.33-.16-3.27.52-7.76,1.44-11.29.63-2.44,1.38-4.42,2.04-5.24-1.11,1.03-2,2.92-2.74,5.2-1.02,3.22-1.72,7.2-2.22,10.54-1.01-2.39-1.96-5.33-4.39-8.21-.67-.8-1.46-1.6-2.39-2.37-.14-.12-.29-.24-.44-.36.13.17.26.36.38.57.77,1.28,1.44,3.3,2.04,5.73.39,1.58.75,3.34,1.08,5.16,1,5.63,1.71,11.95,2.22,16.15h34.98c.1-3.56.34-8.5.72-13.64.01-.1.02-.2.02-.3.3-3.96.69-8.02,1.18-11.66.06-.48.12-.94.19-1.4.62-4.33,1.39-7.92,2.32-9.78-1.43.91-2.69,3.01-3.72,5.61Z" style="fill: #a4d342;"/>
      <path d="m57.09,217.56c.14-.14.28-.25.43-.35-.14.05-.28.17-.43.35Zm28.04,4.81c-.04.12-.07.25-.11.38-.02.07-.04.14-.06.21-1.25,4.58-1.9,9.53-1.78,12.19-.42-4.28-1.07-8.94-2-12.98-.88-3.82-2.01-7.08-3.42-8.95.87,2.97,1.55,5.82,2.04,8.89.54,3.41.83,7.08.83,11.45-3.08-4.13-2.74-8.92-6.67-10.37,1.77,2.52,3.1,6.06,3.24,10.67-.62-1.38-1.71-3.63-3.42-5.88.47,2.45,1.84,4.88,1.66,6.89-1.39-1.08-3.02-.16-3.91-.49-.39-4.05.45-8.39,1.46-12.6.37-1.55.77-3.08,1.14-4.57-.57,1.31-1.2,2.85-1.81,4.54-1.38,3.83-2.66,8.44-2.99,12.88-.89-3.86-2-7.86-4.2-13.23-.68-1.66-1.46-3.44-2.37-5.39.61,1.89,1.15,3.67,1.63,5.36,1.56,5.55,2.43,10.01,2.95,13.35-1.49-3.03-3.1-5.46-5.84-7.54,1.68,3.85,2.47,5.71,3.17,7.65-4.05.2-5.21-3.63-6.24-10.44-.31,3.31.1,7.45.75,9.81-2.84-1.71-2.27-9.13-.86-13.13.2-.57.42-1.07.65-1.47-.39.38-.75.87-1.07,1.45-.61,1.09-1.08,2.51-1.4,4.1,0,.01-.01.02,0,.04-.29,1.42-.45,2.98-.48,4.58-.04,1.55.06,3.14.29,4.68-.21-.25-.42-.38-.62-.45-.69-.2-1.35.4-2.1.12-.19-3.89.81-9.49,1.98-13.18.49-1.55,1.02-2.76,1.5-3.35-.78.73-1.46,1.89-2.05,3.32-1.41,3.43-2.29,8.39-2.91,12.42-.2-.49-.41-1-.63-1.54-.27-.67-.56-1.37-.9-2.09-.64-1.4-1.46-2.87-2.65-4.33-.82-1.01-1.81-2.01-3.05-2.98,1.4,1.82,2.54,6.15,3.43,11.08,1.04,5.72,1.78,12.23,2.3,16.53h34.99c.12-4.19.42-10.3.93-16.41.15-1.64.3-3.29.47-4.9.13-1.22.27-2.41.41-3.57.12-.9.24-1.78.36-2.63.62-4.1,1.36-7.49,2.25-9.27-2.05,1.3-3.73,5.03-4.9,9.15Z" style="fill: #a4d342;"/>
      <rect x="271.44" y="234.2" width="6.16" height="15.8" style="fill: #a4d342;"/>
      <path d="m237.1,232.67c-.45-.05-.91-.01-1.34.11-1.09.27-2.05.94-2.52,1.42v15.8h6.16v-15.8c-.64-1-1.46-1.43-2.3-1.53Z" style="fill: #a4d342;"/>
      <path d="m200.78,234.66c-.79.16-1.71.28-2.52.28-1.02.01-1.86-.18-1.98-.74v15.8h6.15v-15.8c-.29.14-.91.32-1.65.46Z" style="fill: #a4d342;"/>
      <path d="m164.31,234.3c-.11-.01-.22-.02-.33-.01-1.53.03-3.2.74-3.45-.09v15.8h6.16v-13.08c-.2-2.02-1.22-2.57-2.38-2.62Z" style="fill: #a4d342;"/>
      <path d="m126.03,236.06s-.03-.1-.05-.14c-.74-1.92-1.32-2.13-1.18,1v13.08h3.84c-.14-4.9-1.53-11.11-2.61-13.94Z" style="fill: #a4d342;"/>
      <path d="m88.09,233.85c-.54-.22-1.07-.32-1.55-.26-.45.04-.85.24-1.16.61v15.8h6.16v-13.08c-.77-1.35-2.14-2.54-3.45-3.07Z" style="fill: #a4d342;"/>
    </g>
  </g>
  <g id="Flowers">
    <g>
      <path d="m127.07,228.52c-3.44,1.7-4.98-3.17-.74-7.97,1.63,2.27,4.2,6.26.74,7.97h0Zm0,0" style="fill: #a00;"/>
      <path d="m124.5,227.2c-1.82-4.85,1.83-5.66,3.49-7.11,2.11,2.2,4.59,5.44,2.36,7.74-1.55,1.5-4.91,1.6-5.85-.63h0Zm0,0" style="fill: maroon;"/>
      <path d="m127.4,228.55c-1.84-1.18-1.18-5.34,2.68-7.54,2.49,4.16,1.29,10.1-2.68,7.54h0Zm0,0" style="fill: #a00;"/>
      <path d="m37.82,219.91c2.84-.17,5.44-1.9,2.35-7.39-1.36,2.78-2.37,4.22-2.33,6.91-.79.07-.2.16-.02.48h0Zm0,0" style="fill: #fbd007;"/>
      <path d="m38.32,217.47c.76-.77,2.05-3.17,2.72-4.49,2.6,3.92,1.12,9.55-3.7,7.61-.17-1.01.62-2.37.98-3.12h0Zm0,0" style="fill: #fbe407;"/>
      <path d="m4.25,217.62c.73,5.39,2.43,18.38,1.37,22.95.24.71.98.31,1.35.14.77-5.53-.55-17.76-1.63-23.3-.54-.08-.56-.14-1.09.21h0Zm0,0" style="fill: #3ca73c;"/>
      <path d="m2.29,220.05c-2.84-4.31.55-5.93,1.85-7.72,2.54,1.66,5.66,4.26,3.99,7.01-1.18,1.82-4.43,2.67-5.84.71h0Zm0,0" style="fill: maroon;"/>
      <path d="m5.08,220.74c-2.98,2.44-5.54-1.96-2.46-7.59,2.08,1.84,5.47,5.14,2.46,7.59h0Zm0,0" style="fill: #a00;"/>
      <g>
        <path d="m5.42,220.7c-2.05-.73-2.32-4.94.96-7.96,3.33,3.49,3.47,9.55-.96,7.96h0Zm0,0" style="fill: #a00;"/>
        <path d="m1.76,213.03c-5.78,7.66,4.56,11.02,4.1,7.1,2.27-1.8-3.92-4.6-4.1-7.1h0Zm0,0" style="fill: #d40000;"/>
      </g>
      <path d="m7.45,212.33c-.28,2.72-6.62,8.17-1.81,8.85,5.83.83,5.53-6.37,1.81-8.85h0Zm0,0" style="fill: #d40000;"/>
      <path d="m5.73,221.87c-5.09.9-4.13-6.21-1.57-9.06,4.02,2.48,6.66,8.16,1.57,9.06h0Zm0,0" style="fill: #da4646;"/>
      <path d="m32.95,222.91c.09,5.44.27,18.54-1.32,22.96.15.73.94.43,1.32.3,1.41-5.4,1.54-17.7,1.11-23.33-.53-.15-.54-.21-1.11.07h0Zm0,0" style="fill: #3ca73c;"/>
      <path d="m30.85,221.72c-2.31-4.62,1.24-5.82,2.74-7.44,2.33,1.96,5.12,4.92,3.14,7.44-1.38,1.66-4.72,2.11-5.88,0h0Zm0,0" style="fill: #f55;"/>
      <path d="m33.54,222.75c-3.25,2.06-5.28-2.61-1.56-7.84,1.85,2.08,4.83,5.77,1.56,7.84h0Zm0,0" style="fill: #e54b4b;"/>
      <path d="m33.87,222.75c-1.95-.98-1.73-5.18,1.89-7.79,2.9,3.87,2.33,9.91-1.89,7.79h0Zm0,0" style="fill: #e54b4b;"/>
      <path d="m31.14,214.69c-6.63,6.9,3.24,11.5,3.24,7.54,2.46-1.51-3.36-5.04-3.24-7.54h0Zm0,0" style="fill: #ff8080;"/>
      <path d="m36.87,214.69c-.6,2.67-7.53,7.3-2.83,8.58,5.69,1.53,6.23-5.65,2.83-8.58h0Zm0,0" style="fill: #ff8080;"/>
      <path d="m34.04,223.95c-5.16.28-3.37-6.67-.5-9.19,3.71,2.96,5.66,8.91.5,9.19h0Zm0,0" style="fill: #faa;"/>
      <path d="m38.31,220.67c-.1,3.48-.94,16.87-2.23,22.82-.53.31-.72.04-1.28-.19,1.13-6.09,2.12-18.61,2.35-22.8.4.32,1.16.17,1.16.17h0Zm0,0" style="fill: #32b032;"/>
      <path d="m36.93,243.67c1.04-2.8-1.02-7.05-1.56-10.41-.58-3.59-3.3-8.07-5.93-9.45.74,1.01,1.37,2.48,1.74,2.98,2.63,3.66,2.49,6.28,2.3,10.18-.07,1.3-.12,6.17.87,6.68.45.69,2.47.74,2.58,0h0Zm0,0" style="fill: #3d9528;"/>
      <path d="m38.61,219.64c4.18-1.5,2.62-5.41.13-7.97-3.74,2.06-5.77,6.4-2.27,7.58,1.01.36,1.38.2,2.14.39h0Zm0,0" style="fill: #d4b00a;"/>
      <path d="m37.53,219.81c-4.32-.19-4.25-5.51-.81-7.85,1.61,2.77.85,2.23,1.32,5.98-.11,1.02.36,1.06-.5,1.87h0Zm0,0" style="fill: #fbd007;"/>
      <path d="m37.25,220.73c-3.99.28-4.44-4.99-1.77-8.55.65,2.96,2.79,3.75,2.47,5.83.22.75-.35,2.02-.7,2.72h0Zm0,0" style="fill: #fbe407;"/>
      <path d="m38.43,221.14c3.79-.79,2.21-6.71.31-8.82-2.57.99-6.43,8.37-2.79,8.35.62.54,1.61.74,2.48.47h0Zm0,0" style="fill: #ff0;"/>
      <path d="m62.09,214.1c-.09,5.44-.26,18.54,1.32,22.95-.16.73-.94.43-1.32.3-1.41-5.4-1.53-17.7-1.1-23.33.52-.15.54-.21,1.1.08h0Zm0,0" style="fill: #3ca73c;"/>
      <path d="m64.19,212.9c2.31-4.62-1.24-5.82-2.74-7.44-2.33,1.96-5.12,4.92-3.14,7.44,1.38,1.66,4.71,2.11,5.88,0h0Zm0,0" style="fill: maroon;"/>
      <path d="m61.51,213.94c3.25,2.06,5.28-2.62,1.56-7.84-1.85,2.08-4.83,5.77-1.56,7.84h0Zm0,0" style="fill: #a00;"/>
      <path d="m61.17,213.94c1.96-.98,1.73-5.19-1.89-7.79-2.9,3.87-2.33,9.91,1.89,7.79h0Zm0,0" style="fill: #a00;"/>
      <path d="m63.9,205.87c6.63,6.91-3.24,11.5-3.24,7.55-2.46-1.51,3.35-5.05,3.24-7.55h0Zm0,0" style="fill: #d40000;"/>
      <path d="m58.17,205.87c.6,2.67,7.53,7.3,2.83,8.58-5.69,1.54-6.23-5.65-2.83-8.58h0Zm0,0" style="fill: #d40000;"/>
      <path d="m61,215.13c5.16.28,3.37-6.67.5-9.18-3.71,2.95-5.67,8.9-.5,9.18h0Zm0,0" style="fill: #da4646;"/>
      <path d="m60.1,223.1c2.31-4.62-1.23-5.82-2.74-7.44-2.33,1.96-5.12,4.91-3.14,7.44,1.38,1.66,4.72,2.11,5.88,0h0Zm0,0" style="fill: #f55;"/>
      <path d="m57.41,224.13c3.25,2.06,5.28-2.61,1.56-7.84-1.85,2.08-4.82,5.77-1.56,7.84h0Zm0,0" style="fill: #e54b4b;"/>
      <path d="m57.08,224.13c1.95-.98,1.73-5.18-1.89-7.79-2.9,3.87-2.33,9.9,1.89,7.79h0Zm0,0" style="fill: #e54b4b;"/>
      <path d="m59.81,216.07c6.63,6.9-3.24,11.5-3.24,7.54-2.46-1.51,3.35-5.04,3.24-7.54h0Zm0,0" style="fill: #ff8080;"/>
      <path d="m54.08,216.07c.6,2.67,7.53,7.3,2.83,8.57-5.69,1.54-6.23-5.65-2.83-8.57h0Zm0,0" style="fill: #fbe407;"/>
      <path d="m56.91,225.33c5.16.28,3.37-6.67.5-9.19-3.71,2.96-5.66,8.91-.5,9.19h0Zm0,0" style="fill: #faa;"/>
      <path d="m58,224.29c-.09,5.44-.27,18.54,1.32,22.95-.15.73-.94.43-1.32.3-1.41-5.4-1.53-17.7-1.11-23.33.53-.15.54-.21,1.11.07h0Zm0,0" style="fill: #3ca73c;"/>
      <path d="m63.63,238.32c2.11-.94.55-6.8,2.13-9.07,1.49-2.14,1.89-5.09,5.07-7.8-3.67.93-4.21,2.87-6.18,4.88-.64.66-.45,2.04-1.03,2.62-.5.51.2,2.04-.29,2.55-1.39,1.42-1.95,5.3-1.25,7.43.46.73.91-.39,1.54-.6h0Zm0,0" style="fill: #62ad62;"/>
      <path d="m68.58,243.85s-.99-.72-1.54-1.28c-1.44-1.47-1.29-4.39-2.87-6-2.15-2.19-4.84-3.9-6.25-6.3,1.51.86,2.67,1.82,3.97,3.15.77.79,1.98.82,2.72,1.57,1.99,2.03,3.17,4.22,4.49,6.9.48.77-.09,1.41-.52,1.95h0Zm0,0" style="fill: #267326;"/>
      <path d="m68.8,221.8c-.09,5.44-.26,18.54,1.33,22.95-.15.73-.94.43-1.33.3-1.41-5.4-1.53-17.7-1.1-23.33.53-.15.54-.21,1.1.08h0Zm0,0" style="fill: #3ca73c;"/>
      <path d="m70.9,220.61c2.31-4.63-1.24-5.83-2.74-7.44-2.33,1.96-5.12,4.91-3.14,7.44,1.38,1.66,4.72,2.11,5.88,0h0Zm0,0" style="fill: #f55;"/>
      <path d="m68.21,221.64c3.25,2.06,5.28-2.61,1.56-7.84-1.85,2.08-4.82,5.77-1.56,7.84h0Zm0,0" style="fill: #e54b4b;"/>
      <path d="m67.88,221.64c1.95-.98,1.73-5.19-1.89-7.79-2.9,3.87-2.32,9.9,1.89,7.79h0Zm0,0" style="fill: #e54b4b;"/>
      <path d="m70.61,213.57c6.63,6.91-3.24,11.5-3.24,7.55-2.46-1.51,3.35-5.04,3.24-7.55h0Zm0,0" style="fill: #ff8080;"/>
      <path d="m64.88,213.57c.6,2.67,7.53,7.31,2.83,8.58-5.69,1.54-6.23-5.65-2.83-8.58h0Zm0,0" style="fill: #ff8080;"/>
      <path d="m67.71,222.84c5.16.27,3.37-6.67.5-9.19-3.71,2.96-5.66,8.91-.5,9.19h0Zm0,0" style="fill: #faa;"/>
      <path d="m70.34,246.03c2.12-.94.55-6.81,2.13-9.08,1.49-2.14,1.89-5.08,5.07-7.8-3.67.93-4.21,2.87-6.17,4.87-.65.66-.45,2.04-1.03,2.62-.5.51.21,2.05-.29,2.55-1.39,1.41-1.94,5.3-1.25,7.42.46.73.91-.38,1.54-.6h0Zm0,0" style="fill: #62ad62;"/>
      <path d="m93.23,240.22s-.92-.81-1.41-1.43c-1.28-1.61-.85-4.51-2.26-6.27-1.92-2.4-4.42-4.38-5.59-6.91,1.41,1.01,2.47,2.09,3.64,3.54.69.87,1.89,1.02,2.55,1.85,1.78,2.22,2.74,4.52,3.78,7.33.41.81-.23,1.39-.7,1.89h0Zm0,0" style="fill: #267326;"/>
      <path d="m95.63,218.3c-.63,5.4-2.1,18.42-.95,22.97-.23.71-.98.33-1.35.16-.87-5.52.23-17.77,1.21-23.32.54-.1.56-.16,1.09.19h0Zm0,0" style="fill: #3ca73c;"/>
      <path d="m97.84,217.34c2.76-4.37-.65-5.92-1.99-7.69-2.51,1.71-5.58,4.37-3.86,7.08,1.21,1.79,4.48,2.59,5.85.6h0Zm0,0" style="fill: #f55;"/>
      <path d="m95.06,218.08c3.03,2.38,5.51-2.06,2.33-7.64-2.05,1.88-5.37,5.24-2.33,7.64h0Zm0,0" style="fill: #e54b4b;"/>
      <path d="m94.73,218.05c2.04-.78,2.23-4.98-1.11-7.95-3.28,3.55-3.3,9.62,1.11,7.95h0Zm0,0" style="fill: #e54b4b;"/>
      <path d="m98.24,210.31c5.92,7.55-4.36,11.11-3.96,7.17-2.3-1.76,3.84-4.67,3.96-7.17h0Zm0,0" style="fill: #ff8080;"/>
      <path d="m92.54,209.72c.33,2.72,6.77,8.05,1.96,8.83-5.81.94-5.64-6.26-1.96-8.83h0Zm0,0" style="fill: #ff8080;"/>
      <path d="m94.44,219.23c5.1.81,4.01-6.29,1.41-9.09-3.98,2.56-6.52,8.28-1.41,9.09h0Zm0,0" style="fill: #faa;"/>
      <path d="m94.77,242.56c2.2-.72,1.22-6.72,3.02-8.81,1.7-1.98,2.38-4.87,5.82-7.24-3.74.54-4.47,2.43-6.62,4.22-.71.59-.65,1.98-1.28,2.5-.55.45,0,2.05-.55,2.51-1.52,1.26-2.46,5.08-1.98,7.26.39.77.95-.29,1.6-.44h0Zm0,0" style="fill: #62ad62;"/>
      <path d="m78.06,234.89c-.46-1.16-1.97-3.29-3.56-3.89-1.18-.84-3.91-1.94-5.2-2.12-.33-.02-3.28,0-3.61.07,2.23.78,5.94.61,7.02,2.57.57.75,2.42,1.99,2.75,2.91.9.75,1.11,3.19,2.33,3.16,1.04-.59,1-1.57.28-2.7h0Zm0,0" style="fill: #206911;"/>
      <path d="m74.46,217.38c.23,3.47,1.54,16.83,3.03,22.73.55.28.73.02,1.27-.24-1.34-6.04-2.77-18.52-3.15-22.7-.39.34-1.15.21-1.15.21h0Zm0,0" style="fill: #32b032;"/>
      <path d="m76.64,240.31c-1.14-2.76.77-7.08,1.19-10.46.45-3.61,3.01-8.19,5.58-9.66-.7,1.04-1.28,2.53-1.63,3.05-2.49,3.76-2.27,6.37-1.94,10.26.11,1.3.34,6.16-.63,6.71-.43.7-2.44.83-2.58.1h0Zm0,0" style="fill: #3d9528;"/>
      <path d="m74.12,216.36c-4.22-1.34-2.81-5.31-.41-7.96,3.81,1.92,6,6.18,2.54,7.49-1,.39-1.37.25-2.13.47h0Zm0,0" style="fill: #d4b00a;"/>
      <path d="m74.92,216.6c-2.85-.07-5.5-1.69-2.61-7.29,1.46,2.73,2.51,4.13,2.57,6.82.8.04.21.16.04.47h0Zm0,0" style="fill: #fbd007;"/>
      <path d="m75.21,216.49c4.31-.36,4.06-5.66.53-7.87-1.51,2.83-.77,2.26-1.1,6.02.14,1.02-.33,1.07.57,1.85h0Zm0,0" style="fill: #fbd007;"/>
      <path d="m74.34,214.18c-.79-.74-2.17-3.09-2.88-4.38-2.45,4.01-.78,9.58,3.97,7.47.13-1.02-.7-2.34-1.09-3.09h0Zm0,0" style="fill: #fbe407;"/>
      <path d="m75.52,217.4c4,.14,4.26-5.15,1.47-8.61-.55,2.98-2.65,3.85-2.27,5.91-.2.76.42,2.01.8,2.69h0Zm0,0" style="fill: #fbe407;"/>
      <path d="m74.36,217.85c-3.82-.65-2.44-6.62-.62-8.8,2.6.9,6.72,8.13,3.09,8.24-.6.56-1.58.8-2.46.56h0Zm0,0" style="fill: #ff0;"/>
      <path d="m83.83,237.96c.39-1.18,1.76-3.41,3.3-4.11,1.13-.92,3.77-2.2,5.06-2.46.33-.05,3.27-.22,3.6-.18-2.18.92-5.89,1.01-6.83,3.03-.52.79-2.28,2.15-2.56,3.09-.85.81-.9,3.26-2.12,3.31-1.08-.52-1.1-1.49-.45-2.68h0Zm0,0" style="fill: #206911;"/>
      <path d="m86.32,220.25c0,3.48-.46,16.89-1.58,22.88-.53.32-.72.06-1.28-.16.95-6.12,1.58-18.67,1.69-22.85.41.31,1.17.13,1.17.13h0Zm0,0" style="fill: #32b032;"/>
      <path d="m85.6,243.28c.96-2.83-1.22-7.01-1.86-10.36-.68-3.57-3.53-7.97-6.19-9.27.77.99,1.44,2.43,1.82,2.93,2.73,3.58,2.67,6.21,2.59,10.11-.03,1.31.06,6.17,1.06,6.66.47.68,2.49.66,2.58-.07h0Zm0,0" style="fill: #3d9528;"/>
      <path d="m86.59,219.22c4.13-1.62,2.46-5.49-.1-7.97-3.68,2.17-5.59,6.57-2.05,7.64,1.02.33,1.38.16,2.15.33h0Zm0,0" style="fill: #8f8c8c;"/>
      <path d="m85.8,219.51c2.84-.26,5.38-2.05,2.14-7.45-1.28,2.82-2.24,4.29-2.13,6.97-.79.1-.2.17-.01.48h0Zm0,0" style="fill: #b3b3b3;"/>
      <path d="m85.51,219.42c-4.32-.07-4.41-5.37-1.04-7.82,1.69,2.72.91,2.2,1.48,5.93-.07,1.03.4,1.05-.44,1.89h0Zm0,0" style="fill: #b3b3b3;"/>
      <path d="m86.24,217.06c.74-.79,1.96-3.23,2.59-4.57,2.7,3.84,1.39,9.51-3.49,7.72-.2-1,.55-2.38.89-3.15h0Zm0,0" style="fill: #eaeaea;"/>
      <path d="m85.26,220.34c-3.98.4-4.59-4.86-2.02-8.49.74,2.94,2.89,3.67,2.64,5.75.24.74-.29,2.03-.62,2.74h0Zm0,0" style="fill: #eaeaea;"/>
      <path d="m86.45,220.72c3.77-.9,2.02-6.77.06-8.82-2.54,1.07-6.19,8.56-2.55,8.43.63.52,1.63.69,2.49.39h0Zm0,0" style="fill: #f9f9f9;"/>
      <path d="m102.39,246.09c-2.12-.94-.55-5.39-2.13-7.66-1.49-2.14-1.89-5.09-5.08-7.8,3.67.93,4.21,2.88,6.18,4.88.65.66.45,2.03,1.03,2.62.5.51-.21,2.05.29,2.55,1.39,1.42,1.94,3.89,1.25,6.01-.46.73-.91-.38-1.54-.6h0Zm0,0" style="fill: #62ad62;"/>
      <path d="m126.47,228.61c-.46,5.42-2.41,16.74-2.6,17.66.08.74.89.53,1.29.44.73-2.7,2.26-12.4,2.42-18.05-.51-.21-.51-.27-1.11-.04h0Zm0,0" style="fill: #3ca73c;"/>
      <path d="m121.26,243.29c-1.26-2.29-1.35-5.26-4.24-8.3,3.56,1.32,3.9,3.31,5.64,5.51.58.72.24,2.07.75,2.72.44.56-.41,2.01.03,2.57.83.38-1.64-.15-2.18-2.5h0Zm0,0" style="fill: #62ad62;"/>
      <path d="m121.37,240.7c-.39-1.18-1.76-3.41-3.31-4.11-1.12-.92-3.77-2.2-5.05-2.46-.34-.04-3.28-.22-3.61-.18,2.18.92,5.89,1.01,6.84,3.02.52.79,2.28,2.14,2.56,3.09.85.81.9,3.26,2.12,3.31,1.07-.52,1.1-1.5.45-2.68h0Zm0,0" style="fill: #206911;"/>
      <path d="m118.88,222.99c0,3.48.46,16.89,1.59,22.87.52.32.72.06,1.28-.15-.96-6.12-1.59-18.67-1.7-22.86-.41.31-1.17.14-1.17.14h0Zm0,0" style="fill: #32b032;"/>
      <path d="m119.6,246.02c-.96-2.83,1.21-7.01,1.85-10.36.68-3.58,3.52-7.97,6.19-9.27-.77.99-1.44,2.43-1.82,2.93-2.73,3.58-2.67,6.21-2.58,10.11.03,1.3-.05,6.17-1.06,6.65-.47.68-2.49.67-2.58-.07h0Zm0,0" style="fill: #3d9528;"/>
      <path d="m131.71,249.27c-.61-2.93,2.06-6.81,3.09-10.04,1.11-3.46,4.46-7.46,7.27-8.42-.88.89-1.73,2.24-2.16,2.68-3.14,3.21-3.4,5.82-3.79,9.71-.13,1.3-.81,6.11-1.86,6.47-.55.61-2.55.35-2.55-.39h0Zm0,0" style="fill: #3d9528;"/>
      <path d="m104.15,245.33s.99-.72,1.54-1.28c1.43-1.47,1.29-4.39,2.87-6,2.15-2.19,4.84-3.9,6.25-6.3-1.51.86-2.67,1.82-3.97,3.15-.77.79-1.98.82-2.72,1.57-1.99,2.03-3.17,4.22-4.49,6.9-.48.77.09,1.41.52,1.95h0Zm0,0" style="fill: #267326;"/>
      <path d="m103.93,223.27c.09,5.44.26,18.54-1.32,22.95.16.73.94.43,1.32.3,1.41-5.4,1.53-17.7,1.1-23.33-.53-.15-.54-.21-1.1.07h0Zm0,0" style="fill: #3ca73c;"/>
      <path d="m119.05,240.75c-.03-1.25.49-3.82,1.71-5.02.74-1.26,2.79-3.4,3.91-4.1.29-.16,2.99-1.36,3.32-1.44-1.73,1.64-5.18,3.03-5.38,5.26-.22.93-1.41,2.82-1.35,3.81-.52,1.06.26,3.37-.86,3.85-1.18-.11-1.54-1.01-1.34-2.36h0Zm0,0" style="fill: #206911;"/>
      <path d="m115.37,223.26c1.18,3.27,5.31,16.01,6.29,22.02-.38.48-.65.31-1.25.3-1.19-6.08-4.85-18.07-6.17-22.04.49.15,1.14-.28,1.14-.28h0Zm0,0" style="fill: #32b032;"/>
      <path d="m122.52,245.11c-.06-3-3.52-6.15-5.26-9.06-1.85-3.11-6.01-6.23-8.96-6.51,1.06.66,2.18,1.78,2.71,2.11,3.77,2.39,4.61,4.87,5.86,8.57.42,1.23,2.15,5.76,3.25,5.87.67.47,2.56-.26,2.4-.98h0Zm0,0" style="fill: #3d9528;"/>
      <path d="m118.6,221.95c-4.13-1.62-2.46-5.49.1-7.97,3.68,2.16,5.59,6.57,2.05,7.64-1.02.33-1.38.16-2.15.33h0Zm0,0" style="fill: #d4b00a;"/>
      <path d="m119.39,222.24c-2.84-.26-5.38-2.05-2.14-7.45,1.28,2.82,2.24,4.28,2.13,6.97.79.1.2.17,0,.48h0Zm0,0" style="fill: #fbd007;"/>
      <path d="m119.68,222.15c4.32-.07,4.41-5.38,1.03-7.82-1.69,2.73-.91,2.21-1.48,5.94.08,1.03-.39,1.05.45,1.89h0Zm0,0" style="fill: #fbd007;"/>
      <path d="m118.95,219.79c-.74-.79-1.96-3.23-2.6-4.57-2.7,3.84-1.38,9.51,3.49,7.72.2-1-.56-2.38-.89-3.15h0Zm0,0" style="fill: #fbe407;"/>
      <path d="m119.93,223.08c3.99.4,4.58-4.86,2.02-8.49-.73,2.94-2.89,3.67-2.64,5.75-.24.74.29,2.03.63,2.74h0Zm0,0" style="fill: #fbe407;"/>
      <path d="m118.75,223.46c-3.77-.9-2.02-6.77-.06-8.82,2.54,1.07,6.2,8.56,2.56,8.43-.63.52-1.63.69-2.5.39h0Zm0,0" style="fill: #ff0;"/>
      <path d="m101.83,222.09c-2.31-4.63,1.24-5.83,2.74-7.44,2.33,1.96,5.12,4.91,3.14,7.44-1.38,1.66-4.72,2.11-5.88,0h0Zm0,0" style="fill: maroon;"/>
      <path d="m104.51,223.11c-3.25,2.06-5.28-2.62-1.56-7.84,1.85,2.08,4.83,5.77,1.56,7.84h0Zm0,0" style="fill: #a00;"/>
      <path d="m104.85,223.11c-1.96-.98-1.73-5.19,1.89-7.79,2.9,3.88,2.33,9.91-1.89,7.79h0Zm0,0" style="fill: #a00;"/>
      <path d="m102.12,215.05c-6.63,6.91,3.24,11.5,3.24,7.55,2.46-1.51-3.35-5.04-3.24-7.55h0Zm0,0" style="fill: #d40000;"/>
      <path d="m107.85,215.05c-.6,2.67-7.53,7.31-2.83,8.58,5.69,1.54,6.23-5.65,2.83-8.58h0Zm0,0" style="fill: #d40000;"/>
      <path d="m105.02,224.32c-5.16.27-3.37-6.68-.5-9.19,3.71,2.96,5.67,8.91.5,9.19h0Zm0,0" style="fill: #da4646;"/>
      <path d="m115.28,222.19c3.32-2.98.44-6.02-2.8-7.44-2.71,3.33-3.01,8.14.67,7.9,1.07-.05,1.35-.34,2.13-.45h0Zm0,0" style="fill: #d4b00a;"/>
      <path d="m114.64,222.74c2.57-1.25,4.35-3.83-.52-7.75-.24,3.1-.65,4.81.37,7.29-.71.37-.13.23.16.45h0Zm0,0" style="fill: #fbd007;"/>
      <path d="m114.33,222.76c-4.08,1.47-5.96-3.49-3.63-6.97,2.51,1.96,1.6,1.75,3.41,5.04.28.99.72.84.22,1.93h0Zm0,0" style="fill: #fbd007;"/>
      <path d="m114.21,220.28c.43-1.01.75-3.72.88-5.2,3.84,2.64,4.53,8.43-.65,8.47-.52-.87-.29-2.43-.23-3.27h0Zm0,0" style="fill: #fbe407;"/>
      <path d="m115.65,223.65c3.23-2.18-.41-7.06-2.94-8.3-2.01,1.91-2.89,10.22.47,8.81.77.27,1.76.07,2.47-.51h0Zm0,0" style="fill: #ff0;"/>
      <path d="m134.1,244.21c-.25-1.22-1.33-3.61-2.78-4.49-1-1.06-3.48-2.66-4.72-3.08-.32-.09-3.22-.63-3.55-.63,2.05,1.2,5.72,1.75,6.42,3.87.42.85,2,2.42,2.16,3.39.75.91.5,3.35,1.7,3.55,1.13-.38,1.28-1.35.77-2.6h0Zm0,0" style="fill: #206911;"/>
      <path d="m133.78,225.83c-.42,3.46-1.59,16.83-1.2,22.9.48.38.71.15,1.29,0-.21-6.19.69-18.72,1.09-22.89-.44.26-1.17-.01-1.17-.01h0Zm0,0" style="fill: #32b032;"/>
      <path d="m125.51,220.24c-7.3,6.16,2.04,11.78,2.45,7.85,2.61-1.24-2.82-5.38-2.45-7.85h0Zm0,0" style="fill: #d40000;"/>
      <path d="m131.21,220.86c-.87,2.59-8.24,6.46-3.7,8.22,5.5,2.14,6.78-4.95,3.7-8.22h0Zm0,0" style="fill: #d40000;"/>
      <path d="m127.45,229.76c-5.16-.27-2.67-6.99.44-9.19,3.38,3.34,4.72,9.46-.44,9.19h0Zm0,0" style="fill: #da4646;"/>
      <path d="m133.64,226.93c-3.9-2.13-1.77-5.76,1.07-7.9,3.38,2.61,4.75,7.22,1.11,7.84-1.05.2-1.39-.01-2.18.05h0Zm0,0" style="fill: #8f8c8c;"/>
      <path d="m134.38,226.86c-2.78-.61-5.09-2.71-1.22-7.66.93,2.96,1.71,4.54,1.27,7.19.77.19.18.19-.05.47h0Zm0,0" style="fill: #b3b3b3;"/>
      <path d="m134.68,226.71c4.29.48,5.03-4.78,1.97-7.63-2.01,2.49-1.17,2.08-2.19,5.7-.05,1.03-.52.99.22,1.93h0Zm0,0" style="fill: #b3b3b3;"/>
      <path d="m134.25,223.57c-.64-.88-1.56-3.45-2.02-4.85-3.15,3.47-2.52,9.26,2.53,8.1.32-.97-.26-2.43-.5-3.24h0Zm0,0" style="fill: #eaeaea;"/>
      <path d="m134.83,226.55c3.9.9,5.13-4.25,3.03-8.17-1.09,2.83-3.32,3.28-3.32,5.37-.33.71.05,2.05.29,2.8h0Zm0,0" style="fill: #eaeaea;"/>
      <path d="m133.6,226.77c-3.63-1.36-1.18-6.97,1.01-8.76,2.39,1.39,5.1,9.28,1.52,8.69-.69.44-1.7.48-2.52.07h0Zm0,0" style="fill: #f9f9f9;"/>
      <path d="m7.32,242.84s.9-.83,1.38-1.45c1.25-1.63.77-4.52,2.15-6.31,1.88-2.43,4.35-4.47,5.47-7.01-1.39,1.03-2.43,2.14-3.57,3.61-.67.88-1.87,1.05-2.52,1.9-1.74,2.25-2.65,4.57-3.64,7.4-.4.82.25,1.39.74,1.87h0Zm0,0" style="fill: #267326;"/>
      <path d="m45.39,217.62c.73,5.39,2.43,18.38,1.37,22.95.24.71.98.31,1.35.14.77-5.53-.55-17.76-1.63-23.3-.54-.08-.56-.14-1.09.21h0Zm0,0" style="fill: #3ca73c;"/>
      <path d="m43.44,220.05c-2.84-4.31.55-5.93,1.85-7.72,2.54,1.66,5.66,4.26,3.99,7.01-1.18,1.82-4.43,2.67-5.84.71h0Zm0,0" style="fill: maroon;"/>
      <path d="m46.22,220.74c-2.98,2.44-5.54-1.96-2.46-7.59,2.08,1.84,5.47,5.14,2.46,7.59h0Zm0,0" style="fill: #a00;"/>
      <g>
        <path d="m46.56,220.7c-2.05-.73-2.32-4.94.96-7.96,3.33,3.49,3.47,9.55-.96,7.96h0Zm0,0" style="fill: #a00;"/>
        <path d="m42.9,213.03c-5.78,7.66,4.56,11.02,4.1,7.1,2.27-1.8-3.92-4.6-4.1-7.1h0Zm0,0" style="fill: #fbe407;"/>
      </g>
      <path d="m48.6,212.33c-.28,2.72-6.62,8.17-1.81,8.85,5.83.83,5.53-6.37,1.81-8.85h0Zm0,0" style="fill: #d40000;"/>
      <g>
        <path d="m46.87,221.87c-5.09.9-4.13-6.21-1.57-9.06,4.02,2.48,6.66,8.16,1.57,9.06h0Zm0,0" style="fill: #da4646;"/>
        <path d="m46.96,245.22c-2.2-.68-1.34-6.69-3.18-8.75-1.73-1.95-2.46-4.82-5.94-7.13,3.75.47,4.52,2.34,6.7,4.09.72.57.68,1.97,1.32,2.48.55.44.04,2.05.59,2.49,1.54,1.24,2.55,5.03,2.11,7.22-.37.78-.95-.27-1.6-.41h0Zm0,0" style="fill: #62ad62;"/>
      </g>
      <path d="m48.46,242.84s.9-.83,1.38-1.45c1.25-1.63.77-4.52,2.15-6.31,1.88-2.43,4.35-4.47,5.47-7.01-1.39,1.03-2.43,2.14-3.57,3.61-.67.88-1.87,1.05-2.52,1.9-1.74,2.25-2.65,4.57-3.64,7.4-.4.82.25,1.39.74,1.87h0Zm0,0" style="fill: #267326;"/>
      <path d="m31.41,247.14c-2.12-.94-.55-6.8-2.13-9.08-1.49-2.14-1.89-5.09-5.08-7.8,3.67.93,4.21,2.87,6.18,4.87.64.66.45,2.04,1.03,2.63.49.5-.21,2.04.29,2.55,1.38,1.41,1.94,5.3,1.25,7.43-.45.72-.91-.39-1.54-.6h0Zm0,0" style="fill: #62ad62;"/>
      <path d="m167.22,242.09c-.03.06-1.12-.5-1.76-.94-1.69-1.15-2.11-4.04-3.97-5.3-2.53-1.72-5.5-2.85-7.34-4.92,1.64.53,2.97,1.25,4.5,2.29.91.61,2.1.4,2.97.99,2.35,1.59,3.93,3.5,5.73,5.87.63.65.19,1.4-.13,2.02h0Zm0,0" style="fill: #267326;"/>
      <path d="m165.01,218.83c1.37-5-2.34-5.46-4.13-6.74-1.9,2.39-4.07,5.85-1.64,7.93,1.68,1.35,5.03,1.12,5.77-1.19h0Zm0,0" style="fill: maroon;"/>
      <path d="m162.57,220.38c3.58,1.37,4.67-3.63.02-8-1.41,2.42-3.62,6.63-.02,8h0Zm0,0" style="fill: #a00;"/>
      <path d="m162.24,220.45c1.73-1.36.69-5.43-3.36-7.26-2.1,4.38-.36,10.18,3.36,7.26h0Zm0,0" style="fill: #a00;"/>
      <path d="m163.36,211.99c7.84,5.44-.95,11.93-1.72,8.05-2.7-.98,2.31-5.62,1.72-8.05h0Zm0,0" style="fill: #d40000;"/>
      <path d="m157.74,213.15c1.11,2.5,8.8,5.64,4.43,7.84-5.28,2.65-7.2-4.28-4.43-7.84h0Zm0,0" style="fill: #d40000;"/>
      <path d="m162.3,221.66c5.11-.76,2.02-7.22-1.28-9.11-3.06,3.65-3.83,9.88,1.28,9.11h0Zm0,0" style="fill: #da4646;"/>
      <path d="m156.22,237.97c-.39-1.19-1.75-3.42-3.3-4.13-1.12-.92-3.76-2.21-5.05-2.48-.33-.04-3.27-.23-3.6-.19,2.17.93,5.89,1.03,6.82,3.05.52.8,2.28,2.16,2.55,3.1.85.81.89,3.26,2.11,3.32,1.07-.52,1.11-1.49.46-2.68h0Zm0,0" style="fill: #206911;"/>
      <path d="m153.79,220.25c0,3.48.41,16.9,1.51,22.88.52.32.72.07,1.28-.15-.93-6.12-1.53-18.67-1.62-22.86-.41.31-1.17.13-1.17.13h0Zm0,0" style="fill: #32b032;"/>
      <path d="m154.44,243.28c-.95-2.83,1.24-7,1.89-10.35.69-3.57,3.55-7.96,6.22-9.25-.77.99-1.45,2.43-1.83,2.93-2.74,3.57-2.69,6.19-2.62,10.1.02,1.31-.08,6.17-1.08,6.65-.47.68-2.49.66-2.58-.08h0Zm0,0" style="fill: #3d9528;"/>
      <path d="m153.52,219.22c-4.12-1.63-2.44-5.5.12-7.97,3.67,2.18,5.57,6.59,2.03,7.65-1.02.32-1.38.15-2.15.32h0Zm0,0" style="fill: #d4b00a;"/>
      <path d="m154.3,219.51c-2.83-.27-5.37-2.07-2.11-7.46,1.27,2.82,2.22,4.29,2.11,6.98.79.1.2.17,0,.48h0Zm0,0" style="fill: #fbd007;"/>
      <path d="m154.6,219.42c4.32-.05,4.42-5.36,1.06-7.82-1.69,2.72-.91,2.2-1.5,5.93.07,1.02-.4,1.05.44,1.89h0Zm0,0" style="fill: #fbd007;"/>
      <path d="m153.88,217.06c-.74-.8-1.96-3.23-2.58-4.57-2.72,3.83-1.41,9.5,3.46,7.73.2-1-.55-2.38-.88-3.15h0Zm0,0" style="fill: #fbe407;"/>
      <path d="m154.85,220.35c3.99.41,4.6-4.84,2.05-8.49-.75,2.94-2.91,3.66-2.66,5.74-.25.74.29,2.03.62,2.74h0Zm0,0" style="fill: #fbe407;"/>
      <path d="m153.66,220.72c-3.76-.91-2-6.77-.04-8.82,2.54,1.08,6.17,8.58,2.53,8.44-.64.52-1.64.68-2.5.38h0Zm0,0" style="fill: #ff0;"/>
      <path d="m157.97,246.92c-.03.06-1.12-.5-1.76-.93-1.69-1.14-.89-1.52-2.75-2.77-2.54-1.71-5.51-2.83-7.36-4.89,1.64.53,2.97,1.24,4.51,2.27.91.62,2.1.4,2.98.99,2.35,1.58,2.7.97,4.52,3.33.63.65.19,1.4-.12,2.02h0Zm0,0" style="fill: #267326;"/>
      <path d="m155.08,227.78c.98,5.35,2.61,13.82,5.04,17.82,0,.75-.84.61-1.24.57-2.45-5-4.21-12.63-4.9-18.23.49-.26.49-.32,1.1-.15h0Zm0,0" style="fill: #3ca73c;"/>
      <path d="m156.91,226.19c1.36-5.01-2.35-5.45-4.15-6.73-1.89,2.39-4.05,5.87-1.61,7.94,1.68,1.34,5.04,1.1,5.76-1.2h0Zm0,0" style="fill: maroon;"/>
      <path d="m154.48,227.75c3.58,1.35,4.65-3.64-.02-8-1.4,2.42-3.59,6.64.02,8h0Zm0,0" style="fill: #a00;"/>
      <path d="m154.15,227.82c1.72-1.36.67-5.43-3.38-7.24-2.08,4.39-.33,10.18,3.38,7.24h0Zm0,0" style="fill: #a00;"/>
      <path d="m155.24,219.36c7.86,5.41-.91,11.93-1.69,8.06-2.71-.97,2.29-5.63,1.69-8.06h0Zm0,0" style="fill: #d40000;"/>
      <path d="m149.63,220.53c1.11,2.49,8.81,5.62,4.46,7.82-5.28,2.67-7.22-4.26-4.46-7.82h0Zm0,0" style="fill: #d40000;"/>
      <path d="m154.22,229.03c5.11-.79,1.99-7.23-1.31-9.11-3.05,3.65-3.8,9.89,1.31,9.11h0Zm0,0" style="fill: #da4646;"/>
      <path d="m161.21,246.02c.34-.41-.65-1.59.45-4.14,1.04-2.4.85-5.37,3.44-8.68-3.41,1.66-3.56,3.68-5.09,6.04-.5.78-.04,2.09-.49,2.78-.39.6.6,1.96.22,2.56-1.08,1.67-1.02.4.08,2.34.59.62.51-.09,1.39-.9h0Zm0,0" style="fill: #62ad62;"/>
      <path d="m163.17,220.42c.96,5.35,3.33,18.23,5.74,22.24-.01.75-.84.61-1.24.56-2.43-5.01-4.92-17.05-5.59-22.65.49-.26.49-.32,1.1-.15h0Zm0,0" style="fill: #3ca73c;"/>
      <path d="m169.37,243.86c1.89-1.35-.77-6.78.34-9.33,1.05-2.4.86-5.37,3.46-8.67-3.42,1.65-3.57,3.67-5.11,6.03-.51.77-.05,2.09-.5,2.78-.39.6.6,1.96.21,2.56-1.09,1.67-.87,5.59.21,7.53.59.62.82-.56,1.4-.9h0Zm0,0" style="fill: #62ad62;"/>
      <path d="m189.28,240.08c.05.03.74-.98,1.11-1.68.95-1.83-.03-4.59,1.01-6.6,1.42-2.74,3.51-5.18,4.16-7.9-1.19,1.27-2.02,2.54-2.89,4.2-.51.99-1.66,1.38-2.15,2.32-1.32,2.54-1.81,4.98-2.3,7.94-.24.88.49,1.32,1.06,1.71h0Zm0,0" style="fill: #267326;"/>
      <path d="m182.72,219.06c1.65,5.17,5.59,17.65,5.34,22.34.36.65,1.02.13,1.35-.11-.2-5.58-3.63-17.38-5.66-22.64-.55.02-.58-.04-1.03.4h0Zm0,0" style="fill: #3ca73c;"/>
      <path d="m180.37,218.55c-3.54-3.73-.49-5.94.48-7.94,2.79,1.17,6.31,3.16,5.14,6.18-.84,2-3.9,3.43-5.62,1.76h0Zm0,0" style="fill: #f55;"/>
      <path d="m183.24,218.73c-2.51,2.94-5.8-.92-3.75-7.03,2.37,1.44,6.27,4.07,3.75,7.03h0Zm0,0" style="fill: #e54b4b;"/>
      <path d="m183.56,218.63c-2.15-.35-3.14-4.44-.44-8.01,3.89,2.83,5.08,8.78.44,8.01h0Zm0,0" style="fill: #e54b4b;"/>
      <path d="m178.63,211.74c-4.36,8.59,6.4,10.02,5.27,6.25,1.92-2.18-4.66-3.82-5.27-6.25h0Zm0,0" style="fill: #ff8080;"/>
      <path d="m184.1,210.03c.2,2.73-5.1,9.24-.24,9.05,5.89-.24,4.33-7.27.24-9.05h0Zm0,0" style="fill: #ff8080;"/>
      <path d="m184.06,219.72c-4.85,1.81-5.14-5.37-3.12-8.63,4.39,1.72,7.97,6.82,3.12,8.63h0Zm0,0" style="fill: #faa;"/>
      <path d="m188.22,242.68c-2.29-.27-2.49-6.35-4.65-8.04-2.04-1.6-3.27-4.3-7.09-5.94,3.77-.21,4.85,1.49,7.3,2.81.81.43,1.02,1.81,1.74,2.2.62.33.4,2.01,1.02,2.35,1.73.94,3.38,4.49,3.33,6.72-.23.83-.98-.09-1.65-.11h0Zm0,0" style="fill: #62ad62;"/>
      <path d="m209.59,235.5c.25-1.22,1.33-3.61,2.78-4.5,1.01-1.06,3.48-2.66,4.72-3.08.33-.09,3.22-.63,3.56-.63-2.05,1.2-5.72,1.75-6.42,3.87-.42.85-2,2.42-2.17,3.39-.74.91-.5,3.35-1.7,3.55-1.13-.38-1.27-1.35-.77-2.6h0Zm0,0" style="fill: #206911;"/>
      <path d="m209.92,217.61c.42,3.46,1.95,23.92,1.56,30-.48.38-.71.15-1.29.01.21-6.2-1.06-25.82-1.45-29.99.44.26,1.18-.01,1.18-.01h0Zm0,0" style="fill: #32b032;"/>
      <path d="m211.99,240.55c.61-2.93-2.05-6.8-3.09-10.04-1.11-3.46-4.46-7.46-7.27-8.42.88.89,1.73,2.24,2.17,2.68,3.14,3.21,3.4,5.82,3.79,9.71.13,1.3.8,6.11,1.85,6.47.55.61,2.55.35,2.55-.39h0Zm0,0" style="fill: #3d9528;"/>
      <path d="m210.06,216.55c3.9-2.13,1.78-5.76-1.06-7.9-3.39,2.61-4.75,7.22-1.12,7.84,1.05.19,1.4-.02,2.18.05h0Zm0,0" style="fill: #d4b00a;"/>
      <path d="m209.32,216.94c2.78-.61,5.09-2.71,1.22-7.66-.93,2.96-1.71,4.54-1.28,7.19-.77.2-.18.2.05.47h0Zm0,0" style="fill: #fbd007;"/>
      <path d="m209.02,216.88c-4.3.48-5.03-4.78-1.97-7.63,2.01,2.49,1.17,2.08,2.19,5.7.05,1.03.52.99-.22,1.92h0Zm0,0" style="fill: #fbd007;"/>
      <path d="m209.45,214.45c.64-.88,1.56-3.45,2.02-4.85,3.15,3.47,2.53,9.26-2.52,8.1-.32-.97.26-2.43.5-3.24h0Zm0,0" style="fill: #fbe407;"/>
      <path d="m208.87,217.83c-3.91.9-5.14-4.25-3.03-8.17,1.09,2.83,3.32,3.28,3.32,5.37.33.71-.04,2.05-.29,2.8h0Zm0,0" style="fill: #fbe407;"/>
      <path d="m210.1,218.05c3.63-1.36,1.18-6.97-1.01-8.76-2.39,1.39-5.1,9.28-1.52,8.69.69.44,1.71.48,2.53.07h0Zm0,0" style="fill: #ff0;"/>
      <path d="m222.87,237.39c-.57-1.1-2.26-3.09-3.9-3.53-1.25-.73-4.06-1.56-5.37-1.62-.34,0-3.27.3-3.59.4,2.29.56,5.97.05,7.22,1.89.63.7,2.59,1.76,3,2.64.97.67,1.39,3.07,2.6,2.93.98-.69.86-1.65.04-2.72h0Zm0,0" style="fill: #206911;"/>
      <path d="m187.25,241.32c.24-1.22,1.33-3.61,2.78-4.5,1-1.06,3.48-2.65,4.72-3.07.32-.09,3.22-.63,3.55-.63-2.05,1.19-5.72,1.75-6.41,3.87-.42.85-2.01,2.42-2.17,3.39-.75.91-.5,3.35-1.7,3.55-1.13-.38-1.28-1.35-.77-2.6h0Zm0,0" style="fill: #206911;"/>
      <path d="m187.56,223.43c.42,3.45,1.59,16.82,1.2,22.91-.48.38-.71.15-1.29,0,.21-6.19-.69-18.72-1.09-22.89.44.25,1.17-.02,1.17-.02h0Zm0,0" style="fill: #32b032;"/>
      <path d="m189.64,246.37c.61-2.93-2.06-6.8-3.1-10.04-1.11-3.46-4.46-7.47-7.27-8.42.88.89,1.73,2.24,2.17,2.68,3.14,3.21,3.4,5.82,3.79,9.7.13,1.3.8,6.11,1.85,6.47.55.61,2.55.35,2.55-.39h0Zm0,0" style="fill: #3d9528;"/>
      <path d="m187.71,222.36c3.9-2.13,1.77-5.76-1.07-7.9-3.38,2.61-4.75,7.22-1.11,7.84,1.05.2,1.39,0,2.18.05h0Zm0,0" style="fill: #8f8c8c;"/>
      <path d="m186.97,222.75c2.78-.61,5.09-2.72,1.22-7.66-.92,2.96-1.71,4.53-1.27,7.18-.77.2-.18.2.05.48h0Zm0,0" style="fill: #b3b3b3;"/>
      <path d="m186.66,222.7c-4.29.48-5.03-4.78-1.97-7.63,2,2.5,1.17,2.07,2.19,5.7.05,1.03.52.99-.22,1.93h0Zm0,0" style="fill: #b3b3b3;"/>
      <path d="m187.1,220.26c.64-.88,1.56-3.45,2.02-4.86,3.15,3.47,2.53,9.26-2.53,8.1-.32-.97.26-2.43.51-3.24h0Zm0,0" style="fill: #eaeaea;"/>
      <path d="m186.52,223.65c-3.9.9-5.13-4.25-3.03-8.17,1.09,2.83,3.31,3.27,3.31,5.37.33.71-.04,2.05-.29,2.8h0Zm0,0" style="fill: #eaeaea;"/>
      <path d="m187.75,223.87c3.63-1.37,1.18-6.97-1.01-8.76-2.39,1.38-5.1,9.27-1.52,8.68.69.44,1.7.48,2.52.08h0Zm0,0" style="fill: #f9f9f9;"/>
      <path d="m180.34,246.06c-.24-1.22-1.33-3.61-2.78-4.5-1-1.06-3.48-2.65-4.72-3.08-.32-.09-3.22-.63-3.55-.63,2.05,1.19,5.72,1.75,6.41,3.87.42.85,2.01,2.42,2.17,3.39.74.91.5,1.77,1.7,1.98,1.13-.38,1.27.23.77-1.03h0Zm0,0" style="fill: #206911;"/>
      <path d="m180.02,228.17c-.42,3.45-1.43,11.79-1.04,17.87.48.38.71.15,1.29,0-.21-6.19.54-13.69.93-17.86-.45.25-1.18-.02-1.18-.02h0Zm0,0" style="fill: #32b032;"/>
      <path d="m178.41,246.55c1.86-1.83,1.6-2.25,2.64-5.48,1.11-3.46,4.46-7.47,7.26-8.42-.88.89-1.73,2.24-2.17,2.68-3.14,3.21-3.4,5.82-3.79,9.7-.13,1.3-.34,1.55-1.39,1.91-.55.61-2.55.35-2.55-.39h0Zm0,0" style="fill: #3d9528;"/>
      <path d="m179.88,227.1c-3.9-2.13-1.77-5.76,1.06-7.9,3.39,2.61,4.75,7.22,1.11,7.84-1.05.2-1.4,0-2.18.05h0Zm0,0" style="fill: #d4b00a;"/>
      <path d="m180.62,227.49c-2.78-.61-5.09-2.72-1.22-7.66.92,2.96,1.71,4.53,1.27,7.18.77.19.18.2-.05.48h0Zm0,0" style="fill: #fbd007;"/>
      <path d="m180.92,227.44c4.3.48,5.03-4.78,1.97-7.63-2,2.49-1.17,2.07-2.19,5.7-.05,1.02-.52.99.22,1.93h0Zm0,0" style="fill: #fbd007;"/>
      <path d="m180.48,225c-.64-.88-1.56-3.45-2.02-4.86-3.15,3.47-2.53,9.26,2.53,8.1.31-.97-.26-2.43-.51-3.24h0Zm0,0" style="fill: #fbe407;"/>
      <path d="m181.06,228.39c3.91.9,5.14-4.25,3.03-8.17-1.09,2.83-3.32,3.27-3.32,5.37-.33.71.05,2.05.29,2.8h0Zm0,0" style="fill: #fbe407;"/>
      <path d="m179.83,228.61c-3.63-1.37-1.18-6.97,1.01-8.76,2.39,1.38,5.11,9.27,1.52,8.68-.69.44-1.71.48-2.53.08h0Zm0,0" style="fill: #ff0;"/>
      <path d="m204.74,240.19c-.24-1.22-1.33-3.61-2.78-4.49-1-1.06-3.48-2.66-4.72-3.08-.32-.09-3.22-.63-3.55-.63,2.05,1.2,5.72,1.75,6.42,3.87.42.85,2.01,2.42,2.16,3.39.75.91.5,3.35,1.7,3.55,1.13-.38,1.28-1.35.77-2.6h0Zm0,0" style="fill: #206911;"/>
      <path d="m24.38,240.08c.05.03.74-.98,1.11-1.68.95-1.83-.03-4.59,1.01-6.6,1.42-2.74,3.51-5.18,4.16-7.9-1.19,1.27-2.02,2.54-2.89,4.2-.51.99-1.66,1.38-2.15,2.32-1.32,2.54-1.81,4.98-2.3,7.94-.24.88.49,1.32,1.06,1.71h0Zm0,0" style="fill: #267326;"/>
      <path d="m17.83,219.06c1.65,5.17,5.59,17.65,5.34,22.34.36.65,1.02.13,1.35-.11-.2-5.58-3.63-17.38-5.66-22.64-.55.02-.58-.04-1.03.4h0Zm0,0" style="fill: #3ca73c;"/>
      <path d="m15.47,218.55c-3.54-3.73-.49-5.94.48-7.94,2.79,1.17,6.31,3.16,5.14,6.18-.84,2-3.9,3.43-5.62,1.76h0Zm0,0" style="fill: #f55;"/>
      <path d="m18.34,218.73c-2.51,2.94-5.8-.92-3.75-7.03,2.37,1.44,6.27,4.07,3.75,7.03h0Zm0,0" style="fill: #e54b4b;"/>
      <path d="m18.66,218.63c-2.15-.35-3.14-4.44-.44-8.01,3.89,2.83,5.08,8.78.44,8.01h0Zm0,0" style="fill: #e54b4b;"/>
      <path d="m13.73,211.74c-4.36,8.59,6.4,10.02,5.27,6.25,1.92-2.18-4.66-3.82-5.27-6.25h0Zm0,0" style="fill: #ff8080;"/>
      <path d="m19.21,210.03c.2,2.73-5.1,9.24-.24,9.05,5.89-.24,4.33-7.27.24-9.05h0Zm0,0" style="fill: #ff8080;"/>
      <path d="m19.17,219.72c-4.85,1.81-5.14-5.37-3.12-8.63,4.39,1.72,7.97,6.82,3.12,8.63h0Zm0,0" style="fill: #faa;"/>
      <path d="m23.32,242.68c-2.29-.27-2.49-6.35-4.65-8.04-2.04-1.6-3.27-4.3-7.09-5.94,3.77-.21,4.85,1.49,7.3,2.81.81.43,1.02,1.81,1.74,2.2.62.33.4,2.01,1.02,2.35,1.73.94,3.38,4.49,3.33,6.72-.23.83-.98-.09-1.65-.11h0Zm0,0" style="fill: #62ad62;"/>
      <path d="m22.35,241.32c.24-1.22,1.33-3.61,2.78-4.5,1-1.06,3.48-2.65,4.72-3.07.32-.09,3.22-.63,3.55-.63-2.05,1.19-5.72,1.75-6.41,3.87-.42.85-2.01,2.42-2.17,3.39-.75.91-.5,3.35-1.7,3.55-1.13-.38-1.28-1.35-.77-2.6h0Zm0,0" style="fill: #206911;"/>
      <path d="m22.67,223.43c.42,3.45,1.59,16.82,1.2,22.91-.48.38-.71.15-1.29,0,.21-6.19-.69-18.72-1.09-22.89.44.25,1.17-.02,1.17-.02h0Zm0,0" style="fill: #32b032;"/>
      <path d="m24.75,246.37c.61-2.93-2.06-6.8-3.1-10.04-1.11-3.46-4.46-7.47-7.27-8.42.88.89,1.73,2.24,2.17,2.68,3.14,3.21,3.4,5.82,3.79,9.7.13,1.3.8,6.11,1.85,6.47.55.61,2.55.35,2.55-.39h0Zm0,0" style="fill: #3d9528;"/>
      <path d="m22.82,222.36c3.9-2.13,1.77-5.76-1.07-7.9-3.38,2.61-4.75,7.22-1.11,7.84,1.05.2,1.39,0,2.18.05h0Zm0,0" style="fill: #8f8c8c;"/>
      <path d="m22.08,222.75c2.78-.61,5.09-2.72,1.22-7.66-.92,2.96-1.71,4.53-1.27,7.18-.77.2-.18.2.05.48h0Zm0,0" style="fill: #b3b3b3;"/>
      <path d="m21.77,222.7c-4.29.48-5.03-4.78-1.97-7.63,2,2.5,1.17,2.07,2.19,5.7.05,1.03.52.99-.22,1.93h0Zm0,0" style="fill: #b3b3b3;"/>
      <path d="m22.21,220.26c.64-.88,1.56-3.45,2.02-4.86,3.15,3.47,2.53,9.26-2.53,8.1-.32-.97.26-2.43.51-3.24h0Zm0,0" style="fill: #eaeaea;"/>
      <path d="m21.63,223.65c-3.9.9-5.13-4.25-3.03-8.17,1.09,2.83,3.31,3.27,3.31,5.37.33.71-.04,2.05-.29,2.8h0Zm0,0" style="fill: #eaeaea;"/>
      <path d="m22.85,223.87c3.63-1.37,1.18-6.97-1.01-8.76-2.39,1.38-5.1,9.27-1.52,8.68.69.44,1.7.48,2.52.08h0Zm0,0" style="fill: #f9f9f9;"/>
      <path d="m15.45,246.06c-.24-1.22-1.33-3.61-2.78-4.5-1-1.06-3.48-2.65-4.72-3.08-.32-.09-3.22-.63-3.55-.63,2.05,1.19,5.72,1.75,6.41,3.87.42.85,2.01,2.42,2.17,3.39.74.91.5,1.77,1.7,1.98,1.13-.38,1.27.23.77-1.03h0Zm0,0" style="fill: #206911;"/>
      <path d="m15.12,228.17c-.42,3.45-1.43,11.79-1.04,17.87.48.38.71.15,1.29,0-.21-6.19.54-13.69.93-17.86-.45.25-1.18-.02-1.18-.02h0Zm0,0" style="fill: #32b032;"/>
      <path d="m13.51,246.55c1.86-1.83,1.6-2.25,2.64-5.48,1.11-3.46,4.46-7.47,7.26-8.42-.88.89-1.73,2.24-2.17,2.68-3.14,3.21-3.4,5.82-3.79,9.7-.13,1.3-.34,1.55-1.39,1.91-.55.61-2.55.35-2.55-.39h0Zm0,0" style="fill: #3d9528;"/>
      <path d="m14.98,227.1c-3.9-2.13-1.77-5.76,1.06-7.9,3.39,2.61,4.75,7.22,1.11,7.84-1.05.2-1.4,0-2.18.05h0Zm0,0" style="fill: #d4b00a;"/>
      <path d="m15.72,227.49c-2.78-.61-5.09-2.72-1.22-7.66.92,2.96,1.71,4.53,1.27,7.18.77.19.18.2-.05.48h0Zm0,0" style="fill: #fbd007;"/>
      <path d="m16.02,227.44c4.3.48,5.03-4.78,1.97-7.63-2,2.49-1.17,2.07-2.19,5.7-.05,1.02-.52.99.22,1.93h0Zm0,0" style="fill: #fbd007;"/>
      <path d="m15.59,225c-.64-.88-1.56-3.45-2.02-4.86-3.15,3.47-2.53,9.26,2.53,8.1.31-.97-.26-2.43-.51-3.24h0Zm0,0" style="fill: #fbe407;"/>
      <path d="m16.17,228.39c3.91.9,5.14-4.25,3.03-8.17-1.09,2.83-3.32,3.27-3.32,5.37-.33.71.05,2.05.29,2.8h0Zm0,0" style="fill: #fbe407;"/>
      <path d="m14.94,228.61c-3.63-1.37-1.18-6.97,1.01-8.76,2.39,1.38,5.11,9.27,1.52,8.68-.69.44-1.71.48-2.53.08h0Zm0,0" style="fill: #ff0;"/>
      <path d="m39.85,240.19c-.24-1.22-1.33-3.61-2.78-4.49-1-1.06-3.48-2.66-4.72-3.08-.32-.09-3.22-.63-3.55-.63,2.05,1.2,5.72,1.75,6.42,3.87.42.85,2.01,2.42,2.16,3.39.75.91.5,3.35,1.7,3.55,1.13-.38,1.28-1.35.77-2.6h0Zm0,0" style="fill: #206911;"/>
      <path d="m204.43,222.31c-.42,3.45-1.59,16.82-1.2,22.9.48.38.71.15,1.29,0-.21-6.19.69-18.72,1.09-22.89-.45.26-1.18-.01-1.18-.01h0Zm0,0" style="fill: #32b032;"/>
      <path d="m202.35,245.24c-.61-2.93,2.06-6.8,3.1-10.04,1.11-3.46,4.46-7.46,7.26-8.42-.88.89-1.72,2.24-2.16,2.68-3.14,3.21-3.4,5.82-3.79,9.71-.13,1.3-.81,6.11-1.86,6.47-.55.61-2.55.35-2.55-.39h0Zm0,0" style="fill: #3d9528;"/>
      <path d="m204.28,221.25c-3.9-2.13-1.77-5.76,1.07-7.9,3.38,2.61,4.75,7.22,1.11,7.84-1.05.2-1.39-.01-2.18.05h0Zm0,0" style="fill: #8f8c8c;"/>
      <path d="m205.02,221.63c-2.78-.61-5.09-2.71-1.22-7.66.93,2.96,1.71,4.54,1.27,7.19.77.19.18.19-.05.47h0Zm0,0" style="fill: #b3b3b3;"/>
      <path d="m205.32,221.58c4.3.48,5.03-4.78,1.97-7.63-2,2.49-1.17,2.08-2.19,5.7-.05,1.03-.52.99.22,1.93h0Zm0,0" style="fill: #b3b3b3;"/>
      <path d="m205.47,222.53c3.9.9,5.13-4.25,3.03-8.17-1.09,2.83-3.31,3.28-3.31,5.37-.33.71.04,2.05.29,2.8h0Zm0,0" style="fill: #eaeaea;"/>
      <path d="m204.24,222.75c-3.63-1.36-1.18-6.97,1.01-8.76,2.39,1.38,5.1,9.27,1.51,8.68-.69.44-1.7.48-2.52.07h0Zm0,0" style="fill: #f9f9f9;"/>
      <path d="m230.73,247.91s-1-.72-1.54-1.28c-1.44-1.47-1.29-4.39-2.87-6-2.15-2.19-4.84-3.9-6.25-6.3,1.51.86,2.66,1.82,3.97,3.15.77.79,1.98.82,2.72,1.57,1.99,2.03,3.17,4.22,4.48,6.9.49.77-.09,1.41-.51,1.95h0Zm0,0" style="fill: #267326;"/>
      <path d="m230.95,225.86c-.09,5.44-.73,14.92.86,19.34-.15.73-.94.43-1.32.3-1.41-5.4-1.07-14.08-.64-19.71.53-.15.54-.21,1.11.08h0Zm0,0" style="fill: #3ca73c;"/>
      <path d="m233.05,224.67c2.31-4.63-1.24-5.83-2.74-7.44-2.33,1.96-5.12,4.91-3.14,7.44,1.38,1.66,4.71,2.11,5.88,0h0Zm0,0" style="fill: maroon;"/>
      <path d="m230.37,225.7c3.25,2.06,5.28-2.62,1.56-7.84-1.85,2.08-4.83,5.77-1.56,7.84h0Zm0,0" style="fill: #a00;"/>
      <path d="m230.03,225.7c1.95-.98,1.73-5.19-1.89-7.79-2.9,3.88-2.33,9.91,1.89,7.79h0Zm0,0" style="fill: #a00;"/>
      <path d="m232.76,217.63c6.63,6.91-3.24,11.5-3.24,7.55-2.46-1.51,3.35-5.04,3.24-7.55h0Zm0,0" style="fill: #d40000;"/>
      <path d="m227.03,217.63c.6,2.67,7.53,7.31,2.84,8.58-5.7,1.54-6.23-5.65-2.84-8.58h0Zm0,0" style="fill: #d40000;"/>
      <path d="m229.86,226.9c5.16.27,3.37-6.67.5-9.19-3.71,2.96-5.67,8.91-.5,9.19h0Zm0,0" style="fill: #da4646;"/>
      <path d="m232.8,246c.42-.94.24-2.72,1.82-4.99,1.49-2.14,1.89-5.09,5.07-7.8-3.67.93-4.21,2.88-6.18,4.88-.64.66-.45,2.04-1.03,2.62-.5.51.2,2.04-.29,2.55-1.39,1.42-1.64,1.22-.94,3.34.46.72.91-.39,1.54-.6h0Zm0,0" style="fill: #62ad62;"/>
      <path d="m230.4,238.8c-.05.04-.75-.98-1.11-1.68-.95-1.83.03-4.59-1.01-6.6-1.43-2.74-3.51-5.18-4.16-7.89,1.19,1.27,2.02,2.54,2.88,4.2.51.98,1.66,1.38,2.15,2.32,1.32,2.53,1.81,4.98,2.3,7.94.24.88-.49,1.32-1.05,1.71h0Zm0,0" style="fill: #267326;"/>
      <path d="m236.95,217.79c-1.65,5.17-5.59,17.64-5.34,22.34-.36.65-1.02.13-1.35-.11.21-5.59,3.63-17.38,5.66-22.64.55.01.57-.04,1.03.4h0Zm0,0" style="fill: #3ca73c;"/>
      <path d="m239.3,217.28c3.54-3.73.49-5.94-.47-7.94-2.79,1.18-6.31,3.17-5.15,6.18.85,2,3.9,3.43,5.62,1.76h0Zm0,0" style="fill: #f55;"/>
      <path d="m236.44,217.46c2.51,2.94,5.8-.92,3.75-7.03-2.37,1.44-6.28,4.07-3.75,7.03h0Zm0,0" style="fill: #e54b4b;"/>
      <path d="m236.12,217.36c2.15-.35,3.14-4.44.44-8.01-3.89,2.83-5.08,8.77-.44,8.01h0Zm0,0" style="fill: #e54b4b;"/>
      <path d="m241.05,210.47c4.36,8.59-6.4,10.03-5.27,6.25-1.92-2.18,4.66-3.82,5.27-6.25h0Zm0,0" style="fill: #ff8080;"/>
      <path d="m235.57,208.75c-.2,2.73,5.1,9.24.24,9.05-5.88-.23-4.33-7.26-.24-9.05h0Zm0,0" style="fill: #ff8080;"/>
      <path d="m235.61,218.46c4.85,1.81,5.14-5.37,3.12-8.64-4.39,1.72-7.98,6.83-3.12,8.64h0Zm0,0" style="fill: #faa;"/>
      <path d="m231.46,241.41c2.29-.26,2.48-6.34,4.65-8.04,2.04-1.6,3.27-4.3,7.09-5.94-3.78-.21-4.85,1.48-7.31,2.81-.81.44-1.02,1.81-1.74,2.2-.63.34-.4,2.02-1.02,2.35-1.73.94-3.38,4.49-3.33,6.72.22.83.98-.09,1.65-.11h0Zm0,0" style="fill: #62ad62;"/>
      <path d="m217.69,220.29c.54,3.43,3.06,16.61,5.08,22.34.57.23.72-.05,1.24-.36-1.89-5.89-4.44-18.18-5.19-22.31-.36.37-1.13.32-1.13.32h0Zm0,0" style="fill: #32b032;"/>
      <path d="m221.95,242.92c-1.38-2.64.12-7.12.24-10.53.12-3.64,2.25-8.44,4.68-10.15-.61,1.1-1.05,2.63-1.35,3.19-2.15,3.98-1.68,6.56-1,10.4.23,1.29.89,6.1-.02,6.75-.36.74-2.36,1.05-2.56.34h0Zm0,0" style="fill: #3d9528;"/>
      <path d="m217.26,219.31c-4.32-.94-3.27-5.02-1.12-7.89,3.96,1.55,6.53,5.59,3.2,7.22-.96.49-1.34.38-2.08.67h0Zm0,0" style="fill: #8f8c8c;"/>
      <path d="m218.08,219.48c-2.83.2-5.63-1.17-3.26-7.02,1.7,2.58,2.87,3.87,3.18,6.54.8-.03.23.14.08.47h0Zm0,0" style="fill: #b3b3b3;"/>
      <path d="m218.36,219.34c4.26-.76,3.53-6.02-.18-7.89-1.25,2.96-.56,2.33-.55,6.1.23,1-.23,1.1.73,1.79h0Zm0,0" style="fill: #b3b3b3;"/>
      <path d="m217.28,217.12c-.86-.66-2.44-2.87-3.27-4.09-2.08,4.22.1,9.61,4.64,7.06.04-1.02-.91-2.26-1.37-2.97h0Zm0,0" style="fill: #eaeaea;"/>
      <path d="m218.75,220.21c4-.24,3.78-5.54.68-8.71-.27,3.02-2.3,4.09-1.73,6.1-.12.78.61,1.96,1.04,2.61h0Zm0,0" style="fill: #eaeaea;"/>
      <path d="m217.64,220.77c-3.86-.28-3.03-6.36-1.41-8.7,2.67.65,7.43,7.46,3.82,7.91-.54.62-1.51.94-2.41.79h0Zm0,0" style="fill: #f9f9f9;"/>
      <path d="m240.55,225.42c0,3.48.05,15.33-1.05,21.31-.53.32-.72.07-1.28-.15.93-6.13,1.06-17.1,1.16-21.29.41.31,1.17.13,1.17.13h0Zm0,0" style="fill: #32b032;"/>
      <path d="m241.44,244.83c.95-2.83-2.78-3.39-3.43-6.73-.69-3.57-3.55-7.96-6.22-9.25.77.99,1.45,2.43,1.83,2.93,2.74,3.57,2.69,6.2,2.62,10.1-.02,1.3,1.62,2.55,2.62,3.03.47.67,2.49.66,2.58-.08h0Zm0,0" style="fill: #3d9528;"/>
      <path d="m240.81,224.38c4.12-1.64,2.44-5.5-.12-7.97-3.67,2.18-5.57,6.59-2.03,7.65,1.02.32,1.39.16,2.15.32h0Zm0,0" style="fill: #d4b00a;"/>
      <path d="m239.74,224.58c-4.32-.05-4.42-5.36-1.06-7.82,1.7,2.72.91,2.2,1.5,5.93-.07,1.03.4,1.05-.45,1.89h0Zm0,0" style="fill: #fbd007;"/>
      <path d="m239.49,225.51c-3.99.42-4.6-4.84-2.04-8.48.74,2.94,2.9,3.66,2.66,5.74.24.74-.29,2.03-.62,2.74h0Zm0,0" style="fill: #fbe407;"/>
      <path d="m240.68,225.88c3.76-.91,2-6.77.03-8.82-2.53,1.08-6.16,8.58-2.53,8.44.64.52,1.64.68,2.5.38h0Zm0,0" style="fill: #ff0;"/>
      <path d="m240.04,224.67c2.83-.26,5.37-2.07,2.11-7.45-1.27,2.82-2.22,4.29-2.11,6.97-.79.1-.2.17,0,.48h0Zm0,0" style="fill: #fbd007;"/>
      <path d="m240.46,222.22c.74-.8,1.96-3.23,2.58-4.58,2.72,3.83,1.42,9.51-3.46,7.73-.2-1,.55-2.38.88-3.15h0Zm0,0" style="fill: #fbe407;"/>
      <path d="m275.21,221.77c-2.51-4.52.99-5.87,2.42-7.56,2.41,1.86,5.33,4.69,3.46,7.3-1.31,1.72-4.62,2.32-5.88.26h0Zm0,0" style="fill: #f55;"/>
      <path d="m277.94,222.68c-3.15,2.2-5.38-2.38-1.89-7.76,1.94,2,5.07,5.55,1.89,7.76h0Zm0,0" style="fill: #e54b4b;"/>
      <path d="m275.21,214.74c-6.34,7.19,3.72,11.35,3.55,7.4,2.4-1.62-3.56-4.89-3.55-7.4h0Zm0,0" style="fill: #ff8080;"/>
      <path d="m278.5,223.86c-5.14.51-3.65-6.51-.89-9.15,3.83,2.79,6.04,8.65.89,9.15h0Zm0,0" style="fill: #faa;"/>
      <path d="m276.85,247.14c-2.16-.85-.84-6.78-2.52-8.98-1.58-2.07-2.1-5-5.4-7.57,3.71.76,4.33,2.68,6.38,4.6.67.63.54,2.01,1.14,2.58.52.48-.11,2.04.41,2.53,1.44,1.35,2.17,5.21,1.56,7.36-.42.75-.93-.34-1.56-.53h0Zm0,0" style="fill: #62ad62;"/>
      <path d="m265.6,235.88c.04-1.25-.49-3.83-1.71-5.03-.74-1.26-2.79-3.39-3.9-4.09-.3-.16-3-1.37-3.33-1.44,1.73,1.64,5.18,3.03,5.38,5.25.22.93,1.41,2.82,1.35,3.81.52,1.06-.26,3.37.87,3.85,1.18-.11,1.54-1.01,1.33-2.36h0Zm0,0" style="fill: #206911;"/>
      <path d="m269.29,218.39c-1.18,3.27-5.31,16.01-6.29,22.02.39.49.66.31,1.25.31,1.19-6.08,4.86-18.07,6.18-22.04-.49.15-1.14-.29-1.14-.29h0Zm0,0" style="fill: #32b032;"/>
      <path d="m262.14,240.24c.06-2.99,3.52-6.15,5.26-9.05,1.86-3.11,6.01-6.23,8.96-6.51-1.06.66-2.18,1.78-2.71,2.11-3.77,2.39-4.61,4.88-5.86,8.57-.42,1.24-2.15,5.77-3.25,5.87-.67.47-2.56-.25-2.4-.98h0Zm0,0" style="fill: #3d9528;"/>
      <path d="m268.73,246.46c-.03.05-1.06-.61-1.66-1.1-1.58-1.31-1.74-4.23-3.47-5.66-2.36-1.95-5.21-3.37-6.86-5.6,1.58.69,2.84,1.53,4.27,2.71.85.7,2.05.6,2.87,1.27,2.19,1.81,3.58,3.86,5.17,6.39.56.71.05,1.41-.31,2h0Zm0,0" style="fill: #267326;"/>
      <path d="m266.69,224.5c.46,5.42,1.64,18.46,3.67,22.69-.08.74-.89.53-1.29.44-1.96-5.21-3.34-17.44-3.49-23.09.51-.2.51-.27,1.11-.04h0Zm0,0" style="fill: #3ca73c;"/>
      <path d="m268.66,223.09c1.82-4.85-1.83-5.66-3.49-7.11-2.11,2.2-4.59,5.44-2.36,7.74,1.54,1.5,4.9,1.59,5.85-.63h0Zm0,0" style="fill: maroon;"/>
      <path d="m266.1,224.4c3.44,1.7,4.98-3.16.74-7.96-1.63,2.26-4.2,6.25-.74,7.96h0Zm0,0" style="fill: #a00;"/>
      <path d="m265.76,224.44c1.84-1.19,1.18-5.34-2.67-7.55-2.49,4.16-1.3,10.1,2.67,7.55h0Zm0,0" style="fill: #a00;"/>
      <path d="m267.65,216.13c7.3,6.16-2.04,11.78-2.44,7.85-2.61-1.24,2.82-5.37,2.44-7.85h0Zm0,0" style="fill: #d40000;"/>
      <path d="m261.95,216.74c.87,2.59,8.24,6.46,3.7,8.23-5.5,2.14-6.78-4.95-3.7-8.23h0Zm0,0" style="fill: #d40000;"/>
      <path d="m265.71,225.65c5.16-.28,2.67-7-.44-9.2-3.38,3.34-4.72,9.47.44,9.2h0Zm0,0" style="fill: #da4646;"/>
      <path d="m271.02,245.44c.62-1.01-.46-3.84.88-6.27,1.26-2.29,1.35-5.26,4.24-8.3-3.55,1.31-3.9,3.31-5.64,5.51-.58.72-.24,2.07-.75,2.72-.45.56.41,2.01-.03,2.57-1.24,1.56-1.08,2.5-.17,4.53.53.67.87-.48,1.47-.76h0Zm0,0" style="fill: #62ad62;"/>
      <path d="m238.11,243.14c.39-1.18,1.75-3.42,3.3-4.12,1.12-.93,3.76-2.21,5.05-2.47.33-.05,3.27-.24,3.61-.19-2.18.93-5.89,1.03-6.83,3.05-.52.79-2.27,2.16-2.55,3.1-.85.81-.89,3.26-2.11,3.31-1.08-.52-1.1-1.49-.46-2.68h0Zm0,0" style="fill: #206911;"/>
      <path d="m249.09,245.76c.24-1.22,1.33-3.61,2.78-4.5,1-1.06,3.48-2.65,4.72-3.08.32-.08,3.22-.63,3.55-.63-2.05,1.19-5.72,1.75-6.41,3.87-.42.85-2.01,2.42-2.17,3.39-.75.91-.04,1.77-1.24,1.97-1.12-.38-1.73.23-1.23-1.03h0Zm0,0" style="fill: #206911;"/>
      <path d="m249.4,227.87c.42,3.45,1.59,12.26,1.2,18.34-.48.38-.71.15-1.29,0,.21-6.19-.69-14.16-1.09-18.33.44.25,1.17-.02,1.17-.02h0Zm0,0" style="fill: #32b032;"/>
      <path d="m250.09,246.4c-.78-1.04-.67-2.4-1.71-5.64-1.11-3.46-4.46-7.47-7.26-8.42.88.89,1.72,2.24,2.17,2.68,3.14,3.21,3.4,5.82,3.79,9.7.13,1.3-.59,1.71.46,2.07.55.61,2.55.35,2.55-.39h0Zm0,0" style="fill: #3d9528;"/>
      <path d="m249.55,226.8c3.9-2.13,1.77-5.76-1.07-7.9-3.38,2.61-4.75,7.23-1.11,7.84,1.05.2,1.39-.01,2.18.05h0Zm0,0" style="fill: #8f8c8c;"/>
      <path d="m248.81,227.19c2.78-.61,5.09-2.72,1.22-7.66-.92,2.96-1.71,4.53-1.27,7.18-.77.19-.18.2.05.48h0Zm0,0" style="fill: #b3b3b3;"/>
      <path d="m248.5,227.14c-4.29.48-5.03-4.78-1.97-7.63,2,2.49,1.17,2.07,2.19,5.7.05,1.02.52.99-.22,1.93h0Zm0,0" style="fill: #b3b3b3;"/>
      <path d="m248.94,224.7c.63-.88,1.56-3.45,2.02-4.86,3.15,3.47,2.53,9.26-2.53,8.1-.32-.97.26-2.44.51-3.24h0Zm0,0" style="fill: #eaeaea;"/>
      <path d="m248.37,228.09c-3.91.9-5.14-4.25-3.03-8.17,1.09,2.83,3.32,3.27,3.32,5.37.33.71-.05,2.05-.29,2.8h0Zm0,0" style="fill: #eaeaea;"/>
      <path d="m249.59,228.31c3.63-1.37,1.18-6.97-1.01-8.76-2.39,1.38-5.11,9.28-1.52,8.69.69.44,1.7.48,2.52.08h0Zm0,0" style="fill: #f9f9f9;"/>
      <path d="m272.14,218.45c.42,3.45,1.59,12.26,1.2,18.34-.48.38-.71.15-1.29,0,.21-6.19-.69-14.16-1.09-18.33.44.25,1.17-.02,1.17-.02h0Zm0,0" style="fill: #32b032;"/>
      <path d="m269.39,217.32c-3.33-2.98-.45-6.02,2.8-7.44,2.71,3.33,3.01,8.14-.67,7.89-1.07-.05-1.35-.33-2.13-.45h0Zm0,0" style="fill: #d4b00a;"/>
      <path d="m270.02,217.87c-2.57-1.24-4.35-3.83.52-7.74.24,3.1.65,4.81-.37,7.29.71.37.13.24-.16.45h0Zm0,0" style="fill: #fbd007;"/>
      <path d="m270.32,217.89c4.08,1.47,5.96-3.48,3.63-6.97-2.51,1.97-1.6,1.75-3.41,5.04-.28.99-.72.84-.22,1.92h0Zm0,0" style="fill: #fbd007;"/>
      <path d="m270.45,215.42c-.43-1.01-.75-3.72-.88-5.2-3.84,2.64-4.53,8.43.65,8.47.53-.87.29-2.43.23-3.27h0Zm0,0" style="fill: #fbe407;"/>
      <path d="m270.25,218.85c3.6,1.79,5.95-2.94,4.78-7.25-1.69,2.5-3.96,2.41-4.43,4.46-.48.61-.42,2.01-.34,2.79h0Zm0,0" style="fill: #fbe407;"/>
      <path d="m269,218.78c-3.23-2.17.41-7.06,2.94-8.29,2.02,1.9,2.89,10.22-.46,8.81-.77.26-1.77.07-2.48-.52h0Zm0,0" style="fill: #ff0;"/>
      <path d="m288.13,241.06c-.04.05-.99-.71-1.54-1.27-1.44-1.47-1.29-4.39-2.87-6-2.15-2.2-4.84-3.91-6.25-6.3,1.51.85,2.67,1.82,3.97,3.15.77.79,1.98.82,2.72,1.58,1.99,2.03,3.17,4.22,4.49,6.9.48.77-.09,1.41-.52,1.95h0Zm0,0" style="fill: #267326;"/>
      <path d="m288.35,219c-.09,5.44-.27,18.54,1.32,22.96-.15.73-.94.43-1.32.3-1.41-5.4-1.54-17.7-1.11-23.33.53-.15.54-.21,1.11.08h0Zm0,0" style="fill: #3ca73c;"/>
      <path d="m290.46,217.81c2.31-4.62-1.24-5.82-2.74-7.44-2.33,1.96-5.12,4.92-3.14,7.44,1.38,1.66,4.72,2.11,5.88,0h0Zm0,0" style="fill: maroon;"/>
      <path d="m287.77,218.85c3.25,2.06,5.28-2.62,1.56-7.85-1.85,2.09-4.82,5.77-1.56,7.85h0Zm0,0" style="fill: #a00;"/>
      <path d="m287.43,218.85c1.95-.98,1.73-5.19-1.89-7.79-2.9,3.87-2.32,9.91,1.89,7.79h0Zm0,0" style="fill: #a00;"/>
      <path d="m290.16,210.78c6.63,6.9-3.24,11.5-3.24,7.54-2.46-1.51,3.35-5.04,3.24-7.54h0Zm0,0" style="fill: #d40000;"/>
      <path d="m284.43,210.78c.6,2.67,7.53,7.3,2.83,8.58-5.69,1.54-6.23-5.65-2.83-8.58h0Zm0,0" style="fill: #d40000;"/>
      <path d="m287.26,220.04c5.16.28,3.37-6.67.5-9.19-3.71,2.96-5.66,8.91-.5,9.19h0Zm0,0" style="fill: #da4646;"/>
      <path d="m289.89,243.23c2.12-.94.55-6.8,2.13-9.07,1.49-2.15,1.89-5.09,5.08-7.8-3.67.93-4.21,2.87-6.17,4.88-.65.66-.45,2.04-1.03,2.63-.49.5.21,2.04-.29,2.55-1.38,1.41-1.94,5.3-1.25,7.43.45.72.91-.39,1.54-.6h0Zm0,0" style="fill: #62ad62;"/>
      <path d="m278.52,244.89s.97-.76,1.49-1.34c1.37-1.53,1.1-4.44,2.61-6.12,2.05-2.28,4.67-4.12,5.97-6.57-1.47.92-2.59,1.93-3.83,3.32-.74.82-1.94.91-2.65,1.69-1.9,2.12-2.99,4.36-4.19,7.09-.45.79.15,1.41.6,1.93h0Zm0,0" style="fill: #267326;"/>
      <path d="m277.36,222.87c.32,5.43,1.05,18.51-.35,22.99.18.72.95.39,1.34.24,1.18-5.45.78-17.75.11-23.35-.53-.13-.55-.19-1.1.12h0Zm0,0" style="fill: #3ca73c;"/>
      <path d="m278.28,222.67c-2-.89-1.95-5.1,1.55-7.86,3.07,3.74,2.74,9.79-1.55,7.86h0Zm0,0" style="fill: #e54b4b;"/>
      <path d="m280.93,214.49c-.49,2.69-7.22,7.63-2.46,8.69,5.75,1.28,5.99-5.92,2.46-8.69h0Zm0,0" style="fill: #ff8080;"/>
      <path d="m294.31,224.06c.63,5.4,2.1,18.42.95,22.98.23.71.98.33,1.35.16.87-5.51-.23-17.77-1.21-23.32-.54-.09-.56-.15-1.09.19h0Zm0,0" style="fill: #3ca73c;"/>
      <path d="m292.1,223.1c-2.76-4.37.65-5.92,1.98-7.69,2.51,1.71,5.59,4.37,3.87,7.08-1.21,1.79-4.48,2.58-5.85.6h0Zm0,0" style="fill: #f55;"/>
      <path d="m294.88,223.85c-3.03,2.38-5.51-2.06-2.33-7.64,2.04,1.88,5.37,5.24,2.33,7.64h0Zm0,0" style="fill: #e54b4b;"/>
      <path d="m295.21,223.81c-2.04-.77-2.23-4.98,1.11-7.94,3.27,3.55,3.29,9.61-1.11,7.94h0Zm0,0" style="fill: #e54b4b;"/>
      <path d="m291.69,216.07c-5.92,7.56,4.36,11.11,3.97,7.17,2.3-1.75-3.83-4.67-3.97-7.17h0Zm0,0" style="fill: #ff8080;"/>
      <path d="m297.39,215.48c-.33,2.72-6.77,8.04-1.97,8.82,5.81.94,5.64-6.26,1.97-8.82h0Zm0,0" style="fill: #ff8080;"/>
      <path d="m295.5,224.99c-5.11.81-4.01-6.29-1.41-9.09,3.98,2.56,6.52,8.28,1.41,9.09h0Zm0,0" style="fill: #faa;"/>
      <path d="m294.71,245.34c-2.2-.72-.76-3.73-2.56-5.82-1.7-1.98-2.38-4.87-5.82-7.24,3.74.54,4.47,2.42,6.62,4.21.71.59.65,1.98,1.29,2.51.54.45,0,2.05.54,2.5,1.52,1.27,2,2.09,1.52,4.27-.38.77-.95-.29-1.59-.44h0Zm0,0" style="fill: #62ad62;"/>
      <path d="m61.87,236.15c-.04.05-1-.71-1.54-1.27-1.43-1.47-1.29-4.39-2.86-6-2.15-2.2-4.84-3.91-6.25-6.3,1.51.86,2.66,1.82,3.97,3.15.77.79,1.98.82,2.72,1.58,1.99,2.03,3.17,4.21,4.48,6.9.49.77-.09,1.41-.51,1.95h0Zm0,0" style="fill: #267326;"/>
      <path d="m35.32,238.3c.43-1.17,1.85-3.36,3.42-4.01,1.15-.89,3.83-2.09,5.12-2.31.34-.04,3.28-.13,3.61-.07-2.2.86-5.92.83-6.92,2.82-.54.78-2.34,2.08-2.65,3.01-.87.79-.99,3.23-2.21,3.25-1.06-.55-1.06-1.53-.38-2.69h0Zm0,0" style="fill: #206911;"/>
      <path d="m33.17,244.96c.04.05,1-.71,1.55-1.27,1.44-1.47,1.29-4.4,2.87-6,2.15-2.19,4.83-3.91,6.25-6.3-1.51.85-2.67,1.82-3.97,3.15-.77.79-1.98.82-2.72,1.58-1.99,2.03-3.17,4.22-4.48,6.9-.49.77.09,1.41.51,1.95h0Zm0,0" style="fill: #267326;"/>
      <path d="m57.78,246.35c-.04.05-1-.72-1.54-1.28-1.44-1.46-1.29-4.39-2.87-6-2.15-2.19-4.83-3.9-6.25-6.3,1.51.86,2.67,1.83,3.97,3.15.78.79,1.98.82,2.72,1.58,1.99,2.03,3.17,4.22,4.48,6.9.49.77-.09,1.41-.51,1.95h0Zm0,0" style="fill: #267326;"/>
    </g>
  </g>
</svg>