<?xml version="1.0" encoding="UTF-8"?>
<svg xmlns="http://www.w3.org/2000/svg" width="300" height="250" viewBox="0 0 300 250">
  <g id="transparent">
    <rect width="300" height="250" style="fill: none;"/>
  </g>
  <g id="four">
    <g>
      <path d="m111.3,193.02c-2.07-2.58-1.45-7.03-1.04-10.22.49-3.89,3.94-10.85,8.92-11.82,1.07-.21,2.92-1.94,7.74-1.9,4.82.02,6.53,1.52,7.69,1.71,5.17.87,8.06,7.03,9.9,12.59.6,1.8.64,8.13-1.22,9.49-1.68-.44-3.39-3.52-4.48-7.19.03,1.08-.09,2.12-.43,2.97,1.51,2.27,3.15,5,3.05,9.57-.44,4.37,7.44,16.98.5,26.22.91,1.84,3.58,5.9-1.21,6.74-3.66.64-4.03-4.2-5.4-5.92-3.48,1.02-11.94.64-15.66-.06-.68,2.16-2.95,6.33-5.91,5.71-4.42-.92-2.27-5.38-1.74-6.96-6.58-9.79,1.58-21.56,1.29-25.96-.3-4.23,1.42-6.49,2.71-9.18-.58-.92-.71-2.29-.58-3.62-.48,2.52-1.55,6.04-4.14,7.82h0Zm0,0" style="fill: #856754;"/>
      <path d="m131.5,195.42c-2.39,2.57-4.33,5.74-4.6,9-.27,1.07-.12,2.14.55,2.59,1.6,1.05,3.73-.26,4.48-1.98,2.04-2.21,3.2-3.66,4.86-5.69.64-2.79-3.31-6.11-5.29-3.92h0Zm0,0" style="fill: #fff4eb;"/>
      <path d="m122.01,195.57c2.39,2.57,4.33,5.73,4.6,8.99.27,1.07.13,2.15-.55,2.6-1.6,1.05-3.73-.26-4.48-1.99-2.04-2.21-3.2-3.65-4.86-5.68-.17-.39-.45-.58-.59-.89-1.18-2.36,3.45-4.51,4.07-3.88.33.33,1.24.74,1.82.85h0Zm0,0" style="fill: #fff4eb;"/>
      <path d="m126.88,169.55c-1.01.02-3.54,7.28-2.99,10.55-5.68,6.27-2.41,13.11,3.71,13.33,6.12.23,9.17-8.65,2.98-13.56.36-3.35-2.69-10.35-3.7-10.32h0Zm0,0" style="fill: #fff4eb;"/>
      <path d="m138.42,188.68c-5.99,5.13-16.88,3.61-22.4.08-1.98,2.4-3.93,6.69-2.76,10.26,6.15-.83,9.4,5.44,13.52,5.39,4.13-.05,8.73-7.05,14.66-5.01.85-3.64-.28-7.8-3.03-10.73h0Zm0,0" style="fill: #fff4eb;"/>
      <path d="m118.27,175.68c-.05.01-.1.05-.13.09-.34.45-.64,1.28-.88,2.19-.24.88-.39,1.79-.4,2.44-.82,1.43-1.4,3.15-1.59,4.75-.01.11.08.23.19.24.11.01.23-.07.24-.18.18-1.55.76-3.23,1.55-4.61.02-.04.02-.07.02-.11,0-.58.17-1.54.4-2.42.23-.87.57-1.71.81-2.04.12-.14-.04-.39-.21-.35h0Zm17.56.05c-.16.04-.21.3-.08.39.1.08.25.33.4.68.14.35.28.8.39,1.28.21.96.32,2.05.26,2.79,0,.05.01.11.05.16.93,1.07,1.56,2.81,1.7,4.49-.02.12.11.25.23.24.13-.01.23-.16.18-.28-.15-1.73-.77-3.48-1.75-4.65.06-.8-.05-1.88-.26-2.84-.11-.5-.25-.96-.41-1.34-.15-.39-.3-.68-.53-.86-.05-.04-.12-.07-.19-.05h0Zm0,0" style="fill: #666;"/>
      <path d="m122.04,178.3c0,.8-.55,1.44-1.23,1.44s-1.24-.64-1.24-1.44.55-1.44,1.24-1.44,1.23.64,1.23,1.44h0Zm0,0"/>
      <path d="m134.98,178.19c0,.8-.55,1.45-1.24,1.45s-1.23-.65-1.23-1.45.55-1.44,1.23-1.44,1.24.64,1.24,1.44h0Zm0,0"/>
      <path d="m126.2,181.98c-.11.02-.2.14-.17.25.17,1.11.82,1.73,1.53,1.72.71,0,1.38-.62,1.57-1.69.02-.11-.06-.23-.17-.26-.11-.02-.23.07-.26.17-.17.95-.68,1.34-1.14,1.35-.46,0-.98-.39-1.12-1.36-.01-.11-.12-.2-.24-.18h0Zm0,0" style="fill: #666;"/>
      <path d="m127.5,183.76c-.09.02-.16.11-.16.21l-.03,1.88c0,.11.1.22.21.22.11,0,.21-.09.22-.2l.02-1.9c0-.13-.14-.24-.27-.21h0Zm0,0" style="fill: #666;"/>
      <path d="m125.78,185.05c-.08.01-.15.07-.17.15-.2.51-.23.91-.08,1.21.15.31.46.46.77.48.5.03,1.04-.24,1.3-.72.32.46.82.74,1.31.68.3-.04.6-.19.75-.49.15-.3.14-.7-.05-1.17-.04-.1-.17-.16-.28-.12-.1.04-.16.18-.12.28.17.4.14.67.07.83-.08.15-.21.24-.41.27-.4.05-.95-.21-1.1-.73-.05-.18-.37-.17-.41.01-.09.47-.63.77-1.03.74-.2-.01-.34-.08-.41-.24-.08-.16-.09-.43.09-.88.05-.14-.08-.32-.23-.29h0Zm0,0" style="fill: #666;"/>
      <path d="m131.46,195.21s-.09.03-.12.07c-2.41,2.58-4.35,5.77-4.64,9.1h-.01s0,.02,0,.04c-.14.55-.17,1.1-.08,1.59.09.5.32.94.72,1.2.88.57,1.9.5,2.78.07.86-.43,1.58-1.21,1.99-2.1.01-.01.02-.02.02-.02,0-.01.01-.02.02-.03,2.01-2.18,3.18-3.62,4.83-5.62.14-.18-.19-.46-.33-.28-1.67,2.02-2.81,3.48-4.85,5.68-.01.02-.03.04-.04.05-.36.82-1.05,1.55-1.83,1.94-.78.39-1.62.43-2.35-.04-.28-.18-.46-.5-.53-.92-.08-.42-.06-.93.07-1.44,0-.02.01-.03.01-.04.27-3.19,2.17-6.32,4.55-8.87.14-.13-.02-.41-.2-.36h0Zm0,0" style="fill: #666;"/>
      <path d="m121.98,195.35c-.15.02-.23.25-.12.36,2.38,2.55,4.28,5.68,4.55,8.86v.04c.12.51.15,1.02.08,1.44-.08.42-.27.74-.55.92-.73.48-1.57.42-2.35.03-.77-.39-1.46-1.11-1.82-1.93,0-.02-.02-.04-.04-.05-2.04-2.21-3.2-3.66-4.86-5.69-.14-.17-.48.11-.33.28,1.65,2.01,2.82,3.45,4.83,5.63.02.02.02.03.04.05.41.89,1.13,1.67,1.99,2.09.87.44,1.9.51,2.77-.07.4-.26.62-.7.72-1.2.09-.49.05-1.04-.08-1.59v-.04h-.01c-.29-3.32-2.23-6.51-4.64-9.09-.04-.05-.12-.08-.19-.07h0Zm0,0" style="fill: #666;"/>
      <path d="m119.67,225.22c-.09-6.84,1.14-15.33,7.57-15.45,6.42-.13,8.01,8.21,8.13,15.6-5.24.8-10.03.64-15.7-.15h0Zm0,0" style="fill: #fff4eb;"/>
    </g>
  </g>
</svg>