<?xml version="1.0" encoding="UTF-8"?>
<svg xmlns="http://www.w3.org/2000/svg" width="300" height="250" viewBox="0 0 300 250">
  <g id="transparent">
    <rect width="300" height="250" style="fill: none;"/>
  </g>
  <g id="nine">
    <g>
      <path d="m292.04,227.45c9.74-7.02,3.23-21.1,1.22-26.53-.72-3.6-1.1-7.22-2.05-9.31,2.58-6.05-3.08-10.13-2.39-12.35,2.58-2.61,8.19-11.69,3.83-18.59-4.51,1.5-8.93,10.38-9.89,16.43-.63-.37-1.21-.31-2.14-.12-.24-5.71-4.97-14.84-10.06-16.32-3.02,6.43,1.25,16.39,3.97,18.29,1.05,2.07-4.26,6.65-2.01,12.37-.68,1.83-2,7.04-2.33,9.77-1.36,4.96-6.7,18.93,2.92,26.39-2.21,1.46-3.52,4.96-.2,5.47,3.71.57,5.43-2.81,6.39-4.64,1.98.14,5.13.21,7.12-.32.85,1.91,2.47,5.49,6.34,4.93,3.16-.46,1.28-4.85-.73-5.46h0Zm0,0" style="fill: #e6945f;"/>
      <path d="m292.06,227.41c-.63-2.66.72-5.67-.68-9.54-3.21-8.95-1.92-17.76-9.61-17.72-3.75.02-6.68,10.54-8.57,18.26-.94,3.85.23,6.56,0,9.1-3.02,1.57-3.37,4.88-.63,5.47,4.01.87,5.59-2.33,6.89-4.46,3.11.22,3.79.15,7.14-.27,1.03,3.28,3.19,4.8,5.51,4.67,4.33-.23,2.49-4.54-.05-5.52h0Zm0,0" style="fill: #ffceac;"/>
      <path d="m273.21,201.44c.56,4.38,1.78,6.87,3.84,8.93,1.33,1.33,3.08,1.86,4.38,0,.72-1.02-.4-2.84-1.07-3.93-.85-1.37-.63-3.45-.63-5.09-.77-2.71-6.83-3.53-6.52.09h0Zm0,0" style="fill: #e6945f;"/>
      <path d="m290.21,201.33c-.56,4.38-1.78,6.87-3.84,8.93-1.33,1.33-3.09,1.86-4.38,0-.72-1.02.4-2.85,1.07-3.93.85-1.37.63-3.46.63-5.09.2-3.4,8.85-4.65,6.52.09h0Zm0,0" style="fill: #e6945f;"/>
      <path d="m275.52,180.47c-2.32.57-1.31,4.48,1.01,3.88,2.49-.64.79-4.33-1.01-3.88h0Zm0,0" style="fill: #ffceac;"/>
      <path d="m288.11,180.54c2.32.57,1.3,4.48-1.01,3.89-2.49-.64-.79-4.33,1.01-3.89h0Zm0,0" style="fill: #ffceac;"/>
      <path d="m277.17,182.48c0,.79-.53,1.42-1.17,1.42s-1.17-.63-1.17-1.42.52-1.42,1.17-1.42,1.17.63,1.17,1.42h0Zm0,0"/>
      <path d="m288.79,182.62c0,.79-.53,1.42-1.17,1.42s-1.17-.63-1.17-1.42.52-1.42,1.17-1.42,1.17.64,1.17,1.42h0Zm0,0"/>
      <path d="m282.56,185.37c-.06.02-.11.05-.14.11-.1.18-.37.49-.62.75-.24-.17-.49-.37-.7-.7-.05-.11-.2-.14-.3-.08-.1.07-.12.21-.05.31.29.46.65.76.95.95.08.05.19.04.27-.02.3-.29.66-.69.84-.98.1-.14-.07-.37-.24-.32h0Zm0,0" style="fill: #666;"/>
      <path d="m281.78,186.31c-.11.01-.2.12-.19.23l.05,1.59c0,.11.1.21.21.21s.21-.1.21-.21l-.05-1.6c0-.12-.12-.23-.24-.21h0Zm0,0" style="fill: #666;"/>
      <path d="m283.28,187.88c-.07.01-.12.06-.15.12-.11.21-.21.29-.28.31-.07.03-.15.03-.25-.01-.1-.04-.21-.11-.33-.18-.12-.07-.24-.15-.42-.15-.19,0-.3.09-.41.17-.11.08-.21.17-.3.21-.1.04-.14.05-.21.01-.07-.03-.2-.12-.33-.37-.04-.11-.2-.17-.3-.11-.11.06-.14.21-.08.31.16.3.33.49.53.57.2.08.41.04.57-.03.15-.07.27-.18.37-.25.1-.08.18-.1.17-.1,0,0,.09.03.2.1.11.06.24.15.4.21.15.07.35.1.54.02.2-.08.36-.25.5-.52.08-.14-.07-.35-.22-.31h0Zm0,0" style="fill: #666;"/>
      <path d="m279.68,201.14c-.09.02-.17.11-.16.21,0,1.62-.27,3.75.65,5.22.34.54.79,1.26,1.05,1.95.27.69.34,1.33.04,1.75-.62.88-1.3,1.16-1.99,1.1-.69-.07-1.43-.49-2.07-1.13-2.04-2.04-3.23-4.47-3.78-8.81-.01-.11-.12-.2-.24-.19-.11.02-.2.13-.18.24.56,4.4,1.8,6.96,3.9,9.05.69.69,1.5,1.19,2.33,1.26.84.08,1.69-.31,2.37-1.29.43-.6.3-1.39.02-2.14-.28-.75-.74-1.49-1.08-2.02-.79-1.28-.6-3.33-.6-4.99,0-.13-.14-.24-.26-.21h0Zm0,0" style="fill: #666;"/>
      <path d="m283.64,201.03c-.1.02-.17.11-.17.21,0,1.66.21,3.71-.58,4.99-.34.54-.81,1.27-1.09,2.01-.28.75-.41,1.54.01,2.15.68.97,1.53,1.36,2.37,1.28.84-.07,1.65-.57,2.33-1.25,2.1-2.1,3.34-4.65,3.9-9.06.01-.11-.08-.23-.18-.24-.11-.01-.22.08-.24.19-.56,4.35-1.74,6.77-3.78,8.8-.64.64-1.37,1.08-2.07,1.14-.69.06-1.37-.23-1.99-1.12-.29-.42-.22-1.04.04-1.74.27-.69.71-1.41,1.05-1.95.91-1.47.65-3.59.65-5.22,0-.12-.13-.23-.25-.21h0Zm0,0" style="fill: #666;"/>
      <path d="m274.94,207.48c1.99-.69,3.48-1.79,4.93-1.98.97,1.7,2.34,3.96,1.11,5.49-2.49,1.89-5.18-2.06-6.04-3.5h0Zm0,0" style="fill: #ffceac;"/>
      <path d="m288.53,207.46c-1.05-1.49-3.24-2.27-5.01-2.23-1.44,2.81-2.18,4.11-.95,5.65,2.01,1.34,3.67-.31,5.97-3.42h0Zm0,0" style="fill: #ffceac;"/>
    </g>
  </g>
</svg>