<?xml version="1.0" encoding="UTF-8"?>
<svg xmlns="http://www.w3.org/2000/svg" width="300" height="250" viewBox="0 0 300 250">
  <g id="transparent">
    <rect width="300" height="250" style="fill: none;"/>
  </g>
  <g id="one">
    <g>
      <path d="m36.84,213.28c2.8-5.38-2.12-15.96-4.76-18.52,1.84-3.28-.85-7.43-1.55-8.38,0-2.3-1.69-3.48-1.92-5.17,3.58-1.41.8-12.3.59-15.6-3.23,1.61-6.2,5.62-7.23,11.77-.52-.3-1.52-.34-2.01,0-1.23-6.11-3.68-9.72-7.06-11.93.02,3.72-2.52,14.43.36,15.61,0,1.39-1.41,2.66-1.34,5.12-.65.68-3.61,5.16-1.54,8.68-2.69,2.27-6.71,12.48-4.29,18.42-3.12,8.82-2.92,12.62,1.93,19.53-1.54,1.96-2.25,6.17.39,7.15,3.83,1.43,6.38-3.25,7.35-6.19,2.83.83,8.31.78,12.77-.19,1.1,3.47,3.11,7.5,6.96,6.38,2.97-.86,2.12-4.71.19-7.54,4.76-6.37,4.59-9.83,1.16-19.14h0Zm0,0" style="fill: #1a1a1a;"/>
      <path d="m21.69,207.94c4.38.08,15.02,12.67,13.95,24.46,2.5,3.43,2.36,6.72-.12,7.56-2.68.91-5.72-1.01-7.02-6.36-4.43,1.04-8.62,1.17-12.8.26-.75,2.39-2.88,7.64-7.36,6.12-3.29-1.12-1.19-6.34-.29-7.09-1.66-11.74,9.26-25.03,13.63-24.95h0Zm0,0" style="fill: #f2f2f2;"/>
      <path d="m10.35,211.15c.85,1.76,3.56,6.65,5.8,8.89,1.56,1.57,2.84,2.69,4.45,1.55,1.87-1.33.63-3.8.19-5.42-.55-2.05-1.24-3.58-1.55-5.41-1.4-4.95-7.36-2.79-8.89.38h0Zm0,0" style="fill: #1a1a1a;"/>
      <path d="m32.99,210.92c-.86,1.76-3.56,6.64-5.8,8.9-1.56,1.57-2.84,2.68-4.45,1.54-1.87-1.32-.63-3.8-.19-5.41.55-2.05,1.24-3.58,1.54-5.42,1.67-7.58,7.01-4.14,8.9.39h0Zm0,0" style="fill: #1a1a1a;"/>
      <path d="m12.87,182.5c-.49.58-1.06,2.55-1,3.72,3.82,2.15,3.74-3.9,1-3.72h0Zm0,0" style="fill: #f2f2f2;"/>
      <path d="m29.27,182.84c-3.38-.14-2.04,6.28,1.28,3.58-.07-1.39-.56-2.59-1.28-3.58h0Zm0,0" style="fill: #f2f2f2;"/>
      <path d="m20.92,187.08c-4.65.32-.28,8.84-9.36,7.99,7.18,3.52,13.33,3.75,19.45.07-8.44.48-5.43-8.37-10.09-8.06h0Zm0,0" style="fill: #f2f2f2;"/>
      <path d="m14.43,184.63c0,.77-.55,1.4-1.23,1.4s-1.23-.63-1.23-1.4.55-1.4,1.23-1.4,1.23.63,1.23,1.4h0Zm0,0"/>
      <path d="m30.31,184.94c0,.77-.55,1.4-1.23,1.4s-1.23-.63-1.23-1.4.55-1.41,1.23-1.41,1.23.63,1.23,1.41h0Zm0,0"/>
      <path d="m22.36,188.24c-.06,0-.12.03-.17.08l-1.15,1.16-1.06-1.11c-.08-.11-.27-.12-.37-.03-.1.1-.1.28,0,.37l1.24,1.28c.09.1.26.1.35,0l1.33-1.31c.15-.14.02-.46-.19-.43h0Zm0,0" style="fill: #666;"/>
      <path d="m21.03,189.71c-.13,0-.24.13-.23.26l.03,1.61c0,.13.12.25.25.25s.25-.12.25-.25l-.03-1.63c0-.13-.12-.26-.26-.24h0Zm0,0" style="fill: #666;"/>
      <path d="m21.02,191.43c-.06.01-.1.04-.14.08-.22.26-.87.79-1.42,1-.28.11-.52.14-.65.1-.14-.05-.23-.14-.26-.48-.02-.12-.15-.23-.28-.21s-.23.14-.21.28c.05.46.28.77.6.88.32.11.65.04.99-.1.57-.22,1.1-.63,1.43-.97.34.34.85.74,1.42.96.33.13.67.22.98.11.32-.11.56-.44.61-.9.01-.13-.09-.26-.22-.28-.12-.02-.26.08-.28.21-.04.34-.13.43-.26.48-.14.05-.37.02-.65-.09-.55-.22-1.21-.73-1.42-.99-.06-.07-.16-.1-.25-.08h0Zm0,0" style="fill: #666;"/>
      <path d="m19.18,210.52c-.13.03-.21.17-.19.3.32,1.87,1.01,3.4,1.57,5.43.22.83.63,1.84.75,2.78.13.94,0,1.76-.86,2.36-.74.53-1.33.52-1.99.21-.66-.3-1.35-.94-2.13-1.72-2.19-2.2-4.92-7.1-5.76-8.84-.04-.14-.21-.22-.34-.16-.13.07-.18.26-.08.38.86,1.78,3.54,6.64,5.83,8.95.79.79,1.52,1.48,2.29,1.83.77.37,1.63.35,2.49-.26,1.01-.72,1.2-1.79,1.06-2.83-.14-1.03-.56-2.08-.77-2.85-.56-2.08-1.24-3.59-1.55-5.39-.02-.14-.17-.23-.31-.2h0Zm0,0" style="fill: #666;"/>
      <path d="m24.03,210.29c-.1.02-.17.1-.19.2-.3,1.79-.97,3.31-1.53,5.38-.21.78-.65,1.83-.79,2.86-.14,1.03.05,2.1,1.06,2.83.86.61,1.72.62,2.49.26.77-.36,1.5-1.05,2.29-1.84,2.3-2.31,4.99-7.18,5.85-8.95.05-.12,0-.28-.12-.33-.12-.06-.28,0-.33.12-.85,1.73-3.58,6.63-5.76,8.83-.78.78-1.48,1.43-2.13,1.73-.65.3-1.25.31-1.99-.22-.85-.61-.99-1.42-.86-2.36.12-.94.55-1.95.77-2.78.54-2.04,1.23-3.56,1.54-5.44.04-.17-.14-.34-.31-.29h0Zm0,0" style="fill: #666;"/>
    </g>
  </g>
</svg>