<?xml version="1.0" encoding="UTF-8"?>
<svg xmlns="http://www.w3.org/2000/svg" width="300" height="250" viewBox="0 0 300 250">
  <g id="transparent">
    <rect width="300" height="250" style="fill: none;"/>
  </g>
  <g id="seven">
    <g>
      <path d="m212.93,231.8c-9.85-8.03-.81-22.37-1.29-32.61-.59-4.75.59-7.18,1.25-10.74.31-1.75.82-3.83.36-6.71-2.7-5.93,2.51-9.37,1.39-12.3-2.47-6.52-16.22-15.56-6.39-25.25,10.25-1.02,4.74,16.46,11.32,24.72.75-.34,1.63-.33,2.35-.04,6.09-8.76-.06-25.94,10.25-24.73,10.45,10.31-3.92,18.02-5.52,25.05-.86,3.77,4.76,6.7,2.2,12.47-.37,2.81.46,4.86,1.11,6.8,1.05,3.37,2.44,6.48,2.22,10.88-.22,9.92,8.76,23.86-.68,32.2.72,2.12,2.84,5.82-.05,6.63-2.47.7-5.56-2.9-5.78-5.82-2.56.6-4.36.47-7.05.1-.4,2.87-3.79,6.47-5.98,5.61-2.92-1.15-.39-4.33.3-6.25h0Zm0,0" style="fill: #874d27;"/>
      <path d="m205.29,148.44c1.25-1.85,5.44-2.46,8.48-1.45-.38-1.33-3-3.75-5.61-2.89-.8,1.24-2.66,2.63-2.87,4.34h0Zm0,0" style="fill: #271100;"/>
      <path d="m234.87,147.64c-.42-.86-1.86-3.02-2.72-3.72-3.23-.28-5.01,1.88-5.28,2.63,2.59-1.06,6.65,0,8,1.08h0Zm0,0" style="fill: #271100;"/>
      <path d="m231.49,231.55c-3.48-7.06,1.11-36.46-9.57-36.57-10.67-.11-5.86,30.22-9.05,36.89-1.4,2.05-2.44,4.71-.56,6.07,1.79,1.29,6.16-2.48,6.16-5.59,2.44.54,4.68.43,7.08-.08.47,3.67,3.79,7.02,6.52,5.49,1.98-1.12-.1-4.56-.58-6.21h0Zm0,0" style="fill: #ecc0a4;"/>
      <path d="m217.22,196.81c1.65,1.75,3.44,7.48,4.48,10.72.65,2.04.81,6.13-1.06,6.44-3.04.51-3.01-5.11-3.57-6.1-1.26-2.27-3.15-4.73-3.68-6.29.46-1.95,1.68-4.48,3.82-4.77h0Zm0,0" style="fill: #874d27;"/>
      <path d="m227.14,196.69c-1.65,1.76-3.44,7.48-4.48,10.73-.66,2.04-.81,6.13,1.06,6.44,3.03.5,3.01-5.11,3.57-6.1,1.26-2.28,3.15-4.73,3.68-6.29.46-1.77-2.3-5.14-3.82-4.78h0Zm0,0" style="fill: #874d27;"/>
      <path d="m214.61,172.02c-1.05.67.01,4.42,1.85,3.62,1.79-.77.21-4.93-1.85-3.62h0Zm0,0" style="fill: #ecc0a4;"/>
      <path d="m227.01,172.06c1.01.7.33,4.36-1.75,3.49-1.8-.76-.2-4.85,1.75-3.49h0Zm0,0" style="fill: #ecc0a4;"/>
      <path d="m217.18,196.62c-.13.02-.19.21-.1.3.78.83,1.65,2.7,2.43,4.75.78,2.05,1.49,4.28,2.01,5.9.32.99.52,2.52.41,3.8-.05.64-.19,1.23-.41,1.66-.22.42-.51.69-.92.76-.71.12-1.2-.11-1.6-.55-.4-.44-.7-1.09-.92-1.81-.22-.72-.35-1.5-.47-2.16-.12-.66-.22-1.18-.39-1.49-1.27-2.29-3.16-4.78-3.66-6.27-.03-.09-.14-.14-.23-.11-.09.03-.14.14-.12.23.55,1.63,2.44,4.07,3.7,6.32.1.19.22.74.34,1.39.12.66.27,1.44.5,2.19.23.75.53,1.45.99,1.95.47.5,1.12.79,1.92.66.53-.09.92-.45,1.17-.94.25-.49.39-1.12.44-1.79.11-1.35-.09-2.89-.43-3.93-.52-1.62-1.23-3.87-2.01-5.93-.78-2.06-1.62-3.94-2.5-4.87-.04-.04-.11-.06-.17-.05h0Zm0,0" style="fill: #b3b3b3;"/>
      <path d="m227.1,196.51s-.07.03-.09.05c-.87.92-1.73,2.8-2.51,4.87-.78,2.06-1.49,4.3-2.01,5.92-.34,1.05-.54,2.6-.42,3.95.06.67.19,1.29.44,1.78.26.49.64.86,1.17.95.81.14,1.46-.15,1.92-.65.46-.5.77-1.21,1-1.96.23-.75.36-1.53.48-2.18.12-.66.24-1.2.34-1.39,1.25-2.26,3.15-4.69,3.69-6.33.04-.09,0-.21-.1-.25-.09-.03-.21.04-.23.14-.5,1.5-2.39,3.96-3.66,6.26-.17.31-.26.84-.39,1.51-.12.66-.27,1.42-.49,2.14-.22.72-.51,1.39-.92,1.83-.4.43-.89.66-1.6.54-.4-.06-.7-.32-.92-.75-.22-.43-.36-1.01-.41-1.66-.11-1.29.1-2.81.42-3.8.52-1.62,1.22-3.86,2-5.91.79-2.05,1.65-3.91,2.43-4.74.11-.11-.02-.34-.16-.3h0Zm0,0" style="fill: #b3b3b3;"/>
      <path d="m216.74,173.76c-.03.76-.53,1.35-1.12,1.33-.59-.03-1.04-.66-1-1.42.04-.76.54-1.35,1.12-1.33.59.02,1.04.66,1,1.42h0Zm0,0"/>
      <path d="m225,173.7c.06.75.59,1.33,1.18,1.27.58-.05,1-.71.94-1.46-.07-.75-.6-1.32-1.18-1.27-.59.05-1.01.7-.94,1.46h0Zm0,0"/>
      <path d="m222.01,177.08c-.09,0-.17.09-.16.19,0,.48-.12.81-.3,1.03-.18.21-.4.31-.63.31-.46,0-.98-.41-1.02-1.32,0-.09-.09-.17-.19-.16-.09,0-.17.09-.16.19.04,1.04.69,1.64,1.36,1.64.34,0,.68-.15.92-.44.24-.29.38-.72.37-1.26,0-.09-.09-.18-.19-.17h0Zm0,0" style="fill: #b3b3b3;"/>
      <path d="m220.9,178.65c-.08.02-.15.1-.14.19v1.38c.01.09.09.18.19.18s.18-.08.18-.18v-1.4c-.01-.1-.12-.19-.22-.17h0Zm0,0" style="fill: #b3b3b3;"/>
      <path d="m220.91,180.04c-.06.02-.12.07-.13.13-.08.4-.34.65-.58.7-.12.03-.23.02-.31-.03-.08-.05-.14-.13-.18-.3-.02-.09-.12-.16-.21-.14-.09.02-.16.12-.15.21.05.25.17.43.34.53s.38.12.57.08c.29-.07.52-.33.69-.64.17.32.42.55.71.62.19.05.39.02.56-.09s.29-.3.33-.54c.03-.09-.04-.22-.14-.23-.1-.02-.21.07-.2.18-.03.17-.1.25-.18.3-.08.05-.18.07-.3.04-.24-.05-.52-.28-.62-.69-.02-.09-.12-.15-.21-.13h0Zm0,0" style="fill: #b3b3b3;"/>
      <path d="m221.43,207.1c1.05,2.32.71,6.69-.91,6.91-2.29.31-3.01-4.05-3.22-5.73,1.09-1.2,2.97-1.41,4.12-1.18h0Zm0,0" style="fill: #ecc0a4;"/>
      <path d="m222.76,207.13c-1.05,2.32-.72,6.69.91,6.92,2.29.31,3.01-4.05,3.22-5.73-1.08-1.2-2.96-1.41-4.12-1.18h0Zm0,0" style="fill: #ecc0a4;"/>
    </g>
  </g>
</svg>