<?xml version="1.0" encoding="UTF-8"?>
<svg xmlns="http://www.w3.org/2000/svg" width="300" height="250" viewBox="0 0 300 250">
  <g id="transparent">
    <rect width="300" height="250" style="fill: none;"/>
  </g>
  <g id="six">
    <g>
      <path d="m175.11,189.77c-1.07-3.21.39-6.29,4.16-3.77,2.15,2.69,3.85,5.08,7.74,7.02-3.3-4.87,2.06-9.98,1.74-11.48-.8-4.75-.66-7.39-.12-11.03.31-2.16,2.95-5.11,4.15-5.11,2.44,3.45,1.96,9.76,1.57,13.26.21-.22,1.07-.28,1.19,0-.46-3.52-1-9.92,1.79-13.16,1.23-.05,3.56,2.38,3.87,4.66.57,4.19,1.13,6.29.89,11.47-.5.97,6.21,5.95,1.98,11.5,4.31.15,5.68-3.12,7.14-5.55,1.37-2.12,2.77-1.95,4.37-.99,1.77,2.49.53,5.53-.2,6.75-1.77,3.95-4.84,5.42-6.94,7.93-3.56,5.32,6.18,22.27-1.09,27.9.95,2.59,4.88,6.2.87,7.36-4,1.16-6.06-4.31-6.23-5.97-4.74.47-7.7.8-12.41-.06.19,1.66-2.05,7.2-5.86,5.92-3.82-1.28-.53-5.36.71-8.24-7.39-5.04,2.78-21.69-1.25-26.45-2.32-3.79-6.77-7.88-8.08-11.97h0Zm0,0" style="fill: #fff;"/>
      <path d="m192.78,165.23c-.38,0-.79.2-1.23.53-.44.32-.89.76-1.32,1.28-.86,1.02-1.62,2.31-1.79,3.46-.53,3.64-.68,6.33.13,11.09h0c.03.14,0,.35-.11.63-.1.28-.27.61-.47.99-.41.76-.95,1.71-1.41,2.75-.83,1.94-1.26,4.29,0,6.6-3.45-1.87-5.13-4.11-7.18-6.67-.01-.02-.02-.03-.03-.04-.96-.64-1.79-.93-2.5-.95-.7-.02-1.27.26-1.65.72-.77.93-.85,2.56-.3,4.2,0,0,0,.01,0,.01,1.34,4.16,5.8,8.26,8.09,12,0,.01.01.02.02.03.95,1.12,1.09,3,.82,5.29-.27,2.29-.93,4.97-1.49,7.67-.56,2.7-1.01,5.41-.86,7.78.15,2.32.9,4.32,2.7,5.62-.62,1.39-1.71,3.08-2.21,4.63-.26.79-.35,1.55-.12,2.22.23.67.8,1.2,1.79,1.54,1,.33,1.91.23,2.69-.16.78-.38,1.43-1.04,1.95-1.77.52-.74.9-1.56,1.15-2.31.22-.65.31-1.2.3-1.65,4.54.81,7.54.5,12.1.05.13.92.65,2.57,1.66,3.96.53.73,1.19,1.37,1.99,1.77.8.39,1.72.52,2.76.22,1.04-.3,1.61-.78,1.82-1.39.2-.61.05-1.29-.26-2-.61-1.37-1.77-2.88-2.25-4.11,1.77-1.45,2.53-3.56,2.7-6,.17-2.5-.26-5.32-.8-8.13-.54-2.81-1.19-5.59-1.49-8-.3-2.4-.22-4.41.61-5.68,0,0,0-.01.01-.02,2.07-2.46,5.16-3.96,6.95-7.94,0,0,.01,0,.02-.01,0,0,0-.01,0-.02.37-.62.86-1.69,1.04-2.94.18-1.26.05-2.7-.87-3.98-.01-.03-.03-.04-.05-.06-.82-.49-1.6-.79-2.39-.68-.78.11-1.52.65-2.22,1.74-.74,1.22-1.45,2.64-2.48,3.72-.98,1.01-2.26,1.7-4.16,1.72.9-1.31,1.27-2.59,1.24-3.8-.03-1.3-.47-2.5-1.02-3.55-.55-1.04-1.22-1.94-1.71-2.63-.25-.34-.45-.64-.56-.86-.06-.11-.1-.2-.11-.27-.02-.07,0-.09,0-.1.01-.03.02-.05.02-.08.23-5.19-.33-7.32-.9-11.5-.16-1.19-.84-2.4-1.63-3.31-.4-.46-.83-.83-1.24-1.1-.41-.27-.82-.43-1.19-.42-.05,0-.09.03-.12.07-1.44,1.67-2.01,4.11-2.16,6.58-.15,2.32.08,4.62.3,6.36-.11-.02-.24-.04-.36-.04-.14,0-.28.02-.41.06.38-3.56.81-9.61-1.63-13.05-.04-.05-.09-.07-.15-.07h0Zm-.08.4c2.29,3.37,1.86,9.55,1.47,13.01-.02.15.2.26.31.15.01-.02.09-.06.19-.08.09-.02.21-.04.32-.05.11,0,.23.01.3.04.07.02.09.04.09.03.08.14.35.07.34-.09-.23-1.75-.48-4.22-.32-6.64.15-2.39.71-4.72,2.01-6.29.24.01.55.11.9.33.38.25.78.6,1.16,1.04.76.87,1.4,2.03,1.55,3.11.57,4.2,1.13,6.29.89,11.45h.02c-.03.09-.05.18-.03.28.03.12.07.23.14.35.14.26.35.56.6.91.49.69,1.14,1.57,1.68,2.58.53,1.02.96,2.16.98,3.39.03,1.23-.33,2.53-1.36,3.89-.07.11.01.28.14.29,2.19.08,3.69-.73,4.77-1.86,1.09-1.13,1.8-2.57,2.53-3.78.67-1.04,1.31-1.47,1.96-1.56.65-.09,1.34.16,2.11.62.83,1.19.97,2.5.79,3.68-.17,1.19-.67,2.24-1.02,2.82,0,0-.01.02-.02.02-1.74,3.9-4.77,5.34-6.91,7.89,0,.01-.01.01-.01.02-.94,1.4-.98,3.5-.68,5.94.3,2.44.97,5.23,1.51,8.02.54,2.8.95,5.61.79,8.04-.16,2.43-.9,4.49-2.66,5.86-.06.05-.09.13-.06.2.49,1.35,1.71,2.89,2.3,4.22.29.67.42,1.27.26,1.74-.16.47-.61.88-1.57,1.16-.96.28-1.78.15-2.5-.2-.72-.36-1.34-.96-1.85-1.66-1.01-1.4-1.56-3.17-1.64-3.95,0-.1-.1-.18-.19-.17-4.74.47-7.67.81-12.35-.06-.12-.02-.24.09-.22.21.04.36-.05,1-.29,1.72-.23.72-.61,1.52-1.1,2.22-.49.7-1.11,1.3-1.81,1.64-.71.34-1.5.45-2.41.15-.92-.31-1.37-.76-1.56-1.31-.19-.55-.11-1.24.14-1.98.49-1.5,1.61-3.25,2.24-4.71.03-.08,0-.17-.06-.22-1.79-1.23-2.52-3.14-2.67-5.45-.15-2.31.29-5,.85-7.69.55-2.69,1.22-5.38,1.49-7.71.27-2.31.16-4.28-.89-5.55,0,0,0-.02-.01-.02-2.35-3.82-6.77-7.9-8.05-11.9h0c-.52-1.58-.4-3.09.24-3.87.32-.39.75-.6,1.35-.59.6.02,1.37.27,2.29.88,0,0,0,.01.01.02,2.11,2.64,3.86,5.03,7.69,6.97.03.02.05.04.08.06.14.06.31-.13.23-.27-1.61-2.37-1.1-4.78-.23-6.83.44-1.02.97-1.95,1.38-2.72.2-.38.38-.72.5-1.03.11-.3.17-.57.12-.82v-.02c-.8-4.73-.66-7.34-.12-10.97.15-1.02.87-2.28,1.7-3.27.41-.49.86-.92,1.26-1.22.37-.27.7-.4.93-.42h0Zm0,0" style="fill: #999;"/>
      <path d="m202.06,182.63s-.04.02-.05.02c-.18.09-1.23.49-1.6,1.6-.03.09.03.2.12.23.09.03.21-.03.24-.12.31-.94,1.15-1.27,1.39-1.38.09-.03.15-.13.12-.23-.02-.1-.13-.15-.22-.13h0Zm0,0" style="fill: #d40000;"/>
      <path d="m194.48,186.16c-.1.02-.17.14-.14.24.23.69.7,1.09,1.19,1.09.5,0,.96-.41,1.19-1.08.03-.09-.03-.2-.12-.23-.1-.03-.2.02-.24.12-.2.58-.54.83-.84.83s-.64-.24-.84-.84c-.02-.09-.13-.14-.22-.12h0Zm0,0" style="fill: #666;"/>
      <path d="m188.86,182.63c-.16.02-.19.3-.04.35.24.11,1.08.44,1.39,1.38.03.09.14.15.24.12.09-.03.15-.14.12-.23-.37-1.11-1.4-1.51-1.58-1.6-.04-.02-.08-.02-.12-.02h0Zm0,0" style="fill: #d40000;"/>
      <path d="m195.49,187.13c-.08.02-.14.1-.14.19v1.73c0,.1.09.19.19.19s.18-.09.18-.19v-1.73c0-.11-.12-.22-.23-.19h0Zm0,0" style="fill: #666;"/>
      <path d="m192.95,188.94c-.07.02-.12.08-.14.15-.1.45-.03.82.18,1.08.22.26.54.38.89.38.6,0,1.27-.35,1.66-1.04.39.69,1.06,1.07,1.65,1.07.34,0,.67-.12.88-.38.22-.26.29-.63.19-1.08-.01-.1-.12-.18-.22-.16-.1.02-.17.14-.13.24.08.37.02.61-.12.77-.13.16-.33.24-.6.24-.52,0-1.18-.35-1.48-1.12-.05-.14-.29-.14-.34,0-.3.76-.96,1.11-1.48,1.1-.26,0-.48-.09-.61-.24-.13-.16-.19-.4-.11-.77.04-.12-.1-.26-.22-.23h0Zm0,0" style="fill: #666;"/>
    </g>
  </g>
</svg>