<?xml version="1.0" encoding="UTF-8"?>
<svg xmlns="http://www.w3.org/2000/svg" width="300" height="250" viewBox="0 0 300 250">
  <g id="transparent">
    <rect width="300" height="250" style="fill: none;"/>
  </g>
  <g id="three">
    <g>
      <path d="m102.19,230.18c12.59-11.33,1.92-32.18.35-40.1-.24-6.8-3.75-12.09-4.31-14.02,4.62-5.23-.69-12.33-.14-15.29,7.8-4.57,12.12-5.61,12.23-28.36-7.05,2.03-15.69,13.66-18.38,23.96-1.57-.65-3.52-.86-5.22-.1-3.51-10.34-11.71-21.57-16.86-23.86-.32,20.57,2.25,23.58,10.65,27.76.45,3.1-4.82,10.64-1.28,15.32.18,2.58-3.46,7.83-3.36,14.55-.96,8.32-12.47,29.68.68,41.26-.51,2.54-3.67,6.97.2,8.68,3.76,1.66,6.18-4.73,7.16-7.83,3.11.22,7.27.43,10.38-.07,2.3,4.59,3.87,9.13,7.98,7.92,3.4-.99.84-7.66-.07-9.82h0Zm0,0" style="fill: #666;"/>
      <path d="m81.54,237.67c-2.86-4.94-.82-27.92-.74-29.2.23-3.59,3.86-16.18,8.44-16.2,4.59-.03,7.44,12.39,7.67,15.98.11,1.66,3.26,26.43.81,30.05-1.86-2.73-2.6-4.77-3.48-6.26-3.46.3-6.64.51-10.34.13-.48,1.6-1.52,3.82-2.37,5.49h0Zm0,0" style="fill: #c6c6c6;"/>
      <path d="m90.77,179.13c2.86-.38,5.61-2.05,7.15-3.1-.39,2.32-4.74,3.77-7.15,3.1h0Zm0,0" style="fill: #c6c6c6;"/>
      <path d="m97.08,161.68c-1.5.04-2.27,3.88.39,3.63,1.57-.15,1.52-3.68-.39-3.63h0Zm0,0" style="fill: #c6c6c6;"/>
      <path d="m81.14,161.26c-1.49.08-1.96,3.74.4,3.63,1.66-.08,1.52-3.73-.4-3.63h0Zm0,0" style="fill: #c6c6c6;"/>
      <path d="m86.88,178.88c-2.86-.38-5.81-2.32-7.35-3.36.39,2.32,4.94,4.04,7.35,3.36h0Zm0,0" style="fill: #c6c6c6;"/>
      <path d="m80.75,185.36c2.34,2.43,5.14,4.56,7.29,9.99.56,1.39,2.44,4.53.06,5.59-2.11.95-4.21-1.99-5.5-3.31-1.77-1.8-3.93-2.89-5.34-4.85.75-3.15,1.19-5.38,3.49-7.42h0Zm0,0" style="fill: #666;"/>
      <path d="m97.87,185.22c-2.34,2.44-5.14,4.56-7.3,9.99-.55,1.4-2.44,4.53-.05,5.59,2.11.94,4.21-1.99,5.5-3.31,1.77-1.8,3.93-2.9,5.34-4.84.39-3.08-1.26-5.73-3.49-7.42h0Zm0,0" style="fill: #666;"/>
      <path d="m82.4,163.12c0,.81-.52,1.46-1.15,1.46s-1.15-.65-1.15-1.46.52-1.46,1.15-1.46,1.15.65,1.15,1.46h0Zm0,0"/>
      <path d="m98.31,163.49c0,.81-.51,1.46-1.14,1.46s-1.15-.65-1.15-1.46.52-1.46,1.15-1.46,1.14.65,1.14,1.46h0Zm0,0"/>
      <path d="m87.17,166.38c-.09.02-.15.12-.14.21.04,1.09.68,1.83,1.42,1.93.37.04.77-.08,1.08-.41.31-.31.53-.81.64-1.5.04-.11-.04-.25-.14-.27-.11-.02-.22.07-.23.19-.1.63-.31,1.05-.55,1.29-.23.24-.5.32-.76.29-.52-.06-1.06-.61-1.08-1.53,0-.12-.12-.23-.24-.2h0Zm0,0" style="fill: #333;"/>
      <path d="m88.58,168.16c-.11,0-.2.11-.19.21v2.51c0,.11.09.2.19.2s.19-.09.19-.2v-2.51c0-.11-.09-.21-.19-.21h0Zm0,0" style="fill: #333;"/>
      <path d="m88.57,170.77c-.38,0-.71.2-1.11.56-.15.14.1.45.25.32.37-.34.63-.48.86-.48.23,0,.5.16.89.51.07.08.21.07.28,0,.07-.08.06-.23-.03-.3-.41-.37-.77-.6-1.14-.6h0Zm0,0" style="fill: #333;"/>
      <path d="m80.74,185.15c-.16,0-.25.24-.13.35,2.35,2.45,5.12,4.54,7.26,9.93.29.72.89,1.83,1.12,2.88.12.53.13,1.03,0,1.44-.13.41-.41.76-.96,1.01-.49.22-.96.2-1.45.05-.48-.15-.96-.46-1.42-.84-.93-.76-1.77-1.81-2.43-2.48-1.8-1.83-3.94-2.93-5.32-4.82-.12-.17-.43.07-.31.24,1.45,2,3.63,3.1,5.37,4.88.64.65,1.48,1.72,2.45,2.52.48.4,1.01.74,1.56.91.55.17,1.12.18,1.69-.07.64-.28,1.03-.73,1.19-1.25.17-.52.13-1.08,0-1.65-.25-1.14-.87-2.29-1.14-2.96-2.17-5.46-5-7.63-7.32-10.05-.04-.04-.09-.07-.14-.06h0Zm0,0" style="fill: #333;"/>
      <path d="m97.86,185.01s-.1.03-.13.06c-2.32,2.42-5.16,4.59-7.34,10.05-.27.68-.88,1.83-1.13,2.96-.12.57-.16,1.14,0,1.65.17.52.55.96,1.18,1.24.57.26,1.16.25,1.71.08.54-.17,1.06-.51,1.55-.91.97-.8,1.83-1.88,2.46-2.52,1.74-1.78,3.91-2.88,5.35-4.87.08-.08.08-.24-.01-.32-.09-.07-.23-.03-.29.07-1.38,1.9-3.52,2.99-5.32,4.82-.66.68-1.5,1.72-2.43,2.48-.46.38-.95.69-1.43.84-.48.16-.95.16-1.44-.06-.55-.25-.84-.58-.97-1-.13-.41-.11-.91.01-1.43.23-1.04.83-2.16,1.12-2.88,2.15-5.39,4.9-7.48,7.25-9.92.12-.11.02-.36-.13-.35h0Zm0,0" style="fill: #333;"/>
    </g>
  </g>
</svg>