<?xml version="1.0" encoding="UTF-8"?>
<svg xmlns="http://www.w3.org/2000/svg" width="300" height="250" viewBox="0 0 300 250">
  <g id="transparent">
    <rect width="300" height="250" style="fill: none;"/>
  </g>
  <g id="two">
    <g>
      <path d="m43.15,230.07c-6.46-3.61-3.74-19.97-.22-25.44.31-3.19,1.67-5.24,2.45-7.37-2.78-4.63,2.35-10.41,1.79-11.72-3.88-8.39-.32-16.33,5.47-20.53,2.22,3.7,1.52,10.84,1.45,16.63.66-.2,1.6-.11,2.12.11-.58-6.03-.64-13.2,2.01-16.73,5.16,4.16,9.14,12.1,5.36,20.64-.24,1.58,4.89,7.49,2.12,12.05.93,2,1.9,3.13,2.68,6.47,3.78,5.81,5.83,23.25-1.46,26.22,1.43,2.08,2.65,5.96.45,6.81-3.21,1.23-6.4-2.79-7.14-6.03-2.91.77-7.32.57-10.15.22-1.4,2.89-5.23,7.54-7.48,5.92-2.47-1.79-1.02-4.52.56-7.25h0Zm0,0" style="fill: #b2805c;"/>
      <path d="m45.9,205.95c.02,1.94,1.12,6.84,3.45,8.23,1.59,1.34,5.74,2.96,6.35.67.84-3.23-2.67-5.2-2.67-8.68-2.34-2.54-4.53-1.89-7.13-.22h0Zm0,0" style="fill: #fff4eb;"/>
      <path d="m65.88,206.05c-.02,1.94-1.12,6.84-3.44,8.23-1.59,1.34-5.74,2.96-6.35.67-.85-3.23,2.67-5.2,2.67-8.68,1.5-3.27,4.77-2.6,7.12-.22h0Zm0,0" style="fill: #fff4eb;"/>
      <path d="m44.74,195.72c3.06,1.62,6.54-2.92,10.6-2.97,4.07-.05,6.25,4.49,10.94,3.71-.14.49-.36,1.03-.53,1.34,1.39,2.18,2.24,3.95,2.66,6.36-.86,3.74-9.27,9.27-12.52,9.27-3.84-.15-12.62-6.55-13.07-8.79.5-2.56,1.43-5.25,2.5-7.51-.4-.41-.58-.96-.57-1.42h0Zm0,0" style="fill: #fff4eb;"/>
      <path d="m55.41,217.79c-5.7,0-11.68,2.6-12.3,12.36-1.56,2.04-3.21,6.15-.53,7.28,3.71,1.56,6.6-3.8,7.51-5.94,1.4.56,8.61.28,10-.22,1.09,3.95,4.33,7.55,7.53,5.85,1.78-.95.95-4.11-.65-6.71-1-10.23-5.84-12.61-11.55-12.62h0Zm0,0" style="fill: #fff4eb;"/>
      <path d="m48.59,187.97c0,.77-.52,1.39-1.17,1.39s-1.17-.62-1.17-1.39.52-1.4,1.17-1.4,1.17.63,1.17,1.4h0Zm0,0"/>
      <path d="m64.48,188.35c0,.78-.52,1.4-1.18,1.4s-1.17-.62-1.17-1.4.52-1.39,1.17-1.39,1.18.62,1.18,1.39h0Zm0,0"/>
      <path d="m53.99,190.87c-.11.03-.2.14-.2.25-.06,1.15.7,1.85,1.48,1.86.39,0,.78-.17,1.05-.49.27-.33.42-.8.36-1.38-.02-.14-.17-.25-.31-.24-.14.02-.25.16-.24.3.04.47-.06.78-.22.97-.17.2-.39.29-.63.29-.48,0-1-.37-.96-1.27.02-.17-.17-.33-.33-.29h0Zm0,0" style="fill: #666;"/>
      <path d="m55.23,192.54c-.13.03-.23.16-.22.29l.03,1.77c0,.14.14.27.28.27.14,0,.27-.14.26-.28l-.03-1.77c0-.16-.17-.3-.33-.27h0Zm0,0" style="fill: #666;"/>
      <path d="m55.26,194.1c-.09.03-.15.11-.17.19-.15.59-.52.99-.87,1.12-.17.07-.3.08-.42.03-.12-.04-.23-.13-.31-.32-.03-.15-.2-.24-.33-.19-.14.04-.2.24-.13.36.12.3.33.52.58.61.26.09.54.07.8-.04.37-.14.68-.5.92-.93.2.43.49.8.85.97.25.12.52.15.78.07.26-.08.49-.3.61-.6.1-.24-.38-.43-.47-.18-.08.19-.17.27-.27.3-.11.04-.28.03-.45-.05-.33-.15-.68-.58-.8-1.15-.02-.14-.19-.23-.32-.19h0Zm0,0" style="fill: #666;"/>
      <path d="m45.85,205.68c-.13.02-.23.14-.22.27,0,1.02.3,2.73.88,4.4.58,1.66,1.42,3.28,2.67,4.05,0,0,.02,0,.03.01.84.71,2.27,1.44,3.62,1.74.68.14,1.36.19,1.92.02.57-.17,1.04-.58,1.21-1.25.45-1.72-.27-3.11-1.05-4.45-.78-1.34-1.62-2.66-1.62-4.3,0-.14-.13-.27-.27-.27s-.27.13-.27.27c0,1.83.93,3.25,1.7,4.57.77,1.33,1.38,2.53.98,4.05-.13.49-.4.72-.83.85-.43.13-1.02.11-1.65-.02-1.26-.27-2.67-1.02-3.42-1.65-.02,0-.02-.02-.04-.02-1.05-.64-1.92-2.16-2.48-3.77-.56-1.62-.84-3.32-.85-4.24,0-.16-.16-.3-.32-.27h0Zm0,0" style="fill: #666;"/>
      <path d="m65.84,205.76c-.13.02-.23.14-.22.27,0,.92-.3,2.62-.85,4.24-.56,1.61-1.4,3.13-2.47,3.77-.02,0-.02.02-.04.03-.74.64-2.17,1.36-3.43,1.64-.63.14-1.2.16-1.63.03-.43-.13-.72-.37-.85-.86-.39-1.52.24-2.73,1-4.04.77-1.33,1.68-2.74,1.68-4.58,0-.14-.13-.27-.27-.27s-.27.13-.27.27c0,1.65-.84,2.96-1.62,4.3-.78,1.33-1.5,2.73-1.05,4.45.17.65.65,1.07,1.22,1.24.57.17,1.22.14,1.91-.02,1.35-.3,2.78-1.03,3.62-1.74,0,0,.02,0,.03-.02,1.25-.77,2.11-2.37,2.69-4.03.58-1.67.86-3.39.86-4.42,0-.16-.16-.3-.32-.27h0Zm0,0" style="fill: #666;"/>
    </g>
  </g>
</svg>