<?xml version="1.0" encoding="UTF-8"?>
<svg id="Layer_1" data-name="Layer 1" xmlns="http://www.w3.org/2000/svg" width="728" height="90" viewBox="0 0 728 90">
  <rect width="728" height="90" fill="none"/>
  <g>
    <path d="m399.27,24.48c0-3.45-2.8-6.24-6.24-6.24-1.84,0-3.49.8-4.63,2.06-2.33-.93-5.14-1.42-8.32-1.42-.75,0-1.51.03-2.28.08-.11-.23-.23-.45-.34-.67-3.54-6.85-8.33-10.61-13.49-10.61s-9.96,3.77-13.49,10.61c-.11.22-.23.44-.34.67-.78-.05-1.54-.08-2.29-.08-3.15,0-5.94.48-8.25,1.39-1.14-1.25-2.79-2.03-4.61-2.03-3.45,0-6.24,2.8-6.24,6.24,0,2.38,1.33,4.45,3.29,5.51-.28,3.65,1.03,7.87,3.87,12.3.14.21.27.42.41.63-.14.21-.28.42-.41.62-4.16,6.48-5.03,12.52-2.45,16.99,2.39,4.14,7.5,6.41,14.4,6.41.75,0,1.51-.03,2.29-.08.11.23.23.45.34.67,2.11,4.09,4.66,7.07,7.49,8.82.14,3.33,2.88,5.98,6.23,5.98s6.24-2.8,6.24-6.24v-.03c2.63-1.78,5.02-4.66,7.02-8.52.11-.22.23-.45.34-.67.78.05,1.54.08,2.28.08,6.9,0,12.01-2.28,14.4-6.42,2.58-4.47,1.71-10.51-2.44-16.99-.14-.21-.27-.42-.41-.62.14-.21.28-.42.41-.63,2.83-4.41,4.14-8.61,3.86-12.26,2-1.04,3.38-3.13,3.38-5.55Zm-20.14,5.91c-1.82-1.32-3.76-2.57-5.78-3.74-2.01-1.16-4.06-2.2-6.12-3.12,3.13-1.03,6.21-1.73,9.11-2.06,1.18,2.7,2.11,5.7,2.79,8.92Zm.6,3.42c.43,2.92.64,5.98.64,9.11s-.22,6.18-.64,9.1c-2.32,1.83-4.85,3.55-7.56,5.11-2.69,1.55-5.45,2.89-8.21,3.98-2.76-1.09-5.52-2.43-8.21-3.98-2.71-1.56-5.24-3.28-7.56-5.11-.43-2.92-.65-5.98-.65-9.1s.22-6.19.65-9.11c2.32-1.83,4.85-3.55,7.56-5.11,2.69-1.56,5.45-2.89,8.21-3.98,2.76,1.09,5.52,2.43,8.21,3.98,2.71,1.56,5.24,3.28,7.56,5.11Zm-15.77-23.76c4.2,0,8.21,3.25,11.31,9.18-3.61.49-7.44,1.49-11.3,2.96-3.86-1.47-7.7-2.47-11.32-2.96,3.1-5.92,7.11-9.18,11.31-9.18Zm-12.38,11.42c2.9.33,5.98,1.03,9.12,2.06-2.06.91-4.11,1.96-6.12,3.12-2.02,1.17-3.95,2.42-5.78,3.74.67-3.22,1.61-6.23,2.78-8.92Zm-17.22,9.23c.2.02.41.03.62.03,3.45,0,6.24-2.8,6.24-6.25,0-.76-.14-1.49-.38-2.16,1.96-.71,4.33-1.08,7-1.08.41,0,.83,0,1.25.03-1.4,3.38-2.44,7.19-3.1,11.27-3.19,2.61-5.97,5.42-8.21,8.32-2.35-3.71-3.51-7.18-3.43-10.16Zm11.18,19.08c-2.46-2.19-4.59-4.5-6.34-6.87,1.74-2.37,3.88-4.68,6.34-6.88-.23,2.24-.35,4.54-.35,6.88s.12,4.63.35,6.87Zm2.31,14.8c-6.01,0-10.4-1.86-12.35-5.23-2.1-3.63-1.28-8.73,2.29-14.38,2.23,2.9,5.01,5.71,8.21,8.32.66,4.07,1.7,7.89,3.1,11.27-.43.02-.84.03-1.25.03Zm.95-9.15c1.82,1.32,3.76,2.57,5.78,3.74,2.01,1.16,4.06,2.21,6.12,3.12-3.14,1.03-6.21,1.73-9.12,2.06-1.18-2.7-2.11-5.71-2.78-8.93Zm21.09,18.09c-.98-2.17-3.16-3.68-5.7-3.68s-4.89,1.64-5.81,3.95c-2.1-1.55-4.05-3.98-5.73-7.19,3.62-.49,7.45-1.5,11.31-2.96,3.86,1.46,7.7,2.47,11.31,2.96-1.58,3.03-3.41,5.37-5.38,6.92Zm6.45-9.17c-2.9-.33-5.98-1.03-9.11-2.06,2.06-.92,4.11-1.96,6.12-3.12,2.02-1.17,3.95-2.42,5.78-3.74-.67,3.22-1.61,6.23-2.79,8.93Zm16.09-5.01c-1.95,3.38-6.33,5.23-12.35,5.23-.41,0-.83,0-1.25-.03,1.4-3.38,2.44-7.2,3.09-11.27,3.2-2.6,5.98-5.41,8.21-8.32,3.57,5.65,4.39,10.75,2.29,14.38Zm-10.04-23.31c2.46,2.2,4.6,4.52,6.34,6.88-1.75,2.37-3.89,4.68-6.34,6.87.24-2.24.35-4.54.35-6.87s-.12-4.64-.35-6.88Zm7.75,4.82c-2.24-2.9-5.01-5.71-8.21-8.32-.66-4.07-1.7-7.88-3.09-11.27.42-.02.84-.03,1.25-.03,2.72,0,5.1.38,7.08,1.11-.24.66-.38,1.38-.38,2.13,0,3.45,2.8,6.25,6.24,6.25.18,0,.36,0,.54-.02.08,2.98-1.08,6.45-3.43,10.15Z" fill="#fff"/>
    <path d="m376.17,42.91c0,6.74-5.47,12.21-12.21,12.21s-12.21-5.47-12.21-12.21,5.47-12.21,12.21-12.21,12.21,5.47,12.21,12.21Z" fill="#fff"/>
  </g>
</svg>