<?xml version="1.0" encoding="UTF-8"?>
<svg xmlns="http://www.w3.org/2000/svg" width="300" height="250" viewBox="0 0 300 250">
  <g id="Layer_1" data-name="Layer 1">
    <rect width="300" height="250" style="fill: none;"/>
  </g>
  <g id="logo">
    <path d="m159.81,24.93l2.01.77c.58.22.87.87.65,1.45l-2.75,7.16c-.22.58-.87.87-1.45.65l-2.01-.77,3.55-9.26Zm-19.63,0l-2.01.77c-.58.22-.87.87-.65,1.45l2.75,7.16c.22.58.87.87,1.45.65l2.01-.77-3.55-9.26Z" style="fill: #c6e1f8;"/>
    <path d="m164.06,20.91l.55-.15c-1.81-6.53-7.82-11.1-14.61-11.1s-12.8,4.56-14.61,11.1l.55.15c-.35,1.24-.53,2.55-.53,3.9,0,2.34.57,4.66,1.63,6.71l.02.06c.31.8,1.08,1.3,1.89,1.3.12,0,.24-.01.36-.03l.61,1.6c.14.37.42.67.79.83.19.09.4.13.61.13.18,0,.36-.03.54-.1l1.66-.64h0c.22.6.78.96,1.38.96.18,0,.35-.03.53-.1.37-.14.66-.42.82-.78.16-.36.17-.76.03-1.13l-3.78-9.87c-.29-.76-1.14-1.14-1.9-.85-.72.28-1.1,1.07-.88,1.8l-1.67.64c-.77.3-1.16,1.16-.86,1.93l.64,1.66c-.33.2-.58.49-.75.82-.6-1.57-.91-3.25-.91-4.95,0-1.28.18-2.52.51-3.7l.54.15c1.59-5.73,6.85-9.73,12.8-9.73s11.22,4,12.8,9.73l.53-.15c.33,1.18.51,2.42.51,3.7,0,1.7-.32,3.39-.92,4.97-.16-.33-.42-.62-.75-.82l.64-1.67c.3-.77-.09-1.64-.86-1.93l-1.67-.64c.1-.34.09-.7-.06-1.02-.16-.36-.45-.64-.82-.78-.37-.14-.77-.13-1.13.03s-.64.45-.78.82l-3.78,9.87c-.14.37-.13.77.03,1.13.16.36.45.64.82.78.17.07.35.1.53.1.59,0,1.15-.36,1.38-.95h0s1.66.62,1.66.62c.17.07.36.1.54.1.21,0,.41-.04.61-.13.37-.16.65-.46.79-.83l.61-1.6c.12.02.24.03.36.03.81,0,1.58-.49,1.89-1.3v-.02c1.09-2.06,1.66-4.4,1.66-6.75,0-1.35-.19-2.66-.53-3.9Zm-23.2,2.7c.09-.03.17-.05.26-.05.29,0,.57.18.68.47l3.78,9.87c.07.18.06.38-.01.56-.08.18-.22.31-.4.38-.37.14-.79-.04-.94-.42h0s0-.01,0-.01l-3.78-9.86c-.14-.37.05-.79.42-.94Zm-2.55,2.44l1.66-.64,3.28,8.56-1.66.64c-.19.07-.39.07-.57-.02-.18-.08-.32-.23-.39-.42l-.6-1.57h0s-.06-.16-.06-.16l-2.08-5.43c-.15-.39.05-.82.43-.97Zm-.62,5.07c-.2-.53-.02-1.12.4-1.45l.94,2.46c-.54.04-1.07-.28-1.27-.81l-.02-.06h0s0-.02-.01-.03l-.04-.11Zm18.09,3.31c-.14.37-.56.56-.94.42-.18-.07-.32-.21-.4-.38-.08-.18-.08-.37-.01-.56l3.78-9.87c.11-.29.39-.47.68-.47.09,0,.17.02.26.05.37.14.56.56.42.94l-3.78,9.86h0s0,.01,0,.01Zm3.6-.24c-.07.19-.21.33-.39.42-.18.08-.39.09-.57.02l-1.66-.64,3.28-8.56,1.66.64c.39.15.58.58.43.97l-.63,1.65h0s-.11.3-.11.3l-2,5.21Zm1.59-2.05l.45-1.17.5-1.3c.43.33.61.92.4,1.45l-.08.2c-.2.53-.73.85-1.27.81Z" style="fill: #007ddf;"/>
  </g>
</svg>