<?xml version="1.0" encoding="UTF-8"?>
<svg id="Layer_1" data-name="Layer 1" xmlns="http://www.w3.org/2000/svg" width="300" height="250" viewBox="0 0 300 250">
  <rect width="300" height="250" style="fill: none;"/>
  <g>
    <path d="m195.28,162.82c2.06,2.06,2.06,5.4,0,7.46s-5.4,2.06-7.46,0l-16.01-16.01,7.46-7.46,16.01,16.01h0Zm-52.52-84.64c21.86,0,39.58,17.72,39.58,39.58,0,9.03-3.02,17.35-8.11,24.01l2.9,2.9-7.46,7.46-2.9-2.9c-6.66,5.09-14.98,8.11-24.01,8.11-21.86,0-39.58-17.72-39.58-39.58s17.72-39.58,39.58-39.58h0Zm23.73,15.86c-6.07-6.07-14.46-9.83-23.73-9.83h0c-9.26,0-17.65,3.76-23.72,9.83-6.07,6.07-9.83,14.46-9.83,23.72h0c0,9.27,3.76,17.65,9.83,23.73,6.07,6.07,14.46,9.83,23.73,9.83s17.65-3.76,23.73-9.83c6.07-6.07,9.83-14.46,9.83-23.72s-3.76-17.65-9.83-23.72h0Z" style="fill: #fff;"/>
    <path d="m131.02,110.41h9.85v37.07c-3.42-.22-6.75-1.01-9.85-2.34v-34.73h0Zm-13.64,22.94c1.21,1.97,2.66,3.8,4.32,5.47,1.68,1.68,3.54,3.14,5.53,4.36v-26.14h-9.85v16.32h0Zm27.28,14.13c3.42-.22,6.75-1.02,9.85-2.35v-21.69h-9.85v24.04h0Zm13.63-4.31c1.99-1.22,3.84-2.68,5.53-4.36,1.67-1.67,3.11-3.5,4.32-5.47v-27.3h-9.85v37.12h0Z" style="fill: #ec8c34; fill-rule: evenodd;"/>
  </g>
</svg>