<?xml version="1.0" encoding="UTF-8"?>
<svg xmlns="http://www.w3.org/2000/svg" width="300" height="250" xmlns:xlink="http://www.w3.org/1999/xlink" viewBox="0 0 300 250">
  <defs>
    <linearGradient id="linear-gradient" x1="150.41" y1="249.26" x2="149.55" y2="-10.91" gradientUnits="userSpaceOnUse">
      <stop offset="0" stop-color="#fff"/>
      <stop offset="1" stop-color="#197ac0"/>
    </linearGradient>
  </defs>
  <g id="Sky">
    <rect width="300" height="250" style="fill: url(#linear-gradient);"/>
  </g>
  <g id="Sun">
    <circle cx="271.38" cy="23.98" r="7.28" style="fill: #ffd900;"/>
    <path d="m286.58,9.37l-33,33c-.16.16-.43.16-.59,0-.16-.16-.16-.43,0-.59l33-33c.16-.16.43-.16.59,0,.16.16.16.43,0,.59Z" style="fill: #ffd900;"/>
    <path d="m289.32,42.23l-33.26-32.34c-.17-.16-.17-.43-.01-.6.16-.17.42-.17.59-.01l33.26,32.34c.17.16.17.43.01.6-.16.17-.42.17-.59.01Z" style="fill: #ffd900;"/>
    <path d="m271.49,49.1l-.99-44.89c0-.24.16-.43.37-.44.21,0,.38.18.39.42l.99,44.89c0,.24-.16.43-.37.44-.21,0-.38-.18-.39-.42Z" style="fill: #ffd900;"/>
    <path d="m249.4,23.73l43.96-.25c.21,0,.38.17.38.37,0,.21-.17.38-.37.38l-43.96.25c-.21,0-.38-.17-.38-.37,0-.21.17-.38.37-.38Z" style="fill: #ffd900;"/>
    <path d="m256.27,31.05l29.89-14.82c.19-.09.41-.02.5.17.09.19.02.41-.17.5l-29.89,14.82c-.19.09-.41.02-.5-.17-.09-.19-.02-.41.17-.5Z" style="fill: #ffd900;"/>
    <path d="m277.55,43.61l-12.05-33.98c-.08-.23.03-.48.24-.57.21-.09.45.03.53.25l12.05,33.98c.08.23-.03.48-.24.57-.21.09-.45-.03-.53-.26Z" style="fill: #ffd900;"/>
    <path d="m264.87,39.54l12.31-31.4c.08-.19.29-.29.49-.21.19.08.29.29.21.49l-12.31,31.4c-.08.19-.29.29-.49.21-.19-.08-.29-.29-.21-.49Z" style="fill: #ffd900;"/>
    <path d="m287.68,31.24l-32.9-13.81c-.19-.08-.28-.3-.2-.49.08-.19.3-.28.49-.2l32.9,13.81c.19.08.28.3.2.49-.08.19-.3.28-.49.2Z" style="fill: #ffd900;"/>
  </g>
  <g id="Cloud">
    <path d="m264.45,34.3c-.84.17-3.47-1.31-3.47-1.31-.86,1.45-3.99.32-3.99.32-1.83.97-2.41-.31-2.41-.31.49-1.35,1.96-.61,1.96-.61.98-1.6,2.46-.37,2.46-.37.74-1.47,2.21-.12,2.21-.12-.98-2.09,1.84-3.93,1.84-3.93,2.58-1.1,4.17,1.47,4.17,1.47.86-1.6,1.6-.49,1.6-.49,1.23-1.84,2.58-.61,2.58-.61.61-3.44,4.05-2.7,4.05-2.7,1.84-4.54,6-5.31,9.29-3.53,3.15,1.7,3.11,6.48,3.11,6.48.55-.82,1.74-.39,1.74-.39,1.24.59.84,2.23.84,2.23.25-1.1,1.71-2.09,3.31-1.48,1.6.61,1.23,3.57,1.23,3.57.86-1.35,1.96.25,1.96.25.12.82-1.28,1.91-2.97,1.77-.99-.08-2.48-1.36-2.76-1.27-.74.25-.89-.54-1.51-.05,0,0-.59,2.01-4.15,1.74-1.07-.08-3.58.06-4.58-.21-1.87-.5-1.76-1.25-5.21-1.25-3.76,0-2.42,1.17-5.26,1.11-1.03-.02-1.57-1.09-2.09-1.45,0,0-2.43.84-3.96,1.15Z" style="fill: #f7fbfe;"/>
  </g>
  <g id="Layer_1" data-name="Layer 1">
    <g>
      <g>
        <path d="m45.29,21.86l3.19-4.92-3.7-1.08s-1.28,1.31-2.88,2.99c-1.61,1.68-3.66.29-3.66.29l.06.05-17.33-9.41h0s-5.14-2.64-7.39-1.24c-1.02-.16-2.17.21-2.63,1.12-.4.78-.15,1.76.36,2.47.65,1.18,2.21,2.88,5.93,4.72l10.97,5.58c9.15,4.27,15.83,3.46,15.83,3.46l1.43-2.8c-.82-.51-.19-1.22-.19-1.22Z" style="fill: #ebebeb;"/>
        <path d="m45.29,21.86l3.19-4.92-3.7-1.08s-.02.02-.06.06l3.4,1.17-3.23,4.83s-.21.55.3.91c-.36-.47.1-.97.1-.97Z" style="fill: #c9c9c9;"/>
        <path d="m44.88,24.25c-4.54-.76-16.92-6.21-16.92-6.21l-15.24-7.75c.31-.73.16-1.46.06-1.78-.38.04-.75.16-1.07.35l.14,1.54,3.55,1.77,11.57,5.92,3.17,1.52,6.33,2.68,7.85,2.29.33.12.23-.45Z" style="fill: #c9c9c9;"/>
        <path d="m45.48,23.07c-.39-.25-.45-.54-.41-.77l-4.43-2.71c-1.25.31-2.4-.47-2.4-.47l.06.05-17.33-9.41h0s0,0,0,0h0s0,0,0,0h0s0,0-.01,0h0s0,0-.01,0h0s0,0-.01,0h0s-.01,0-.01,0h0s-.02,0-.02,0h0s0,0-.02,0c0,0,0,0,0,0,0,0,0,0-.02,0h0s-.02,0-.02-.01h0s-.01-.01-.02-.01c0,0,0,0,0,0,0,0,0,0-.01,0-.03-.01-.05-.02-.08-.04h0c-.53-.25-1.67-.76-2.95-1.12l-4.15.02s3.84,3.61,6.6,2.67c0,0,.49-.2.96-.62,3.98,2.04,22.42,11.5,24.26,12.65l.08-.15Z" style="fill: #dbdbdb;"/>
        <path d="m26.79,18.38c.16.08,11.61,5.68,17.79,6.46l.12-.23c-.83-.24-10.25-2.96-17.26-6.55l-14.99-7.67c.31-.64.33-1.32.11-1.85-.67.13-1.29.49-1.6,1.08h0s0,.01,0,.02c0,.02-.02.03-.02.05,0,0,0,0,0,.01,0,.02-.01.04-.02.05,0,0,0,0,0,0,0,.02-.01.03-.02.05,0,0,0,0,0,0,0,.02-.01.03-.02.05,0,0,0,0,0,0,0,.02-.01.03-.02.05h0s-.01.04-.02.06c0,0,0,0,0,.01,0,.02-.01.04-.01.06,0,0,0,0,0,0,0,.02,0,.03,0,.05,0,0,0,0,0,.01,0,.02,0,.04-.01.05,0,0,0,0,0,.01,0,.02,0,.03,0,.05h0s0,.04,0,.06v.02s0,.04,0,.06h0s0,.04,0,.06h0s0,.05,0,.07c0,0,0,0,0,0,0,.02,0,.04,0,.06h0s0,.04,0,.06h0s0,.05,0,.07h0s0,.04,0,.06c0,0,0,0,0,.01,0,.02,0,.04,0,.06,0,0,0,0,0,.01,0,.01,0,.04,0,.05,0,0,0,0,0,0,0,.02,0,.04.01.06h0s.02.09.03.13c0,0,0,0,0,0,0,.02,0,.04.01.06,0,0,0,0,0,0,0,.02,0,.04.01.06h0s.01.04.02.06c0,0,0,0,0,0,.01.04.02.08.04.11,0,0,0,0,0,0,0,.02.01.04.02.06h0s.02.04.02.06h0s.01.05.03.06h0s.02.04.03.06h0c.08.17.17.32.28.47.65,1.18,2.21,2.88,5.93,4.72l10.97,5.58c9.15,4.27,15.83,3.46,15.83,3.46l.38-.75c-1.4-.19-3.16-.62-5.23-1.3-1.75-.57-3.74-1.31-5.9-2.2-3.67-1.52-6.61-2.96-6.64-2.98h0s-14.7-7.54-14.7-7.54c.07-.07.14-.16.2-.24l14.64,7.51Z" style="fill: #47a4dc;"/>
        <path d="m44.25,20.75l-2.85-1.49c-1.5.99-3.16-.14-3.16-.14l.06.05-17.31-9.4-.02.22,17.49,9.38s5.56,2.91,6.98,3.76l.04-.07c-.72-.45-.32-1.05-.21-1.19l-1.02-1.13Z" style="fill: #c9c9c9;"/>
        <path d="m20.97,9.77s-5.14-2.64-7.39-1.24c0,0,4.01,2.9,5.86,2.57,0,0,1.14-.13,1.69-1.24l-.17-.09h0Z" style="fill: #008fcc;"/>
        <path d="m13.79,8.41c1.11.95,3.78,2.18,3.78,2.18,2.16.97,3.21-.45,3.43-.81h-.02s-4.85-2.51-7.19-1.37Z" style="fill: #e1edf4;"/>
        <path d="m16.24,9.94l.6-.29s.61-.46.96-1.12c-.19-.05-.37-.1-.56-.15-.47.18-1.81.58-3-.13-.16.05-.31.1-.45.17.59.51,1.62,1.09,2.46,1.53Z" style="fill: #cae2f2;"/>
        <path d="m44.75,16.11l-2.8,2.9s-.97,1-1.84.78c0,0,.91.44,2.16-.75,0,0,1.81-1.94,2.49-2.93Z" style="fill: #fff;"/>
        <path d="m15.09,9.31c.39.22.79.44,1.15.63l.53-.26c.17-.12.35-.27.49-.46,0,0-1.03.47-2.17.09Z" style="fill: #b0d5f1;"/>
        <path d="m20.97,9.77h0s-.25-.13-.66-.31c-.59.32-2.09.97-3.37.17l-.75.28c.76.4,1.37.68,1.37.68,2.16.97,3.21-.45,3.43-.81h-.02Z" style="fill: #cae2f2;"/>
        <path d="m17.74,8.51c-.23.38-.94,1.41-1.96,1.37l.24.12s.96.1,1.91-1.44c-.07-.02-.13-.04-.19-.06Z" style="fill: #008fcc;"/>
        <path d="m44.79,15.85s-.46.46-1.15,1.19l4.06,1.12.79-1.22-3.7-1.08Zm2.39,3.1l-4.26-1.17c-.31.33-.65.68-1.01,1.06-.81.85-1.74.91-2.46.77l5.61,2.87c-.03-.34.23-.63.23-.63l1.89-2.9Z" style="fill: #47a4dc;"/>
        <path d="m44.79,15.85s-.01.01-.03.03c0,0-.02.02-.03.03l3.4,1.17-.67,1.01.24.07.79-1.22-3.7-1.08Zm.49,6.02s0,0,0-.01h0s0,0,0,0h0l1.89-2.9-.25-.07-2.03,3.03s-.08.22-.01.47l.18.09c-.02-.29.16-.54.21-.6h0Z" style="fill: #027ebb;"/>
        <path d="m21,10.93s-1.79,2.27-6.68-1.6c0,0,4.19,4.2,6.68,1.6Z" style="fill: #efefef;"/>
        <path d="m15.1,9.59s3.82,2.92,5.61.97c0,0-1.2,2.3-5.61-.97Z" style="fill: #c9c9c9;"/>
        <path d="m13.14,8.71s.15.89-.15,1.48c-.3.59-.04.08-.04.08l14.92,7.54s13.37,5.63,16.57,6.18l.37-.72-4.51-2.21-.34.67s-.04.41-1.01-.08l-15.54-7.85s-.26-.1,0-.67l.28-.54-2.39-1.19s-2.93,2.62-8.15-2.68Z" style="fill: #fff;"/>
        <path d="m44.05,25.87l.09-.18c-7.86-.41-15.3-3.7-15.3-3.7l-10.92-5.46c-4.73-2.45-6.44-4.92-6.44-4.92-.79-1.41-.07-2.39.47-2.88-.42.19-.77.49-.99.89h0s0,.01,0,.02c0,.02-.02.03-.02.05,0,0,0,0,0,.01,0,.02-.01.04-.02.05,0,0,0,0,0,0,0,.02-.01.03-.02.05,0,0,0,0,0,0,0,.02-.01.03-.02.05,0,0,0,0,0,0,0,.02-.01.03-.02.05h0s-.01.04-.02.06c0,0,0,0,0,.01,0,.02-.01.04-.01.06,0,0,0,0,0,0,0,.02,0,.03,0,.05,0,0,0,0,0,.01,0,.02,0,.04-.01.05,0,0,0,0,0,.01,0,.02,0,.03,0,.05h0s0,.04,0,.06v.02s0,.04,0,.06h0s0,.04,0,.06h0s0,.05,0,.07c0,0,0,0,0,0,0,.02,0,.04,0,.06h0s0,.04,0,.06h0s0,.05,0,.07h0s0,.04,0,.06c0,0,0,0,0,.01,0,.02,0,.04,0,.06,0,0,0,0,0,.01,0,.01,0,.04,0,.05,0,0,0,0,0,0,0,.02,0,.04.01.06h0s.02.09.03.13c0,0,0,0,0,0,0,.02,0,.04.01.06,0,0,0,0,0,0,0,.02,0,.04.01.06h0s.01.04.02.06c0,0,0,0,0,0,.01.04.02.08.04.11,0,0,0,0,0,0,0,.02.01.04.02.06h0s.02.04.02.06h0s.01.05.03.06h0s.02.04.03.06h0c.08.17.17.32.28.47.65,1.18,2.21,2.88,5.93,4.72l10.97,5.58c9.15,4.27,15.83,3.46,15.83,3.46Z" style="fill: #008fcc;"/>
        <path d="m11.93,11.27l14.69,7.55s11.36,5.71,17.13,6.33c0,0-3.77.5-17.25-5.89,0,0-11.03-5.51-14.56-7.99Z" style="fill: #69bce9;"/>
        <path d="m44.05,25.87c-7.4.28-15.72-3.52-15.72-3.52l-9.29-4.75c-5.88-2.77-7.56-5.42-7.56-5.42-1.02-1.17-.61-2.29-.25-2.88-.11.12-.21.25-.29.4h0s0,.01,0,.02c0,.02-.02.03-.03.05,0,0,0,0,0,0,0,.02-.01.04-.02.05,0,0,0,0,0,0,0,.02-.01.03-.02.05,0,0,0,0,0,0,0,.02-.01.04-.02.05,0,0,0,0,0,.01,0,.02-.01.04-.02.05h0s0,.04-.02.06c0,0,0,0,0,.01,0,.02,0,.04-.01.06h0s0,.04-.01.06c0,0,0,0,0,0,0,.02,0,.04-.01.05,0,0,0,0,0,.01,0,.02,0,.03,0,.05h0s0,.04,0,.06c0,0,0,0,0,.01,0,.02,0,.04,0,.06h0s0,.04,0,.06c0,0,0,0,0,.01,0,.02,0,.04,0,.06h0s0,.05,0,.07h0s0,.04,0,.06c0,0,0,0,0,.01,0,.02,0,.04,0,.06h0s0,.04,0,.06c0,0,0,0,0,.01,0,.02,0,.04,0,.06h0s0,.05,0,.06c0,0,0,0,0,0,0,.02,0,.04.01.06,0,0,0,0,0,0,0,.04.02.08.03.12,0,0,0,0,0,0,0,.02.01.04.02.06h0s.01.04.02.06h0s.01.04.02.06c0,0,0,0,0,0,.01.04.02.08.04.11,0,0,0,0,0,0,0,.02.02.04.02.06h0s.01.04.02.06h0s.02.05.02.06c0,0,0,0,0,0,0,.02.02.04.02.06h0c.08.16.17.32.27.46.65,1.18,2.22,2.88,5.93,4.72l10.98,5.58c9.15,4.27,15.82,3.43,15.82,3.43l.02-.05Z" style="fill: #006c96;"/>
        <path d="m14,8.4s1.56-.5,3.3.07c0,0-1.64-.48-3.3-.07Z" style="fill: #fff;"/>
        <path d="m17.58,8.65s-.65.93-1.5,1.15c0,0,.93-.38,1.5-1.15Z" style="fill: #fff;"/>
        <path d="m18.03,8.69s2.01.66,2.8,1.11c0,0-2.45-.93-2.8-1.11Z" style="fill: #fff;"/>
        <path d="m20.66,10.01s-.98,1.58-3.38.33c0,0,2.14,1.08,3.38-.33Z" style="fill: #fff;"/>
        <path d="m43.8,17.09l.15.04c.31-.37.6-.73.79-1.02l-.94.98Zm-1.86,1.92s-.97,1-1.84.78c0,0,.91.44,2.16-.75,0,0,.49-.52,1.05-1.16l-.21-.06-1.15,1.19Z" style="fill: #8ed1ef;"/>
        <path d="m21.54,16.15c-.06.13-.22.18-.34.11l-2.01-1.03c-.12-.06-.17-.22-.11-.34l2-3.91c.07-.12.22-.17.34-.11l2.01,1.03c.12.06.18.22.11.35l-2,3.91Zm2.08-3.87c.09-.17.02-.38-.15-.46l-2.01-1.03c-.17-.09-.38-.02-.46.15l-2,3.91c-.09.17-.02.38.15.46l2.01,1.03c.17.09.38.02.47-.15l2-3.91Z" style="fill: #006c96;"/>
        <path d="m23.65,12.35l-1.51,2.94s.96-1.55,1.51-2.94Z" style="fill: #fff;"/>
        <path d="m21.12,11.02l-1.47,2.88s.78-1.22,1.47-2.88Z" style="fill: #fff;"/>
        <path d="m21.14,9.86s-.82,2.04-3.67.87c0,0,2.24,1.04,3.67-.87Z" style="fill: #006c96;"/>
        <path d="m17.93,8.56s-.55,1.09-1.65,1.42c0,0,.91-.25,1.65-1.42Z" style="fill: #006c96;"/>
        <path d="m44.05,25.87l-.56.04,1.62-3.23s.08.21.37.4l-1.43,2.8Z" style="fill: #666;"/>
        <path d="m43.77,25.89l.28-.02,1.43-2.8c-.08-.05-.14-.1-.19-.15l-1.52,2.97Z" style="fill: #3f3f3f;"/>
        <g>
          <g>
            <path d="m24.5,14.16c-.06.12-.21.17-.33.11l-.45-.23c-.12-.06-.17-.21-.1-.33l.36-.71c.06-.12.21-.17.33-.11l.45.23c.12.06.17.21.11.33l-.36.71Z" style="fill: #b2b2b2;"/>
            <path d="m24.49,14.12c-.06.12-.21.17-.33.11l-.45-.23c-.12-.06-.17-.21-.11-.33l.36-.71c.06-.12.21-.17.33-.11l.45.23c.12.06.17.21.1.33l-.36.71Z" style="fill: #069dd0;"/>
            <path d="m24.45,14.04c-.05.1-.18.14-.28.09l-.38-.2c-.1-.05-.15-.18-.09-.28l.31-.61c.05-.1.18-.15.29-.09l.38.2c.1.05.14.18.09.28l-.31.61Z" style="fill: #e1edf4;"/>
            <path d="m24.75,13.22c-.15.12-.67.51-1.07.45-.04.1,0,.21.1.26l.38.2c.11.05.23.01.28-.09l.31-.61c.04-.07.03-.15,0-.21Z" style="fill: #cae2f2;"/>
            <path d="m24.49,13.08l-.61.29s.45-.2.61-.29Z" style="fill: #fff;"/>
            <path d="m24.7,13.42l-.57.35s.5-.29.57-.35Z" style="fill: #fff;"/>
            <path d="m24.28,13.47l-.52.28s.43-.22.52-.28Z" style="fill: #fff;"/>
          </g>
          <g>
            <path d="m25.98,14.92c-.06.12-.21.17-.33.11l-.45-.23c-.12-.06-.17-.21-.11-.33l.36-.71c.06-.12.21-.17.33-.11l.45.23c.12.06.17.21.1.33l-.36.71Z" style="fill: #b2b2b2;"/>
            <path d="m25.3,13.8h.8c.14,0,.25.11.25.25v.5c0,.14-.11.25-.25.25h-.8c-.14,0-.24-.11-.24-.24v-.5c0-.13.11-.24.24-.24Z" transform="translate(1.27 30.66) rotate(-62.9)" style="fill: #069dd0;"/>
            <path d="m25.36,13.87h.68c.12,0,.21.09.21.21v.43c0,.12-.09.21-.21.21h-.69c-.11,0-.21-.09-.21-.21v-.44c0-.12.09-.21.21-.21Z" transform="translate(1.2 30.57) rotate(-62.67)" style="fill: #e1edf4;"/>
            <path d="m26.22,13.98c-.14.12-.67.51-1.07.45-.04.1,0,.21.1.26l.38.2c.1.05.23.01.28-.09l.32-.61c.03-.07.03-.15-.02-.21Z" style="fill: #cae2f2;"/>
            <path d="m25.96,13.84l-.61.29s.45-.2.61-.29Z" style="fill: #fff;"/>
            <path d="m26.18,14.17l-.58.35s.5-.29.58-.35Z" style="fill: #fff;"/>
            <path d="m25.75,14.22l-.52.29s.44-.22.52-.29Z" style="fill: #fff;"/>
          </g>
          <g>
            <path d="m27.45,15.67c-.06.12-.21.17-.33.11l-.45-.23c-.12-.06-.17-.21-.1-.33l.36-.71c.06-.12.21-.17.33-.11l.45.23c.12.06.17.21.11.33l-.36.71Z" style="fill: #b2b2b2;"/>
            <path d="m27.43,15.63c-.06.12-.21.17-.33.11l-.45-.23c-.12-.06-.17-.21-.11-.33l.36-.71c.06-.12.21-.17.33-.11l.45.23c.12.06.17.21.11.33l-.36.71Z" style="fill: #069dd0;"/>
            <path d="m27.4,15.55c-.05.1-.18.14-.28.09l-.38-.19c-.1-.05-.15-.18-.09-.28l.31-.61c.05-.1.18-.14.28-.09l.39.2c.1.05.14.18.09.29l-.31.61Z" style="fill: #e1edf4;"/>
            <path d="m27.7,14.73c-.15.12-.67.51-1.07.45-.04.1,0,.21.1.26l.38.19c.1.05.23.01.28-.09l.31-.61c.04-.07.03-.15,0-.21Z" style="fill: #cae2f2;"/>
            <path d="m27.43,14.59l-.61.29s.45-.2.61-.29Z" style="fill: #fff;"/>
            <path d="m27.65,14.93l-.58.35s.5-.29.58-.35Z" style="fill: #fff;"/>
            <path d="m27.23,14.98l-.52.28s.43-.22.52-.28Z" style="fill: #fff;"/>
          </g>
          <g>
            <path d="m28.92,16.42c-.06.12-.21.17-.33.11l-.44-.23c-.12-.06-.17-.21-.11-.33l.36-.71c.06-.12.21-.17.33-.11l.45.23c.12.06.17.21.11.33l-.37.71Z" style="fill: #b2b2b2;"/>
            <path d="m28.91,16.38c-.06.12-.21.17-.33.11l-.45-.23c-.12-.06-.17-.21-.1-.33l.36-.71c.06-.12.21-.17.33-.11l.45.23c.12.06.17.21.11.33l-.36.71Z" style="fill: #069dd0;"/>
            <path d="m28.87,16.3c-.06.11-.18.14-.29.09l-.38-.2c-.1-.05-.14-.18-.09-.28l.31-.61c.05-.1.18-.15.28-.09l.38.2c.1.05.14.18.09.28l-.31.61Z" style="fill: #e1edf4;"/>
            <path d="m29.17,15.48c-.15.11-.67.51-1.07.45-.04.1,0,.22.1.26l.38.2c.11.05.23.01.29-.09l.31-.61c.04-.07.03-.15,0-.21Z" style="fill: #cae2f2;"/>
            <path d="m28.9,15.35l-.61.29s.45-.19.61-.29Z" style="fill: #fff;"/>
            <path d="m29.12,15.68l-.58.35s.5-.29.58-.35Z" style="fill: #fff;"/>
            <path d="m28.7,15.73l-.52.28s.43-.22.52-.28Z" style="fill: #fff;"/>
          </g>
          <g>
            <path d="m30.39,17.18c-.06.12-.21.17-.33.11l-.45-.23c-.12-.06-.17-.21-.11-.33l.36-.71c.06-.12.21-.17.33-.1l.45.23c.12.06.16.21.1.33l-.36.71Z" style="fill: #b2b2b2;"/>
            <path d="m29.72,16.06h.8c.13,0,.24.11.24.24v.51c0,.13-.11.24-.24.24h-.8c-.13,0-.24-.11-.24-.24v-.5c0-.14.11-.25.25-.25Z" transform="translate(1.67 35.84) rotate(-62.94)" style="fill: #069dd0;"/>
            <path d="m30.34,17.06c-.05.1-.18.14-.28.09l-.39-.2c-.1-.05-.14-.18-.09-.28l.31-.61c.05-.1.18-.14.28-.09l.38.2c.1.05.15.18.09.28l-.31.61Z" style="fill: #e1edf4;"/>
            <path d="m30.64,16.24c-.15.12-.67.51-1.07.45-.04.1,0,.22.1.26l.39.2c.1.05.23.01.28-.09l.31-.61c.04-.07.02-.15-.01-.21Z" style="fill: #cae2f2;"/>
            <path d="m30.37,16.1l-.61.29s.45-.2.61-.29Z" style="fill: #fff;"/>
            <path d="m30.59,16.44l-.57.35s.5-.29.57-.35Z" style="fill: #fff;"/>
            <path d="m30.17,16.49l-.52.28s.44-.22.52-.28Z" style="fill: #fff;"/>
          </g>
          <g>
            <path d="m31.86,17.93c-.06.12-.21.17-.33.11l-.45-.23c-.12-.06-.17-.21-.1-.33l.36-.71c.06-.12.21-.17.33-.11l.44.23c.12.06.17.21.11.33l-.36.71Z" style="fill: #b2b2b2;"/>
            <path d="m31.19,16.81h.8c.13,0,.24.11.24.24v.51c0,.14-.11.24-.24.24h-.8c-.13,0-.24-.11-.24-.24v-.5c0-.13.11-.24.24-.24Z" transform="translate(1.89 37.7) rotate(-63.19)" style="fill: #069dd0;"/>
            <path d="m31.82,17.81c-.05.1-.18.14-.28.09l-.38-.2c-.11-.05-.15-.18-.09-.28l.31-.61c.05-.1.18-.15.28-.09l.38.2c.11.05.14.18.09.28l-.31.61Z" style="fill: #e1edf4;"/>
            <path d="m32.11,16.99c-.14.11-.67.51-1.07.45-.04.1,0,.21.1.26l.38.2c.1.05.23.01.28-.09l.31-.61c.04-.07.03-.15-.01-.21Z" style="fill: #cae2f2;"/>
            <path d="m31.85,16.85l-.61.29s.45-.19.61-.29Z" style="fill: #fff;"/>
            <path d="m32.07,17.19l-.57.35s.5-.29.57-.35Z" style="fill: #fff;"/>
            <path d="m31.65,17.24l-.52.28s.43-.22.52-.28Z" style="fill: #fff;"/>
          </g>
          <g>
            <path d="m33.34,18.69c-.06.12-.21.17-.33.11l-.45-.23c-.12-.06-.17-.21-.11-.33l.37-.71c.06-.12.21-.17.33-.1l.45.23c.12.06.17.21.1.33l-.36.71Z" style="fill: #b2b2b2;"/>
            <path d="m32.66,17.57h.8c.14,0,.25.11.25.25v.5c0,.14-.11.25-.25.25h-.8c-.14,0-.25-.11-.25-.25v-.5c0-.14.11-.24.24-.24Z" transform="translate(1.97 39.33) rotate(-63.02)" style="fill: #069dd0;"/>
            <path d="m32.72,17.64h.69c.12,0,.21.09.21.21v.43c0,.12-.09.21-.21.21h-.68c-.12,0-.21-.1-.21-.21v-.43c0-.12.09-.21.21-.21Z" transform="translate(1.95 39.3) rotate(-62.97)" style="fill: #e1edf4;"/>
            <path d="m33.59,17.74c-.14.12-.67.51-1.07.45-.04.1,0,.21.1.26l.38.2c.1.05.23.01.28-.09l.32-.61c.03-.07.03-.15-.01-.21Z" style="fill: #cae2f2;"/>
            <path d="m33.32,17.6l-.61.3s.45-.19.61-.3Z" style="fill: #fff;"/>
            <path d="m33.54,17.94l-.57.35s.5-.29.57-.35Z" style="fill: #fff;"/>
            <path d="m33.11,17.99l-.52.29s.43-.22.52-.29Z" style="fill: #fff;"/>
          </g>
          <g>
            <path d="m34.15,18.36h.79c.14,0,.25.11.25.25v.5c0,.14-.11.25-.25.25h-.79c-.14,0-.25-.11-.25-.25v-.5c0-.14.11-.25.25-.25Z" transform="translate(2.07 41.09) rotate(-63.02)" style="fill: #b2b2b2;"/>
            <path d="m34.8,19.4c-.06.12-.21.17-.33.11l-.45-.23c-.12-.06-.17-.21-.11-.33l.36-.71c.06-.12.21-.17.33-.11l.45.23c.12.06.17.21.1.33l-.36.71Z" style="fill: #069dd0;"/>
            <path d="m34.76,19.31c-.05.1-.18.15-.28.09l-.39-.2c-.1-.05-.14-.18-.09-.28l.31-.61c.05-.1.18-.15.28-.09l.38.2c.1.05.14.18.09.28l-.31.61Z" style="fill: #e1edf4;"/>
            <path d="m35.06,18.5c-.15.11-.68.51-1.07.45-.04.1,0,.21.1.26l.39.2c.1.05.23.01.28-.09l.31-.61c.03-.07.03-.15-.01-.21Z" style="fill: #cae2f2;"/>
            <path d="m34.79,18.36l-.61.29s.44-.2.61-.29Z" style="fill: #fff;"/>
            <path d="m35.01,18.69l-.57.35s.5-.29.57-.35Z" style="fill: #fff;"/>
            <path d="m34.59,18.74l-.52.28s.43-.22.52-.28Z" style="fill: #fff;"/>
          </g>
          <g>
            <path d="m36.28,20.19c-.06.12-.21.17-.33.11l-.44-.23c-.12-.06-.17-.21-.11-.33l.36-.71c.06-.12.21-.17.33-.1l.45.23c.12.06.17.21.11.33l-.36.71Z" style="fill: #b2b2b2;"/>
            <path d="m36.27,20.15c-.06.12-.21.17-.33.11l-.45-.23c-.12-.06-.17-.21-.1-.33l.36-.71c.06-.12.21-.17.33-.11l.45.23c.12.06.17.21.1.33l-.36.71Z" style="fill: #069dd0;"/>
            <path d="m36.23,20.07c-.06.1-.18.14-.29.09l-.39-.19c-.1-.05-.14-.18-.09-.28l.31-.61c.05-.1.18-.14.28-.09l.38.2c.1.05.15.18.09.28l-.31.61Z" style="fill: #e1edf4;"/>
            <path d="m36.53,19.25c-.15.12-.67.51-1.07.45-.04.1,0,.22.1.27l.39.19c.11.05.23.01.29-.09l.31-.61c.04-.07.03-.15,0-.21Z" style="fill: #cae2f2;"/>
            <path d="m36.27,19.11l-.61.29s.45-.19.61-.29Z" style="fill: #fff;"/>
            <path d="m36.48,19.45l-.57.35s.5-.29.57-.35Z" style="fill: #fff;"/>
            <path d="m36.06,19.5l-.52.28s.43-.22.52-.28Z" style="fill: #fff;"/>
          </g>
          <g>
            <path d="m37.75,20.95c-.06.12-.21.17-.33.1l-.45-.23c-.12-.06-.17-.21-.1-.33l.36-.71c.06-.12.21-.17.33-.11l.45.23c.12.06.16.21.1.33l-.36.71Z" style="fill: #b2b2b2;"/>
            <path d="m37.74,20.9c-.06.12-.21.17-.33.11l-.45-.23c-.12-.06-.17-.21-.11-.33l.36-.71c.06-.12.21-.17.33-.11l.45.23c.12.06.17.21.11.33l-.36.71Z" style="fill: #069dd0;"/>
            <path d="m37.7,20.82c-.05.1-.18.14-.28.09l-.38-.2c-.11-.05-.15-.18-.09-.28l.31-.61c.05-.1.18-.14.28-.09l.38.2c.1.05.14.18.09.28l-.31.61Z" style="fill: #e1edf4;"/>
            <path d="m38,20.01c-.14.11-.67.51-1.07.45-.04.1,0,.21.1.26l.38.2c.1.05.23.01.28-.09l.31-.61c.03-.07.03-.15-.01-.21Z" style="fill: #cae2f2;"/>
            <path d="m37.74,19.87l-.61.29s.44-.2.61-.29Z" style="fill: #fff;"/>
            <path d="m37.96,20.2l-.58.35s.51-.29.58-.35Z" style="fill: #fff;"/>
            <path d="m37.53,20.25l-.52.28s.43-.22.52-.28Z" style="fill: #fff;"/>
          </g>
          <g>
            <path d="m38.57,20.62h.79c.14,0,.25.11.25.25v.5c0,.14-.11.25-.25.25h-.79c-.14,0-.25-.11-.25-.25v-.5c0-.14.11-.25.25-.25Z" transform="translate(2.29 46.01) rotate(-62.62)" style="fill: #b2b2b2;"/>
            <path d="m38.56,20.58h.79c.14,0,.25.11.25.25v.5c0,.13-.11.24-.24.24h-.8c-.13,0-.24-.11-.24-.24v-.5c0-.14.11-.25.25-.25Z" transform="translate(2.46 46.17) rotate(-62.93)" style="fill: #069dd0;"/>
            <path d="m39.18,21.58c-.05.1-.18.14-.28.09l-.39-.2c-.1-.05-.14-.18-.09-.28l.31-.61c.05-.1.18-.14.28-.09l.38.2c.1.05.15.18.09.28l-.31.61Z" style="fill: #e1edf4;"/>
            <path d="m39.48,20.76c-.14.12-.67.51-1.07.45-.04.1,0,.21.1.27l.39.2c.1.05.23.01.28-.09l.31-.61c.04-.07.03-.15-.01-.21Z" style="fill: #cae2f2;"/>
            <path d="m39.21,20.62l-.61.29s.45-.19.61-.29Z" style="fill: #fff;"/>
            <path d="m39.43,20.95l-.58.35s.5-.29.58-.35Z" style="fill: #fff;"/>
            <path d="m39.01,21l-.52.29s.43-.22.52-.29Z" style="fill: #fff;"/>
          </g>
        </g>
      </g>
      <g>
        <g>
          <g>
            <path d="m28.69,22.98c-.4-.62-1.86-1.71-2.09-1.88,0,0-.02-.02-.03-.02-.23-.14-.66.24-.97.85-.3.61-.36,1.22-.13,1.36,1.07.81,2.6.94,2.6.94.13.08.37-.14.54-.48.17-.34.2-.69.07-.76Z" style="fill: #dbdbdb;"/>
            <path d="m25.72,21.72l2.97,1.89c.04-.11.07-.21.08-.3l-2.55-2.16c-.16.11-.34.31-.5.58Z" style="fill: #efefef;"/>
            <path d="m28.38,24.09c-.86-.02-2.51-.93-3.05-1.24-.01.21.03.37.14.43,1.07.81,2.6.94,2.6.94.07.05.19,0,.3-.13Z" style="fill: #b7b7b7;"/>
            <path d="m26.69,21.16c-.2.1-1.12.64-1.17,2.15.1.08.21.15.32.21.01-.41.13-1.53,1.13-2.14-.12-.09-.21-.17-.28-.22Zm1.94,1.73c-.05-.07-.12-.15-.2-.24.11.92-.43,1.38-.67,1.53.1.02.18.03.23.03.64-.49.67-1.06.64-1.32Z" style="fill: #069dd0;"/>
            <path d="m27.95,24.03c-.07.06-.14.11-.19.15h0s.07.01.1.02h0s.02,0,.03,0h0s.01,0,.02,0h0s.01,0,.02,0h0s.01,0,.02,0h0s.01,0,.02,0c0,0,0,0,0,0,.06-.05.11-.09.16-.14-.07-.01-.14-.02-.2-.04Zm-2.41-1.06c-.01.11-.02.22-.03.34h0s.02.02.03.02c0,0,0,0,.01,0,.01,0,.02.02.03.02,0,0,0,0,.01,0,.02.02.04.03.07.05h0s.01.01.02.02c0,0,.01,0,.02.02,0,0,.01,0,.02.01,0,0,.02.01.03.02,0,0,.01,0,.02.01.01,0,.03.02.05.03,0-.09,0-.22.03-.37-.12-.06-.23-.13-.33-.18Z" style="fill: #027ebb;"/>
            <path d="m28.63,23.19l-.19-.16c-.01.14-.04.27-.08.38l.18.11c.05-.12.08-.23.09-.33Zm-2.69-1.33l.33.21c.12-.18.26-.35.45-.51l-.29-.24c-.15.11-.33.28-.49.53Z" style="fill: #69bce9;"/>
          </g>
          <path d="m27.33,21.3s.04.29-.22.19c0,0,.63.52.89.74,0,0,.14-.38.36-.29l-1.03-.64Z" style="fill: #dbdbdb;"/>
        </g>
        <path d="m28.43,22.65s-.37-.39-.42-.41c0,0,.1-.28.25-.29l-.86-.55s.51.44.7.54c0,0-.15.2-.13.31,0,0,.42.34.46.42h0Z" style="fill: #8c8c8c;"/>
      </g>
      <path d="m12.5,8.69s.39,1.08-.83,2.48c0,0,1.04-1.7.83-2.48Z" style="fill: #69bce9;"/>
      <g>
        <path d="m35.01,22.29l-9.73-4.51c-.16-.08-.32-.05-.35.07l-.02.08c-.03.11,5.41,13.17,10.81,15.11.16.08-.51-10.21-.48-10.32l.02-.08c.03-.11-.08-.27-.24-.34Z" style="fill: #fff;"/>
        <path d="m35.56,32.17c-4.67-1.68-9.37-11.67-10.53-14.41-.05.02-.09.05-.1.1l-.02.08c-.03.11,5.41,13.17,10.81,15.11.16.08-.51-10.21-.48-10.32l.02-.08c.02-.09-.04-.2-.15-.28.11,2.08.6,9.88.46,9.81Z" style="fill: #ebebeb;"/>
        <path d="m35.16,22.81s.06-.05.07-.08l.02-.08c.03-.11-.08-.27-.24-.34l-9.73-4.51c-.15-.07-.28-.05-.33.03.14.01.35.07.67.22l9.1,4.27s.42.18.45.51Z" style="fill: #c9c9c9;"/>
        <path d="m35.21,27.1s.62-4.23-10.03-9.19c0,0,6.56,3.03,9.25,4.38.23.12.43.25.6.35l.17,4.45Z" style="fill: #c9c9c9;"/>
      </g>
    </g>
  </g>
</svg>