<?xml version="1.0" encoding="UTF-8"?>
<svg id="Layer_1" data-name="Layer 1" xmlns="http://www.w3.org/2000/svg" xmlns:xlink="http://www.w3.org/1999/xlink" viewBox="0 0 14.99 17.24">
  <defs>
    <style>
      .cls-1 {
        fill: url(#linear-gradient);
      }

      .cls-2 {
        fill: #fff;
      }

      .cls-3 {
        fill: #efefef;
      }

      .cls-4 {
        fill: url(#radial-gradient-3);
      }

      .cls-5 {
        fill: url(#radial-gradient-2);
      }

      .cls-6 {
        fill: url(#radial-gradient);
      }
    </style>
    <linearGradient id="linear-gradient" x1="347.02" y1="1270.84" x2="346.92" y2="1290.58" gradientTransform="translate(-612.87 -1165.02) rotate(-12.71)" gradientUnits="userSpaceOnUse">
      <stop offset="0" stop-color="#fff"/>
      <stop offset=".29" stop-color="#fcfcfc"/>
      <stop offset=".47" stop-color="#f3f3f3"/>
      <stop offset=".63" stop-color="#e4e4e4"/>
      <stop offset=".77" stop-color="#cfcfcf"/>
      <stop offset=".9" stop-color="#b4b4b4"/>
      <stop offset="1" stop-color="#999"/>
    </linearGradient>
    <radialGradient id="radial-gradient" cx="346.98" cy="1281.44" fx="346.98" fy="1281.44" r="11.57" gradientTransform="translate(-612.87 -1165.02) rotate(-12.71)" gradientUnits="userSpaceOnUse">
      <stop offset="0" stop-color="#fff"/>
      <stop offset=".29" stop-color="#fcfcfc"/>
      <stop offset=".47" stop-color="#f3f3f3"/>
      <stop offset=".63" stop-color="#e4e4e4"/>
      <stop offset=".77" stop-color="#cfcfcf"/>
      <stop offset=".9" stop-color="#b4b4b4"/>
      <stop offset="1" stop-color="#999"/>
    </radialGradient>
    <radialGradient id="radial-gradient-2" cx="355.12" cy="1271.72" fx="355.12" fy="1271.72" r="16.52" gradientTransform="translate(-612.87 -1165.02) rotate(-12.71)" gradientUnits="userSpaceOnUse">
      <stop offset="0" stop-color="#404040"/>
      <stop offset=".22" stop-color="#2f2f2f"/>
      <stop offset=".72" stop-color="#0d0d0d"/>
      <stop offset="1" stop-color="#000"/>
    </radialGradient>
    <radialGradient id="radial-gradient-3" cx="350.84" cy="1273.75" fx="350.84" fy="1273.75" r="19.94" gradientTransform="translate(-612.87 -1165.02) rotate(-12.71)" gradientUnits="userSpaceOnUse">
      <stop offset="0" stop-color="#000"/>
      <stop offset=".56" stop-color="#161616"/>
      <stop offset="1" stop-color="#242424"/>
    </radialGradient>
  </defs>
  <path class="cls-1" d="m3.69,17.23c-.26.06-.52-.12-.58-.4L.01,3.08c-.06-.28.09-.55.35-.61L11.3.01c.26-.06.52.12.58.4l3.1,13.75c.06.28-.1.55-.35.61l-10.93,2.47Z"/>
  <path class="cls-2" d="m14.94,14.22c.05.23-.08.45-.28.49l-11.02,2.48c-.21.05-.42-.1-.47-.32L.05,3.02c-.05-.22.08-.44.28-.49L11.35.04c.21-.05.42.1.47.32l3.12,13.85Z"/>
  <path class="cls-6" d="m3.63,17.15c-.18.04-.36-.09-.41-.29L.1,3.01c-.04-.2.07-.39.25-.43L11.36.09c.18-.04.36.09.41.28l3.12,13.85c.04.2-.07.39-.25.43l-11.02,2.49Z"/>
  <path class="cls-2" d="m3.18,13.78c-.27.06-.54-.09-.6-.33L.28,3.26c-.06-.25.12-.5.4-.56L11.11.35c.27-.06.54.09.6.33l2.3,10.18c.06.25-.12.5-.4.56l-10.43,2.35Z"/>
  <path d="m3.17,13.73c-.25.06-.49-.08-.54-.3L.33,3.25c-.05-.22.11-.45.36-.5L11.12.4c.25-.06.49.08.54.3l2.3,10.18c.05.22-.11.45-.36.5l-10.43,2.35Z"/>
  <path class="cls-5" d="m13.86,10.9c.04.16-.09.33-.29.38l-10.43,2.35c-.2.04-.39-.05-.42-.22L.42,3.23c-.04-.16.09-.33.29-.38L11.14.5c.2-.04.39.05.42.22l2.3,10.18Z"/>
  <path class="cls-4" d="m7.78,8.79c1.98-.02,3.79-.49,5.25-1.24l-1.52-6.73c-.04-.16-.22-.26-.42-.21L.8,2.91c-.19.04-.32.21-.28.37l.83,3.7c1.6,1.13,3.89,1.83,6.42,1.8Z"/>
  <path class="cls-2" d="m14.08,11.53s-1.68.46-3.79.94c-2.1.47-3.81.82-3.82.78-.01-.04,1.69-.46,3.79-.94,2.1-.47,3.81-.82,3.82-.78Z"/>
  <path class="cls-3" d="m13.4,14.79l1.39-.31-.37-1.66c.11,1.1.13,1.43-1.01,1.98Z"/>
</svg>