<?xml version="1.0" encoding="UTF-8"?>
<svg xmlns="http://www.w3.org/2000/svg" width="300" height="250" xmlns:xlink="http://www.w3.org/1999/xlink" viewBox="0 0 300 250">
  <defs>
    <linearGradient id="linear-gradient" x1="150" y1="249.94" x2="150" y2="211.75" gradientUnits="userSpaceOnUse">
      <stop offset="0" stop-color="#bfe6e0"/>
      <stop offset=".8" stop-color="#38add6"/>
      <stop offset="1" stop-color="#3891d6"/>
    </linearGradient>
    <linearGradient id="linear-gradient-2" x1="150" y1="226.62" x2="150" y2="268.97" gradientUnits="userSpaceOnUse">
      <stop offset="0" stop-color="#f7f6e5"/>
      <stop offset="1" stop-color="#f8ebcf"/>
    </linearGradient>
  </defs>
  <g id="Sand">
    <rect width="300" height="249.94" style="fill: none;"/>
    <polyline points="0 211.75 300 211.75 300 249.94 0 249.94" style="fill: url(#linear-gradient);"/>
    <polyline points="0 227.61 300 227.61 300 249.94 0 249.94" style="fill: url(#linear-gradient-2);"/>
  </g>
  <g id="Sunshade_2" data-name="Sunshade 2">
    <path d="m256.19,208.69l-1.58,3.23s-1.24,0-1.5.87c-.25.86-.15.99-1.31.83-1.17-.16-3.04-1.1-4.2-1.26-1.17-.16-3.05-.27-4.22-.37-1.17-.1-1.52-.84-1.81-2.23-.29-1.38.86-1.76.86-1.76l13.77.68Z" style="fill: #0063aa; fill-rule: evenodd;"/>
    <path d="m271.94,206.3l.3,7.35s.98.32,1.04.92c.07.6-.19,1.52,1.06,1.33,1.26-.18,3.69-.32,5.16-.25,1.47.07,2.97.56,4.71.83,1.75.27,2.04.3,2.52-.37.47-.67.86-1.7,1.71-1.98l-4.45-7.19-12.06-.65Z" style="fill: #008547; fill-rule: evenodd;"/>
    <path d="m271.94,206.3l-13.95-2.06-3.4,7.68c.76.13.95.62,1.18,1.4.23.79,1.63.97,2.81.96,1.18-.01,4.75.42,5.75.51,1,.09,4.08.66,4.83.84.75.18,1.44-.23,1.64-1.16.2-.93,1.43-.82,1.43-.82l-.3-7.35Z" style="fill: #b32e20; fill-rule: evenodd;"/>
    <path d="m285.01,208.93l3.12,5.48s.76.13.55,1.76c0,0,2.28-1.35,6.99-1.05l-2.96-4.39s-4.57-3.18-7.7-1.8Z" style="fill: #ffbf00; fill-rule: evenodd;"/>
    <path d="m240.72,205.91s.3,1.21-.14,1.72c-.44.51-.3,1.63.23,1.83.36.14.6.26.75.54.08.14,0,.57.17.56.26-.02.74-4.35-1.03-4.66h.01Z" style="fill: #008547; fill-rule: evenodd;"/>
    <rect x="267.86" y="208.03" width=".82" height="34.97" style="fill: #fff;"/>
    <path d="m266.19,195.75s-1.86.37-2.99.39c-1.12.02-4.63-.41-7.61.45-2.97.86-5.89,2.44-9.19,4.98-3.3,2.55-5.7,4.34-5.7,4.34,0,0,.63.17.62,1-.01.83.04,2.25,1.39,2.37,1.35.12,4.56-.07,6.73.06,2.18.13,4.33.44,6.44.74,2.1.3,2.57.4,2.73-.76.16-1.17.25-2.81,2.14-2.82,1.89-.01,1.76-.5,1.76-.5l4.23-9.73-.55-.52Z" style="fill: #ffed2c; fill-rule: evenodd;"/>
    <path d="m279.84,198.54s3.38,1.24,4.89,2.2c1.51.96,4.7,3.66,6.92,5.99,2.22,2.32,5.35,6.32,5.35,6.32,0,0-.06,2.71-2.3,1.98-2.24-.73-4.94-1.62-5.52-1.79-.58-.17-1.37-.53-1.15-1.76.23-1.22.71-1.3-.01-1.89-.72-.59-2.01-1.36-2.01-1.36l-7.48-9.64,1.31-.06Z" style="fill: #0074c1; fill-rule: evenodd;"/>
    <path d="m288.02,209.61s-.76-.72-2.41,1.21c-1.65,1.92-3.3,1.25-3.54,1.22-.23-.02-5.55-.73-7.6-.96-2.05-.24-7.09-.68-9.04-.68-1.95,0-3.56.16-3.35-1.54.21-1.7-.28-2.21-1.33-2.36,0,0,2.55-5.51,3.51-7.61q.95-2.1,1.68-2.93c.72-.82,3.82.28,5.12.27,1.3,0,3.24.17,3.82.22.59.05,3.65.79,4.96,2.09,1.3,1.3,3.69,4.46,4.92,5.93,1.23,1.47,3.27,5.13,3.27,5.13Z" style="fill: #ff3d28; fill-rule: evenodd;"/>
    <path d="m275.97,244.52c0,.87-3.45,1.58-7.71,1.58s-7.71-.71-7.71-1.58,3.45-1.58,7.71-1.58,7.71.71,7.71,1.58Z" style="fill: #cdced1; fill-rule: evenodd;"/>
    <rect x="267.57" y="240.77" width="1.38" height="2.96" style="fill: #b2b2b2;"/>
  </g>
  <g id="Sunshade_1" data-name="Sunshade 1">
    <path d="m38.78,209.06l2.29,2.63s1.16-.3,1.62.44c.45.75.39.89,1.44.45,1.05-.44,2.57-1.78,3.62-2.23,1.05-.44,2.79-1.01,3.86-1.4,1.07-.39,1.21-1.17,1.14-2.54-.07-1.37-1.25-1.43-1.25-1.43l-12.72,4.08Z" style="fill: #0063aa; fill-rule: evenodd;"/>
    <path d="m23.43,210.75l1.56,6.96s-.83.55-.75,1.12c.09.57.56,1.37-.66,1.52-1.22.14-3.54.62-4.9,1.05-1.36.43-2.64,1.26-4.21,1.95-1.57.69-1.84.79-2.45.28-.61-.51-1.23-1.37-2.1-1.42l2.37-7.84,11.13-3.62Z" style="fill: #008547; fill-rule: evenodd;"/>
    <path d="m23.43,210.75l12.54-5.41,5.1,6.34c-.68.31-.74.81-.75,1.61-.01.79-1.28,1.32-2.39,1.6-1.11.28-4.34,1.58-5.25,1.91-.91.33-3.65,1.63-4.31,1.99-.66.36-1.4.15-1.82-.67-.42-.82-1.54-.41-1.54-.41l-1.56-6.96Z" style="fill: #b32e20; fill-rule: evenodd;"/>
    <path d="m11.86,216.48l-1.55,5.9s-.68.31-.08,1.79c0,0-2.47-.69-6.8.76l1.67-4.84s3.48-4.12,6.76-3.61Z" style="fill: #ffbf00; fill-rule: evenodd;"/>
    <path d="m52.57,202.59s.02,1.21.56,1.58c.54.37.69,1.45.24,1.77-.28.2-.64.44-.6.73.02.16.19.52,0,.6-.16.07-1.77-3.95-.2-4.69h0Z" style="fill: #008547; fill-rule: evenodd;"/>
    <rect x="26.32" y="211.75" width=".79" height="38.25" style="fill: #fff;"/>
    <path d="m26.17,199.44s1.84-.12,2.89-.39c1.06-.26,4.23-1.54,7.23-1.48,3,.06,6.12.81,9.84,2.37,3.72,1.56,6.42,2.64,6.42,2.64,0,0-.55.32-.33,1.09.22.77.53,2.11-.71,2.56-1.23.45-4.28,1.07-6.29,1.74-2,.67-3.95,1.5-5.84,2.3-1.89.81-2.3,1.02-2.74-.03-.44-1.05-.94-2.57-2.71-2.11-1.77.46-1.77-.02-1.77-.02l-6.39-8.05.38-.62Z" style="fill: #ffed2c; fill-rule: evenodd;"/>
    <path d="m14.1,205.47s-2.85,2.01-4.03,3.28c-1.17,1.28-3.48,4.6-4.98,7.33-1.5,2.73-3.43,7.25-3.43,7.25,0,0,.74,2.52,2.65,1.28,1.92-1.24,4.22-2.75,4.72-3.05.5-.3,1.15-.84.63-1.93-.52-1.09-.98-1.04-.46-1.77.52-.74,1.54-1.77,1.54-1.77l4.6-10.89-1.24.27Z" style="fill: #0074c1; fill-rule: evenodd;"/>
    <path d="m9.15,217.87s.56-.87,2.62.53c2.06,1.4,3.48.35,3.7.27.22-.08,5.17-2.08,7.08-2.83,1.91-.74,6.66-2.43,8.54-2.92,1.88-.49,3.47-.75,2.85-2.3-.62-1.55-.27-2.16.7-2.57,0,0-3.8-4.57-5.24-6.32q-1.43-1.75-2.33-2.35c-.9-.6-3.61,1.22-4.86,1.55-1.25.32-3.07.97-3.63,1.17-.55.2-3.32,1.67-4.26,3.23-.94,1.56-2.46,5.15-3.28,6.85-.83,1.7-1.89,5.68-1.89,5.68Z" style="fill: #ff3d28; fill-rule: evenodd;"/>
  </g>
  <g id="layer_1" data-name="layer 1">
    <g>
      <path d="m135.73,188.67s-5.92,16.69,0,25.31h-17.57l17.57-25.31Z" style="fill: #008547;"/>
      <path d="m136.73,185.41s5.59,24.73,0,30.32h14.13l-14.13-30.32Z" style="fill: #008547;"/>
      <rect x="135.28" y="183.41" width="1.89" height="35.01" rx=".9" ry=".9" transform="translate(272.46 401.82) rotate(180)" style="fill: #ffed2c;"/>
      <polygon points="117.19 217.13 121.54 224.42 148.98 224.42 152.42 217.13 117.19 217.13" style="fill: #ff3d28;"/>
    </g>
  </g>
</svg>