<?xml version="1.0" encoding="UTF-8"?>
<svg id="Layer_1" data-name="Layer 1" xmlns="http://www.w3.org/2000/svg" width="132.48" height="19.58" viewBox="0 0 132.48 19.58">
  <path d="m10.44,15.5h-.44c-1.15,0-1.85-1.04-2.12-3.11-.26-2.08-.8-3.3-1.6-3.69-1.62,1.03-1.98,1.34-2.42,2.42-.6,1.46-.57,3-.74,4.1,0,0-.05.12-.13.19-.07.07-.16.11-.56.24-.41.12-.26.15-.68.15s-.64-.4-.76-.6c-.15-.24-.18-.49-.28-.87-.27-.88-.45-2.62-.54-5.24-.06-1.78-.22-.76-.17-3.58.05-2.81,0-2.52.06-3.87.02-.36.08-.64.19-.83.11-.19.25-.29.44-.29.8,0,1.43-.12,1.77,1.88.24,1.42.4,2.46.45,3.69.05,1.27.07.25,0,1.63.55-.78,1.05-1.39,1.51-1.83.74-.73,1.4-.63,2.02-.63,1.38,0,2.45,1.41,3.21,4.23.6,2.22.86,4.22.78,6.01" style="fill: #fff;"/>
  <path d="m21.56,9.13c0-.54-.25-.99-.76-1.34-.51-.35-1.05-.52-1.62-.52-1.17,0-2.35.52-3.55,1.55-1.2,1.04-1.8,2.12-1.8,3.26,0,.46.17.78.51.97.34.19.75.28,1.24.28,1.01,0,2.23-.44,3.65-1.33,1.56-.97,2.33-1.93,2.33-2.88m2.31-.2c0,1.81-1.16,3.47-3.48,4.96-2.1,1.34-4.13,2.01-6.09,2.01-1.05,0-1.78-.27-2.19-.81-.42-.54-.62-1.36-.62-2.44,0-1.37.34-2.66,1.03-3.86.68-1.2,1.62-2.2,2.8-3,.42-.36.74-.62.96-.79.41-.32.79-.48,1.14-.48,1.49,0,2.88.36,4.16,1.09,1.52.86,2.28,1.98,2.28,3.33" style="fill: #fff;"/>
  <path d="m27.58,16l-.65.05c-.26,0-.5-.04-.72-.1-.22-.07-.39-.19-.49-.36-.02-.07-.1-1.13-.26-3.18-.21-2.88-.35-2.2-.41-3.24-.14-2.12-.21-2.9-.21-3.21V1.32c0-.31.03-.58.09-.8.06-.23.19-.37.4-.44.5.19.88.49,1.14.91.21.34.36.82.47,1.42.1.6.17,1.25.21,1.94.03.69.05,1.44.05,2.25v-.1,2.2c0,1.11.06.12.19,2.33.13,2.21.19,3.87.19,4.97" style="fill: #fff;"/>
  <path d="m32.51,9.97c0,1.21-.03,2.24-.09,3.1-.06.85-.19,1.76-.4,2.71-.83-.1-1.39-.43-1.68-.99-.05-.1-.23-.77-.54-1.99-.07-.28-.12-.6-.15-.97-.04-.37-.05-.74-.05-1.1,0-.45.04-1.13.1-2.05.07-.92.1-1.61.1-2.07.17,0,.48-.08.91-.23.24-.09.41-.13.52-.13.22,0,.5.36.82,1.08s.48,1.22.48,1.52v1.14Zm-1.4-7.87c0,.28-.07.52-.21.74-.14.22-.35.32-.62.32-.36,0-.67-.23-.92-.69-.25-.46-.38-.9-.38-1.33,0-.28.06-.53.18-.78.12-.24.31-.36.57-.36.36,0,.68.25.96.74.28.49.41.94.41,1.36" style="fill: #fff;"/>
  <path d="m41.44,9.55c0-.36-.11-.67-.32-.92-.21-.25-.49-.37-.84-.37-.78,0-1.55.46-2.31,1.37-.76.91-1.14,1.77-1.14,2.56,0,.34.09.65.28.91.19.26.46.39.8.39.62,0,1.36-.5,2.23-1.5.86-1,1.29-1.81,1.29-2.43m2.72-6.01c0,1.92,0,1.71-.03,2.9-.07,4.75-.1,7.36-.1,7.82-.1-.02-.41-.06-.9-.14-.5-.08-.88-.12-1.14-.12-.76.5-1.49.94-2.19,1.32-.7.38-1.45.57-2.27.57-.98,0-1.83-.4-2.54-1.19-.71-.79-1.06-1.69-1.06-2.69,0-1.21.53-2.49,1.58-3.86,1.12-1.45,2.27-2.17,3.44-2.17.36,0,.68.03.94.08.27.05.65.15,1.15.29.1-.35.19-.67.25-2.74.06-2.06.39-2.54,1-3.17.66.26,1.13.65,1.43,1.18.29.53.44,1.17.44,1.93" style="fill: #fff;"/>
  <path d="m51.98,6.55c0-.1,0-.23-.01-.38,0-.15-.04-.34-.09-.58-.15,0-.36.08-.61.23-.25.15-.46.32-.64.49-.38.4-.93,1.32-1.66,2.77-.73,1.45-1.09,2.43-1.09,2.93v.28c1.21-.28,2.19-.98,2.95-2.12.76-1.14,1.14-2.35,1.14-3.63m2.93,6.38c0,.59-.04,1.13-.12,1.62-.08.49-.21.97-.4,1.43-.66-.17-1.18-.51-1.58-1.03-.16-.19-.47-.75-.93-1.67-.07.17-.69.64-1.86,1.41-1.17.77-1.88,1.15-2.12,1.15-.92,0-1.58-.3-2.01-.91-.42-.6-.63-1.38-.63-2.33,0-1.35.74-3.24,2.23-5.67,1.57-2.57,2.91-3.86,4.01-3.86s2.02.82,2.58,2.46c.56,1.64.84,4.1.84,7.39" style="fill: #fff;"/>
  <path d="m65.75,5.9c0,.52-.56,2.29-1.68,5.31-.98,2.64-.24,1.27-1.49,4.28-1.25,3.01-1.17,2.61-1.55,3.23-.17.28-.37.49-.59.64-.23.15-.49.22-.8.22-.4,0-.74-.09-1.04-.26-.29-.17-.44-.45-.44-.83,0-.52.36-1.28.65-1.89.29-.61.48-.8.78-1.44.3-.64.28-.73.28-1.44,0-1-.65-2.08-1.41-3.24-.71-.99-1.42-1.98-2.12-2.98-.78-1.21-1.17-2.33-1.17-3.37,1.43.24,2.78,1.45,4.04,3.62.81,1.42,1.46,2.36,1.94,2.82.5-1.12.95-2.31,1.35-3.57.34-1.09.68-2.31,1.01-3.68l.39-.26c.6.12,1.08.48,1.42,1.06.29.5.44,1.09.44,1.76" style="fill: #fff;"/>
  <path d="m74.59,8.65c0-.41-.26-.76-.79-1.02-.53-.27-1.02-.4-1.49-.4-.59,0-1.15.19-1.68.57-.31.23-.74.64-1.29,1.24.78.19,1.67.28,2.65.28.4,0,.83-.02,1.29-.08.46-.05.9-.12,1.32-.21v-.39h0Zm3.65,4.48c0,.88-.78,1.62-2.33,2.23-1.26.48-2.43.72-3.5.72-1.73,0-3.14-.37-4.25-1.12-1.29-.88-1.94-2.15-1.94-3.79s.66-3.01,1.98-4.3c1.32-1.29,2.78-1.93,4.39-1.93,1.05,0,2.04.4,2.98,1.19.93.8,1.4,1.71,1.4,2.75,0,1.21-1.69,2-5.08,2.36-1.92.16-3.1.25-3.55.29v.49c0,.45.4.84,1.19,1.17.68.28,1.28.42,1.81.42.67,0,1.51-.18,2.51-.54,1-.36,2.03-.74,3.08-1.14.31,0,.6.12.88.36.27.24.41.52.41.83" style="fill: #fddc06;"/>
  <path d="m88.53,14.58v1.14c-.75-.18-1.43-.58-2.07-1.21-1.56-1.53-2.91-2.34-3.09-2.41-.42.7-1.05,1.56-1.9,2.57-.42.49-.83.98-1.25,1.47-.13-.15-.32-.36-.57-.63-.47-.49-.71-.89-.71-1.19,0-.49.59-1.47,1.77-2.93.54-.67.82-1.28.82-1.83,0-.66-1.3-1.51-1.98-2.55-.68-1.04-1.02-1.72-1.02-2.04,0-.28.06-.54.16-.77.11-.23.29-.39.54-.46.25.09.61.44,1.06,1.05,1.14,1.53,2.81,2.41,3.08,2.61.56-1.28.88-1.99.95-2.12.56-.97,1.15-1.45,1.77-1.45.25,0,.45.1.58.3.14.2.2.54.2,1.02,0,.76-.19,1.52-.58,2.29-.39.77-.79,1.54-1.21,2.31,0,.19,1.15,1.09,2.5,2.7.63.76.95,1.47.95,2.12" style="fill: #fddc06;"/>
  <path d="m100.05,5.37l-.18-.05-.16-.03c-.12.12-.18.24-.18.36,0,.09.04.22.13.39-.16.72-.96,1.11-2.41,1.15-1.45.04-2.41.35-2.88.92-.07.28-.1.59-.1.93v1.19c0,.36-.1,1.27-.3,2.71-.09.67-.14,1.21-.14,1.6,0,.5.08.98.23,1.45h-.52c-.64,0-1.11-.21-1.42-.62-.36-.48-.54-1.35-.54-2.61,0-.41.03-.9.08-1.47.12-1.31.18-2.13.18-2.45,0-1.05-.72-1.64-2.17-1.76-1.45-.12-2.18-.77-2.18-1.94v-.36c.02-.1.06-.32.13-.65.81.14,1.27.22,1.37.23.55.09,1.03.13,1.42.13.88,0,1.5-.26,1.87-.78.29-.43.36-.93.35-1.26,0-.33-.07-.6-.07-.64,0-.47.03-.44.1-.81.71.15,1.24.09,1.6.68.43.69.46.84.51,1.04.05.2.06.38.06.6,0,.09.02.2.08.33.05.13.09.21.1.25.19.1.39.17.6.21.21.03.46.05.73.05.17,0,.43,0,.77-.03.34-.02.58-.03.72-.03.57,0,1.02.09,1.35.27.34.18.62.51.84,1" style="fill: #fddc06;"/>
  <path d="m110.99,6.63c0,.17-.07.35-.21.52-.14.17-.3.26-.47.26-.1,0-.39-.08-.85-.23-.26-.09-.46-.13-.59-.13-1.12,0-2.3.77-3.52,2.31-.55.69-1.48,2.12-2.79,4.3-.93,1.55-1.6,2.33-1.99,2.33-.81,0-1.36-1.13-1.66-3.39-.16-1.49-.31-2.98-.47-4.48l-.83-3.24c.21-.07.43-.19.67-.37.24-.17.43-.31.57-.39.86.64,1.42,1.14,1.68,1.5.17.24.26.55.26.91,0,.47.02.83.06,1.08.04.25.2.66.48,1.23.79-.98,1.59-1.97,2.38-2.95.86-.86,2.04-1.29,3.52-1.29.86,0,1.63.13,2.31.39.96.38,1.45.93,1.45,1.66" style="fill: #fddc06;"/>
  <path d="m116.25,6.56c0-.1,0-.23-.01-.38,0-.15-.04-.34-.09-.58-.16,0-.36.08-.61.23-.25.15-.46.32-.64.49-.38.4-.93,1.32-1.66,2.77-.73,1.45-1.09,2.43-1.09,2.93v.28c1.21-.28,2.19-.98,2.95-2.12.76-1.14,1.14-2.35,1.14-3.63m2.93,6.38c0,.59-.04,1.13-.12,1.62-.08.49-.21.97-.4,1.43-.66-.17-1.18-.51-1.58-1.03-.16-.19-.47-.75-.93-1.67-.07.17-.69.64-1.86,1.41-1.17.77-1.88,1.15-2.12,1.15-.92,0-1.58-.3-2.01-.91-.42-.6-.63-1.38-.63-2.33,0-1.35.74-3.24,2.23-5.67,1.57-2.57,2.91-3.86,4.01-3.86s2.02.82,2.58,2.46c.56,1.64.84,4.1.84,7.39" style="fill: #fddc06;"/>
  <path d="m132.48,11.84c0,1.81-1.38,3.07-4.14,3.78-1.62.41-3.74.62-6.37.62-1.24,0-1.68-.08-2.2-.23-.98-.29-1.48-.91-1.48-1.86l.08-.85c.64,0,1.6.07,2.88.21,1.28.14,1.8.21,2.43.21,1.07,0,1.96-.1,2.67-.31.88-.26,1.64-.71,2.28-1.35l-.26-.23c-.33,0-.69-.06-1.09-.17-.4-.11-.78-.23-1.14-.35-1.66-.33-2.81-.8-3.45-1.42-.55-.53-.83-1.23-.83-2.1,0-1.14.6-2.11,1.81-2.93,1.07-.72,2.22-1.09,3.44-1.09.76,0,1.41.17,1.94.52.53.35.89.87,1.06,1.58-1.79.21-2.78.33-2.95.36-1.14.24-1.99.7-2.54,1.37,3.11.74,4.69,1.12,4.74,1.14,2.07.74,3.11,1.78,3.11,3.11" style="fill: #fddc06;"/>
</svg>