<?xml version="1.0" encoding="UTF-8"?>
<svg xmlns="http://www.w3.org/2000/svg" viewBox="0 0 300 250">
  <defs>
    <style>
      .cls-1 {
        fill: #fff;
      }

      .cls-2 {
        fill: #75ccef;
      }

      .cls-3 {
        fill: #4e9dc5;
      }

      .cls-4 {
        opacity: .35;
      }
    </style>
  </defs>
  <g id="Layer_1" data-name="Layer 1">
    <rect class="cls-3" width="300" height="250"/>
    <path class="cls-2" d="m0,134.24s10.17-26.99,106.15-26.99c85.82,0,71.09,19.28,121.97,19.28s71.88-25.8,71.88-25.8V0H.42"/>
  </g>
  <g id="New_Symbol_1" data-name="New Symbol 1">
    <g class="cls-4">
      <path class="cls-1" d="m54.07,2.63c-.82,1.65,0,3.87.75,5.37.08.15.16.3.25.45-1.16-.59-2.51-.71-3.77-1-1.18-.27-2.33-.25-3.3.55-.91.77-1.57,1.81-1.67,3.02-.1,1.24.51,2.25,1.16,3.26-.21.15-.42.31-.61.49-.46.41-.77,1.11-.45,1.57-1.49.79-2.66,2.16-1.85,3.94.36.81.9,1.53,1.52,2.2-1.65.47-2.81,2.17-2.5,3.89.19,1.02,1.02,1.86,1.85,2.38.57.35,1.28.44,1.91.63.64.19,1.25.41,1.91.5-2.24,1.65-4.28,4.56-2.82,7.16.66,1.18,2.43,1.44,3.62,1.52.86.06,1.69,0,2.51-.17-.24.49-.46.98-.63,1.5-.32,1.02-.06,2.12.61,2.91.85,1,1.81.97,2.76.56-.44.96-.7,1.84-.61,3.03.08,1.06.53,2.42,1.5,2.99.92.54,1.92.49,2.85.1-.88,1.37-1.21,2.8-1.19,4.57.02,1.89.67,3.77,2.24,4.88,1.5,1.05,3.57.46,4.9-.55,1.83-1.38,2.27-3.72,3.4-5.59,1.31-.24,2.75-1.28,3.45-2.04.31.25.65.44,1.04.57.31.1.63.13.96.1-.06.63.31,2.46.39,2.72.39,1.46,1.22,3.02,2.06,4.27.65.95,1.65,1.61,2.81,1.48,1.42-.16,2.04-1.37,2.58-2.47.05-.1.04-.2,0-.28.92.08,1.78-.24,2.31-1.17.69-1.22.66-2.61.39-3.94.53-.31.95-.76,1.27-1.29.61,1.81,2.07,3.66,3.89,3.87,1.27,2.42,4.25,3.84,6.5,1.79,1.73-1.57,1.49-4.08.81-6.23.83.97,1.79,1.81,3.02,2.32,1.22.5,2.67.51,3.52-.61,1.09-1.45.39-3.67-.4-5.06-1.1-1.95-3.06-3.39-4.89-4.61-.11-.07-.23-.05-.31.02-.14-.3-.29-.59-.44-.87,2.87,1.96,5.29,4.99,8.77,5.78,1.28.29,2.37-.05,3.16-1.03,1.15.58,2.56,1.11,3.77.44,1.13-.63,1.64-1.9,1.33-3.16-.37-1.49-1.38-2.54-2.68-3.3-.2-.12-.41-.22-.62-.3.06-.2-.09.18.35-.03.28-.13.48-.46.65-.7.57-.83.61-2.01.58-2.97-.03-.96-.09-1.93-.81-2.66-.6-.62-1.21-.87-1.92-1.09.35-.17.69-.35,1.02-.55,1.9.48,4.22.27,5.64-1.18.59-.61.77-1.75.54-2.54-.1-.34-.74-2.09-1.16-1.71.01-.01.02-.02.03-.03.24-.2.47-.42.69-.67.55-.64,1.39-1.66,1.06-2.59-.86-2.4-4.25-2.38-6.31-2.16-.27.03-.54.06-.81.1.07-.02.13-.08.14-.16.13-.73.16-1.38.14-2.13,0-.25-.05-.59-.22-.82,1.71-1.21,3.17-2.96,3.23-5.13.06-2.31-2.85-2.14-4.43-2.34.03-.14.06-.29.08-.45.16-1.18-.03-1.78-.65-2.73-.4-.6-1.25-.51-1.86-.5-.81.02-1.71.1-2.47.44-.02-.25-.08-.8-.06-.84.02-.04.02-.08.02-.11.85-1.6,1.21-3.24-.25-4.62-.65-.62-1.38-.63-2.23-.57-.39.02-.82.09-1.17.25-.38.18-.76.56-1.14.81.05-.07.11-.14.16-.21.35-.48.81-1.2,1-1.92h-.59c-.16.52-.43,1.03-.65,1.37-.84,1.3-2.12,2.38-3.21,3.47-2.18,2.17-3.65,4.9-5.56,7.29-1.96,2.47-3.86,4.82-5.26,7.67-.16-.12-.34-.21-.53-.24-.04-.08-.09-.14-.15-.18,1.83-2.96,3.2-6.14,4.42-9.39.64-1.71,1.2-3.46,1.73-5.21.16-.54.3-1.09.44-1.64.77-.7,1.3-1.61,2.01-2.37.25-.27.51-.53.78-.77h-.6c-.71.79-1.36,1.66-2.02,2.47.2-.83.42-1.66.69-2.47h-.53c-.28.96-.52,1.93-.78,2.89-1.55,5.69-3.59,11.38-6.71,16.41-.03.05-.04.1-.04.15-.05.03-.1.06-.15.08.09-.32.05-.68-.12-1-.03-.06-.07-.11-.1-.16.03-.06.03-.14-.01-.22-.49-.88-.29-1.86-.32-2.82-.02-.85-.31-1.68-.34-2.54-.02-.54.33-1.21.17-1.75-.18-.62-.02-1.44.07-2.06,0-.03,0-.06,0-.09.78-1.81,1.5-3.66,2.18-5.53.4-1.12.77-2.23,1.05-3.37h-.51c-.45,1.81-1.16,3.56-1.79,5.31-1.33,3.74-3.09,7.3-5.1,10.72-.34-.22-.77-.38-1.14-.32.2-4.1.59-8.17,1.37-12.21.23-1.19.53-2.36.91-3.5h-.52c-.14.44-.27.89-.39,1.34-1.25,4.69-1.7,9.72-1.77,14.57-.02.01-.03.03-.05.05-.02-.05-.05-.1-.08-.15-.24-.39-.66-.58-1.08-.58.03-.03.05-.07.07-.1.04-.06-.03-.12-.09-.11,0-.76.07-1.5.08-2.26,0-.51.11-.87.04-1.38-.05-.4-.15-.8-.25-1.19-.03-.13-.22-.07-.19.06.09.46.19.91.25,1.38.06.45-.07.92-.07,1.37,0,.71-.07,1.4-.06,2.11-.01,0-.01,0-.03-.01-.01,0-.02,0-.02.02.02.04.03.07.04.09v.03s0,.01,0,.02c-.14.02-.28.05-.41.11,0,0,0,0,0,0-.35,0-.6.2-.77.48-.01-1.07-.03-2.14-.06-3.21,0-.33.12-.63.1-.97-.02-.36-.1-.71-.14-1.07-.03-.33-.11-.63-.15-.96-.04-.28.09-.59.1-.88.02-.28-.12-.6-.15-.87-.02-.29-.01-.59-.02-.88,0-.36-.2-.83-.25-1.19-.06-.4-.1-.8-.15-1.19-.21-1.5-.58-2.97-.79-4.48-.02-.11-.19-.11-.18,0,.13,1.43.53,2.82.7,4.24.09.73.17,1.46.32,2.18.13.64.09,1.28.24,1.91.08.34-.04.61-.05.94-.01.35.09.62.14.96.05.36.08.71.13,1.07.05.35-.03.64-.06.99-.1,1.24.02,2.54.1,3.8-.04.14-.06.28-.07.42-.12-.11-.27-.2-.43-.26-.33-.13-.61-.08-.83.07.02-.21,0-.43-.06-.63-.05-.18-.15-.33-.27-.44-.55-1.95-1.29-3.82-1.69-5.81-.4-2.01-.94-3.95-1.39-5.93-.27-1.21-.51-2.42-.73-3.63h-.62c.46,2.4,1.2,4.72,1.71,7.11.28,1.32.46,2.65.79,3.96.16.66.36,1.32.57,1.97-2.14-3.85-4.44-7.56-6.06-11.68-.17-.44-.35-.89-.51-1.35h-.59c1.74,5.26,4.73,10.17,7.52,14.87.07.12.19.15.29.12.01.03.02.06.03.09-.29-.03-.58.07-.78.32-.34.11-.64.37-.81.69,0,0,0,0,0,0-.05,0-.1,0-.15.01-.1-.36-.09-.77-.27-1.09-.42-.76-1.04-1.39-1.49-2.13-.51-.83-.94-1.77-1.51-2.55-.25-.35-.64-.6-.87-.96-.27-.4-.43-.87-.59-1.32-.03-.09-.16-.05-.14.04.19.8.52,1.38,1.1,1.96.39.4.62.86.89,1.34.3.54.66,1.04.97,1.58.47.82,1.37,1.49,1.62,2.41.06.23.11.49.19.72-.28.03-.53.11-.75.34-.18.19-.36.39-.51.6-.12.13-.24.28-.33.44-.63-.88-1.49-1.67-2.17-2.5-1.14-1.39-2.2-2.84-3.23-4.32-.89-1.27-1.77-2.55-2.65-3.83-.24-.67-.7-1.22-.91-1.9-.04-.12-.08-.24-.13-.36,0-.04,0-.09,0-.13-.25-.64-.5-1.28-.74-1.92,0-.01,0-.03,0-.05,0-.04-.02-.07-.05-.1-.14-.36-.28-.73-.41-1.1-.15-.43-.31-.86-.45-1.28h-.62c.13.44.29.88.46,1.32-1.63-.66-3.52-.43-4.38,1.31Zm-7.22,9.06c-.13-1.16.48-2.31,1.27-3.1,1.09-1.08,2.45-.8,3.78-.47,1.22.3,2.43.33,3.52,1.04.05.04.11.04.15.03,1.38,1.82,3.51,3.2,5.27,4.51,2.32,1.73,4.79,3.22,7.29,4.66-.11.13-.21.29-.28.46-.18.43-.27.9-.19,1.32-.62-.51-1.28-.97-1.88-1.52-.87-.8-1.76-1.53-2.67-2.27-1.5-1.22-3.35-1.92-5.21-2.36-2.25-.53-4.11-1.45-6.48-1.16-1.22.15-2.42.52-3.46,1.16-.47-.73-1.01-1.48-1.1-2.29Zm28.34,24.75c.06.01.13.01.19.01-.12.65.13,1.45.15,2.05.03,1.22.3,2.42.36,3.64,0,.09.14.09.14,0,0-1.02-.19-1.95-.28-2.95-.05-.52-.03-1.04-.11-1.57-.06-.38-.15-.79-.1-1.17.44-.04.88-.29,1.05-.71.05-.13.07-.27.07-.4.27.08.56.08.83.01-.05.31.08.63.39.89.06.06.13.1.2.14,0,.03-.01.05-.01.07.03,1.69.39,3.37-.07,4.99-.05.03-.08.08-.08.15v.11c-.07.21-.16.42-.26.62-.79,1.58-2.85,3.26-4.65,2.28-.8-.44-1.36-1.32-1.75-2.25,0-.01,0-.03-.02-.04-.27-.64-.46-1.31-.6-1.88-.45-1.81-.24-3.72.47-5.43.03-.02.06-.04.1-.06.11.34.32.61.67.76.49.21,1.28.09,1.79-.25.05.41-.1.83-.22,1.22-.16.5-.03,1.15-.1,1.68-.15,1.07-.28,2.16-.34,3.23,0,.1.17.12.18.02.17-1.13.29-2.3.37-3.44.04-.59-.03-1.18.12-1.76.09-.33.15-.68.09-1.02.09-.07.16-.14.22-.21,0,.08,0,.16.03.24.15.58.64.93,1.21,1.02Zm-.99-1.85c.01-.12.02-.23,0-.35.05.07.11.13.18.18-.06.05-.12.11-.18.17Zm.98-.44c-.71.07-.92-.92-.61-1.44.24-.2.43-.33.74-.26.27.06.52.25.61.5.2.52-.22,1.14-.75,1.19Zm.88,1.34c-.07.34-.54.44-.82.4-.66-.1-1.05-.83-.42-1.21.23.07.48.06.74-.01.2.25.57.45.5.83Zm1.77-.89c-.28.22-.58.3-.93.23-.29-.06-.66-.37-.66-.65.02-.03.04-.06.06-.09.1.01.21-.02.28-.12.1-.15.21-.33.38-.4.15-.06.51.03.66.07.58.13.66.63.22.97Zm.31.48c.11.06.24.07.35-.03.15-.13.43-.04.58.03.25.12.23.49.08.68-.2.27-.53.27-.8.13-.37-.19-.49-.51-.21-.81Zm-17.07.38c.83-.54,1.62-1.15,2.47-1.67.92-.57,1.98-.92,3.03-1.18.81-.21,1.6-.38,2.42-.52.28-.05.59-.14.79-.34.06.01.12.03.18.05-.05.06-.09.13-.13.21-.37.26-.83.5-1.21.7-.53.28-1.04.6-1.57.88-.99.54-1.86,1.28-2.71,2.02-.08.07.03.21.12.14.94-.75,1.85-1.52,2.91-2.1.53-.29,1.03-.62,1.56-.91.28-.15.58-.32.85-.51-.05.23-.04.48,0,.7.05.32.19.63.37.9.22.32.44.34.81.37.07,0,.15,0,.23.01-.03.06-.05.11-.06.17-.03,0-.05.01-.08.03-.01,0-.03.02-.04.02-.06,0-.11.03-.15.09-1.26.69-2.45,1.49-3.63,2.31-1.26.87-2.56,1.61-3.88,2.39-1.33.79-3,1.49-4.57,1.52-2.55.04-2.47-2.55-1.74-4.28,1.45-1.06,2.7-2.39,4.22-3.36,2.38-1.52,4.76-1.76,7.5-1.96.04,0,.06-.01.09-.02.06.07.12.15.19.22.18.18.39.31.61.39-.38.28-1.06.27-1.46.27-.37,0-.85.22-1.22.31-.48.11-.96.23-1.43.37-1.72.51-3.18,1.57-4.59,2.64-.1.07,0,.24.1.16Zm-.71,5.6c1.75-.43,3.31-1.42,4.88-2.27,1.77-.96,3.45-2.18,5.14-3.31-.26.67-.42,1.35-.5,2.05-.08.02-.16.08-.18.19-.33,1.3-1.03,2.33-1.68,3.47-.77,1.36-1.65,2.49-3,3.32-1.12.7-2.78,1.01-4.01.42-.76-.36-.87-1.29-.99-2.02-.12-.74,0-1.24.34-1.86Zm7.05,2.15c.62-.73,1.06-1.63,1.55-2.46.32-.54.65-1.07.9-1.63.04.63.14,1.25.29,1.88.11.44.26.91.45,1.37-.35.26-.44.58-.7,1.04-.36.62-.91,1.04-1.45,1.48-.23.2-.47.38-.72.54-.57.38-2.2.71-2.15-.59.68-.43,1.3-.99,1.84-1.63Zm6.55-9.54c-.1-.14-.23-.25-.38-.35,0,0-.02,0-.03-.01.15-.07.29-.16.43-.27-.03.17-.04.34-.04.49,0,.05,0,.09.01.14Zm.06-1.62c-.09.22-.32.45-.48.61-.33.34-.62.18-.85-.16-.12-.19-.26-.41-.34-.62-.11-.29.11-.47.19-.71.11-.06.21-.1.33-.13.05.05.11.08.2.06.57-.08,1.24.28.96.94Zm-.42,2.56c-.08.47-.68.56-1.06.58-.25.01-.42.08-.64-.09-.31-.24-.34-.67-.1-.94,0,0,0,0,0,0,.16-.05.32-.14.46-.28.01,0,.02-.02.02-.03.62-.2,1.46-.08,1.32.78Zm-1.74-1.2c-.06.05-.11.11-.16.17-.17.09-.83.13-.98.05-.38-.21-.75-1.48-.2-1.63.11-.03.16-.11.16-.19.12-.02.24-.05.35-.1.05.04.1.07.18.07.6-.06.72.63.74,1.07,0,.2.01.41-.08.58Zm-.46-2.77c-.27.64-1.24.73-1.76.43-.28-.17-.47-.41-.54-.68.01-.02.02-.05.02-.08,0-.13.04-.33.11-.48.08.02.17,0,.24-.08.28-.35.6-.54,1.05-.57.22-.01.43.04.63.14.56.26.45.86.25,1.33Zm-3.35-1.38s-.06-.03-.09-.05c-.01-.09-.06-.18-.15-.21-.09-.23-.05-.54,0-.74.06-.27.2-.54.39-.74.03.03.06.05.1.06.41.14.75.32.89.76.15.48-.7,1.11-1.13.93Zm-.79-.26c-.54.02-1.07.03-1.62-.03-.42-.05-.86-.27-1.27-.27-.7-.02-1.39-.11-2.04-.4-.25-.11-.54-.2-.81-.19-1.15.03-2.1-.36-3.2-.64-.45-.11-.81-.18-1.18-.39.13,0,.25,0,.37.01,3,.07,6.28.14,9.22-.57.02,0,.03-.01.04-.02.17.29.4.53.71.68.11.05.22.08.33.11-.35.33-.56.78-.6,1.27-.01.16,0,.31.04.45Zm.21-2.54c-.39-.35-.92-2.96-.03-2.78.08.02.15-.01.2-.06.26.02.47,0,.66-.08.05.05.11.08.2.07,1.17-.14,1.63,1.19,1.18,2.11-.35.72-1.52,1.37-2.22.75Zm1.23-4.08c-.21.4-.36.64-.83.66-.16,0-.31,0-.47-.02-.29-.05-.31-.41-.34-.64-.03-.23,0-.45.06-.68.06-.24.44-.83.75-.78.04,0,.07,0,.1,0,.03.02.06.04.09.07.06.05.13.05.19.03,0,0,0,0,.01.01.03.02.06.03.09.05.02.03.05.06.08.07.17.08.24.34.31.5.13.28.09.46-.05.73Zm-21.38-7.2c.15-.16.31-.3.49-.44.01.02.03.05.04.07.03-.03.05-.06.09-.08.08-.04.15-.09.22-.15,0,0,0,0,.02-.02.03-.02.06-.06.09-.08,0-.01-.02-.03-.03-.05,1.3-.8,3.01-1.08,4.44-1.14,1.97-.08,4.01.94,5.88,1.43,1.98.52,3.59,1.54,5.19,2.78.71.55,1.35,1.2,2.02,1.79.52.46,1.09.82,1.65,1.21-.13.06-.25.14-.36.24-1.32-.95-2.67-1.9-4.11-2.67-1.48-.79-3.07-1.16-4.71-1.46-1.79-.32-3.56-.71-5.38-.7-.9,0-1.85.25-2.75.34-.46.05-.92.06-1.38.07-.58.01-2.41-.15-1.44-1.17Zm-2.35,4.56c-.51-1.46.72-2.49,1.86-3.1.05.02.09.04.15.06,2.2.71,4.59-.25,6.82-.17,2.31.08,4.89.64,7.1,1.3,2.21.67,3.91,2.22,5.86,3.37-.13.23-.21.5-.23.74-.03.34-.01.66.08.93-.13-.08-.28-.12-.46-.16-.5-.15-1.01-.29-1.51-.41-.62-.15-1.24-.29-1.86-.45-.76-.2-1.38-.56-2.09-.88-.44-.2-.98-.24-1.46-.33-.53-.11-1.04-.27-1.55-.41-1.04-.28-2.12-.48-3.17-.16-.11.03-.06.19.05.17,1.1-.23,2.19,0,3.26.29.45.12.89.26,1.35.35.53.11,1.09.17,1.59.39.44.2.79.46,1.26.61.54.17,1.09.3,1.63.43.51.12,1.02.22,1.53.35.42.1,1.22.15,1.52.51.02.02.05.03.07.02.05.06.1.12.16.18-.35.28-.48.89-.51,1.32-.03.4,0,.86.15,1.29-2.28.35-4.52.46-6.82.49-2.28.03-4.48,0-6.71-.51-2.34-.53-4.31-1.78-6.02-3.45-.83-.82-1.64-1.65-2.03-2.77Zm.03,7.91c-1.7-1.59-.58-4.31,1.5-4.79,1.1,1.06,2.42,1.95,3.64,2.69,1.75,1.06,4.13,1.37,6.25,1.48.01.1.08.19.21.18,0,0,.46.4.52.44.02.01.04.02.06.03-2.32-.08-4.64.39-6.72,1.5-.2.1-.4.22-.6.35-.03-.06-.09-.1-.16-.12-1.52-.36-3.53-.67-4.7-1.76Zm4.14,10.27c-1.11-.17-2.07-.72-2.5-1.81-.39-1,.11-2.19.55-3.07.75-1.47,2.14-2.61,3.53-3.42,2.71-1.56,6.07-1.74,9.08-1.16.05,0,.09,0,.12-.01.45.12.9.22,1.39.21.54-.01.97.25,1.47.39.62.18,1.29.13,1.91.31.91.25,1.89.31,2.82.16.15.17.36.29.61.34-.39.03-.78.04-1.15.1-.4.07-.8.16-1.2.19-.4.03-.88-.11-1.27-.17-.28-.05-.51.08-.78.12-.44.05-.9.02-1.34,0-.79-.04-1.57-.05-2.36-.05-.67,0-1.37.14-1.98.38-.26.1-.53.08-.8.09-.35,0-.67.13-1,.22-.71.19-1.38.39-2.04.71-.64.31-1.16.91-1.67,1.38-.06.06.03.17.09.12.55-.45,1.07-.96,1.69-1.32.72-.42,1.58-.56,2.38-.78.36-.1.7-.11,1.07-.12.26,0,.46-.14.71-.22.79-.26,1.63-.24,2.45-.24.71,0,1.43.06,2.14.07.78.01,1.51-.19,2.28,0,.67.15,1.41-.2,2.07-.25.39-.03.81-.06,1.19-.16-.06.23-.06.46,0,.7-3.58-.04-6.59,1.07-9.43,3.26-1.42,1.1-2.57,2.32-4.19,3.17-.51.27-1.05.48-1.6.63-.07-.02-.14,0-.2.05,0,0,0,0-.01.01-1.31.35-2.71.41-4.05.2Zm4.24,4.81c-1.92-.96-.65-3.13,0-4.49.79-.22,1.56-.54,2.3-.92.24-.12.46-.25.69-.39-.42,1.05-.53,2.15.05,3.23.28.52.79.82,1.36.98-.61.39-1.18.92-1.78,1.31-.08-.02-.17,0-.22.1,0,.02-.02.03-.02.05-.7.4-1.45.58-2.37.13Zm3.7,6.43c-1.32-.28-1.7-2.01-1.8-3.11-.09-1.12.3-2.04.75-3.02.93-.55,1.83-1.33,2.55-1.69.04-.02.07-.04.09-.06.36.01.71,0,1.02-.05.01,0,.02,0,.04,0-.16.24-.27.49-.31.86-.07.72.16,1.63.39,2.31.32.95,1.27,1.33,2.22,1.42-.85,1.69-2.87,3.8-4.94,3.36Zm8.71,7.49c-1.01,1.65-3.15,2.73-5.02,1.92-1.69-.73-2.14-2.87-2.25-4.5-.13-1.93.42-3.56,1.55-5.08,1.11-.76,2.03-1.92,2.49-2.95.03-.07.03-.15.02-.21.17,0,.33-.02.48-.04.12-.01.23-.04.35-.06-.35.39-.63.93-.88,1.32-.53.8-.76,1.77-1.05,2.68-.28.89-.44,1.81-.7,2.7-.28.94-.58,1.81-.65,2.79,0,.05.08.06.09.01.25-1.66.95-3.16,1.24-4.8.16-.9.55-1.89.9-2.73.17-.41.43-.78.65-1.16.15-.25.33-.57.55-.83.46-.1.9-.25,1.32-.44-.23.22-.4.53-.51.81-.26.67-.5,1.34-.69,2.03-.02.09.11.12.14.03.17-.5.35-1,.53-1.5.17-.46.33-1.07.75-1.37.04-.03.03-.08,0-.11.02,0,.03-.01.05-.02.04.37.23.66.5.87-.07.32-.23.49-.34.82-.12.38-.25.75-.37,1.13-.27.83-.57,1.65-.92,2.46-.28.65-.28,1.39-.37,2.08-.04.29.01.63.02.92.01.46-.12.88-.07,1.35.01.09.13.09.14,0,.03-.36.13-.78.12-1.13-.01-.43-.06-.88,0-1.31.1-.81.23-1.49.48-2.27.26-.78.57-1.51.8-2.3.15-.52.43-1.06.54-1.6.02.04.06.08.13.09-.57,1.89-.59,4.38.68,5.96.34.42.78.63,1.26.67-.73,1.19-1.2,2.59-1.94,3.79Zm.52-5.89c-.52-1.34-.39-3.09-.08-4.48.48.12,1.03.07,1.51-.19.81-.45,1.56-1.06,2.2-1.74.15-.16.27-.33.38-.52-.06.37-.09.76-.14,1.15-.12,1.04-.16,2.04.11,3.06.24.86.63,1.73,1.24,2.38-1.6,1.07-4.1,3.18-5.21.34Zm7.31.08c-1.57.14-2.41-1.75-2.79-2.96-.39-1.24-.37-3.35.13-4.75.53,1,1.28,1.89,2.3,2.3,1.72.69,3.56-.83,4.51-2.09.03-.04.05-.07.07-.11.04,1.51.2,3-.38,4.47-.17.42-.39.82-.65,1.19-.04.02-.07.06-.08.11-.76,1-1.86,1.74-3.12,1.85Zm7.61,6.32c-.38.65-.45,1.17-1.14,1.66-.88.62-1.71.65-2.56.01-.82-.62-1.33-1.76-1.77-2.66-.56-1.15-1.06-2.3-1.24-3.58-.05-.4-.04-.83-.11-1.23.88-.23,1.72-.83,2.33-1.48.09,1.42.5,2.93,1.03,4.19.55,1.31,1.64,2.38,2.99,2.87.17.06.34.11.52.15-.02.02-.03.04-.05.06Zm2.47-1.75c-.73,1.71-2.44,1.22-3.68.5-2.03-1.18-2.58-4.27-2.88-6.49.04-.05.07-.1.11-.14.71-1,1.05-2.06,1.19-3.17.27,1.07.64,2.12,1.14,3.1.79,1.57,2.42,3.66,4.31,3.1.16,1.05.24,2.09-.19,3.1Zm1.45-5.04c-.28.6-.58.99-.91,1.22-.14-.06-.34.03-.4.2-1.66.52-3.63-2.45-4.26-3.9-.7-1.64-.94-3.39-1.16-5.14-.01-.13-.02-.25-.04-.38,0-.03-.01-.05-.02-.07.75-1.75.59-3.89.27-5.71.31.02.63-.09.89-.32.31-.27.4-.74.27-1.13.34.08.69-.03.99-.24-.01.43.14.89.36,1.22.37.53,1.1.76,1.7.59-.04.06-.05.14-.02.24.71,2.24,1.72,4.38,2.52,6.58.88,2.41.86,4.52-.21,6.85Zm-5.59-16.44c.07-.03.12-.08.14-.17.09-.38.26-.64.68-.63.54,0,.7.46.47.89-.17.32-.59.65-.97.56-.23-.05-.24-.36-.28-.54,0-.02-.02-.06-.04-.11Zm1.73.91s.09-.03.13-.07c.4-.43.97-.53,1.53-.29.48.21.35.96.17,1.32-.29.57-1.03.4-1.43.05-.23-.21-.4-.63-.4-1.01Zm6.6,18.34c-.94-.71-1.53-1.87-1.86-3.01.6-1.37.71-3.08.55-4.34-.18-1.47-.77-2.87-1.3-4.25-.62-1.6-1.23-3.22-1.89-4.8-.05-.11-.14-.17-.24-.19.12-.07.24-.16.34-.27.03-.03.05-.07.08-.1.22.5.76.65,1.24.49.88.77,1.5,1.83,2.1,2.81.63,1.03,1.34,1.94,1.86,3.04.55,1.16,1.63,2.61,2.92,3.36.07,1.2.73,2.25.8,3.48.07,1.2.09,2.37-.49,3.46-.89,1.67-2.87,1.26-4.11.31Zm-2.93-20.65c.24-.13.41-.3.7-.27.29.03.69.33.85.55.51.69-.5,1.28-1.06,1.28-.12,0-.23-.02-.31-.05-.04-.02-.09-.04-.13-.06-.43-.25-.36-.9-.15-1.43.03,0,.06-.01.09-.03Zm-.26-1.36c-.36-.27-.5-.87-.33-1.31.04,0,.09-.02.13-.06.04-.03.07-.07.11-.11,0,0,.02-.02.03-.03.06.03.13.04.21.01.78-.26,1.15.57.88,1.22-.18.44-.65.56-1.02.27Zm8.48-10.01c-.21.18-.4.35-.66.45-.21.08-.5.06-.72.1-.36.07-.68.2-1.05.23-.19.02-.35-.01-.54.04-.36.09-.72.43-1.02.64-.4.28-.93.34-1.37.54.05-.08.1-.17.13-.25.17-.5.1-1.01-.17-1.41.03,0,.06-.02.1-.04,1.96-1.12,4.12-1.8,6.07-2.94,1.73-1.02,3.32-1.97,4.87-3.27.64-.54,1.23-1.12,1.81-1.71,0,0,.01,0,.02,0,1.58-1.1,3.88-1.3,5.76-1,1.62.26,2.36,1.45,1.53,3.01-.67,1.25-2.08,2.1-3.27,2.79-4.97,2.89-10.57,3.86-15.98,5.58-.16-.18-.37-.33-.57-.45-.12-.07-.26-.12-.41-.13.02-.02.04-.05.05-.07.02.01.04.02.06.01.47-.21.99-.29,1.45-.54.52-.27.86-.69,1.5-.63.52.06,1.12-.25,1.65-.29.37-.02.66-.29.89-.55.07-.08-.04-.16-.11-.1Zm17.38-.09c-3.15.41-6.31,1.15-9.4,1.86-3.81.87-7.56,1.95-11.2,3.38-.01,0-.02.01-.03.02-.04-.04-.09-.07-.15-.1-.15-.07-.34-.07-.5,0-.01,0-.02-.01-.03-.01-.11-.03-.21.05-.3.11-.13.08-.23.21-.29.36-.01,0-.02-.01-.03-.02-.09-.05-.19-.1-.29-.14.09-.06.17-.14.24-.22.34-.38.46-1.15.42-1.65,0-.08-.03-.16-.05-.24,3.47-1.01,7.01-1.82,10.42-3.05,2.51-.9,5.47-2.06,7.57-3.92.99.06,2.01.24,2.93.63.02,0,.03.01.05.02.04.1.13.19.26.19,0,0,.01,0,.02,0,.24.24.22.56.23,1.01.01.53-.12,1.03-.11,1.55,0,.14.11.22.23.24Zm-20.91,5.92c0,.07-.18.27-.29.23-.13-.06-.29-.27-.26-.41,0-.03.02-.06.03-.08.05.04.12.06.2.03.07-.02.14-.03.21-.04,0,0,.01,0,.02.01,0,0,0,0,.01.02.04.07.06.17.06.25Zm-1.56-2.8c.49.39.39,1.5-.11,1.86-.42.3-1.05.08-1.38-.23-.21-.2-.33-.45-.38-.72.11,0,.21-.07.24-.18.08-.29.11-.54.36-.74.39-.3.9-.28,1.26.01Zm-.56,3.05c.18-.34.55-.19.82-.05.53.27.52,1.08.18,1.49-.33.4-.84.41-1.16,0-.17-.22-.25-.49-.24-.76.06-.01.12-.05.15-.12.08-.19.16-.38.25-.56Zm.52,2.9c.59.29.41,1.11.09,1.53-.33.43-1.4.64-1.66.04-.06-.14-.12-.56-.08-.88.03-.01.05-.03.07-.05.19-.2.34-.43.52-.63.28-.29.74-.16,1.06-.01Zm.56,2.81c.03.29-.14.55-.41.66-.03.01-.07.02-.1.03,0-.02-.01-.03-.02-.05-.03-.06-.1-.03-.11.02-.13-.06-.17-.25-.17-.43,0-.22.16-.46.32-.65.24.05.46.12.48.42Zm-2.88,1.72c.13-.01.26-.03.38-.07.22-.06.42-.18.58-.32.58,1.57,1.95,2.93,2.84,4.32.54.84,1.04,1.7,1.48,2.6.55,1.11.72,2.29,1.03,3.46.09.31.2.63.34.94-1.92-.85-2.81-2.98-3.85-4.69-.56-.92-1.23-1.81-1.82-2.71-.41-.62-.9-1.26-1.54-1.67,0,0,.02,0,.03-.02.58-.44.82-1.2.52-1.85Zm-.46.48c.04.34-.21.72-.46.92-.7.54-1-.63-.66-1.22,0,0,0,0,0,0,.13-.11.29-.33.48-.35.28-.04.61.41.64.66Zm11.31,19.31c-.39,1.5-1.82,2.56-3.36,2.36-1.26-.16-2.33-1.13-3.01-2.17.38-.03.77-.14,1.17-.33,1.11-.54,1.63-1.88,1.74-3.03.07-.79.02-1.56-.03-2.35-.06-.97-.51-1.8-.75-2.71.16.06.32.11.48.14.43.66.97,1.25,1.61,1.66.31.2.69.4,1.1.54.03.07.09.14.19.16.17.03.67,1.92.77,2.31.31,1.12.39,2.29.09,3.42Zm6.61-3.4c-.44,1.77-2.61,1.16-3.72.58-1.24-.64-2.19-1.78-3.04-2.89.5.03.98-.1,1.36-.48,1.34-1.36,1.08-3.45.36-5.3,2.59,1.86,5.93,4.51,5.04,8.09Zm-5.46-7.33c.37,1.22.66,3.32-.55,4.2-.37.27-.79.32-1.21.21,0,0-.01,0-.02,0-.06-.04-.12-.06-.19-.05-.96-.33-1.9-1.34-2.39-2.03-.01-.06-.05-.11-.1-.15-.01-.02-.02-.03-.04-.05-.85-1.34-.9-3.04-1.5-4.49-.51-1.22-1.25-2.35-1.97-3.46-.87-1.33-2.12-2.55-2.75-4.02.21-.37.27-.81.11-1.21.12,0,.24,0,.35-.02-.15.22-.23.47-.19.77.04.28.17.5.35.62.02.1.08.19.2.23.22.08.45.16.67.24.17.12.34.25.48.39.2.18.43.33.63.51.2.19.35.43.55.62.41.38.86.68,1.23,1.12.39.47.62.89.85,1.45.2.47.55.9.85,1.31.67.92,1.34,1.81,1.84,2.83.04.08.18.02.15-.07-.38-.93-.96-1.73-1.56-2.53-.35-.47-.7-.94-1-1.45-.28-.47-.38-.93-.72-1.38-.3-.39-.62-.73-1-1.04-.44-.36-.8-.77-1.21-1.15-.14-.13-.29-.27-.45-.39,1.17.43,2.27.91,3.31,1.72,1.26.98,2.32,2.23,3.29,3.49.87,1.14,1.55,2.4,1.98,3.77Zm11.5,1.44c0,.06,0,.11-.01.16-.04.14-.15.26-.26.35-.07.05-.14.09-.21.12,0,0,0,0,0,0,.02.03.05.05.09.08,0,0,0,0,0,0-.91,1.03-2.82.75-4.15.1-2.87-1.38-4.97-3.98-7.69-5.6-.07-.04-.14-.05-.2-.04-.01-.03-.03-.05-.05-.07-1.98-3-4.6-5.27-8-6.35.1-.09.19-.2.26-.32,3.67-.42,7.05.27,10.63,1.07.35.08.7.17,1.04.26,0,0,0,0,0,0,.04,0,.09,0,.13,0,.13.02.24.08.35.16.02,0,.04,0,.06,0,2.81.87,5.19,2.36,6.85,4.98.79,1.25,1.3,2.7,1.3,4.18,0,.35-.05.66-.13.92Zm3.6-3.52c1.03,1,1.53,2.74.59,3.96-.91,1.19-2.57.61-3.75.02.6-1.23.18-2.92-.26-4.09-.2-.55-.45-1.06-.74-1.55.09,0,.19.01.3.01,1.52,0,2.78.6,3.86,1.65Zm-.74-5.87c.05,1.01.09,3.14-1.15,3.55-.03.04-.05.08-.09.12-.08.09-.19.12-.3.11-.01.03-.02.06-.02.09-.39-.09-.78-.15-1.19-.18-.32-.03-.75-.14-1.1-.17-1.39-2.01-3.44-3.45-5.74-4.35.11-.02.23-.04.34-.06.26.03.51.04.78.04.26,0,.51,0,.77.05.24.04.51.25.75.34.97.36,2.06.37,3.08.5.09.01.13-.12.04-.13-1.08-.17-2.24-.17-3.25-.58-.36-.15-.59-.28-.98-.31-.24-.02-.48,0-.71,0,1.04-.23,2.06-.55,3.08-.92.96-.36,1.93-.71,2.88-1.14,1.6.52,2.71,1.15,2.81,3.05Zm-1.96-4.14c-2.65,1.43-5.99,2.65-9.01,2.83-1.89-.57-3.92-.89-5.84-1.25-2.03-.37-4.1-.36-6.13.01.02-.1.04-.2.04-.3,0-.03,0-.06,0-.09.3.04.73-.08.91-.08,1.03-.01,1.99-.37,3.01-.43.47-.03.95-.2,1.4-.34.61-.19,1.3-.14,1.93-.21.53-.06,1.1-.31,1.64-.12.51.18,1.04.27,1.58.24.1,0,.09-.15,0-.15-.53-.03-1.03-.11-1.53-.28-.36-.12-.71-.06-1.08,0-.91.13-1.91.12-2.79.4-.86.27-1.77.34-2.66.54-.48.11-.99.18-1.49.21-.14.01-.62.11-.93.09-.06-.22-.21-.42-.39-.56.26-.06.52-.22.74-.31.3-.14.79-.06,1.11-.07.28,0,.66-.21.92-.29.74-.23,1.51-.25,2.27-.35.85-.11,1.65-.34,2.51-.37.4-.01.8-.16,1.2-.11.31.04.59.07.91.06.81-.04,1.53-.48,2.32-.57.71-.08,1.37-.46,2.08-.54.41-.04.78-.13,1.19-.11.48.02.96.12,1.44.16.1,0,.12-.16.02-.17-.72-.13-1.44-.25-2.18-.18-.63.06-1.39.26-1.97.47-.67.24-1.41.41-2.1.6-.48.13-.94.18-1.43.12-.31-.04-.59-.12-.89,0-.37.15-.89.08-1.28.11-.32.03-.64.1-.96.16-.86.18-1.73.25-2.6.38-.65.1-1.22.44-1.89.46-.24,0-.48-.02-.71.08-.11.04-.21.1-.31.15-.05.02-.1.05-.16.08-.12.12-.23.15-.33.1.24-.32.39-.71.4-1.1.13.04.28.03.42-.05.19-.11.3-.29.36-.49,2.81-1.14,5.65-2.1,8.55-2.98,3.07-.93,6.15-1.21,9.34-1.19,1.54.01,3.27.09,4.5,1.15,1.91,1.63-.8,3.59-2.1,4.3Zm-21.01-1.39c0-.06.01-.12.03-.18.04,0,.09,0,.13,0,.02.02.04.04.05.07,0,.08-.04.2-.11.24-.03.02-.06,0-.06.01-.04-.04-.05-.09-.05-.15Zm27.58-1.66c.15,1.07-.48,1.84-1.34,2.34-1.03.59-2.42.64-3.62.45.88-.66,1.58-1.56,1.71-2.66.05-.42-.06-.8-.25-1.14,0-.01.01-.02.01-.04.06.03.12.02.17,0,.04,0,.07.01.11,0,.83-.16,1.57-.45,2.22-.9.62.35.89,1.31.98,1.95Zm-2.21-7.06c1.55.24,3.47,1.23,2.44,3.07-.75,1.34-2.14,2.11-3.59,2.41-.07.01-.12.05-.15.1-.07,0-.14.01-.21.05,0,0,0,0-.01,0-.02,0-.04,0-.05.01,0,0,0,0-.01,0-.41-.46-.99-.81-1.51-1.04-1.41-.61-3.12-.54-4.62-.53-1.97.01-3.92.15-5.85.53-1.95.39-3.84,1.06-5.73,1.67-1.78.57-3.6,1.14-5.25,2.04-.03-.03-.07-.04-.11-.05-.09-.17-.29-.25-.49-.27-.06-.09-.19-.13-.29-.03,0,0-.01.02-.02.02-.17.03-.31.15-.35.32,0,0,0,.01,0,.01-.04-.04-.09-.09-.13-.13-.09-.07-.19-.13-.29-.19.33-.09.64-.3.83-.59.04-.06.07-.12.11-.18.62-.24,1.26-.43,1.8-.8.74-.51,1.48-.8,2.36-.95.45-.08.95-.22,1.4-.23.18,0,.3-.12.42-.22.35-.3.83-.29,1.26-.37.44-.08.88-.16,1.31-.26.07-.02.05-.12-.02-.12-.72-.03-1.54.21-2.24.37-.37.08-.5.42-.93.44-.42.01-.84.16-1.25.24-.77.15-1.33.36-2.01.76-.5.3-.95.58-1.49.81-.19.08-.37.16-.56.24.13-.3.16-.62.11-.93.05,0,.09,0,.13,0,.27-.04.46-.22.61-.44.12-.18.1-.39.05-.59,0,0,0,0,0,0,5.25-1.96,10.65-3.17,16.12-4.3,2.66-.55,5.5-1.29,8.22-.87Zm-1.11-7.98c-.26,1.7-1.74,3.14-3.13,4.08-.88-.4-1.91-.57-2.89-.57.28-.28.54-.57.78-.87.9-1.17.88-2.39.14-3.21.43-.78.86-1.32,1.13-2.05,1.68.27,4.38-.04,3.97,2.62Zm-8.73-5.78c.44-.18,1.56-.43,1.8-.43.88-.01,1.66-.22,2.3.55.7.83.47,2.38.08,3.31-.23.55-.68.92-.93,1.44-.3-.22-.67-.4-1.11-.51-1.56-.41-3.6-.28-5.17.44.57-.51,1.17-.97,1.67-1.56.55-.65.83-1.53,1.12-2.31.13-.34.21-.62.25-.93Zm-18.56,12.48c.95-1.73,1.92-3.42,3.06-5.03,1.11-1.55,2.47-2.9,3.55-4.48,1.14-1.66,2.25-3.36,3.6-4.85.97-1.07,2.1-2.02,3.05-3.12.04.02.09.04.15.02.33-.07.51-.2.76-.42.81-.67,1.64-.76,2.66-.78.99-.02,1.86,1.16,1.95,2.03.11.94-.47,1.93-.9,2.73-.07.14-.02.26.08.33.01.2.08.38.09.71.02,1.18-.76,2.66-1.5,3.54-.57.67-1.35,1.16-1.97,1.78-.83.82-1.61,1.66-2.53,2.39-.71.56-1.43,1.16-2.17,1.68-.72.51-1.57.82-2.33,1.29-1.92,1.19-4.12,1.79-6.07,2.94-.07.04-.11.1-.12.16-.13-.1-.28-.19-.45-.26-.28-.1-.61-.05-.9.09,0,0,0-.02.01-.03,0,0,0-.02,0-.02.01-.01.02-.03.01-.05,0-.01,0-.02,0-.03,0,0,0,0,.01,0,.16-.1.33-.19.5-.28.28-.15.57-.3.86-.45.52-.28,1.02-.59,1.46-.99.54-.48,1.01-1.04,1.55-1.52.22-.19.59-.48.84-.65.22-.14.65-.22.82-.42.42-.47.68-1.05,1.09-1.53.53-.61.97-1.26,1.58-1.8.59-.52,1.12-1.05,1.77-1.49.48-.33.88-.73,1.16-1.24.05-.08-.07-.14-.12-.07-.73,1.11-2.02,1.73-2.95,2.67-.52.52-1,1.03-1.45,1.62-.38.5-.69,1.05-1.08,1.55-.17.22-.5.32-.74.45-.28.14-.45.33-.69.51-.53.4-1.01.86-1.47,1.35-.92.95-2.04,1.43-3.11,2.13,0-.15-.03-.3-.1-.43,0-.01.02-.02.03-.03Zm-.08,1.61c.14-.29.56-.4.85-.34.5.1.63.77.52,1.18-.11.4-.68.78-1.08.58-.2-.1-.32-.39-.4-.59.02-.04.04-.08.04-.14,0-.23-.03-.47.07-.68Zm-1.52-1.87s.01,0,.02-.01c.04.11.14.2.27.21.36.03.85.17.75.64-.07.35-.53.49-.84.44-.35-.06-.61-.53-.53-.86.04-.17.19-.32.33-.42Zm-1-1.28c.37.36.23.87-.18,1.11-.35.21-.88.04-1.1-.27-.19-.27-.21-.51-.1-.72.04,0,.08,0,.12-.02.38-.15.9-.44,1.26-.1Zm-.47-8.45c-.02.2-.03.41-.03.63.02.79-.14,1.54-.11,2.34.03,1.01.33,1.97.3,2.99-.02.63-.05,1.22.16,1.77-.44-.09-.94.05-1.34.32,0,0,0,.01-.01.01-.09.06-.16.13-.22.2-.02-.04-.05-.07-.08-.1-.22-.24-.88-.59-1.22-.46-.09.03-.16.07-.24.12.06-.22.07-.46.05-.68-.03-.4-.18-.7-.44-.97,1.18-2.01,2.23-4.07,3.17-6.16Zm-1.98,9.56c-.4.21-.88.11-1.04-.36-.02-.05-.04-.14-.06-.25.06,0,.12-.03.17-.09.12-.14.22-.31.35-.45.19-.22.51,0,.7.1.5.27.28.84-.12,1.05Zm-3.08-2.61c.11-.43.5-.6.9-.65.06,0,.1-.04.13-.07.06.04.13.07.18.12,0,.13.12.23.24.24.3.37.45.86.18,1.2-.33.43-1.2.33-1.55,0-.22-.2-.16-.6-.1-.85Zm-2.32-.78c.05-.1.12-.2.2-.29.07.02.16.02.23-.03.35-.24.73-.31,1.07-.01.4.36.23.98-.16,1.25-.43.29-1.12.16-1.32-.34-.06-.16-.07-.38-.03-.58Zm-.2,1.26c.05.05.1.1.16.14-.07.02-.14.04-.21.06.02-.06.04-.13.05-.19Zm.29.53s.06.05.1.06c.18.06.38.09.56.16.31.13.35.33.3.64-.07.41-.37.72-.79.77-.42.05-.74-.33-.86-.7-.16-.5.29-.77.7-.92Zm-1.84-.74c.1-.29.16-.58.52-.5.31.07.47.33.44.64-.02.13-.07.25-.15.34-.1.12-.4.06-.55.07-.17,0-.28-.14-.36-.26-.03-.04-.05-.08-.07-.11.07-.02.14-.08.18-.18Zm-1.65-1.63s.02,0,.03,0c.43-.12.78-.23.93.31.14.48-.11.94-.57,1.06-.38.1-.75-.12-.96-.43-.23-.34.24-.82.57-.94Zm-.36,1.9s0-.05,0-.07c.3.11.64.15.93.1.14-.02.26-.07.37-.13.03.33.23.65.53.82.15.09.29.14.46.13.11,0,.24.01.37.01-.05.14-.08.31-.06.51.05.73.73,1.33,1.44,1.31.74-.02,1.26-.63,1.38-1.32.07-.38.01-.79-.32-1.03-.02-.02-.04-.03-.07-.04.08-.02.16-.05.24-.08.09-.04.16-.08.24-.13.01.12.05.24.1.35.32.73,1.28.86,2,.62-.06.27-.04.6.01.81.2.85,1.18,1.07,1.87.7.19-.1.34-.24.46-.39.36.5,1.05.67,1.65.48.07-.02.13-.05.19-.08-.14.58.2,1.26.78,1.46.32.12.67.09.97-.04-.05.18-.06.37-.04.56-.06.55.21,1.14.67,1.46.06.04.11.07.17.09-1.11,1.01-.19,2.57.95,2.88-.07.09-.13.18-.18.28-.05.02-.1.05-.14.11-.39.7-.28,1.56.3,2.13.05.05.1.09.16.13-.36.07-.7.29-.94.61-.21-.64-.79-1.14-1.54-.92-.03,0-.06-.01-.09,0-.87.22-1.07,1.34-.74,2.05.19.4.52.66.9.75-.55.44-.78,1.16-.65,1.85.02.1.05.18.09.26-.22.09-.4.27-.53.54-.08-.19-.19-.35-.35-.47-.52-.41-1.29-.43-1.86-.13,0,0-.02-.01-.03-.02.14-.62-.26-1.16-.92-1.32-.59-.15-1.14.18-1.34.69-.05.08-.1.15-.15.24-.11.19-.07.39-.03.59.03.14.05.27.09.41-.16-.05-.33-.08-.5-.07.03-.07.04-.14.05-.22.03-.43-.18-.69-.52-.93-.32-.23-.83-.3-1.22-.29-.16,0-.3.07-.43.16,0-.21-.06-.41-.15-.6-.32-.63-1.15-.85-1.74-.57.01-.07.02-.13.02-.19-.01-.71-.65-1.32-1.35-1.29-.03-.05-.08-.1-.14-.1,0,0-.01,0-.01,0-.05-.03-.11-.04-.17-.04-.07,0-.12.03-.16.07-.1,0-.19,0-.28.05-.17.1-.35.23-.5.36-.05.04-.08.08-.12.12.21-.39.33-1,.2-1.34-.17-.43-.45-.76-.9-.93-.5-.18-1.1-.17-1.56.07.05-.14.08-.28.07-.42-.02-.47-.41-.98-.87-1.18.68-.28,1.26-.92,1.5-1.58.39-1.05-.32-2.44-1.41-2.59.11-.14.2-.3.3-.48.17-.32.15-.93-.07-1.36.43-.11.82-.43,1.06-.77.18-.27.53-.86.4-1.21-.02-.06-.05-.11-.07-.16.63-.07,1.24-.64,1.25-1.3Zm-2.04-.02c.11-.22.27-.36.43-.53.08-.08.14-.17.19-.27,0,0,.01,0,.02,0,.34.03.79.34.84.7.07.54-.55.95-1.03.85-.08-.02-.16-.05-.23-.09-.07-.07-.14-.14-.2-.23-.02-.02-.04-.04-.06-.05-.05-.12-.05-.25.02-.39Zm-.41.79s.04.05.06.07c.23.34.72.53.59.99-.17.6-.71,1.21-1.39,1.04-.65-.16-.47-.98-.35-1.43.07-.24.18-.39.33-.54.1-.01.18-.09.21-.18.16-.08.36,0,.54.04ZM58.82,2.28c.14.4.27.8.43,1.19.02.14.06.27.1.41.03.08.06.15.1.23.06.16.13.32.21.47.06.19.13.37.22.53.04.14.09.27.15.41.01.09.03.17.06.24.13.38.37.73.61,1.08.05.11.09.22.13.34.04.12.13.18.24.19.89,1.33,1.81,2.65,2.72,3.97.8,1.16,1.61,2.34,2.51,3.42.86,1.04,1.87,2.08,2.68,3.17-.1,0-.2,0-.32.06-.02,0-.03.02-.05.03-1.86-1.16-3.79-2.21-5.61-3.44-1.94-1.31-3.7-2.82-5.54-4.25-1.62-1.25-2.63-3.1-3.05-5.07-.22-1.03-.14-2.15.53-3,.92-1.16,2.53-.81,3.74-.4.05.15.11.29.16.44Z"/>
      <path class="cls-1" d="m80.13,22.54c-.18-.07-.41-.11-.61-.07-.36.1-.72.11-1.09.01-.31-.13-.47-.52-.77-.66-.5-.23-.83-.13-1.21.15-.43-.21-.96-.22-1.26.18-.48.14-1.07.35-1.3.77-.07.13,0,.26.04.38.07.23-.61.45-.81.54-.29.14-.62.55-.45.88.14.27.17.28.43.46.44.31-.11.94-.18,1.24-.07.27.11.66.42.7,1.04.13.11,1.04.59,1.52.26.26.28.27.61.39.51.19.72.4.85.95.09.38.65.6,1,.5.55-.16,1.13-.31,1.65,0,.21.12.51.2.75.2.26,0,.42-.09.62-.24.62-.45,1.1-.23,1.73-.24.68,0,.83-.87,1.05-1.31.44-.91.95-1.11.83-2.22-.21-1.86-1.08-3.41-2.87-4.12Zm-.05.67s.06.01.08.03c.68.27,1.26.83,1.61,1.48-.3.06-.54.25-.85.31-.54.1-1.04.25-1.58.32-.46.06-.91.17-1.38.19-.08,0-.15.01-.22.02.42-.27.88-.5,1.25-.81.51-.43.83-.95,1.11-1.53Zm-2.32-.46c.23.19.45.39.68.43.43.07.87-.06,1.3-.03-.07.13-.13.28-.22.42-.21.37-.49.67-.8.95-.48.44-1.13.7-1.63,1.14-.01,0-.03,0-.04,0,.16-.49.34-.98.5-1.48.16-.49.18-.95.2-1.43Zm-2.13-.09c.21-.02.41-.05.62-.08.15.11.31.12.46-.01.28-.24.53-.18.77-.03-.13.49-.08,1.06-.22,1.57-.16.59-.36,1.14-.5,1.73-.09-.22-.1-.61-.12-.71-.06-.39-.3-.75-.52-1.08-.24-.37-.45-.83-.72-1.22.09,0,.18-.05.23-.17Zm-2.19,2c-.25-.41.4-.53.82-.77.23-.13.25-.31.27-.55.03-.3.18-.47.39-.62.29.65.75,1.21,1.14,1.81.22.35.32.74.42,1.14-.62-.42-1.33-.73-2.05-.91-.36-.09-.56-.28-.94-.11-.02,0-.04,0-.05.01Zm1.26,3.79c-.19-.03-.36-.13-.31-.43.03-.19.14-.37.14-.57,0-.22-.03-.54-.27-.65-.72-.33-.57-.4-.39-1.11.06-.25-.04-.56-.2-.77.3,0,.56.12.86.2.63.16,1.28.49,1.83.88-.26.12-.51.32-.64.44-.42.39-.87.98-.9,1.58-.06.14-.1.28-.11.42Zm1.67.84c-.04.09-.07.19-.08.29-.22-.08-.4-.26-.49-.66-.07-.27-.37-.37-.6-.44-.04-.01-.09-.01-.15-.02,0-.02,0-.04,0-.06,0-.07,0-.13,0-.2.02-.02.04-.04.04-.07.08-.41.33-.84.59-1.17.11-.14.57-.59.9-.7-.02.04-.04.08-.04.13,0,.28.08.55.08.83,0,.71-.17,1.37-.24,2.06Zm1.03.25c-.27.04-.55.09-.79.1,0-.02.01-.04.01-.06.02-.02.04-.05.04-.09,0-.03,0-.06,0-.08,0-.04-.02-.06-.04-.08.37-.95.26-2.04.21-3.01.02,0,.04-.02.05-.03,0,.05.01.11.03.16,0,.31.26.87.29.97.25.86.72,1.89,1.37,2.61-.4-.06-.69-.55-1.19-.48Zm2.88-.08c-.37-.07-.8.08-1.08.32-.06.05-.11.09-.17.12-.41-.53-.8-1.06-1.11-1.68-.02-.03-.26-.57-.47-1.06.28.25.59.47.76.61.8.67,1.73,1.29,2.72,1.65-.17.07-.38.09-.66.04Zm1.48-1.13c-.18.3-.3.61-.48.83-.34-.18-.7-.23-1.02-.48-.34-.27-.77-.45-1.13-.69-.45-.31-.87-.63-1.28-.99-.17-.16-.59-.37-.69-.64.01,0,.02-.02.03-.03.06.02.13.04.22.07.56.18,1.14.28,1.71.44.63.17,1.27.26,1.91.36.45.07.81.2,1.25.17-.11.33-.3.63-.51.98Zm.58-1.32c-.89-.12-1.81-.2-2.7-.41-.52-.12-1.04-.27-1.57-.35-.03,0-.76-.17-.92-.22,0,0,0-.02-.01-.02.03-.03.06-.06.08-.09.13-.02.25-.06.38-.05.46,0,.91-.03,1.37-.1.55-.09,1.09-.11,1.62-.26.47-.13.85-.29,1.3-.47.04.1.07.19.1.29.1.37.2.74.3,1.11.06.22.07.41.05.59Z"/>
      <path class="cls-1" d="m65.13,23.41c-.73.02-1.37.03-2.1-.1-1.26-.22-2.53-.02-3.79-.26-.13-.03-.18.16-.05.2,1.39.33,2.8.09,4.2.36.67.13,1.3.03,1.97-.02.49-.03.96.07,1.41-.19.07-.04,0-.15-.07-.11-.48.25-1.05.11-1.57.13Z"/>
      <path class="cls-1" d="m81.97,42.75c-.06-.47-.07-.94-.16-1.41-.09-.45-.35-.84-.47-1.28-.14-.52-.16-1.07-.23-1.6-.14-1.13-.58-2.16-.64-3.31,0-.06-.09-.05-.09,0,.02,1.03.29,1.92.49,2.92.11.53.13,1.08.21,1.62.07.49.25.88.44,1.32.35.84.19,1.84.46,2.71.15.46.27.92.41,1.38.19.59.1,1.27.13,1.88,0,.09.13.09.14,0,.03-.95.02-1.82-.28-2.74-.16-.51-.36-.95-.42-1.49Z"/>
      <path class="cls-1" d="m101.83,6.28c-.46.47-.88.98-1.31,1.47-.39.45-.81,1.1-1.35,1.37-.01,0,0,.03.01.03.48-.21.8-.67,1.15-1.04.54-.57,1.04-1.18,1.57-1.77.04-.05-.03-.11-.07-.07Z"/>
      <path class="cls-1" d="m64.2,4.16c-.23-.39-.51-.68-.58-1.16,0-.01-.03-.01-.02,0,.06.67.56,1.2.78,1.82.13.36.22.66.46.96.24.31.49.61.7.95.04.06.12,0,.09-.06-.32-.59-.83-1.02-1.06-1.66-.11-.3-.2-.59-.36-.86Z"/>
      <path class="cls-1" d="m100.2,18.33c-.69.34-1.44.52-2.17.78-.61.21-1.18.51-1.74.82-.07.04,0,.14.06.1.63-.32,1.28-.62,1.95-.85.58-.2,1.23-.31,1.79-.6,1.27-.66,2.72-.91,3.96-1.61.08-.05,0-.16-.07-.12-1.23.58-2.55.89-3.77,1.49Z"/>
      <path class="cls-1" d="m101.28,38.27c-.51-.23-.82-.75-1.35-.98-.22-.09-.48-.12-.71-.17-.21-.05-.82-.34-1.02-.43-.58-.24-1.19-.34-1.74-.67-1.1-.66-2.4-1.21-3.63-1.55-.64-.18-1.27-.29-1.93-.3-.4,0-.77,0-1.14-.19-.24-.12-.47-.23-.73-.31,0,0,0,0,0,0,.52.2.89.5,1.45.54.81.06,1.54.12,2.33.32,1.28.33,2.63.97,3.77,1.65.5.3,1.05.34,1.57.57.47.21.9.41,1.4.52.61.13.92.54,1.39.88.59.43,1.25.75,1.84,1.21.03.02.07-.02.04-.05-.42-.42-1.02-.81-1.56-1.05Z"/>
      <path class="cls-1" d="m105.62,41.71c-.34-.64-.97-1.2-1.49-1.7-.07-.07-.18.04-.11.11.5.5,1.1,1.06,1.45,1.68.35.61.78,1.13,1.13,1.75.05.08.17,0,.13-.08-.32-.65-.77-1.13-1.11-1.75Z"/>
    </g>
    <g class="cls-4">
      <path class="cls-1" d="m64.36,247.86c.67-1.35,0-3.15-.62-4.38-.06-.12-.13-.25-.2-.36.94.48,2.05.58,3.07.82.96.22,1.9.21,2.69-.45.74-.63,1.28-1.48,1.36-2.46.08-1.01-.42-1.84-.95-2.66.17-.12.34-.25.5-.4.37-.34.63-.91.36-1.28,1.21-.64,2.17-1.76,1.51-3.21-.3-.66-.73-1.25-1.24-1.79,1.34-.38,2.29-1.77,2.04-3.18-.15-.83-.83-1.51-1.51-1.94-.46-.29-1.05-.36-1.56-.52-.53-.16-1.02-.34-1.56-.41,1.82-1.34,3.49-3.72,2.3-5.84-.54-.96-1.98-1.18-2.95-1.24-.7-.05-1.38,0-2.05.14.19-.4.38-.8.51-1.22.26-.83.05-1.73-.5-2.37-.69-.82-1.48-.79-2.25-.45.36-.78.57-1.5.5-2.47-.06-.86-.43-1.97-1.22-2.44-.75-.44-1.56-.4-2.32-.09.72-1.12.99-2.29.97-3.73-.02-1.54-.54-3.07-1.83-3.98-1.22-.86-2.91-.37-4,.45-1.49,1.13-1.85,3.03-2.77,4.55-1.07.19-2.24,1.05-2.82,1.66-.25-.2-.53-.36-.85-.47-.26-.08-.52-.1-.78-.08.05-.52-.26-2.01-.32-2.22-.32-1.19-.99-2.47-1.68-3.48-.53-.78-1.34-1.31-2.29-1.2-1.16.13-1.67,1.12-2.1,2.02-.04.08-.03.17,0,.23-.75-.06-1.45.2-1.89.96-.56.99-.54,2.13-.32,3.21-.43.25-.77.62-1.04,1.05-.5-1.47-1.69-2.98-3.17-3.16-1.04-1.98-3.47-3.13-5.3-1.46-1.41,1.28-1.21,3.33-.66,5.08-.68-.79-1.46-1.48-2.46-1.89-.99-.41-2.18-.42-2.87.5-.89,1.19-.31,2.99.33,4.13.9,1.59,2.5,2.76,3.98,3.76.09.06.19.04.26-.02.11.25.24.48.36.71-2.34-1.6-4.31-4.07-7.15-4.72-1.05-.24-1.93.04-2.57.84-.94-.48-2.09-.91-3.07-.36-.92.51-1.34,1.55-1.08,2.57.3,1.22,1.12,2.07,2.18,2.69.16.1.33.18.51.24-.05.16.07-.15-.29.02-.23.11-.39.37-.53.57-.46.68-.5,1.64-.48,2.42.02.79.07,1.57.66,2.17.49.5.98.71,1.57.89-.28.14-.56.29-.83.45-1.55-.39-3.44-.22-4.6.97-.48.5-.63,1.42-.44,2.07.08.28.61,1.71.95,1.4-.01,0-.02.02-.02.03-.2.16-.39.34-.56.55-.45.52-1.13,1.35-.86,2.11.7,1.96,3.47,1.94,5.14,1.77.22-.02.44-.05.66-.08-.06.02-.1.06-.12.13-.11.6-.13,1.13-.12,1.73,0,.2.04.48.18.67-1.39.99-2.58,2.41-2.63,4.18-.05,1.89,2.32,1.75,3.61,1.91-.03.12-.05.24-.07.36-.13.96.02,1.45.53,2.22.32.49,1.02.42,1.52.4.66-.02,1.39-.08,2.01-.36.02.2.06.65.05.69-.01.03-.02.06-.02.09-.69,1.31-.98,2.64.21,3.77.53.5,1.13.51,1.81.47.31-.02.67-.07.95-.21.31-.15.62-.46.93-.66-.04.06-.09.11-.13.17-.28.39-.66.98-.81,1.57h.48c.13-.42.35-.84.53-1.12.69-1.06,1.73-1.94,2.62-2.83,1.78-1.77,2.98-3.99,4.53-5.94,1.6-2.01,3.14-3.93,4.29-6.26.13.1.28.17.44.2.03.07.07.11.12.15-1.49,2.41-2.61,5.01-3.6,7.66-.52,1.4-.98,2.82-1.41,4.25-.13.44-.25.89-.36,1.34-.63.57-1.06,1.31-1.64,1.93-.2.22-.42.43-.64.63h.49c.58-.64,1.11-1.35,1.65-2.01-.17.68-.34,1.35-.56,2.01h.43c.23-.78.42-1.57.64-2.36,1.27-4.64,2.93-9.28,5.48-13.38.02-.04.03-.08.03-.12.04-.02.08-.04.12-.07-.07.26-.04.55.09.81.03.05.05.09.08.13-.02.05-.03.11.01.18.4.71.24,1.52.26,2.3.02.69.25,1.37.28,2.07.02.44-.27.98-.14,1.42.15.51.02,1.17-.06,1.68,0,.03,0,.05,0,.07-.64,1.48-1.22,2.98-1.78,4.51-.33.91-.63,1.82-.86,2.75h.41c.36-1.48.95-2.9,1.46-4.33,1.09-3.05,2.52-5.95,4.16-8.74.28.18.63.31.93.26-.16,3.35-.48,6.66-1.12,9.96-.19.97-.43,1.92-.74,2.85h.43c.12-.36.22-.73.32-1.09,1.02-3.83,1.39-7.93,1.45-11.88.02-.01.03-.02.04-.04.02.04.04.08.07.12.2.32.54.47.88.48-.02.03-.04.05-.06.08-.03.05.03.1.07.09,0,.62-.06,1.22-.07,1.84,0,.41-.09.71-.03,1.13.04.33.12.65.2.97.02.11.18.06.16-.05-.08-.37-.15-.74-.2-1.12-.05-.37.05-.75.05-1.12,0-.58.06-1.14.05-1.72,0,0,.01,0,.02,0,.01,0,.02,0,.02-.02-.02-.03-.03-.05-.04-.07v-.02s0-.01,0-.02c.11-.01.23-.04.33-.09,0,0,0,0,0,0,.28,0,.49-.17.63-.39.01.87.03,1.75.05,2.62,0,.27-.09.51-.08.79.02.29.08.58.11.87.03.27.09.52.12.78.03.23-.07.48-.08.72-.02.23.1.49.12.71.02.23.01.48.02.71,0,.3.16.67.2.97.05.32.08.65.12.97.17,1.22.47,2.42.65,3.65.01.09.15.09.15,0-.11-1.17-.43-2.3-.57-3.46-.07-.59-.14-1.19-.26-1.77-.11-.52-.07-1.05-.2-1.56-.07-.28.03-.5.04-.77.01-.28-.08-.5-.11-.78-.04-.29-.06-.58-.1-.87-.04-.29.02-.53.05-.81.08-1.01-.02-2.07-.08-3.1.03-.11.05-.23.05-.34.1.09.22.16.35.22.27.1.5.06.67-.06-.01.17,0,.35.05.51.04.14.12.27.22.36.45,1.59,1.05,3.12,1.38,4.74.33,1.64.77,3.22,1.13,4.84.22.99.41,1.97.59,2.96h.5c-.37-1.96-.98-3.85-1.39-5.8-.23-1.07-.38-2.16-.64-3.23-.13-.54-.29-1.07-.46-1.61,1.74,3.14,3.62,6.16,4.94,9.53.14.36.28.73.42,1.1h.48c-1.42-4.29-3.85-8.29-6.14-12.12-.06-.1-.15-.12-.24-.1,0-.03-.02-.05-.03-.08.24.02.48-.06.64-.26.28-.09.53-.3.66-.57,0,0,0,0,0,0,.04,0,.08,0,.12,0,.08.29.07.63.22.89.34.62.84,1.13,1.22,1.74.42.67.76,1.44,1.23,2.08.21.28.52.49.71.78.22.33.35.71.48,1.08.03.07.13.04.11-.04-.16-.65-.43-1.13-.9-1.6-.32-.32-.51-.7-.72-1.1-.24-.44-.54-.85-.79-1.29-.38-.67-1.12-1.21-1.32-1.97-.05-.19-.09-.4-.15-.59.23-.03.43-.09.61-.28.15-.16.3-.31.42-.49.1-.11.2-.23.27-.36.52.72,1.21,1.36,1.77,2.04.93,1.14,1.79,2.32,2.63,3.52.72,1.04,1.44,2.08,2.16,3.12.2.54.57.99.74,1.55.03.1.07.2.1.29,0,.04,0,.07,0,.11.21.52.41,1.04.6,1.57,0,.01,0,.02,0,.04,0,.03.02.06.04.08.11.3.22.6.33.9.12.35.25.7.37,1.04h.5c-.11-.36-.24-.72-.38-1.08,1.33.54,2.87.35,3.57-1.07Zm5.89-7.39c.11.95-.39,1.88-1.04,2.53-.89.88-2,.65-3.08.39-1-.24-1.98-.27-2.87-.85-.04-.03-.09-.03-.12-.02-1.12-1.48-2.86-2.61-4.29-3.68-1.89-1.41-3.9-2.63-5.94-3.8.09-.11.17-.23.23-.37.15-.35.22-.73.15-1.08.5.42,1.05.79,1.53,1.24.71.65,1.44,1.25,2.18,1.85,1.22,1,2.73,1.57,4.25,1.93,1.84.43,3.35,1.19,5.28.95.99-.12,1.97-.43,2.82-.94.38.59.82,1.21.9,1.87Zm-23.11-20.19c-.05,0-.1-.01-.16-.01.1-.53-.11-1.19-.12-1.67-.02-1-.24-1.97-.3-2.97,0-.08-.12-.07-.12,0,0,.83.15,1.59.23,2.41.04.43.03.85.09,1.28.05.31.12.64.08.96-.36.04-.72.24-.85.58-.04.11-.06.22-.05.33-.22-.07-.45-.07-.68-.01.04-.25-.07-.51-.32-.73-.05-.05-.1-.08-.16-.12,0-.02.01-.04.01-.06-.02-1.38-.32-2.75.06-4.07.04-.02.06-.06.07-.12v-.09c.06-.17.13-.34.21-.51.65-1.29,2.33-2.66,3.79-1.86.66.36,1.11,1.07,1.43,1.84,0,.01,0,.02.02.04.22.52.37,1.07.49,1.53.37,1.47.2,3.03-.38,4.43-.03.02-.05.03-.08.05-.09-.28-.26-.5-.54-.62-.4-.17-1.04-.07-1.46.2-.04-.33.08-.68.18-.99.13-.41.02-.94.08-1.37.12-.87.23-1.76.27-2.64,0-.09-.14-.1-.15-.02-.14.92-.24,1.88-.3,2.8-.03.48.03.96-.09,1.43-.07.27-.12.56-.07.83-.07.05-.13.11-.18.17,0-.06,0-.13-.02-.2-.12-.47-.52-.76-.99-.83Zm.81,1.51c-.01.09-.01.19,0,.28-.04-.05-.09-.1-.14-.15.05-.04.1-.09.14-.14Zm-.8.36c.58-.05.75.75.5,1.17-.19.16-.35.27-.61.21-.22-.05-.42-.2-.5-.41-.16-.43.18-.93.61-.97Zm-.72-1.09c.06-.27.44-.36.67-.32.54.08.86.68.34.99-.19-.05-.39-.05-.6,0-.17-.21-.47-.37-.4-.67Zm-1.44.72c.23-.18.47-.24.76-.19.24.05.54.3.54.53-.02.03-.03.05-.05.08-.08-.01-.17.02-.23.1-.08.12-.17.27-.31.32-.12.05-.41-.02-.54-.05-.47-.11-.54-.51-.18-.79Zm-.25-.39c-.09-.05-.2-.05-.28.02-.12.11-.35.03-.48-.03-.2-.1-.19-.4-.07-.56.17-.22.43-.22.66-.1.3.15.4.42.17.66Zm13.92-.31c-.68.44-1.32.94-2.02,1.36-.75.46-1.61.75-2.47.97-.66.17-1.31.31-1.97.42-.23.04-.48.12-.64.27-.05-.01-.1-.03-.15-.04.04-.05.08-.11.1-.17.3-.21.68-.41.99-.57.43-.23.85-.49,1.28-.72.81-.44,1.52-1.04,2.21-1.65.06-.06-.03-.17-.09-.12-.77.61-1.51,1.24-2.37,1.71-.43.24-.84.51-1.27.74-.23.12-.47.26-.69.42.04-.18.03-.39,0-.57-.04-.26-.16-.52-.3-.73-.18-.26-.36-.28-.66-.3-.06,0-.12,0-.18,0,.02-.05.04-.09.05-.14.02,0,.04,0,.06-.02.01,0,.02-.01.03-.02.05,0,.09-.02.12-.07,1.02-.56,2-1.22,2.96-1.88,1.03-.71,2.08-1.31,3.16-1.95,1.08-.64,2.44-1.21,3.72-1.24,2.08-.04,2.02,2.08,1.42,3.49-1.18.86-2.2,1.95-3.44,2.74-1.94,1.24-3.89,1.43-6.12,1.59-.03,0-.05,0-.08.02-.05-.06-.1-.12-.15-.18-.15-.15-.32-.25-.5-.32.31-.23.86-.22,1.19-.22.3,0,.69-.18.99-.25.39-.09.78-.19,1.16-.3,1.4-.42,2.59-1.28,3.74-2.15.08-.06,0-.19-.08-.13Zm.58-4.57c-1.43.35-2.7,1.16-3.98,1.85-1.45.78-2.81,1.78-4.19,2.7.21-.54.34-1.1.41-1.67.07-.02.13-.06.15-.16.27-1.06.84-1.9,1.37-2.83.63-1.11,1.35-2.03,2.44-2.71.92-.57,2.27-.83,3.27-.35.62.3.71,1.05.81,1.64.1.6,0,1.01-.28,1.52Zm-5.75-1.75c-.51.6-.87,1.33-1.26,2-.26.44-.53.87-.73,1.33-.03-.51-.12-1.02-.24-1.53-.09-.36-.21-.74-.36-1.11.29-.21.36-.47.57-.85.29-.5.74-.85,1.18-1.2.19-.16.38-.31.59-.44.46-.31,1.79-.58,1.76.48-.56.35-1.06.8-1.5,1.33Zm-5.34,7.78c.08.11.18.21.31.28,0,0,.01,0,.02,0-.12.05-.24.13-.35.22.03-.14.04-.28.03-.4,0-.04,0-.08-.01-.11Zm-.05,1.32c.08-.18.26-.37.39-.5.27-.27.51-.14.69.13.1.15.21.33.28.5.09.24-.09.38-.15.58-.09.05-.17.09-.27.11-.04-.04-.09-.06-.16-.05-.46.07-1.01-.23-.78-.76Zm.34-2.09c.06-.39.55-.46.86-.47.2,0,.34-.06.52.07.26.19.28.55.08.77,0,0,0,0,0,0-.13.04-.26.11-.37.23,0,0-.01.02-.02.02-.51.17-1.19.06-1.08-.63Zm1.42.98s.09-.09.13-.14c.14-.08.67-.11.8-.04.31.17.61,1.21.16,1.33-.09.03-.13.09-.13.16-.1.02-.19.04-.29.08-.04-.04-.08-.06-.15-.05-.49.05-.58-.52-.6-.87,0-.16-.01-.33.06-.47Zm.38,2.26c.22-.52,1.02-.59,1.43-.35.23.14.38.34.44.55,0,.02-.02.04-.02.07,0,.1-.03.27-.09.4-.06-.02-.14,0-.2.07-.23.28-.49.44-.85.46-.18.01-.35-.04-.51-.11-.46-.21-.37-.7-.21-1.08Zm2.73,1.13s.05.03.07.04c0,.07.05.14.12.17.07.19.04.44,0,.61-.05.22-.16.44-.32.61-.02-.02-.05-.04-.08-.05-.34-.11-.61-.26-.73-.62-.12-.39.57-.91.92-.76Zm.65.21c.44-.02.87-.02,1.32.03.34.04.7.22,1.04.22.57.01,1.14.09,1.66.33.2.09.44.16.66.15.94-.03,1.71.29,2.61.52.36.09.66.15.96.32-.1,0-.2,0-.31,0-2.45-.06-5.12-.12-7.52.46-.01,0-.02.01-.03.02-.14-.24-.33-.43-.58-.55-.09-.04-.18-.07-.27-.09.28-.27.46-.64.49-1.04,0-.13,0-.25-.03-.37Zm-.17,2.07c.32.28.75,2.41.02,2.27-.07-.01-.12.01-.16.05-.21-.01-.39,0-.54.06-.04-.04-.09-.06-.16-.05-.96.11-1.33-.97-.97-1.72.28-.59,1.24-1.11,1.81-.61Zm-1,3.33c.17-.32.29-.52.68-.54.13,0,.25,0,.38.02.24.04.25.33.28.52.02.19,0,.37-.05.55-.05.2-.36.67-.62.64-.03,0-.05,0-.08,0-.02-.02-.05-.04-.07-.05-.05-.04-.11-.04-.16-.02,0,0,0,0-.01,0-.02-.01-.05-.03-.07-.04-.02-.02-.04-.05-.07-.06-.14-.07-.2-.28-.25-.41-.1-.23-.07-.38.04-.59Zm17.44,5.87c-.12.13-.26.25-.4.36-.01-.02-.02-.04-.04-.06-.02.03-.04.05-.07.06-.07.04-.12.08-.18.12,0,0,0,0-.01.01-.03.02-.05.05-.07.07,0,.01.01.02.02.04-1.06.65-2.45.88-3.62.93-1.61.07-3.27-.77-4.8-1.17-1.61-.42-2.93-1.26-4.23-2.27-.58-.45-1.1-.97-1.65-1.46-.42-.38-.89-.67-1.35-.99.11-.05.21-.11.3-.2,1.08.78,2.18,1.55,3.35,2.17,1.21.64,2.51.95,3.84,1.19,1.46.26,2.9.58,4.39.57.73,0,1.5-.2,2.24-.28.37-.04.75-.05,1.12-.05.47,0,1.97.12,1.17.96Zm1.92-3.72c.41,1.19-.58,2.03-1.51,2.53-.04-.02-.07-.03-.12-.05-1.79-.58-3.74.21-5.56.14-1.89-.07-3.98-.52-5.79-1.06-1.8-.54-3.19-1.81-4.78-2.75.1-.19.17-.4.19-.6.03-.28.01-.54-.06-.76.11.06.23.09.37.13.41.12.82.23,1.23.33.51.12,1.02.24,1.52.37.62.17,1.13.46,1.7.72.36.16.8.19,1.19.27.43.09.84.22,1.27.33.84.23,1.73.4,2.58.13.09-.03.05-.16-.04-.14-.9.19-1.79,0-2.66-.24-.37-.1-.73-.21-1.1-.29-.43-.09-.89-.14-1.29-.32-.36-.16-.65-.37-1.03-.49-.44-.14-.88-.25-1.33-.35-.42-.1-.83-.18-1.25-.28-.34-.09-.99-.12-1.24-.42-.02-.02-.04-.02-.06-.02-.04-.05-.08-.1-.13-.14.29-.22.39-.73.42-1.08.03-.33,0-.7-.12-1.05,1.86-.29,3.69-.37,5.56-.4,1.86-.03,3.65,0,5.47.41,1.91.44,3.52,1.45,4.91,2.81.68.67,1.34,1.34,1.66,2.26Zm-.02-6.45c1.39,1.29.47,3.51-1.22,3.9-.9-.87-1.97-1.59-2.97-2.19-1.43-.86-3.37-1.12-5.09-1.21-.01-.08-.07-.15-.17-.14,0,0-.37-.32-.42-.36-.02,0-.03-.02-.05-.02,1.89.07,3.78-.32,5.48-1.22.16-.08.33-.18.49-.29.03.05.07.08.13.09,1.24.29,2.88.54,3.83,1.43Zm-3.38-8.37c.9.14,1.69.59,2.04,1.48.32.82-.09,1.78-.45,2.5-.61,1.2-1.74,2.13-2.88,2.79-2.21,1.27-4.95,1.42-7.4.95-.04,0-.07,0-.1.01-.36-.1-.73-.18-1.14-.17-.44,0-.79-.2-1.2-.32-.51-.14-1.05-.11-1.55-.25-.74-.21-1.54-.26-2.3-.13-.12-.14-.29-.24-.5-.27.32-.03.64-.03.94-.08.33-.06.65-.13.98-.16.32-.03.71.09,1.03.14.23.04.41-.07.64-.09.36-.04.73-.02,1.09,0,.64.03,1.28.04,1.93.04.54,0,1.11-.11,1.62-.31.21-.08.43-.07.65-.07.28,0,.55-.1.82-.18.58-.15,1.13-.32,1.66-.58.52-.26.94-.74,1.36-1.12.05-.05-.02-.14-.08-.09-.45.37-.87.78-1.38,1.07-.59.34-1.29.46-1.94.63-.29.08-.57.09-.87.1-.21,0-.37.11-.58.18-.65.21-1.33.2-2,.19-.58,0-1.16-.05-1.74-.06-.63-.01-1.23.15-1.86,0-.55-.12-1.15.16-1.69.2-.32.03-.66.05-.97.13.05-.18.05-.38,0-.57,2.92.03,5.37-.87,7.69-2.66,1.16-.9,2.09-1.9,3.42-2.58.42-.22.86-.39,1.31-.52.05.01.12,0,.16-.04,0,0,0,0,0,0,1.07-.28,2.21-.33,3.3-.17Zm-3.46-3.92c1.57.79.53,2.55,0,3.66-.65.18-1.27.44-1.88.75-.19.1-.38.21-.56.32.34-.85.44-1.75-.04-2.64-.23-.42-.64-.67-1.1-.8.5-.32.96-.75,1.45-1.07.07.02.14,0,.18-.09,0-.01.01-.03.02-.04.57-.33,1.18-.48,1.93-.1Zm-3.02-5.24c1.08.23,1.39,1.64,1.46,2.53.08.91-.24,1.66-.61,2.46-.76.45-1.49,1.09-2.08,1.38-.03.02-.05.03-.07.05-.29-.01-.58,0-.83.04-.01,0-.02,0-.03,0,.13-.2.22-.4.25-.7.06-.59-.13-1.33-.32-1.88-.26-.77-1.04-1.09-1.81-1.15.69-1.38,2.34-3.1,4.03-2.74Zm-7.1-6.11c.83-1.34,2.57-2.22,4.09-1.56,1.38.6,1.75,2.34,1.83,3.67.1,1.57-.34,2.9-1.27,4.15-.9.62-1.66,1.56-2.03,2.41-.03.06-.03.12-.01.17-.14,0-.27.01-.39.03-.09.01-.19.03-.28.05.29-.32.51-.76.72-1.07.43-.65.62-1.45.86-2.18.23-.72.36-1.47.57-2.2.23-.76.47-1.47.53-2.28,0-.04-.07-.05-.07,0-.2,1.35-.78,2.58-1.01,3.92-.13.73-.45,1.54-.74,2.22-.14.33-.35.64-.53.95-.12.21-.27.47-.45.68-.38.08-.73.2-1.07.36.19-.18.32-.43.41-.66.21-.54.4-1.09.56-1.65.02-.07-.09-.1-.11-.03-.14.41-.28.82-.43,1.22-.14.37-.27.87-.61,1.12-.03.02-.03.07,0,.09-.01,0-.03.01-.04.02-.03-.3-.19-.54-.4-.71.06-.26.19-.4.28-.67.1-.31.2-.61.3-.92.22-.68.47-1.35.75-2,.23-.53.23-1.13.3-1.69.03-.24-.01-.51-.02-.75-.01-.38.1-.72.06-1.1,0-.07-.11-.07-.11,0-.02.3-.1.64-.1.92.01.35.05.72,0,1.07-.08.66-.18,1.22-.39,1.85-.21.63-.46,1.23-.65,1.88-.12.42-.35.86-.44,1.3-.02-.04-.05-.06-.1-.08.47-1.54.48-3.57-.56-4.86-.28-.35-.64-.51-1.03-.55.59-.97.98-2.12,1.58-3.09Zm-.43,4.8c.43,1.09.31,2.52.07,3.65-.39-.1-.84-.06-1.23.15-.66.37-1.28.86-1.79,1.42-.12.13-.22.27-.31.42.05-.3.08-.62.11-.94.09-.84.13-1.67-.09-2.49-.19-.71-.52-1.41-1.01-1.94,1.3-.87,3.35-2.59,4.25-.28Zm-5.96-.06c1.28-.11,1.96,1.43,2.27,2.41.32,1.01.3,2.73-.11,3.88-.43-.82-1.05-1.54-1.87-1.87-1.4-.56-2.9.68-3.68,1.71-.02.03-.04.06-.06.09-.03-1.23-.17-2.44.31-3.64.14-.34.32-.67.53-.97.03-.02.06-.04.07-.09.62-.82,1.52-1.42,2.54-1.51Zm-6.21-5.16c.31-.53.36-.96.93-1.35.72-.51,1.39-.53,2.09,0,.67.5,1.09,1.44,1.44,2.17.46.94.87,1.88,1.02,2.92.04.32.03.67.09,1-.72.19-1.4.67-1.9,1.21-.07-1.16-.41-2.39-.84-3.41-.45-1.07-1.34-1.94-2.44-2.34-.14-.05-.28-.09-.42-.12.02-.02.03-.03.04-.05Zm-2.01,1.43c.59-1.4,1.99-.99,3-.41,1.66.96,2.1,3.48,2.35,5.29-.03.04-.06.08-.09.12-.58.82-.85,1.68-.97,2.59-.22-.88-.52-1.72-.93-2.53-.65-1.28-1.97-2.98-3.52-2.52-.13-.86-.2-1.7.15-2.53Zm-1.19,4.11c.22-.49.47-.81.74-.99.12.05.28-.03.32-.16,1.35-.43,2.96,2,3.47,3.18.57,1.34.76,2.77.95,4.19.01.1.02.21.03.31,0,.02,0,.04.02.06-.62,1.42-.48,3.17-.22,4.66-.26-.01-.51.07-.73.26-.25.22-.32.6-.22.92-.28-.07-.56.02-.8.19.01-.35-.11-.73-.3-.99-.31-.44-.9-.62-1.39-.48.03-.05.04-.11.02-.19-.58-1.82-1.4-3.57-2.05-5.36-.72-1.96-.7-3.69.17-5.58Zm4.56,13.41c-.05.02-.1.07-.12.14-.07.31-.21.52-.55.51-.44,0-.57-.38-.38-.72.14-.26.48-.53.79-.46.18.04.19.3.23.44,0,.02.02.05.03.09Zm-1.41-.74s-.07.03-.1.06c-.33.35-.79.43-1.24.24-.39-.17-.29-.78-.14-1.08.24-.47.84-.33,1.16-.04.19.17.33.51.32.82Zm-5.38-14.95c.76.58,1.25,1.53,1.52,2.45-.49,1.12-.58,2.51-.45,3.54.15,1.2.63,2.34,1.06,3.46.51,1.3,1.01,2.62,1.54,3.92.04.09.11.14.19.15-.1.05-.2.13-.28.22-.02.03-.04.05-.07.08-.18-.41-.62-.53-1.02-.4-.72-.62-1.22-1.49-1.71-2.29-.52-.84-1.09-1.58-1.52-2.48-.45-.95-1.33-2.13-2.38-2.74-.05-.98-.59-1.83-.65-2.84-.06-.98-.07-1.93.4-2.82.72-1.36,2.34-1.02,3.35-.26Zm2.39,16.84c-.2.11-.33.25-.57.22-.24-.03-.56-.27-.7-.45-.41-.56.41-1.04.86-1.04.1,0,.18.02.26.04.04.02.07.03.1.04.35.2.29.73.12,1.16-.02,0-.05.01-.07.02Zm.21,1.11c.29.22.4.71.27,1.07-.03,0-.07.02-.1.05-.03.03-.06.06-.09.09,0,0-.01.01-.02.02-.05-.02-.1-.03-.17-.01-.63.21-.94-.46-.72-.99.15-.35.53-.46.83-.22Zm-6.91,8.16c.17-.14.33-.29.54-.37.17-.06.41-.05.59-.09.29-.06.55-.16.85-.19.16-.01.28.01.44-.03.29-.07.59-.35.83-.52.32-.23.76-.28,1.12-.44-.04.07-.08.14-.11.21-.14.41-.08.82.14,1.15-.03,0-.05.02-.08.03-1.6.92-3.36,1.47-4.95,2.4-1.41.83-2.71,1.6-3.97,2.67-.52.44-1,.91-1.47,1.39,0,0,0,0-.01,0-1.29.9-3.16,1.06-4.7.81-1.32-.21-1.93-1.18-1.24-2.45.55-1.02,1.7-1.71,2.67-2.27,4.05-2.36,8.62-3.15,13.03-4.55.13.15.3.27.47.37.1.06.21.09.34.1-.02.02-.03.04-.04.06-.01-.01-.03-.02-.05-.01-.39.17-.81.24-1.18.44-.42.22-.7.57-1.22.51-.43-.05-.92.2-1.34.23-.3.02-.54.23-.72.45-.05.06.03.13.09.09Zm-14.17.08c2.57-.33,5.15-.94,7.66-1.51,3.11-.71,6.17-1.59,9.13-2.76.01,0,.02-.01.03-.02.04.03.07.06.12.08.12.06.28.06.4,0,0,0,.02,0,.02.01.09.02.17-.04.24-.09.11-.06.19-.17.23-.29,0,0,.02.01.02.02.07.04.15.08.24.11-.07.05-.14.11-.2.18-.28.31-.38.94-.34,1.34,0,.07.02.13.04.2-2.83.83-5.71,1.49-8.49,2.48-2.05.74-4.46,1.68-6.17,3.19-.81-.05-1.64-.2-2.39-.52-.02,0-.03-.01-.04-.02-.03-.09-.1-.16-.21-.15,0,0-.01,0-.02,0-.2-.2-.18-.46-.19-.82,0-.43.1-.84.09-1.26,0-.11-.09-.18-.19-.19Zm17.05-4.83c0-.06.14-.22.23-.18.1.05.23.22.21.33,0,.03-.02.05-.03.07-.04-.03-.1-.05-.17-.03-.06.02-.12.03-.17.03,0,0-.01,0-.02,0,0,0,0,0-.01-.01-.03-.06-.05-.14-.05-.2Zm1.27,2.28c-.4-.32-.32-1.22.09-1.51.34-.24.86-.07,1.13.19.17.16.27.37.31.59-.09,0-.17.05-.2.15-.06.24-.09.44-.3.6-.31.24-.73.23-1.03,0Zm.46-2.49c-.15.28-.44.16-.67.04-.44-.22-.43-.88-.14-1.22.27-.33.69-.33.94,0,.14.18.2.4.2.62-.05.01-.1.04-.12.1-.06.15-.13.31-.21.46Zm-.42-2.37c-.48-.24-.33-.91-.07-1.25.27-.35,1.14-.52,1.36-.04.05.11.1.46.06.72-.02,0-.04.02-.06.04-.15.17-.27.35-.43.52-.23.24-.61.13-.86,0Zm-.45-2.29c-.02-.24.11-.45.33-.54.03-.01.05-.02.08-.02,0,.01.01.03.02.04.02.04.08.02.09-.02.1.05.14.2.14.35,0,.18-.13.37-.26.53-.2-.04-.37-.1-.4-.35Zm2.35-1.4c-.11,0-.21.03-.31.06-.18.05-.34.14-.48.26-.47-1.28-1.59-2.39-2.32-3.52-.44-.68-.85-1.39-1.21-2.12-.45-.9-.59-1.87-.84-2.82-.07-.26-.16-.51-.28-.76,1.57.7,2.29,2.43,3.14,3.83.46.75,1,1.47,1.49,2.21.34.51.74,1.03,1.26,1.36,0,0-.02,0-.02.01-.48.36-.67.98-.43,1.51Zm.38-.39c-.03-.28.17-.59.38-.75.57-.44.82.52.54.99,0,0,0,0,0,0-.11.09-.24.27-.39.29-.23.03-.5-.34-.52-.53Zm-9.22-15.74c.32-1.22,1.49-2.08,2.74-1.93,1.03.13,1.9.92,2.46,1.77-.31.03-.63.11-.96.27-.9.44-1.33,1.53-1.42,2.47-.06.65-.02,1.27.02,1.92.05.79.42,1.47.61,2.21-.13-.05-.26-.09-.39-.11-.35-.54-.79-1.02-1.31-1.35-.25-.16-.57-.32-.9-.44-.03-.06-.08-.11-.15-.13-.14-.02-.54-1.57-.63-1.89-.25-.92-.32-1.87-.07-2.79Zm-5.39,2.77c.36-1.44,2.13-.94,3.03-.47,1.01.52,1.78,1.45,2.48,2.35-.41-.02-.8.08-1.11.39-1.1,1.11-.88,2.81-.3,4.32-2.11-1.51-4.83-3.67-4.11-6.59Zm4.45,5.97c-.31-.99-.54-2.71.45-3.42.3-.22.64-.26.99-.17,0,0,.01,0,.02,0,.05.04.1.05.15.04.78.27,1.55,1.09,1.95,1.66.01.05.04.09.08.13,0,.01.02.03.03.04.69,1.09.73,2.48,1.22,3.66.42,1,1.02,1.92,1.61,2.82.71,1.08,1.73,2.08,2.24,3.27-.17.3-.22.66-.09.99-.1,0-.19,0-.29.01.12-.18.19-.39.15-.63-.03-.23-.14-.4-.29-.51-.02-.08-.07-.15-.16-.19-.18-.07-.37-.13-.55-.19-.14-.1-.28-.21-.4-.32-.16-.15-.35-.27-.51-.42-.16-.16-.28-.35-.45-.5-.34-.31-.7-.56-1-.91-.32-.38-.5-.72-.69-1.18-.16-.39-.45-.73-.69-1.07-.54-.75-1.09-1.47-1.5-2.31-.03-.07-.15-.02-.12.06.31.76.78,1.41,1.27,2.06.29.38.57.77.81,1.18.22.38.31.76.59,1.12.25.32.5.59.82.85.36.29.65.63.98.94.11.11.24.22.37.32-.95-.35-1.85-.74-2.7-1.4-1.03-.8-1.9-1.82-2.68-2.85-.71-.93-1.27-1.96-1.62-3.07Zm-9.38-1.17s0-.09.01-.13c.03-.12.12-.21.21-.28.05-.04.11-.07.17-.1,0,0,0,0,0,0-.02-.02-.04-.04-.08-.06,0,0,0,0,0,0,.74-.84,2.3-.61,3.39-.08,2.34,1.13,4.05,3.24,6.27,4.57.06.03.11.04.16.03.01.02.03.04.04.06,1.61,2.45,3.75,4.3,6.52,5.18-.08.07-.16.16-.21.26-2.99.34-5.75-.22-8.66-.87-.29-.06-.57-.14-.85-.21,0,0,0,0,0,0-.03,0-.07,0-.11,0-.11-.01-.2-.07-.28-.13-.02,0-.03,0-.05,0-2.29-.71-4.23-1.92-5.58-4.06-.65-1.02-1.06-2.2-1.06-3.41,0-.29.04-.53.1-.75Zm-2.93,2.87c-.84-.82-1.25-2.24-.48-3.23.74-.97,2.09-.49,3.06-.02-.49,1-.14,2.38.21,3.34.16.45.37.87.6,1.27-.07,0-.15,0-.24-.01-1.24,0-2.27-.49-3.15-1.34Zm.61,4.79c-.04-.82-.07-2.56.93-2.9.02-.03.04-.07.07-.1.06-.07.15-.1.24-.09,0-.02.02-.05.02-.07.32.08.64.12.97.15.26.02.61.11.9.14,1.13,1.64,2.8,2.81,4.68,3.55-.09.02-.19.03-.28.05-.21-.03-.42-.03-.63-.03-.21,0-.41,0-.63-.04-.2-.04-.42-.21-.61-.28-.79-.29-1.68-.3-2.51-.4-.07,0-.1.1-.03.11.88.14,1.82.14,2.65.47.29.12.48.23.8.25.2.02.39,0,.58,0-.85.18-1.68.45-2.51.75-.78.29-1.58.58-2.35.93-1.31-.42-2.21-.93-2.29-2.48Zm1.59,3.37c2.16-1.17,4.88-2.16,7.35-2.31,1.54.46,3.2.73,4.76,1.02,1.66.3,3.34.3,5-.01-.02.08-.03.16-.03.25,0,.03,0,.05,0,.08-.24-.03-.59.06-.74.07-.84,0-1.62.3-2.45.35-.39.02-.77.16-1.14.28-.5.15-1.06.11-1.57.17-.43.05-.9.25-1.33.1-.42-.15-.84-.22-1.29-.2-.08,0-.08.12,0,.12.43.02.84.09,1.25.22.29.09.58.05.88,0,.74-.11,1.56-.1,2.28-.33.7-.22,1.45-.28,2.17-.44.39-.09.81-.14,1.21-.17.12,0,.51-.09.76-.07.05.18.17.35.32.46-.21.05-.42.18-.6.26-.25.11-.64.05-.91.05-.23,0-.54.17-.75.24-.6.19-1.23.21-1.85.28-.69.09-1.35.28-2.05.3-.32,0-.66.13-.98.09-.25-.03-.48-.06-.74-.05-.66.04-1.25.39-1.89.46-.58.06-1.12.38-1.69.44-.33.03-.64.11-.97.09-.39-.02-.78-.1-1.17-.13-.08,0-.09.13-.01.14.59.1,1.18.2,1.78.15.51-.05,1.13-.21,1.61-.38.55-.2,1.15-.34,1.72-.49.39-.1.77-.14,1.17-.1.25.03.48.1.73,0,.3-.12.72-.06,1.04-.09.26-.02.52-.08.78-.13.7-.15,1.41-.2,2.12-.31.53-.08.99-.36,1.54-.38.2,0,.39.01.58-.06.09-.04.17-.08.26-.12.04-.02.08-.04.13-.06.1-.09.19-.12.27-.08-.19.26-.32.58-.33.9-.11-.03-.23-.02-.34.04-.15.09-.24.24-.29.4-2.29.93-4.61,1.71-6.97,2.43-2.5.76-5.01.99-7.62.97-1.26-.01-2.67-.08-3.67-.93-1.56-1.33.65-2.93,1.71-3.51Zm17.13,1.14s0,.1-.03.15c-.04,0-.07,0-.1,0-.02-.02-.03-.03-.04-.05,0-.07.04-.16.09-.2.02-.02.05,0,.05-.01.03.03.04.07.04.12Zm-22.49,1.35c-.12-.88.39-1.5,1.09-1.91.84-.48,1.97-.52,2.95-.37-.71.54-1.29,1.27-1.4,2.17-.04.34.05.65.2.93,0,0-.01.02-.01.03-.05-.02-.1-.02-.14,0-.03,0-.06,0-.09,0-.68.13-1.28.37-1.81.73-.51-.28-.73-1.07-.8-1.59Zm1.8,5.76c-1.26-.19-2.83-1-1.99-2.51.61-1.09,1.75-1.72,2.93-1.97.06-.01.1-.04.12-.08.06,0,.12-.01.17-.04,0,0,0,0,0,0,.02,0,.03,0,.04,0,0,0,0,0,0,0,.34.38.8.66,1.23.85,1.15.49,2.55.44,3.77.43,1.6-.01,3.19-.12,4.77-.43,1.59-.32,3.13-.87,4.67-1.36,1.45-.46,2.94-.93,4.28-1.66.02.02.05.04.09.04.07.14.23.2.4.22.05.08.16.11.24.02,0,0,.01-.01.02-.02.14-.02.25-.12.28-.26,0,0,0,0,0-.01.04.04.07.07.11.11.08.06.15.11.23.15-.27.07-.52.24-.68.48-.03.05-.06.1-.09.15-.5.19-1.03.35-1.46.65-.6.42-1.21.65-1.92.78-.36.07-.77.18-1.14.19-.14,0-.24.09-.35.18-.29.25-.68.24-1.03.3-.36.06-.71.13-1.07.21-.06.01-.04.1.02.1.59.02,1.25-.17,1.83-.3.3-.07.41-.35.76-.36.34-.01.69-.13,1.02-.2.63-.13,1.08-.29,1.64-.62.41-.24.78-.47,1.22-.66.15-.06.31-.13.46-.2-.1.24-.13.51-.09.76-.04,0-.07,0-.11,0-.22.03-.38.18-.5.36-.1.14-.08.32-.04.48,0,0,0,0,0,0-4.28,1.6-8.68,2.59-13.15,3.51-2.17.45-4.48,1.05-6.7.71Zm.9,6.51c.21-1.38,1.42-2.56,2.55-3.33.72.33,1.56.46,2.36.46-.23.23-.44.46-.63.71-.74.95-.72,1.95-.11,2.62-.35.64-.7,1.08-.92,1.67-1.37-.22-3.57.03-3.24-2.13Zm7.12,4.72c-.36.14-1.27.35-1.47.35-.72.01-1.35.18-1.87-.45-.57-.68-.38-1.94-.07-2.7.18-.45.55-.75.76-1.18.25.18.55.33.91.42,1.27.34,2.94.22,4.22-.36-.46.41-.96.79-1.36,1.27-.45.53-.68,1.25-.91,1.89-.1.28-.17.5-.2.76Zm15.13-10.17c-.77,1.41-1.56,2.79-2.5,4.1-.9,1.27-2.01,2.37-2.9,3.65-.93,1.35-1.83,2.74-2.94,3.96-.79.87-1.71,1.65-2.49,2.55-.03-.02-.07-.03-.12-.02-.27.06-.42.17-.62.34-.66.55-1.33.62-2.17.64-.8.02-1.51-.95-1.59-1.66-.09-.77.39-1.57.73-2.22.06-.11.01-.22-.07-.27,0-.16-.06-.31-.07-.58-.01-.96.62-2.17,1.23-2.89.46-.55,1.1-.95,1.61-1.45.68-.67,1.31-1.35,2.06-1.95.58-.46,1.17-.94,1.77-1.37.59-.42,1.28-.67,1.9-1.05,1.57-.97,3.36-1.46,4.95-2.39.06-.03.09-.08.1-.13.11.08.23.16.36.21.22.09.5.04.73-.07,0,0,0,.01,0,.02,0,0,0,.01,0,.02-.01.01-.02.03-.01.04,0,0,0,.02,0,.02,0,0,0,0-.01,0-.13.08-.27.15-.41.22-.23.13-.47.24-.7.36-.43.23-.83.48-1.19.8-.44.4-.82.85-1.26,1.24-.18.16-.48.4-.69.53-.18.12-.53.18-.67.34-.34.38-.55.86-.89,1.25-.43.5-.79,1.03-1.29,1.46-.48.42-.92.86-1.45,1.22-.39.27-.71.6-.94,1.01-.04.06.06.11.1.05.6-.9,1.65-1.41,2.4-2.18.42-.43.82-.84,1.19-1.32.31-.41.57-.86.88-1.26.14-.18.41-.26.6-.36.23-.11.36-.27.57-.42.43-.33.82-.71,1.2-1.1.75-.78,1.66-1.16,2.54-1.73,0,.12.02.24.08.35,0,0-.02.01-.02.02Zm.06-1.31c-.11.24-.45.33-.69.28-.41-.09-.51-.63-.42-.96.09-.33.55-.63.88-.47.16.08.26.32.32.48-.02.03-.03.07-.03.11,0,.19.02.38-.06.56Zm1.24,1.52s-.01,0-.02,0c-.03-.09-.11-.16-.22-.17-.29-.02-.69-.14-.61-.52.06-.28.44-.4.68-.36.28.05.5.43.43.7-.04.14-.15.26-.27.34Zm.82,1.04c-.31-.29-.19-.71.14-.9.29-.17.71-.03.9.22.16.22.17.42.08.59-.03,0-.06,0-.1.01-.31.12-.73.36-1.02.08Zm.38,6.89c.02-.17.03-.34.02-.51-.02-.64.11-1.25.09-1.91-.02-.83-.27-1.6-.25-2.43.02-.51.04-1-.13-1.44.36.07.76-.04,1.09-.26,0,0,0,0,.01-.01.07-.05.13-.1.18-.16.02.03.04.06.07.09.18.2.72.48,1,.38.07-.03.13-.06.19-.1-.05.18-.05.37-.04.55.02.33.15.57.36.79-.96,1.64-1.81,3.32-2.59,5.03Zm1.62-7.79c.33-.17.71-.09.85.29.02.04.03.12.05.2-.05,0-.1.02-.14.08-.1.12-.18.25-.29.37-.16.18-.41,0-.57-.08-.41-.22-.23-.68.1-.86Zm2.52,2.13c-.09.35-.41.49-.73.53-.05,0-.08.03-.11.06-.05-.03-.1-.06-.15-.1,0-.1-.1-.19-.2-.2-.24-.3-.36-.7-.15-.98.27-.35.98-.27,1.26,0,.18.16.13.49.08.7Zm1.89.63c-.04.08-.1.16-.16.24-.06-.02-.13-.02-.19.03-.28.19-.6.26-.88.01-.33-.29-.19-.8.13-1.02.35-.24.91-.13,1.07.27.05.13.06.31.02.47Zm.17-1.03s-.08-.08-.13-.11c.06-.01.11-.03.17-.05-.02.05-.03.1-.04.16Zm-.24-.43s-.05-.04-.08-.05c-.15-.05-.31-.07-.45-.13-.25-.11-.29-.27-.24-.52.06-.33.3-.58.64-.63.35-.04.61.27.7.57.13.41-.23.62-.57.75Zm1.5.6c-.08.23-.13.47-.42.41-.25-.06-.39-.27-.36-.52.01-.1.05-.2.12-.28.08-.1.33-.05.45-.06.14,0,.22.12.3.21.02.03.04.06.06.09-.06.02-.12.06-.14.15Zm1.34,1.33s-.02,0-.03,0c-.35.09-.64.18-.76-.25-.11-.39.09-.76.47-.86.31-.08.61.1.78.35.19.27-.19.67-.46.77Zm.3-1.55s0,.04,0,.06c-.25-.09-.53-.12-.76-.08-.11.02-.21.06-.3.1-.03-.27-.19-.53-.43-.67-.12-.07-.23-.11-.37-.11-.09,0-.2,0-.3,0,.04-.12.07-.25.05-.41-.04-.59-.59-1.08-1.18-1.07-.6.02-1.02.52-1.12,1.07-.06.31-.01.65.26.84.02.01.04.02.05.04-.07.02-.13.04-.19.06-.07.03-.13.07-.19.1-.01-.1-.04-.19-.08-.29-.26-.6-1.05-.7-1.63-.5.05-.22.03-.49-.01-.66-.17-.69-.96-.88-1.52-.57-.16.08-.28.19-.37.32-.29-.41-.86-.54-1.35-.39-.06.02-.11.04-.16.06.11-.47-.16-1.03-.63-1.19-.26-.09-.54-.07-.79.03.04-.15.05-.31.03-.46.05-.45-.17-.93-.55-1.19-.05-.03-.09-.05-.14-.07.9-.82.16-2.09-.77-2.35.06-.07.11-.15.15-.23.04-.01.08-.04.11-.09.32-.57.23-1.27-.24-1.73-.04-.04-.08-.07-.13-.1.3-.06.57-.24.76-.5.17.52.65.93,1.26.75.02,0,.05,0,.07,0,.71-.18.88-1.1.61-1.67-.15-.33-.43-.54-.73-.61.45-.36.64-.95.53-1.51-.02-.08-.04-.15-.07-.21.18-.07.33-.22.43-.44.06.15.16.28.29.39.42.33,1.05.35,1.52.11,0,0,.02.01.02.01-.12.5.21.94.75,1.08.48.12.93-.15,1.09-.57.04-.06.08-.12.12-.19.09-.16.05-.31.02-.48-.02-.11-.04-.22-.07-.33.13.04.27.06.41.05-.02.06-.03.12-.04.18-.02.35.15.56.42.76.26.19.68.25.99.23.13,0,.25-.06.35-.13,0,.17.05.34.12.49.26.52.93.69,1.42.46,0,.05-.02.1-.01.15.01.58.53,1.08,1.1,1.06.02.04.07.08.12.08,0,0,.01,0,0,0,.04.02.09.04.14.04.05,0,.09-.03.13-.06.08,0,.16,0,.22-.04.14-.08.28-.19.41-.29.04-.03.07-.06.1-.09-.17.32-.27.82-.16,1.09.14.35.37.62.74.76.41.15.89.14,1.28-.06-.04.11-.06.23-.06.34.02.38.33.8.71.96-.56.23-1.03.75-1.22,1.29-.32.85.26,1.99,1.15,2.11-.09.12-.17.25-.24.4-.14.26-.12.76.06,1.11-.35.09-.67.35-.87.63-.15.22-.43.7-.33.99.02.05.04.09.06.13-.52.06-1.01.52-1.02,1.06Zm1.67.02c-.09.18-.22.29-.35.43-.07.07-.11.14-.16.22,0,0-.01,0-.02,0-.28-.03-.64-.28-.68-.57-.06-.44.45-.78.84-.69.07.02.13.04.19.08.06.06.11.12.16.19.01.02.03.03.05.04.04.1.04.21-.02.32Zm.33-.65s-.03-.04-.05-.06c-.19-.27-.59-.43-.48-.81.14-.49.58-.99,1.13-.85.53.13.39.8.28,1.17-.06.2-.15.32-.27.44-.08.01-.14.07-.17.15-.13.06-.3,0-.44-.04Zm8.63,13.2c-.11-.32-.22-.65-.35-.97-.02-.11-.05-.22-.08-.33-.02-.07-.05-.13-.08-.18-.05-.13-.1-.26-.17-.38-.05-.15-.11-.3-.18-.43-.04-.11-.07-.22-.12-.33-.01-.07-.03-.14-.05-.2-.11-.31-.3-.6-.5-.88-.04-.09-.08-.18-.1-.27-.03-.1-.11-.15-.19-.16-.73-1.08-1.47-2.16-2.22-3.24-.65-.95-1.31-1.91-2.05-2.79-.7-.84-1.52-1.69-2.19-2.58.08,0,.16,0,.26-.05.01,0,.02-.02.04-.02,1.52.94,3.09,1.8,4.57,2.81,1.58,1.07,3.01,2.3,4.52,3.46,1.32,1.02,2.14,2.53,2.49,4.13.18.84.11,1.76-.43,2.44-.75.95-2.06.66-3.05.33-.04-.12-.09-.24-.13-.36Z"/>
      <path class="cls-1" d="m43.11,231.62c.15.06.34.09.5.06.29-.09.59-.09.89,0,.25.11.38.43.63.54.41.19.68.11.98-.12.35.17.78.18,1.02-.14.39-.11.87-.28,1.06-.63.06-.1,0-.21-.03-.31-.06-.19.5-.36.66-.44.23-.11.5-.45.37-.72-.11-.22-.14-.23-.35-.38-.36-.25.09-.76.15-1.01.06-.22-.09-.53-.34-.57-.85-.11-.09-.84-.48-1.24-.21-.21-.23-.22-.5-.32-.41-.15-.58-.32-.69-.77-.07-.31-.53-.49-.81-.41-.45.13-.92.26-1.35,0-.17-.1-.42-.17-.61-.16-.22,0-.34.07-.51.19-.51.36-.9.19-1.41.19-.55,0-.67.71-.85,1.07-.36.74-.78.9-.67,1.81.17,1.52.88,2.78,2.34,3.36Zm.04-.55s-.05,0-.07-.02c-.55-.22-1.03-.68-1.31-1.21.24-.05.44-.2.7-.25.44-.08.85-.2,1.29-.26.38-.05.74-.14,1.13-.15.06,0,.12,0,.18-.02-.34.22-.72.4-1.02.66-.41.35-.68.77-.9,1.25Zm1.89.38c-.19-.15-.37-.32-.56-.35-.35-.06-.71.05-1.06.02.06-.11.11-.22.18-.34.17-.3.4-.54.65-.77.39-.36.92-.57,1.33-.93.01,0,.02,0,.03,0-.13.4-.28.8-.41,1.2-.13.4-.14.77-.16,1.17Zm1.74.08c-.17.02-.34.04-.5.06-.12-.09-.25-.1-.37,0-.23.2-.43.15-.63.03.1-.4.07-.87.18-1.28.13-.48.29-.93.41-1.41.07.18.08.49.09.58.05.32.25.61.43.88.2.3.37.68.59.99-.08,0-.15.04-.19.14Zm1.79-1.63c.21.34-.33.43-.67.63-.19.11-.2.25-.22.45-.02.25-.14.39-.32.5-.24-.53-.61-.99-.93-1.48-.18-.28-.26-.61-.34-.93.51.35,1.09.6,1.67.74.29.07.46.23.77.09.02,0,.03,0,.04-.01Zm-1.03-3.09c.16.03.29.1.26.35-.02.16-.12.3-.11.47,0,.18.02.44.22.53.59.27.46.33.32.91-.05.21.03.46.17.62-.25,0-.46-.1-.7-.16-.51-.13-1.05-.4-1.49-.72.21-.1.41-.26.53-.36.35-.32.71-.8.73-1.29.05-.11.08-.23.09-.35Zm-1.36-.68c.03-.07.06-.15.07-.24.18.06.32.22.4.54.05.22.31.3.49.36.03,0,.07.01.12.01,0,.02,0,.03,0,.05,0,.05,0,.11,0,.16-.02.01-.03.03-.04.06-.06.34-.27.69-.48.96-.09.12-.46.48-.73.57.02-.03.04-.07.04-.1,0-.23-.06-.45-.06-.68,0-.58.14-1.11.19-1.68Zm-.84-.2c.22-.03.45-.08.64-.08,0,.02,0,.04-.01.05-.02.02-.03.04-.04.07,0,.02,0,.05,0,.07,0,.03.01.05.03.07-.31.77-.21,1.66-.17,2.46-.02,0-.03.01-.04.02,0-.04-.01-.09-.02-.13,0-.25-.21-.71-.24-.79-.2-.7-.59-1.54-1.11-2.13.33.05.56.45.97.39Zm-2.35.06c.31.06.65-.07.88-.26.05-.04.09-.07.14-.1.34.43.65.86.9,1.37.01.03.21.46.38.86-.23-.21-.48-.38-.62-.5-.65-.55-1.41-1.05-2.22-1.34.14-.06.31-.07.54-.03Zm-1.21.92c.14-.24.24-.49.39-.68.27.14.57.19.83.39.27.22.63.37.92.57.37.25.71.51,1.04.81.14.13.48.31.56.53-.01,0-.02.01-.02.02-.05-.02-.11-.04-.18-.06-.46-.14-.93-.23-1.4-.35-.51-.14-1.03-.21-1.56-.3-.36-.06-.66-.16-1.02-.14.09-.27.25-.51.42-.8Zm-.48,1.08c.73.1,1.48.17,2.2.33.43.1.85.22,1.28.29.02,0,.62.14.75.18,0,0,0,.01,0,.02-.02.02-.05.05-.07.07-.1.02-.21.05-.31.04-.38,0-.74.02-1.11.09-.45.07-.89.09-1.32.21-.38.11-.7.24-1.06.39-.03-.08-.06-.15-.08-.23-.08-.3-.17-.6-.25-.9-.05-.18-.06-.34-.04-.48Z"/>
      <path class="cls-1" d="m55.34,230.91c.6-.02,1.12-.03,1.71.08,1.03.18,2.06.02,3.09.21.1.02.14-.13.04-.16-1.14-.27-2.28-.07-3.42-.29-.55-.11-1.06-.02-1.61.02-.4.02-.78-.05-1.15.16-.06.03,0,.12.06.09.39-.21.86-.09,1.28-.1Z"/>
      <path class="cls-1" d="m41.61,215.14c.05.39.06.77.13,1.15.07.37.28.68.38,1.05.11.42.13.87.19,1.3.12.92.47,1.76.52,2.7,0,.05.07.04.07,0-.02-.84-.23-1.57-.4-2.38-.09-.43-.11-.88-.17-1.32-.06-.4-.2-.72-.36-1.08-.29-.69-.15-1.5-.38-2.21-.12-.38-.22-.75-.34-1.13-.15-.48-.08-1.03-.11-1.53,0-.08-.11-.07-.11,0-.02.77-.01,1.49.23,2.23.13.42.29.77.34,1.22Z"/>
      <path class="cls-1" d="m25.41,244.88c.37-.38.72-.8,1.07-1.2.31-.37.66-.9,1.1-1.12,0,0,0-.03-.01-.02-.39.17-.65.54-.94.85-.44.47-.85.96-1.28,1.44-.03.04.02.09.06.05Z"/>
      <path class="cls-1" d="m56.1,246.6c.19.32.42.55.48.94,0,.01.02.01.02,0-.05-.55-.46-.98-.64-1.49-.1-.3-.18-.54-.37-.79-.2-.25-.4-.5-.57-.77-.03-.05-.1,0-.08.05.26.48.67.84.87,1.36.09.24.16.48.29.7Z"/>
      <path class="cls-1" d="m26.74,235.05c.56-.27,1.18-.42,1.77-.63.5-.17.96-.41,1.42-.66.06-.03,0-.11-.05-.09-.51.26-1.04.51-1.59.69-.48.17-1.01.26-1.46.49-1.04.54-2.21.74-3.23,1.31-.07.04,0,.13.06.1,1-.47,2.08-.73,3.07-1.21Z"/>
      <path class="cls-1" d="m25.86,218.79c.42.19.67.61,1.1.8.18.08.4.1.58.14.17.04.67.28.83.35.48.2.97.28,1.42.54.9.53,1.95.99,2.96,1.27.52.15,1.03.24,1.58.24.32,0,.63,0,.93.15.19.1.39.19.59.26,0,0,0,0,0,0-.43-.16-.73-.41-1.18-.44-.66-.05-1.26-.09-1.9-.26-1.05-.27-2.15-.79-3.07-1.35-.4-.24-.86-.28-1.28-.47-.38-.17-.74-.34-1.15-.42-.5-.1-.75-.44-1.14-.72-.48-.35-1.02-.61-1.5-.98-.03-.02-.06.01-.03.04.34.34.83.66,1.27.86Z"/>
      <path class="cls-1" d="m22.32,215.99c.28.52.79.98,1.21,1.39.06.06.15-.04.09-.09-.41-.41-.89-.87-1.18-1.37-.29-.49-.64-.92-.92-1.42-.04-.07-.14,0-.1.07.26.53.63.92.91,1.43Z"/>
    </g>
  </g>
</svg>