<?xml version="1.0" encoding="UTF-8"?>
<svg id="Layer_2" data-name="Layer 2" xmlns="http://www.w3.org/2000/svg" viewBox="0 0 155.98 124.84">
  <defs>
    <style>
      .cls-1 {
        fill: #fa8b78;
      }

      .cls-2 {
        fill: #faa880;
      }

      .cls-3 {
        fill: #fc9579;
      }

      .cls-4 {
        fill: #e8e8e8;
      }

      .cls-5 {
        fill: #eb9a7a;
      }

      .cls-6 {
        fill: #f2a37c;
      }

      .cls-7 {
        fill: #8f6048;
      }

      .cls-8 {
        fill: #d97968;
      }

      .cls-9 {
        fill: #db906c;
      }

      .cls-10 {
        fill: #db8e72;
      }

      .cls-11 {
        fill: #cc7262;
      }

      .cls-12 {
        fill: #c78464;
      }

      .cls-13 {
        fill: #634e3c;
      }

      .cls-14 {
        fill: #5c4838;
      }

      .cls-15 {
        fill: #473025;
      }

      .cls-16 {
        fill: #754f3c;
      }

      .cls-17 {
        fill: #75ccef;
      }

      .cls-18 {
        fill: #4e9dc5;
      }

      .cls-19 {
        fill: #4f4134;
      }
    </style>
  </defs>
  <g>
    <path class="cls-14" d="m92.9,10.42c-2.31,1.09-5.25-.28-6.55-3.05-1.3-2.77-.49-5.9,1.83-6.99,2.31-1.09,5.25.28,6.55,3.05,1.3,2.77.49,5.91-1.83,6.99Z"/>
    <path class="cls-19" d="m92.85,8.53c-.05.12-.22.04-.21-.08.2-1.39-.83-2.94-1.72-3.86-1.09-1.14-2.65-1.85-4.2-2.12-.24-.04-.21-.47.03-.44,1.66.23,3.49,1.26,4.64,2.5.85.93,1.99,2.7,1.46,4Z"/>
    <path class="cls-19" d="m92.95,8.93c-.09.06-.17-.08-.1-.15.75-.86.59-2.41.39-3.43-.24-1.25-.84-2.38-1.78-3.24-.15-.14.04-.38.22-.29,1.3.68,1.82,2.39,2.05,3.74.17,1,.16,2.71-.78,3.36Z"/>
    <path class="cls-13" d="m91.19,7.42c3.29,7.11-1.13,14.99-8.82,16.22-13.19,2.11-11.41-5.28-11.18-11.63.23-6.34-1.58-9.08,5.08-11.04,4.82-1.42,11.73-.46,14.92,6.44Z"/>
    <path class="cls-6" d="m80.45,31.95c-2.99,1.24-5.54.72-8.03,0,.36-1.42.68-2.85.78-4.33,0-.07.01-.25.03-.51.1-1.79.4-7.42.36-7.93l5.25.9,1.28.22c-.78,1.39-.44,6.77-.39,7.36.11,1.47.37,2.89.73,4.3Z"/>
    <path class="cls-12" d="m78.84,20.07c-.26,2.09-.84,3.68-1.59,4.78-.58.88-2.2,1.67-4.02,2.26.1-1.79.4-7.42.36-7.93l5.25.9Z"/>
    <path class="cls-2" d="m73.94,2.06s-4.51,2.62-5.87,4.59c-1.99,2.88-.38,6.18-.64,7.38-.13,1.23-1.89,2.91-3.14,3.47-.67.69.17,1.81.82,1.92.25.71-.04,1.09-.41,1.3-.09.05.07.71.31,1.38.6.5.03,1.02-.03,1.59.2.08.8-.18,1.04.71-.22.75-.56,1.48.03,2.03,1.11,1.04,9.59-.45,11.15-2.65,1.44-2.68,3.67-9.52,1.96-14.73-1.71-5.21-5.22-6.97-5.22-6.97Z"/>
    <path class="cls-3" d="m65.1,19.41c.02.06.82.1,1.17-.02.45-.15.57-1.47.71-1.9.44-1.38.96-2.38.65-3.75-.06-.01-.13-.02-.19-.04,0,.12,0,.23-.03.32-.13,1.23-1.89,2.91-3.14,3.47-.67.69.17,1.81.82,1.92Z"/>
    <path class="cls-1" d="m65.23,22.36c-.06-.08-.57.4-.32,1.53.32.13.81-.05,1.47-.81.36-.53.69-1.22.69-1.22l-1.83.5Z"/>
    <path class="cls-8" d="m64.66,20.64c.32-.04,1.38,1.49,2.61,1.12-.53.47-1.68.61-2.12.6-.53-.39-.79-1.25-.5-1.72Z"/>
    <path class="cls-13" d="m79.95,16.4c-.25.74,1.23-4.69,1.23-4.7.25-6.73,7.29-11.33-.6-11.19-7.4.14-10.39,4.09-10.39,4.09.06,4.94,5.36,9.83,9.76,11.8Z"/>
    <path class="cls-7" d="m67.84,12.87c2.35-.66,3.85-.66,5.04.03-1.01-1.22-2.62-1.52-3.96-1.09-1,.33-1.08,1.06-1.08,1.06Z"/>
    <g>
      <path class="cls-4" d="m68.89,14.1c.95.46,2.05.69,3.17.79-.79.49-1.61.95-2.58.84-.31-.32-.54-1.1-.59-1.63Z"/>
      <path class="cls-16" d="m69.87,14.72c.19.48.15.95-.08,1.05-.23.1-.6-.17-.78-.66-.18-.48-.23-1.01,0-1.11.23-.09.68.24.86.72Z"/>
      <path class="cls-15" d="m69.55,14.72c.12.3.09.59-.05.65s-.37-.11-.49-.41c-.11-.3-.14-.63,0-.69.14-.06.42.15.53.45Z"/>
      <path class="cls-13" d="m72.37,14.89c-1.95.13-3.38-.25-4.21-1.22l4.21,1.22Z"/>
    </g>
    <path class="cls-19" d="m71.31,3.95s.02.1.05.28c.04.18.06.47.16.79.13.32.21.72.44,1.15.21.44.44.93.77,1.43.29.52.7,1.03,1.11,1.57.44.52.9,1.08,1.44,1.6.27.26.54.52.82.79.3.24.6.49.9.74.59.51,1.29.91,1.94,1.36.7.37,1.37.8,2.11,1.06.36.14.71.31,1.07.43.37.11.73.21,1.08.31.35.12.71.18,1.06.23.35.06.69.11,1.03.16.67.06,1.31.04,1.9.07.59-.05,1.12-.13,1.6-.18.48-.02.87-.2,1.21-.27.66-.17,1.04-.28,1.04-.28h.05c.18-.06.36.05.41.23.05.18-.06.36-.24.41,0,0,0,0,0,0,0,0-.4.1-1.1.27-.35.06-.76.24-1.27.26-.5.05-1.06.11-1.67.16-.61-.03-1.28-.03-1.98-.1-.35-.06-.7-.12-1.07-.19-.37-.06-.74-.13-1.1-.26-.37-.11-.74-.23-1.11-.34-.37-.13-.73-.31-1.1-.46-.75-.29-1.44-.74-2.15-1.13-.66-.47-1.37-.89-1.96-1.42-.3-.26-.61-.51-.91-.77-.28-.28-.55-.55-.82-.82-.54-.53-1-1.11-1.44-1.65-.41-.57-.81-1.09-1.1-1.62-.33-.51-.56-1.02-.77-1.47-.22-.44-.31-.89-.44-1.22-.1-.34-.11-.62-.15-.8-.03-.19-.04-.29-.04-.29,0-.07.04-.13.1-.14.07,0,.13.04.14.1Z"/>
    <path class="cls-19" d="m72.31,3.25s.15.34.4.93c.15.29.36.61.58.99.24.37.57.76.89,1.2.38.4.75.87,1.21,1.3.46.44.94.9,1.48,1.32.52.45,1.11.85,1.69,1.28.6.4,1.22.79,1.86,1.15.65.34,1.29.69,1.96.96.65.31,1.33.51,1.98.73.66.18,1.3.34,1.92.44.62.06,1.2.17,1.75.12.27,0,.53-.01.78-.02.25,0,.47-.08.69-.11.43-.08.81-.13,1.09-.27.58-.22.92-.35.92-.35l.05-.02c.13-.05.27.02.32.14.05.13-.02.27-.14.32,0,0,0,0,0,0,0,0-.36.13-.99.36-.31.14-.71.19-1.17.27-.23.03-.47.1-.73.1-.26,0-.53,0-.81,0-.57.04-1.17-.09-1.81-.15-.63-.11-1.29-.28-1.97-.47-.66-.24-1.35-.45-2.01-.77-.68-.28-1.33-.64-1.98-1-.65-.37-1.27-.78-1.87-1.19-.59-.44-1.18-.85-1.7-1.31-.54-.44-1.02-.91-1.48-1.36-.46-.44-.83-.92-1.21-1.33-.33-.45-.65-.85-.89-1.24-.23-.4-.44-.74-.59-1.03-.25-.6-.39-.94-.39-.94-.02-.05,0-.1.05-.12.05-.02.1,0,.12.05Z"/>
    <path class="cls-19" d="m70.34,4.7s0,.11-.01.3c0,.2,0,.46.08.82.13.71.48,1.7,1.11,2.78,1.21,2.18,3.46,4.78,6.27,6.59,1.4.91,2.93,1.61,4.43,2.01.75.21,1.49.33,2.19.44.35.03.7.05,1.03.08.33,0,.66,0,.97,0,.62-.04,1.19-.09,1.69-.19.5-.08.93-.2,1.28-.27.7-.21,1.1-.33,1.1-.33h.01c.08-.03.17.02.19.1.02.08-.02.16-.09.19,0,0-.4.15-1.1.4-.36.09-.79.25-1.31.33-.51.11-1.1.18-1.74.23-.32,0-.66.01-1,.02-.35-.02-.71-.04-1.07-.06-.73-.08-1.51-.21-2.28-.44-1.55-.43-3.12-1.17-4.54-2.12-2.86-1.88-5.13-4.54-6.33-6.8-.61-1.13-.95-2.16-1.07-2.9-.07-.37-.07-.69-.06-.88.01-.2.02-.3.02-.3,0-.07.06-.12.13-.12.07,0,.12.06.12.13Z"/>
    <g>
      <path class="cls-2" d="m78.2,20.13s1.62.35,2.4-.02c2.39-1.14,2.79-3.58,2.8-4.87.01-1.84-2.91-2.98-4.36-.67-1.42,2.27-.84,5.56-.84,5.56Z"/>
      <path class="cls-5" d="m79.1,18.95s1.05.23,1.55-.02c1.54-.74,1.8-2.32,1.81-3.15,0-1.19-1.88-1.92-2.82-.43-.28.44-.44.94-.52,1.43.65,1,.77,1.7-.02,2.17Z"/>
      <path class="cls-10" d="m81.99,14.44c-.59-.4-1.35-.16-1.9.18-.54.33-1.17,1.33-1.15,2,.02.88,1.35,1.58-.04,2.19-.26.12-.13.59.16.51.57-.16,1.11-.78.97-1.42-.14-.61-.68-.85-.57-1.58.08-.51.52-1.16.91-1.41.47-.3,1.9-.37,1.84.64,0,.12.2.13.22.03.06-.41,0-.85-.44-1.15Z"/>
    </g>
    <path class="cls-11" d="m65.15,22.32s.62-.06,1.2-.27c.15-.04.27-.13.4-.18.12-.07.21-.16.3-.22.13-.16.21-.27.21-.27l.02-.03c.04-.06.12-.08.18-.03.06.04.08.12.03.19,0,0,0,0,0,0,0,0-.11.15-.29.33-.11.07-.23.16-.36.22-.14.05-.29.13-.44.17-.62.18-1.25.19-1.25.19-.03,0-.05-.02-.05-.04,0-.03.02-.05.04-.05Z"/>
    <path class="cls-13" d="m71.77,14.86c-.41.28-.76.54-1.26.78.64-.22,1.27-.45,1.86-.75l-.6-.03Z"/>
  </g>
  <path class="cls-2" d="m41.11,95.66c.01-.57.01-1.16,0-1.78h-9.52c.73,9.76,1.02,18.85-1.2,23.9-2.82,3.25-8.5,5-13.12,5.71,0,0-.41.94.42,1.24.83.29,2.15-.09,2.49-.09.33,0,1.16.04,2.43,0,3.09-.07,5.74-.3,6.91-.24,2.64.15,4.48.31,5.49.1.77-.16.79-1.82.64-2.71-.44-1.31-.68-3.39-.67-4.9.01-6.52,5.98-14.45,6.14-21.25Z"/>
  <g>
    <path class="cls-2" d="m66.57,32.23c-2.43,0-5.1.46-7.49,1.46l-16.34.21c-1.28-.11-4.23-.52-5.58-.5-4.49.32-14.16.49-20.64.67,0,0-3.5-.59-10.11.08-1.43.15-6.35-.7-6.35-.7-.17.17-.05.64.95,1,3.02,1.1,9.1,1.99,10.12,2.29,3.26.96,6.28-.78,6.28-.78l15.51,3.01c3.63.34,5.14-.44,7.25-.56,3.79-.21,10.43,1.84,16.57,2.23,4.15.26,9.15-.05,12.27,2.4,8.18,6.43,5.66-10.38-2.44-10.82Z"/>
    <g>
      <path class="cls-2" d="m11.76,35.08c-.3.02-.95.32-1.53.42-1.05.06-2.61.09-3.51-.14-.65-.17-.22.84.23,1.03,1.63.67,4.18.38,4.18.38,0,0,1.57.4,2.82.19l-2.2-1.86Z"/>
      <path class="cls-9" d="m13.15,37.08c-.97,0-1.88-.22-2.02-.25-.24.02-2.63.27-4.21-.38-.36-.15-.7-.73-.6-1.03.02-.07.11-.23.42-.15.88.23,2.39.2,3.49.14.29-.05.6-.15.88-.24.26-.09.49-.16.64-.17.05-.01.09.03.09.08,0,.05-.03.09-.08.09-.13.01-.35.08-.6.16-.28.09-.61.2-.92.25-1.12.07-2.64.09-3.55-.14-.18-.05-.21.02-.22.05-.07.2.21.7.5.82,1.59.65,4.12.37,4.14.37h.02s.01,0,.01,0c.02,0,1.56.39,2.79.19.04,0,.09.02.1.07,0,.05-.02.09-.07.1-.27.04-.55.06-.83.06Z"/>
    </g>
  </g>
  <path class="cls-2" d="m130.99,99.02c-.28-.2-.56-.39-.85-.58-.44-.28-4.22,7.17-4.22,7.17l.6.43c7.22,4.18,16.11,8.57,21.65,14.5l3.79.22c-4.81-5.12-13.61-14.95-20.97-21.76Z"/>
  <path class="cls-17" d="m130.67,98.8c-4.12-2.86-9.84-3.72-12.62-6.82-1.95-2.18-4.37-2.92-5.69-4.35-8.03-8.67-16.31-12.21-24.16-18.47,0,0-16.12,6.81-13.89,11.94.53,1.22,3.48,1.96,5.72,3.37,7.24,4.55,20.66,7.15,26.53,10.3,2.46,1.32,5.36,2.68,8.48,3.79l11.46,7.47c.8-2.73,2.25-5.2,4.17-7.23Z"/>
  <g>
    <path class="cls-2" d="m85.81,32.23c2.43,0,5.1.46,7.49,1.46l16.34.88c1.28-.11,4.23-.52,5.58-.5,4.5.32,14.16.49,20.64.67,0,0,3.5-.59,10.11.08,1.43.15,6.35-.7,6.35-.7.17.17.05.64-.95,1-3.02,1.1-9.1,1.99-10.12,2.29-3.26.96-6.28-.78-6.28-.78l-15.51,3.01c-3.63.33-5.14-.44-7.25-.56-3.79-.21-10.43,1.17-16.57,1.56-4.15.26-9.15-.05-12.27,2.4-8.18,6.43-5.27-11.16,2.44-10.82Z"/>
    <g>
      <path class="cls-2" d="m140.62,35.75c.3.02.95.31,1.53.42,1.05.06,2.61.09,3.51-.14.65-.17.22.84-.23,1.03-1.63.67-4.18.38-4.18.38,0,0-1.57.4-2.82.19l2.2-1.86Z"/>
      <path class="cls-9" d="m139.24,37.75c-.28,0-.56-.02-.83-.06-.05,0-.08-.05-.07-.1,0-.05.05-.07.1-.07,1.22.21,2.77-.18,2.79-.19h.01s.02,0,.02,0c.03,0,2.55.28,4.14-.37.29-.12.57-.62.5-.82,0-.03-.04-.09-.22-.05-.9.23-2.42.21-3.54.15-.32-.06-.64-.16-.92-.25-.25-.08-.47-.15-.61-.17-.05,0-.08-.04-.08-.09,0-.04.04-.08.08-.08,0,0,0,0,0,0,.16.01.38.09.65.17.28.09.59.19.89.25,1.1.06,2.6.08,3.48-.14.31-.08.4.08.42.16.1.3-.24.88-.6,1.03-1.59.65-3.98.41-4.21.38-.13.03-1.05.25-2.02.25Z"/>
    </g>
  </g>
  <path class="cls-2" d="m66.08,43.44h20.82c.75-3.24-.58-8.13.08-10.6-2.45-.64-4.61-1.4-6.84-2.14-1.17,1.76-5.7,2.15-7.41.04-2.19.73-4.32,1.47-6.73,2.1-.95,3.12,0,9.09.08,10.6Z"/>
  <path class="cls-17" d="m86.33,64.45c1.03,2.32,3.45,8.01,3.54,10.54.67,2.99-.49,5.68-1.59,6.95-6.26.69-12.65.96-19.41.17l-5.94-7.78c.5-3.68,2.87-7.3,3.68-9.96l19.72.08Z"/>
  <path class="cls-5" d="m75.88,32.88c-.46-.69-.94-.64-1.72-.47-.83.18-1.59.46-2.45.53-.87.06-1.72-.05-2.59-.12-.1,0-.16.14-.05.18.98.33,2.03.33,3.05.28,1.1-.06,2.64-1.18,3.53-.2.11.12.31-.05.22-.18Z"/>
  <path class="cls-5" d="m76.98,32.88c.46-.69.94-.64,1.72-.47.83.18,1.59.46,2.45.53.87.06,1.72-.05,2.59-.12.1,0,.16.14.05.18-.97.33-2.03.33-3.05.28-1.1-.06-2.64-1.18-3.53-.2-.11.12-.31-.05-.22-.18Z"/>
  <path class="cls-2" d="m146.72,118.32l1.14,6.39h8.12s-.04-.92-.46-1.09c-.42-.17-1.38-.59-1.8-1.09-.42-.5-3.35-3.93-4.27-4.18-.92-.25-2.73-.03-2.73-.03Z"/>
  <path class="cls-17" d="m64.16,70.78c-9.22,1.9-20.76,1.45-26.9,2.45-.89.22-5.69,1-6.36,4.13-.67,3.12,9.26,8.26,9.26,8.26,0,0-.36-2.04,1.09-1.92,1.45.11,26.37,5.02,35.96-1.65,4.07-2.83-13.05-11.27-13.05-11.27Z"/>
  <path class="cls-17" d="m41.12,94.32c-.04-4.94-.89-11.51-3.8-15.34-1.65-2.17-6.61-5.41-7.2.61.21,1.51.98,7.57,1.5,14.73h9.5Z"/>
  <path class="cls-5" d="m66.98,40.96c-1.23-2.42-4.18-5.12-6.91-5.47-.09-.01-.24.12-.11.18,2.6,1.2,5.36,2.64,6.64,5.51.14.3.52.06.38-.21Z"/>
  <path class="cls-5" d="m86.27,40.96c1.23-2.42,4.18-5.12,6.91-5.47.09-.01.24.12.11.18-2.6,1.2-5.36,2.64-6.64,5.51-.14.3-.52.06-.38-.21Z"/>
  <path class="cls-18" d="m85.82,50.85c1.77-1.6,2.06-4.42,1.88-6.12-.12-1.13-.86-2.7-1.39-3.71-.95-1.64.02-6.25.74-8.72-.79-.12-1.63-.15-2.48-.14-.05,6.18-3.89,8.61-8.21,8.61s-8.16-1.76-8.2-8.54c-.74,0-1.29-.08-2.08.03.76,2.5,1.58,7.06.46,8.76-.53,1.01-1.27,2.58-1.39,3.71-.18,1.7.01,4.13,2.01,6.12.38,2.27.75,3.19.88,5.65.18,3.25-1.23,6.75-2.29,10.21,6.55,1.76,14.25,1.67,21.56,0-1.34-3.57-2.55-6.95-2.37-10.21.13-2.46.5-3.38.88-5.65Z"/>
  <path class="cls-17" d="m72.85,49.87c-1.16.76-2.57,1.13-3.68,1.21-.94.06-1.52-.09-1.67-.26-.06-.07-.17-.08-.24-.01-.07.06-.07.17-.01.24.22.25.77.39,1.5.39.14,0,.29,0,.44-.01,1.14-.08,2.59-.46,3.79-1.24.16-.24.18-.38-.14-.3Z"/>
  <path class="cls-17" d="m85.82,50.81c-.07-.06-.17-.06-.24.01-.2.23-1.1.41-2.34.29-.6-.05-2.2-.29-3.55-1.15-.27.01-.18.17-.14.3,1.4.87,3.03,1.12,3.65,1.18.25.02.5.04.76.04.81,0,1.58-.13,1.87-.44.06-.07.06-.17-.01-.24Z"/>
</svg>