<?xml version="1.0" encoding="UTF-8"?>
<svg id="Layer_2" data-name="Layer 2" xmlns="http://www.w3.org/2000/svg" viewBox="0 0 66.28 185.55">
  <defs>
    <style>
      .cls-1 {
        fill: #fa8b78;
      }

      .cls-2 {
        fill: #faa880;
      }

      .cls-3 {
        fill: #fc9579;
      }

      .cls-4 {
        fill: #eb9a7a;
      }

      .cls-5 {
        fill: #f2a37c;
      }

      .cls-6 {
        fill: #e69a76;
      }

      .cls-7 {
        fill: #8f6048;
      }

      .cls-8 {
        fill: #d97968;
      }

      .cls-9 {
        fill: #db9072;
      }

      .cls-10 {
        fill: #d17c64;
      }

      .cls-11 {
        fill: #cc7262;
      }

      .cls-12 {
        fill: #c48162;
      }

      .cls-13 {
        fill: #634e3c;
      }

      .cls-14 {
        fill: #5c4838;
      }

      .cls-15 {
        fill: #574739;
      }

      .cls-16 {
        fill: #5ca1b7;
      }

      .cls-17 {
        fill: #75ccef;
      }

      .cls-18 {
        fill: #4e9dc5;
      }

      .cls-19 {
        fill: #4f4134;
      }
    </style>
  </defs>
  <g>
    <path class="cls-2" d="m48.49,157.02c.19-.9.28-1.92.3-2.99h-8.29c-.05.46-.09.9-.13,1.32-.38,4.4-.17,15.65-.25,17.41-.04.76-.2,6.11-.67,8.12-.33,1.12-.98,4.3.08,4.69h8.28c.15-.46-.03-.52-.42-1.09,0,0-1.84-1-3.6-4.02-1.02-1.75-.55-6.77-.42-7.45,1.06-5.63,4.18-11.49,5.1-15.98Z"/>
    <path class="cls-5" d="m47.02,58.25c-3.23,1.43-5.56.54-8.03,0,.36-1.42.68-2.85.78-4.33.03-.58.04-1.16,0-1.75h6.47c0,.6,0,1.19.05,1.78.11,1.47.37,2.89.73,4.3Z"/>
    <path class="cls-2" d="m32.64,69.75h20.82c.75-3.24-.58-8.12.08-10.6-2.42-.63-4.56-1.38-6.76-2.12-.99,1.95-6.88,1.92-7.52.02-2.18.73-4.3,1.46-6.7,2.09-.95,3.12,0,9.09.08,10.6Z"/>
    <path class="cls-17" d="m52.9,90.75c1.03,2.32,3.45,8.01,3.54,10.54.67,2.98-.5,6.35-1.59,7.61-6.26.69-12.66.96-19.41.17l-5.94-8.45c.5-3.68,2.87-7.3,3.68-9.96l19.72.08Z"/>
    <path class="cls-17" d="m41.72,144.55c-.24,2.36-.97,7-1.29,10.32h8.34c.29-4.95-1.1-11.33-1.1-11.33,0,0,.67-5.27,1.09-6.86.42-1.59,5.1-12.8,7.87-25.19,1.17-5.25-.59-12.47-.59-12.47l-15.48,8.2c.15,10.16.73,20.31,1.34,30.46-.19,2.29-.29,4.58-.17,6.86Z"/>
    <path class="cls-17" d="m31.79,97.41c-8.48,7.15-25.1,12.72-31.35,23.32-1.9,5.24,2.92,7.11,4.35,6.86,6.69-1.17,5.31-4.08,8.73-5.69,9.85-4.65,23.43-7.79,26.75-13.5,2.3-3.97-8.48-10.99-8.48-10.99Z"/>
    <path class="cls-2" d="m41.63,133.59c0-.33.01-1.16-.04-2.43-.14-3.08-.42-5.73-.38-6.9.09-2.64.22-4.06,0-5.06-.17-.77-1.84-.75-2.72-.58-.86.16-1.79.4-2.44.58-2.33.22-6.37.59-7.5.53-5.36-.28-7.92-1.62-14.28-.61-1.62,1.67-1.01,6.58-.95,7.99.48-.07.94-.13,1.37-.21,4.41-.74,18.03-5.25,20.5-3.17,3.26,3.45,4.55,8.25,5.35,12.8,0,0,.95.39,1.23-.45.28-.84-.14-2.15-.14-2.48Z"/>
    <path class="cls-12" d="m46.29,53.7c-1.08.77-2.46,1.2-3.37,1.11-.85.01-2.51-.59-3.15-1.14.03-.58.04-1.16,0-1.75h6.47c0,.6,0,1.19.05,1.78Z"/>
    <path class="cls-2" d="m42.39.29l-.67,5.73-2.11,7.66c-.05.19-.08.37-.1.53-4.87,7.72-18.06,14.71-19.39,22.95.06.32.18,1.42.28,1.67.56,4.94,2.78,9.82,4.22,13.73.95,2.57,2.7,6.16,4.6,9.46,1.84,3.18,2.06,6.39,3.07,9.96.4,1.42,1.45-6.19,1.45-6.19,0,0,1.76-4.1,1.92-5.44.42-3.43-4.4-9.34-4.7-10-.38-.83-1.85-5.36-2.29-6.93-.5-1.8-1.76-4.45-2.48-6.54.18-.23.36-.46.53-.71,2.17-3.59,9.86-14.67,14.71-20.18.75-.06,1.55-.62,1.66-1.13V0c-.21,0-.45.11-.71.29Z"/>
    <path class="cls-10" d="m43.14,14.99c-.07,0-.13-.06-.13-.13V.25c0-.07.06-.13.13-.13s.13.06.13.13v14.61c0,.07-.06.13-.13.13Z"/>
    <path class="cls-4" d="m42.44,59.18c-.46-.69-.94-.64-1.72-.47-.83.18-1.59.47-2.45.53-.87.06-1.72-.05-2.59-.12-.1,0-.16.14-.05.18.98.33,2.03.33,3.05.28,1.1-.06,2.64-1.18,3.53-.2.11.12.31-.05.22-.18Z"/>
    <path class="cls-4" d="m43.55,59.18c.46-.69.94-.64,1.72-.47.83.18,1.59.47,2.45.53.87.06,1.72-.05,2.59-.12.1,0,.16.14.05.18-.97.33-2.03.33-3.05.28-1.1-.06-2.64-1.18-3.53-.2-.11.12-.31-.05-.22-.18Z"/>
    <g>
      <path class="cls-14" d="m48.52,24.28c0,2.56-2.48,4.63-5.55,4.63s-5.55-2.07-5.55-4.63,2.49-4.63,5.55-4.63,5.55,2.07,5.55,4.63Z"/>
      <path class="cls-19" d="m45.58,20.28c0-.13-.2-.11-.22,0-.27,1.38-1.76,2.49-2.91,3.06-1.41.71-3.12.86-4.66.59-.25-.04-.35.38-.12.43,1.65.34,3.71-.02,5.21-.81,1.11-.59,2.78-1.88,2.71-3.28Z"/>
      <path class="cls-19" d="m46.13,20.62c-.05-.1-.18-.02-.16.08.24,1.11-.65,2.39-1.31,3.19-.82.98-1.89,1.67-3.12,1.98-.2.05-.14.35.05.35,1.47.03,2.75-1.22,3.6-2.28.64-.8,1.45-2.3.95-3.31Z"/>
      <path class="cls-13" d="m53,36.93c-.26,6.73-5.08,11.96-10.22,11.96s-9.67-5.47-9.99-12.2c-.33-6.95,2.96-12.18,9.99-12.19,7.88-.01,10.49,5.47,10.22,12.43Z"/>
      <path class="cls-6" d="m34.2,44.73s-.38.13-.81-.21c-.73-.59-1.14-3.04-1.25-4.78-.09-1.4,1.51-2.72,2.24-.35.72,2.32-.19,5.34-.19,5.34Z"/>
      <path class="cls-6" d="m51.51,44.73s.38.13.81-.21c.73-.59,1.14-3.04,1.25-4.78.09-1.4-1.51-2.72-2.24-.35-.72,2.32.19,5.34.19,5.34Z"/>
      <path class="cls-2" d="m35.19,31.52c.11,1.57-1.96,11.72-.98,16.62.42,1.69,6.04,5.61,8.69,5.55,2.66.32,8.27-3.86,8.69-5.55,1.45-3.94-1.01-14.66-.98-16.62-5.89-7.22-11.6-5.43-15.42,0Z"/>
      <path class="cls-7" d="m41.18,39.75c-2.03-1.78-3.58-2.56-5.25-2.59,1.81-.52,3.68.06,4.79,1.12.83.8.45,1.47.45,1.47Z"/>
      <path class="cls-13" d="m40.45,41.81c-1.35-.05-4.04-.71-4.57-2.39-.12.55-.03,1.87,1.11,2.33,1.16.55,2.65.19,3.47.06Z"/>
      <path class="cls-7" d="m44.76,39.75c2.02-1.78,3.58-2.56,5.25-2.59-1.81-.52-3.68.06-4.79,1.12-.83.8-.45,1.47-.45,1.47Z"/>
      <path class="cls-13" d="m45.49,41.81c1.35-.05,4.04-.71,4.58-2.39.12.55.03,1.87-1.11,2.33-1.16.55-2.65.19-3.47.06Z"/>
      <path class="cls-3" d="m43.87,43.8c-.24-1.03-.2-2.16-.37-3.2-.06-.39-.77-.17-.82.17-.25,1.58-.22,3.01-1.12,4.45-.73,1.16,1.86,1.8,2.79.95.69-.63-.26-1.46-.47-2.37Z"/>
      <path class="cls-13" d="m52.09,37.37v-.68c0-6.74-1.43-12.21-9.32-12.19-7.02.01-9.32,5.46-9.32,12.19v.68c4.1-1.86,7.36-4.16,9.73-8.39,1.61,4.15,4.43,6.59,8.9,8.39Z"/>
      <g>
        <g>
          <path class="cls-1" d="m39.62,48.69c.78.4,1.42,2.28,3.36,2.31,1.62.03,2.59-1.56,3.22-2.31h-6.58Z"/>
          <path class="cls-8" d="m46.62,48.64c-1.5.13-2.11-1.02-3.66-1.04-1.52.05-2.41,1.15-3.52,1.04,1.22.25,2.37.69,3.55.7,1.2.01,2.29-.42,3.63-.7Z"/>
        </g>
        <path class="cls-11" d="m39.58,48.35s.1.05.29.12c.18.07.44.21.76.29.32.1.69.22,1.11.29.21.05.42.08.64.1.22.02.44.07.67.06.89-.08,1.79-.27,2.43-.45.32-.09.59-.19.76-.27.18-.08.19-.12.2-.12.05-.1.17-.13.26-.08.09.05.13.17.08.26-.01.02-.03.05-.05.06l-.02.02s-.15.12-.35.18c-.2.07-.48.12-.82.19-.68.12-1.57.29-2.49.35-.23,0-.46-.04-.68-.05-.23-.01-.45-.05-.65-.09-.42-.07-.82-.14-1.15-.23-.34-.07-.61-.16-.8-.21-.19-.05-.3-.09-.3-.09-.1-.03-.16-.13-.13-.23.03-.1.13-.16.23-.13,0,0,.02,0,.02,0Z"/>
      </g>
      <path class="cls-15" d="m42.83,26.93c.02-.14-.22-.02-.25.11-.22,1.03-2.34,3.49-3.04,4.1-1.57,1.38-3.31,2.51-5.22,3.29-.47.2,0,.57.2.49,2.34-.94,4.25-2.28,5.87-4.06.6-.65,2.24-2.52,2.43-3.94Z"/>
      <path class="cls-15" d="m41.8,26.29c-.45.99-2.13,2.43-2.57,2.84-1.33,1.26-3.01,2.1-4.67,2.84-.94.42-.5.64-.33.59,2.06-.58,4.25-2.1,5.75-3.6.41-.42,1.62-1.57,2.01-2.46.33-.5-.08-.48-.2-.22Z"/>
      <path class="cls-15" d="m43.47,27.49c-.02-.14.22-.02.25.11.22,1.03,2.34,3.49,3.04,4.1,1.57,1.38,3.31,2.51,5.22,3.29.47.2,0,.57-.2.49-2.34-.94-4.25-2.28-5.88-4.06-.6-.65-2.24-2.52-2.43-3.94Z"/>
      <path class="cls-15" d="m44.5,26.85c.45.99,2.13,2.43,2.57,2.85,1.33,1.26,3.01,2.1,4.67,2.84.94.42.5.64.33.59-2.06-.58-4.25-2.1-5.75-3.6-.42-.41-1.62-1.57-2.01-2.45-.34-.5.08-.48.2-.22Z"/>
      <path class="cls-19" d="m43.63,24.83s.05.26.07.74c.01.24.01.54-.02.87-.01.33-.08.7-.15,1.11-.09.4-.2.83-.36,1.27-.16.44-.35.9-.59,1.35-.23.46-.51.91-.81,1.35-.31.44-.65.87-1.01,1.28-.73.82-1.55,1.55-2.37,2.16-.4.33-.82.58-1.21.84-.39.27-.78.48-1.14.68-.36.19-.68.39-.98.53-.3.14-.56.26-.78.36-.43.2-.68.32-.68.32-.17.08-.37,0-.44-.16-.08-.17,0-.37.16-.44,0,0,0,0,0,0h.02s.24-.11.67-.3c.21-.09.47-.21.77-.33.3-.12.62-.31.97-.49.36-.18.74-.38,1.12-.63.39-.24.81-.48,1.2-.78.82-.57,1.63-1.26,2.36-2.03.37-.38.7-.8,1.02-1.21.31-.42.59-.85.83-1.29.25-.43.44-.87.61-1.3.17-.42.29-.84.38-1.23.08-.39.16-.75.18-1.07.04-.32.04-.6.04-.83,0-.23-.03-.42-.03-.54-.01-.13-.02-.19-.02-.19,0-.05.03-.1.09-.11.05,0,.1.03.11.08h0Z"/>
      <path class="cls-19" d="m43.24,28.82s.08.19.23.52c.13.34.37.78.66,1.31.13.27.33.54.52.83.2.28.38.61.63.89.24.29.49.6.74.9.26.3.57.57.85.85l.43.42.47.37c.32.24.63.48.93.71.32.21.64.37.94.55.3.17.58.34.85.48,1.12.44,1.87.73,1.87.73h.03c.13.06.19.21.14.34-.05.13-.2.19-.32.14,0,0,0,0,0,0,0,0-.77-.31-1.93-.79-.28-.14-.56-.33-.87-.5-.31-.19-.64-.36-.96-.58-.31-.24-.62-.49-.94-.74l-.48-.38-.44-.44c-.29-.3-.59-.58-.86-.89-.25-.32-.5-.63-.74-.94-.26-.29-.43-.63-.63-.92-.19-.3-.38-.58-.52-.86-.3-.55-.53-1.01-.65-1.35-.14-.33-.22-.52-.22-.52-.03-.08,0-.16.08-.19.07-.03.16,0,.19.08Z"/>
    </g>
    <path class="cls-9" d="m26.51,36.21c-.45.69-1.75,1.13-2.43,1.55-.13.08.03.13.21.08.82-.23,1.88-.88,2.44-1.67.1-.14-.14-.08-.22.04Z"/>
    <path class="cls-9" d="m33.19,60.79c-.05-.15-.19-.09-.15.04.31,1.33.27,5.04.13,6.4-.02.19.24.16.27,0,.28-1.36.29-4.89-.25-6.44Z"/>
    <path class="cls-2" d="m66.28,37.39c-1.33-8.24-14.56-15.46-19.43-23.18-.02-.16-.05-.34-.1-.53l-2.11-7.66-.67-5.73c-.26-.18-.5-.3-.71-.29v14.85c.11.51.92,1.07,1.66,1.13,4.85,5.51,12.54,16.59,14.71,20.18.17.25.35.48.53.71-.72,2.09-1.98,4.75-2.48,6.54-.44,1.57-1.92,6.1-2.29,6.93-.3.66-5.08,6.56-4.66,10,.16,1.34,1.88,5.44,1.88,5.44,0,0,1.05,7.62,1.45,6.19,1-3.57,1.23-6.78,3.07-9.96,1.91-3.3,3.66-6.88,4.6-9.46,1.44-3.91,3.69-8.68,4.25-13.62.1-.25.23-1.23.3-1.55Z"/>
    <path class="cls-9" d="m59.85,36.21c.45.69,1.75,1.13,2.43,1.55.12.08-.03.13-.21.08-.82-.23-1.88-.88-2.44-1.67-.1-.14.14-.08.22.04Z"/>
    <path class="cls-9" d="m53.17,60.79c.05-.15.18-.09.15.04-.31,1.33-.27,5.04-.13,6.4.02.19-.24.16-.27,0-.28-1.36-.29-4.89.25-6.44Z"/>
    <path class="cls-18" d="m52.39,77.15c1.8-.98,2.68-3.75,2.49-5.45-.12-1.13-.86-3.37-1.39-4.38-.95-1.65-3.29-6.45-2.57-8.91-.83-.22-.3-.06-1.08-.29-.05,6.18-2.6,8.96-6.91,8.96s-6.32-2.34-6.37-9.12c-.7.21-.34.2-1.08.39.76,2.5-1.74,7.28-2.86,8.98-.53,1.01-1.27,3.25-1.39,4.38-.18,1.7.69,4.48,2.49,5.45.38,2.27.75,3.19.88,5.65.18,3.25-1.23,6.75-2.29,10.21,6.55,1.76,14.25,1.67,21.56,0-1.34-3.57-2.55-6.95-2.37-10.21.13-2.46.5-3.38.88-5.65Z"/>
    <path class="cls-17" d="m38.39,77.3c-1.52.22-3.39.45-4.72-.5-.11-.08-.3.07-.19.18,1.15,1.1,3.5,1.1,4.92.61.14-.05.18-.31,0-.29Z"/>
    <path class="cls-17" d="m47.74,77.3c1.52.22,3.39.45,4.72-.5.11-.08.3.07.19.18-1.15,1.1-3.5,1.1-4.92.61-.13-.05-.18-.31,0-.29Z"/>
    <path class="cls-17" d="m13.79,125.52c0-2.29.46-4.49,1.27-6.52-.26.04-.52.07-.79.11-12.12,1.91-10.74,8.38-10.1,8.45,2.1.23,6.42-.06,9.68-.54-.04-.5-.07-1-.07-1.5Z"/>
  </g>
  <path class="cls-16" d="m7.02,121.18s.11-.07.31-.18c.2-.12.5-.27.86-.45.35-.19.79-.35,1.24-.55.23-.09.47-.17.72-.26.25-.08.49-.19.75-.25.52-.12,1.02-.3,1.51-.36.49-.07.94-.17,1.34-.18.79-.02,1.32-.03,1.32-.03.05,0,.09.04.09.09,0,.05-.04.09-.08.09h-.01s-.52.03-1.29.08c-.39.02-.83.15-1.31.23-.48.08-.96.28-1.46.41-.25.07-.48.18-.72.27-.24.1-.47.18-.69.28-.44.21-.85.39-1.19.59-.69.36-1.11.65-1.11.65-.11.08-.27.05-.35-.06-.08-.11-.05-.27.06-.35,0,0,.01,0,.02-.01Z"/>
</svg>