<?xml version="1.0" encoding="UTF-8"?>
<svg id="New_Symbol_1" data-name="New Symbol 1" xmlns="http://www.w3.org/2000/svg" viewBox="0 0 123.65 46.76">
  <defs>
    <style>
      .cls-1 {
        fill: #4e9dc5;
      }
    </style>
  </defs>
  <path class="cls-1" d="m16.4,21.78L11.74,3.59c-2.3.87-4.07,2.22-5.34,4.05-1.26,1.83-1.89,4.07-1.89,6.72,0,1.2.11,2.03.34,2.5.23.47.34.74.34.8-1.75,0-3.05-.36-3.9-1.09-.86-.73-1.29-1.93-1.29-3.61,0-2.07.85-4.08,2.55-6.04,1.7-1.96,3.87-3.54,6.52-4.75,2.65-1.21,5.3-1.82,7.96-1.82.45,0,1.1.03,1.94.1l4.22,17.37L30.37.58h3.2l-9.41,21.2-3.2,14.94h-7.76l3.2-14.94Z"/>
  <path class="cls-1" d="m37.33,34.68c-1.54-1.55-2.3-4.03-2.3-7.42,0-2.88.52-6.11,1.55-9.7,1.03-3.59,2.55-6.66,4.54-9.22,1.99-2.55,4.34-3.83,7.06-3.83.97,0,1.81.13,2.52.39-1.42.84-2.79,2.57-4.1,5.19s-2.37,5.55-3.18,8.78c-.81,3.23-1.21,6.1-1.21,8.59,0,1.75.23,3.12.68,4.12.45,1,1.16,1.5,2.13,1.5,1.58,0,3.16-1.14,4.73-3.42,1.57-2.28,2.86-5.15,3.88-8.61,1.02-3.46,1.53-6.79,1.53-9.99,0-2-.17-3.61-.51-4.83-.34-1.21-.96-2.13-1.87-2.74-.91-.61-2.18-.92-3.83-.92-2.49,0-4.8.51-6.94,1.53-2.13,1.02-3.84,2.47-5.12,4.37-1.28,1.89-1.92,4.08-1.92,6.57,0,.87.08,1.51.24,1.92.16.4.24.64.24.7-1.62,0-2.84-.32-3.66-.97-.82-.65-1.24-1.68-1.24-3.1,0-2.23.91-4.37,2.74-6.4,1.83-2.04,4.25-3.69,7.28-4.95,3.02-1.26,6.2-1.89,9.53-1.89,4.04,0,6.97,1.1,8.78,3.3,1.81,2.2,2.72,5.24,2.72,9.12,0,3.46-.65,7.07-1.94,10.82-1.29,3.75-3.29,6.93-5.99,9.53-2.7,2.6-6.02,3.91-9.97,3.91-2.72,0-4.84-.78-6.38-2.33Z"/>
  <path class="cls-1" d="m67.55,44.94c-1.44-1.21-2.16-2.81-2.16-4.78,0-1.23.29-2.36.87-3.4.58-1.03,1.37-1.85,2.38-2.45,1-.6,2.1-.9,3.3-.9s2.22.31,2.98.92c.76.61,1.14,1.42,1.14,2.42,0,.78-.18,1.39-.53,1.84-.29-.39-.69-.7-1.19-.92-.5-.23-1.03-.34-1.58-.34-.97,0-1.76.32-2.38.97-.61.65-.92,1.49-.92,2.52s.3,1.88.9,2.52c.6.65,1.35.97,2.26.97,1.13,0,2.1-.5,2.91-1.5.81-1,1.42-2.49,1.84-4.46l2.43-10.72h-.19c-.87,1.23-1.93,2.17-3.18,2.81-1.25.65-2.61.97-4.1.97-1.88,0-3.53-.5-4.95-1.5-1.42-1-2.51-2.43-3.27-4.29-.76-1.86-1.14-4.02-1.14-6.48,0-3.56.78-6.8,2.33-9.73,1.55-2.93,3.69-5.23,6.4-6.91,2.72-1.68,5.71-2.52,8.97-2.52,2.75,0,4.92.6,6.52,1.79,1.6,1.2,2.4,2.83,2.4,4.9,0,1.39-.34,2.51-1.02,3.35-.68.84-1.57,1.26-2.67,1.26-.62,0-1.19-.13-1.72-.39-.53-.26-.98-.63-1.33-1.12.58-.39,1.08-1.01,1.48-1.87.4-.86.61-1.72.61-2.6,0-.97-.28-1.72-.85-2.26-.57-.53-1.37-.8-2.4-.8-1.88,0-3.69.83-5.43,2.5-1.75,1.67-3.15,3.84-4.22,6.52-1.07,2.68-1.6,5.5-1.6,8.44,0,2.43.39,4.28,1.16,5.55s1.89,1.92,3.35,1.92c1.75,0,3.29-.92,4.63-2.77,1.34-1.84,2.42-4.53,3.23-8.05l5.72.05-3.54,16.3c-1.04,4.82-2.5,8.36-4.39,10.62-1.89,2.26-4.34,3.4-7.35,3.4-2.36,0-4.26-.61-5.7-1.82Z"/>
  <path class="cls-1" d="m97.5,41.96c-.91-.19-1.69-.66-2.35-1.41-.66-.74-.99-1.89-.99-3.44,0-2.17.65-5.08,1.96-8.73,1.31-3.65,3.03-7.33,5.17-11.01-1.62.1-2.89.34-3.83.73-.94.39-1.55.99-1.84,1.79.13,0,.27.16.41.49s.22.66.22,1.02c0,.58-.26,1.04-.78,1.38-.52.34-1.16.51-1.94.51-.91,0-1.63-.24-2.18-.73-.55-.49-.83-1.18-.83-2.09,0-1.1.43-2.1,1.29-3.01.86-.9,2.04-1.62,3.57-2.16,1.52-.53,3.2-.8,5.04-.8.68,0,1.52.05,2.52.15,2.65-4.2,5.46-7.64,8.42-10.31,2.96-2.67,5.78-4,8.46-4,1.55,0,2.83.23,3.83.68l-7.62,35.7h-6.99l3.74-17.61c-1.2-.55-2.3-.95-3.3-1.21-1-.26-2.07-.44-3.2-.53-1.84,3.98-3.36,8.05-4.54,12.2-1.18,4.16-1.77,7.48-1.77,9.97,0,1.23.23,2.13.68,2.72-1.2,0-2.25-.1-3.15-.29ZM116.03,3.78c-1.39.74-2.84,2.13-4.34,4.15-1.5,2.02-2.97,4.47-4.39,7.35,2.33.45,4.3,1.02,5.92,1.7l2.81-13.19Z"/>
</svg>