<?xml version="1.0" encoding="UTF-8"?>
<svg id="Layer_2" data-name="Layer 2" xmlns="http://www.w3.org/2000/svg" viewBox="0 0 134.2 130.55">
  <defs>
    <style>
      .cls-1 {
        fill: #fa8b78;
      }

      .cls-2 {
        fill: #faa880;
      }

      .cls-3 {
        fill: #fc9579;
      }

      .cls-4 {
        fill: #e8e8e8;
      }

      .cls-5 {
        fill: #eb9a7a;
      }

      .cls-6 {
        fill: #8f6048;
      }

      .cls-7 {
        fill: #d97968;
      }

      .cls-8 {
        fill: #db8e72;
      }

      .cls-9 {
        fill: #d18c6b;
      }

      .cls-10 {
        fill: #cc7262;
      }

      .cls-11 {
        fill: #c78464;
      }

      .cls-12 {
        fill: #634e3c;
      }

      .cls-13 {
        fill: #5c4838;
      }

      .cls-14 {
        fill: #473025;
      }

      .cls-15 {
        fill: #5ca1b7;
      }

      .cls-16 {
        fill: #754f3c;
      }

      .cls-17 {
        fill: #75ccef;
      }

      .cls-18 {
        fill: #4e9dc5;
      }

      .cls-19 {
        fill: #4f4134;
      }
    </style>
  </defs>
  <path class="cls-2" d="m133.9,128.94c-.7-.6-2.28-.41-2.61-.54-.32-.13-.83-1.19-2.16-1.19-1.97,0-2.87.08-4.07-.17-3.28-.68-4.32-2.56-5.39-2.63-.79-.05-1.41.22-2.04.71-.29.38-1.36,1.23-2.08,1.28-5.8-.21-13.73-4.95-20.19-6.28-.57-.12-1.67,9.4-1.67,9.4,8.15-.11,17.28-.11,22.26.55.55.07,1.09.21,1.68.22,7.05.73,8.38-.38,12.29,0,1.09.11,2.92-.22,3.94,0,0,0,.75-.77.05-1.37Z"/>
  <path class="cls-2" d="m17.31,121.6h-.02c-.68-5.83,1.33-14.87.89-21.13-.06-.82-11.02-2.65-11.02-2.65,2.87,8.9,6.51,18.52,6.34,25.17-2.7,3.47-8.63,5.31-13.41,6.05,0,0-.41.94.42,1.24.83.29,2.15-.1,2.49-.09.33,0,1.16.04,2.43,0,3.09-.07,5.74-.3,6.91-.24,2.64.15,4.48.31,5.49.1.77-.15.79-1.82.64-2.71-.36-1.06-1.1-5.28-1.16-5.76Z"/>
  <path class="cls-17" d="m37.61,94.71c-8.83-3.27-19.53-11.26-25.27-13.66-.88-.28-4.35-2.59-7.46.58-2.23,2.28,2.6,11.3,2.6,11.3,0,0,.7-.34,2.15-.45,4.79-.39,19.52,20.53,33.08,18.7,8.93-1.21-5.11-16.47-5.11-16.47Z"/>
  <path class="cls-5" d="m63.49,8.48c-.81.09-1.66.79-2.27,1.42.21-.74.36-1.36.43-1.65.43-1.36,1.62-5.05,1.96-5.79.44-.97-.19-1.55-.85-.59-.11.17-2,4.77-2.43,6.04h-.11c.37-1.05,1.95-5.48,2.27-6.34.4-1.03-.27-1.59-.88-.55-.12.21-2.88,6.67-2.75,6.65l.31.11-.4-.05c.4-1.24,1.59-4.9,1.89-5.67.39-.99-.29-1.53-.99.03-.09.2-2.03,4.68-2.29,5.49l-.16-.02c.49-1.25,1.54-3.97,1.78-4.59.34-.85-.31-.97-.84-.11-.1.16-2.06,4.2-2.3,4.86-1.01,1.71-1.23,3.04-1.55,4.95-.09.53-.01,1.84.02,2.34-2.61,5.02-8.23,15.97-9.76,20.13-.56,1.52-1.5,6.87-1.5,6.87,0,0-8.59,17.83-7.78,24.42.22,1.76.33,5.92,4.29,6.16,2.98.18,4.42-2.23,4.9-5.34.19-1.2,3.12-24.98,4.22-27.25.71-1.46,2.11-4.66,2.67-6.02,1.3-4.74,3.05-12.73,5.43-18.35.6-.34,2.52-1.46,2.84-1.77.85-.32,2.24-2.61,2.94-3.74.23-.37,1.54-1.06,1.54-1.06,0,0,.42-.7-.64-.58Z"/>
  <path class="cls-17" d="m96.82,120.47c-1.32-.36-2.61-.61-3.81-.68-5.01-.29-9.85-.17-14.39,2.37-2.38,1.33-9.15,5.8-1.42,7.92,3.32.5,3.37-.35,6.86-.4,2.85-.04,6.38-.09,10.1-.11.57-3.21,1.53-6.33,2.66-9.1Z"/>
  <g>
    <g>
      <path class="cls-13" d="m58.12,42.65c-2.45.75-5.16-1.01-6.06-3.94-.9-2.93.35-5.92,2.79-6.67,2.44-.75,5.16,1.01,6.06,3.94.9,2.93-.35,5.92-2.79,6.67Z"/>
      <path class="cls-19" d="m58.33,40.77c-.07.11-.22,0-.19-.1.39-1.35-.41-3.02-1.16-4.07-.92-1.28-2.37-2.2-3.86-2.69-.24-.07-.14-.5.09-.43,1.62.46,3.28,1.74,4.24,3.12.72,1.04,1.6,2.96.88,4.16Z"/>
      <path class="cls-12" d="m56.85,39.44c2.26,7.5-3.22,14.68-11.01,14.82-13.36.23-10.55-6.83-9.44-13.08,1.12-6.25-.29-9.21,6.57-10.22,4.97-.73,11.68,1.18,13.87,8.47Z"/>
      <path class="cls-9" d="m44.45,61.37c-2.86,1.5-5.45,1.22-8,.72.23-1.45.42-2.9.39-4.38,0-.07,0-.25-.02-.51-.06-1.79-.27-7.42-.35-7.93l5.31.42,1.29.11c-.66,1.46.17,6.78.27,7.36.24,1.45.63,2.85,1.11,4.22Z"/>
      <path class="cls-11" d="m41.78,49.68c-.07,2.1-.51,3.74-1.16,4.9-.49.93-2.04,1.86-3.8,2.61-.06-1.79-.27-7.42-.35-7.93l5.31.42Z"/>
      <path class="cls-2" d="m40.52,31.72s-4.84,1.96-6.46,3.72c-2.37,2.57-1.24,6.07-1.67,7.21-.3,1.2-2.28,2.62-3.6,2.99-.76.59-.08,1.82.55,2.02.15.74-.19,1.08-.59,1.23-.1.04-.03.72.12,1.41.52.58-.11,1.02-.25,1.57.18.11.81-.06.93.85-.32.71-.76,1.39-.25,2.02.95,1.19,9.56.9,11.41-1.07,1.8-2.45,4.97-8.92,4-14.31-.96-5.39-4.19-7.64-4.19-7.64Z"/>
      <path class="cls-3" d="m29.34,47.66c.01.07.8.21,1.16.14.47-.09.77-1.37.97-1.78.63-1.3,1.29-2.22,1.17-3.62-.06-.02-.13-.04-.19-.06-.02.12-.04.23-.07.32-.3,1.2-2.28,2.62-3.6,2.99-.76.59-.08,1.82.55,2.02Z"/>
      <path class="cls-1" d="m29.06,50.6c-.05-.09-.62.32-.53,1.47.29.17.81.06,1.56-.59.43-.48.85-1.11.85-1.11l-1.88.23Z"/>
      <path class="cls-7" d="m28.72,48.82c.33,0,1.16,1.67,2.43,1.47-.59.4-1.75.37-2.18.3-.47-.46-.61-1.35-.25-1.77Z"/>
      <path class="cls-12" d="m44.46,46.76c-.35.7,1.87-4.48,1.87-4.48,1.18-6.63,8.8-10.2.98-11.16-7.35-.9-10.86,2.59-10.86,2.59-.64,4.9,3.93,10.49,8.01,13.05Z"/>
      <path class="cls-6" d="m32.97,41.57c2.42-.32,3.9-.11,4.98.74-.83-1.35-2.38-1.88-3.76-1.64-1.04.18-1.22.9-1.22.9Z"/>
      <g>
        <path class="cls-4" d="m33.83,42.93c.87.59,1.94.97,3.03,1.22-.86.37-1.72.71-2.67.47-.26-.36-.38-1.16-.36-1.7Z"/>
        <path class="cls-16" d="m34.72,43.69c.12.5.01.96-.22,1.03-.24.06-.57-.26-.68-.76-.12-.5-.08-1.04.16-1.1.24-.06.64.33.75.83Z"/>
        <path class="cls-14" d="m34.4,43.64c.07.31,0,.6-.14.64-.15.04-.35-.16-.42-.47-.07-.31-.05-.64.09-.68.15-.04.4.21.47.52Z"/>
        <path class="cls-12" d="m37.17,44.2c-1.95-.14-3.31-.73-4-1.8l4,1.8Z"/>
      </g>
      <path class="cls-19" d="m37.65,33.22s0,.1,0,.29c.01.19-.01.47.04.81.08.34.09.75.26,1.22.13.47.3.99.55,1.54.21.56.55,1.12.86,1.73.38.57.73,1.21,1.22,1.78.24.29.46.6.72.88.27.28.54.56.81.84.26.3.59.52.88.79.3.26.6.53.94.74l.99.67c.34.2.7.37,1.04.55l.52.27.54.2c.36.13.71.26,1.06.39.72.17,1.42.36,2.09.44.68.04,1.32.14,1.91.12.59-.04,1.14-.07,1.62-.1.48-.05.89-.17,1.23-.22.68-.14,1.07-.21,1.07-.21h.04c.18-.04.36.07.39.25.04.18-.08.36-.26.39,0,0,0,0,0,0,0,0-.41.07-1.11.21-.36.06-.78.17-1.28.21-.5.02-1.07.05-1.69.07-.62.01-1.28-.1-1.99-.16-.7-.1-1.42-.31-2.17-.5-.36-.14-.73-.28-1.1-.42l-.56-.22-.53-.29c-.35-.2-.72-.38-1.07-.59l-1.01-.71c-.35-.22-.64-.5-.95-.77-.3-.28-.63-.52-.89-.83-.27-.29-.55-.59-.81-.88-.26-.29-.48-.62-.72-.92-.49-.59-.84-1.25-1.22-1.84-.31-.63-.65-1.2-.85-1.78-.25-.56-.41-1.1-.54-1.58-.16-.47-.17-.93-.25-1.28-.05-.36-.02-.63-.03-.82,0-.19,0-.29,0-.29,0-.07.05-.12.12-.12.07,0,.12.06.12.12Z"/>
      <path class="cls-19" d="m38.74,32.7s0,.1-.02.27c-.03.18,0,.43.04.75.1.64.44,1.54,1.03,2.5,1.17,1.94,3.35,4.16,5.94,5.72.66.37,1.32.74,2.01,1.01.68.29,1.38.5,2.07.64.68.16,1.36.19,2,.19.63-.04,1.23-.12,1.76-.29.53-.15.99-.37,1.38-.6.39-.22.7-.47.95-.67.25-.2.42-.4.54-.51.12-.12.19-.19.19-.19l.02-.02c.1-.1.26-.1.35,0,.1.1.1.26,0,.35h0s-.07.07-.2.2c-.14.12-.31.33-.59.54-.27.21-.6.48-1.03.7-.41.24-.91.47-1.48.62-.57.18-1.21.25-1.88.28-.67-.01-1.38-.05-2.09-.23-.71-.15-1.43-.39-2.13-.69-.71-.29-1.38-.67-2.04-1.06-2.62-1.62-4.79-3.9-5.97-5.89-.59-.99-.93-1.92-1.02-2.59-.04-.34-.06-.62-.03-.8.02-.18.03-.27.03-.27,0-.05.05-.09.1-.08.05,0,.09.05.08.1Z"/>
      <path class="cls-19" d="m36.59,33.82s-.02.1-.06.3c-.03.2-.06.46-.04.82.03.72.24,1.75.71,2.91.89,2.33,2.75,5.22,5.29,7.4,1.26,1.1,2.67,2,4.1,2.61.71.31,1.43.54,2.11.74.35.08.69.15,1.01.22.33.05.65.09.96.13.62.05,1.19.07,1.7.05.51,0,.94-.07,1.31-.09.72-.11,1.13-.17,1.13-.17h.01c.08-.01.16.04.17.13.01.08-.04.16-.12.17,0,0-.42.09-1.15.24-.37.04-.82.14-1.34.14-.52.03-1.11.02-1.76-.02-.32-.04-.65-.08-1-.12-.34-.07-.69-.14-1.05-.21-.71-.19-1.46-.42-2.19-.76-1.48-.65-2.92-1.6-4.2-2.73-2.57-2.27-4.45-5.21-5.32-7.62-.45-1.2-.64-2.27-.65-3.03-.02-.37.03-.7.06-.88.04-.19.06-.3.06-.3.01-.07.08-.11.15-.1.07.01.11.08.1.15Z"/>
      <g>
        <path class="cls-2" d="m42.2,50.21s1.55.57,2.38.31c2.52-.8,3.27-3.16,3.45-4.43.27-1.82-2.47-3.36-4.22-1.27-1.73,2.05-1.61,5.38-1.61,5.38Z"/>
        <path class="cls-5" d="m43.26,49.17s1.01.37,1.54.2c1.63-.51,2.11-2.04,2.23-2.86.18-1.18-1.59-2.17-2.73-.82-.34.4-.56.87-.72,1.34.5,1.08.52,1.79-.32,2.14Z"/>
        <path class="cls-8" d="m46.76,45.1c-.53-.48-1.32-.35-1.91-.09-.58.25-1.34,1.15-1.42,1.82-.1.88,1.11,1.75-.35,2.16-.28.08-.21.56.09.53.59-.08,1.21-.61,1.15-1.27-.05-.62-.56-.93-.34-1.64.15-.49.68-1.08,1.1-1.27.5-.23,1.94-.1,1.73.9-.02.12.19.16.22.06.12-.4.13-.84-.27-1.2Z"/>
      </g>
      <path class="cls-10" d="m28.98,50.54s.63.03,1.23-.1c.15-.02.29-.09.42-.12.13-.05.23-.12.33-.17.15-.14.25-.24.25-.24l.02-.03c.05-.05.13-.06.19,0,.05.05.06.13,0,.19,0,0,0,0,0,0,0,0-.13.13-.33.28-.11.05-.24.12-.39.17-.15.03-.3.09-.46.1-.64.09-1.27.02-1.27.02-.03,0-.04-.03-.04-.05,0-.02.02-.04.05-.04Z"/>
      <path class="cls-12" d="m36.58,44.09c-.45.22-.83.43-1.35.6.66-.13,1.32-.27,1.94-.49l-.59-.11Z"/>
    </g>
    <path class="cls-19" d="m58.86,40.88c-.1.05-.16-.1-.09-.16.86-.74.92-2.3.87-3.34-.06-1.27-.5-2.47-1.3-3.46-.13-.16.1-.37.25-.25,1.19.86,1.46,2.62,1.5,3.99.03,1.02-.22,2.71-1.24,3.22Z"/>
  </g>
  <path class="cls-18" d="m44.81,63.39c.1,1.63.88,8.37-2.18,13.97-.85,1.57-3.51,8.65-1.39,12.22.82,1.39,2.98,4.35,5.86,4.8-6.21,4.22-11.1,6.66-16.76,6.62-.74-1.91-1.51-4.25-1.84-6.78-1.25-3.74-4.58-6.51-5.22-12.9-.02-.38.22-4.34.67-6.58-.89-3.91.73-9.37,5.36-11.16,1.29-.5,11.05-4.57,11.05-4.57,1.75.08,2.94,1.1,4.46,4.38Z"/>
  <path class="cls-17" d="m44.48,93.26c4.35,2.26,8.12.67,12.47,6.28,1.71,2.21,4.69,9.71,3.18,11.46-.77.9-20.63-1.76-20.63-1.76-3.01-.56-9.41-5.86-10.25-11.46,3.6.92,12.38-1.92,15.23-4.52Z"/>
  <path class="cls-17" d="m40.34,101.31c-3.14,3.18,4.15,12.06,12.12,16.99,10.63,6.57,23.95,12.86,26.99,11.23,3.91-2.95,3.43-9.06,3.43-9.06-11.02-3.58-20.64-15.92-28.88-18-3.69-.93-11.73-3.11-13.67-1.16Z"/>
  <path class="cls-15" d="m40.8,103.88s.04.19.11.51c.05.33.18.78.34,1.31.06.27.19.55.3.85.12.3.23.62.4.93.16.31.31.64.49.96.2.31.4.63.6.94.19.33.44.6.66.9.23.29.44.59.68.84.24.25.48.5.7.73.23.23.42.47.65.64.86.74,1.43,1.23,1.43,1.23h0c.05.05.06.13.01.18-.04.05-.12.06-.17.01,0,0-.59-.48-1.47-1.21-.23-.17-.43-.41-.67-.64-.23-.23-.48-.48-.73-.73-.25-.25-.47-.56-.71-.84-.23-.3-.5-.58-.7-.91-.21-.32-.42-.64-.63-.96-.19-.33-.36-.66-.53-.98-.18-.31-.3-.64-.43-.95-.12-.31-.26-.59-.33-.87-.18-.56-.32-1.02-.38-1.34-.07-.32-.12-.51-.12-.51-.03-.14.05-.27.19-.3.13-.03.27.05.3.19,0,0,0,0,0,0Z"/>
  <path class="cls-15" d="m29.51,97.92s.08.21.22.58c.15.36.3.92.58,1.52.13.31.27.64.43.99.13.36.35.7.54,1.07.2.36.37.76.62,1.12.23.37.47.74.71,1.12.27.35.55.69.82,1.04.26.36.58.64.86.95.3.29.55.61.86.83.3.24.58.46.84.67.5.44,1.02.67,1.33.9.33.21.52.33.52.33h.01c.06.04.07.12.04.17-.03.05-.1.07-.16.04,0,0-.2-.11-.55-.3-.33-.21-.88-.42-1.41-.84-.27-.21-.57-.43-.88-.66-.33-.22-.59-.54-.91-.83-.3-.3-.64-.59-.91-.96-.28-.35-.57-.71-.85-1.06-.25-.38-.49-.77-.74-1.14-.26-.37-.44-.77-.63-1.15-.18-.39-.4-.74-.52-1.11-.14-.37-.27-.71-.39-1.03-.25-.64-.35-1.19-.46-1.57-.09-.38-.15-.6-.15-.6-.01-.05.02-.11.07-.12.05-.01.1.02.12.06Z"/>
  <path class="cls-17" d="m27.75,76.45c-.86,0-1.71-.17-2.38-.51-.85-.43-1.39-1.12-1.57-1.97-.02-.09.04-.18.13-.2.09-.02.18.04.2.13.15.77.62,1.35,1.39,1.74,1.26.64,3.2.63,4.61-.02.08-.04.18,0,.22.08.04.08,0,.18-.08.22-.75.35-1.65.52-2.52.52Z"/>
  <path class="cls-17" d="m5.11,90.88c.66,2.58,1.52,5.32,2.44,8.12.7-.09,8.12.68,10.67,2.1-.05-1.05-.15-2.04-.34-2.93-1.06-4.91-2.84-12.01-6.9-15.34-2.11-1.73-7.7-3.75-6.91,2.65.13,1.59.67,3.93,1.05,5.4Z"/>
  <path class="cls-15" d="m13.32,91.25s.46.26,1.06.75c.61.48,1.37,1.2,1.99,2.04.63.83,1.09,1.79,1.33,2.54.13.38.2.7.24.93.04.23.07.36.07.36.03.14-.06.27-.2.29-.14.03-.27-.06-.29-.2,0,0,0,0,0,0v-.03s-.02-.12-.06-.34c-.03-.22-.08-.52-.19-.88-.2-.72-.61-1.64-1.19-2.47-.57-.83-1.29-1.56-1.86-2.05-.58-.5-1.01-.76-1.01-.76-.05-.03-.07-.1-.04-.15.03-.05.1-.07.15-.04Z"/>
  <path class="cls-2" d="m36.67,61.69s-4.46,2.01-5.02,7.14c-.49,4.48,2.45,6.92,6.58,6.14,4.13-.78,7.03-8.7,5.69-10.49-1.34-1.79-7.25-2.79-7.25-2.79Z"/>
  <g>
    <path class="cls-2" d="m68.4,8.09c-.81.02-1.72.64-2.38,1.21.27-.72.48-1.32.58-1.61.55-1.31,2.05-4.89,2.45-5.6.52-.93-.06-1.56-.8-.66-.13.16-2.4,4.58-2.95,5.81l-.11-.02c.46-1,2.41-5.28,2.81-6.1.48-.99-.13-1.61-.83-.63-.14.2-3.45,6.4-3.32,6.39l.3.13-.4-.08c.51-1.2,2.01-4.74,2.38-5.49.47-.96-.15-1.55-.99-.06-.11.19-2.43,4.49-2.75,5.27l-.15-.03c.59-1.21,1.88-3.83,2.17-4.41.41-.82-.22-.99-.82-.19-.11.15-2.41,3.98-2.71,4.63-1.16,1.62-1.49,2.92-1.97,4.8-.13.52-.17,1.83-.18,2.33-3.04,4.78-9.58,15.2-11.47,19.21-.69,1.46-2.09,6.71-2.09,6.71,0,0-10.1,17.02-9.87,23.65.06,1.78-.18,5.93,3.74,6.51,2.95.44,4.6-1.84,5.35-4.89.29-1.18,5.27-24.62,6.57-26.78.84-1.39,2.51-4.45,3.18-5.77,1.71-4.61,4.14-12.42,7-17.81.62-.29,2.64-1.23,2.98-1.52.87-.24,2.46-2.41,3.25-3.47.26-.35,1.62-.92,1.62-.92,0,0,.48-.66-.58-.63Z"/>
    <path class="cls-9" d="m45.3,39.79s-.79,1.54-1.98,3.84c-1.17,2.31-2.75,5.39-4.22,8.52-.73,1.56-1.45,3.14-2.04,4.64-.3.75-.58,1.48-.78,2.18-.22.69-.36,1.39-.49,2.01-.49,2.53-.41,4.26-.41,4.26,0,.03-.02.06-.05.06-.03,0-.05-.02-.06-.05,0,0-.01-.11-.03-.31-.03-.2-.05-.5-.06-.88-.02-.76.01-1.86.23-3.15.12-.65.22-1.34.46-2.06.21-.73.49-1.46.8-2.22.6-1.51,1.32-3.09,2.06-4.66,1.48-3.13,3.04-6.22,4.26-8.51,1.23-2.29,2.05-3.81,2.05-3.81.04-.07.13-.1.2-.06.07.04.1.13.06.2Z"/>
  </g>
</svg>