<?xml version="1.0" encoding="UTF-8"?>
<svg id="Layer_2" data-name="Layer 2" xmlns="http://www.w3.org/2000/svg" viewBox="0 0 88 125.66">
  <defs>
    <style>
      .cls-1 {
        fill: #fa8b78;
      }

      .cls-2 {
        fill: #faa880;
      }

      .cls-3 {
        fill: #fc9579;
      }

      .cls-4 {
        fill: #e8e8e8;
      }

      .cls-5 {
        fill: #eb9a7a;
      }

      .cls-6 {
        fill: #f2a37c;
      }

      .cls-7 {
        fill: #8f6048;
      }

      .cls-8 {
        fill: #d97968;
      }

      .cls-9 {
        fill: #db8e72;
      }

      .cls-10 {
        fill: #cc7262;
      }

      .cls-11 {
        fill: #c78464;
      }

      .cls-12 {
        fill: #634e3c;
      }

      .cls-13 {
        fill: #5c4838;
      }

      .cls-14 {
        fill: #473025;
      }

      .cls-15 {
        fill: #5ca1b7;
      }

      .cls-16 {
        fill: #754f3c;
      }

      .cls-17 {
        fill: #75ccef;
      }

      .cls-18 {
        fill: #4e9dc5;
      }

      .cls-19 {
        fill: #4f4134;
      }
    </style>
  </defs>
  <path class="cls-5" d="m41.94,2.12c-.07.19-.68,5.12-.78,6.47l-.11.02c.09-1.1.45-5.78.55-6.7.11-1.1-.68-1.46-.99-.3-.06.24-1.04,7.19-.92,7.14l.32.02-.4.06c.06-1.3.26-5.14.35-5.97.12-1.06-.67-1.4-.95.28-.04.21-.74,5.05-.78,5.9l-.15.02c.14-1.34.45-4.24.52-4.89.1-.91-.55-.85-.84.11-.05.18-.89,4.56-.95,5.28-.53,1.92-.39,3.26-.2,5.19.05.53.47,1.78.63,2.25-1.21,5.53-3.78,17.57-4.17,21.98-.14,1.61.35,7.02.35,7.02,0,0-3.64,19.46-1.14,25.6.67,1.64,1.87,5.63,5.75,4.83,2.92-.6,3.68-3.31,3.34-6.43-.13-1.21-3.51-24.93-3.04-27.4.31-1.6.82-5.04,1.01-6.51.02-4.91-.38-13.08.45-19.13.49-.49,2.05-2.06,2.28-2.45.56-.96.49-5.02.47-5.94.06-1.42.25-5.3.38-6.11.17-1.05-.59-1.45-.97-.34Z"/>
  <path class="cls-2" d="m77.97,103.74c-4.13-6.87-8.43-14.32-10.32-18.62-.31-.7-.65-1.18-.99-1.49-4.62-6.56-6.06-5.43-8.83-8.37-.98-1.04-2.33-1.89-2.9-2.76,0,0-.85.07-.78.99.08.92,1.2,2.09,1.33,2.41.14.32-.23,1.17.72,2.1,1.4,1.38,2.09,1.97,2.77,2.99,1.84,2.79.85,5.35,1.57,6.16.52.6.84.58,1.63.67.57.07,1.54-.46,2.52-.1h0c2.16,3.87,2.55,10.36,3.56,16.02h9.71Z"/>
  <g>
    <path class="cls-13" d="m66.38,73.59c-1.71-1.9-1.25-5.1,1.02-7.16,2.28-2.05,5.51-2.18,7.22-.28,1.71,1.9,1.25,5.1-1.02,7.16-2.28,2.05-5.51,2.18-7.22.28Z"/>
    <path class="cls-19" d="m68.18,72.99c-.13-.01-.1-.2.01-.22,1.39-.21,2.57-1.65,3.2-2.77.77-1.37,1-3.07.81-4.63-.03-.25.39-.34.43-.1.26,1.66-.19,3.71-1.04,5.16-.64,1.09-2.01,2.69-3.4,2.56Z"/>
    <path class="cls-12" d="m68.76,71.08c-5.85,5.21-14.67,3.27-18.08-3.73-5.84-12.01,1.75-12.45,7.88-14.07,6.14-1.62,8.23-4.15,12.03,1.66,2.76,4.2,3.85,11.09-1.84,16.15Z"/>
    <path class="cls-6" d="m43.65,69.08c-2.57-1.96-3.4-4.43-4.03-6.95,1.41-.4,2.81-.84,4.14-1.49.07-.03.22-.11.46-.23,1.6-.81,6.62-3.38,7.04-3.66l1.86,4.99.45,1.22c-1.6.02-6.08,3.01-6.56,3.35-1.21.83-2.32,1.77-3.35,2.79Z"/>
    <path class="cls-11" d="m53.12,61.73c-1.94.82-3.6,1.11-4.93,1.02-1.05-.06-2.54-1.06-3.96-2.35,1.6-.81,6.62-3.38,7.04-3.66l1.86,4.99Z"/>
    <path class="cls-2" d="m68.88,53.02s-3.81-3.56-6.1-4.29c-3.33-1.07-6.03,1.43-7.25,1.52-1.21.23-3.34-.96-4.23-2-.85-.44-1.69.69-1.6,1.35-.61.44-1.06.28-1.36-.02-.08-.07-.66.27-1.23.7-.31.72-.97.33-1.53.43-.02.21.4.71-.37,1.2-.78.01-1.58-.1-1.94.62-.68,1.36,3.21,9.05,5.78,9.9,2.98.6,10.18.75,14.66-2.4,4.49-3.15,5.16-7.02,5.16-7.02Z"/>
    <path class="cls-3" d="m49.71,49.6c-.05.04.14.81.36,1.12.28.39,1.57.12,2.02.13,1.45.02,2.56.23,3.78-.46,0-.07-.02-.13-.02-.2-.11.04-.22.06-.32.07-1.21.23-3.34-.96-4.23-2-.85-.44-1.69.69-1.6,1.35Z"/>
    <path class="cls-1" d="m46.93,50.58c.06-.08-.55-.43-1.56.14-.03.34.28.76,1.2,1.17.61.19,1.37.3,1.37.3l-1-1.61Z"/>
    <path class="cls-8" d="m48.4,49.53c.13.29-1.02,1.75-.31,2.82-.61-.37-1.07-1.43-1.19-1.85.22-.62.97-1.12,1.5-.97Z"/>
    <path class="cls-12" d="m56.9,62.93c-.78-.02,4.85-.19,4.85-.19,6.51-1.72,12.96,3.68,10.54-3.82-2.28-7.04-6.93-8.76-6.93-8.76-4.71,1.49-7.85,7.98-8.46,12.76Z"/>
    <path class="cls-7" d="m56.76,50.32c1.31,2.06,1.75,3.49,1.43,4.83.87-1.32.7-2.95-.1-4.1-.6-.86-1.33-.73-1.33-.73Z"/>
    <g>
      <path class="cls-4" d="m55.89,51.68c-.16,1.04-.07,2.17.17,3.26-.7-.62-1.37-1.26-1.56-2.22.22-.39.9-.83,1.39-1.04Z"/>
      <path class="cls-16" d="m55.58,52.8c-.41.32-.87.42-1.02.23-.16-.19,0-.62.4-.94.41-.32.91-.51,1.06-.32.16.19-.03.72-.44,1.03Z"/>
      <path class="cls-14" d="m55.49,52.5c-.26.2-.54.26-.64.14-.1-.12,0-.39.25-.58.25-.2.56-.32.66-.2.1.12-.02.45-.27.64Z"/>
      <path class="cls-12" d="m56.15,55.24c-.69-1.83-.74-3.3-.06-4.38l.06,4.38Z"/>
    </g>
    <path class="cls-19" d="m66.31,51.06s-.09.04-.26.13c-.16.09-.44.19-.72.38-.27.21-.64.4-1,.75-.37.32-.77.69-1.16,1.15-.42.43-.78.97-1.2,1.51-.35.59-.79,1.17-1.1,1.86-.16.34-.35.67-.5,1.03-.14.36-.28.72-.42,1.09-.16.36-.22.75-.34,1.13-.1.38-.23.76-.27,1.16l-.19,1.18c-.03.39-.04.79-.06,1.18l-.03.58.04.58c.03.38.06.76.09,1.13.15.72.28,1.44.48,2.08.25.63.43,1.25.7,1.78.28.52.54,1,.77,1.42.25.41.53.74.72,1.02.41.56.64.88.64.88l.03.04c.11.15.08.36-.07.47-.15.11-.36.08-.47-.07,0,0,0,0,0,0,0,0-.24-.34-.66-.92-.2-.3-.48-.64-.73-1.07-.23-.45-.49-.95-.78-1.5-.27-.55-.45-1.21-.7-1.87-.2-.68-.32-1.42-.46-2.18-.03-.39-.05-.78-.08-1.17l-.04-.6.04-.6c.03-.4.04-.81.08-1.22l.22-1.21c.05-.41.19-.8.3-1.19.13-.39.2-.79.37-1.16.15-.37.3-.74.45-1.11.15-.36.35-.7.53-1.04.33-.69.78-1.29,1.15-1.88.44-.55.81-1.1,1.26-1.53.4-.46.83-.83,1.21-1.15.36-.34.77-.55,1.06-.76.3-.2.57-.28.73-.37.17-.08.26-.12.26-.12.06-.03.14,0,.16.06.03.06,0,.14-.06.17Z"/>
    <path class="cls-19" d="m67.24,51.82s-.09.03-.26.09c-.18.05-.39.18-.66.35-.54.36-1.21,1.04-1.84,1.99-1.26,1.88-2.36,4.79-2.68,7.8-.06.75-.11,1.51-.07,2.25.03.74.12,1.46.29,2.15.14.69.41,1.32.67,1.89.3.56.63,1.07,1,1.48.36.42.75.75,1.12,1,.36.27.72.43,1.01.58.29.15.54.21.7.28.16.06.25.09.25.09h.03c.13.06.2.2.15.33-.05.13-.19.2-.32.15h0s-.09-.04-.26-.1c-.17-.07-.43-.15-.74-.31s-.68-.34-1.07-.63c-.39-.27-.81-.63-1.19-1.08-.4-.44-.74-.99-1.05-1.58-.27-.61-.54-1.28-.68-1.99-.16-.71-.25-1.46-.27-2.22-.04-.76.02-1.53.1-2.3.37-3.06,1.52-5.99,2.83-7.89.65-.95,1.35-1.65,1.92-2.02.29-.18.54-.32.71-.36.17-.06.26-.09.26-.09.05-.02.1,0,.12.06.02.05,0,.1-.06.12Z"/>
    <path class="cls-19" d="m65.31,50.34s-.1.03-.29.07c-.19.06-.44.14-.76.31-.64.33-1.49.95-2.34,1.87-1.74,1.79-3.57,4.7-4.48,7.91-.47,1.6-.69,3.27-.64,4.82.01.78.11,1.52.22,2.23.08.35.15.69.23,1.01.1.32.19.63.28.93.22.58.43,1.11.67,1.56.22.46.46.83.63,1.15.4.61.63.96.63.96h0c.05.08.03.18-.04.22-.07.05-.16.03-.21-.04,0,0-.26-.34-.71-.94-.19-.32-.47-.69-.7-1.16-.25-.46-.49-1-.72-1.6-.1-.31-.2-.63-.31-.96-.08-.34-.17-.69-.25-1.05-.13-.73-.24-1.5-.24-2.31-.04-1.61.21-3.32.71-4.96.97-3.28,2.85-6.23,4.67-8.03.9-.91,1.79-1.54,2.47-1.87.33-.17.64-.27.83-.32.19-.04.3-.07.3-.07.07-.02.13.03.15.09.01.07-.03.13-.09.15Z"/>
    <g>
      <path class="cls-2" d="m52.82,62.34s.14,1.65.72,2.29c1.78,1.95,4.24,1.63,5.47,1.27,1.77-.52,2-3.65-.63-4.37-2.58-.71-5.56.81-5.56.81Z"/>
      <path class="cls-5" d="m54.21,62.86s.09,1.07.47,1.48c1.15,1.26,2.74,1.06,3.53.82,1.14-.34,1.3-2.36-.4-2.82-.5-.14-1.03-.14-1.52-.09-.77.91-1.4,1.23-2.08.61Z"/>
      <path class="cls-9" d="m59.37,64.32c.21-.68-.24-1.34-.72-1.77-.48-.42-1.61-.73-2.25-.52-.84.28-1.12,1.75-2.11.6-.19-.22-.6.05-.44.3.32.5,1.06.84,1.64.51.54-.3.61-.9,1.34-1,.51-.07,1.26.16,1.62.46.42.36.91,1.71-.08,1.95-.12.03-.07.24.03.22.41-.06.81-.24.97-.75Z"/>
    </g>
    <path class="cls-10" d="m46.94,50.48s.24.58.61,1.07c.08.13.2.23.29.33.1.1.21.16.3.23.19.08.32.12.32.12h.03c.07.03.11.11.09.18-.02.07-.1.11-.17.09,0,0,0,0,0,0,0,0-.17-.06-.4-.18-.09-.08-.22-.17-.32-.28-.09-.12-.21-.24-.29-.38-.35-.54-.55-1.14-.55-1.14,0-.02,0-.05.03-.06.02,0,.05,0,.06.03Z"/>
    <path class="cls-12" d="m56,54.66c-.39-.31-.74-.57-1.11-.98.39.55.8,1.08,1.26,1.56l-.15-.58Z"/>
  </g>
  <path class="cls-19" d="m68.3,73.51c-.09-.07.02-.18.11-.14,1.04.47,2.48-.14,3.39-.62,1.13-.59,2.03-1.5,2.58-2.64.09-.18.37-.07.34.12-.27,1.44-1.76,2.43-2.98,3.04-.91.46-2.55.94-3.44.23Z"/>
  <path class="cls-18" d="m45.85,67.07c.1,1.63.25,7.57-2.8,13.18-.85,1.57-3.51,8.65-1.39,12.22.82,1.39,2.98,4.35,5.86,4.8-6.21,4.22-11.1,6.66-16.76,6.62-.74-1.91-1.51-4.25-1.84-6.78-1.25-3.74-4.58-6.51-5.22-12.9-.02-.38.22-4.34.67-6.58-.89-3.91.73-9.37,5.36-11.16,1.29-.5,11.05-4.57,11.05-4.57,1.75.08,3.57,1.9,5.09,5.17Z"/>
  <path class="cls-17" d="m44.89,96.15c4.35,2.26,8.12.67,12.47,6.28,1.71,2.21,4.69,9.71,3.18,11.46-.77.9-20.63-1.76-20.63-1.76-3.01-.56-9.41-5.86-10.25-11.46,3.6.92,12.38-1.92,15.23-4.52Z"/>
  <path class="cls-17" d="m40.29,105.27c-2.49,3.71,6.33,11.07,15.09,14.42,11.67,4.46,28.67,7.42,31.35,5.24,3.29-3.63-1-8.26-1-8.26-11.49-1.45-23.31-12.33-31.8-12.83-3.79-.22-12.11-.86-13.64,1.42Z"/>
  <path class="cls-17" d="m30.96,103.76c-13.1,2.51-27.82,8.48-30.16,12.38-1.3,2.17-1.31,7.34,2.37,7.78,3.68.45,37.71-4.02,43.23-11.3,4.78-6.3-15.44-8.87-15.44-8.87Z"/>
  <path class="cls-2" d="m63.94,123.57c-.67-.64-2.26-.53-2.57-.68-.32-.15-.77-1.23-2.1-1.3-1.97-.1-2.87-.07-4.06-.39-3.23-.85-4.17-2.79-5.24-2.92-.79-.09-1.42.15-2.07.6-.51.36-.96.93-1.99,1.17-5.54.51-18.45-2.77-23.77-4.53v8.6c11.13-.04,22.53-.25,24.21-.29,8.12,1.45,9.43.24,13.54.87,1.08.17,2.92-.06,3.93.21,0,0,.79-.73.12-1.36Z"/>
  <path class="cls-17" d="m26.72,116.9c-2.78-.76-5.05-1.47-6.18-1.92-5.31-1.67-10.88,1-14.14,3.1-2.72,1.87-4.83,4.85-3.6,5.77,4.32.27,12.35.32,20.36.29.62-2.68,1.86-5.15,3.56-7.23Z"/>
  <path class="cls-2" d="m48.74,7.53c-.77.27-1.43,1.15-1.89,1.9.03-.76.04-1.41.04-1.71.11-1.42.43-5.29.59-6.09.21-1.05-.54-1.46-.96-.38-.07.19-.85,5.1-.99,6.44h-.11c.12-1.08.65-5.75.77-6.66.15-1.09-.62-1.49-.98-.34-.07.23-1.29,7.15-1.16,7.1l.32.03-.4.05c.11-1.3.43-5.13.55-5.95.15-1.06-.63-1.42-.96.25-.04.21-.91,5.02-.97,5.87l-.16.02c.19-1.33.59-4.22.69-4.87.14-.91-.52-.87-.84.08-.06.18-1.04,4.52-1.13,5.25-.6,1.9-.5,3.24-.38,5.18.04.54.41,1.8.56,2.27-1.4,5.48-4.37,17.43-4.91,21.83-.2,1.61.11,7.03.11,7.03,0,0-4.29,19.32-2.01,25.55.61,1.67,1.67,5.69,5.58,5.02,2.95-.5,3.79-3.18,3.56-6.31-.09-1.21-2.66-25.04-2.11-27.49.36-1.58.99-5.01,1.23-6.47.19-4.91.06-13.09,1.1-19.11.5-.47,2.12-1.99,2.36-2.37.75-.5,1.59-3.05,2.01-4.31.14-.41,1.25-1.38,1.25-1.38,0,0,.25-.77-.75-.42Z"/>
  <path class="cls-17" d="m77.22,102.49c-1.39.36-7.65.3-9.2-.15.52,3.21,1.17,6.25,2.37,8.52,2.35,4.44,7,12.39,11.82,14.49,2.5,1.09,7.32-.67,5.31-5.94-.56-1.05-5.41-8.74-10.3-16.92Z"/>
  <path class="cls-15" d="m40.38,107.37s.07.18.19.48c.11.32.31.74.57,1.23.11.25.29.51.45.78.17.27.34.57.56.84.21.28.42.58.66.86.25.27.5.55.76.82.24.29.54.52.81.77.28.24.54.5.82.71.29.21.56.41.82.6.27.18.5.39.75.52.98.57,1.63.95,1.63.95h0c.06.04.08.11.04.17-.03.06-.11.08-.16.04,0,0-.67-.37-1.67-.93-.26-.13-.5-.33-.77-.51-.27-.19-.56-.38-.85-.59-.29-.21-.56-.46-.85-.7-.28-.25-.59-.48-.85-.77-.27-.28-.53-.55-.79-.83-.25-.29-.47-.59-.69-.87-.23-.28-.41-.58-.59-.85-.17-.28-.36-.54-.48-.8-.28-.52-.49-.95-.61-1.26-.13-.31-.2-.48-.2-.48-.05-.13,0-.28.13-.33.13-.05.28,0,.33.13,0,0,0,0,0,0Z"/>
  <path class="cls-15" d="m29.92,100.8s.08.21.22.58c.15.36.3.92.58,1.52.13.31.27.64.42.99.13.36.35.7.54,1.07.2.36.37.76.62,1.12.23.37.47.74.71,1.12.28.35.55.69.82,1.04.26.36.58.64.86.95.3.29.55.61.86.83.3.24.58.47.84.67.5.44,1.02.67,1.33.9.33.21.52.33.52.33h.01c.06.04.07.12.04.17-.03.05-.1.07-.16.04,0,0-.2-.11-.55-.3-.33-.21-.87-.42-1.42-.84-.27-.21-.57-.43-.88-.66-.33-.22-.59-.54-.91-.83-.3-.3-.64-.59-.91-.96-.28-.35-.57-.71-.85-1.06-.25-.38-.49-.77-.74-1.14-.26-.37-.44-.77-.63-1.15-.18-.39-.4-.74-.52-1.11-.14-.37-.27-.71-.39-1.04-.25-.64-.35-1.19-.46-1.57-.09-.38-.15-.6-.15-.6-.01-.05.02-.11.07-.12.05-.01.1.02.12.06Z"/>
  <path class="cls-15" d="m9.15,115.08s.26-.09.75-.21c.24-.06.53-.15.87-.2.34-.06.72-.12,1.14-.19.42-.06.88-.07,1.36-.12.48-.03.99-.08,1.52-.05.53.01,1.07.03,1.63.04.56-.01,1.11.11,1.67.16.56.07,1.12.14,1.67.2.54.1,1.07.24,1.59.35.51.12,1.01.23,1.48.34.48.08.89.29,1.29.42,1.58.57,2.64.96,2.64.96.06.02.09.09.07.15-.02.06-.09.09-.15.07h-.01s-1.06-.35-2.65-.86c-.4-.11-.82-.3-1.29-.38-.47-.1-.96-.2-1.47-.31-.51-.1-1.03-.23-1.57-.32-.54-.06-1.1-.12-1.65-.18-.55-.04-1.1-.15-1.65-.13-.55,0-1.08-.01-1.6-.02-.52-.03-1.02.04-1.5.06-.47.03-.93.04-1.34.09-.41.05-.79.09-1.12.14-.34.03-.62.1-.86.13-.48.07-.75.14-.75.14-.08.02-.16-.03-.18-.11-.02-.08.02-.15.09-.18h.01Z"/>
  <path class="cls-15" d="m75.19,116.32c-2.23-1.37-3.91-3.29-4.69-5.54-.05-.13-.25-.03-.23.08.36,2.33,2.35,4.4,4.8,5.83.64.14.63,0,.13-.37Z"/>
  <path class="cls-17" d="m28.17,79.33c-.86,0-1.71-.17-2.38-.51-.85-.43-1.39-1.11-1.57-1.97-.02-.09.04-.18.13-.2.1-.02.18.04.2.13.15.77.62,1.35,1.39,1.74,1.27.64,3.2.63,4.61-.02.08-.04.18,0,.22.08s0,.18-.08.22c-.75.35-1.65.52-2.53.52Z"/>
</svg>