<?xml version="1.0" encoding="UTF-8"?>
<svg id="Layer_1" data-name="Layer 1" xmlns="http://www.w3.org/2000/svg" width="300" height="250" viewBox="0 0 300 250">
  <rect width="300" height="250" style="fill: none;"/>
  <g>
    <path d="m227.95,79.64c0-7.62-6.18-13.8-13.8-13.8-4.06,0-7.72,1.76-10.24,4.55-5.15-2.06-11.35-3.13-18.38-3.13-1.65,0-3.33.06-5.05.18-.25-.5-.5-.99-.75-1.48-7.82-15.13-18.41-23.46-29.82-23.46s-22.01,8.33-29.82,23.46c-.25.49-.5.98-.75,1.48-1.72-.12-3.41-.18-5.06-.18-6.97,0-13.13,1.06-18.24,3.07-2.53-2.76-6.16-4.49-10.19-4.49-7.62,0-13.8,6.18-13.8,13.8,0,5.27,2.94,9.84,7.27,12.17-.61,8.07,2.28,17.4,8.55,27.18.3.47.6.93.91,1.39-.31.46-.61.92-.91,1.38-9.19,14.33-11.11,27.67-5.41,37.56,5.28,9.14,16.58,14.17,31.82,14.17,1.65,0,3.34-.06,5.06-.18.25.5.5,1,.75,1.49,4.66,9.03,10.31,15.63,16.55,19.49.3,7.35,6.36,13.21,13.78,13.21s13.8-6.18,13.8-13.8v-.07c5.81-3.94,11.1-10.31,15.51-18.83.25-.49.5-.99.75-1.49,1.72.12,3.4.18,5.05.18,15.24,0,26.54-5.03,31.82-14.18,5.71-9.88,3.79-23.22-5.4-37.55-.3-.46-.6-.92-.91-1.38.31-.46.61-.92.91-1.39,6.25-9.75,9.14-19.04,8.54-27.09,4.43-2.29,7.46-6.92,7.46-12.26Zm-44.52,13.06c-4.03-2.92-8.3-5.69-12.77-8.27-4.44-2.56-8.98-4.87-13.53-6.89,6.92-2.28,13.72-3.83,20.14-4.56,2.6,5.96,4.67,12.6,6.16,19.72Zm1.33,7.55c.94,6.46,1.42,13.22,1.42,20.13s-.48,13.66-1.42,20.12c-5.12,4.05-10.73,7.84-16.71,11.29-5.95,3.43-12.05,6.38-18.14,8.8-6.09-2.42-12.19-5.37-18.14-8.8-5.98-3.45-11.59-7.24-16.71-11.29-.94-6.46-1.43-13.22-1.43-20.12s.49-13.67,1.43-20.13c5.12-4.04,10.73-7.84,16.71-11.29,5.95-3.44,12.05-6.39,18.14-8.8,6.09,2.41,12.19,5.36,18.14,8.8,5.98,3.45,11.59,7.25,16.71,11.29Zm-34.85-52.52c9.28,0,18.14,7.19,24.99,20.28-7.98,1.08-16.45,3.3-24.98,6.55-8.53-3.24-17.02-5.47-25.01-6.55,6.85-13.09,15.71-20.28,25-20.28Zm-27.37,25.25c6.42.73,13.22,2.28,20.15,4.56-4.55,2.02-9.09,4.33-13.53,6.9-4.47,2.58-8.74,5.34-12.77,8.26,1.48-7.12,3.55-13.76,6.15-19.72Zm-38.06,20.4c.45.05.91.07,1.37.07,7.62,0,13.8-6.18,13.8-13.81,0-1.68-.3-3.29-.85-4.77,4.34-1.56,9.56-2.38,15.48-2.38.91,0,1.83.02,2.77.06-3.09,7.48-5.4,15.9-6.85,24.9-7.06,5.76-13.2,11.97-18.14,18.38-5.2-8.19-7.76-15.87-7.58-22.45Zm24.7,42.18c-5.43-4.83-10.15-9.95-14.01-15.18,3.85-5.23,8.58-10.35,14.01-15.2-.51,4.95-.77,10.04-.77,15.2s.26,10.23.77,15.18Zm5.1,32.71c-13.29,0-22.99-4.11-27.29-11.57-4.64-8.03-2.84-19.3,5.07-31.78,4.93,6.42,11.08,12.63,18.14,18.38,1.45,9,3.76,17.43,6.85,24.91-.94.04-1.86.06-2.77.06Zm2.11-20.22c4.03,2.92,8.3,5.69,12.77,8.27,4.44,2.57,8.98,4.88,13.53,6.9-6.93,2.28-13.73,3.83-20.15,4.56-2.61-5.96-4.67-12.61-6.15-19.73Zm46.62,39.99c-2.16-4.8-6.99-8.14-12.59-8.14s-10.81,3.62-12.84,8.73c-4.65-3.42-8.96-8.79-12.67-15.89,7.99-1.08,16.47-3.31,25-6.54,8.53,3.23,17.01,5.46,24.99,6.54-3.5,6.7-7.54,11.86-11.89,15.3Zm14.26-20.26c-6.42-.73-13.22-2.28-20.14-4.56,4.55-2.03,9.09-4.34,13.53-6.9,4.47-2.58,8.74-5.35,12.77-8.27-1.49,7.12-3.55,13.77-6.16,19.73Zm35.56-11.08c-4.31,7.46-14,11.57-27.3,11.57-.91,0-1.83-.02-2.76-.06,3.09-7.48,5.39-15.91,6.84-24.91,7.07-5.75,13.22-11.96,18.15-18.38,7.9,12.48,9.71,23.75,5.07,31.78Zm-22.2-51.53c5.43,4.86,10.16,9.98,14.02,15.21-3.87,5.23-8.6,10.35-14.02,15.19.52-4.95.78-10.03.78-15.19s-.26-10.25-.78-15.21Zm17.13,10.66c-4.94-6.42-11.08-12.63-18.15-18.38-1.45-9-3.75-17.42-6.84-24.9.93-.04,1.85-.06,2.76-.06,6.01,0,11.28.84,15.65,2.45-.54,1.46-.83,3.05-.83,4.7,0,7.63,6.18,13.81,13.8,13.81.4,0,.8-.02,1.19-.05.17,6.58-2.39,14.25-7.58,22.43Z" style="fill: #fff;"/>
    <path d="m176.89,120.38c0,14.9-12.08,26.98-26.98,26.98s-26.99-12.08-26.99-26.98,12.08-26.99,26.99-26.99,26.98,12.08,26.98,26.99Z" style="fill: #fff;"/>
  </g>
</svg>