<?xml version="1.0" encoding="UTF-8"?>
<svg id="Layer_1" data-name="Layer 1" xmlns="http://www.w3.org/2000/svg" width="15.06cm" height="3.95cm" xmlns:xlink="http://www.w3.org/1999/xlink" viewBox="0 0 426.93 112.05">
  <defs>
    <linearGradient id="linear-gradient" x1="102.51" y1="112.05" x2="102.51" y2="0" gradientUnits="userSpaceOnUse">
      <stop offset="0" stop-color="#1f2655"/>
      <stop offset=".09" stop-color="#202b5d"/>
      <stop offset=".25" stop-color="#213266"/>
      <stop offset=".49" stop-color="#223469"/>
      <stop offset=".73" stop-color="#213165"/>
      <stop offset=".92" stop-color="#202a5b"/>
      <stop offset="1" stop-color="#1f2655"/>
    </linearGradient>
    <linearGradient id="linear-gradient-2" x1="315.97" y1="112.05" x2="315.97" y2="0" gradientUnits="userSpaceOnUse">
      <stop offset="0" stop-color="#a81f23"/>
      <stop offset="0" stop-color="#a81f23"/>
      <stop offset=".1" stop-color="#be212a"/>
      <stop offset=".2" stop-color="#cd232f"/>
      <stop offset=".32" stop-color="#d62432"/>
      <stop offset=".49" stop-color="#d92533"/>
      <stop offset=".66" stop-color="#d52431"/>
      <stop offset=".79" stop-color="#cb232e"/>
      <stop offset=".91" stop-color="#bb2129"/>
      <stop offset="1" stop-color="#a81f23"/>
    </linearGradient>
    <linearGradient id="linear-gradient-3" x1="213.46" y1="98.46" x2="213.46" y2=".75" gradientUnits="userSpaceOnUse">
      <stop offset="0" stop-color="#fff" stop-opacity=".2"/>
      <stop offset="1" stop-color="#fff" stop-opacity=".3"/>
    </linearGradient>
  </defs>
  <path d="m205.02,0H10.24C4.63,0,0,4.63,0,10.24v91.58c0,5.61,4.63,10.24,10.24,10.24h194.78V0Z" style="fill: url(#linear-gradient);"/>
  <path d="m416.69,0h-211.67v112.05h211.67c5.61,0,10.24-4.63,10.24-10.24V10.24c0-5.61-4.63-10.24-10.24-10.24Z" style="fill: url(#linear-gradient-2);"/>
  <g>
    <path d="m331.86,36.85c4.82-.14,7.51-2.48,7.51-10.4,0-1.93-.24-3.86-.48-5.05h-34.44c-9.54,0-11.33,5.6-11.33,11.21v46.48c0,5.6,1.79,11.21,11.33,11.21h27.41c4.82-.14,7.51-2.48,7.51-10.4,0-1.93-.24-3.86-.48-5.05h-28.67v-12.08h18.66c4.56-.13,7.1-2.22,7.1-9.31,0-1.73-.23-3.46-.45-4.53h-25.31v-12.08h21.64Z" style="fill: #fff;"/>
    <path d="m400.86,21.25h-49.54c-4.17,0-8.47,2.21-8.47,11.95,0,1.18.13,2.51.25,3.69h8.66s11.97,0,11.97,0v52.9c1.22.29,2.71.29,4.19.29,10.41,0,12.85-3.25,12.85-9.15v-.8s.02,0,.02,0v-43.38h11.85c4.17,0,8.47-2.21,8.47-11.95,0-1.18-.13-2.51-.25-3.54Z" style="fill: #fff;"/>
    <path d="m271.51,54.3l-.47-.15.5-.2c3.49-1.38,6.12-3.28,8.04-5.81,1.93-2.71,2.83-5.55,2.83-8.96,0-2.44-.44-4.73-1.34-7.01-.86-2.17-2.35-4.1-4.42-5.72-1.95-1.53-4.61-2.76-8.12-3.77-3.13-.9-7.14-1.34-12.26-1.34h-16.06c-2.16,0-3.64.17-4.78.55-1.26.47-2.21,1.04-2.81,1.7-.69.77-1.13,1.6-1.41,2.69-.25,1.13-.37,2.2-.37,3.41v51.91c0,1.2.12,2.28.37,3.39.23,1.02.69,1.91,1.41,2.7.67.74,1.59,1.3,2.81,1.7,1.32.44,3.06.68,4.9.68h16.65c9.46,0,16.51-1.76,20.97-5.23,4.68-3.54,6.95-8.4,6.95-14.84,0-3.56-1.03-6.71-3.07-9.36-2.13-2.77-5.6-4.91-10.33-6.35Zm-24.67-19.55h8.24c3.81,0,6.53.58,8.32,1.77,1.68,1.24,2.54,3.11,2.54,5.56,0,1.1-.14,1.94-.45,2.74-.31.91-.8,1.64-1.66,2.46-1.06.87-2.07,1.41-3.27,1.75-.98.29-2.65.64-5.11.64h-8.6v-14.92Zm17.75,40.55c-1.89,1.17-4.97,1.77-9.16,1.77h-8.6v-15.71h8.95c2.01,0,4.28.08,5.92.64,1.58.54,2.78,1.04,3.53,1.75h.01s.01.02.01.02c.84.7,1.42,1.54,1.77,2.57.31.8.45,1.63.45,2.62,0,2.96-.97,5.1-2.89,6.35Z" style="fill: #fff;"/>
  </g>
  <path d="m415.39.75s0,0-1.94,0-3.97,2.54-7.53,2.54H21c-3.56,0-5.58-2.54-7.53-2.54s-1.94,0-1.94,0C5.74.75.97,5.19.97,10.58v87.88s12.76-58.46,212.5-58.46c199.74,0,212.5,58.46,212.5,58.46V10.58c0-5.39-4.78-9.84-10.57-9.84Z" style="fill: url(#linear-gradient-3);"/>
  <g>
    <path d="m81.36,31.62c3.2-3.12,3.26-8.24.15-11.43-3.12-3.2-8.23-3.27-11.42-.15-3.2,3.12-3.27,8.23-.15,11.42,3.11,3.2,8.23,3.26,11.42.16h0Z" style="fill: #fff;"/>
    <path d="m91.7,85.72c-3.19,3.11-3.26,8.22-.15,11.42,3.11,3.2,8.23,3.27,11.43.16,3.19-3.12,3.26-8.24.14-11.43-3.12-3.2-8.22-3.26-11.42-.15h0Z" style="fill: #fff;"/>
    <path d="m85.01,56.37l-11.68-3.35-1.76-5.72c2.35-2.7,2.31-6.78-.24-9.4l-2.07-2.12c-.93-.96-2.52-1.76-3.28-1.96l-17.12-4.39c-1.56-.41-3.22.09-4.31,1.28l-10.3,11.23c-1.63,1.78-1.52,4.55.26,6.19.84.77,1.9,1.15,2.96,1.15,1.18,0,2.36-.48,3.23-1.42l8.53-9.3,5.71,1.46-12.19,11.88c-1.87,1.6-3.56,4.14-2.49,6.7l4.82,11.46-19.93,10.34c-2.58,1.33-3.58,4.51-2.25,7.08,1.33,2.56,4.49,3.58,7.08,2.24l24.24-12.57c.69-.36,1.24-.88,1.69-1.46l2.65,2.93-3.87,14.33c-.76,2.79.9,5.68,3.7,6.44,2.83.76,5.69-.92,6.44-3.7l4.62-17.09c.46-1.72.03-3.56-1.17-4.88l-11.1-12.3,7.39-7.2,1.12,3.64c.44,1.41,1.55,2.51,2.97,2.92l13.96,4c2.33.67,4.75-.69,5.41-3,.67-2.32-.68-4.74-3-5.41h0Z" style="fill: #fff;"/>
    <path d="m177.28,51.84l-5.12-14.36c-.54-1.52-1.88-2.62-3.47-2.86l-17.48-2.63c-.8-.12-2.55.01-3.78.53l-2.74,1.15c-3.36,1.42-5,5.16-3.88,8.57l-3.85,4.57-12.07-1.46c-2.46-.29-4.58,1.42-4.87,3.82-.29,2.4,1.42,4.58,3.82,4.87l14.42,1.75c1.44.18,2.9-.38,3.88-1.53l2.44-2.91,4.4,10.44-7.26,5.19c-.7.5-1.27,1.17-1.65,1.94l-11.38,22.91c-1.29,2.6-.23,5.75,2.37,7.04,2.59,1.28,5.74.24,7.04-2.37l8.86-17.85,15.65,18.87c1.84,2.22,5.15,2.54,7.4.69,2.23-1.85,2.54-5.16.69-7.4l-14.34-17.28,8.9-8.69c1.94-1.89,1.44-4.63.39-6.97l-6.67-15.85,5.82.87,4.24,11.89c.82,2.29,3.34,3.47,5.59,2.65,2.27-.81,3.46-3.31,2.65-5.59h0Z" style="fill: #fff;"/>
    <path d="m148.48,27.68c4.11-1.73,6.04-6.46,4.31-10.58-1.73-4.11-6.46-6.04-10.57-4.31-4.11,1.73-6.05,6.47-4.32,10.59,1.74,4.11,6.48,6.04,10.59,4.3h0Z" style="fill: #fff;"/>
  </g>
</svg>