<?xml version="1.0" encoding="UTF-8"?>
<svg id="Layer_1" data-name="Layer 1" xmlns="http://www.w3.org/2000/svg" width="112.74" height="179.82" viewBox="0 0 112.74 179.82">
  <path d="m43.73,15.98c7.66,0,14.6,3.11,19.62,8.13,5.02,5.02,8.13,11.96,8.13,19.62,0,5.29-1.49,10.24-4.07,14.46-2.66,4.35-6.5,7.91-11.07,10.25l-5.44,2.78v-22.48c0-2.14-.83-4.04-2.18-5.39-1.36-1.36-3.25-2.18-5.39-2.18s-4.03.83-5.39,2.19c-1.36,1.36-2.19,3.25-2.19,5.39v22.32l-5.58-3.13c-4.29-2.41-7.88-5.94-10.38-10.2-2.42-4.13-3.8-8.91-3.8-13.99,0-7.66,3.11-14.6,8.13-19.62,5.02-5.02,11.96-8.13,19.62-8.13h0Zm14.32,13.42c-3.66-3.66-8.73-5.93-14.32-5.93s-10.66,2.27-14.32,5.93c-3.66,3.66-5.93,8.73-5.93,14.32,0,3.75,1,7.24,2.75,10.22.59,1.01,1.27,1.96,2.02,2.85v-8.06c0-4.21,1.66-7.97,4.38-10.69,2.72-2.72,6.49-4.38,10.69-4.38s7.97,1.66,10.69,4.38c2.72,2.72,4.38,6.48,4.38,10.69v8.99c.99-1.04,1.88-2.19,2.64-3.43,1.88-3.07,2.96-6.68,2.96-10.57,0-5.59-2.27-10.66-5.93-14.32Z" style="fill: #0974f1;"/>
  <path d="m97.67,95.32c-1.42,0-2.77.2-4.04.55-.76-1.98-1.91-3.75-3.38-5.21-2.72-2.72-6.49-4.38-10.69-4.38-1.77,0-3.56.3-5.3.91-.36.12-.71.26-1.06.41-.96-1.26-2.1-2.35-3.37-3.23-2.45-1.7-5.36-2.63-8.41-2.63-1.05,0-2.06.11-3.04.31v-33.32c0-4.21-1.66-7.97-4.38-10.69-2.72-2.72-6.48-4.38-10.69-4.38s-7.97,1.66-10.69,4.38c-2.72,2.72-4.38,6.48-4.38,10.69v48.74c-2.85-2.11-5.72-3.87-8.53-5.02-5.81-2.38-11.28-2.28-15.73,2.16h-.01c-1.12,1.13-1.95,2.37-2.52,3.73-.56,1.33-.86,2.74-.9,4.23h0c-.01.37-.02.32-.02.42,0,.11,0,.03.02.4h0c.21,7.13,5.91,15.64,13.12,26.4,4.44,6.62,9.48,14.16,14.12,22.71l.03.04c5.22,9.3,11.45,15.86,18.23,20.23,7.73,4.98,16.1,7.06,24.45,7.06,11.68,0,22.25-4.72,29.89-12.36,7.64-7.64,12.36-18.2,12.36-29.89v-27.18c0-8.44-6.62-15.07-15.07-15.07Zm7.58,42.25c0,9.62-3.88,18.31-10.17,24.59-6.29,6.29-14.98,10.17-24.59,10.17-7,0-13.99-1.73-20.41-5.86-5.77-3.72-11.14-9.4-15.71-17.55h0c-4.69-8.65-9.91-16.44-14.5-23.3-6.54-9.77-11.72-17.5-11.86-22.44v-.03c0-.19,0,.13,0-.17,0-.28-.02.03,0-.15v-.03c.02-.57.12-1.09.32-1.56.19-.45.5-.9.93-1.33,1.9-1.89,4.59-1.78,7.62-.54,3.95,1.62,8.36,5,12.61,8.84l6.25,5.63V48.74c0-2.14.83-4.03,2.19-5.39,1.36-1.36,3.26-2.19,5.39-2.19s4.04.83,5.39,2.18c1.36,1.36,2.18,3.25,2.18,5.39v46.45l5.97-4.44c.65-.48,1.38-.88,2.16-1.14.7-.23,1.5-.36,2.4-.36,1.53,0,2.97.45,4.16,1.28,1.2.83,2.18,2.05,2.78,3.57l1.85,4.65,3.93-3.09c.81-.63,1.67-1.11,2.57-1.42.9-.31,1.86-.47,2.84-.47,2.13,0,4.03.83,5.39,2.19s2.19,3.25,2.19,5.39v7.52l6-4.55c.63-.48,1.34-.87,2.13-1.14.7-.24,1.5-.37,2.4-.37,4.25,0,7.58,3.33,7.58,7.58v27.18Z" style="fill: #0974f1;"/>
  <path d="m47.48,3.75c0-2.07-1.68-3.75-3.75-3.75s-3.75,1.68-3.75,3.75v5.35c0,2.07,1.68,3.75,3.75,3.75s3.75-1.68,3.75-3.75V3.75Z" style="fill: #0974f1;"/>
  <path d="m74.65,18.11c1.46-1.46,1.46-3.83,0-5.3-1.46-1.46-3.83-1.46-5.3,0l-3.78,3.78c-1.46,1.46-1.46,3.83,0,5.3,1.46,1.46,3.83,1.46,5.3,0l3.78-3.78Z" style="fill: #0974f1;"/>
  <path d="m83.71,47.48c2.07,0,3.75-1.68,3.75-3.75s-1.68-3.75-3.75-3.75h-5.35c-2.07,0-3.75,1.68-3.75,3.75s1.68,3.75,3.75,3.75h5.35Z" style="fill: #0974f1;"/>
  <path d="m9.09,47.48c2.07,0,3.75-1.68,3.75-3.75s-1.68-3.75-3.75-3.75H3.75c-2.07,0-3.75,1.68-3.75,3.75s1.68,3.75,3.75,3.75h5.35Z" style="fill: #0974f1;"/>
  <path d="m16.59,21.89c1.46,1.46,3.83,1.46,5.3,0,1.46-1.46,1.46-3.83,0-5.3l-3.78-3.78c-1.46-1.46-3.83-1.46-5.3,0-1.46,1.46-1.46,3.83,0,5.3l3.78,3.78Z" style="fill: #0974f1;"/>
</svg>