<?xml version="1.0" encoding="UTF-8"?>
<svg id="Layer_1" data-name="Layer 1" xmlns="http://www.w3.org/2000/svg" viewBox="0 0 14.64 15.55">
  <defs>
    <style>
      .cls-1 {
        fill: red;
        stroke: #f2f4f6;
        stroke-miterlimit: 10;
        stroke-width: .5px;
      }
    </style>
  </defs>
  <path class="cls-1" d="m14.21,11.54c-.03-.13.07-.41.12-.5.03-.07-.2-1.19-.17-1.19-.05,0-.06.13-.09.13-.07-.02-.12-.06-.15-.13-.04.04-.08.04-.12,0-.03-.03-.35-.34-.39-.26-.14.35-.35-.65-.51-.5-.11-.28.16-.46-.18-.68-.21-.14-.42-.17-.65-.07-.29.12-.63-.27-.92-.26-.04,0-.06-.24-.02-.27.09-.07-.13-.16-.17-.21-.03.31-.18.08-.31,0-.14-.09-.18-.08-.03-.23.04-.05.11-.11.11-.18.06.03.13-.03.17-.06.13-.11.23-.26.34-.4.16-.21.13-.32.12-.55,0-.2.14-.28.18-.43.02-.11-.09-.21-.07-.32.01-.05.06-.13.05-.19-.01-.09-.09-.15-.15-.21-.08-.08-.06-.15-.09-.25-.06-.23-.1-.43-.14-.67-.04-.27-.21-.33-.39-.5-.12-.12.02-.39-.22-.39-.2,0-.37.18-.38.37-.01.32-.05.42-.26.66-.13.15-.09.31-.16.48-.1.2-.18,0-.25,0-.13,0-.47.26-.59.33.1-.17-.09-.28-.19-.38-.11-.09-.08-.25-.19-.32-.11-.06-.18-.01-.27-.11-.12-.13-.18.1-.27.12-.04,0-.01-.11-.11-.08-.07.02-.11.11-.16.16.11-.47.58-.96.42-1.48-.09-.29-.26-.38-.19-.71.01-.08.05-.44-.11-.26.13-.3-.16-.44-.16-.66,0-.08.06-.48.02-.51-.08-.05-.23-.17-.31-.13-.02,0-.24.1-.19-.02.04-.09.15-.14.05-.24-.13-.13-.18.03-.18.14-.12-.12-.08-.3-.15-.44.04.08-.34.22-.4.21-.18.01-.32.2-.49.25-.19.06,0-.21-.09-.27-.23-.16-.4.13-.52.07-.15-.08-.16.2-.17.3-.02.2-.1.4-.11.61,0,.19-.05.33-.3.32-.61-.02-.64.55-.64,1.01,0,.2.04.34-.18.4-.19.06-.29.31-.38.46-.25.43-.75.57-1.06.96-.16.19-.3.35-.51.48-.12.08-.26.22-.26.37,0,.18-.11.19-.14.35-.03.15-.16.41-.34.37.23.14.29.4.44.6-.19-.07.05.24.11.28.15.1.49.22.65.29.3.15.44.21.71.41.09.07.24.4.4.33-.11.06-.12.23-.05.31-.03,0-.06,0-.08-.02.06.41,1.07.45,1.33.67-.02-.11-.24-.13-.24-.22,0-.02.37.16.39.22.02.06-.08.02-.04.11.04.08.15.11.22.14.22.09.42.36.6.52.16.14.22.36.39.51.19.17.36.32.52.52.18.22.41.38.62.58.16.16-.03.07.04.16.03.05.16.09.2.15.34.43.72.85,1.16,1.17.25.17.5.31.77.44.24.12.38.35.62.45.25.1.46.2.68.35.19.14.46.2.63.35.25.21.47.28.78.36.24.06.52.12.7.32.27.31.6.33.99.3-.25-.16-.07-.67-.08-.91,0-.19.03-.39-.02-.58-.04-.14-.17-.34-.09-.48.04-.06.16-.03.18-.07.03-.08-.07-.12-.08-.19-.02-.1-.04-.43.11-.46.33-.07.04-.56.34-.7.01.04.03.08.04.12.04-.1.16-.19.11-.31-.04-.1-.13-.03-.16-.17Z"/>
</svg>