<?xml version="1.0" encoding="UTF-8"?>
<svg id="Family" xmlns="http://www.w3.org/2000/svg" viewBox="0 0 12.77 23.21">
  <defs>
    <style>
      .cls-1 {
        fill: #d2d7db;
      }
    </style>
  </defs>
  <path class="cls-1" d="m3.56,4.73c-.56.03-.85.36-1.23,1.15-.29.69-1.29,3.02-1.71,4.06-.3.74-1.05,1.97-.3,2.34.5.25.87,0,1.52-1.31.39-.79.67-1.36.95-1.93.24-.49.66-1.21.99-1.04.24.12.19.99.19,1.28,0,.7.06,10.62.01,12.85-.01.51.51,1.09,1.07,1.09.84,0,1.2-.6,1.2-1.1,0-1.03,0-5.35,0-5.85,0-.56,0-.82.13-.83.14,0,.12.27.12.83,0,.5,0,4.82,0,5.85,0,.49.37,1.1,1.2,1.1.56,0,1.08-.6,1.07-1.09-.03-2.23.01-12.15.01-12.85,0-.38-.02-1.16.21-1.3.33-.21.72.57.96,1.07.28.56.56,1.13.95,1.93.65,1.31,1.02,1.56,1.52,1.31.75-.37,0-1.6-.3-2.34-.42-1.04-1.42-3.37-1.71-4.06-.38-.79-.68-1.13-1.23-1.15-1.19-.04-1.97-.1-2.95-.09-.98,0-1.48.03-2.69.09Z"/>
  <circle class="cls-1" cx="6.27" cy="2.21" r="2.21"/>
</svg>