<?xml version="1.0" encoding="UTF-8"?>
<svg id="Family" xmlns="http://www.w3.org/2000/svg" viewBox="0 0 9.57 18.68">
  <defs>
    <style>
      .cls-1 {
        fill: #d2d7db;
      }
    </style>
  </defs>
  <path class="cls-1" d="m7.97,3.72c.45,0,.74-.04,1.08.26.46.51.46.56.48,2.01,0,.71.02,1.96.03,2.76,0,.71.14,1.82-.57,1.83-.68,0-.68-.48-.69-1.2-.01-1.02-.01-1.28-.02-1.88,0-.66.03-.77-.1-.77-.13,0-.13.01-.12.71,0,.65.17,9.77.17,10.3,0,.45-.23.94-.91.95-.68,0-.97-.39-.97-.84,0-.81-.1-4.36-.11-4.75,0-.45-.02-.67-.13-.67h-.06c-.11,0-.12.22-.12.67,0,.39.1,3.89.11,4.7,0,.45-.27.86-.95.87-.68,0-.93-.48-.93-.93,0-.53-.16-9.61-.16-10.26,0-.7-.01-.8-.14-.84-.48-.17-.6.58-1.32,1.3-.3.3-.63.12-1.24-.03-.85-.22-1.85-.91-.9-1.85.12-.12,1.26.76,1.49.52.61-.61.83-2,1.28-2.52.33-.31.32-.28.78-.29l4.03-.05Z"/>
  <path class="cls-1" d="m7.61,1.72c.01.96-.76,1.75-1.72,1.76-.96.01-1.75-.76-1.76-1.72C4.12.8,4.89.01,5.85,0c.96-.01,1.75.76,1.76,1.72Z"/>
</svg>