<?xml version="1.0" encoding="UTF-8"?>
<svg id="Family" xmlns="http://www.w3.org/2000/svg" viewBox="0 0 12.53 23.14">
  <defs>
    <style>
      .cls-1 {
        fill: #d2d7db;
      }
    </style>
  </defs>
  <path class="cls-1" d="m6.38,4.72c1.05,0,1.99.13,1.99.13.51.14,1.2,1.03,1.7,1.86.72,1.21,1.46,2.67,1.74,3.19.43.77,1.15,1.8.41,2.29-.74.5-1.57-1.03-2.02-1.79-.49-.82-1.41-2.53-1.75-2.32-.13.08.11.75.21,1.07.24.7,2.01,6.13,2.01,6.13h-2.24v6.72c0,.56-.19,1.13-.95,1.13s-1.01-.57-1.01-1.13v-5.88c0-.56.03-.83-.16-.83-.19,0-.18.27-.18.83v5.88c0,.56-.26,1.13-1.01,1.13s-.95-.57-.95-1.13v-6.71H1.92s1.74-5.36,1.96-6.16c.11-.31.26-.9.13-.98-.35-.21-1.11,1.52-1.6,2.27-.49.74-1.41,2.29-2.12,1.76-.71-.52.06-1.52.49-2.29.29-.51,1.03-1.98,1.74-3.19.49-.83,1.19-1.72,1.7-1.86,0,0,1.11-.12,2.16-.13Z"/>
  <path class="cls-1" d="m8.46,2.21c0,1.22-.99,2.21-2.21,2.21s-2.21-.99-2.21-2.21.99-2.21,2.21-2.21,2.21.99,2.21,2.21Z"/>
</svg>