<?xml version="1.0" encoding="UTF-8"?>
<svg id="Layer_1" data-name="Layer 1" xmlns="http://www.w3.org/2000/svg" viewBox="0 0 32.78 23.48">
  <defs>
    <style>
      .cls-1 {
        fill: #d2d7db;
      }
    </style>
  </defs>
  <g>
    <polygon class="cls-1" points="22.07 6.64 18.19 6.11 20.47 3.54 20.13 3.24 17.83 5.83 16.5 1.83 16.07 1.97 17.45 6.13 13.51 7.32 13.64 7.75 17.52 6.58 17.68 10.35 18.14 10.33 17.98 6.54 22.01 7.09 22.07 6.64"/>
    <path class="cls-1" d="m17.77,8.03c1.03,0,1.87-.84,1.87-1.87s-.84-1.87-1.87-1.87h0v3.75h0Z"/>
    <path class="cls-1" d="m15.9,6.15c0,1.03.84,1.87,1.87,1.87v-3.75c-1.03,0-1.87.84-1.87,1.87Z"/>
    <path class="cls-1" d="m16.28,2.92c.57,0,1.04-.47,1.04-1.04s-.47-1.04-1.04-1.04h0v2.08h0Z"/>
    <path class="cls-1" d="m15.24,1.88c0,.57.47,1.04,1.04,1.04V.84c-.57,0-1.04.47-1.04,1.04Z"/>
    <path class="cls-1" d="m13.57,8.88c.74,0,1.34-.6,1.34-1.34s-.6-1.34-1.34-1.34h0v2.68h0Z"/>
    <path class="cls-1" d="m12.23,7.54c0,.74.6,1.34,1.34,1.34v-2.68c-.74,0-1.34.6-1.34,1.34Z"/>
    <path class="cls-1" d="m17.91,11.45c.62,0,1.12-.5,1.12-1.12s-.5-1.12-1.12-1.12h0v2.23h0Z"/>
    <path class="cls-1" d="m16.79,10.34c0,.62.5,1.12,1.12,1.12v-2.23c-.62,0-1.12.5-1.12,1.12Z"/>
    <path class="cls-1" d="m22.04,7.85c.54,0,.99-.44.99-.99s-.44-.99-.99-.99h0v1.97h0Z"/>
    <path class="cls-1" d="m21.05,6.86c0,.54.44.99.99.99v-1.97c-.54,0-.99.44-.99.99Z"/>
    <path class="cls-1" d="m20.32,4.07c.37,0,.68-.3.68-.68s-.3-.68-.68-.68h0v1.35h0Z"/>
    <path class="cls-1" d="m19.64,3.39c0,.37.3.68.68.68v-1.35c-.37,0-.68.3-.68.68Z"/>
  </g>
  <g>
    <polyline class="cls-1" points="16.88 18.14 19.16 15.57 18.81 15.27 16.51 17.86 15.19 13.85 14.75 14 16.13 18.15"/>
    <polyline class="cls-1" points="16.21 18.61 16.37 22.38 16.82 22.36 16.66 18.57"/>
    <path class="cls-1" d="m16.45,20.05c1.03,0,1.87-.84,1.87-1.87s-.84-1.87-1.87-1.87h0v3.75h0Z"/>
    <path class="cls-1" d="m14.58,18.18c0,1.03.84,1.87,1.87,1.87v-3.75c-1.03,0-1.87.84-1.87,1.87Z"/>
    <path class="cls-1" d="m14.97,14.95c.57,0,1.04-.47,1.04-1.04s-.47-1.04-1.04-1.04h0v2.08h0Z"/>
    <path class="cls-1" d="m13.93,13.91c0,.57.47,1.04,1.04,1.04v-2.08c-.57,0-1.04.47-1.04,1.04Z"/>
    <path class="cls-1" d="m16.59,23.48c.62,0,1.12-.5,1.12-1.12s-.5-1.12-1.12-1.12h0v2.23h0Z"/>
    <path class="cls-1" d="m15.48,22.37c0,.62.5,1.12,1.12,1.12v-2.23c-.62,0-1.12.5-1.12,1.12Z"/>
    <path class="cls-1" d="m19,16.09c.37,0,.68-.3.68-.68s-.3-.68-.68-.68h0v1.35h0Z"/>
    <path class="cls-1" d="m18.33,15.42c0,.37.3.68.68.68v-1.35c-.37,0-.68.3-.68.68Z"/>
  </g>
  <g>
    <polyline class="cls-1" points="5.04 3.98 8.69 2.2 8.49 1.79 4.98 3.5"/>
    <polyline class="cls-1" points="4.52 3.47 1.19 .88 .91 1.24 4.37 3.93 1.75 7.1 2.1 7.4 4.68 4.26"/>
    <path class="cls-1" d="m5.69,5.33c.86-.57,1.09-1.74.52-2.6s-1.74-1.09-2.6-.52h0s2.08,3.12,2.08,3.12h0Z"/>
    <path class="cls-1" d="m3.09,4.81c.57.86,1.74,1.09,2.6.52l-2.08-3.12c-.86.57-1.09,1.74-.52,2.6Z"/>
    <path class="cls-1" d="m1.62,1.91c.48-.32.61-.97.29-1.44S.94-.14.46.18h0s1.16,1.73,1.16,1.73h0Z"/>
    <path class="cls-1" d="m.18,1.62c.32.48.97.61,1.44.29L.46.18C-.02.49-.14,1.14.18,1.62Z"/>
    <path class="cls-1" d="m2.68,8.37c.61-.41.78-1.24.37-1.86s-1.24-.78-1.86-.37h0l1.49,2.23h0Z"/>
    <path class="cls-1" d="m.82,8c.41.61,1.24.78,1.86.37l-1.49-2.23c-.61.41-.78,1.24-.37,1.86Z"/>
    <path class="cls-1" d="m9.14,2.81c.45-.3.57-.91.27-1.37s-.91-.57-1.37-.27h0l1.1,1.64h0Z"/>
    <path class="cls-1" d="m7.77,2.54c.3.45.91.57,1.37.27l-1.1-1.64c-.45.3-.57.91-.27,1.37Z"/>
  </g>
  <g>
    <polyline class="cls-1" points="28.36 16.99 26.52 14.01 26.2 14.21 28.11 17.3 25.16 19.02 25.35 19.35 28.26 17.65 29.11 20.66 29.48 20.56 28.62 17.53 31.98 17.2 31.94 16.82 28.71 17.14"/>
    <path class="cls-1" d="m28.74,18.77c.84-.2,1.35-1.04,1.15-1.87s-1.04-1.35-1.87-1.15h0s.72,3.02.72,3.02h0Z"/>
    <path class="cls-1" d="m26.86,17.62c.2.84,1.04,1.35,1.87,1.15l-.72-3.02c-.84.2-1.35,1.04-1.15,1.87Z"/>
    <path class="cls-1" d="m26.55,14.93c.46-.11.75-.58.64-1.04s-.58-.75-1.04-.64h0s.4,1.68.4,1.68h0Z"/>
    <path class="cls-1" d="m25.51,14.29c.11.46.58.75,1.04.64l-.4-1.68c-.46.11-.75.58-.64,1.04Z"/>
    <path class="cls-1" d="m25.51,20.27c.6-.14.96-.74.82-1.34s-.74-.96-1.34-.82h0l.52,2.16h0Z"/>
    <path class="cls-1" d="m24.18,19.45c.14.6.74.96,1.34.82l-.52-2.16c-.6.14-.96.74-.82,1.34Z"/>
    <path class="cls-1" d="m29.51,21.51c.5-.12.8-.62.69-1.12s-.62-.8-1.12-.69h0l.43,1.8h0Z"/>
    <path class="cls-1" d="m28.39,20.82c.12.5.62.8,1.12.69l-.43-1.8c-.5.12-.8.62-.69,1.12Z"/>
    <path class="cls-1" d="m32.15,17.81c.44-.1.71-.55.61-.99s-.55-.71-.99-.61h0l.38,1.59h0Z"/>
    <path class="cls-1" d="m31.16,17.2c.1.44.55.71.99.61l-.38-1.59c-.44.1-.71.55-.61.99Z"/>
  </g>
  <g>
    <polyline class="cls-1" points="5.56 15.82 3.72 12.84 3.4 13.04 5.31 16.13 2.36 17.85 2.55 18.18 5.46 16.48 6.31 19.49 6.68 19.39 5.82 16.36 9.18 16.03 9.14 15.65 5.91 15.97"/>
    <path class="cls-1" d="m5.94,17.6c.84-.2,1.35-1.04,1.15-1.87s-1.04-1.35-1.87-1.15h0s.72,3.02.72,3.02h0Z"/>
    <path class="cls-1" d="m4.06,16.45c.2.84,1.04,1.35,1.87,1.15l-.72-3.02c-.84.2-1.35,1.04-1.15,1.87Z"/>
    <path class="cls-1" d="m3.75,13.77c.46-.11.75-.58.64-1.04s-.58-.75-1.04-.64h0s.4,1.68.4,1.68h0Z"/>
    <path class="cls-1" d="m2.71,13.13c.11.46.58.75,1.04.64l-.4-1.68c-.46.11-.75.58-.64,1.04Z"/>
    <path class="cls-1" d="m2.71,19.1c.6-.14.96-.74.82-1.34s-.74-.96-1.34-.82h0l.52,2.16h0Z"/>
    <path class="cls-1" d="m1.37,18.28c.14.6.74.96,1.34.82l-.52-2.16c-.6.14-.96.74-.82,1.34Z"/>
    <path class="cls-1" d="m6.71,20.34c.5-.12.8-.62.69-1.12s-.62-.8-1.12-.69h0l.43,1.8h0Z"/>
    <path class="cls-1" d="m5.59,19.66c.12.5.62.8,1.12.69l-.43-1.8c-.5.12-.8.62-.69,1.12Z"/>
    <path class="cls-1" d="m9.35,16.64c.44-.1.71-.55.61-.99s-.55-.71-.99-.61h0l.38,1.59h0Z"/>
    <path class="cls-1" d="m8.36,16.03c.1.44.55.71.99.61l-.38-1.59c-.44.1-.71.55-.61.99Z"/>
  </g>
</svg>