<?xml version="1.0" encoding="UTF-8"?>
<svg id="Science_Icons_-_White_Series_EPS10" data-name="Science Icons - White Series | EPS10" xmlns="http://www.w3.org/2000/svg" viewBox="0 0 35.7 45.93">
  <defs>
    <style>
      .cls-1 {
        fill: #d2d7db;
      }
    </style>
  </defs>
  <path class="cls-1" d="m35.29,40.66h0l-3.17-5.49-3.17,5.49h0c-.27.5-.42,1.07-.42,1.68,0,1.98,1.61,3.59,3.59,3.59s3.59-1.61,3.59-3.59c0-.61-.15-1.18-.42-1.68Z"/>
  <path class="cls-1" d="m15.16,2.36c-.99-.99-2.6-.99-3.59,0l-1.91,1.91-3.15-3.15C5.02-.37,2.6-.37,1.12,1.12-.37,2.6-.37,5.02,1.12,6.5l3.15,3.15-1.91,1.91c-.99.99-.99,2.6,0,3.59.5.5,1.15.74,1.8.74s1.3-.25,1.8-.74L15.16,5.95c.99-.99.99-2.6,0-3.59Z"/>
  <path class="cls-1" d="m31.42,33.65c.57,0,1.14-.22,1.58-.65.87-.87.87-2.28,0-3.16l-3.2-3.2c.19-1.17-.17-2.4-1.07-3.3l-14.18-14.18-1.54,1.54,14.45,14.45c.46.46.46,1.21,0,1.67-.23.23-.53.35-.84.35s-.6-.12-.84-.35l-14.45-14.45-2.17,2.17,14.18,14.18c.74.74,1.72,1.12,2.69,1.12.2,0,.41-.02.61-.05l3.2,3.2c.44.44,1.01.65,1.58.65Z"/>
</svg>