<?xml version="1.0" encoding="UTF-8"?>
<svg id="Layer_1" data-name="Layer 1" xmlns="http://www.w3.org/2000/svg" viewBox="0 0 120.09 64.49">
  <defs>
    <style>
      .cls-1 {
        stroke-linecap: round;
      }

      .cls-1, .cls-2 {
        fill: none;
        stroke: #d2d7db;
        stroke-miterlimit: 10;
        stroke-width: 3px;
      }
    </style>
  </defs>
  <path class="cls-1" d="m92.51,55.28c17.53-9.05,25.81-22.82,25.81-22.82,0,0-19.24-30.95-58.29-30.95-6.58,0-12.6.88-18.05,2.34"/>
  <path class="cls-1" d="m31.67,7.52C11.66,16.53,1.76,32.45,1.76,32.45c0,0,18.36,30.54,58.29,30.54,9.17,0,17.2-1.61,24.13-4.09"/>
  <path class="cls-2" d="m70.58,45.81c-2.95,2.36-6.68,3.77-10.75,3.77-9.51,0-17.21-7.71-17.21-17.21,0-3.99,1.35-7.65,3.63-10.57"/>
  <path class="cls-1" d="m54.65,15.95c1.64-.52,3.38-.79,5.18-.79,9.51,0,17.21,7.71,17.21,17.21,0,1.8-.28,3.54-.79,5.17"/>
</svg>