<?xml version="1.0" encoding="UTF-8"?>
<svg id="Couple" xmlns="http://www.w3.org/2000/svg" viewBox="0 0 27.31 72.19">
  <defs>
    <style>
      .cls-1 {
        fill: #040504;
      }
    </style>
  </defs>
  <path class="cls-1" d="m27.28,33.94v-10.65c0-5.58.18-5.76-1.59-7.76-1.29-1.18-2.43-1.06-4.18-1.06H5.79c-1.74,0-2.88-.11-4.18,1.06C-.15,17.53.03,17.7.03,23.29v10.65c0,2.76-.47,7.05,2.29,7.05s2.6-1.87,2.6-4.65c0-3.93,0-4.95,0-7.28,0-2.54-.15-2.97.36-2.97s.51.03.51,2.73c0,2.5-.02,37.72-.02,39.75,0,1.75.93,3.61,3.56,3.61s3.71-1.53,3.71-3.28v-18.32c0-1.75.06-2.59.49-2.59h.25c.43,0,.49.85.49,2.59v18.32c0,1.75,1.09,3.28,3.71,3.28s3.56-1.87,3.56-3.61c0-2.04-.02-37.25-.02-39.75,0-2.7,0-2.73.51-2.73s.37.43.37,2.97c0,2.32,0,3.34,0,7.28,0,2.78-.02,4.65,2.6,4.65,2.76,0,2.29-4.29,2.29-7.05Z"/>
  <path class="cls-1" d="m13.34,13.44c3.71,0,6.72-3.01,6.72-6.72S17.06,0,13.34,0s-6.72,3.01-6.72,6.72,3.01,6.72,6.72,6.72Z"/>
</svg>