<?xml version="1.0" encoding="UTF-8"?>
<svg xmlns="http://www.w3.org/2000/svg" width="300" height="250" viewBox="0 0 300 250">
  <g id="Layer_1" data-name="Layer 1">
    <rect width="300" height="250" style="fill: #1a3e33;"/>
  </g>
  <g id="Building">
    <g>
      <polygon points="70.2 160.79 70.2 155.1 229.8 155.1 229.8 160.79 70.2 160.79 70.2 160.79" style="fill: #fff; fill-rule: evenodd;"/>
      <path d="m143,155.73l-1.16-57.43h1.01l-1.01-49.66h1.39l3.36,81.96.03.89h15.95l.03-.89,3.36-81.96h1.39l-1.01,49.66h1.01l-1.16,57.43h-23.21,0Zm1.98-109.67h19.24l-3.43,83.58h-12.38l-3.43-83.58h0Zm8.78-.87v-6.5h1.49v6.5h-1.49Z" style="fill: #fff; fill-rule: evenodd;"/>
      <polygon points="111.18 155.55 107.53 155.55 107.53 108.31 106.6 108.31 106.6 155.55 104 155.55 104 108.31 103.07 108.31 103.07 155.55 100.46 155.55 100.46 108.31 99.54 108.31 99.54 155.55 95.89 155.55 95.89 106.85 102.98 98.67 104.09 98.67 111.18 106.85 111.18 106.85 111.18 155.55 111.18 155.55" style="fill: #fff; fill-rule: evenodd;"/>
      <path d="m79.9,115.87h.84v-.82h.87v-.59h4.6v.59h4.24v.82h.84v39.68h-11.38v-39.68h0Zm4.62-4.89h.83v3h-.83v-3h0Z" style="fill: #fff; fill-rule: evenodd;"/>
      <path d="m122.48,71.36h1.06v3.82h-1.06v-3.82h0Zm12.22,84.19h-18.39v-24.28l1.66-.21v-2.08l16.74-2.09v2.08l1.73-.22v26.8h-1.73Zm-18.39-27.77v-13.86l1.66-.21v-2.19l16.74-2.09v2.19l1.73-.22v13.86l-20.12,2.52h0Zm0-17.45v-13.74l1.66-.21v-2.21l16.74-2.09v2.21l1.73-.22v13.74l-20.12,2.52h0Zm0-17.37v-16.23h3.81v-.98h5.91v-1.46h5.53v1.46h1.05v.98h3.81v13.73l-20.12,2.52h0v-.02Z" style="fill: #fff; fill-rule: evenodd;"/>
      <path d="m199.17,107.52h2.57v-.72h2.84v-1.11h6.2v1.11h6.7v.72h2.57v4.39l-3.08.75v42.37h-14.73v-42.37l-3.08-.75v-4.39h0Zm10.17-3.99v-3.28h.93v3.28h.36v1.76h-1.65v-1.76h.36Zm10.71,9.35v42.15h-1.88v-41.65l1.88-.5h0Zm-19,42.15h-1.88v-42.15l1.88.5v41.65h0Z" style="fill: #fff; fill-rule: evenodd;"/>
      <path d="m170.52,67.02l24.16,11.61v30.17l-15.41,8.77v38.16h-7.9v-40.19l-.86-.63v-47.89h0Zm21.82,45.25v43.46h-11.2v-37.08l11.2-6.38h0Z" style="fill: #fff; fill-rule: evenodd;"/>
    </g>
  </g>
  <g id="Layer_3" data-name="Layer 3">
    <g>
      <path d="m73.65,178.47h2.56c.38,0,.77.01,1.17.04s.8.08,1.18.17.75.21,1.09.38.65.39.9.67.46.63.62,1.04.23.91.23,1.49v.81c0,.44-.06.85-.19,1.22s-.29.7-.5.98-.45.52-.71.7-.54.31-.82.38v.08c.83.15,1.45.54,1.87,1.18s.63,1.45.63,2.44v.85c0,.61-.07,1.13-.2,1.58s-.32.83-.56,1.14-.53.57-.86.78-.7.36-1.09.47-.82.19-1.27.23-.91.06-1.39.06h-2.66v-16.68Zm2.97,7.14c.34,0,.65-.04.93-.12s.52-.21.72-.38.35-.4.46-.67.16-.61.16-1v-.68c0-.39-.04-.74-.12-1.04s-.21-.55-.39-.76-.41-.37-.7-.47-.64-.16-1.06-.16h-.49v5.29h.49Zm.23,7.78c.34,0,.65-.04.92-.13s.51-.22.71-.41.35-.42.46-.71.16-.62.16-1.02v-1.3c0-.39-.04-.74-.12-1.04s-.21-.56-.39-.76-.41-.36-.7-.47-.64-.16-1.05-.16h-.72v6h.72Z" style="fill: #fff;"/>
      <path d="m83.74,181.71h2.47v10.11c0,.59.09,1,.27,1.24s.45.35.8.35c.25,0,.49-.07.72-.21s.45-.33.63-.59v-10.9h2.47v13.45h-1.88l-.24-1.44h0c-.2.31-.4.56-.62.77s-.45.37-.68.49-.48.21-.73.26-.49.08-.74.08c-.79,0-1.4-.27-1.82-.82s-.64-1.37-.64-2.48v-10.3Z" style="fill: #fff;"/>
      <path d="m95.01,179.78c-.46,0-.82-.14-1.08-.41s-.4-.67-.4-1.2c0-.29.03-.54.1-.74s.17-.36.29-.48.28-.21.46-.26.39-.08.62-.08c.49,0,.86.12,1.11.37s.38.64.38,1.19c0,.51-.13.9-.39,1.19s-.63.42-1.12.42Zm-1.28,1.92h2.47v13.45h-2.47v-13.45Z" style="fill: #fff;"/>
      <path d="m98.81,177.39h2.47v17.76h-2.47v-17.76Z" style="fill: #fff;"/>
      <path d="m106.44,195.31c-.15,0-.33-.01-.53-.04s-.41-.1-.62-.2-.43-.26-.63-.47-.39-.49-.56-.85-.29-.81-.4-1.34-.15-1.18-.15-1.94v-4.27c0-.75.05-1.39.16-1.91s.25-.95.42-1.29.37-.61.59-.8.44-.33.65-.42.43-.15.62-.17.36-.03.49-.03c.24,0,.47.03.68.1s.41.15.59.26.33.23.47.36.25.27.34.41h0s-.08-1.71-.08-1.71v-3.58h2.46v17.76h-1.92l-.21-1.25c-.11.18-.24.35-.38.52s-.31.32-.51.45-.42.24-.66.32-.53.12-.84.12Zm.84-1.91c.16,0,.31-.03.43-.08s.24-.13.34-.21.19-.19.26-.31.14-.24.19-.36v-8.09c-.12-.27-.29-.51-.49-.7s-.45-.29-.75-.29c-.18,0-.35.03-.5.1s-.28.19-.39.37-.2.43-.26.74-.09.72-.09,1.23v5.16c0,.5.03.91.09,1.23s.15.57.26.75.24.3.4.37.32.1.5.1Z" style="fill: #fff;"/>
      <path d="m114.83,179.78c-.46,0-.82-.14-1.08-.41s-.4-.67-.4-1.2c0-.29.03-.54.1-.74s.17-.36.29-.48.28-.21.46-.26.39-.08.62-.08c.49,0,.86.12,1.11.37s.38.64.38,1.19c0,.51-.13.9-.39,1.19s-.63.42-1.12.42Zm-1.28,1.92h2.47v13.45h-2.47v-13.45Z" style="fill: #fff;"/>
      <path d="m118.6,181.71h1.9l.22,1.44h0c.2-.3.41-.55.63-.76s.46-.37.7-.49.49-.21.74-.26.5-.08.75-.08c.79,0,1.4.28,1.82.83s.64,1.38.64,2.48v10.3h-2.47v-10.21c0-.59-.09-1-.27-1.24s-.45-.35-.8-.35c-.25,0-.49.08-.74.24s-.46.39-.65.67v10.88h-2.47v-13.45Z" style="fill: #fff;"/>
      <path d="m130.57,196.07c0,.58.11.99.32,1.23s.55.36,1,.36c.18,0,.36-.03.53-.08s.32-.16.44-.3.23-.35.31-.61.12-.6.12-1.01v-2.12c-.22.29-.51.53-.85.74s-.78.31-1.29.31c-.15,0-.33-.01-.53-.04s-.41-.1-.62-.2-.43-.26-.63-.47-.39-.5-.56-.85-.29-.81-.4-1.34-.15-1.19-.15-1.95v-3.54c0-.73.05-1.35.15-1.86s.23-.94.4-1.28.35-.62.56-.81.43-.34.64-.44.43-.16.64-.19.39-.04.56-.04c.33,0,.61.04.86.13s.47.2.65.34.34.3.47.47.24.35.33.53l.22-1.33h1.92v12.91c0,.75-.07,1.42-.21,2.03s-.37,1.12-.67,1.54-.69.75-1.17.98-1.04.34-1.69.34c-.44,0-.86-.04-1.25-.12s-.73-.22-1.03-.42-.52-.47-.69-.81-.25-.78-.25-1.3c0-.09,0-.21.03-.34s.05-.28.1-.44h1.75Zm1.41-3.4c.16,0,.31-.03.43-.08s.24-.13.34-.22.19-.2.26-.31.14-.24.19-.36v-7.35c-.12-.27-.29-.51-.49-.7s-.45-.29-.75-.29c-.18,0-.35.03-.5.1s-.28.19-.39.37-.2.43-.26.74-.09.72-.09,1.23v4.42c0,.5.03.91.09,1.23s.15.57.26.75.24.31.4.38.32.1.5.1Z" style="fill: #fff;"/>
      <path d="m145.92,195.3c-.29,0-.58-.02-.87-.07s-.58-.14-.86-.28-.54-.35-.78-.62-.46-.62-.64-1.05-.33-.97-.43-1.61-.16-1.4-.16-2.29v-2.11c0-.87.05-1.62.16-2.24s.25-1.14.44-1.57.4-.76.65-1.01.51-.44.79-.58.56-.22.85-.26.58-.06.86-.06.54.02.83.06.57.12.84.25.53.32.78.57.46.59.64,1.01.33.95.44,1.58.16,1.38.16,2.26v2.11c0,.87-.06,1.62-.17,2.26s-.26,1.17-.45,1.6-.41.79-.65,1.06-.51.48-.78.63-.55.25-.83.3-.56.07-.82.07Zm.02-1.9c.22,0,.41-.06.56-.17s.28-.3.37-.56.16-.6.21-1.03.06-.96.06-1.59v-3.31c0-.63-.02-1.16-.06-1.59s-.11-.78-.21-1.04-.22-.45-.37-.57-.34-.18-.56-.18c-.23,0-.43.06-.59.18s-.29.31-.4.57-.18.61-.22,1.04-.07.96-.07,1.59v3.31c0,.63.02,1.16.07,1.59s.12.77.22,1.03.24.45.4.56.36.17.59.17Z" style="fill: #fff;"/>
      <path d="m152.14,183.46h-1.16v-1.76h1.16v-.97c0-.73.07-1.32.22-1.78.15-.46.36-.82.62-1.07s.57-.43.93-.52c.36-.09.74-.14,1.15-.14.12,0,.25,0,.39.02s.29.03.44.06.29.06.43.1c.14.04.27.09.38.15v1.74c-.27-.07-.58-.11-.92-.11-.16,0-.32.03-.46.08s-.28.14-.38.26c-.11.12-.2.28-.26.48-.07.2-.1.44-.1.74v.97h1.87v1.76h-1.87v11.69h-2.43v-11.69Z" style="fill: #fff;"/>
      <path d="m162.39,183.46h-1.04v-1.76h1.26l.5-3.49h1.76v3.49h2.15v1.76h-2.15v8.55c0,.29.03.53.08.71s.13.32.23.42.21.17.34.2.27.05.41.05c.24,0,.45-.03.64-.09s.36-.14.53-.24v1.37c-.14.18-.3.32-.46.43s-.34.2-.51.27-.35.12-.54.14-.36.04-.54.04c-.34,0-.68-.05-1-.14s-.6-.27-.85-.52-.44-.61-.59-1.07-.22-1.05-.22-1.78v-8.34Z" style="fill: #fff;"/>
      <path d="m168.7,177.39h2.47v3.16l-.13,2.3c.18-.25.38-.46.59-.63s.43-.3.65-.4.45-.17.68-.21.46-.06.69-.06c.79,0,1.39.28,1.82.83s.64,1.38.64,2.48v10.3h-2.47v-10.21c0-.59-.09-1-.27-1.24s-.45-.35-.8-.35c-.25,0-.5.08-.75.25s-.47.4-.66.69v10.86h-2.47v-17.76Z" style="fill: #fff;"/>
      <path d="m181.92,195.3c-.58,0-1.09-.11-1.54-.32s-.82-.55-1.13-1.01-.54-1.04-.69-1.75-.23-1.57-.23-2.57v-2.54c0-.85.06-1.58.19-2.19s.29-1.12.5-1.53.44-.74.71-.98.55-.42.83-.55.57-.21.85-.24.54-.05.79-.05c.44,0,.87.07,1.28.2s.77.36,1.08.68.56.75.75,1.29.28,1.21.28,2.02c0,.27,0,.55-.02.83s-.04.55-.06.83-.06.53-.1.79-.09.49-.13.7h-4.46v1.37c0,.59.02,1.08.07,1.48s.12.72.23.97.25.42.44.53.42.16.7.16c.15,0,.3-.03.44-.09s.27-.16.38-.31.19-.33.26-.57.1-.53.1-.88v-.42h2.06v.52c0,1.28-.3,2.21-.91,2.79s-1.49.87-2.64.87Zm1.37-8.07c0-.07.01-.17.02-.29s.01-.25.01-.38,0-.26,0-.39v-.33c0-.89-.1-1.52-.31-1.91s-.52-.59-.93-.59c-.21,0-.4.05-.57.15s-.3.27-.4.51-.18.55-.23.94-.08.88-.08,1.46v.82h2.48Z" style="fill: #fff;"/>
      <path d="m194.1,189.6l-3.36-11.12h2.55l2.04,7.98h.12l2.02-7.98h2.54l-3.38,11.12v5.56h-2.53v-5.56Z" style="fill: #fff;"/>
      <path d="m204.57,195.3c-.58,0-1.09-.11-1.54-.32s-.82-.55-1.13-1.01-.54-1.04-.69-1.75-.23-1.57-.23-2.57v-2.54c0-.85.06-1.58.19-2.19s.29-1.12.5-1.53.44-.74.71-.98.55-.42.83-.55.57-.21.85-.24.54-.05.79-.05c.44,0,.87.07,1.28.2s.77.36,1.08.68.56.75.75,1.29.28,1.21.28,2.02c0,.27,0,.55-.02.83s-.04.55-.06.83-.06.53-.1.79-.09.49-.13.7h-4.46v1.37c0,.59.02,1.08.07,1.48s.12.72.23.97.25.42.44.53.42.16.7.16c.15,0,.3-.03.44-.09s.27-.16.38-.31.19-.33.26-.57.1-.53.1-.88v-.42h2.06v.52c0,1.28-.3,2.21-.91,2.79s-1.49.87-2.64.87Zm1.37-8.07c0-.07.01-.17.02-.29s.01-.25.01-.38,0-.26,0-.39v-.33c0-.89-.1-1.52-.31-1.91s-.52-.59-.93-.59c-.21,0-.4.05-.57.15s-.3.27-.4.51-.18.55-.23.94-.08.88-.08,1.46v.82h2.48Z" style="fill: #fff;"/>
      <path d="m212.18,195.3c-.42,0-.79-.08-1.11-.25s-.59-.39-.82-.68-.39-.63-.5-1.02-.17-.82-.17-1.28c0-.55.07-1.04.21-1.47s.34-.82.6-1.16.59-.66.98-.94.84-.55,1.36-.81c.25-.12.53-.25.83-.38s.58-.24.83-.33v-1.78c0-.26,0-.5-.03-.73s-.07-.42-.14-.59-.19-.3-.34-.39-.35-.14-.62-.14c-.18,0-.35.03-.51.1s-.31.18-.44.33-.23.36-.3.62-.11.58-.11.97v.59h-1.88c-.06-.25-.1-.49-.13-.7s-.04-.42-.04-.63c0-.5.09-.94.26-1.33s.41-.71.72-.97.68-.46,1.11-.59.9-.2,1.42-.2c.67,0,1.23.07,1.67.22s.8.37,1.06.66.45.66.56,1.1.16.96.16,1.55v10.07h-1.84l-.18-1.15c-.27.38-.62.7-1.07.94s-.96.36-1.53.36Zm1.09-1.9c.21,0,.41-.05.61-.16s.37-.24.5-.4v-4.21c-.13.05-.28.11-.44.19s-.34.17-.53.28c-.18.11-.35.24-.52.4s-.32.34-.45.56-.24.46-.32.73-.12.57-.12.9c0,.51.1.93.3,1.24s.52.47.97.47Z" style="fill: #fff;"/>
      <path d="m219.35,181.71h1.81l.21,1.37c.27-.51.59-.89.94-1.14s.72-.38,1.09-.38c.71,0,1.23.22,1.57.65s.51,1.09.51,1.96c0,.11,0,.24-.02.4s-.04.31-.07.48-.07.33-.11.5-.09.32-.13.45h-1.72v-1.25c0-.27-.02-.5-.05-.67s-.08-.32-.14-.42-.13-.18-.21-.22-.16-.06-.25-.06c-.2,0-.38.06-.54.19s-.3.3-.42.53v11.07h-2.47v-13.45Z" style="fill: #fff;"/>
    </g>
  </g>
</svg>