<?xml version="1.0" encoding="UTF-8"?>
<svg xmlns="http://www.w3.org/2000/svg" width="300" height="250" viewBox="0 0 300 250">
  <g id="background">
    <rect width="300" height="250" fill="none"/>
  </g>
  <g id="logo_line">
    <line x1="228.05" y1="50.21" x2="280.15" y2="50.21" fill="none" stroke="#add8e6" stroke-miterlimit="10" stroke-width="3"/>
  </g>
  <g id="logo">
    <g>
      <path d="m228.81,17.37v-7.1h1.45v5.89h3.59v1.21h-5.04Z" fill="#fff"/>
      <path d="m234.56,14.7c0-.46.11-.9.34-1.32s.54-.75.95-.98c.41-.22.87-.34,1.38-.34.78,0,1.43.25,1.93.76s.75,1.15.75,1.93-.25,1.43-.76,1.95c-.51.52-1.14.77-1.91.77-.48,0-.93-.11-1.36-.32-.43-.21-.76-.53-.98-.94s-.34-.92-.34-1.52Zm1.41.07c0,.51.12.91.37,1.18s.54.41.9.41.66-.14.9-.41c.24-.27.36-.67.36-1.19s-.12-.9-.36-1.17c-.24-.27-.54-.41-.9-.41s-.66.14-.9.41-.37.67-.37,1.18Z" fill="#fff"/>
      <path d="m245.7,17.37h-1.37v-2.65c0-.56-.03-.92-.09-1.09s-.15-.29-.29-.38c-.13-.09-.29-.14-.48-.14-.24,0-.45.06-.64.2s-.32.3-.39.52c-.07.21-.11.61-.11,1.19v2.35h-1.37v-5.19h1.27v.76c.45-.59,1.02-.88,1.71-.88.3,0,.58.05.83.16s.44.25.57.42c.13.17.22.36.27.58.05.21.08.52.08.92v3.22Z" fill="#fff"/>
      <path d="m251.85,17.37h-1.27v-.76c-.21.3-.46.52-.75.66-.29.15-.58.22-.87.22-.6,0-1.11-.24-1.53-.72-.42-.48-.64-1.15-.64-2.01s.21-1.55.62-2,.94-.69,1.57-.69c.58,0,1.08.24,1.5.72v-2.58h1.37v7.16Zm-3.66-2.71c0,.55.08.95.23,1.2.22.36.53.54.93.54.32,0,.58-.13.81-.4s.33-.67.33-1.2c0-.6-.11-1.02-.32-1.29s-.49-.39-.83-.39-.6.13-.82.39c-.22.26-.33.65-.33,1.16Z" fill="#fff"/>
      <path d="m252.88,14.7c0-.46.11-.9.34-1.32s.54-.75.95-.98c.41-.22.87-.34,1.38-.34.78,0,1.43.25,1.93.76s.75,1.15.75,1.93-.25,1.43-.76,1.95c-.51.52-1.14.77-1.91.77-.48,0-.93-.11-1.36-.32-.43-.21-.76-.53-.98-.94s-.34-.92-.34-1.52Zm1.41.07c0,.51.12.91.37,1.18s.54.41.9.41.66-.14.9-.41c.24-.27.36-.67.36-1.19s-.12-.9-.36-1.17c-.24-.27-.54-.41-.9-.41s-.66.14-.9.41-.37.67-.37,1.18Z" fill="#fff"/>
      <path d="m264.02,17.37h-1.37v-2.65c0-.56-.03-.92-.09-1.09s-.15-.29-.29-.38c-.13-.09-.29-.14-.48-.14-.24,0-.45.06-.64.2s-.32.3-.39.52c-.07.21-.11.61-.11,1.19v2.35h-1.37v-5.19h1.27v.76c.45-.59,1.02-.88,1.71-.88.3,0,.58.05.83.16s.44.25.57.42c.13.17.22.36.27.58.05.21.08.52.08.92v3.22Z" fill="#fff"/>
      <path d="m228.78,29.37v-7.16h5.31v1.21h-3.86v1.59h3.59v1.21h-3.59v1.95h4v1.21h-5.44Z" fill="#fff"/>
      <path d="m239.96,25.72l-1.35.24c-.05-.27-.15-.47-.31-.61-.16-.14-.37-.21-.63-.21-.34,0-.61.12-.82.35-.2.24-.3.63-.3,1.18,0,.62.1,1.05.31,1.3.21.25.48.38.83.38.26,0,.47-.07.64-.22s.28-.4.35-.76l1.35.23c-.14.62-.41,1.09-.81,1.4s-.93.47-1.6.47c-.76,0-1.36-.24-1.81-.72-.45-.48-.68-1.14-.68-1.99s.23-1.52.68-2,1.06-.72,1.84-.72c.63,0,1.13.14,1.51.41.37.27.64.69.8,1.24Z" fill="#fff"/>
      <path d="m240.68,26.7c0-.46.11-.9.34-1.32s.54-.75.95-.98c.41-.22.87-.34,1.38-.34.78,0,1.43.25,1.93.76s.75,1.15.75,1.93-.25,1.43-.76,1.95c-.51.52-1.14.77-1.91.77-.48,0-.93-.11-1.36-.32-.43-.21-.76-.53-.98-.94s-.34-.92-.34-1.52Zm1.41.07c0,.51.12.91.37,1.18s.54.41.9.41.66-.14.9-.41c.24-.27.36-.67.36-1.19s-.12-.9-.36-1.17c-.24-.27-.54-.41-.9-.41s-.66.14-.9.41-.37.67-.37,1.18Z" fill="#fff"/>
      <path d="m251.82,29.37h-1.37v-2.65c0-.56-.03-.92-.09-1.09s-.15-.29-.29-.38c-.13-.09-.29-.14-.48-.14-.24,0-.45.06-.64.2s-.32.3-.39.52c-.07.21-.11.61-.11,1.19v2.35h-1.37v-5.19h1.27v.76c.45-.59,1.02-.88,1.71-.88.3,0,.58.05.83.16s.44.25.57.42c.13.17.22.36.27.58.05.21.08.52.08.92v3.22Z" fill="#fff"/>
      <path d="m252.9,26.7c0-.46.11-.9.34-1.32s.54-.75.95-.98c.41-.22.87-.34,1.38-.34.78,0,1.43.25,1.93.76s.75,1.15.75,1.93-.25,1.43-.76,1.95c-.51.52-1.14.77-1.91.77-.48,0-.93-.11-1.36-.32-.43-.21-.76-.53-.98-.94s-.34-.92-.34-1.52Zm1.41.07c0,.51.12.91.37,1.18s.54.41.9.41.66-.14.9-.41c.24-.27.36-.67.36-1.19s-.12-.9-.36-1.17c-.24-.27-.54-.41-.9-.41s-.66.14-.9.41-.37.67-.37,1.18Z" fill="#fff"/>
      <path d="m259.22,24.18h1.26v.71c.45-.55.99-.83,1.62-.83.33,0,.62.07.86.21s.44.34.6.62c.23-.28.47-.48.74-.62s.54-.21.84-.21c.38,0,.7.08.97.23s.46.38.59.68c.09.22.14.58.14,1.07v3.32h-1.37v-2.96c0-.51-.05-.85-.14-1-.13-.2-.32-.29-.59-.29-.19,0-.37.06-.54.18s-.29.29-.37.52-.11.58-.11,1.07v2.49h-1.37v-2.84c0-.5-.02-.83-.07-.98s-.12-.26-.23-.33c-.1-.07-.24-.11-.42-.11-.21,0-.4.06-.57.17s-.29.28-.36.49c-.07.21-.11.57-.11,1.07v2.52h-1.37v-5.19Z" fill="#fff"/>
      <path d="m268.21,23.48v-1.27h1.37v1.27h-1.37Zm0,5.89v-5.19h1.37v5.19h-1.37Z" fill="#fff"/>
      <path d="m275.51,25.72l-1.35.24c-.05-.27-.15-.47-.31-.61-.16-.14-.37-.21-.63-.21-.34,0-.61.12-.82.35-.2.24-.3.63-.3,1.18,0,.62.1,1.05.31,1.3.21.25.48.38.83.38.26,0,.47-.07.64-.22s.28-.4.35-.76l1.35.23c-.14.62-.41,1.09-.81,1.4s-.93.47-1.6.47c-.76,0-1.36-.24-1.81-.72-.45-.48-.68-1.14-.68-1.99s.23-1.52.68-2,1.06-.72,1.84-.72c.63,0,1.13.14,1.51.41.37.27.64.69.8,1.24Z" fill="#fff"/>
      <path d="m276.07,27.89l1.38-.21c.06.27.18.47.36.61s.43.21.75.21c.35,0,.62-.06.8-.2.12-.09.18-.21.18-.37,0-.1-.03-.19-.1-.26-.07-.06-.22-.13-.46-.18-1.11-.24-1.81-.47-2.1-.67-.41-.28-.62-.67-.62-1.17,0-.45.18-.83.53-1.13s.91-.46,1.65-.46,1.24.12,1.58.35.58.57.71,1.03l-1.29.24c-.06-.2-.16-.36-.32-.46-.15-.11-.38-.16-.66-.16-.36,0-.62.05-.78.15-.1.07-.16.16-.16.28,0,.1.05.18.14.25.12.09.55.22,1.28.39.73.17,1.24.37,1.53.61.29.24.43.58.43,1.02,0,.48-.2.88-.6,1.23s-.98.51-1.76.51c-.71,0-1.27-.14-1.68-.43-.41-.29-.68-.68-.81-1.17Z" fill="#fff"/>
      <path d="m228.41,39.04l1.41-.14c.08.47.26.82.51,1.04s.61.33,1.05.33c.46,0,.82-.1,1.05-.3.24-.2.35-.43.35-.69,0-.17-.05-.31-.15-.43-.1-.12-.27-.22-.52-.31-.17-.06-.56-.16-1.16-.31-.78-.19-1.32-.43-1.63-.71-.44-.39-.66-.87-.66-1.44,0-.36.1-.71.31-1.02.21-.32.5-.56.89-.73.39-.17.86-.25,1.41-.25.9,0,1.57.2,2.03.59s.69.92.72,1.58l-1.45.06c-.06-.37-.19-.63-.4-.79-.2-.16-.51-.24-.92-.24s-.75.09-.99.26c-.15.11-.23.26-.23.44,0,.17.07.31.21.43.18.15.62.31,1.33.48s1.22.34,1.56.52.6.42.79.73.29.69.29,1.14c0,.41-.11.79-.34,1.15-.23.36-.55.62-.97.8-.42.17-.94.26-1.56.26-.91,0-1.6-.21-2.08-.63-.49-.42-.78-1.03-.87-1.83Z" fill="#fff"/>
      <path d="m239.96,37.72l-1.35.24c-.05-.27-.15-.47-.31-.61-.16-.14-.37-.21-.63-.21-.34,0-.61.12-.82.35-.2.24-.3.63-.3,1.18,0,.62.1,1.05.31,1.3.21.25.48.38.83.38.26,0,.47-.07.64-.22s.28-.4.35-.76l1.35.23c-.14.62-.41,1.09-.81,1.4s-.93.47-1.6.47c-.76,0-1.36-.24-1.81-.72-.45-.48-.68-1.14-.68-1.99s.23-1.52.68-2,1.06-.72,1.84-.72c.63,0,1.13.14,1.51.41.37.27.64.69.8,1.24Z" fill="#fff"/>
      <path d="m242.36,34.21v2.63c.44-.52.97-.78,1.59-.78.32,0,.6.06.85.18s.45.27.57.45c.13.18.22.38.26.61.05.22.07.56.07,1.03v3.04h-1.37v-2.74c0-.54-.03-.89-.08-1.04s-.14-.26-.28-.35c-.13-.09-.3-.13-.5-.13-.23,0-.43.06-.61.17s-.31.28-.39.5c-.08.22-.12.55-.12.99v2.6h-1.37v-7.16h1.37Z" fill="#fff"/>
      <path d="m246.79,38.7c0-.46.11-.9.34-1.32s.54-.75.95-.98c.41-.22.87-.34,1.38-.34.78,0,1.43.25,1.93.76s.75,1.15.75,1.93-.25,1.43-.76,1.95c-.51.52-1.14.77-1.91.77-.48,0-.93-.11-1.36-.32-.43-.21-.76-.53-.98-.94s-.34-.92-.34-1.52Zm1.41.07c0,.51.12.91.37,1.18s.54.41.9.41.66-.14.9-.41c.24-.27.36-.67.36-1.19s-.12-.9-.36-1.17c-.24-.27-.54-.41-.9-.41s-.66.14-.9.41-.37.67-.37,1.18Z" fill="#fff"/>
      <path d="m252.9,38.7c0-.46.11-.9.34-1.32s.54-.75.95-.98c.41-.22.87-.34,1.38-.34.78,0,1.43.25,1.93.76s.75,1.15.75,1.93-.25,1.43-.76,1.95c-.51.52-1.14.77-1.91.77-.48,0-.93-.11-1.36-.32-.43-.21-.76-.53-.98-.94s-.34-.92-.34-1.52Zm1.41.07c0,.51.12.91.37,1.18s.54.41.9.41.66-.14.9-.41c.24-.27.36-.67.36-1.19s-.12-.9-.36-1.17c-.24-.27-.54-.41-.9-.41s-.66.14-.9.41-.37.67-.37,1.18Z" fill="#fff"/>
      <path d="m259.32,41.37v-7.16h1.37v7.16h-1.37Z" fill="#fff"/>
    </g>
  </g>
</svg>