<?xml version="1.0" encoding="UTF-8"?>
<svg id="_ÎÓÈ_1" data-name="—ÎÓÈ_1" xmlns="http://www.w3.org/2000/svg" width="300" height="250" viewBox="0 0 300 250">
  <rect width="300" height="250" fill="none"/>
  <g>
    <g>
      <path d="m106.74,53.73v97.05c18.59.12,35.84,4.01,42.78,36.97v-97.05c-6.95-32.97-24.2-36.85-42.78-36.97Z" fill="#3a3a89"/>
      <path d="m193.26,53.73v97.05c-18.59.12-35.84,4.01-42.78,36.97v-97.05c6.95-32.97,24.2-36.85,42.78-36.97Z" fill="#3a3a89"/>
    </g>
    <path d="m148.73,187.58c-11.95-18.91-28.18-27.58-48.43-26.64v-92.98c-6.57-5.34-14.27-9.68-22.76-6.78v111.87c23.63-7.2,47.35-4.04,71.19,14.53Z" fill="#3a3a89"/>
    <path d="m147.73,191.75c-22.83-13.99-47.89-18.9-76.52-9.36v-104.93c-4.83-4.75-10.52-5.98-16.79-4.84v123.66c28.98-18.65,60.45-17.19,93.31-4.52Z" fill="#3a3a89"/>
    <path d="m151.27,187.58c11.95-18.91,28.18-27.58,48.43-26.64v-92.98c6.57-5.34,14.27-9.68,22.76-6.78v111.87c-23.63-7.2-47.35-4.04-71.19,14.53Z" fill="#3a3a89"/>
    <path d="m152.27,191.75c22.83-13.99,47.89-18.9,76.52-9.36v-104.93c4.83-4.75,10.52-5.98,16.79-4.84v123.66c-28.98-18.65-60.45-17.19-93.31-4.52Z" fill="#3a3a89"/>
  </g>
</svg>