<?xml version="1.0" encoding="UTF-8"?>
<svg id="Layer_1" data-name="Layer 1" xmlns="http://www.w3.org/2000/svg" width="292.51" height="94.2" viewBox="0 0 292.51 94.2">
  <polygon points="70.92 57.53 68.53 60.33 93.86 60.33 91.58 57.53 70.92 57.53" fill="#3a3a89"/>
  <path d="m81.19,47.19c-5.44,0-9.91,4.16-10.42,9.47h20.83c-.51-5.31-4.98-9.47-10.42-9.47Z" fill="#3a3a89"/>
  <polygon points="81.22 25.55 79.99 43.47 82.4 43.47 81.22 25.55" fill="#3a3a89"/>
  <rect x="78.79" y="42.65" width="4.8" height="6.8" fill="#3a3a89"/>
  <path d="m91.25,61.04h-20.11c-.53,0-.95.43-.95.95v6.77h22.01v-6.77c0-.53-.43-.95-.95-.95Zm-17.2,5.12c0,.29-.24.53-.54.53h-.69c-.3,0-.54-.24-.54-.53v-3.52c0-.29.24-.53.54-.53h.69c.3,0,.54.24.54.53v3.52Zm4.01,0c0,.29-.24.53-.54.53h-.69c-.3,0-.54-.24-.54-.53v-3.52c0-.29.24-.53.54-.53h.69c.3,0,.54.24.54.53v3.52Zm4.01,0c0,.29-.24.53-.54.53h-.69c-.3,0-.54-.24-.54-.53v-3.52c0-.29.24-.53.54-.53h.69c.3,0,.54.24.54.53v3.52Zm4.01,0c0,.29-.24.53-.54.53h-.69c-.3,0-.54-.24-.54-.53v-3.52c0-.29.24-.53.54-.53h.69c.3,0,.54.24.54.53v3.52Zm4.01,0c0,.29-.24.53-.54.53h-.69c-.3,0-.54-.24-.54-.53v-3.52c0-.29.24-.53.54-.53h.69c.3,0,.54.24.54.53v3.52Z" fill="#3a3a89"/>
  <path d="m93.12,67.21h-23.86c-.62,0-1.13.5-1.13,1.13v15.35h26.11v-15.35c0-.62-.51-1.13-1.13-1.13Zm-20.81,14.51h-1.84v-12.39h1.84v12.39Zm3.92,0h-1.84v-12.39h1.84v12.39Zm3.92,0h-1.84v-12.39h1.84v12.39Zm3.92,0h-1.84v-12.39h1.84v12.39Zm3.92,0h-1.84v-12.39h1.84v12.39Zm3.92,0h-1.84v-12.39h1.84v12.39Z" fill="#3a3a89"/>
  <g>
    <g>
      <path d="m149.42,68.45c-1.25-1.09-2.58-2.03-3.88-2.82-.04,1.56-.18,3.11-.51,4.62,1.49-.45,2.9-1.06,4.39-1.8Z" fill="#3a3a89"/>
      <path d="m150.03,69.7c-.62-.1-1.05-.71-.95-1.35.06-.64.58-1.15,1.22-1.11.63.03,1.13.64,1.06,1.36-.1.71-.7,1.21-1.32,1.1Z" fill="#3a3a89"/>
      <path d="m148.21,73.84c-.92-1.31-2.09-2.54-3.18-3.59-.36,1.51-.82,3-1.49,4.4,1.59-.1,3.08-.4,4.67-.8Z" fill="#3a3a89"/>
      <path d="m148.56,75.2c-.59-.23-.88-.92-.66-1.53.24-.6.83-.99,1.45-.82.6.17.99.88.72,1.55-.24.68-.92,1.03-1.51.8Z" fill="#3a3a89"/>
      <path d="m145.88,78.85c-.63-1.49-1.45-2.91-2.34-4.2-.65,1.41-1.43,2.76-2.4,3.98,1.54.22,3.14.31,4.73.22Z" fill="#3a3a89"/>
      <path d="m145.94,80.26c-.52-.36-.67-1.09-.34-1.65.34-.55,1.07-.76,1.62-.47.57.3.72,1.04.35,1.65-.37.61-1.1.82-1.62.46Z" fill="#3a3a89"/>
      <path d="m142.53,83.23c-.34-1.63-.76-3.13-1.39-4.61-.92,1.26-2.02,2.36-3.18,3.38,1.41.5,3.01.98,4.57,1.22Z" fill="#3a3a89"/>
      <path d="m142.28,84.61c-.44-.46-.39-1.17.04-1.67.44-.48,1.18-.54,1.66-.13.48.41.49,1.17,0,1.71-.47.55-1.26.55-1.7.09Z" fill="#3a3a89"/>
      <path d="m138.34,86.82c0-1.69-.1-3.25-.38-4.81-1.18,1.01-2.47,1.87-3.84,2.62,1.3.83,2.69,1.53,4.21,2.19Z" fill="#3a3a89"/>
      <path d="m137.78,88.08c-.33-.55-.14-1.25.41-1.6.52-.39,1.25-.29,1.63.21.38.5.23,1.26-.35,1.69-.6.39-1.37.24-1.7-.3Z" fill="#3a3a89"/>
      <path d="m133.45,89.38c.4-1.56.58-3.24.67-4.75-1.38.7-2.81,1.31-4.31,1.71,1.11,1.15,2.29,2.08,3.64,3.05Z" fill="#3a3a89"/>
      <path d="m132.64,90.51c-.2-.6.13-1.27.74-1.49.62-.2,1.29-.01,1.56.58.26.56-.03,1.33-.71,1.55-.67.25-1.38-.04-1.59-.64Z" fill="#3a3a89"/>
      <path d="m128.13,90.83c.73-1.44,1.27-3,1.68-4.5-1.49.41-3.03.7-4.58.74.83,1.34,1.79,2.58,2.9,3.76Z" fill="#3a3a89"/>
      <path d="m127.1,91.78c-.07-.63.4-1.22,1.04-1.32.64-.1,1.27.32,1.4.93.14.63-.32,1.23-1.03,1.34-.71.11-1.34-.32-1.41-.95Z" fill="#3a3a89"/>
      <path d="m107.51,85.05c1.58-.4,3.13-1,4.51-1.62-1.26-.91-2.47-1.89-3.53-3.03-.5,1.52-.76,3-.98,4.65Z" fill="#3a3a89"/>
      <path d="m106.14,84.86c.44-.46,1.18-.48,1.66-.04.47.44.62,1.13.22,1.64-.37.49-1.18.59-1.71.1-.53-.48-.61-1.25-.17-1.71Z" fill="#3a3a89"/>
      <path d="m103.74,81.03c1.61-.04,3.25-.28,4.76-.62-1.05-1.13-2.04-2.35-2.81-3.7-.78,1.36-1.44,2.8-1.95,4.33Z" fill="#3a3a89"/>
      <path d="m102.41,80.56c.52-.36,1.26-.22,1.65.3.38.52.31,1.27-.16,1.67-.49.42-1.24.29-1.67-.28-.43-.57-.35-1.33.17-1.69Z" fill="#3a3a89"/>
      <path d="m100.91,76.29c1.63.29,3.19.44,4.78.41-.83-1.31-1.45-2.75-1.96-4.21-1,1.13-2.03,2.44-2.83,3.8Z" fill="#3a3a89"/>
      <path d="m99.71,75.55c.58-.23,1.25.07,1.54.65.28.58.06,1.3-.5,1.6-.56.3-1.27.02-1.58-.63-.33-.64-.06-1.37.54-1.61Z" fill="#3a3a89"/>
      <path d="m99.15,71.06c1.57.62,3.02,1.13,4.59,1.43-.51-1.47-.81-2.99-1.01-4.53-1.21.89-2.46,1.93-3.58,3.1Z" fill="#3a3a89"/>
      <path d="m98.17,70.07c.64-.1,1.18.34,1.34.97.16.63-.2,1.28-.81,1.45-.61.17-1.25-.26-1.43-.95-.18-.7.29-1.36.9-1.46Z" fill="#3a3a89"/>
      <path d="m98.56,65.56c1.39.95,2.77,1.75,4.17,2.39-.15-1.55-.15-3.11,0-4.66-1.4.61-2.77,1.37-4.17,2.26Z" fill="#3a3a89"/>
      <path d="m97.83,64.39c.63.03,1.12.59,1.09,1.24.03.65-.45,1.2-1.09,1.24-.63.03-1.17-.52-1.21-1.24.03-.72.57-1.27,1.21-1.24Z" fill="#3a3a89"/>
      <path d="m99.18,60.08c1.09,1.21,2.35,2.3,3.55,3.22.2-1.54.5-3.07,1.01-4.53-1.56.27-3,.74-4.56,1.31Z" fill="#3a3a89"/>
      <path d="m98.7,58.77c.61.17.97.82.81,1.45-.16.63-.7,1.07-1.34.97-.61-.1-1.08-.77-.9-1.46.18-.7.82-1.12,1.43-.95Z" fill="#3a3a89"/>
      <path d="m100.96,54.85c.77,1.41,1.78,2.75,2.77,3.92.51-1.46,1.13-2.9,1.96-4.21-1.57-.06-3.13.05-4.73.29Z" fill="#3a3a89"/>
      <path d="m100.76,53.46c.56.3.78,1.01.5,1.6-.3.58-.97.88-1.54.65-.6-.24-.86-.97-.54-1.61.31-.65,1.02-.93,1.58-.63Z" fill="#3a3a89"/>
      <path d="m103.82,50.13c.49,1.56,1.1,3.03,1.87,4.43.76-1.35,1.75-2.57,2.81-3.7-1.48-.36-3.1-.65-4.68-.73Z" fill="#3a3a89"/>
      <path d="m103.91,48.72c.47.4.54,1.15.16,1.67-.39.52-1.13.65-1.65.3-.52-.36-.6-1.11-.17-1.69.43-.58,1.17-.7,1.67-.28Z" fill="#3a3a89"/>
      <path d="m107.61,46.12c.19,1.68.41,3.19.89,4.73,1.05-1.14,2.27-2.12,3.53-3.03-1.35-.65-2.86-1.26-4.41-1.71Z" fill="#3a3a89"/>
      <path d="m108.02,44.79c.39.52.25,1.2-.22,1.64-.48.44-1.22.42-1.66-.04-.44-.46-.36-1.22.17-1.71.53-.49,1.34-.39,1.71.1Z" fill="#3a3a89"/>
      <path d="m112.18,43.03c-.2,1.63-.23,3.27-.16,4.8,1.3-.84,2.66-1.6,4.1-2.16-1.22-1.01-2.5-1.81-3.95-2.63Z" fill="#3a3a89"/>
      <path d="m112.87,41.82c.26.58,0,1.27-.58,1.55-.58.3-1.27.16-1.61-.39-.32-.53-.11-1.3.53-1.63.65-.32,1.39-.1,1.65.47Z" fill="#3a3a89"/>
      <path d="m117.31,41.01c-.57,1.5-.93,3.15-1.19,4.65,1.44-.56,2.94-1.01,4.47-1.23-.97-1.25-2.06-2.35-3.28-3.42Z" fill="#3a3a89"/>
      <path d="m118.24,39.96c.14.62-.26,1.25-.89,1.41-.63.14-1.29-.16-1.49-.76-.21-.61.18-1.29.88-1.45.7-.18,1.37.18,1.5.8Z" fill="#3a3a89"/>
      <path d="m122.75,40.14c-.87,1.36-1.59,2.82-2.16,4.29,1.52-.26,3.09-.37,4.64-.25-.69-1.41-1.51-2.77-2.48-4.04Z" fill="#3a3a89"/>
      <path d="m123.88,39.3c0,.63-.53,1.17-1.17,1.21-.65.03-1.23-.45-1.3-1.08-.07-.63.46-1.17,1.17-1.21.72-.04,1.3.45,1.3,1.09Z" fill="#3a3a89"/>
      <path d="m128.26,40.45c-1.15,1.17-2.15,2.4-3.02,3.74,1.55.05,3.09.33,4.58.74-.37-1.48-.88-3.05-1.56-4.48Z" fill="#3a3a89"/>
      <path d="m129.54,39.86c-.13.6-.76,1.02-1.4.93-.64-.1-1.11-.69-1.04-1.32.07-.63.7-1.06,1.41-.95.71.11,1.17.7,1.03,1.34Z" fill="#3a3a89"/>
      <path d="m133.57,41.93c-1.39.95-2.62,1.86-3.76,3,1.5.39,2.93,1.01,4.31,1.71-.06-1.5-.21-3.15-.55-4.71Z" fill="#3a3a89"/>
      <path d="m134.94,41.66c-.27.59-.94.78-1.56.58-.61-.22-.94-.89-.74-1.49.2-.6.91-.89,1.59-.64.68.23.97.99.71,1.55Z" fill="#3a3a89"/>
      <path d="m138.44,44.52c-1.56.61-2.99,1.31-4.32,2.11,1.36.74,2.66,1.61,3.84,2.62.31-1.53.43-3.07.48-4.73Z" fill="#3a3a89"/>
      <path d="m139.82,44.57c-.38.5-1.12.6-1.63.21-.55-.35-.74-1.05-.41-1.6.32-.54,1.09-.69,1.69-.3.58.43.73,1.18.35,1.69Z" fill="#3a3a89"/>
      <path d="m142.62,48.12c-1.58.2-3.22.65-4.66,1.13,1.16,1.03,2.27,2.13,3.18,3.38.64-1.45,1.1-2.92,1.47-4.51Z" fill="#3a3a89"/>
      <path d="m143.98,48.44c-.48.41-1.23.35-1.66-.13-.42-.49-.47-1.21-.03-1.67.43-.46,1.23-.45,1.7.09.48.53.48,1.3,0,1.7Z" fill="#3a3a89"/>
      <path d="m145.94,52.52c-1.62-.13-3.23-.09-4.8.11.96,1.22,1.75,2.57,2.4,3.98.9-1.25,1.74-2.64,2.4-4.09Z" fill="#3a3a89"/>
      <path d="m147.22,53.12c-.55.29-1.28.09-1.62-.47-.34-.55-.19-1.29.34-1.65.52-.36,1.25-.15,1.62.47.37.62.22,1.35-.35,1.65Z" fill="#3a3a89"/>
      <path d="m148.26,57.54c-1.62-.45-3.11-.79-4.72-.93.67,1.4,1.13,2.89,1.49,4.4,1.1-1.01,2.27-2.2,3.22-3.47Z" fill="#3a3a89"/>
      <path d="m149.35,58.4c-.62.17-1.21-.21-1.45-.82-.22-.61.07-1.29.66-1.53.59-.24,1.27.12,1.51.8.27.67-.12,1.38-.72,1.55Z" fill="#3a3a89"/>
      <path d="m149.44,62.93c-1.49-.79-2.91-1.44-4.41-1.93.33,1.52.47,3.07.51,4.62,1.3-.76,2.62-1.66,3.9-2.7Z" fill="#3a3a89"/>
      <path d="m150.29,64.02c-.64.03-1.16-.47-1.22-1.11-.1-.64.33-1.24.95-1.35.62-.1,1.22.39,1.32,1.1.07.71-.43,1.32-1.06,1.36Z" fill="#3a3a89"/>
    </g>
    <g>
      <polygon points="124.97 43.9 124.19 64.78 123.42 43.9 124.97 43.9" fill="#3a3a89"/>
      <polygon points="119.33 44.42 123.98 64.78 117.83 44.82 119.33 44.42" fill="#3a3a89"/>
      <polygon points="114.02 46.38 123.77 64.84 112.68 47.16 114.02 46.38" fill="#3a3a89"/>
      <polygon points="109.4 49.65 123.59 64.96 108.31 50.75 109.4 49.65" fill="#3a3a89"/>
      <polygon points="105.78 54 123.44 65.11 105.01 55.35 105.78 54" fill="#3a3a89"/>
      <polygon points="103.41 59.15 123.34 65.3 103.01 60.65 103.41 59.15" fill="#3a3a89"/>
      <polygon points="102.45 64.73 123.29 65.51 102.45 66.29 102.45 64.73" fill="#3a3a89"/>
      <polygon points="102.97 70.37 123.3 65.72 103.37 71.88 102.97 70.37" fill="#3a3a89"/>
      <polygon points="104.93 75.69 123.36 65.93 105.7 77.04 104.93 75.69" fill="#3a3a89"/>
      <polygon points="108.19 80.32 123.47 66.11 109.29 81.42 108.19 80.32" fill="#3a3a89"/>
      <polygon points="112.54 83.94 123.63 66.26 113.88 84.72 112.54 83.94" fill="#3a3a89"/>
      <polygon points="134.19 84.8 124.44 66.34 135.54 84.03 134.19 84.8" fill="#3a3a89"/>
      <polygon points="138.81 81.54 124.63 66.23 139.91 80.44 138.81 81.54" fill="#3a3a89"/>
      <polygon points="142.43 77.18 124.77 66.07 143.21 75.83 142.43 77.18" fill="#3a3a89"/>
      <polygon points="144.8 72.03 124.87 65.88 145.2 70.53 144.8 72.03" fill="#3a3a89"/>
      <polygon points="145.76 66.45 124.92 65.67 145.76 64.9 145.76 66.45" fill="#3a3a89"/>
      <polygon points="145.25 60.81 124.92 65.46 144.85 59.31 145.25 60.81" fill="#3a3a89"/>
      <polygon points="143.29 55.49 124.86 65.25 142.51 54.15 143.29 55.49" fill="#3a3a89"/>
      <polygon points="140.03 50.86 124.74 65.07 138.93 49.77 140.03 50.86" fill="#3a3a89"/>
      <polygon points="135.68 47.24 124.59 64.93 134.33 46.46 135.68 47.24" fill="#3a3a89"/>
      <polygon points="130.54 44.86 124.4 64.82 129.04 44.46 130.54 44.86" fill="#3a3a89"/>
    </g>
    <path d="m126.11,65.32c0,.95-.77,1.71-1.71,1.71s-1.71-.77-1.71-1.71.77-1.71,1.71-1.71,1.71.77,1.71,1.71Z" fill="#3a3a89"/>
    <path d="m149.51,65.63c0-14.07-11.39-25.47-25.43-25.47s-25.43,11.4-25.43,25.47c0,6.62,2.53,12.66,6.67,17.19.46-.08.93-.14,1.4-.17-4.29-4.39-6.93-10.39-6.93-17.02s2.72-12.81,7.12-17.21c4.4-4.41,10.47-7.13,17.19-7.13s12.79,2.72,17.19,7.13c4.4,4.41,7.12,10.49,7.12,17.21s-2.72,12.8-7.12,17.21c-3.67,3.68-8.51,6.18-13.92,6.9.23.36.29.73.26,1.11,12.38-1.72,21.91-12.35,21.91-25.22Z" fill="#3a3a89"/>
  </g>
  <polygon points="52.24 15.09 47.62 20.51 56.65 20.51 52.24 15.09" fill="#3a3a89"/>
  <polygon points="52.16 0 50.93 17.93 53.34 17.93 52.16 0" fill="#3a3a89"/>
  <rect x="47.46" y="21.11" width="9.35" height="9.35" fill="#3a3a89"/>
  <path d="m45.28,44.36v49.84h13.71v-49.84h-13.71Zm4.43,47.64c0,.22-.15.4-.34.4h-1.2c-.19,0-.34-.18-.34-.4v-43.49c0-.22.15-.41.34-.41h1.2c.19,0,.34.18.34.41v43.49Zm3.45,0c0,.22-.15.4-.34.4h-1.2c-.19,0-.34-.18-.34-.4v-43.49c0-.22.15-.41.34-.41h1.2c.19,0,.34.18.34.41v43.49Zm3.45,0c0,.22-.15.4-.34.4h-1.2c-.19,0-.34-.18-.34-.4v-43.49c0-.22.15-.41.34-.41h1.2c.19,0,.34.18.34.41v43.49Z" fill="#3a3a89"/>
  <path d="m45.06,24.96v5.5h14.15v-5.5h-14.15Zm1.96,3.31c0,.17-.16.31-.36.31h-.46c-.2,0-.36-.14-.36-.31v-2.07c0-.17.16-.31.36-.31h.46c.2,0,.36.14.36.31v2.07Zm1.91,0c0,.17-.16.31-.36.31h-.46c-.2,0-.36-.14-.36-.31v-2.07c0-.17.16-.31.36-.31h.46c.2,0,.36.14.36.31v2.07Zm1.91,0c0,.17-.16.31-.36.31h-.46c-.2,0-.36-.14-.36-.31v-2.07c0-.17.16-.31.36-.31h.46c.2,0,.36.14.36.31v2.07Zm1.91,0c0,.17-.16.31-.36.31h-.46c-.2,0-.36-.14-.36-.31v-2.07c0-.17.16-.31.36-.31h.46c.2,0,.36.14.36.31v2.07Zm1.91,0c0,.17-.16.31-.36.31h-.46c-.2,0-.36-.14-.36-.31v-2.07c0-.17.16-.31.36-.31h.46c.2,0,.36.14.36.31v2.07Zm1.91,0c0,.17-.16.31-.36.31h-.46c-.2,0-.36-.14-.36-.31v-2.07c0-.17.16-.31.36-.31h.46c.2,0,.36.14.36.31v2.07Zm1.91,0c0,.17-.16.31-.36.31h-.46c-.2,0-.36-.14-.36-.31v-2.07c0-.17.16-.31.36-.31h.46c.2,0,.36.14.36.31v2.07Z" fill="#3a3a89"/>
  <path d="m60.63,29.43h-16.99c-.41,0-.73.33-.73.74v16.23c0,.41.33.74.73.74h16.99c.41,0,.74-.33.74-.74v-16.23c0-.41-.33-.74-.74-.74Zm-8.49,14.78c-3.52,0-6.37-2.86-6.37-6.38s2.85-6.38,6.37-6.38,6.37,2.86,6.37,6.38-2.85,6.38-6.37,6.38Z" fill="#3a3a89"/>
  <path d="m53.04,37.95c0,.49-.4.88-.88.88s-.88-.4-.88-.88.4-.88.88-.88.88.4.88.88Z" fill="#3a3a89"/>
  <rect x="51.75" y="34.33" width=".56" height="3.66" fill="#3a3a89"/>
  <polygon points="51.8 38.22 52.11 37.76 55.15 39.79 54.83 40.26 51.8 38.22" fill="#3a3a89"/>
  <path d="m130.37,82.11c0-.76-.61-1.37-1.37-1.37H62.79c-.76,0-1.37.61-1.37,1.37v11.61h2.83c.29-3.68,4.63-6.61,9.94-6.61s9.65,2.92,9.94,6.61h1.72c.3-3.68,4.63-6.61,9.94-6.61s9.65,2.92,9.94,6.61h1.72c.3-3.68,4.63-6.61,9.94-6.61s9.65,2.92,9.94,6.61h3.03v-11.61Z" fill="#3a3a89"/>
  <path d="m26.92,52.12H4.2L.41,60.18h30.31l-3.79-8.07Zm-19.41,7.25h-2.09v-1.6c0-.58.47-1.05,1.05-1.05s1.05.47,1.05,1.05v1.6Zm1.33.03h-.81v-1.82h0c0-.9-.73-1.62-1.62-1.63-.9,0-1.62.73-1.62,1.63v1.82h-.81v-1.82c0-1.35,1.09-2.44,2.43-2.44s2.43,1.09,2.43,2.44h0v1.82Zm7.69-.03h-2.09v-1.6c0-.58.47-1.05,1.05-1.05s1.05.47,1.05,1.05v1.6Zm1.36.03h-.81v-1.82h0c0-.9-.73-1.62-1.62-1.63-.9,0-1.62.73-1.62,1.63v1.82h-.81v-1.82c0-1.35,1.09-2.44,2.43-2.44s2.43,1.09,2.43,2.44h0v1.82Zm7.66-.03h-2.09v-1.6c0-.58.47-1.05,1.05-1.05s1.05.47,1.05,1.05v1.6Zm.58.03v-1.82h0c0-.9-.73-1.62-1.62-1.63-.9,0-1.62.73-1.62,1.63v1.82h-.81v-1.82c0-1.35,1.09-2.44,2.43-2.44s2.43,1.09,2.43,2.44h0v1.82h-.81Z" fill="#3a3a89"/>
  <path d="m0,60.94v10.37h30.81v-10.37H0Zm5.2,8.36h-2.68v-6.1h2.68v6.1Zm5.64,0h-2.68v-6.1h2.68v6.1Zm5.65,0h-2.68v-6.1h2.68v6.1Zm5.64,0h-2.68v-6.1h2.68v6.1Zm5.64,0h-2.68v-6.1h2.68v6.1Z" fill="#3a3a89"/>
  <path d="m0,72.39v10.37h30.81v-10.37H0Zm5.2,8.29h-2.68v-6.11h2.68v6.11Zm5.64,0h-2.68v-6.11h2.68v6.11Zm5.65,0h-2.68v-6.11h2.68v6.11Zm5.64,0h-2.68v-6.11h2.68v6.11Zm5.64,0h-2.68v-6.11h2.68v6.11Z" fill="#3a3a89"/>
  <polygon points="30.81 83.83 0 83.83 0 94.2 17.53 94.2 17.53 85.2 22.15 85.2 22.15 94.2 23.16 94.2 23.16 85.2 27.78 85.2 27.78 94.2 30.81 94.2 30.81 83.83" fill="#3a3a89"/>
  <polygon points="285.53 54.24 282.78 60.91 288.15 60.91 285.53 54.24" fill="#3a3a89"/>
  <g>
    <polygon points="281.53 57.39 280.27 60.92 282.73 60.92 281.53 57.39" fill="#3a3a89"/>
    <polygon points="289.46 57.39 288.2 60.92 290.66 60.92 289.46 57.39" fill="#3a3a89"/>
  </g>
  <path d="m280.27,60.87v8.17h10.4v-8.17h-10.4Zm6.21,6.35h-2.01v-2.67c0-.56.45-1.01,1.01-1.01s1.01.45,1.01,1.01v2.67Z" fill="#3a3a89"/>
  <path d="m280.27,70.57v8.17h10.4v-8.17h-10.4Zm6.21,6.08h-2.01v-2.67c0-.56.45-1.01,1.01-1.01s1.01.45,1.01,1.01v2.67Z" fill="#3a3a89"/>
  <path d="m280.27,79.59v8.17h10.4v-8.17h-10.4Zm6.21,5.78h-2.01v-2.67c0-.56.45-1.01,1.01-1.01s1.01.45,1.01,1.01v2.67Z" fill="#3a3a89"/>
  <rect x="278.57" y="87.41" width="13.93" height="6.79" fill="#3a3a89"/>
  <rect x="175.92" y="87.24" width="13.93" height="6.79" fill="#3a3a89"/>
  <g>
    <polygon points="182.7 45.89 179.96 52.56 185.33 52.56 182.7 45.89" fill="#3a3a89"/>
    <polygon points="182.66 42.77 182.05 48.78 183.23 48.78 182.66 42.77" fill="#3a3a89"/>
  </g>
  <g>
    <polygon points="178.71 49.04 177.45 52.56 179.91 52.56 178.71 49.04" fill="#3a3a89"/>
    <polygon points="186.63 49.04 185.37 52.56 187.84 52.56 186.63 49.04" fill="#3a3a89"/>
  </g>
  <path d="m177.44,52.52v8.17h10.4v-8.17h-10.4Zm6.21,6.35h-2.01v-2.67c0-.56.45-1.01,1.01-1.01s1.01.45,1.01,1.01v2.67Z" fill="#3a3a89"/>
  <path d="m177.44,61.54v8.17h10.4v-8.17h-10.4Zm6.21,6.05h-2.01v-2.67c0-.56.45-1.01,1.01-1.01s1.01.45,1.01,1.01v2.67Z" fill="#3a3a89"/>
  <path d="m177.44,70.57v8.17h10.4v-8.17h-10.4Zm6.21,6.08h-2.01v-2.67c0-.56.45-1.01,1.01-1.01s1.01.45,1.01,1.01v2.67Z" fill="#3a3a89"/>
  <path d="m177.44,79.59v8.17h10.4v-8.17h-10.4Zm6.21,5.78h-2.01v-2.67c0-.56.45-1.01,1.01-1.01s1.01.45,1.01,1.01v2.67Z" fill="#3a3a89"/>
  <g>
    <polygon points="224.98 45.89 222.24 52.56 227.61 52.56 224.98 45.89" fill="#3a3a89"/>
    <polygon points="224.94 42.77 224.33 48.78 225.51 48.78 224.94 42.77" fill="#3a3a89"/>
  </g>
  <g>
    <polygon points="220.99 49.04 219.73 52.56 222.19 52.56 220.99 49.04" fill="#3a3a89"/>
    <polygon points="228.91 49.04 227.65 52.56 230.12 52.56 228.91 49.04" fill="#3a3a89"/>
  </g>
  <path d="m219.72,52.52v8.17h10.4v-8.17h-10.4Zm6.21,6.35h-2.01v-2.67c0-.56.45-1.01,1.01-1.01s1.01.45,1.01,1.01v2.67Z" fill="#3a3a89"/>
  <path d="m219.72,61.54v8.17h10.4v-8.17h-10.4Zm6.21,6.05h-2.01v-2.67c0-.56.45-1.01,1.01-1.01s1.01.45,1.01,1.01v2.67Z" fill="#3a3a89"/>
  <path d="m219.72,70.57v8.17h10.4v-8.17h-10.4Zm6.21,6.08h-2.01v-2.67c0-.56.45-1.01,1.01-1.01s1.01.45,1.01,1.01v2.67Z" fill="#3a3a89"/>
  <path d="m219.72,79.59v8.17h10.4v-8.17h-10.4Zm6.21,5.78h-2.01v-2.67c0-.56.45-1.01,1.01-1.01s1.01.45,1.01,1.01v2.67Z" fill="#3a3a89"/>
  <rect x="218.03" y="87.41" width="13.94" height="6.79" fill="#3a3a89"/>
  <rect x="187.32" y="80.47" width="33.32" height="1.69" fill="#3a3a89"/>
  <rect x="187.32" y="61.58" width="33.32" height="1.69" fill="#3a3a89"/>
  <g>
    <path d="m229.75,82.91v-21.33l.99,1.76c3.28,5.86,9.19,10.99,16.83,13.85h0l-.19.49-.18.49c-7.15-2.68-12.85-7.3-16.4-12.7h0v16.38h48.6v-9.61c-4.43,5.29-11.71,8.23-19.75,8.23h0c-4.04,0-8.27-.74-12.45-2.31h0l.18-.49.19-.49c4.06,1.52,8.17,2.24,12.08,2.24h0c8.38,0,15.81-3.3,19.85-9.03h0l.96-1.36v13.87h-50.7Z" fill="#3a3a89"/>
    <polygon points="233.42 82.21 233.42 68.64 234.49 68.64 234.49 82.21 233.42 82.21 233.42 82.21" fill="#3a3a89"/>
    <polygon points="237.6 82.21 237.6 72.58 238.67 72.58 238.67 82.21 237.6 82.21 237.6 82.21" fill="#3a3a89"/>
    <polygon points="241.78 82.21 241.78 75.34 242.85 75.34 242.85 82.21 241.78 82.21 241.78 82.21" fill="#3a3a89"/>
    <polygon points="245.96 82.21 245.96 77.31 247.03 77.31 247.03 82.21 245.96 82.21 245.96 82.21" fill="#3a3a89"/>
    <polygon points="250.14 82.21 250.14 78.37 251.21 78.37 251.21 82.21 250.14 82.21 250.14 82.21" fill="#3a3a89"/>
    <polygon points="254.32 82.21 254.32 79.81 255.39 79.81 255.39 82.21 254.32 82.21 254.32 82.21" fill="#3a3a89"/>
    <polygon points="258.5 82.21 258.5 79.81 259.57 79.81 259.57 82.21 258.5 82.21 258.5 82.21" fill="#3a3a89"/>
    <polygon points="262.67 82.21 262.67 79.74 263.75 79.74 263.75 82.21 262.67 82.21 262.67 82.21" fill="#3a3a89"/>
    <polygon points="266.85 82.21 266.85 79.08 267.92 79.08 267.92 82.21 266.85 82.21 266.85 82.21" fill="#3a3a89"/>
    <polygon points="271.03 82.21 271.03 77.38 272.1 77.38 272.1 82.21 271.03 82.21 271.03 82.21" fill="#3a3a89"/>
    <polygon points="275.21 82.21 275.21 75.08 276.28 75.08 276.28 82.21 275.21 82.21 275.21 82.21" fill="#3a3a89"/>
  </g>
  <g>
    <path d="m149.38,92.55c0,.91-.8,1.65-1.8,1.65s-1.8-.74-1.8-1.65.8-1.65,1.8-1.65,1.8.74,1.8,1.65Z" fill="#3a3a89"/>
    <g>
      <path d="m170.16,92.7c-.46-3.02-3.86-5.56-8.53-6.64.66,2.39-3.33,1.54-5.24,1.79-2.62.54-5.86.6-7.78.63-.53-.16-.52-.71-.57-1.24-2.82,1.31-4.73,3.26-5.06,5.46h1.95c0-.05,0-.11,0-.16,0-1.36,1.19-2.45,2.67-2.45s2.67,1.1,2.67,2.45c0,.05,0,.11-.01.16h12.17c0-.05,0-.11,0-.16,0-1.36,1.19-2.45,2.67-2.45s2.67,1.1,2.67,2.45c0,.05,0,.11,0,.16h2.43Z" fill="#3a3a89"/>
      <path d="m166.87,92.55c0,.91-.8,1.65-1.8,1.65s-1.8-.74-1.8-1.65.8-1.65,1.8-1.65,1.8.74,1.8,1.65Z" fill="#3a3a89"/>
    </g>
    <path d="m155.03,81.61c-3.88,0-7.18,2.97-8.4,7.11h16.79c-1.22-4.14-4.52-7.11-8.4-7.11Zm-.46,5.54h-5.47c.81-2.5,2.93-4.33,5.47-4.5v4.5Zm.89-4.49c2.48.22,4.54,2.03,5.34,4.49h-5.34v-4.49Z" fill="#3a3a89"/>
  </g>
  <path d="m39.24,74.48c-1.85,0-3.42,1.17-4.03,2.8h8.05c-.61-1.64-2.18-2.8-4.03-2.8Z" fill="#3a3a89"/>
  <path d="m43.34,77.57h-8.19c-.03.18-.04.37-.04.56v16.07h8.28v-16.07c0-.19-.02-.38-.04-.56Zm-6.73,1.28c0-.19.15-.34.34-.34h4.59c.19,0,.34.15.34.34v1.46c0,.19-.15.34-.34.34h-4.59c-.19,0-.34-.15-.34-.34v-1.46Zm1.54,14.03h-1.52v-1.7h1.52v1.7Zm0-2.08h-1.52v-1.7h1.52v1.7Zm0-2.08h-1.52v-1.7h1.52v1.7Zm0-2.08h-1.52v-1.7h1.52v1.7Zm0-2.08h-1.52v-1.7h1.52v1.7Zm1.85,8.3h-1.52v-1.7h1.52v1.7Zm0-2.08h-1.52v-1.7h1.52v1.7Zm0-2.08h-1.52v-1.7h1.52v1.7Zm0-2.08h-1.52v-1.7h1.52v1.7Zm0-2.08h-1.52v-1.7h1.52v1.7Zm1.85,8.3h-1.52v-1.7h1.52v1.7Zm0-2.08h-1.52v-1.7h1.52v1.7Zm0-2.08h-1.52v-1.7h1.52v1.7Zm0-2.08h-1.52v-1.7h1.52v1.7Zm0-2.08h-1.52v-1.7h1.52v1.7Zm.63-2.61h-6.47c-.19,0-.34-.1-.34-.22s.15-.22.34-.22h6.47c.19,0,.34.1.34.22s-.15.22-.34.22Z" fill="#3a3a89"/>
</svg>