<?xml version="1.0" encoding="utf-8"?>
<!-- Generator: Adobe Illustrator 27.2.0, SVG Export Plug-In . SVG Version: 6.00 Build 0)  -->
<svg version="1.1" xmlns="http://www.w3.org/2000/svg" xmlns:xlink="http://www.w3.org/1999/xlink" x="0px" y="0px"
	 viewBox="0 0 183.1 63.5" style="enable-background:new 0 0 183.1 63.5;" xml:space="preserve">
<style type="text/css">
	.st0{fill:#FF3F29;}
</style>
<g id="Layer_1">
</g>
<g id="_x3C_Layer_x3E_">
	<path class="st0" d="M0,41.1c0-13.9,8.8-22.4,17.7-22.4c4.7,0,7.6,1.7,10.3,4.4l-0.4-6.4V2.3h13.3v60.2H30L29,58.4h-0.3
		c-3,3-7.2,5.2-11.3,5.2C6.9,63.5,0,55,0,41.1z M27.5,49.1V32c-2.1-1.8-4.6-2.5-6.7-2.5c-3.8,0-7.1,3.4-7.1,11.5
		c0,8.2,2.8,11.6,7.3,11.6C23.6,52.6,25.6,51.7,27.5,49.1z"/>
	<path class="st0" d="M50.8,6.8c0-4.1,3.1-6.8,7.5-6.8c4.4,0,7.5,2.7,7.5,6.8c0,4.2-3.1,6.9-7.5,6.9C53.9,13.7,50.8,11,50.8,6.8z
		 M51.7,19.7h13.3v42.8H51.7V19.7z"/>
	<path class="st0" d="M73.4,41.1c0-13.9,10-22.4,20.2-22.4c12.4,0,18.4,9,18.4,20.6c0,2.4-0.3,4.6-0.5,5.9H86.3
		c1.2,5.8,5.2,8.3,10.7,8.3c3.1,0,6.2-0.9,9.2-2.7l4.3,8c-4.5,3.2-10.3,4.8-15.4,4.8C82.8,63.5,73.4,55.4,73.4,41.1z M100.7,36.2
		c0-4.2-1.9-7.4-6.7-7.4c-3.8,0-7,2.4-7.8,7.4H100.7z"/>
	<path class="st0" d="M120.8,46.7V30.1H115v-10l6.5-0.4l1.5-13.1h11v13.1h10.1v10.4h-10.1v16.4c0,4.8,2.2,6.6,5.4,6.6
		c1.4,0,2.8-0.2,4-0.6l2.1,9.3c-2.2,0.9-5.5,1.7-9.7,1.7C125.2,63.5,120.8,56.7,120.8,46.7z"/>
	<path class="st0" d="M148.8,57.1l5.6-7.5c4,3.1,7.8,4.1,11.2,4.1c3.6,0,5.1-1.3,5.1-3.4c0-2.6-3.6-3.7-8.2-5.4
		c-6.1-2.2-11.3-6.1-11.3-12.7c0-8.1,6.5-13.5,16.5-13.5c6.3,0,11.6,2.3,15.3,5.4l-5.7,7.5c-3.1-2.2-6.3-3.1-9.2-3.1
		c-3.1,0-4.6,1.2-4.6,3.1c0,2.2,2.4,3.3,7.8,5c6.5,2.1,11.7,5.9,11.7,13c0,7.8-6.2,13.9-17.8,13.9C159.6,63.5,153.1,61.3,148.8,57.1
		z"/>
</g>
</svg>
