<?xml version="1.0" encoding="utf-8"?>
<!-- Generator: Adobe Illustrator 27.2.0, SVG Export Plug-In . SVG Version: 6.00 Build 0)  -->
<svg version="1.1" xmlns="http://www.w3.org/2000/svg" xmlns:xlink="http://www.w3.org/1999/xlink" x="0px" y="0px"
	 viewBox="0 0 234 62.8" style="enable-background:new 0 0 234 62.8;" xml:space="preserve">
<style type="text/css">
	.st0{fill:#FF9F5C;}
</style>
<g id="Layer_1">
</g>
<g id="_x3C_Layer_x3E_">
	<path class="st0" d="M0,0h10.9v11.8l-0.5,6.3c2.6-2.3,6-4.7,10.8-4.7c7.6,0,10.9,5.4,10.9,14.2v21.7H21.1V29c0-4.9-1.3-6.3-4.1-6.3
		c-2.5,0-3.9,1.2-6.1,3.2v23.5H0V0z"/>
	<path class="st0" d="M38.6,31.7c0-11.3,8.2-18.3,16.6-18.3c10.1,0,15.1,7.3,15.1,16.8c0,2-0.2,3.8-0.4,4.8H49.1
		c1,4.7,4.3,6.8,8.7,6.8c2.5,0,5.1-0.8,7.5-2.2l3.5,6.6c-3.7,2.6-8.5,3.9-12.6,3.9C46.3,50.1,38.6,43.4,38.6,31.7z M60.9,27.7
		c0-3.5-1.6-6.1-5.5-6.1c-3.1,0-5.7,2-6.4,6.1H60.9z"/>
	<path class="st0" d="M74.9,39.5c0-7.4,5.7-11.4,19.5-12.8c-0.3-2.9-1.8-4.6-5.4-4.6c-2.8,0-5.6,1-9.2,3l-3.8-7
		c4.6-2.8,9.6-4.6,15.1-4.6c9,0,14.1,5,14.1,16v19.9h-8.9l-0.8-3.5h-0.3c-2.9,2.6-6.1,4.4-10,4.4C78.9,50.1,74.9,45.3,74.9,39.5z
		 M94.4,38.9v-5.6c-7,0.9-9.1,2.8-9.1,5.3c0,2,1.3,3,3.7,3C91.2,41.7,92.7,40.6,94.4,38.9z"/>
	<path class="st0" d="M113.8,37.9V0h10.9v38.3c0,2.3,1.1,3,2,3c0.4,0,0.7,0,1.3-0.1l1.3,8c-1.2,0.5-3,0.9-5.4,0.9
		C116.2,50.1,113.8,45.2,113.8,37.9z"/>
	<path class="st0" d="M135.6,36.3V22.8h-4.7v-8.2l5.4-0.4l1.3-10.7h9v10.7h8.2v8.5h-8.2v13.4c0,3.9,1.8,5.4,4.4,5.4
		c1.1,0,2.3-0.1,3.2-0.5l1.7,7.6c-1.8,0.7-4.5,1.4-8,1.4C139.2,50.1,135.6,44.5,135.6,36.3z"/>
	<path class="st0" d="M161.6,0h10.9v11.8l-0.5,6.3c2.6-2.3,6-4.7,10.8-4.7c7.6,0,10.9,5.4,10.9,14.2v21.7h-10.9V29
		c0-4.9-1.3-6.3-4.1-6.3c-2.5,0-3.9,1.2-6.1,3.2v23.5h-10.9V0z"/>
	<path class="st0" d="M201.3,62l1.9-8c1.1,0.3,1.6,0.4,2.3,0.4c3.4,0,5.1-1.8,5.9-4.3l0.5-1.7l-13.5-34h10.9l4.8,14.5
		c1,3.2,1.8,6.5,2.7,9.9h0.3c0.8-3.3,1.5-6.6,2.4-9.9l4-14.5H234L222,49.3c-3.5,9-7.2,13.5-15.6,13.5
		C204.1,62.8,202.7,62.5,201.3,62z"/>
</g>
</svg>
