<?xml version="1.0" encoding="utf-8"?>
<!-- Generator: Adobe Illustrator 27.2.0, SVG Export Plug-In . SVG Version: 6.00 Build 0)  -->
<svg version="1.1" xmlns="http://www.w3.org/2000/svg" xmlns:xlink="http://www.w3.org/1999/xlink" x="0px" y="0px"
	 viewBox="0 0 199.3 40.1" style="enable-background:new 0 0 199.3 40.1;" xml:space="preserve">
<style type="text/css">
	.st0{fill:#E95A21;}
	.st1{fill:#8EBE29;}
	.st2{fill:#00A4C9;}
</style>
<g id="_Layer_">
</g>
<g id="_x3C_Layer_x3E_">
	<g>
		<path class="st0" d="M0,19.9c2.6-8.5,16.8-14,21.3-1.2c0,0,4.8,1.9,8.2-2.8C34.1,9.3,30,0.7,20,0C14.7-0.3,0.6,4.2,0,19.9"/>
		<path class="st1" d="M30.1,2.8c6.1,6.6,3.7,21.6-9.6,19c0,0-4.1,3.2-1.6,8.5c3.4,7.3,12.9,8.1,18.4-0.2
			C40.3,25.6,43.4,11.1,30.1,2.8"/>
		<path class="st2" d="M29.9,37.5c-8.7,2-20.5-7.6-11.7-17.8c0,0-0.7-5.1-6.5-5.7c-8-0.7-13.5,7.1-9,16.1
			C5.1,34.8,16.1,44.8,29.9,37.5"/>
		<polygon points="50.2,30.8 62.8,30.8 62.8,27.2 54.2,27.2 54.2,22.2 62.1,22.2 62.1,18.7 54.2,18.7 54.2,14.4 62.8,14.4 
			62.8,10.7 50.2,10.7 		"/>
		<path d="M69.8,28.5c-1.1,0-1.8-0.7-1.8-1.8c0-1.2,0.6-1.8,1.9-2l2-0.3v3.3l-0.1,0.1C71.5,28.3,70.7,28.5,69.8,28.5 M70.2,20.3
			c0.8,0,1.8,0.1,1.8,1.1v1l-2.6,0.3c-2.5,0.3-5,0.8-5,4.3c0,2,1.2,4.2,4.5,4.2c1.5,0,2.9-0.5,3.9-1.4l0.2-0.1l0.7,1.1h2.3v-8.7
			c0-3.1-0.9-5-5.7-5c-1.8,0-3.7,0.4-4.7,0.8v3.3C66.7,20.8,68.6,20.3,70.2,20.3"/>
		<path d="M77,20.8h2.2v5.7c0,3.3,1.5,4.7,5.1,4.7c0.5,0,1.5-0.1,2.1-0.2v-3.1C86,28,85.6,28,85.2,28c-1.4,0-2-0.6-2-1.8v-5.4h3.4
			v-3.3h-3.4v-3.8l-4,1.1v2.8L77,18.2V20.8z"/>
		<rect x="88.4" y="17.5" width="4" height="13.3"/>
		<path d="M90.4,11c-1.4,0-2.4,1.1-2.4,2.4c0,1.4,1,2.4,2.4,2.4c1.4,0,2.4-1.1,2.4-2.4C92.8,12.1,91.7,11,90.4,11"/>
		<path d="M102.9,30.8h4v-9.3c0-3-1.5-4.4-4.6-4.4c-1.6,0-3.2,0.5-4.7,1.3l-0.2,0.1l-0.6-1.1h-2.3v13.3h4v-9.7l0.1-0.1
			c0.4-0.3,1.4-0.7,2.5-0.7c1.1,0,1.7,0.6,1.7,1.9V30.8z"/>
		<path d="M114.5,24.4c-1.4,0-2.2-0.8-2.2-2.2c0-1.4,0.7-2.2,2.2-2.2c1.4,0,2.2,0.8,2.2,2.2C116.7,23.6,115.9,24.4,114.5,24.4
			 M114.5,35.1c-2.1,0-3.1-0.6-3.1-1.8c0-0.6,0.5-1.3,1.1-1.6l0,0l4.8,0.6c0.6,0.1,0.9,0.4,0.9,1C118.3,34.3,116.6,35.1,114.5,35.1
			 M114.5,17.2c-4,0-6,1.7-6,5.1c0,2,0.7,3.4,2.1,4.3l0.2,0.1l-0.2,0.2c-0.8,0.6-1.4,1.5-1.4,2.2c0,0.9,0.4,1.7,1.2,2.1l0.4,0.2
			l-0.5,0.1c-1.3,0.3-2.7,1.4-2.7,3.1c0,3.3,4.8,3.5,6.3,3.5c4,0,8.2-1.3,8.2-4.9c0-2.4-1-3.5-3.5-3.8l-5.3-0.7
			c-0.6-0.1-0.7-0.4-0.7-0.7c0-0.3,0.2-0.5,0.2-0.6l0.1-0.1l0.1,0c0.4,0.1,0.9,0.1,1.4,0.1c4,0,6-1.7,6-5.1c0-0.5,0-1-0.1-1.5l0-0.2
			l1.7-0.4v-2.6l-4.3,0C116.7,17.2,115.8,17.2,114.5,17.2"/>
		<path d="M135.3,18.8h-3v-4.7h3c1.5,0,2.3,0.8,2.3,2.4C137.6,18,136.8,18.8,135.3,18.8 M135.6,27.5h-3.2V22h3.2
			c1.8,0,2.7,0.9,2.7,2.7C138.2,26.5,137.3,27.5,135.6,27.5 M128.4,30.8h7.3c4.7,0,6.9-2,6.9-6.1c0-2.2-1-3.8-2.7-4.4l-0.4-0.1
			l0.4-0.2c1.3-0.7,2.1-2.1,2.1-3.7c0-3.9-2-5.6-6.4-5.6h-7.2V30.8z"/>
		<path d="M151.8,23.1h-4.2V23c0-2.4,1.3-2.9,2.3-2.9c0.7,0,1.2,0.2,1.6,0.6c0.4,0.5,0.5,1.3,0.4,2.3L151.8,23.1z M149.9,17.2
			c-4.2,0-6.2,2.3-6.2,7c0,4.8,2.1,7,6.5,7c1.7,0,3.5-0.3,4.9-0.9v-3c-1.2,0.5-2.7,0.8-4.4,0.8c-1.4,0-2.2-0.2-2.6-0.7
			c-0.4-0.4-0.5-1-0.5-1.8l0-0.2h8c0.2-2.3,0.2-5.1-1.3-6.8C153.3,17.7,151.9,17.2,149.9,17.2"/>
		<path d="M162.8,20.8h5.8v5.7c0,3.3,1.5,4.7,5.1,4.7c0.5,0,1.5-0.1,2.1-0.2v-3.1c-0.3,0.1-0.7,0.1-1.2,0.1c-1.4,0-2-0.6-2-1.8v-5.4
			h3.4v-3.3h-3.4v-3.8l-4,1.1v2.7h-5.8v-3.8l-4,1.1v2.8l-2.2,0.6v2.6h2.2v5.7c0,3.3,1.5,4.7,5.1,4.7c0.5,0,1.5-0.1,2.1-0.2v-3.1
			c-0.3,0.1-0.7,0.1-1.2,0.1c-1.4,0-2-0.6-2-1.8V20.8z"/>
		<path d="M185.2,23.1H181V23c0-2.4,1.3-2.9,2.3-2.9c0.7,0,1.2,0.2,1.6,0.6c0.4,0.5,0.5,1.3,0.4,2.3L185.2,23.1z M183.3,17.2
			c-4.2,0-6.2,2.3-6.2,7c0,4.8,2.1,7,6.5,7c1.7,0,3.5-0.3,4.9-0.9v-3c-1.2,0.5-2.7,0.8-4.4,0.8c-1.4,0-2.2-0.2-2.6-0.7
			c-0.4-0.4-0.5-1-0.5-1.8l0-0.2h8c0.2-2.3,0.2-5.1-1.3-6.8C186.7,17.7,185.3,17.2,183.3,17.2"/>
		<path d="M191,30.8h4v-9.5l0.1-0.1c0.4-0.3,1.6-0.8,3-0.8c0.5,0,0.9,0,1.2,0.1v-3.2c-0.2-0.1-0.6-0.1-1.1-0.1c-2,0-3.4,0.7-4.1,1.3
			l-0.2,0.2l-0.6-1.1H191V30.8z"/>
	</g>
</g>
</svg>
