<?xml version="1.0" encoding="UTF-8"?>
<svg id="_Layer_" data-name="&amp;lt;Layer&amp;gt;" xmlns="http://www.w3.org/2000/svg" viewBox="0 0 199.28 40.07">
  <defs>
    <style>
      .cls-1 {
        fill: #e95a21;
      }

      .cls-2 {
        fill: #fff;
      }

      .cls-3 {
        fill: #00a4c9;
      }

      .cls-4 {
        fill: #8ebe29;
      }
    </style>
  </defs>
  <path class="cls-1" d="m0,19.89c2.63-8.54,16.83-14,21.27-1.18,0,0,4.83,1.93,8.19-2.83C34.11,9.27,30.04.67,20.03.02,14.69-.33.56,4.23,0,19.89"/>
  <path class="cls-4" d="m30.13,2.8c6.08,6.55,3.71,21.58-9.62,19.01,0,0-4.08,3.22-1.64,8.5,3.39,7.33,12.88,8.11,18.45-.23,2.97-4.45,6.09-18.97-7.19-27.28"/>
  <path class="cls-3" d="m29.9,37.45c-8.72,1.99-20.55-7.58-11.66-17.83,0,0-.75-5.15-6.54-5.67C3.66,13.22-1.76,21.04,2.68,30.04c2.37,4.8,13.38,14.76,27.22,7.41"/>
  <polygon class="cls-2" points="50.17 30.82 62.85 30.82 62.85 27.19 54.18 27.19 54.18 22.2 62.06 22.2 62.06 18.65 54.18 18.65 54.18 14.35 62.85 14.35 62.85 10.72 50.17 10.72 50.17 30.82"/>
  <path class="cls-2" d="m69.84,28.55c-1.05,0-1.76-.72-1.76-1.78,0-1.19.59-1.83,1.87-2l2.02-.27v3.3l-.05.05c-.45.45-1.21.7-2.09.7m.35-8.23c.76,0,1.78.12,1.78,1.13v1.03l-2.64.26c-2.53.25-4.99.79-4.99,4.3,0,2.01,1.17,4.16,4.46,4.16,1.51,0,2.9-.49,3.89-1.37l.16-.14.66,1.13h2.34v-8.68c0-3.07-.95-4.98-5.66-4.98-1.77,0-3.72.42-4.73.84v3.28c1.23-.49,3.09-.95,4.73-.95"/>
  <path class="cls-2" d="m76.96,20.81h2.21v5.74c0,3.26,1.52,4.65,5.09,4.65.54,0,1.46-.09,2.06-.23v-3.05c-.32.06-.75.12-1.16.12-1.36,0-1.97-.57-1.97-1.84v-5.38h3.38v-3.27h-3.38v-3.79l-4.01,1.08v2.81l-2.21.6v2.58Z"/>
  <rect class="cls-2" x="88.35" y="17.54" width="3.98" height="13.28"/>
  <path class="cls-2" d="m90.36,11c-1.35,0-2.41,1.06-2.41,2.41s1.04,2.42,2.41,2.42,2.41-1.06,2.41-2.42-1.06-2.41-2.41-2.41"/>
  <path class="cls-2" d="m102.86,30.82h4.01v-9.26c0-3.01-1.46-4.4-4.6-4.4-1.58,0-3.23.48-4.65,1.34l-.16.09-.58-1.05h-2.34v13.28h4.01v-9.68l.08-.05c.41-.28,1.4-.74,2.52-.74s1.7.61,1.7,1.87v8.6Z"/>
  <path class="cls-2" d="m114.49,24.41c-1.42,0-2.17-.76-2.17-2.19s.75-2.19,2.17-2.19,2.16.76,2.16,2.19-.75,2.19-2.16,2.19m-.03,10.69c-2.06,0-3.07-.58-3.07-1.78,0-.65.48-1.3,1.15-1.55l.04-.02,4.76.6c.61.09.92.42.92.96,0,1.02-1.63,1.78-3.8,1.78m.03-17.94c-4.01,0-5.96,1.66-5.96,5.06,0,2.04.69,3.43,2.12,4.26l.23.13-.22.16c-.81.58-1.37,1.49-1.37,2.2,0,.92.42,1.67,1.16,2.05l.43.22-.48.1c-1.34.29-2.7,1.37-2.7,3.13,0,3.28,4.81,3.53,6.28,3.53,3.97,0,8.22-1.29,8.22-4.92,0-2.39-1.02-3.5-3.53-3.83l-5.26-.68c-.58-.08-.7-.41-.7-.67,0-.32.16-.53.23-.62l.06-.08h.1c.43.06.88.06,1.37.06,4.01,0,5.96-1.65,5.96-5.06,0-.47-.05-.97-.13-1.47l-.03-.16,1.66-.44v-2.61h-4.32c-.93-.32-1.86-.38-3.13-.38"/>
  <path class="cls-2" d="m135.34,18.82h-2.98v-4.74h2.98c1.51,0,2.3.82,2.3,2.38s-.82,2.36-2.3,2.36m.22,8.64h-3.2v-5.45h3.2c1.76,0,2.68.94,2.68,2.71s-.93,2.74-2.68,2.74m-7.21,3.36h7.27c4.65,0,6.91-1.98,6.91-6.07,0-2.17-1-3.82-2.69-4.39l-.38-.13.36-.19c1.32-.7,2.11-2.09,2.11-3.71,0-3.88-1.98-5.6-6.42-5.6h-7.16v20.09Z"/>
  <path class="cls-2" d="m151.85,23.13h-4.19v-.17c0-2.38,1.25-2.87,2.3-2.87.69,0,1.22.2,1.55.6.41.49.54,1.26.37,2.3l-.02.15Zm-1.95-5.97c-4.18,0-6.2,2.3-6.2,7.02s2.07,7.02,6.5,7.02c1.73,0,3.52-.33,4.95-.9v-3.01c-1.16.52-2.7.8-4.38.8-1.36,0-2.18-.22-2.64-.72-.37-.39-.52-.97-.48-1.76v-.16h7.97c.18-2.31.17-5.11-1.34-6.75-.95-1.04-2.39-1.54-4.38-1.54"/>
  <path class="cls-2" d="m162.78,20.81h5.8v5.74c0,3.26,1.52,4.65,5.09,4.65.55,0,1.47-.09,2.06-.23v-3.05c-.32.06-.75.12-1.16.12-1.36,0-1.97-.57-1.97-1.84v-5.38h3.38v-3.27h-3.38v-3.79l-4.01,1.08v2.71h-5.8v-3.79l-4.01,1.08v2.81l-2.21.6v2.58h2.21v5.74c0,3.26,1.52,4.65,5.08,4.65.55,0,1.47-.09,2.06-.23v-3.05c-.32.06-.75.12-1.16.12-1.37,0-1.97-.57-1.97-1.84v-5.38Z"/>
  <path class="cls-2" d="m185.23,23.13h-4.19v-.17c0-2.38,1.25-2.87,2.3-2.87.69,0,1.22.2,1.55.6.41.49.54,1.26.37,2.3l-.02.15Zm-1.95-5.97c-4.17,0-6.2,2.3-6.2,7.02s2.07,7.02,6.5,7.02c1.73,0,3.52-.33,4.95-.9v-3.01c-1.16.52-2.7.8-4.38.8-1.36,0-2.18-.22-2.64-.72-.37-.39-.52-.97-.48-1.76v-.16h7.97c.18-2.31.17-5.11-1.34-6.75-.95-1.04-2.39-1.54-4.38-1.54"/>
  <path class="cls-2" d="m191.04,30.82h4.01v-9.52l.06-.05c.37-.34,1.57-.84,3.01-.84.46,0,.88.03,1.16.07v-3.18c-.22-.07-.62-.14-1.05-.14-2,0-3.41.68-4.08,1.31l-.16.16-.61-1.09h-2.34v13.28Z"/>
</svg>