<?xml version="1.0" encoding="utf-8"?>
<!-- Generator: Adobe Illustrator 27.2.0, SVG Export Plug-In . SVG Version: 6.00 Build 0)  -->
<svg version="1.1" id="Layer_1" xmlns="http://www.w3.org/2000/svg" xmlns:xlink="http://www.w3.org/1999/xlink" x="0px" y="0px"
	 viewBox="0 0 210.6 39.6" style="enable-background:new 0 0 210.6 39.6;" xml:space="preserve">
<style type="text/css">
	.st0{fill:#71A882;}
</style>
<g id="Layer_1_00000148633188070528024250000011047947792780097417_">
</g>
<g id="_x3C_Layer_x3E_">
	<path class="st0" d="M0,27.2l3.5-4.3c1.9,1.7,4.6,2.6,6.9,2.6c2.5,0,3.6-0.9,3.6-2.4c0-1.6-1.5-2.1-3.9-3.1l-3.5-1.5
		C3.7,17.4,1.1,15,1.1,11c0-4.6,4.1-8.3,10-8.3c3.3,0,6.6,1.2,8.9,3.4l-3.4,4.3c-1.9-1.3-3.8-2-5.5-2c-2,0-3.3,0.8-3.3,2.2
		c0,1.6,1.7,2.2,4.2,3.1l3.4,1.4c3.4,1.4,5.5,3.6,5.5,7.5c0,4.6-3.9,8.6-10.5,8.6C6.6,31.2,2.9,30,0,27.2z"/>
	<path class="st0" d="M24.6,22.7v-13h6.6v12.2c0,2.9,0.8,3.8,2.5,3.8c1.5,0,2.4-0.6,3.5-2.2V9.7h6.6v21h-5.3L38,27.8h-0.2
		c-1.7,2.1-3.7,3.4-6.6,3.4C26.6,31.2,24.6,28,24.6,22.7z"/>
	<path class="st0" d="M49.1,9.7h5.3l0.5,2H55c1.6-1.5,3.7-2.5,5.9-2.5c5.1,0,8.2,4.2,8.2,10.7c0,7.2-4.3,11.4-8.8,11.4
		c-1.8,0-3.5-0.8-5-2.2l0.2,3.3v6.1H49L49.1,9.7L49.1,9.7z M62.4,19.9c0-3.7-1.1-5.4-3.4-5.4c-1.2,0-2.2,0.6-3.4,1.8v8.3
		c1.1,0.9,2.2,1.2,3.2,1.2C60.8,25.9,62.4,24.2,62.4,19.9z"/>
	<path class="st0" d="M73.4,9.7h5.3l0.5,2h0.2c1.6-1.5,3.7-2.5,5.9-2.5c5.1,0,8.2,4.2,8.2,10.7c0,7.2-4.3,11.4-8.8,11.4
		c-1.8,0-3.5-0.8-5-2.2l0.2,3.3v6.1h-6.5C73.4,38.5,73.4,9.7,73.4,9.7z M86.7,19.9c0-3.7-1.1-5.4-3.4-5.4c-1.2,0-2.2,0.6-3.4,1.8
		v8.3c1.1,0.9,2.2,1.2,3.2,1.2C85.1,25.9,86.7,24.2,86.7,19.9z"/>
	<path class="st0" d="M96.6,20.2c0-7,5-11,10.3-11c5.4,0,10.3,4,10.3,11s-5,11-10.3,11C101.5,31.2,96.6,27.2,96.6,20.2z M110.5,20.2
		c0-3.5-1.1-5.8-3.6-5.8s-3.6,2.3-3.6,5.8s1.1,5.8,3.6,5.8S110.5,23.7,110.5,20.2z"/>
	<path class="st0" d="M121.3,9.7h5.3l0.5,3.6h0.2c1.5-2.8,3.9-4.1,6-4.1c1.2,0,1.9,0.1,2.5,0.4l-1.2,5.5c-0.8-0.2-1.2-0.3-2.2-0.3
		c-1.6,0-3.5,1-4.6,3.8v12h-6.5C121.3,30.6,121.3,9.7,121.3,9.7z"/>
	<path class="st0" d="M139.3,22.9v-8.1h-2.8V9.9l3.2-0.2l0.8-6.4h5.4v6.4h5v5.1h-5v8c0,2.4,1.1,3.3,2.7,3.3c0.7,0,1.4-0.1,1.9-0.3
		l1,4.6c-1.1,0.4-2.7,0.8-4.8,0.8C141.5,31.2,139.3,27.9,139.3,22.9z"/>
	<path class="st0" d="M154.5,3.3c0-2,1.5-3.3,3.7-3.3s3.7,1.3,3.7,3.3c0,2.1-1.5,3.4-3.7,3.4S154.5,5.4,154.5,3.3z M154.9,9.7h6.5
		v21h-6.5V9.7z"/>
	<path class="st0" d="M166.8,9.7h5.3l0.5,2.6h0.2c1.7-1.7,3.9-3.1,6.7-3.1c4.6,0,6.5,3.3,6.5,8.5v13h-6.6V18.5
		c0-2.9-0.8-3.8-2.5-3.8c-1.5,0-2.4,0.7-3.7,1.9v14.1h-6.5v-21H166.8z"/>
	<path class="st0" d="M189.8,34.3c0-1.7,1-3.1,3-4.1V30c-1.1-0.8-1.9-1.9-1.9-3.6c0-1.5,1-3,2.3-4v-0.2c-1.5-1-2.8-3-2.8-5.4
		c0-5.1,4.2-7.6,8.8-7.6c1.2,0,2.3,0.2,3.3,0.5h7.7v4.7h-3.3c0.3,0.6,0.6,1.6,0.6,2.6c0,4.9-3.7,7.1-8.4,7.1c-0.7,0-1.6-0.1-2.5-0.4
		c-0.5,0.4-0.7,0.8-0.7,1.4c0,1,0.8,1.5,3.1,1.5h3.3c5.2,0,8.1,1.6,8.1,5.4c0,4.4-4.6,7.6-11.9,7.6
		C193.8,39.6,189.8,38.1,189.8,34.3z M204.3,33.1c0-1.3-1.1-1.5-3.1-1.5h-2c-1.5,0-2.3-0.1-3-0.3c-0.7,0.6-1,1.2-1,1.9
		c0,1.5,1.8,2.3,4.5,2.3S204.3,34.5,204.3,33.1z M201.9,16.8c0-2.2-1.1-3.3-2.7-3.3c-1.6,0-2.7,1.1-2.7,3.3s1.1,3.3,2.7,3.3
		C200.8,20.1,201.9,19,201.9,16.8z"/>
</g>
</svg>
