<?xml version="1.0" encoding="UTF-8"?>
<svg xmlns="http://www.w3.org/2000/svg" width="160" height="600" viewBox="0 0 160 600">
  <g id="logo_background">
    <rect width="160" height="600" fill="#070741"/>
  </g>
  <g id="logo_bar">
    <rect x="7.52" y="253.4" width="144.96" height="23.79" fill="#fff"/>
  </g>
  <g id="logo_circle">
    <path d="m80,205.16c-33.21,0-60.13,26.92-60.13,60.12s26.92,60.13,60.13,60.13,60.12-26.92,60.12-60.13-26.92-60.12-60.12-60.12m38.8,60.12c0,21.42-17.38,38.8-38.8,38.8s-38.79-17.37-38.79-38.8,17.36-38.79,38.79-38.79,38.8,17.37,38.8,38.79" fill="#fff"/>
  </g>
  <g id="logo_tagline">
    <g>
      <polygon points="13.98 394.15 13.98 386.88 18.53 386.88 18.53 388.34 15.69 388.34 15.69 389.58 17.94 389.58 17.94 391.05 15.69 391.05 15.69 392.63 18.75 392.63 18.75 394.15 13.98 394.15" fill="#fff"/>
      <polygon points="23.58 394.15 21.79 394.15 19.19 386.88 21.07 386.88 22.69 391.75 24.3 386.88 26.19 386.88 23.58 394.15" fill="#fff"/>
      <polygon points="26.96 394.15 26.96 386.88 31.5 386.88 31.5 388.34 28.66 388.34 28.66 389.58 30.91 389.58 30.91 391.05 28.66 391.05 28.66 392.63 31.73 392.63 31.73 394.15 26.96 394.15" fill="#fff"/>
      <path d="m34.32,388.24v1.71h.59c.32,0,.57-.08.75-.25.19-.17.29-.38.29-.64,0-.24-.09-.43-.26-.59-.17-.15-.4-.24-.71-.24h-.66Zm2.13,5.91l-1.8-2.74h-.33v2.74h-1.71v-7.27h2.48c.82,0,1.44.2,1.89.6.44.39.67.94.67,1.62,0,.46-.12.86-.35,1.19-.23.34-.56.59-.98.76l2.07,3.11h-1.93Z" fill="#fff"/>
      <polygon points="42.86 391.2 42.86 394.15 41.15 394.15 41.15 391.2 38.66 386.88 40.63 386.88 42.01 389.57 43.42 386.88 45.35 386.88 42.86 391.2" fill="#fff"/>
      <path d="m53.17,391.81c0,.76-.22,1.36-.65,1.81-.43.45-1.04.67-1.82.67-.46,0-.84-.1-1.17-.31-.32-.21-.6-.55-.85-1l1.32-.76c.18.37.41.56.69.56.5,0,.76-.36.76-1.09v-4.81h1.71v4.94Z" fill="#fff"/>
      <path d="m57.97,392.75c.62,0,1.13-.21,1.55-.64.41-.43.62-.96.62-1.61s-.21-1.17-.62-1.6c-.42-.42-.93-.64-1.55-.64s-1.13.22-1.54.64c-.41.44-.62.97-.62,1.6s.21,1.17.62,1.6c.41.43.93.64,1.54.64m0,1.53c-1.1,0-2.02-.36-2.75-1.09-.74-.73-1.11-1.62-1.11-2.69s.37-1.95,1.11-2.68c.74-.72,1.66-1.08,2.76-1.09,1.1,0,2.02.37,2.77,1.09.74.72,1.11,1.61,1.11,2.68,0,1.07-.37,1.97-1.11,2.69-.74.72-1.66,1.08-2.77,1.08" fill="#fff"/>
      <path d="m69.41,390.77c0,.69-.08,1.24-.23,1.62-.15.38-.37.72-.66,1.01-.29.3-.64.52-1.05.67-.41.15-.89.22-1.44.22-.51,0-.96-.07-1.36-.22-.4-.15-.74-.37-1.02-.67-.29-.3-.5-.64-.65-1.03-.15-.38-.22-.92-.22-1.59v-3.9h1.71v3.84c0,.68.14,1.19.42,1.53.27.35.67.52,1.18.52,1.06,0,1.6-.68,1.6-2.05v-3.84h1.71v3.9Z" fill="#fff"/>
      <path d="m72.29,388.24v1.71h.59c.31,0,.56-.08.75-.25.18-.17.28-.38.28-.64,0-.24-.09-.43-.26-.59-.17-.15-.4-.24-.7-.24h-.65Zm2.12,5.91l-1.8-2.74h-.32v2.74h-1.71v-7.27h2.48c.81,0,1.44.2,1.89.6.45.39.67.94.67,1.62,0,.46-.11.86-.34,1.19-.23.34-.56.59-.99.76l2.07,3.11h-1.94Z" fill="#fff"/>
      <polygon points="81.97 394.15 78.77 389.64 78.77 394.15 77.06 394.15 77.06 386.88 78.79 386.88 82.02 391.44 82.02 386.88 83.73 386.88 83.73 394.15 81.97 394.15" fill="#fff"/>
      <polygon points="84.93 394.15 84.93 386.88 89.48 386.88 89.48 388.34 86.64 388.34 86.64 389.58 88.89 389.58 88.89 391.05 86.64 391.05 86.64 392.63 89.71 392.63 89.71 394.15 84.93 394.15" fill="#fff"/>
      <polygon points="94.33 391.2 94.33 394.15 92.63 394.15 92.63 391.2 90.15 386.88 92.11 386.88 93.49 389.57 94.9 386.88 96.83 386.88 94.33 391.2" fill="#fff"/>
      <polygon points="106.43 394.15 106.43 389.64 104.4 392.18 102.43 389.64 102.43 394.15 100.72 394.15 100.72 386.88 102.33 386.88 104.4 389.64 106.43 386.88 108.15 386.88 108.15 394.15 106.43 394.15" fill="#fff"/>
      <path d="m112.46,388.88l-.81,2.48h1.63l-.82-2.48Zm1.75,5.27l-.43-1.32h-2.6l-.42,1.32h-1.85l2.69-7.27h1.73l2.76,7.27h-1.87Z" fill="#fff"/>
      <polygon points="120.13 388.39 120.13 394.15 118.42 394.15 118.42 388.39 116.46 388.39 116.46 386.88 122.09 386.88 122.09 388.39 120.13 388.39" fill="#fff"/>
      <polygon points="126.2 388.39 126.2 394.15 124.49 394.15 124.49 388.39 122.53 388.39 122.53 386.88 128.17 386.88 128.17 388.39 126.2 388.39" fill="#fff"/>
      <polygon points="128.99 394.15 128.99 386.88 133.53 386.88 133.53 388.34 130.69 388.34 130.69 389.58 132.94 389.58 132.94 391.05 130.69 391.05 130.69 392.63 133.76 392.63 133.76 394.15 128.99 394.15" fill="#fff"/>
      <path d="m136.35,388.24v1.71h.59c.31,0,.56-.08.74-.25.19-.17.28-.38.28-.64,0-.24-.09-.43-.26-.59-.17-.15-.4-.24-.7-.24h-.65Zm2.13,5.91l-1.8-2.74h-.33v2.74h-1.71v-7.27h2.47c.81,0,1.45.2,1.9.6.44.39.67.94.67,1.62,0,.46-.11.86-.35,1.19-.23.34-.55.59-.99.76l2.07,3.11h-1.94Z" fill="#fff"/>
      <path d="m140.85,392.71l1.28-.77c.26.59.66.88,1.21.88.3,0,.53-.06.7-.2.18-.13.27-.31.27-.52,0-.19-.07-.35-.2-.48-.13-.14-.5-.34-1.11-.62-.7-.31-1.18-.63-1.43-.97-.26-.33-.38-.73-.38-1.21,0-.59.22-1.08.68-1.48.45-.4,1.02-.6,1.72-.6,1.01,0,1.74.4,2.2,1.19l-1.19.76c-.23-.38-.56-.57-1.01-.57-.23,0-.41.06-.55.18-.14.12-.22.26-.22.44s.08.34.22.46c.15.12.48.31.97.53.73.35,1.26.69,1.56,1.04.3.35.45.78.45,1.3,0,.64-.26,1.18-.78,1.59-.51.42-1.15.63-1.92.63-1.12,0-1.94-.52-2.47-1.58" fill="#fff"/>
    </g>
  </g>
  <g id="logo">
    <g>
      <polygon points="27.29 336.97 27.29 348.39 23.9 348.39 23.9 336.97 20 336.97 20 333.97 31.18 333.97 31.18 336.97 27.29 336.97" fill="#fff"/>
      <path d="m36.21,336.67v3.39h1.17c.62,0,1.12-.16,1.48-.5.37-.34.55-.76.55-1.26,0-.47-.18-.85-.52-1.17-.34-.31-.8-.47-1.39-.47h-1.3Zm4.22,11.72l-3.57-5.45h-.66v5.45h-3.38v-14.42h4.9c1.61,0,2.86.39,3.75,1.18.89.78,1.33,1.85,1.33,3.21,0,.91-.22,1.69-.68,2.36-.45.67-1.11,1.17-1.96,1.51l4.11,6.17h-3.84Z" fill="#fff"/>
      <path d="m51.87,337.93l-1.61,4.92h3.24l-1.64-4.92Zm3.47,10.46l-.86-2.62h-5.14l-.84,2.62h-3.67l5.32-14.42h3.43l5.48,14.42h-3.71Z" fill="#fff"/>
      <polygon points="70.28 348.39 63.95 339.46 63.95 348.39 60.55 348.39 60.55 333.97 63.96 333.97 70.4 343 70.4 333.97 73.78 333.97 73.78 348.39 70.28 348.39" fill="#fff"/>
      <path d="m75.6,345.53l2.55-1.53c.51,1.17,1.3,1.75,2.41,1.75.58,0,1.05-.13,1.4-.39.34-.27.52-.61.52-1.03,0-.37-.13-.7-.4-.97-.27-.27-1-.68-2.2-1.22-1.39-.62-2.35-1.26-2.85-1.92-.51-.66-.76-1.46-.76-2.41,0-1.16.45-2.14,1.35-2.93.89-.8,2.03-1.19,3.41-1.19,2,0,3.45.79,4.36,2.36l-2.35,1.52c-.44-.75-1.11-1.13-2-1.13-.45,0-.82.11-1.1.34-.28.23-.42.51-.42.87s.14.66.44.92c.29.25.93.61,1.92,1.07,1.47.68,2.5,1.37,3.09,2.05.6.69.9,1.55.9,2.58,0,1.27-.52,2.33-1.54,3.16-1.03.83-2.29,1.24-3.81,1.24-2.21,0-3.85-1.04-4.91-3.13" fill="#fff"/>
      <path d="m91.16,336.74v4.16h1.07c.82,0,1.43-.17,1.85-.53.42-.36.63-.87.63-1.54s-.21-1.2-.63-1.56c-.42-.36-1.03-.53-1.85-.53h-1.07Zm0,6.93v4.72h-3.38v-14.42h4.82c1.74,0,3.09.43,4.06,1.3.97.86,1.45,2.03,1.45,3.51s-.52,2.69-1.54,3.58c-1.03.88-2.4,1.31-4.11,1.31h-1.3Z" fill="#fff"/>
      <path d="m107.15,345.62c1.23,0,2.24-.42,3.07-1.28.82-.84,1.23-1.91,1.23-3.17s-.41-2.32-1.23-3.17c-.82-.85-1.84-1.26-3.07-1.26s-2.25.42-3.06,1.27c-.81.85-1.23,1.9-1.23,3.16s.41,2.32,1.23,3.17c.82.85,1.84,1.28,3.06,1.28m0,3.03c-2.18,0-4-.72-5.47-2.16-1.47-1.44-2.2-3.22-2.2-5.32,0-2.11.72-3.88,2.2-5.32,1.47-1.44,3.29-2.16,5.47-2.17,2.18,0,4.01.72,5.49,2.16,1.47,1.43,2.21,3.21,2.21,5.33,0,2.13-.74,3.9-2.21,5.33-1.47,1.43-3.3,2.15-5.49,2.15" fill="#fff"/>
      <path d="m120.15,336.67v3.39h1.17c.62,0,1.11-.16,1.48-.5.36-.34.56-.76.56-1.26-.02-.47-.18-.85-.52-1.17-.34-.31-.81-.47-1.4-.47h-1.29Zm4.22,11.72l-3.57-5.45h-.65v5.45h-3.38v-14.42h4.9c1.61,0,2.86.39,3.75,1.18.88.78,1.33,1.85,1.33,3.21,0,.91-.23,1.69-.68,2.36-.46.67-1.11,1.17-1.96,1.51l4.11,6.17h-3.84Z" fill="#fff"/>
      <polygon points="136.15 336.97 136.15 348.39 132.76 348.39 132.76 336.97 128.86 336.97 128.86 333.97 140.04 333.97 140.04 336.97 136.15 336.97" fill="#fff"/>
      <polygon points="16.93 359.75 16.93 362.21 21.48 362.21 21.48 365.13 16.93 365.13 16.93 371.27 13.55 371.27 13.55 356.86 22.67 356.86 22.67 359.75 16.93 359.75" fill="#fff"/>
      <path d="m31.5,368.51c1.22,0,2.25-.43,3.07-1.28.81-.84,1.23-1.91,1.23-3.18s-.41-2.32-1.23-3.16c-.82-.84-1.84-1.27-3.07-1.27s-2.24.43-3.06,1.28c-.82.85-1.22,1.9-1.22,3.15s.41,2.32,1.23,3.17c.82.86,1.84,1.29,3.06,1.29m0,3.03c-2.18,0-4.01-.72-5.47-2.16-1.47-1.44-2.2-3.22-2.2-5.33,0-2.1.73-3.87,2.2-5.32,1.47-1.44,3.3-2.16,5.48-2.17,2.18,0,4.01.72,5.48,2.16,1.48,1.43,2.21,3.21,2.21,5.33,0,2.13-.75,3.9-2.21,5.34-1.47,1.43-3.3,2.15-5.48,2.15" fill="#fff"/>
      <path d="m44.5,359.56v3.39h1.17c.62,0,1.11-.16,1.48-.49.38-.34.55-.76.55-1.26,0-.46-.18-.85-.51-1.17-.34-.31-.81-.47-1.4-.47h-1.29Zm4.22,11.72l-3.57-5.45h-.65v5.45h-3.39v-14.42h4.91c1.61,0,2.85.39,3.75,1.17.88.78,1.33,1.85,1.33,3.21,0,.91-.23,1.69-.68,2.36-.46.67-1.11,1.17-1.96,1.51l4.1,6.17h-3.84Z" fill="#fff"/>
      <polygon points="58.6 371.27 58.6 356.86 61.99 356.86 61.99 368.26 67.52 368.26 67.52 371.27 58.6 371.27" fill="#fff"/>
      <path d="m76.36,368.51c1.23,0,2.24-.43,3.06-1.28.82-.84,1.23-1.91,1.23-3.18s-.41-2.32-1.23-3.16c-.82-.84-1.84-1.27-3.06-1.27s-2.25.43-3.06,1.28c-.82.85-1.22,1.9-1.22,3.15s.41,2.32,1.23,3.17c.82.86,1.84,1.29,3.06,1.29m0,3.03c-2.18,0-4.01-.72-5.47-2.16-1.47-1.44-2.2-3.22-2.2-5.33,0-2.1.72-3.87,2.2-5.32,1.47-1.44,3.29-2.16,5.48-2.17,2.18,0,4.01.72,5.48,2.16,1.47,1.43,2.21,3.21,2.21,5.33,0,2.13-.74,3.9-2.21,5.34-1.47,1.43-3.3,2.15-5.48,2.15" fill="#fff"/>
      <polygon points="95.67 371.27 89.34 362.34 89.34 371.27 85.95 371.27 85.95 356.86 89.36 356.86 95.79 365.89 95.79 356.86 99.17 356.86 99.17 371.27 95.67 371.27" fill="#fff"/>
      <path d="m104.95,359.66v8.8h.93c1.57,0,2.79-.39,3.67-1.16.88-.77,1.33-1.85,1.33-3.23,0-1.42-.45-2.5-1.33-3.27-.89-.76-2.11-1.14-3.67-1.14h-.93Zm-3.39,11.61v-14.42h4.64c2.46,0,4.41.64,5.87,1.92,1.46,1.28,2.19,3.01,2.19,5.19,0,2.32-.73,4.12-2.2,5.39-1.46,1.27-3.49,1.91-6.07,1.91h-4.44Z" fill="#fff"/>
      <path d="m123.38,368.51c1.22,0,2.25-.43,3.07-1.28.82-.84,1.23-1.91,1.23-3.18s-.41-2.32-1.23-3.16c-.82-.84-1.85-1.27-3.07-1.27s-2.24.43-3.06,1.28c-.82.85-1.23,1.9-1.23,3.15s.41,2.32,1.23,3.17c.82.86,1.83,1.29,3.05,1.29m0,3.03c-2.18,0-4-.72-5.47-2.16-1.47-1.44-2.2-3.22-2.2-5.33-.01-2.1.72-3.87,2.19-5.32,1.48-1.44,3.3-2.16,5.48-2.17,2.18,0,4.01.72,5.48,2.16,1.47,1.43,2.21,3.21,2.21,5.33,0,2.13-.75,3.9-2.21,5.34-1.47,1.43-3.29,2.15-5.48,2.15" fill="#fff"/>
      <polygon points="142.94 371.27 136.62 362.34 136.62 371.27 133.23 371.27 133.23 356.86 136.64 356.86 143.06 365.89 143.06 356.86 146.45 356.86 146.45 371.27 142.94 371.27" fill="#fff"/>
    </g>
  </g>
  <g id="logo_line">
    <rect x="14.1" y="378.93" width="131.79" height="1.92" fill="#fff"/>
  </g>
</svg>