<?xml version="1.0" encoding="UTF-8"?>
<svg xmlns="http://www.w3.org/2000/svg" width="300" height="250" viewBox="0 0 300 250">
  <g id="logo_background">
    <rect width="300" height="250" fill="none"/>
    <rect width="300" height="250" fill="#070741"/>
  </g>
  <g id="logo_line">
    <g>
      <rect x="37.88" y="118.07" width="84.41" height="13.87" fill="#fff"/>
      <path d="m80.15,90.7c-18.94,0-34.3,15.35-34.3,34.29s15.36,34.3,34.3,34.3,34.29-15.36,34.29-34.3-15.36-34.29-34.29-34.29m22.13,34.29c0,12.22-9.91,22.13-22.13,22.13s-22.13-9.91-22.13-22.13,9.9-22.13,22.13-22.13,22.13,9.91,22.13,22.13" fill="#fff"/>
      <g>
        <polygon points="135.01 153.57 135.01 146.57 139.39 146.57 139.39 147.98 136.66 147.98 136.66 149.17 138.82 149.17 138.82 150.59 136.66 150.59 136.66 152.11 139.61 152.11 139.61 153.57 135.01 153.57" fill="#fff"/>
        <polygon points="144.25 153.57 142.53 153.57 140.02 146.57 141.84 146.57 143.39 151.26 144.95 146.57 146.76 146.57 144.25 153.57" fill="#fff"/>
        <polygon points="147.5 153.57 147.5 146.57 151.88 146.57 151.88 147.98 149.15 147.98 149.15 149.17 151.31 149.17 151.31 150.59 149.15 150.59 149.15 152.11 152.1 152.11 152.1 153.57 147.5 153.57" fill="#fff"/>
        <path d="m154.59,147.88v1.65h.57c.3,0,.55-.08.72-.24.18-.17.28-.37.28-.61,0-.23-.09-.42-.25-.57-.17-.15-.39-.23-.68-.23h-.63Zm2.05,5.69l-1.73-2.64h-.32v2.64h-1.64v-7h2.38c.79,0,1.39.19,1.82.57.43.38.65.9.65,1.56,0,.44-.12.82-.34,1.15-.22.32-.54.57-.95.73l1.99,2.99h-1.86Z" fill="#fff"/>
        <polygon points="162.81 150.73 162.81 153.57 161.16 153.57 161.16 150.73 158.77 146.57 160.66 146.57 162 149.16 163.35 146.57 165.21 146.57 162.81 150.73" fill="#fff"/>
        <path d="m172.74,151.32c0,.73-.21,1.31-.62,1.74-.41.43-1,.64-1.75.64-.44,0-.81-.09-1.12-.29-.31-.2-.58-.53-.81-.97l1.27-.73c.17.36.4.54.66.54.48,0,.73-.35.73-1.05v-4.63h1.64v4.75Z" fill="#fff"/>
        <path d="m177.36,152.23c.6,0,1.09-.2,1.49-.61.39-.41.6-.93.6-1.55s-.2-1.13-.6-1.54c-.4-.41-.89-.62-1.49-.62s-1.08.21-1.48.62c-.4.42-.6.93-.6,1.54s.2,1.12.6,1.54c.4.41.9.62,1.48.62m0,1.48c-1.06,0-1.94-.35-2.65-1.05-.71-.7-1.07-1.56-1.07-2.59s.35-1.88,1.07-2.58c.71-.69,1.6-1.04,2.66-1.05,1.06,0,1.95.35,2.67,1.05.71.69,1.07,1.55,1.07,2.58,0,1.03-.36,1.9-1.07,2.59-.71.7-1.6,1.04-2.67,1.04" fill="#fff"/>
        <path d="m188.37,150.32c0,.67-.08,1.19-.23,1.56-.14.36-.35.69-.63.97-.28.29-.61.5-1.01.64-.4.14-.86.21-1.39.21-.49,0-.93-.07-1.31-.21-.38-.14-.71-.36-.98-.65-.27-.29-.48-.62-.62-.99-.14-.37-.21-.88-.21-1.54v-3.75h1.65v3.7c0,.65.14,1.14.4,1.47.26.33.64.5,1.13.5,1.02,0,1.54-.66,1.54-1.97v-3.7h1.65v3.75Z" fill="#fff"/>
        <path d="m191.14,147.88v1.65h.56c.3,0,.54-.08.72-.24.18-.17.27-.37.27-.61,0-.23-.09-.42-.25-.57-.16-.15-.39-.23-.67-.23h-.63Zm2.04,5.69l-1.73-2.64h-.31v2.64h-1.65v-7h2.39c.78,0,1.39.19,1.82.57.43.38.65.9.65,1.56,0,.44-.11.82-.33,1.15-.22.32-.54.57-.95.73l1.99,2.99h-1.86Z" fill="#fff"/>
        <polygon points="200.46 153.57 197.39 149.23 197.39 153.57 195.74 153.57 195.74 146.57 197.4 146.57 200.51 150.96 200.51 146.57 202.16 146.57 202.16 153.57 200.46 153.57" fill="#fff"/>
        <polygon points="203.31 153.57 203.31 146.57 207.69 146.57 207.69 147.98 204.96 147.98 204.96 149.17 207.12 149.17 207.12 150.59 204.96 150.59 204.96 152.11 207.91 152.11 207.91 153.57 203.31 153.57" fill="#fff"/>
        <polygon points="212.36 150.73 212.36 153.57 210.72 153.57 210.72 150.73 208.33 146.57 210.22 146.57 211.56 149.16 212.91 146.57 214.76 146.57 212.36 150.73" fill="#fff"/>
        <polygon points="224.01 153.57 224.01 149.23 222.06 151.68 220.16 149.23 220.16 153.57 218.51 153.57 218.51 146.57 220.06 146.57 222.06 149.23 224.01 146.57 225.66 146.57 225.66 153.57 224.01 153.57" fill="#fff"/>
        <path d="m229.81,148.49l-.78,2.39h1.57l-.79-2.39Zm1.68,5.08l-.42-1.27h-2.5l-.41,1.27h-1.78l2.59-7h1.66l2.66,7h-1.8Z" fill="#fff"/>
        <polygon points="237.2 148.03 237.2 153.57 235.55 153.57 235.55 148.03 233.66 148.03 233.66 146.57 239.09 146.57 239.09 148.03 237.2 148.03" fill="#fff"/>
        <polygon points="243.04 148.03 243.04 153.57 241.4 153.57 241.4 148.03 239.51 148.03 239.51 146.57 244.94 146.57 244.94 148.03 243.04 148.03" fill="#fff"/>
        <polygon points="245.72 153.57 245.72 146.57 250.1 146.57 250.1 147.98 247.36 147.98 247.36 149.17 249.53 149.17 249.53 150.59 247.36 150.59 247.36 152.11 250.32 152.11 250.32 153.57 245.72 153.57" fill="#fff"/>
        <path d="m252.81,147.88v1.65h.57c.29,0,.54-.08.72-.24.18-.17.27-.37.27-.61,0-.23-.09-.42-.25-.57-.16-.15-.39-.23-.67-.23h-.63Zm2.05,5.69l-1.73-2.64h-.32v2.64h-1.65v-7h2.38c.78,0,1.39.19,1.83.57.43.38.64.9.64,1.56,0,.44-.11.82-.33,1.15-.22.32-.53.57-.95.73l2,2.99h-1.86Z" fill="#fff"/>
        <path d="m257.14,152.18l1.24-.74c.25.57.63.85,1.17.85.29,0,.51-.06.67-.19.17-.12.26-.3.26-.5,0-.18-.07-.33-.2-.47-.13-.13-.48-.33-1.07-.59-.67-.3-1.13-.61-1.38-.93-.25-.32-.37-.71-.37-1.17,0-.56.21-1.04.65-1.43.43-.39.99-.58,1.66-.58.97,0,1.68.39,2.12,1.15l-1.14.73c-.22-.36-.54-.55-.97-.55-.22,0-.4.06-.53.17-.14.11-.21.25-.21.42s.08.32.21.45c.14.12.46.29.94.51.71.33,1.21.66,1.5,1,.29.33.44.75.44,1.26,0,.62-.25,1.13-.75,1.53-.49.41-1.11.6-1.85.6-1.08,0-1.87-.5-2.38-1.52" fill="#fff"/>
      </g>
      <g>
        <polygon points="141.98 99.1 141.98 109.99 138.75 109.99 138.75 99.1 135.03 99.1 135.03 96.24 145.69 96.24 145.69 99.1 141.98 99.1" fill="#fff"/>
        <path d="m150.49,98.82v3.23h1.12c.59,0,1.07-.15,1.41-.47.35-.32.53-.72.53-1.2,0-.44-.17-.81-.49-1.11-.32-.3-.76-.45-1.33-.45h-1.24Zm4.03,11.17l-3.4-5.2h-.63v5.2h-3.23v-13.75h4.68c1.54,0,2.73.37,3.57,1.12.85.74,1.27,1.76,1.27,3.06,0,.87-.21,1.61-.65,2.25-.43.64-1.06,1.11-1.87,1.44l3.92,5.88h-3.67Z" fill="#fff"/>
        <path d="m165.42,100.01l-1.53,4.69h3.09l-1.56-4.69Zm3.31,9.98l-.82-2.5h-4.9l-.81,2.5h-3.5l5.07-13.75h3.27l5.22,13.75h-3.53Z" fill="#fff"/>
        <polygon points="182.97 109.99 176.94 101.47 176.94 109.99 173.7 109.99 173.7 96.24 176.96 96.24 183.09 104.85 183.09 96.24 186.32 96.24 186.32 109.99 182.97 109.99" fill="#fff"/>
        <path d="m188.05,107.26l2.43-1.46c.48,1.11,1.24,1.67,2.29,1.67.56,0,1-.13,1.33-.37.33-.25.49-.58.5-.99,0-.36-.13-.67-.38-.92-.26-.26-.96-.65-2.09-1.16-1.33-.59-2.24-1.2-2.72-1.83-.48-.63-.73-1.39-.73-2.3,0-1.11.43-2.04,1.29-2.8.85-.76,1.94-1.14,3.26-1.14,1.91,0,3.29.75,4.15,2.25l-2.24,1.45c-.42-.72-1.06-1.08-1.91-1.08-.43,0-.78.1-1.05.33-.27.22-.4.49-.4.83s.14.63.42.87c.28.24.89.58,1.83,1.02,1.4.65,2.38,1.31,2.95,1.96.57.65.86,1.48.86,2.46,0,1.22-.49,2.23-1.47,3.01-.98.79-2.19,1.18-3.63,1.18-2.11,0-3.67-.99-4.68-2.98" fill="#fff"/>
        <path d="m202.89,98.88v3.97h1.02c.78,0,1.36-.16,1.76-.51.4-.35.6-.83.6-1.47s-.2-1.14-.6-1.49c-.4-.34-.99-.51-1.76-.51h-1.02Zm0,6.61v4.5h-3.23v-13.75h4.6c1.66,0,2.95.41,3.87,1.24.93.82,1.39,1.94,1.39,3.35s-.49,2.57-1.47,3.41c-.98.84-2.28,1.25-3.92,1.25h-1.24Z" fill="#fff"/>
        <path d="m218.14,107.35c1.17,0,2.14-.41,2.93-1.22.78-.8,1.17-1.82,1.17-3.03s-.39-2.22-1.17-3.02c-.79-.81-1.76-1.21-2.93-1.21s-2.14.4-2.92,1.22c-.78.81-1.17,1.82-1.17,3.01s.39,2.21,1.17,3.02c.78.81,1.75,1.22,2.91,1.22m0,2.89c-2.08,0-3.82-.68-5.22-2.06-1.4-1.37-2.1-3.07-2.1-5.08,0-2.01.69-3.7,2.1-5.07,1.4-1.37,3.14-2.06,5.22-2.07,2.08,0,3.82.68,5.23,2.06,1.4,1.37,2.11,3.06,2.11,5.08,0,2.03-.71,3.72-2.11,5.09-1.4,1.37-3.14,2.05-5.23,2.05" fill="#fff"/>
        <path d="m230.54,98.82v3.23h1.11c.59,0,1.06-.15,1.42-.47.35-.32.53-.72.53-1.2-.02-.44-.17-.81-.49-1.11-.32-.3-.77-.45-1.33-.45h-1.23Zm4.02,11.17l-3.41-5.2h-.62v5.2h-3.23v-13.75h4.67c1.54,0,2.73.37,3.57,1.12.84.74,1.27,1.76,1.27,3.06,0,.87-.22,1.61-.65,2.25-.44.64-1.06,1.11-1.87,1.44l3.92,5.88h-3.66Z" fill="#fff"/>
        <polygon points="245.8 99.1 245.8 109.99 242.56 109.99 242.56 99.1 238.85 99.1 238.85 96.24 249.51 96.24 249.51 99.1 245.8 99.1" fill="#fff"/>
        <polygon points="138.24 120.82 138.24 123.17 142.58 123.17 142.58 125.96 138.24 125.96 138.24 131.82 135.01 131.82 135.01 118.07 143.7 118.07 143.7 120.82 138.24 120.82" fill="#fff"/>
        <path d="m152.13,129.18c1.17,0,2.14-.41,2.92-1.22.78-.8,1.17-1.82,1.17-3.03s-.4-2.21-1.17-3.02c-.78-.81-1.76-1.21-2.92-1.21s-2.14.41-2.92,1.22c-.78.81-1.17,1.81-1.17,3.01s.4,2.21,1.17,3.02c.79.82,1.75,1.23,2.92,1.23m0,2.89c-2.08,0-3.82-.68-5.22-2.06-1.4-1.37-2.1-3.07-2.1-5.08,0-2,.69-3.69,2.1-5.07,1.4-1.37,3.14-2.06,5.22-2.07,2.08,0,3.82.69,5.23,2.06,1.41,1.36,2.11,3.07,2.11,5.08,0,2.03-.71,3.72-2.11,5.09-1.4,1.37-3.14,2.05-5.23,2.05" fill="#fff"/>
        <path d="m164.53,120.64v3.23h1.11c.59,0,1.06-.15,1.41-.47.36-.32.53-.72.53-1.2,0-.44-.17-.81-.49-1.11-.33-.3-.77-.45-1.33-.45h-1.23Zm4.03,11.17l-3.41-5.2h-.62v5.2h-3.24v-13.75h4.68c1.53,0,2.72.37,3.57,1.11.84.75,1.27,1.77,1.27,3.06,0,.87-.22,1.61-.65,2.25-.44.64-1.06,1.12-1.87,1.44l3.91,5.88h-3.66Z" fill="#fff"/>
        <polygon points="177.98 131.82 177.98 118.07 181.21 118.07 181.21 128.94 186.49 128.94 186.49 131.82 177.98 131.82" fill="#fff"/>
        <path d="m194.92,129.18c1.17,0,2.14-.41,2.92-1.22.79-.8,1.17-1.82,1.17-3.03s-.39-2.21-1.17-3.02c-.78-.81-1.75-1.21-2.92-1.21s-2.15.41-2.92,1.22c-.78.81-1.17,1.81-1.17,3.01s.39,2.21,1.17,3.02c.78.82,1.76,1.23,2.92,1.23m0,2.89c-2.08,0-3.82-.68-5.22-2.06-1.4-1.37-2.1-3.07-2.1-5.08,0-2,.69-3.69,2.09-5.07,1.4-1.37,3.14-2.06,5.22-2.07,2.08,0,3.82.69,5.23,2.06,1.4,1.36,2.1,3.07,2.1,5.08,0,2.03-.71,3.72-2.1,5.09-1.4,1.37-3.15,2.05-5.23,2.05" fill="#fff"/>
        <polygon points="213.33 131.82 207.29 123.29 207.29 131.82 204.06 131.82 204.06 118.07 207.32 118.07 213.44 126.68 213.44 118.07 216.67 118.07 216.67 131.82 213.33 131.82" fill="#fff"/>
        <path d="m222.18,120.74v8.39h.89c1.5,0,2.66-.37,3.5-1.11.84-.73,1.27-1.76,1.27-3.08,0-1.35-.43-2.39-1.27-3.12-.85-.72-2.01-1.09-3.5-1.09h-.89Zm-3.23,11.07v-13.75h4.43c2.34,0,4.21.61,5.6,1.83,1.39,1.22,2.09,2.87,2.09,4.95,0,2.22-.7,3.93-2.1,5.14-1.39,1.22-3.33,1.82-5.79,1.82h-4.23Z" fill="#fff"/>
        <path d="m239.76,129.18c1.17,0,2.14-.41,2.93-1.22.78-.8,1.17-1.82,1.17-3.03s-.4-2.21-1.17-3.02c-.79-.81-1.76-1.21-2.93-1.21s-2.14.41-2.92,1.22c-.78.81-1.17,1.81-1.17,3.01s.39,2.21,1.17,3.02c.78.82,1.75,1.23,2.91,1.23m0,2.89c-2.08,0-3.82-.68-5.22-2.06-1.4-1.37-2.1-3.07-2.1-5.08-.01-2,.69-3.69,2.09-5.07,1.41-1.37,3.15-2.06,5.23-2.07,2.08,0,3.83.69,5.23,2.06,1.4,1.36,2.11,3.07,2.11,5.08,0,2.03-.71,3.72-2.11,5.09-1.4,1.37-3.14,2.05-5.23,2.05" fill="#fff"/>
        <polygon points="258.42 131.82 252.38 123.29 252.38 131.82 249.15 131.82 249.15 118.07 252.4 118.07 258.53 126.68 258.53 118.07 261.76 118.07 261.76 131.82 258.42 131.82" fill="#fff"/>
      </g>
      <rect x="135.01" y="138.71" width="126.75" height="1.39" fill="#fff"/>
    </g>
  </g>
</svg>