<?xml version="1.0" encoding="UTF-8"?>
<svg id="Layer_1" data-name="Layer 1" xmlns="http://www.w3.org/2000/svg" width="429.52" height="54.98" viewBox="0 0 429.52 54.98">
  <path d="m113.85,47.33c-5.57-5.08-12.28-2.29-19-2.78-1.64,0-3.11-.33-4.75-1.64.82,0,1.64-.33,2.29-.82,4.75-1.64,9.5-3.11,14.25-3.11,1.64,0,2.78.33,3.93,1.64,1.15,1.15,2.29,2.29,3.93,3.6.82.33,1.64.33,2.29,0,.82-.33.82-1.15.82-1.97-.33-1.97-2.29-3.11-3.93-3.93-.33-.33-1.15-.82-1.64-1.15-2.29-1.15-5.08-1.64-7.86-1.64-.82,0-1.64,0-2.29.33-1.97.33-3.6.82-5.57,1.15-1.15.33-2.78,0-3.93-.33.82-1.15,1.97-1.97,2.29-3.11,2.29-3.6,4.42-10.65,8.35-12.61,2.29-1.15,11.46,0,12.28-.33.33-.33,1.15-1.15,1.15-1.97.33-.82-.33-1.15-.33-1.15l-5.57-2.95c-1.15-.33-2.29-1.97-3.6-3.6-1.15-1.97-3.11-3.6-4.75-5.08-1.64-1.47-3.11-3.11-4.42-5.08,0-.33-.33-.33-.82-.82-.82,0-1.15,2.78-.82,4.75-1.15-.82-2.78-1.64-3.93-2.29-.33,0-.33-.33-.82-.33-1.15.33,1.15,5.57,1.64,5.9.33.82.82,1.97,1.64,2.78-3.6,3.11-6.39,7.53-9.01,9.5-7.86,5.57-15.39,4.75-24.07,2.29-7.86-1.97-15.72,0-21.29,3.11-2.78.82-7.53,1.97-12.28-1.97-5.9-4.75-7.04-11.46-13.43-15.72C10.18,4.91,4.77,3.6,1.5,2.95c-1.64-.33-1.97,0-.82,1.15,1.64,1.64,3.6,4.75,5.08,9.83,2.29,7.86,7.53,14.58,15.07,16.54,3.6.82,8.35.33,11.79,0-.33.33-.82.82-1.15,1.15-1.97,1.97-3.93,3.93-6.71,4.75s-5.08-.82-7.04,1.15c-1.97,1.64-3.6,3.11-5.9,3.6-1.15.33-2.29.33-3.6,0-1.15-.33-2.29-1.15-3.11-.82-.82.33-1.15.82-1.15,1.64,0,2.29,4.75,1.97,6.39,1.97h1.64c1.64-.33,3.11-.82,4.42-1.15,3.6-1.64,7.86-2.29,11.79-1.64-.33.33-.82.82-1.64,1.15-2.78,1.97-6.39.82-8.68,2.78-3.11,2.78-5.08,7.04-10.32,6.39-.82,0-1.64-.33-2.29,0-.82.33-.82,1.15-.82,1.97.33,2.78,5.08,1.15,6.71.82.33,0,.82-.33,1.15-.33,1.64-.33,2.78-1.15,4.42-2.29,5.9-4.42,12.28-4.42,17.69-3.11,7.04,1.15,10.32-3.93,15.07-7.86,4.75-3.6,10.97-1.64,15.39,1.64,4.42,3.11,9.01,3.93,13.43,2.78.82,1.64,2.29,2.78,3.11,3.93,2.29,2.29,6.39,1.97,9.5,1.15,4.75-1.15,9.5-2.29,14.58-1.97,2.29.33,2.78,1.15,4.42,2.78.82.82,1.15,1.64,1.97,1.97.82.82,1.64,1.15,2.29,1.15.33,0,1.15,0,1.64-.33.33-.33.33-1.15,0-1.97.33-1.64-1.64-3.93-1.97-4.42" fill="#40ab89"/>
  <g>
    <polygon points="145.53 29.8 145.53 37.15 141.87 37.15 141.87 29.8 134.93 17.81 139.03 17.81 143.75 26.47 148.47 17.81 152.47 17.81 145.53 29.8" fill="#40ab89"/>
    <path d="m158.69,27.53c0,3.77,2.3,6.65,6.06,6.65s6.03-2.91,6.03-6.73-2.22-6.65-5.98-6.65-6.11,2.91-6.11,6.73m-3.64-.08c0-5.54,3.89-10.11,9.7-10.11s9.67,4.62,9.67,10.16-3.79,10.14-9.62,10.14-9.75-4.59-9.75-10.19" fill="#40ab89"/>
    <path d="m195.31,17.81v11.94c0,5.31-3.12,7.89-7.76,7.89s-7.84-2.55-7.84-7.89v-11.94h3.58v11.76c0,3.04,1.7,4.64,4.36,4.64,2.47,0,4.13-1.37,4.13-4.31v-12.09h3.53Z" fill="#40ab89"/>
    <polygon points="217.47 37.15 213.65 37.15 205.04 23.51 205.04 37.15 201.5 37.15 201.5 17.81 205.65 17.81 213.93 31.09 213.93 17.81 217.47 17.81 217.47 37.15" fill="#40ab89"/>
    <path d="m240.91,26.78v10.37h-3.35v-2.22c-.7,1.24-2.47,2.71-5.65,2.71-5.42,0-8.9-4.31-8.9-10.01,0-5.29,2.99-10.27,9.46-10.27,4.57,0,7.95,2.45,8.43,6.89h-3.66c-.23-2.19-2.3-3.53-4.87-3.53-3.92,0-5.78,3.07-5.78,6.81,0,3.97,2.09,6.76,5.85,6.76,2.63,0,4.8-1.34,5.13-4.15h-5.67v-3.35h9Z" fill="#40ab89"/>
    <path d="m262.16,23.89c.16.24.5.68,1.02,1.3.52-.35.9-.65,1.12-.9.44-.45.65-.95.65-1.48,0-.39-.13-.73-.39-1.03-.26-.3-.66-.45-1.19-.45-.33,0-.64.09-.93.27-.44.26-.66.67-.66,1.24,0,.34.12.69.37,1.06m-1.58,9.94c.51.51,1.16.77,1.96.77.6,0,1.16-.14,1.7-.4.53-.27.97-.57,1.3-.9l-3.47-4.23c-.91.6-1.51,1.12-1.8,1.58-.29.45-.44.95-.44,1.5,0,.61.25,1.18.76,1.69m-3.51-4.44c.55-.8,1.46-1.59,2.72-2.37l.39-.24c-.54-.61-.95-1.22-1.25-1.86-.3-.63-.44-1.29-.44-1.97,0-1.35.46-2.41,1.38-3.17.92-.76,2.11-1.14,3.57-1.14,1.33,0,2.44.39,3.31,1.17.87.78,1.31,1.77,1.31,2.99,0,1.1-.26,1.99-.78,2.67-.52.68-1.29,1.31-2.3,1.89l2.67,3.23c.3-.43.54-.91.71-1.42.17-.51.25-1.05.26-1.62h3.19c-.06,1.13-.33,2.27-.82,3.42-.27.65-.7,1.36-1.31,2.15l3.37,4.03h-4.34l-1.29-1.57c-.63.58-1.21,1.01-1.76,1.29-.97.5-2.08.75-3.35.75-1.9,0-3.39-.56-4.46-1.66s-1.6-2.34-1.6-3.69c0-1.12.28-2.07.83-2.87" fill="#40ab89"/>
    <polygon points="303.5 37.15 299.68 37.15 291.06 23.51 291.06 37.15 287.53 37.15 287.53 17.81 291.68 17.81 299.96 31.09 299.96 17.81 303.5 17.81 303.5 37.15" fill="#40ab89"/>
    <path d="m312.68,27.53c0,3.77,2.3,6.65,6.06,6.65s6.03-2.91,6.03-6.73-2.22-6.65-5.98-6.65-6.11,2.91-6.11,6.73m-3.63-.08c0-5.54,3.89-10.11,9.7-10.11s9.67,4.62,9.67,10.16-3.79,10.14-9.62,10.14-9.75-4.59-9.75-10.19" fill="#40ab89"/>
    <path d="m344.38,23.53c0-1.14-.72-2.37-2.71-2.37h-4.15v4.98h3.87c2.01,0,2.99-1.26,2.99-2.6m1.06,13.62l-4.92-7.71h-2.99v7.71h-3.56v-19.34h7.56c4.39,0,6.45,2.81,6.45,5.62,0,2.25-1.29,4.49-3.74,5.31l5.52,8.41h-4.31Z" fill="#40ab89"/>
    <path d="m370.48,26.78v10.37h-3.35v-2.22c-.7,1.24-2.47,2.71-5.65,2.71-5.42,0-8.9-4.31-8.9-10.01,0-5.29,2.99-10.27,9.46-10.27,4.56,0,7.94,2.45,8.43,6.89h-3.66c-.23-2.19-2.3-3.53-4.87-3.53-3.92,0-5.78,3.07-5.78,6.81,0,3.97,2.09,6.76,5.85,6.76,2.63,0,4.8-1.34,5.13-4.15h-5.67v-3.35h9Z" fill="#40ab89"/>
    <path d="m387.69,29.49l-2.86-7.63-2.81,7.63h5.67Zm1.29,3.38h-8.2l-1.57,4.28h-3.82l7.45-19.34h3.97l7.71,19.34h-3.95l-1.6-4.28Z" fill="#40ab89"/>
    <polygon points="411.5 21.16 405.15 21.16 405.15 37.15 401.57 37.15 401.57 21.16 395.3 21.16 395.3 17.81 411.5 17.81 411.5 21.16" fill="#40ab89"/>
    <polygon points="416.01 37.15 416.01 17.81 429.01 17.81 429.01 21.16 419.6 21.16 419.6 25.67 428.54 25.67 428.54 29.05 419.6 29.05 419.6 33.77 429.52 33.77 429.52 37.15 416.01 37.15" fill="#40ab89"/>
  </g>
</svg>