<?xml version="1.0" encoding="UTF-8"?>
<svg id="Layer_1" data-name="Layer 1" xmlns="http://www.w3.org/2000/svg" width="300" height="250" viewBox="0 0 300 250">
  <rect width="300" height="250" fill="none"/>
  <g>
    <g>
      <path d="m135.47,176.11c-1.39.05-2.46.58-3.2,1.59s-1.12,2.77-1.12,5.28c0,.83.08,1.39.23,1.71.15.32.23.5.23.55-1.19,0-2.08-.24-2.68-.75-.58-.5-.87-1.32-.87-2.48,0-1.58.38-3,1.16-4.3.78-1.3,2-2.34,3.7-3.14,1.7-.8,3.84-1.19,6.46-1.19.54,0,1.24.06,2.13.17,1.59.15,2.72.23,3.38.23,1.18,0,2.17-.14,2.98-.4-.06.2-.18.64-.37,1.32-.18.67-.49,1.25-.95,1.73-.46.47-1.07.8-1.84.95-1.3,0-2.85-.21-4.65-.63l-1.39,6.61h4.85l-.54,2.45h-4.85l-2.69,12.47h-4.77l4.77-22.15.02-.02Z" fill="#fff"/>
      <path d="m143.72,197.48c-.66-.66-.98-1.65-.98-2.98,0-.55.09-1.27.26-2.16l3.55-16.61,4.91-.66-3.81,17.91c-.09.34-.14.69-.14,1.06,0,.44.11.76.32.95s.55.28,1.04.28c.64,0,1.24-.28,1.79-.81s.95-1.24,1.19-2.11h1.39c-.83,2.39-1.87,4.01-3.15,4.86-1.29.86-2.55,1.27-3.81,1.27-1.06,0-1.91-.34-2.57-.99h0Z" fill="#fff"/>
      <path d="m154.38,205.75c-.7-.55-1.06-1.35-1.06-2.39,0-1.25.5-2.28,1.53-3.03s2.31-1.39,3.89-1.91l.4-1.79c-.64.7-1.3,1.19-1.96,1.45s-1.33.4-2.02.4c-1.06,0-1.91-.34-2.57-.99s-.98-1.65-.98-2.98c0-.55.09-1.27.26-2.16l2.25-10.65h4.77l-2.39,11.27c-.06.26-.11.54-.11.83,0,.98.34,1.45.99,1.45.58,0,1.09-.24,1.53-.75s.8-1.16,1.06-1.97l2.33-10.85h4.77l-3.29,15.39c1.06-.35,1.91-.89,2.55-1.59.64-.7,1.18-1.76,1.62-3.15h1.39c-.6,1.97-1.41,3.41-2.42,4.33-1.02.92-2.17,1.55-3.46,1.88l-.5,2.39c-.44,2.14-1.21,3.63-2.29,4.42-1.09.81-2.31,1.21-3.69,1.21-1.06,0-1.94-.28-2.66-.83l.05.02Zm2.98-2.52c.35-.5.63-1.24.83-2.19l.2-.96c-2.17.8-3.26,1.73-3.26,2.81,0,.29.11.54.29.76.2.21.47.34.83.34.38,0,.73-.26,1.1-.76h.02Z" fill="#fff"/>
      <path d="m168.82,197.18c-.84-.86-1.25-2.22-1.25-4.05,0-1.64.32-3.35.98-5.16.66-1.81,1.62-3.33,2.92-4.57s2.83-1.88,4.62-1.88c.9,0,1.58.15,2.02.46.44.31.66.72.66,1.22v.23l.37-1.76h4.77l-2.39,11.27c-.09.34-.14.69-.14,1.06,0,.95.46,1.42,1.36,1.42.61,0,1.16-.29,1.61-.86.46-.58.81-1.33,1.07-2.25h1.39c-.81,2.39-1.84,4.01-3.03,4.86-1.21.86-2.42,1.27-3.63,1.27-.93,0-1.68-.26-2.23-.78-.57-.52-.9-1.29-1.01-2.28-.64.9-1.36,1.64-2.14,2.2s-1.71.84-2.8.84c-1.25,0-2.31-.43-3.15-1.3v.05Zm6.95-2.71c.54-.52.92-1.24,1.12-2.14l1.59-7.5c0-.29-.11-.57-.34-.84-.21-.28-.57-.41-1.02-.41-.89,0-1.68.52-2.39,1.55-.7,1.02-1.25,2.26-1.65,3.72s-.6,2.72-.6,3.82.15,1.82.47,2.13c.32.31.72.46,1.18.46.55,0,1.1-.26,1.64-.78Z" fill="#fff"/>
      <path d="m186.14,197.48c-.66-.66-.98-1.65-.98-2.98,0-.55.09-1.27.26-2.16l2.25-10.65h4.77l-2.39,11.27c-.06.26-.11.54-.11.83,0,.98.34,1.45.99,1.45.61,0,1.15-.26,1.59-.78s.8-1.24,1.06-2.14l2.25-10.65h4.77l-2.39,11.27c-.11.55-.17.95-.17,1.19,0,.73.38,1.1,1.13,1.1,1.01,0,1.96-.64,2.83-1.93s1.58-2.81,2.11-4.57c.54-1.77.8-3.29.8-4.57-.05.11-.18.2-.43.24-.24.06-.46.08-.63.08-.38,0-.67-.18-.87-.54-.21-.35-.32-.73-.32-1.16,0-.54.17-.96.52-1.3.34-.34.86-.5,1.55-.5.73,0,1.25.28,1.59.81s.5,1.24.5,2.07c0,1.99-.34,4.12-1.02,6.38s-1.73,4.19-3.15,5.78-3.17,2.39-5.28,2.39c-1.09,0-1.97-.23-2.66-.7s-1.13-1.16-1.33-2.1c-1.24,1.85-2.81,2.78-4.71,2.78-1.06,0-1.91-.34-2.57-.99l.03.08Z" fill="#fff"/>
      <path d="m208.19,197.18c-.84-.86-1.25-2.22-1.25-4.05,0-1.64.32-3.35.98-5.16.66-1.81,1.62-3.33,2.92-4.57s2.83-1.88,4.62-1.88c.9,0,1.58.15,2.02.46.44.31.66.72.66,1.22v.23l.37-1.76h4.77l-2.39,11.27c-.09.34-.14.69-.14,1.06,0,.95.46,1.42,1.36,1.42.61,0,1.16-.29,1.61-.86.46-.58.81-1.33,1.07-2.25h1.39c-.81,2.39-1.84,4.01-3.03,4.86-1.21.86-2.42,1.27-3.63,1.27-.93,0-1.68-.26-2.23-.78-.57-.52-.9-1.29-1.01-2.28-.64.9-1.36,1.64-2.14,2.2s-1.71.84-2.8.84c-1.25,0-2.31-.43-3.15-1.3v.05Zm6.95-2.71c.54-.52.92-1.24,1.12-2.14l1.59-7.5c0-.29-.11-.57-.34-.84-.21-.28-.57-.41-1.02-.41-.89,0-1.68.52-2.39,1.55-.7,1.02-1.25,2.26-1.65,3.72s-.6,2.72-.6,3.82.15,1.82.47,2.13c.32.31.72.46,1.18.46.55,0,1.1-.26,1.64-.78Z" fill="#fff"/>
      <path d="m227.25,205.56c-.78-.67-1.18-1.53-1.18-2.57,0-.98.24-1.77.73-2.39.49-.61,1.12-1.1,1.9-1.45s1.82-.73,3.12-1.13l.34-1.45c-1.13,1.29-2.48,1.93-4.05,1.93-1.06,0-1.91-.34-2.57-.99s-.98-1.65-.98-2.98c0-.55.09-1.27.26-2.16l2.25-10.65h4.77l-2.39,11.27c-.06.26-.11.54-.11.83,0,.98.34,1.45.99,1.45.61,0,1.15-.26,1.59-.78s.8-1.24,1.06-2.14l2.25-10.65h4.8l-4.05,19.24c-.44,2.13-1.22,3.59-2.34,4.41-1.12.81-2.36,1.22-3.7,1.22-1.04,0-1.96-.34-2.74-1.01h.05Zm3.11-2.55c.35-.41.63-1.07.83-1.97l.4-1.96c-1.18.4-2.08.86-2.72,1.39-.64.54-.96,1.21-.96,2.05,0,.26.14.52.4.75s.58.35.93.35c.4,0,.78-.2,1.13-.61h0Z" fill="#fff"/>
    </g>
    <g>
      <path d="m82.21,189.41l6.58,4.83c.41.31.66.73.73,1.21l1.12,6.67c5.23-1.19,9.67-1.61,12.99-.73-.52,2.72-4.16,5.84-8.89,8.38h-2.52c-5.34,0-11.12-.99-15.89-3.44,1.06-.35,2.11-.7,3.14-1.02l-1.35-6.41c-.63-2.34-1.71-3.18-2.57-3.86-1.51-1.18-2.54-2.31-2.29-4.36.34-2.74,1.15-5.26,2.31-7.45.4-.75.84-1.47,1.33-2.14l-1.67-.06-4.3,4.57c-1.45,1.55-3.87-.49-2.6-2.19l4.38-5.81c.31-.41.76-.7,1.33-.75l7.07-.61c2.25-.2,5.63,0,6.44,2.63l1.84,5.94,4.99,3.46c1.74,1.21.08,3.92-1.79,2.88l-5.94-3.27c-.34-.18-.64-.44-.81-.83l-1.25-2.75c-1.16,1.45-1.96,3.3-2.37,5.12h.02Zm5.55-13.4c2.17,0,3.92-1.76,3.92-3.92s-1.76-3.92-3.92-3.92-3.92,1.76-3.92,3.92,1.76,3.92,3.92,3.92h0Zm-.87,27.06l-1.76-5.71-3.35-2.13c.37.66.72,1.38,1.02,2.17.09.2.15.43.17.66l.38,6.01c1.21-.37,2.39-.7,3.53-1.02h0v.02Z" fill="#fff" fill-rule="evenodd"/>
      <path d="m59.98,211.82h32.4v-.17c-13.45-.12-23.16-5.98-23.62-10.19-.14-1.3.31-2.94,3.32-2.94.5,0,.38-.44.17-.5-9.32-3.21-12.28,6.49-12.28,13.81h0l.02-.02Z" fill="#fff" fill-rule="evenodd"/>
    </g>
  </g>
</svg>