<?xml version="1.0" encoding="UTF-8"?>
<svg id="Layer_1" data-name="Layer 1" xmlns="http://www.w3.org/2000/svg" width="300" height="250" viewBox="0 0 300 250">
  <rect width="300" height="250" style="fill: none;"/>
  <g>
    <g>
      <path d="m140.49,16.47c-.91.03-1.61.38-2.09,1.04-.48.66-.73,1.81-.73,3.45,0,.54.05.91.15,1.12.1.21.15.33.15.36-.78,0-1.36-.16-1.75-.49-.38-.33-.57-.86-.57-1.62,0-1.03.25-1.96.76-2.81.51-.85,1.31-1.53,2.42-2.05,1.11-.52,2.51-.78,4.22-.78.35,0,.81.04,1.39.11,1.04.1,1.78.15,2.21.15.77,0,1.42-.09,1.95-.26-.04.13-.12.42-.24.86-.12.44-.32.82-.62,1.13-.3.31-.7.52-1.2.62-.85,0-1.86-.14-3.04-.41l-.91,4.32h3.17l-.35,1.6h-3.17l-1.76,8.15h-3.12l3.12-14.48Z" style="fill: #fff;"/>
      <path d="m145.88,30.44c-.43-.43-.64-1.08-.64-1.95,0-.36.06-.83.17-1.41l2.32-10.86,3.21-.43-2.49,11.71c-.06.22-.09.45-.09.69,0,.29.07.5.21.62.14.12.36.18.68.18.42,0,.81-.18,1.17-.53.36-.35.62-.81.78-1.38h.91c-.54,1.56-1.22,2.62-2.06,3.18-.84.56-1.67.83-2.49.83-.69,0-1.25-.22-1.68-.65Z" style="fill: #fff;"/>
      <path d="m152.85,35.84c-.46-.36-.69-.88-.69-1.56,0-.82.33-1.49,1-1.98s1.51-.91,2.54-1.25l.26-1.17c-.42.46-.85.78-1.28.95-.43.17-.87.26-1.32.26-.69,0-1.25-.22-1.68-.65-.43-.43-.64-1.08-.64-1.95,0-.36.06-.83.17-1.41l1.47-6.96h3.12l-1.56,7.37c-.04.17-.07.35-.07.54,0,.64.22.95.65.95.38,0,.71-.16,1-.49.29-.33.52-.76.69-1.29l1.52-7.09h3.12l-2.15,10.06c.69-.23,1.25-.58,1.67-1.04.42-.46.77-1.15,1.06-2.06h.91c-.39,1.29-.92,2.23-1.58,2.83-.67.6-1.42,1.01-2.26,1.23l-.33,1.56c-.29,1.4-.79,2.37-1.5,2.89-.71.53-1.51.79-2.41.79-.69,0-1.27-.18-1.74-.54Zm1.95-1.65c.23-.33.41-.81.54-1.43l.13-.63c-1.42.52-2.13,1.13-2.13,1.84,0,.19.07.35.19.5.13.14.31.22.54.22.25,0,.48-.17.72-.5Z" style="fill: #fff;"/>
      <path d="m162.29,30.24c-.55-.56-.82-1.45-.82-2.65,0-1.07.21-2.19.64-3.37.43-1.18,1.06-2.18,1.91-2.99s1.85-1.23,3.02-1.23c.59,0,1.03.1,1.32.3.29.2.43.47.43.8v.15l.24-1.15h3.12l-1.56,7.37c-.06.22-.09.45-.09.69,0,.62.3.93.89.93.4,0,.76-.19,1.05-.56.3-.38.53-.87.7-1.47h.91c-.53,1.56-1.2,2.62-1.98,3.18-.79.56-1.58.83-2.37.83-.61,0-1.1-.17-1.46-.51-.37-.34-.59-.84-.66-1.49-.42.59-.89,1.07-1.4,1.44-.51.37-1.12.55-1.83.55-.82,0-1.51-.28-2.06-.85Zm4.54-1.77c.35-.34.6-.81.73-1.4l1.04-4.9c0-.19-.07-.37-.22-.55-.14-.18-.37-.27-.67-.27-.58,0-1.1.34-1.56,1.01-.46.67-.82,1.48-1.08,2.43s-.39,1.78-.39,2.5.1,1.19.31,1.39c.21.2.47.3.77.3.36,0,.72-.17,1.07-.51Z" style="fill: #fff;"/>
      <path d="m173.61,30.44c-.43-.43-.64-1.08-.64-1.95,0-.36.06-.83.17-1.41l1.47-6.96h3.12l-1.56,7.37c-.04.17-.07.35-.07.54,0,.64.22.95.65.95.4,0,.75-.17,1.04-.51s.52-.81.69-1.4l1.47-6.96h3.12l-1.56,7.37c-.07.36-.11.62-.11.78,0,.48.25.72.74.72.66,0,1.28-.42,1.85-1.26.57-.84,1.03-1.84,1.38-2.99.35-1.16.52-2.15.52-2.99-.03.07-.12.13-.28.16-.16.04-.3.05-.41.05-.25,0-.44-.12-.57-.35-.14-.23-.21-.48-.21-.76,0-.35.11-.63.34-.85.22-.22.56-.33,1.01-.33.48,0,.82.18,1.04.53s.33.81.33,1.35c0,1.3-.22,2.69-.67,4.17-.45,1.48-1.13,2.74-2.06,3.78s-2.07,1.56-3.45,1.56c-.71,0-1.29-.15-1.74-.46s-.74-.76-.87-1.37c-.81,1.21-1.84,1.82-3.08,1.82-.69,0-1.25-.22-1.68-.65Z" style="fill: #fff;"/>
      <path d="m188.02,30.24c-.55-.56-.82-1.45-.82-2.65,0-1.07.21-2.19.64-3.37.43-1.18,1.06-2.18,1.91-2.99s1.85-1.23,3.02-1.23c.59,0,1.03.1,1.32.3.29.2.43.47.43.8v.15l.24-1.15h3.12l-1.56,7.37c-.06.22-.09.45-.09.69,0,.62.3.93.89.93.4,0,.76-.19,1.05-.56.3-.38.53-.87.7-1.47h.91c-.53,1.56-1.2,2.62-1.98,3.18-.79.56-1.58.83-2.37.83-.61,0-1.1-.17-1.46-.51-.37-.34-.59-.84-.66-1.49-.42.59-.89,1.07-1.4,1.44-.51.37-1.12.55-1.83.55-.82,0-1.51-.28-2.06-.85Zm4.54-1.77c.35-.34.6-.81.73-1.4l1.04-4.9c0-.19-.07-.37-.22-.55-.14-.18-.37-.27-.67-.27-.58,0-1.1.34-1.56,1.01-.46.67-.82,1.48-1.08,2.43s-.39,1.78-.39,2.5.1,1.19.31,1.39c.21.2.47.3.77.3.36,0,.72-.17,1.07-.51Z" style="fill: #fff;"/>
      <path d="m200.48,35.72c-.51-.44-.77-1-.77-1.68,0-.64.16-1.16.48-1.56.32-.4.73-.72,1.24-.95s1.19-.48,2.04-.74l.22-.95c-.74.84-1.62,1.26-2.65,1.26-.69,0-1.25-.22-1.68-.65-.43-.43-.64-1.08-.64-1.95,0-.36.06-.83.17-1.41l1.47-6.96h3.12l-1.56,7.37c-.04.17-.07.35-.07.54,0,.64.22.95.65.95.4,0,.75-.17,1.04-.51s.52-.81.69-1.4l1.47-6.96h3.14l-2.65,12.58c-.29,1.39-.8,2.35-1.53,2.88-.73.53-1.54.8-2.42.8-.68,0-1.28-.22-1.79-.66Zm2.03-1.67c.23-.27.41-.7.54-1.29l.26-1.28c-.77.26-1.36.56-1.78.91-.42.35-.63.79-.63,1.34,0,.17.09.34.26.49.17.15.38.23.61.23.26,0,.51-.13.74-.4Z" style="fill: #fff;"/>
    </g>
    <g>
      <path d="m105.67,25.16l4.3,3.16c.27.2.43.48.48.79l.73,4.36c3.42-.78,6.32-1.05,8.49-.48-.34,1.78-2.72,3.82-5.81,5.48h-1.65c-3.49,0-7.27-.65-10.39-2.25.69-.23,1.38-.46,2.05-.67l-.88-4.19c-.41-1.53-1.12-2.08-1.68-2.52-.99-.77-1.66-1.51-1.5-2.85.22-1.79.75-3.44,1.51-4.87.26-.49.55-.96.87-1.4l-1.09-.04-2.81,2.99c-.95,1.01-2.53-.32-1.7-1.43l2.86-3.8c.2-.27.5-.46.87-.49l4.62-.4c1.47-.13,3.68,0,4.21,1.72l1.2,3.88,3.26,2.26c1.14.79.05,2.56-1.17,1.88l-3.88-2.14c-.22-.12-.42-.29-.53-.54l-.82-1.8c-.76.95-1.28,2.16-1.55,3.35h0Zm3.63-8.76c1.42,0,2.56-1.15,2.56-2.56s-1.15-2.56-2.56-2.56-2.56,1.15-2.56,2.56,1.15,2.56,2.56,2.56h0Zm-.57,17.69l-1.15-3.73-2.19-1.39c.24.43.47.9.67,1.42.06.13.1.28.11.43l.25,3.93c.79-.24,1.56-.46,2.31-.67h0Z" style="fill: #fff; fill-rule: evenodd;"/>
      <path d="m91.14,39.81h21.18v-.11c-8.79-.08-15.14-3.91-15.44-6.66-.09-.85.2-1.92,2.17-1.92.33,0,.25-.29.11-.33-6.09-2.1-8.03,4.24-8.03,9.03h0Z" style="fill: #fff; fill-rule: evenodd;"/>
    </g>
  </g>
</svg>