<?xml version="1.0" encoding="UTF-8"?>
<svg id="Layer_1" data-name="Layer 1" xmlns="http://www.w3.org/2000/svg" width="107.75" height="72.19" viewBox="0 0 107.75 72.19">
  <path d="m26.8,23.2c.13.2.19.43.25.66.33,1.26.69,1.92,1.28,3.04,1.54,2.91,6.65,1.68,6.82,6.8.07,2.02-.67,3.08-2,4.13l.17.3-.22.33h-14.51l-.27-.37.2-.25c-1.34-1.04-2.09-2.11-2.02-4.13.16-5.12,5.28-3.89,6.82-6.8.58-1.12.94-1.78,1.28-3.04.17-.63.46-1.15,1.25-1.14.47,0,.77.2.95.47m27.06-15.9c-.59-.17-1.12-.62-1.12-1.12.03-.81.54-2.11,1.12-2.02.53-.03,1.15,1.25,1.18,2.06,0,.5-.57.95-1.18,1.09m.03-7.29c.05.15.1.25.16.41.05.13.13.19.12.33-.02.17-.12.3-.28.33-.16-.03-.26-.16-.28-.33-.02-.14.07-.2.12-.33.06-.16.11-.26.16-.41m-.01,10.06c-.26,0-.46-.23-.52-.4-.02-.07-.1-.08-.21-.09v-.13h.22c.06-.25.26-.41.52-.41s.46.16.52.41h.21v.13c-.1,0-.18.02-.2.09-.05.17-.27.41-.54.4m-.03-1.14c-.33-.02-.51-.29-.62-.6-.04-.13-.43-.07-.62-.09v-.27h.55c.13-.32.39-.49.74-.48.33.01.58.2.69.51h.58v.25c-.19.02-.59-.07-.63.06-.1.31-.33.64-.69.62m-6.55,17.3c.14.47,1.24,1.31,1.21,2.66-.03,1.27-1,2.13-1.29,2.6-.3-.47-1.2-1.25-1.23-2.52-.03-1.35,1.18-2.27,1.3-2.74m16.1.06c-.09.46-1.28,1.29-1.26,2.61.03,1.22.99,2.07,1.21,2.52.2-.45,1.12-1.37,1.13-2.6.03-1.32-.99-2.08-1.09-2.53m2.48.12c-.09.44-.97,1.22-.95,2.49.03,1.17.71,2,.91,2.43.19-.44.88-1.26.89-2.43.03-1.28-.76-2.06-.85-2.49m-15.58.3c-.52.63-1.1,1.23-1.08,2.13.01.95.56,1.61,1.1,2.32.58-.71,1.23-1.35,1.26-2.32.01-1.03-.61-1.57-1.12-2.32-.05.06-.1.13-.15.2m10.16-.47c-.14.47-1.59,1.38-1.56,2.73.03,1.27,1.2,2.05,1.48,2.52.3-.47,1.29-1.25,1.32-2.52.03-1.35-1.11-2.26-1.24-2.73m-3.45-.05c-.14.47-1.51,1.28-1.5,2.63.03,1.24,1.14,2.14,1.42,2.6.3-.45,1.51-1.28,1.53-2.52.03-1.35-1.33-2.23-1.45-2.7m-3.42-.12c-.16.47-1.62,1.32-1.59,2.68.03,1.27,1.18,2.15,1.51,2.62.33-.47,1.47-1.35,1.51-2.62.03-1.36-1.29-2.21-1.43-2.68m-9.25.22c.09.46,1.23,1.33,1.21,2.65-.03,1.22-.95,2.03-1.17,2.48-.2-.45-1.01-1.37-1.02-2.6-.03-1.32.88-2.08.98-2.53M54,1.87c.04.27.14.44.35.62.1.08.17.12.29.17h.24l.02.15c-.17.03-.28.12-.31.2-.16.35-.22,1.01-.7,1.01s-.54-.66-.7-1.01c-.03-.08-.14-.17-.31-.2l.02-.15h.23c.12-.05.19-.09.29-.17.21-.18.32-.34.36-.61-.13-.04-.22-.15-.25-.24-.02-.04-.07-.05-.14-.06v-.08h.14c.05-.16.18-.26.34-.26s.3.1.34.26h.14v.08c-.07,0-.12.01-.14.06-.03.08-.11.19-.23.23m-.13,36.59h-12.22l-.34-.34.31-.27v-2.49h.31c.22,0,.38.2.37.41-.01.19-.15.3-.32.36l.78,1.36v-1.58h.38v-.06c-1.46-2.13-2.58-3.98-2.5-6.93.19-5.73,2.78-8.72,7.45-11.11.51-.26,1.57-.75,1.96-1.16,1.55-1.64,2.51-2.47,2.66-4.98.04-.71.44-1.41,1.15-1.41s1.1.7,1.14,1.41c.15,2.5,1.1,3.33,2.66,4.98.39.41,1.45.9,1.96,1.16,4.67,2.39,7.26,5.38,7.45,11.11.09,2.95-1.04,4.8-2.5,6.93v.06h.38v1.58l.78-1.36c-.16-.06-.31-.17-.32-.36-.01-.22.16-.41.37-.41h.31v2.49l.31.27-.34.34h-12.22Zm24.98-.66c-.17-.36-.38-.77-.53-1.24-.37-1.16-.57-1.89-.41-3.1.21-1.57,1.18-2.17,1.88-3.59.67-1.35,1.2-2.07,1.63-3.51.37-1.23.52-2.13.56-3.27-.08.02-.22,0-.49.27-.27.28-.72,2.16-1.36,3.36-.5.94-.89,1.44-1.7,2.12-1.4,1.17-3.1,1.51-3.71,2.53-.54.91-.74,1.6-.61,2.65.18,1.39.97,2.05,2.04,2.95.44.36.86.63,1.26.83h1.42Zm4.03-14.6c.13.2.19.43.25.66.33,1.26.69,1.92,1.28,3.04,1.53,2.91,6.65,1.68,6.82,6.8.07,2.02-.67,3.08-2,4.13l.18.3-.22.33h-14.51l-.27-.37.2-.25c-1.34-1.04-2.09-2.11-2.02-4.13.16-5.12,5.28-3.89,6.82-6.8.58-1.12.94-1.78,1.28-3.04.17-.63.46-1.15,1.24-1.14.47,0,.77.2.95.47m-64.26,15.98h70.49c.62,0,.62.93,0,.93H18.63c-.62,0-.62-.93,0-.93m20.25-25.9v2.31h.22v-2.31s-.04-.1-.09-.11c-.06,0-.12.11-.12.11m-1.05,0v2.31h.43v-2.31c-.06-.08-.13-.12-.23-.11-.09,0-.15.04-.2.11m-.43,5.14l-.34.04v10.89h.34v-10.93Zm-.58-5.12v2.29h.43v-2.29c-.05-.08-.12-.11-.22-.11-.09,0-.16.03-.21.11m-1.46,25.15l-.27-.33.21-.3v-2.47h.23c.21,0,.39.17.39.39,0,.19-.13.34-.31.38l.55,1.2v-4.16l.34-.41v-.96c0-.71.54-1.03.52-1.28-.03-.34-.21-.57-.36-.85v-11.21c.14-.36.37-.68.68-.92v-.37c-.46-.1-.72-.29-.91-.7-.18-.39-.5-.43-.9-.37v-.45h.89v-2.46h-.82v-.41h.83l.11-.27h.16c-.05-.16-.08-.35-.07-.55.04-.63.53-.88.86-1.33.18-.24.27-.39.39-.62-.13-.02-.25-.11-.3-.27-.02,0-.11-.01-.13-.01v-.22h.14c.06-.14.19-.24.35-.24s.3.09.35.24h.14v.22s-.1,0-.13.01c-.05.16-.17.25-.3.27.11.24.21.39.39.62.33.44.82.69.86,1.33.01.21-.02.39-.07.55h.16l.11.27h.83v.41h-.81v2.46h.89v.45c-.4-.06-.72-.02-.9.37-.19.41-.45.59-.91.7v.37c.31.24.53.56.67.92v11.21c-.15.29-.33.52-.36.85-.02.24.52.56.52,1.28v.96l.35.41v4.16l.55-1.2c-.18-.04-.31-.19-.31-.38,0-.21.18-.39.39-.39h.23v2.47l.21.3-.27.33h-5.2Zm2.8-29.89c.04.11.11.16.09.29-.02.17-.12.29-.29.32-.23-.05-.36-.29-.26-.5.11-.21.18-.43.26-.65.06.18.13.36.2.54m32.54,4.72v2.31h.22v-2.31s-.04-.1-.1-.11c-.06,0-.12.11-.12.11m-1.04,0v2.31h.43v-2.31c-.06-.08-.13-.12-.23-.11-.09,0-.15.04-.2.11m-.43,5.14l-.34.04v10.89h.34v-10.93Zm.6,17.38c0-.2.14-.37.33-.41,0,0,.05,0,.05-.14,0-.1-.04-.12-.04-.12h-.71c-.22,0-.45.4-.45.7,0,.15.05.31.17.4l-.66,1.5.05.07h.79l.66-1.53s.02-.04.02-.07c0-.03-.02-.06-.03-.08-.1-.07-.17-.2-.17-.33m-1.19-22.49v2.29h.43v-2.29c-.06-.08-.12-.11-.22-.11-.09,0-.16.03-.21.11m-1.46,25.15l-.27-.33.21-.3v-2.47h.23c.21,0,.39.17.39.39,0,.19-.13.34-.31.38l.55,1.2v-4.16l.34-.41v-.96c0-.71.54-1.03.52-1.28-.03-.34-.21-.57-.36-.85v-11.21c.14-.36.37-.68.67-.92v-.37c-.46-.1-.72-.29-.9-.7-.18-.39-.5-.43-.9-.37v-.45h.9v-2.46h-.82v-.41h.83l.11-.27h.16c-.05-.16-.08-.35-.07-.55.04-.63.53-.88.86-1.33.18-.24.27-.39.39-.62-.13-.02-.25-.11-.3-.27-.02,0-.11-.01-.13-.01v-.22h.14c.06-.14.19-.24.35-.24s.3.09.35.24h.14v.22s-.1,0-.12.01c-.05.16-.17.25-.3.27.11.24.2.39.39.62.33.44.82.69.86,1.33.01.21-.02.39-.07.55h.16l.12.27h.83v.41h-.82v2.46h.89v.45c-.4-.06-.72-.02-.9.37-.19.41-.45.59-.91.7v.37c.31.24.53.56.67.92v11.21c-.15.29-.33.52-.36.85-.03.24.52.56.52,1.28v.96l.34.41v4.16l.55-1.2c-.18-.04-.31-.19-.31-.38,0-.21.18-.39.39-.39h.23v2.47l.21.3-.27.33h-5.2Zm2.8-29.89c.04.11.11.16.09.29-.02.17-.12.29-.29.32-.23-.05-.36-.29-.26-.5.11-.21.18-.43.26-.65.06.18.13.36.2.54m12.25,14.06c-.18.02-.32.02-.32.02,0,0-.14,0-.32-.03-.23-.02-.44-.06-.66-.11l-.07-.37c.36-.29.61-.41,1.09-.4.46.01.69.14,1.03.42l-.08.35c-.22.06-.44.09-.67.12m-.31-6.64c.24,0,.44.19.44.44s-.2.44-.44.44-.44-.19-.44-.44.2-.44.44-.44m.91,2.03c-.1.3-.42.69-.9.7-.51.02-.83-.41-.93-.7-.04-.12-.18-.15-.36-.16v-.23h.38c.1-.44.45-.72.9-.72s.8.28.9.72h.38v.23c-.18.02-.32.04-.36.16m-.61-2.86c-.06-.15-.11-.25-.15-.39l-.15-.44c-.11.33-.21.65-.37.97-.15.3.04.63.37.7.24-.05.39-.21.42-.45.02-.18-.06-.24-.12-.39m-.87,4.93c0-.22.18-1.31.58-1.31s.55,1.04.56,1.28c0,.8-1.14.81-1.14.03m1.34,1.11c0,.35-.43.52-.77.52s-.77-.17-.77-.52.42-.53.77-.53.77.17.77.53m-56.54,1.42c-.18.02-.32.02-.32.02,0,0-.14,0-.32-.03-.23-.02-.44-.06-.66-.11l-.07-.37c.36-.29.61-.41,1.09-.4.46.01.69.14,1.03.42l-.08.35c-.22.06-.44.09-.67.12m-.31-6.64c.24,0,.44.19.44.44s-.2.44-.44.44-.44-.19-.44-.44.2-.44.44-.44m.92,2.03c-.1.3-.42.69-.9.7-.51.02-.83-.41-.93-.7-.04-.12-.18-.15-.36-.16v-.23h.38c.1-.44.45-.72.9-.72s.8.28.9.72h.38v.23c-.18.02-.32.04-.36.16m-.61-2.86c-.06-.15-.11-.25-.15-.39l-.15-.44c-.11.33-.21.65-.37.97-.15.3.04.63.37.7.25-.05.39-.21.42-.45.02-.18-.07-.24-.12-.39m-.87,4.93c0-.22.18-1.31.58-1.31s.55,1.04.56,1.28c0,.8-1.14.81-1.14.03m1.34,1.11c0,.35-.42.52-.77.52s-.77-.17-.77-.52.42-.53.77-.53.77.17.77.53m-3.85,16.52c-.17-.36-.38-.71-.53-1.17-.37-1.16-.57-1.89-.41-3.1.21-1.57,1.18-2.17,1.88-3.59.67-1.35,1.2-2.07,1.63-3.51.37-1.23.52-2.13.56-3.27-.08.02-.23,0-.49.27-.28.28-.72,2.16-1.36,3.36-.5.94-.89,1.44-1.7,2.12-1.4,1.17-3.1,1.51-3.7,2.53-.54.91-.74,1.6-.61,2.65.18,1.39.97,2.05,2.04,2.95.44.36.89.56,1.29.77h1.39Zm40.61-1.93c0-.2.14-.37.33-.41,0,0,.05,0,.05-.14,0-.1-.04-.12-.04-.12h-.71c-.21,0-.45.4-.45.7,0,.15.06.31.17.4l-.66,1.5.05.07h.79l.66-1.53s.02-.04.02-.07c0-.03-.01-.06-.03-.08-.1-.07-.17-.2-.17-.33m-2.38,0c0-.2.14-.37.33-.41,0,0,.05,0,.05-.14,0-.1-.04-.12-.04-.12h-.71c-.22,0-.45.4-.45.7,0,.15.05.31.17.4l-.66,1.5.04.07h.79l.66-1.53s.02-.04.02-.07c0-.03-.01-.06-.04-.08-.1-.07-.17-.2-.17-.33m-2.38,0c0-.2.14-.37.33-.41,0,0,.05,0,.05-.14,0-.1-.04-.12-.04-.12h-.71c-.22,0-.45.4-.45.7,0,.15.05.31.17.4l-.66,1.5.05.07h.79l.66-1.53s.02-.04.02-.07c0-.03-.02-.06-.04-.08-.1-.07-.16-.2-.16-.33m-2.38,0c0-.2.14-.37.33-.41,0,0,.05,0,.05-.14,0-.1-.04-.12-.04-.12h-.71c-.22,0-.45.4-.45.7,0,.15.05.31.17.4l-.66,1.5.05.07h.79l.66-1.53s.02-.04.02-.07c0-.03-.02-.06-.03-.08-.1-.07-.17-.2-.17-.33m-2.38,0c0-.2.14-.37.33-.41,0,0,.05,0,.05-.14,0-.1-.04-.12-.04-.12h-.71c-.22,0-.45.4-.45.7,0,.15.05.31.17.4l-.66,1.5.05.07h.79l.66-1.53s.02-.04.02-.07c0-.03-.02-.06-.04-.08-.1-.07-.16-.2-.16-.33m-15.72,0c0-.2.14-.37.33-.41,0,0,.05,0,.05-.14,0-.1-.04-.12-.04-.12h-.71c-.22,0-.45.4-.45.7,0,.15.05.31.17.4l-.66,1.5.05.07h.79l.66-1.53s.02-.04.02-.07c0-.03-.01-.06-.04-.08-.1-.07-.17-.2-.17-.33m13.34,0c0-.2.14-.37.33-.41,0,0,.05,0,.05-.14,0-.1-.04-.12-.04-.12h-.72c-.17-.54-.33-1.09-.48-1.64-.18-.67-.32-1.25-.41-1.81-.63-.94-1.4-1.6-1.42-2.85-.02-.99.57-1.64,1.15-2.33.3-.35.25-.38.38-.89,0,0,.23-.85.37-1.41.57-2.24,1.53-3.3,2.19-5.52.55-1.85.92-2.91,1.06-4.84.08-1.12.08-1.83-.03-2.85l-.04-.11c-.48-.02-.52.47-.54.83-.16,2.68-1.17,3.61-2.83,5.37-.48.5-1.51.97-2.12,1.29-2.73,1.4-4.71,2.98-5.89,5.26-.2.43-.35.98-.46,1.56-.09.44-.13.8-.15,1.15-.27.56.88,1.21,1.02,2.46.14,1.17-.15,1.71-.37,2.15.04.08,1.43,2.44,2.86,3.76.24.22.47.41.7.58-.12.14-.2.36-.2.55,0,.15.05.31.17.4l-.66,1.5.05.07h.79l.66-1.53s.02-.04.02-.07c0-.03-.01-.06-.03-.08-.1-.07-.17-.2-.17-.33,0-.18.11-.33.26-.39.12.07.2.2.2.35,0,.05-.01.11-.02.15h1.12c.01.13.07.25.16.32l-.14.31-.67,1.26h.19s.79.01.79.01l.66-1.53s.02-.04.02-.07c0-.03-.02-.06-.04-.08-.1-.07-.17-.2-.17-.33,0-.19.12-.34.29-.4.13.07.22.2.22.35,0,.06-.01.11-.03.15h1.09c.02.13.07.25.16.32l-.13.3-.68,1.26h.19s.79.01.79.01l.66-1.53s.02-.04.02-.07c0-.03-.01-.06-.03-.08-.1-.07-.17-.2-.17-.33m-6.99,0c0-.2.14-.37.33-.41,0,0,.05,0,.05-.14,0-.1-.04-.12-.04-.12h-.71c-.21,0-.45.4-.45.7,0,.15.05.31.17.4l-.66,1.5.05.07h.79l.66-1.53s.02-.04.02-.07c0-.03-.01-.06-.03-.08-.1-.07-.17-.2-.17-.33" style="fill: #93c4ec;"/>
  <path d="m1.19,46.73c0-.63.05-1.1-.56-1.1-.22,0-.6.08-.6-.3,0-.25.22-.3.38-.36.97-.38,2.82-.41,3.87-.41.67,0,1.63.09,2.24.33.81.32,1.46,1.1,1.46,2.12,0,1.6-1.37,2.02-2.49,2.11,1.49.08,2.84.75,2.84,2.73,0,.97-.37,1.74-1.08,2.25-.71.5-1.46.53-2.26.53-1.31,0-2.6-.06-3.88-.06-.27,0-.52.06-.79.06-.19,0-.33-.1-.33-.33,0-.25.2-.3.37-.33.89-.17.82-.5.82-1.52v-5.73Zm2.26,1.47c0,.67,0,.64.51.64,1.05-.01,1.75-.58,1.75-1.91,0-1-.6-1.77-1.48-1.77-.22,0-.55.05-.71.24-.12.14-.07.53-.07.75v2.05Zm0,4.18c0,.91.14,1.69,1.04,1.69,1.11,0,1.57-1,1.57-2.16,0-.85-.32-1.72-.97-2.15-.4-.27-.82-.28-1.27-.28-.36,0-.37.22-.37.64v2.25Z" style="fill: #93c4ec;"/>
  <path d="m11.9,48.43c.23,0,.81-1.19,1.93-1.19.57,0,1.16.49,1.16,1.19s-.52,1.27-1.13,1.27c-.87,0-.97-.91-1.38-.91-.68,0-.57,1.63-.57,2.11v1.55c0,.36-.04.92.05,1.25.07.24.49.22.74.27.15.03.33.12.33.33,0,.27-.24.3-.42.3-.57,0-1.15-.03-1.72-.03s-1.12.03-1.69.03c-.18,0-.41-.03-.41-.3,0-.2.16-.3.33-.33.19-.03.61-.05.68-.27.1-.33.1-.89.1-1.25v-2.3c0-.66.04-1.02-.6-1.11-.19-.02-.41,0-.41-.27,0-.28.44-.33.59-.38.59-.17,1.34-.55,1.76-1.06.08-.11.21-.28.49-.28.22,0,.19.41.19.57v.81Z" style="fill: #93c4ec;"/>
  <path d="m18.19,52.46c0,.36-.04.92.05,1.25.07.24.49.22.74.27.15.03.33.12.33.33,0,.27-.25.3-.42.3-.57,0-1.15-.03-1.72-.03s-1.12.03-1.69.03c-.18,0-.41-.03-.41-.3,0-.2.16-.3.33-.33.19-.03.62-.05.68-.27.1-.33.1-.89.1-1.25v-2.3c0-.66.04-1.02-.6-1.11-.19-.02-.41,0-.41-.27,0-.28.44-.33.59-.38.59-.17,1.34-.55,1.76-1.07.08-.11.2-.28.49-.28.22,0,.19.41.19.56v4.84Zm-2.24-7.14c0-.75.61-1.21,1.22-1.21s1.2.42,1.2,1.19-.57,1.28-1.23,1.28-1.19-.48-1.19-1.27" style="fill: #93c4ec;"/>
  <path d="m19.97,53.65c-.1-.11-.33-.31-.33-.49,0-.3.45-.42.63-.5l.55-.25s.4-.14.4-.22c0-.03-.15-.11-.18-.11-.87-.35-1.53-1.14-1.53-2.19,0-.85.41-1.52,1.01-2,.63-.48,1.41-.64,2.16-.64.6,0,1.17.09,1.72.36.29.14.41.2.72.2h.81c.41-.05.55-.05.55.48,0,.42-.1.33-.45.33h-.48s-.07.02-.07.06c0,0,.34.47.34,1.18,0,1.61-1.45,2.5-2.72,2.54h-.71c-.15.01-.77.01-.77.33,0,.16.23.33.36.38.23.09.56.08.81.08h1.04c.53,0,1.17.02,1.67.25.63.3,1.02.94,1.02,1.71,0,1-.66,1.77-1.39,2.24-.77.5-1.68.66-2.56.66-1.04,0-3.29-.26-3.29-1.88,0-1.25,1.53-1.28,1.53-1.58,0-.09-.23-.28-.27-.33l-.56-.6Zm4.78,2.52c0-.94-1.09-.83-1.65-.83-.6,0-1.38-.17-1.76-.39-.05,0-.22.09-.26.14-.15.17-.24.44-.24.69,0,1.33,1.16,1.68,2.11,1.68.67,0,1.82-.3,1.82-1.28m-.98-6.12c0-.86-.12-2.28-1.12-2.28-.93,0-1.07,1-1.07,1.86s.16,2.24,1.16,2.24c.93,0,1.03-1,1.03-1.82" style="fill: #93c4ec;"/>
  <path d="m34.45,52.51c0,.27-.04.92.09,1.14.16.26.44.28.68.33.16.03.33.13.33.35,0,.27-.23.28-.41.28-.66,0-1.29-.03-1.94-.03-.49,0-1.01.03-1.52.03-.17,0-.33-.05-.33-.28,0-.2.12-.3.27-.35.16-.05.41-.09.53-.27.2-.3.15-.89.15-1.21v-2.25c0-.97,0-1.96-1.12-1.96-.37,0-.83.19-1.11.47-.25.26-.22.48-.22.84v2.9c0,.22-.04.85.07,1.08.1.2.24.33.44.39.19.06.45.05.45.35,0,.22-.16.28-.33.28-.27,0-.52-.03-.79-.03-.9,0-1.78.03-2.66.03-.18,0-.42-.02-.42-.28,0-.22.18-.31.33-.35.21-.05.49-.06.64-.27.22-.3.15-.88.15-1.21v-6.51c0-.86.04-1.02-.72-1.14-.11-.02-.27-.06-.27-.24,0-.3.4-.33.59-.36.63-.09,1.2-.31,1.8-.56.14-.06.36-.17.51-.17.3,0,.23.53.23.75v3.76c0,.08.02.16.08.16.19,0,1.04-.94,2.23-.94.63,0,1.35.27,1.79.8.48.56.48,1.36.48,2.07v2.4Z" style="fill: #93c4ec;"/>
  <path d="m38.38,51.4c0,.58-.06,2.11.67,2.11.45,0,.75-.46.96-.46.1,0,.16.09.16.22,0,.2-.27.52-.38.64-.46.5-1.15.8-1.78.8-.45,0-.98-.24-1.26-.66-.32-.49-.4-1.16-.4-1.74v-3.27c0-.13-.01-.53-.04-.66-.03-.16-.19-.2-.33-.2-.18,0-.61.08-.61-.17,0-.23.29-.36.44-.42.74-.34,1.42-.91,1.82-1.71.1-.2.23-.52.46-.52.29,0,.23.36.23.58v1.08c0,.44.08.42.44.42h.71c.29,0,.49-.08.49.31,0,.44-.1.42-.46.42h-.67c-.45,0-.45-.02-.45.61v2.6Z" style="fill: #93c4ec;"/>
  <path d="m40.16,50.99c0-2.29,1.98-3.74,3.87-3.74.92,0,1.82.28,2.54.91.75.64,1.26,1.64,1.26,2.71,0,2.37-1.93,3.85-3.91,3.85s-3.76-1.38-3.76-3.73m5.48.25c0-.72-.14-1.64-.42-2.29-.25-.56-.72-1.17-1.33-1.17-1.18,0-1.53,1.74-1.53,2.79,0,1.16.44,3.62,1.8,3.62,1.2,0,1.48-1.91,1.48-2.94" style="fill: #93c4ec;"/>
  <path d="m51.49,48.31c.22,0,.9-1.06,2.24-1.06.62,0,1.23.19,1.72.64.58.53.56,1.19.56,1.96v2.61c0,.38-.06.96.14,1.25.14.2.44.22.64.27.15.03.33.12.33.34,0,.27-.25.28-.42.28-.49,0-.96-.03-1.45-.03-.63,0-1.26.03-1.89.03-.15,0-.32-.05-.32-.28,0-.2.12-.3.27-.34.21-.06.44-.11.57-.35.14-.23.1-.88.1-1.17v-2.3c0-.41-.04-1-.23-1.36-.19-.36-.56-.57-.93-.57s-.75.19-1.03.46c-.37.36-.31.69-.31,1.22v2.55c0,.3-.04.94.1,1.17.14.24.37.28.57.35.15.05.27.14.27.34,0,.23-.16.28-.31.28-.63,0-1.26-.03-1.89-.03-.49,0-.96.03-1.45.03-.18,0-.42-.02-.42-.28,0-.22.18-.31.33-.34.21-.05.51-.06.64-.27.19-.3.14-.88.14-1.25v-2.3c0-.66.04-1.02-.6-1.11-.19-.02-.41,0-.41-.27,0-.28.44-.33.59-.38.59-.17,1.34-.55,1.76-1.06.08-.11.21-.28.49-.28.22,0,.19.41.19.57v.69Z" style="fill: #93c4ec;"/>
  <path d="m69.47,53.01c.38.52.6.85,1.19.96.19.03.44.06.44.34,0,.31-.3.33-.51.33-.48,0-.98-.09-1.48-.09-.3,0-.6.02-.92.03-.37.02-.44-.11-.65-.42l-.48-.66s-.22-.33-.29-.33c-.05,0-.11.08-.15.11-.89.97-1.59,1.53-2.86,1.53-1.41,0-2.73-.97-2.73-2.71,0-1.63,1.22-2.29,2.36-2.79.08-.03.27-.11.27-.22,0-.21-.93-1.16-.93-2.3,0-.74.35-1.3.89-1.69.56-.41,1.33-.53,1.97-.53,1.08,0,2.82.27,2.82,1.91,0,.67-.29,1.08-.79,1.43-.34.23-.85.45-1.24.55-.05.01-.16.06-.16.14,0,.06.18.28.2.31l1.34,1.76s.11.14.16.14c.12,0,.63-.89.63-1.17s-.34-.31-.52-.34c-.18-.03-.46-.02-.46-.32,0-.33.34-.3.55-.3h2.43c.16,0,.4.03.4.28,0,.28-.24.31-.44.33-.44.08-.58.11-.93.44-.16.16-1.22,1.44-1.22,1.67,0,.13.18.33.23.41l.87,1.2Zm-5.3-3.24c-.04-.06-.07-.11-.14-.11-.11,0-.38.28-.46.38-.26.28-.41.74-.41,1.16,0,1.17.83,2.19,1.87,2.19.41,0,.73-.14,1.07-.39.07-.06.27-.22.27-.34,0-.08-.15-.23-.18-.28l-2.02-2.6Zm2.1-1.97c.27-.3.35-.67.35-1.08,0-.71-.41-1.6-1.09-1.6-.46,0-.77.38-.77.91,0,.66.52,1.33.89,1.83.04.05.12.19.19.19.14,0,.34-.16.42-.25" style="fill: #93c4ec;"/>
  <path d="m81.37,49.05c.46,0,.45.02.45-.57v-1.51c0-.96.08-1.36-.79-1.54-.16-.03-.44-.05-.44-.31,0-.25.14-.3.33-.3.71,0,1.39.06,2.11.06.66,0,1.31-.06,1.95-.06.19,0,.34.05.34.3s-.22.28-.38.31c-.93.17-.86.49-.86,1.54v5.56c0,.92-.06,1.3.8,1.46.18.03.44.08.44.36,0,.23-.15.29-.33.29-.71,0-1.4-.06-2.11-.06-.66,0-1.31.06-1.97.06-.19,0-.33-.06-.33-.29,0-.25.21-.33.37-.36.9-.17.86-.44.86-1.46v-2.4c-.02-.42-.04-.38-.41-.38h-2.43c-.57,0-.53-.06-.53.58v2.19c0,.92-.05,1.3.81,1.46.18.03.44.08.44.36,0,.23-.15.29-.33.29-.71,0-1.39-.06-2.1-.06-.66,0-1.31.06-1.97.06-.19,0-.33-.06-.33-.29,0-.25.21-.33.37-.36.9-.17.86-.44.86-1.46v-5.56c0-.96.08-1.36-.79-1.54-.16-.03-.44-.05-.44-.31,0-.25.14-.3.33-.3.71,0,1.4.06,2.1.06.66,0,1.31-.06,1.96-.06.19,0,.34.05.34.3s-.22.28-.38.31c-.93.17-.86.49-.86,1.54v1.51c0,.57.01.57.49.57h2.43Z" style="fill: #93c4ec;"/>
  <path d="m85.67,50.99c0-2.29,1.98-3.74,3.87-3.74.91,0,1.82.28,2.54.91.75.64,1.26,1.64,1.26,2.71,0,2.37-1.93,3.85-3.91,3.85s-3.76-1.38-3.76-3.73m5.48.25c0-.72-.14-1.64-.43-2.29-.24-.56-.72-1.17-1.32-1.17-1.18,0-1.53,1.74-1.53,2.79,0,1.16.44,3.62,1.8,3.62,1.2,0,1.48-1.91,1.48-2.94" style="fill: #93c4ec;"/>
  <path d="m98.89,49.67c.12-.31.3-.77.3-1.1,0-.41-.33-.5-.61-.55-.18-.03-.45,0-.45-.3,0-.22.17-.31.34-.31.41,0,.81.03,1.22.03s.81-.03,1.2-.03c.18,0,.38.03.38.28,0,.21-.17.3-.32.33-.55.11-.66.05-.93.7l-2.24,5.35c-.18.42-.22.63-.66.63-.4,0-.41-.22-.56-.6l-2.04-4.96c-.08-.17-.27-.69-.4-.85-.14-.19-.29-.24-.48-.28-.19-.05-.43-.02-.43-.3,0-.3.26-.31.46-.31.52,0,1.07.03,1.61.03.6,0,1.2-.03,1.79-.03.18,0,.44,0,.44.28,0,.3-.3.31-.49.33-.19.02-.44.09-.44.36,0,.16.11.42.16.56l.94,2.51c.03.08.15.45.26.45.08,0,.19-.34.2-.41l.73-1.83Z" style="fill: #93c4ec;"/>
  <path d="m103.78,50.22c-.34,0-.48-.05-.48.39,0,1.52.89,3.02,2.36,3.02,1.04,0,1.48-.81,1.8-.81.11,0,.21.09.21.23,0,.31-.51.74-.71.88-.67.51-1.45.78-2.27.78-1.93,0-3.58-1.61-3.58-3.84s1.85-3.63,3.72-3.63c.71,0,1.49.23,2.06.73.47.39.85.97.85,1.65,0,.58-.3.59-.77.59h-3.2Zm1.54-.67c.37-.09.5-.39.5-.78,0-.58-.37-.99-.89-.99-.41,0-.85.22-1.12.56-.18.25-.38.72-.38,1.05,0,.28.24.25.45.25.37,0,1.09,0,1.44-.09" style="fill: #93c4ec;"/>
  <path d="m23.21,67.32c-.03.52-.01.72-.44,1-.77.53-1.74.72-2.62.72-1.2,0-2.61-.31-3.6-1.16-1.04-.89-1.74-2.38-1.74-3.88s.68-2.96,1.76-3.88c1.07-.89,2.53-1.32,3.84-1.32.64,0,1.42.12,2.05.33.37.12.37.19.44.63l.11.8c.03.16.05.3.05.45,0,.17-.11.27-.26.27-.63,0-.67-1.86-2.51-1.86-.9,0-1.74.58-2.26,1.41-.53.86-.75,2-.75,3.04s.21,2.15.68,3.01c.52.92,1.34,1.57,2.32,1.57.53,0,1.02-.22,1.44-.6.41-.39.65-.91.9-1.44.07-.17.16-.33.34-.33.3,0,.29.36.27.6l-.04.66Z" style="fill: #93c4ec;"/>
  <path d="m26.9,66.7c0,.36-.04.92.05,1.25.07.24.49.22.74.27.15.03.33.13.33.33,0,.27-.25.3-.42.3-.57,0-1.15-.03-1.72-.03s-1.12.03-1.69.03c-.18,0-.41-.03-.41-.3,0-.2.16-.3.33-.33.19-.03.62-.05.68-.27.09-.33.09-.89.09-1.25v-2.3c0-.66.04-1.02-.6-1.11-.19-.02-.41,0-.41-.27,0-.28.44-.33.59-.38.59-.17,1.34-.55,1.76-1.06.08-.11.2-.28.49-.28.22,0,.19.41.19.56v4.84Zm-2.24-7.14c0-.75.61-1.21,1.22-1.21s1.2.42,1.2,1.19-.57,1.28-1.23,1.28-1.19-.48-1.19-1.27" style="fill: #93c4ec;"/>
  <path d="m30.82,65.63c0,.58-.06,2.11.67,2.11.45,0,.75-.45.96-.45.1,0,.17.09.17.22,0,.2-.27.51-.38.64-.46.5-1.15.8-1.78.8-.45,0-.98-.23-1.26-.66-.31-.49-.4-1.16-.4-1.74v-3.27c0-.12-.01-.53-.04-.66-.03-.16-.19-.21-.33-.21-.18,0-.61.08-.61-.17,0-.23.29-.36.44-.42.74-.34,1.42-.91,1.82-1.71.1-.2.23-.52.46-.52.29,0,.23.36.23.58v1.08c0,.44.08.42.44.42h.71c.29,0,.49-.08.49.32,0,.44-.1.42-.47.42h-.67c-.45,0-.45-.01-.45.61v2.6Z" style="fill: #93c4ec;"/>
  <path d="m38.23,63.38c.07-.19.16-.41.16-.63,0-.36-.35-.47-.61-.49-.2-.02-.52-.03-.52-.36,0-.25.27-.25.44-.25.4,0,.78.03,1.18.03s.78-.03,1.18-.03c.18,0,.35,0,.35.25,0,.27-.19.33-.38.36-.34.06-.45.03-.68.36-.23.31-.49.98-.64,1.36l-2.06,5.01-.74,2.04c-.27.92-.22,1.16-1.12,1.16-.6,0-1.2-.05-1.2-.88,0-.25.05-.56.18-.77.21-.31.52-.26.81-.25.41.02.74.11,1.02-.28.12-.17.29-.51.29-.75,0-.25-.16-.63-.26-.86l-2.02-4.68c-.17-.34-.38-.86-.6-1.16-.18-.25-.3-.25-.56-.3-.16-.03-.39-.08-.39-.34s.26-.27.46-.27c.6,0,1.23.03,1.83.03.52,0,1.07-.03,1.6-.03.18,0,.49,0,.49.27,0,.24-.19.3-.36.34-.18.05-.53.06-.53.38,0,.19.15.53.22.69l1.01,2.41c.04.08.18.49.29.49.14,0,.26-.39.29-.5l.9-2.35Z" style="fill: #93c4ec;"/>
  <path d="m52.39,67.32c-.03.52-.01.72-.44,1-.76.53-1.73.72-2.62.72-1.2,0-2.61-.31-3.59-1.16-1.04-.89-1.74-2.38-1.74-3.88s.68-2.96,1.76-3.88c1.07-.89,2.53-1.32,3.84-1.32.64,0,1.42.12,2.05.33.37.12.37.19.44.63l.11.8c.03.16.06.3.06.45,0,.17-.11.27-.26.27-.63,0-.67-1.86-2.51-1.86-.9,0-1.74.58-2.26,1.41-.53.86-.75,2-.75,3.04s.21,2.15.68,3.01c.52.92,1.34,1.57,2.32,1.57.53,0,1.02-.22,1.43-.6.41-.39.65-.91.9-1.44.07-.17.16-.33.34-.33.3,0,.29.36.27.6l-.04.66Z" style="fill: #93c4ec;"/>
  <path d="m52.91,65.23c0-2.29,1.98-3.74,3.87-3.74.91,0,1.82.28,2.54.91.75.64,1.26,1.64,1.26,2.71,0,2.37-1.93,3.85-3.91,3.85s-3.76-1.38-3.76-3.72m5.48.25c0-.72-.14-1.64-.42-2.29-.25-.56-.72-1.17-1.33-1.17-1.18,0-1.53,1.74-1.53,2.79,0,1.16.44,3.62,1.8,3.62,1.2,0,1.48-1.91,1.48-2.94" style="fill: #93c4ec;"/>
  <path d="m68.12,67.18c-.01.41.23.5.61.55.14.01.26.06.26.25,0,.27-.46.34-.63.38l-1.42.47c-.14.05-.42.19-.57.19-.24,0-.16-.41-.16-.58,0-.1.05-.57-.12-.57-.08,0-.21.11-.26.16-.62.52-1.23.92-2.01.92-.55,0-1.19-.25-1.54-.75-.38-.55-.44-1.27-.44-1.94v-2.51c0-.28.03-.91-.12-1.17-.15-.27-.42-.28-.68-.35-.15-.03-.32-.11-.32-.33,0-.27.23-.25.41-.25.42,0,.83.03,1.26.03s.83-.03,1.26-.03c.18,0,.22.03.22.25v4.21c0,.36.04.91.21,1.22.16.31.49.49.81.49.35,0,.78-.25,1.02-.53.25-.28.21-.58.21-.95v-2.57c0-.3.04-.92-.11-1.19-.15-.25-.42-.3-.68-.35-.15-.03-.31-.11-.31-.31,0-.28.23-.27.41-.27.43,0,.85.03,1.27.03s.85-.03,1.27-.03c.25,0,.18.31.18.53v5Z" style="fill: #93c4ec;"/>
  <path d="m72.37,62.55c.22,0,.9-1.06,2.24-1.06.61,0,1.23.19,1.72.64.57.53.56,1.19.56,1.96v2.61c0,.38-.05.96.14,1.25.14.2.44.22.64.27.15.03.33.13.33.34,0,.27-.24.28-.42.28-.49,0-.96-.03-1.45-.03-.63,0-1.26.03-1.89.03-.15,0-.32-.05-.32-.28,0-.2.12-.3.27-.34.21-.06.44-.11.57-.35.14-.23.1-.88.1-1.17v-2.3c0-.41-.04-1-.23-1.36-.19-.36-.56-.56-.93-.56s-.75.19-1.02.46c-.37.36-.31.69-.31,1.22v2.55c0,.3-.04.94.1,1.17.14.24.37.28.57.35.15.05.27.14.27.34,0,.24-.16.28-.31.28-.63,0-1.26-.03-1.89-.03-.49,0-.96.03-1.45.03-.18,0-.42-.01-.42-.28,0-.22.18-.31.33-.34.2-.05.51-.06.64-.27.19-.3.14-.88.14-1.25v-2.3c0-.66.04-1.02-.6-1.11-.19-.02-.41,0-.41-.26,0-.28.44-.33.59-.38.59-.17,1.34-.55,1.76-1.06.08-.11.2-.28.49-.28.22,0,.19.41.19.56v.69Z" style="fill: #93c4ec;"/>
  <path d="m81.92,62.06c-.41,0-.85.36-1.09.69-.39.52-.59,1.27-.59,1.94,0,1.6.97,3.19,2.5,3.19,1,0,1.3-.58,1.56-.58.1,0,.17.11.17.19,0,.36-.4.64-.61.81-.63.44-1.37.64-2.09.64-2.01,0-3.65-1.42-3.65-3.76s2.26-3.71,4.16-3.71c.53,0,1.2.13,1.67.42.29.16.4.31.4.66,0,.38-.12,1.43-.57,1.43s-.64-.53-.82-.88c-.25-.47-.45-1.05-1.01-1.05" style="fill: #93c4ec;"/>
  <path d="m88.06,66.7c0,.36-.04.92.05,1.25.07.24.49.22.74.27.15.03.33.13.33.33,0,.27-.24.3-.42.3-.57,0-1.15-.03-1.72-.03s-1.12.03-1.69.03c-.18,0-.41-.03-.41-.3,0-.2.16-.3.33-.33.19-.03.62-.05.68-.27.1-.33.1-.89.1-1.25v-2.3c0-.66.04-1.02-.6-1.11-.19-.02-.41,0-.41-.27,0-.28.44-.33.59-.38.59-.17,1.34-.55,1.76-1.06.08-.11.21-.28.49-.28.22,0,.19.41.19.56v4.84Zm-2.24-7.14c0-.75.61-1.21,1.22-1.21s1.2.42,1.2,1.19-.57,1.28-1.23,1.28-1.19-.48-1.19-1.27" style="fill: #93c4ec;"/>
  <path d="m92.43,67.53s0,.58.75.69c.18.03.44.08.44.36,0,.24-.14.27-.32.27-.66,0-1.29-.03-1.91-.03-.66,0-1.31.03-1.97.03-.19,0-.33-.03-.33-.27,0-.28.2-.33.37-.36.83-.11.83-.64.83-.69v-7.3c0-.86.04-1.02-.72-1.14-.11-.02-.27-.06-.27-.23,0-.3.4-.33.59-.36.63-.09,1.2-.31,1.8-.56.14-.06.36-.17.51-.17.3,0,.23.53.23.75v9.02Z" style="fill: #93c4ec;"/>
</svg>