<?xml version="1.0" encoding="UTF-8"?>
<svg id="Layer_1" data-name="Layer 1" xmlns="http://www.w3.org/2000/svg" width="86.26" height="8.42" viewBox="0 0 86.26 8.42">
  <path d="m85.28,7.54h.17c.17,0,.23-.05.23-.15,0-.09-.04-.14-.2-.14h-.19v.29Zm0,.52h-.14v-.92h.35c.22,0,.33.08.33.26,0,.17-.1.24-.24.25l.26.41h-.15l-.25-.4h-.16v.4Zm.17-1.13c-.37,0-.66.29-.66.67s.29.67.66.67.65-.28.65-.67-.29-.67-.65-.67m0-.13c.44,0,.81.34.81.8s-.37.8-.81.8-.82-.34-.82-.8.37-.8.82-.8M41.28.26h-7.27l-2.34,6.44c-.3.87.09,1.58.86,1.58h1.38s2.34-6.4,2.34-6.4h3.06c.36,0,.61.32.42.69l-.44,1.09c-.23.4-.6.67-.98.67h-2.46l2.77,3.93h2.96l-2.07-2.71c.37-.08.68-.18,1.05-.38.61-.32,1.16-.68,1.52-1.51l.56-1.5c.34-1.01-.27-1.92-1.37-1.92m15.4,4.7l.52-1.33c.32-.83.88-1.9,2.7-1.9h.11c2.05,0,2.04.99,1.72,1.9l-.53,1.33c-.33.77-.79,1.84-2.81,1.84h-.06c-1.72,0-1.99-1.03-1.66-1.84m.06,3.39h2.9c2.41,0,3.56-1.31,4.21-2.99l.63-1.75c.58-1.65-.52-3.34-2.71-3.4h0s-.11,0-.11,0h-2.89c-2.04,0-3.63,1.33-4.23,3.01l-.68,1.87c-.51,1.33.69,3.27,2.88,3.27m-11.21-3.39l.52-1.33c.32-.83.88-1.9,2.7-1.9h.11c2.05,0,2.04.99,1.72,1.9l-.53,1.33c-.33.77-.79,1.84-2.81,1.84h-.06c-1.72,0-1.99-1.03-1.65-1.84m.06,3.39h2.9c2.41,0,3.56-1.31,4.21-2.99l.6-1.68c.58-1.65-.48-3.41-2.68-3.48h0s-.11,0-.11,0h-2.89c-2.05,0-3.63,1.33-4.23,3.01l-.68,1.87c-.51,1.33.69,3.27,2.88,3.27m25.48-.08h3.07l-2.95-4.19,5.64-3.84h-3.22l-5.38,3.84,2.84,4.19Zm-2.05-6.36c.33-.92-.04-1.66-.83-1.66h-1.37s-2.3,6.36-2.3,6.36c-.33.92.04,1.67.83,1.67h1.39s2.29-6.36,2.29-6.36ZM23.78,6.65l1.69-4.78h3.08c.36,0,.44.52.32.89,0,0,0,0,0,0h0s0,0,0,0c-.14.38-.61.78-.98.78h-2.54s.97,1.35,1,1.37h.74s.33,0,.33,0c.37,0,.57.51.41.95-.15.44-.61.8-.98.8h-3.06ZM30.54.27h-.57s0,0,0,0h-6.72s-2.28,6.43-2.28,6.43c-.3.86.09,1.57.88,1.57h4.69s0,0,0,0h1.4c1,0,2.07-.94,2.5-2.03l.19-.54c.3-.8-.11-1.56-.91-1.58.78-.02,1.62-.71,1.97-1.57l.16-.47c.35-1-.22-1.82-1.34-1.82m53.44-.09h-2.1s0,0,0,0h-2.54c-1.12,0-2.14.49-2.64,1.86l-.5,1.38c-.3.9.14,1.58.93,1.58h.89s2.39,0,2.39,0h.55c.58,0,.61.28.46.6,0,0-.08.21-.2.46-.21.45-.3.62-.86.62h-.5s-4.56,0-4.56,0c-.37,1.2.12,1.62.96,1.62h2.46s2.17-.01,2.17-.01h0s.51,0,.51,0c1.42,0,2.17-.66,2.62-1.86l.51-1.38c.29-.9-.14-1.58-.93-1.58h-.97s-1.78,0-1.78,0h0s-1.17,0-1.17,0c-.59,0-.7-.25-.51-.71.09-.22.13-.33.21-.48.18-.33.31-.47.87-.47h1.14s0,0,0,0h1.8s2.18,0,2.18,0h.01c.37-1.03-.09-1.63-1.42-1.63M.05,6.04s-.49.9,1.75,1.69c2.46.86,3.12.67,3.12.67.27-.06.51-.14.7-.27,5.59-3.72,12.08-4.08,13.75-4.23.73-.07,1.81-.76-5.07-2.64C9.91.06,5.33,0,5.33,0c0,0,4.96,1,7.1,2.37.47.3,1.55.98-2.87,1.36C4.39,4.18,1.12,5.12.05,6.04"/>
</svg>