<?xml version="1.0" encoding="UTF-8"?>
<svg id="Layer_1" data-name="Layer 1" xmlns="http://www.w3.org/2000/svg" width="336" height="280" viewBox="0 0 336 280">
  <rect width="336" height="280" fill="none"/>
  <g>
    <path d="m258.49,87.34c0-8.85-7.17-16.02-16.02-16.02-4.71,0-8.96,2.04-11.89,5.28-5.98-2.39-13.18-3.63-21.34-3.63-1.92,0-3.87.07-5.86.21-.29-.58-.58-1.15-.87-1.72-9.08-17.56-21.37-27.23-34.62-27.23s-25.55,9.67-34.62,27.23c-.29.57-.58,1.14-.87,1.72-2-.14-3.96-.21-5.87-.21-8.09,0-15.24,1.23-21.17,3.56-2.94-3.2-7.15-5.21-11.83-5.21-8.85,0-16.02,7.17-16.02,16.02,0,6.12,3.41,11.42,8.44,14.13-.71,9.37,2.65,20.2,9.93,31.55.35.55.7,1.08,1.06,1.61-.36.53-.71,1.07-1.06,1.6-10.67,16.64-12.9,32.12-6.28,43.6,6.13,10.61,19.25,16.45,36.94,16.45,1.92,0,3.88-.07,5.87-.21.29.58.58,1.16.87,1.73,5.41,10.48,11.97,18.14,19.21,22.63.35,8.53,7.38,15.34,16,15.34s16.02-7.17,16.02-16.02v-.08c6.74-4.57,12.89-11.97,18.01-21.86.29-.57.58-1.15.87-1.73,2,.14,3.95.21,5.86.21,17.69,0,30.81-5.84,36.94-16.46,6.63-11.47,4.4-26.96-6.27-43.59-.35-.53-.7-1.07-1.06-1.6.36-.53.71-1.07,1.06-1.61,7.26-11.32,10.61-22.1,9.91-31.45,5.14-2.66,8.66-8.03,8.66-14.23Zm-51.68,15.16c-4.68-3.39-9.64-6.61-14.82-9.6-5.15-2.97-10.42-5.65-15.71-8,8.03-2.65,15.93-4.45,23.38-5.29,3.02,6.92,5.42,14.63,7.15,22.89Zm1.54,8.76c1.09,7.5,1.65,15.35,1.65,23.37s-.56,15.86-1.65,23.36c-5.94,4.7-12.46,9.1-19.4,13.11-6.91,3.98-13.99,7.41-21.06,10.22-7.07-2.81-14.15-6.23-21.06-10.22-6.94-4.01-13.45-8.4-19.4-13.11-1.09-7.5-1.66-15.35-1.66-23.36s.57-15.87,1.66-23.37c5.94-4.69,12.46-9.1,19.4-13.11,6.91-3.99,13.99-7.42,21.06-10.22,7.07,2.8,14.15,6.22,21.06,10.22,6.94,4.01,13.45,8.42,19.4,13.11Zm-40.46-60.97c10.77,0,21.06,8.35,29.01,23.54-9.26,1.25-19.1,3.83-29,7.6-9.9-3.76-19.76-6.35-29.03-7.6,7.95-15.2,18.24-23.54,29.02-23.54Zm-31.77,29.31c7.45.85,15.35,2.65,23.39,5.29-5.28,2.34-10.55,5.03-15.71,8.01-5.19,2.99-10.15,6.2-14.82,9.59,1.72-8.27,4.12-15.97,7.14-22.89Zm-44.18,23.68c.52.06,1.06.08,1.59.08,8.85,0,16.02-7.17,16.02-16.03,0-1.95-.35-3.82-.99-5.54,5.04-1.81,11.1-2.76,17.97-2.76,1.06,0,2.12.02,3.22.07-3.59,8.68-6.27,18.46-7.95,28.91-8.2,6.69-15.32,13.9-21.06,21.34-6.04-9.51-9.01-18.42-8.8-26.06Zm28.67,48.97c-6.3-5.61-11.78-11.55-16.26-17.62,4.47-6.07,9.96-12.02,16.26-17.65-.59,5.75-.89,11.66-.89,17.65s.3,11.88.89,17.62Zm5.92,37.97c-15.43,0-26.69-4.77-31.68-13.43-5.39-9.32-3.3-22.4,5.89-36.89,5.72,7.45,12.86,14.66,21.06,21.34,1.68,10.45,4.36,20.23,7.95,28.92-1.09.05-2.16.07-3.22.07Zm2.45-23.47c4.68,3.39,9.64,6.61,14.82,9.6,5.15,2.98,10.42,5.67,15.71,8.01-8.04,2.65-15.94,4.45-23.39,5.29-3.03-6.92-5.42-14.64-7.14-22.9Zm54.12,46.42c-2.51-5.57-8.11-9.45-14.62-9.45s-12.55,4.2-14.91,10.13c-5.4-3.97-10.4-10.2-14.71-18.45,9.28-1.25,19.12-3.84,29.02-7.59,9.9,3.75,19.75,6.34,29.01,7.59-4.06,7.78-8.75,13.77-13.8,17.76Zm16.55-23.52c-7.45-.85-15.35-2.65-23.38-5.29,5.28-2.36,10.55-5.04,15.71-8.01,5.19-3,10.15-6.21,14.82-9.6-1.73,8.27-4.12,15.99-7.15,22.9Zm41.28-12.86c-5,8.66-16.25,13.43-31.69,13.43-1.06,0-2.12-.02-3.2-.07,3.59-8.68,6.26-18.47,7.94-28.92,8.21-6.67,15.35-13.88,21.07-21.34,9.17,14.49,11.27,27.57,5.89,36.89Zm-25.77-59.82c6.3,5.64,11.79,11.59,16.28,17.66-4.49,6.07-9.98,12.01-16.28,17.63.6-5.75.91-11.64.91-17.63s-.3-11.9-.91-17.66Zm19.89,12.37c-5.73-7.45-12.86-14.66-21.07-21.34-1.68-10.45-4.35-20.22-7.94-28.91,1.08-.05,2.15-.07,3.2-.07,6.98,0,13.09.98,18.17,2.84-.63,1.69-.96,3.54-.96,5.46,0,8.86,7.17,16.03,16.02,16.03.46,0,.93-.02,1.38-.06.2,7.64-2.77,16.54-8.8,26.04Z" fill="#fff"/>
    <path d="m199.22,134.64c0,17.3-14.02,31.32-31.32,31.32s-31.33-14.02-31.33-31.32,14.02-31.33,31.33-31.33,31.32,14.02,31.32,31.33Z" fill="#fff"/>
  </g>
</svg>