<?xml version="1.0" encoding="UTF-8"?>
<svg xmlns="http://www.w3.org/2000/svg" width="148.97" height="86.77" xmlns:xlink="http://www.w3.org/1999/xlink" viewBox="0 0 148.97 86.77">
  <defs>
    <linearGradient id="linear-gradient" x1="74.16" y1="2.97" x2="74.16" y2="33.49" gradientUnits="userSpaceOnUse">
      <stop offset="0" stop-color="#fff"/>
      <stop offset="1" stop-color="#000"/>
    </linearGradient>
  </defs>
  <g style="isolation: isolate;">
    <g id="China">
      <g>
        <g>
          <path d="m74.36,1.01c-23.45,0-42.46,19.01-42.46,42.46s19.01,42.45,42.46,42.45,42.45-19.01,42.45-42.45S97.81,1.01,74.36,1.01Z" style="fill: #dd2911;"/>
          <g>
            <polygon points="45.59 20.01 54.55 20.01 57.35 12.48 60.16 20.15 68.96 20.15 61.79 24.78 64.75 32.25 57.43 27.68 50.1 32.52 52.75 24.85 45.59 20.01" style="fill: #fedd19;"/>
            <polygon points="77.61 13.75 74.7 14.3 76.75 12.48 75.17 9.97 77.76 11.08 79.79 9.28 79.48 11.68 82.34 12.74 79.43 13.38 79.17 16.05 77.61 13.75" style="fill: #fedd19;"/>
            <polygon points="82.44 20.34 85.04 19.23 84.62 16.51 86.75 18.4 89.4 17.25 88.1 19.55 90.12 21.54 87.11 21.07 85.76 23.42 85.4 20.84 82.44 20.34" style="fill: #fedd19;"/>
            <polygon points="82.59 29.92 85.5 29.92 86.28 27.15 87.37 29.69 90.23 29.69 88.1 31.17 88.98 33.7 86.49 32.27 84.05 33.97 84.93 31.39 82.59 29.92" style="fill: #fedd19;"/>
            <polygon points="77.66 36.83 79.63 34.8 79.63 37.48 82.08 38.4 79.37 39.13 79.37 41.71 77.61 39.59 74.75 40.24 76.52 38.16 75.06 36 77.66 36.83" style="fill: #fedd19;"/>
          </g>
        </g>
        <path d="m101.09,18.23c0,8.43-12.06,15.26-26.93,15.26s-26.93-6.84-26.93-15.26,12.06-15.27,26.93-15.27,26.93,6.84,26.93,15.27Z" style="fill: url(#linear-gradient); mix-blend-mode: screen; opacity: .72;"/>
      </g>
    </g>
  </g>
</svg>