<?xml version="1.0" encoding="UTF-8"?>
<svg xmlns="http://www.w3.org/2000/svg" width="148.97" height="86.77" xmlns:xlink="http://www.w3.org/1999/xlink" viewBox="0 0 148.97 86.77">
  <defs>
    <linearGradient id="linear-gradient" x1="74.15" y1="2.04" x2="74.15" y2="32.99" gradientUnits="userSpaceOnUse">
      <stop offset="0" stop-color="#fff"/>
      <stop offset="1" stop-color="#000"/>
    </linearGradient>
  </defs>
  <g style="isolation: isolate;">
    <g id="India">
      <g>
        <g>
          <g>
            <path d="m74.36.41c-2.16,0-4.29.17-6.36.47h12.72c-2.08-.3-4.2-.47-6.36-.47Z" style="fill: none;"/>
            <path d="m33.74,29.19h81.23C109.77,14.36,96.67,3.25,80.72.88h-12.72c-15.95,2.36-29.05,13.48-34.26,28.31Z" style="fill: #fe9836;"/>
            <path d="m74.36,86.52c18.67,0,34.56-11.89,40.52-28.5H33.84c5.97,16.61,21.85,28.5,40.53,28.5Z" style="fill: #0d8710;"/>
            <path d="m31.31,43.47c0,5.1.89,10,2.53,14.55h81.05c1.63-4.55,2.53-9.44,2.53-14.55s-.86-9.8-2.43-14.28H33.74c-1.57,4.47-2.43,9.27-2.43,14.28Z" style="fill: #fff;"/>
          </g>
          <g>
            <g>
              <path d="m77.56,42.76c0,1.63-1.43,2.95-3.18,2.95s-3.18-1.32-3.18-2.95,1.42-2.75,3.18-2.75,3.18,1.13,3.18,2.75Z" style="fill: #060486;"/>
              <polygon points="74.25 40.29 73.81 37.01 74.35 28.2 74.89 37.01 74.48 40.29 74.25 40.29" style="fill: #060486;"/>
              <polygon points="74.97 40.35 75.46 37.08 78.43 28.69 76.5 37.33 75.19 40.4 74.97 40.35" style="fill: #060486;"/>
              <polygon points="75.65 40.58 77.05 37.54 82.29 30.16 77.98 38.03 75.85 40.69 75.65 40.58" style="fill: #060486;"/>
              <polygon points="76.26 40.97 78.47 38.38 85.63 32.54 79.23 39.09 76.42 41.13 76.26 40.97" style="fill: #060486;"/>
              <polygon points="76.72 41.49 79.59 39.52 88.13 35.6 80.12 40.39 76.83 41.67 76.72 41.49" style="fill: #060486;"/>
              <polygon points="77.02 42.09 80.33 40.86 89.67 39.07 80.61 41.82 77.08 42.29 77.02 42.09" style="fill: #060486;"/>
              <polygon points="77.15 42.76 80.69 42.37 90.21 42.91 80.68 43.37 77.15 42.97 77.15 42.76" style="fill: #060486;"/>
              <polygon points="77.09 43.41 80.62 43.87 89.68 46.64 80.34 44.84 77.02 43.62 77.09 43.41" style="fill: #060486;"/>
              <polygon points="76.83 44.06 80.11 45.37 88.05 50.27 79.56 46.23 76.71 44.24 76.83 44.06" style="fill: #060486;"/>
              <polygon points="76.41 44.61 79.2 46.66 85.49 53.31 78.43 47.37 76.25 44.76 76.41 44.61" style="fill: #060486;"/>
              <polygon points="75.86 45.03 78 47.67 82.27 55.57 77.07 48.17 75.66 45.14 75.86 45.03" style="fill: #060486;"/>
              <polygon points="75.21 45.31 76.53 48.38 78.45 57.03 75.49 48.64 74.99 45.37 75.21 45.31" style="fill: #060486;"/>
              <polygon points="74.49 45.43 74.92 48.71 74.36 57.53 73.84 48.7 74.26 45.43 74.49 45.43" style="fill: #060486;"/>
              <polygon points="73.77 45.37 73.27 48.64 70.26 57.03 72.23 48.38 73.55 45.31 73.77 45.37" style="fill: #060486;"/>
              <polygon points="73.09 45.14 71.69 48.18 66.45 55.56 70.76 47.68 72.89 45.03 73.09 45.14" style="fill: #060486;"/>
              <polygon points="72.5 44.76 70.3 47.36 63.17 53.22 69.54 46.65 72.34 44.61 72.5 44.76" style="fill: #060486;"/>
              <polygon points="72.03 44.24 69.18 46.23 60.66 50.19 68.65 45.37 71.92 44.06 72.03 44.24" style="fill: #060486;"/>
              <polygon points="71.73 43.63 68.42 44.87 59.08 46.65 68.14 43.9 71.67 43.43 71.73 43.63" style="fill: #060486;"/>
              <polygon points="71.6 42.98 68.06 43.38 58.54 42.86 68.06 42.37 71.6 42.76 71.6 42.98" style="fill: #060486;"/>
              <polygon points="71.66 42.31 68.13 41.84 59.08 39.07 68.41 40.88 71.72 42.1 71.66 42.31" style="fill: #060486;"/>
              <polygon points="71.91 41.67 68.63 40.38 60.66 35.54 69.17 39.52 72.03 41.49 71.91 41.67" style="fill: #060486;"/>
              <polygon points="72.33 41.13 69.51 39.09 63.17 32.5 70.28 38.39 72.49 40.98 72.33 41.13" style="fill: #060486;"/>
              <polygon points="72.88 40.7 70.73 38.06 66.44 30.17 71.66 37.56 73.08 40.59 72.88 40.7" style="fill: #060486;"/>
              <polygon points="73.53 40.41 72.2 37.34 70.26 28.7 73.24 37.09 73.76 40.36 73.53 40.41" style="fill: #060486;"/>
            </g>
            <path d="m74.48,25.94c-10.03,0-18.38,7.6-18.38,16.97s8.34,16.97,18.38,16.97,18.17-7.6,18.17-16.97-8.14-16.97-18.17-16.97Zm-.1,31.65c-8.89,0-15.89-6.55-15.89-14.85s7-14.48,15.89-14.48,15.89,6.17,15.89,14.48-7,14.85-15.89,14.85Z" style="fill: #060486;"/>
            <path d="m81.35,56.51c0,.42-.37.77-.84.77s-.84-.35-.84-.77.38-.77.84-.77.84.34.84.77Z" style="fill: #060486;"/>
            <path d="m77.3,57.56c0,.42-.38.77-.84.77s-.84-.35-.84-.77.37-.77.84-.77.84.35.84.77Z" style="fill: #060486;"/>
            <path d="m73.11,57.56c0,.42-.38.77-.84.77s-.84-.35-.84-.77.37-.77.84-.77.84.35.84.77Z" style="fill: #060486;"/>
            <path d="m69.04,56.54c0,.42-.37.77-.84.77s-.84-.35-.84-.77.37-.77.84-.77.84.35.84.77Z" style="fill: #060486;"/>
            <path d="m65.48,54.63c0,.42-.37.76-.84.76s-.84-.34-.84-.76.38-.77.84-.77.84.34.84.77Z" style="fill: #060486;"/>
            <path d="m62.54,51.9c0,.42-.38.77-.84.77s-.84-.34-.84-.77.38-.77.84-.77.84.34.84.77Z" style="fill: #060486;"/>
            <path d="m60.43,48.51c0,.42-.38.77-.84.77s-.84-.35-.84-.77.37-.77.84-.77.84.34.84.77Z" style="fill: #060486;"/>
            <path d="m59.33,44.79c0,.42-.38.77-.84.77s-.84-.34-.84-.77.38-.77.84-.77.84.34.84.77Z" style="fill: #060486;"/>
            <path d="m59.33,40.95c0,.42-.38.77-.84.77s-.84-.34-.84-.77.38-.77.84-.77.84.35.84.77Z" style="fill: #060486;"/>
            <path d="m60.41,37.17c0,.42-.38.77-.84.77s-.84-.35-.84-.77.37-.77.84-.77.84.34.84.77Z" style="fill: #060486;"/>
            <path d="m62.49,33.79c0,.43-.38.77-.84.77s-.83-.34-.83-.77.38-.77.83-.77.84.35.84.77Z" style="fill: #060486;"/>
            <path d="m65.43,31.07c0,.42-.38.77-.84.77s-.84-.34-.84-.77.38-.77.84-.77.84.34.84.77Z" style="fill: #060486;"/>
            <path d="m69.07,29.15c0,.43-.38.77-.84.77s-.84-.34-.84-.77.37-.77.84-.77.84.34.84.77Z" style="fill: #060486;"/>
            <path d="m73.06,28.19c0,.42-.38.77-.84.77s-.84-.35-.84-.77.37-.77.84-.77.84.35.84.77Z" style="fill: #060486;"/>
            <path d="m77.29,28.19c0,.42-.38.77-.84.77s-.84-.35-.84-.77.37-.77.84-.77.84.35.84.77Z" style="fill: #060486;"/>
            <path d="m81.31,29.15c0,.43-.38.77-.84.77s-.84-.34-.84-.77.37-.77.84-.77.84.34.84.77Z" style="fill: #060486;"/>
            <path d="m84.9,31.11c0,.42-.37.77-.84.77s-.84-.35-.84-.77.37-.77.84-.77.84.35.84.77Z" style="fill: #060486;"/>
            <path d="m87.87,33.85c0,.43-.38.77-.84.77s-.84-.34-.84-.77.37-.77.84-.77.84.34.84.77Z" style="fill: #060486;"/>
            <path d="m89.99,37.17c0,.42-.37.77-.83.77s-.84-.34-.84-.77.37-.77.84-.77.83.34.83.77Z" style="fill: #060486;"/>
            <path d="m91.05,40.92c0,.42-.38.77-.84.77s-.84-.34-.84-.77.37-.77.84-.77.84.35.84.77Z" style="fill: #060486;"/>
            <path d="m91.05,44.79c0,.42-.38.77-.84.77s-.84-.34-.84-.77.37-.77.84-.77.84.34.84.77Z" style="fill: #060486;"/>
            <path d="m90.02,48.54c0,.42-.37.77-.83.77s-.84-.35-.84-.77.38-.77.84-.77.83.35.83.77Z" style="fill: #060486;"/>
            <path d="m87.94,51.89c0,.42-.38.77-.84.77s-.84-.35-.84-.77.38-.78.84-.78.84.35.84.78Z" style="fill: #060486;"/>
            <path d="m84.98,54.63c0,.42-.38.76-.84.76s-.84-.34-.84-.76.37-.77.84-.77.84.34.84.77Z" style="fill: #060486;"/>
          </g>
        </g>
        <path d="m101.46,17.51c0,8.55-12.22,15.48-27.31,15.48s-27.31-6.93-27.31-15.48,12.23-15.48,27.31-15.48,27.31,6.93,27.31,15.48Z" style="fill: url(#linear-gradient); mix-blend-mode: screen; opacity: .72;"/>
      </g>
    </g>
  </g>
</svg>