<?xml version="1.0" encoding="UTF-8"?>
<svg xmlns="http://www.w3.org/2000/svg" width="148.97" height="86.77" xmlns:xlink="http://www.w3.org/1999/xlink" viewBox="0 0 148.97 86.77">
  <defs>
    <linearGradient id="linear-gradient" x1="73.9" y1="3.16" x2="73.9" y2="34.57" gradientUnits="userSpaceOnUse">
      <stop offset="0" stop-color="#fff"/>
      <stop offset="1" stop-color="#000"/>
    </linearGradient>
  </defs>
  <g style="isolation: isolate;">
    <g id="Layer_2" data-name="Layer 2">
      <g>
        <g>
          <path d="m117.65,43.46c0-16.51-9.23-30.85-22.82-38.16v76.32c13.58-7.31,22.82-21.65,22.82-38.16Z" style="fill: #cd2b36;"/>
          <path d="m31.07,43.46c0,16.38,9.1,30.63,22.51,37.99V5.48c-13.41,7.36-22.51,21.61-22.51,37.99Z" style="fill: #009147;"/>
          <path d="m53.58,5.48v75.98c6.17,3.38,13.25,5.31,20.79,5.31s14.38-1.86,20.47-5.14V5.31C88.74,2.03,81.77.16,74.36.16s-14.62,1.93-20.79,5.31Z" style="fill: #fff;"/>
        </g>
        <path d="m101.61,18.86c0,8.67-12.41,15.71-27.7,15.71s-27.71-7.03-27.71-15.71,12.41-15.71,27.71-15.71,27.7,7.03,27.7,15.71Z" style="fill: url(#linear-gradient); mix-blend-mode: screen; opacity: .72;"/>
      </g>
    </g>
  </g>
</svg>