<?xml version="1.0" encoding="UTF-8"?><svg xmlns="http://www.w3.org/2000/svg" width="148.97" height="86.77" xmlns:xlink="http://www.w3.org/1999/xlink" viewBox="0 0 148.97 86.77"><defs><linearGradient id="b" x1="74.82" y1="2.31" x2="74.82" y2="33.25" gradientUnits="userSpaceOnUse"><stop offset="0" stop-color="#fff"/><stop offset="1" stop-color="#000"/></linearGradient></defs><g style="isolation:isolate;"><g id="a"><path d="m74.36.44C50.59.44,31.33,19.7,31.33,43.47s19.26,43.02,43.03,43.02,43.03-19.26,43.03-43.02S98.12.44,74.36.44Z" style="fill:#fff; stroke:#e20b17; stroke-miterlimit:10; stroke-width:.2px;"/><path d="m90.09,43.46c0,8.7-7.29,15.76-16.28,15.76s-16.28-7.06-16.28-15.76,7.29-15.75,16.28-15.75,16.28,7.05,16.28,15.75Z" style="fill:#e20b17;"/><path d="m102.11,17.78c0,8.54-12.22,15.47-27.29,15.47s-27.29-6.93-27.29-15.47,12.22-15.47,27.29-15.47,27.29,6.93,27.29,15.47Z" style="fill:url(#b); mix-blend-mode:screen; opacity:.72;"/></g></g></svg>