<?xml version="1.0" encoding="UTF-8"?><svg id="b" xmlns="http://www.w3.org/2000/svg" width="136.22" height="94.12" viewBox="0 0 136.22 94.12"><path id="c" d="m98.83,32.98c-.75,0-1.51.03-2.25.08v-.08h-17.93v-7.72h-10.46c-.38-4.89-.3-15.65,4.14-18.83,2.03-1.47,5.15-1.21,9.25.75,20.87,10,38.16,13.83,54.63-.01l-3.54-4.19c-14.27,11.99-29.22,8.61-48.74-.74-6.03-2.89-11.02-2.99-14.82-.26-7.07,5.08-6.81,18.26-6.43,23.29h-10.17v7.72h-21.97c-1.04,0-2.07.05-3.08.15C12.05,34.68,0,47.71,0,63.54c0,16.89,13.69,30.58,30.56,30.58,8.72,0,16.58-3.65,22.16-9.5h23.96c5.58,5.85,13.45,9.5,22.15,9.5,16.89,0,30.58-13.69,30.58-30.58s-13.69-30.56-30.58-30.56Zm-55.93,34.39h-8.57v8.57h-10.72v-8.57h-8.57v-10.72h8.57v-9.28h10.72v9.28h8.57v10.72Zm45.6,1.6c-3.17,0-5.73-2.56-5.73-5.72s2.56-5.73,5.73-5.73,5.72,2.56,5.72,5.73-2.56,5.72-5.72,5.72Zm12.12,12.13c-3.15,0-5.72-2.56-5.72-5.73s2.56-5.72,5.72-5.72,5.73,2.56,5.73,5.72-2.56,5.73-5.73,5.73Zm0-24.25c-3.15,0-5.72-2.56-5.72-5.73s2.56-5.72,5.72-5.72,5.73,2.55,5.73,5.72-2.56,5.73-5.73,5.73Zm12.13,12.12c-3.17,0-5.72-2.56-5.72-5.72s2.55-5.73,5.72-5.73,5.73,2.56,5.73,5.73-2.56,5.72-5.73,5.72Z" style="fill:#fff;"/></svg>