<?xml version="1.0" encoding="UTF-8"?>
<svg xmlns="http://www.w3.org/2000/svg" width="148.97" height="86.77" xmlns:xlink="http://www.w3.org/1999/xlink" viewBox="0 0 148.97 86.77">
  <defs>
    <linearGradient id="linear-gradient" x1="74.03" y1="1.86" x2="74.03" y2="32.77" gradientUnits="userSpaceOnUse">
      <stop offset="0" stop-color="#fff"/>
      <stop offset="1" stop-color="#000"/>
    </linearGradient>
  </defs>
  <g style="isolation: isolate;">
    <g id="Qatar">
      <g>
        <g>
          <path d="m31.36,43.41c0,19.41,12.87,35.8,30.53,41.15l10.73-3.34-15.29-4.67,15.19-4.89-15.29-4.67,15.39-4.89-15.29-4.67,15.29-4.77-15.09-4.78,15.09-4.78-15.29-4.78,15.19-4.57-15.29-4.67,15.29-5-15.29-4.67,15.29-4.67-15.19-4.89,15.29-4.78-9.75-3.09c-18.16,5.03-31.51,21.67-31.51,41.43Z" style="fill: #fff;"/>
          <path d="m68.62,86.01c-2.3-.31-4.55-.79-6.73-1.45l10.73-3.34-15.29-4.67,15.19-4.89-15.29-4.67,15.39-4.89-15.29-4.67,15.29-4.77-15.09-4.78,15.09-4.78-15.29-4.78,15.19-4.57-15.29-4.67,15.29-5-15.29-4.67,15.29-4.67-15.19-4.89,15.29-4.78-9.75-3.09c3.66-1.01,7.51-1.56,11.49-1.56,23.75,0,43,19.25,43,43,0,21.8-16.23,39.79-37.26,42.6,0,0-5.83,1.14-11.48,0Z" style="fill: #8c1b3c;"/>
        </g>
        <path d="m101.3,17.32c0,8.54-12.21,15.46-27.27,15.46s-27.27-6.92-27.27-15.46S58.97,1.86,74.03,1.86s27.27,6.92,27.27,15.46Z" style="fill: url(#linear-gradient); mix-blend-mode: screen; opacity: .72;"/>
      </g>
    </g>
  </g>
</svg>