<?xml version="1.0" encoding="UTF-8"?><svg xmlns="http://www.w3.org/2000/svg" width="148.97" height="86.77" xmlns:xlink="http://www.w3.org/1999/xlink" viewBox="0 0 148.97 86.77"><defs><linearGradient id="b" x1="75.27" y1="3.23" x2="75.27" y2="34.19" gradientUnits="userSpaceOnUse"><stop offset="0" stop-color="#fff"/><stop offset="1" stop-color="#000"/></linearGradient></defs><g style="isolation:isolate;"><g id="a"><path d="m74.36.41C50.58.41,31.31,19.69,31.31,43.47s19.27,43.05,43.05,43.05,43.05-19.27,43.05-43.05S98.13.41,74.36.41Z" style="fill:#fff; stroke:#033477; stroke-miterlimit:10; stroke-width:.2px;"/><polygon points="86.8 28.34 88.53 27.29 91.82 31.73 90.07 32.79 86.8 28.34"/><polygon points="90.61 33.67 93.9 38.08 95.63 37.02 92.46 32.55 90.61 33.67"/><polygon points="89.46 26.7 96.59 36.46 98.35 35.4 91.22 25.58 89.46 26.7"/><polygon points="92.21 24.99 95.4 29.52 97.16 28.43 93.87 23.97 92.21 24.99"/><polygon points="96.01 30.41 99.21 34.78 101 33.7 97.74 29.29 96.01 30.41"/><polygon points="95.67 49 92.43 53.43 90.68 52.35 93.87 47.9 95.67 49"/><polygon points="98.28 50.59 95.05 55.02 93.3 53.94 96.49 49.49 98.28 50.59"/><polygon points="100.97 52.24 97.73 56.68 95.98 55.6 99.17 51.15 100.97 52.24"/><polygon points="97.16 57.56 93.92 61.99 92.17 60.91 95.36 56.45 97.16 57.56"/><polygon points="94.49 55.9 91.26 60.34 89.51 59.26 92.7 54.8 94.49 55.9"/><polygon points="91.83 54.28 88.59 58.7 86.84 57.63 90.03 53.17 91.83 54.28"/><polygon points="54.89 47.9 61.97 57.67 60.19 58.75 53.12 49 54.89 47.9"/><polygon points="49.55 51.17 56.62 60.94 54.85 62.02 47.77 52.27 49.55 51.17"/><polygon points="54.34 55.93 57.53 60.36 59.26 59.3 56.05 54.85 54.34 55.93"/><polygon points="50.53 50.61 53.72 55.05 55.45 53.99 52.23 49.53 50.53 50.61"/><polygon points="61.95 28.36 54.85 38.09 53.14 37.05 60.17 27.23 61.95 28.36"/><polygon points="59.31 26.68 52.21 36.41 50.51 35.37 57.53 25.57 59.31 26.68"/><polygon points="56.62 25.05 49.52 34.78 47.82 33.74 54.85 23.93 56.62 25.05"/><path d="m85.31,43.3c-1.82-2.76-5.66-3.6-8.35-2.36-3.09,1.39-3.09,4.77-7.94,4.68-3.65-.08-7.31-2.75-6.13-7.86-.85,1.57-1.33,3.33-1.33,5.19,0,6.49,5.81,11.76,12.86,11.76,4.89,0,9.14-2.54,11.28-6.27.41-1.4.7-3.48-.4-5.13Z" style="fill:#033477;"/><path d="m74.43,31.17c-5.03,0-9.43,2.68-11.53,6.57-1.19,5.11,2.48,7.79,6.13,7.86,4.85.09,4.85-3.29,7.94-4.68,2.69-1.24,6.52-.39,8.35,2.36,1.09,1.65.8,3.73.4,5.13.94-1.64,1.48-3.51,1.48-5.49,0-6.5-5.72-11.76-12.76-11.76Z" style="fill:#c50d2f;"/><path d="m102.58,18.71c0,8.55-12.23,15.48-27.31,15.48s-27.31-6.93-27.31-15.48,12.23-15.48,27.31-15.48,27.31,6.93,27.31,15.48Z" style="fill:url(#b); mix-blend-mode:screen; opacity:.72;"/></g></g></svg>