<?xml version="1.0" encoding="UTF-8"?>
<svg xmlns="http://www.w3.org/2000/svg" width="148.82" height="86.33" xmlns:xlink="http://www.w3.org/1999/xlink" viewBox="0 0 148.82 86.33">
  <defs>
    <linearGradient id="linear-gradient" x1="74.21" y1="2.68" x2="74.21" y2="33.9" gradientUnits="userSpaceOnUse">
      <stop offset="0" stop-color="#fff"/>
      <stop offset="1" stop-color="#000"/>
    </linearGradient>
  </defs>
  <g style="isolation: isolate;">
    <g id="uk">
      <g>
        <g>
          <path d="m111.67,23.08l-13.91,9.59,17.89.02h.33c-.87-3.5-2.16-6.84-3.82-9.94l-.48.34Z" style="fill: #04247b;"/>
          <path d="m41.75,71.3c6.31,7.24,15,12.35,24.86,14.11v-31.25l-24.86,17.14Z" style="fill: #04247b;"/>
          <path d="m50.39,32.62l-13.72-9.41-.48-.33c-1.62,3.04-2.88,6.3-3.73,9.72h.33l17.61.02Z" style="fill: #04247b;"/>
          <path d="m81.83,29.57l22.78-15.77.7-.48c-6.18-6.45-14.33-10.99-23.5-12.63v1.2l.02,27.67Z" style="fill: #04247b;"/>
          <path d="m66.6,29.45V.68c-9.14,1.63-17.27,6.14-23.43,12.56l.7.48,22.74,15.72Z" style="fill: #04247b;"/>
          <path d="m81.88,85.4c9.85-1.78,18.54-6.9,24.83-14.16l-24.86-17.05.03,31.2Z" style="fill: #04247b;"/>
          <path d="m31.88,50.78c.69,3.8,1.86,7.43,3.48,10.81l15.69-10.81h-19.17Z" style="fill: #04247b;"/>
          <path d="m113.06,61.57c1.61-3.37,2.79-7,3.48-10.79h-19.08l15.6,10.79Z" style="fill: #04247b;"/>
          <path d="m97.76,32.67l14.39-9.92c-.9-1.69-1.93-3.31-3.04-4.86l-21.27,14.67h-7.03l25.85-17.75c-.45-.51-.9-1-1.36-1.49l-23.47,16.25-.02-28.88c-1.01-.18-2.03-.34-3.06-.44l-.03,36.9h38.11c-.21-1.51-.48-3-.84-4.45l-18.22-.02Z" style="fill: #fff;"/>
          <path d="m69.63,37.14l.03-36.9c-1.03.11-2.04.26-3.05.44v28.76l-22.74-15.72-.7-.48c-1.41,1.47-2.72,3.04-3.92,4.7l21.17,14.61h-6.8s-16.45-11.44-16.45-11.44c-.34.58-.67,1.17-.99,1.77l.48.33,13.72,9.41-17.61-.02h-.33c-.37,1.48-.66,3-.87,4.54h38.05Z" style="fill: #fff;"/>
          <path d="m78.71,46.31l-.03,39.56c1.08-.11,2.14-.28,3.2-.47l-.03-31.2,24.86,17.05c1.09-1.26,2.12-2.58,3.06-3.96l-23.83-16.5h6.65l19.23,13.17c.44-.78.85-1.57,1.24-2.38l-15.6-10.79h19.08c.26-1.45.45-2.94.57-4.44l-38.39-.03Z" style="fill: #fff;"/>
          <path d="m69.62,46.3l-38.32-.03c.12,1.53.3,3.04.58,4.51h19.17l-15.69,10.81c.69,1.43,1.45,2.81,2.28,4.15l21.71-14.95h6.65l-26.16,18.17c.61.81,1.25,1.58,1.91,2.34l24.86-17.14v31.25c.98.17,1.97.33,2.98.43l.03-39.55Z" style="fill: #fff;"/>
          <path d="m69.66.25l-.03,36.9H31.58c-.27,1.93-.42,3.9-.42,5.91,0,1.08.06,2.15.13,3.21l38.32.03-.03,39.55c1.52.16,3.06.25,4.62.25s3-.08,4.47-.23l.03-39.56,38.39.03c.08-1.08.13-2.18.13-3.29,0-2.01-.14-3.97-.41-5.91h-38.11l.03-36.9c-1.5-.16-3.01-.24-4.54-.24s-3.05.08-4.55.24Z" style="fill: #ce142a;"/>
          <path d="m80.81,32.55h7.03l21.27-14.67c-.77-1.07-1.59-2.1-2.45-3.09l-25.85,17.75Z" style="fill: #ce142a;"/>
          <path d="m53.63,32.54h6.8s-21.17-14.6-21.17-14.6c-.74,1.03-1.43,2.08-2.08,3.17l16.45,11.43Z" style="fill: #ce142a;"/>
          <path d="m66,50.79h-6.65l-21.71,14.95c.69,1.11,1.43,2.18,2.2,3.22l26.16-18.17Z" style="fill: #ce142a;"/>
          <path d="m92.59,50.79h-6.65l23.83,16.5c.73-1.07,1.42-2.19,2.05-3.33l-19.23-13.17Z" style="fill: #ce142a;"/>
        </g>
        <ellipse cx="74.21" cy="18.29" rx="27.55" ry="15.61" style="fill: url(#linear-gradient); mix-blend-mode: screen; opacity: .72;"/>
      </g>
    </g>
  </g>
</svg>