<?xml version="1.0" encoding="UTF-8"?>
<svg xmlns="http://www.w3.org/2000/svg" width="86.07" height="86.1" xmlns:xlink="http://www.w3.org/1999/xlink" viewBox="0 0 86.07 86.1">
  <defs>
    <linearGradient id="linear-gradient" x1="42.64" y1="2.89" x2="42.64" y2="34.09" gradientUnits="userSpaceOnUse">
      <stop offset="0" stop-color="#fff"/>
      <stop offset="1" stop-color="#000"/>
    </linearGradient>
  </defs>
  <g style="isolation: isolate;">
    <g id="Layer_2" data-name="Layer 2">
      <g>
        <g>
          <g>
            <path d="m43.03.04c-7.52,0-14.59,1.93-20.74,5.32h41.48C57.62,1.97,50.55.04,43.03.04Z" style="fill: #c40505;"/>
            <path d="m43.03,86.1c7.78,0,15.07-2.08,21.36-5.68H21.67c6.3,3.61,13.59,5.68,21.36,5.68Z" style="fill: #c40505;"/>
            <path d="m21.67,80.42h42.73c3.41-1.96,6.54-4.36,9.28-7.15H12.39c2.75,2.78,5.87,5.19,9.28,7.15Z" style="fill: #fff;"/>
            <path d="m73.1,12.3c-2.77-2.71-5.91-5.05-9.33-6.94H22.29c-3.42,1.89-6.56,4.23-9.33,6.94h60.14Z" style="fill: #fff;"/>
            <path d="m7.42,18.92h71.23c-1.63-2.39-3.49-4.6-5.54-6.61H12.96c-2.06,2.01-3.92,4.23-5.54,6.61Z" style="fill: #c40505;"/>
            <path d="m12.39,73.27h61.29c1.85-1.88,3.53-3.92,5.01-6.11H7.37c1.48,2.19,3.17,4.23,5.01,6.11Z" style="fill: #c40505;"/>
            <path d="m7.37,67.16h71.32c1.54-2.27,2.87-4.7,3.95-7.25H3.42c1.09,2.55,2.41,4.98,3.95,7.25Z" style="fill: #fff;"/>
            <path d="m3.45,26.17h79.16c-1.09-2.55-2.42-4.98-3.96-7.25H7.42c-1.54,2.27-2.87,4.7-3.97,7.25Z" style="fill: #fff;"/>
            <path d="m3.42,59.91h79.22c.94-2.22,1.7-4.54,2.26-6.94H1.16c.57,2.4,1.32,4.71,2.26,6.94Z" style="fill: #c40505;"/>
            <path d="m1.25,32.79h83.57c-.56-2.28-1.29-4.5-2.21-6.62H3.45c-.91,2.12-1.65,4.34-2.2,6.62Z" style="fill: #c40505;"/>
            <path d="m.15,39.64h85.77c-.19-2.34-.55-4.62-1.1-6.84H1.25c-.54,2.22-.91,4.5-1.1,6.84Z" style="fill: #fff;"/>
            <path d="m1.16,52.97h83.74c.53-2.25.89-4.57,1.05-6.94H.12c.16,2.37.51,4.69,1.04,6.94Z" style="fill: #fff;"/>
            <path d="m0,43.07c0,1,.05,1.98.12,2.96h85.84c.07-.98.12-1.97.12-2.96,0-1.16-.06-2.3-.15-3.43H.15c-.09,1.13-.15,2.28-.15,3.43Z" style="fill: #c40505;"/>
          </g>
          <path d="m53.27,1.27c-3.3-.81-6.65-1.27-10.2-1.27C19.31,0,0,19.32,0,43.08c0,1,.05,1.98.12,2.96h53.19l-.04-44.77Z" style="fill: #121272;"/>
          <g>
            <path d="m26.27,3.36l1.21,1.09-.42,1.88,1.44-1.26,1.47,1.26-.55-1.88,1.43-1.26h-1.79l-.22-.74s-.34.08-.83.28l-.16.46h-1.09l-.47.18Z" style="fill: #fff;"/>
            <polygon points="36.48 3.18 38.24 3.18 38.89 1.3 39.44 3.18 41.24 3.18 39.81 4.44 40.36 6.33 38.89 5.06 37.46 6.33 37.88 4.44 36.48 3.18" style="fill: #fff;"/>
            <polygon points="46.88 3.18 48.65 3.18 49.3 1.3 49.85 3.18 51.65 3.18 50.21 4.44 50.77 6.33 49.3 5.06 47.86 6.33 48.29 4.44 46.88 3.18" style="fill: #fff;"/>
            <polygon points="15.67 12.62 17.43 12.62 18.09 10.74 18.65 12.62 20.44 12.62 19 13.89 19.56 15.77 18.09 14.5 16.65 15.77 17.08 13.89 15.67 12.62" style="fill: #fff;"/>
            <polygon points="26.07 12.62 27.83 12.62 28.49 10.74 29.05 12.62 30.84 12.62 29.41 13.89 29.96 15.77 28.49 14.5 27.05 15.77 27.48 13.89 26.07 12.62" style="fill: #fff;"/>
            <polygon points="36.48 12.62 38.24 12.62 38.89 10.74 39.44 12.62 41.24 12.62 39.81 13.89 40.36 15.77 38.89 14.5 37.46 15.77 37.88 13.89 36.48 12.62" style="fill: #fff;"/>
            <polygon points="46.88 12.62 48.65 12.62 49.3 10.74 49.85 12.62 51.65 12.62 50.21 13.89 50.77 15.77 49.3 14.5 47.86 15.77 48.29 13.89 46.88 12.62" style="fill: #fff;"/>
            <path d="m10.04,21.76h-1.8l-.56-1.88-.65,1.88h-1.4c-.03.08-.08.15-.12.22l1.16,1.05-.42,1.88,1.44-1.27,1.47,1.27-.56-1.88,1.44-1.27Z" style="fill: #fff;"/>
            <polygon points="15.67 21.76 17.43 21.76 18.09 19.88 18.65 21.76 20.44 21.76 19 23.03 19.56 24.91 18.09 23.64 16.65 24.91 17.08 23.03 15.67 21.76" style="fill: #fff;"/>
            <polygon points="26.07 21.76 27.83 21.76 28.49 19.88 29.05 21.76 30.84 21.76 29.41 23.03 29.96 24.91 28.49 23.64 27.05 24.91 27.48 23.03 26.07 21.76" style="fill: #fff;"/>
            <polygon points="36.48 21.76 38.24 21.76 38.89 19.88 39.44 21.76 41.24 21.76 39.81 23.03 40.36 24.91 38.89 23.64 37.46 24.91 37.88 23.03 36.48 21.76" style="fill: #fff;"/>
            <polygon points="46.88 21.76 48.65 21.76 49.3 19.88 49.85 21.76 51.65 21.76 50.21 23.03 50.77 24.91 49.3 23.64 47.86 24.91 48.29 23.03 46.88 21.76" style="fill: #fff;"/>
            <polygon points="5.32 31.31 7.08 31.31 7.73 29.43 8.29 31.31 10.08 31.31 8.65 32.57 9.2 34.46 7.73 33.19 6.3 34.46 6.72 32.57 5.32 31.31" style="fill: #fff;"/>
            <polygon points="15.72 31.31 17.48 31.31 18.14 29.43 18.69 31.31 20.49 31.31 19.05 32.57 19.6 34.46 18.14 33.19 16.7 34.46 17.12 32.57 15.72 31.31" style="fill: #fff;"/>
            <polygon points="26.12 31.31 27.89 31.31 28.54 29.43 29.09 31.31 30.89 31.31 29.45 32.57 30 34.46 28.54 33.19 27.1 34.46 27.53 32.57 26.12 31.31" style="fill: #fff;"/>
            <polygon points="36.52 31.31 38.29 31.31 38.94 29.43 39.49 31.31 41.29 31.31 39.85 32.57 40.41 34.46 38.94 33.19 37.5 34.46 37.93 32.57 36.52 31.31" style="fill: #fff;"/>
            <polygon points="46.92 31.31 48.69 31.31 49.34 29.43 49.9 31.31 51.69 31.31 50.25 32.57 50.81 34.46 49.34 33.19 47.91 34.46 48.33 32.57 46.92 31.31" style="fill: #fff;"/>
            <polygon points="5.32 40.55 7.08 40.55 7.73 38.66 8.29 40.55 10.08 40.55 8.65 41.81 9.2 43.69 7.73 42.43 6.3 43.69 6.72 41.81 5.32 40.55" style="fill: #fff;"/>
            <polygon points="15.72 40.55 17.48 40.55 18.14 38.66 18.69 40.55 20.49 40.55 19.05 41.81 19.6 43.69 18.14 42.43 16.7 43.69 17.12 41.81 15.72 40.55" style="fill: #fff;"/>
            <polygon points="26.12 40.55 27.89 40.55 28.54 38.66 29.09 40.55 30.89 40.55 29.45 41.81 30 43.69 28.54 42.43 27.1 43.69 27.53 41.81 26.12 40.55" style="fill: #fff;"/>
            <polygon points="36.52 40.55 38.29 40.55 38.94 38.66 39.49 40.55 41.29 40.55 39.85 41.81 40.41 43.69 38.94 42.43 37.5 43.69 37.93 41.81 36.52 40.55" style="fill: #fff;"/>
            <polygon points="46.92 40.55 48.69 40.55 49.34 38.66 49.9 40.55 51.69 40.55 50.25 41.81 50.81 43.69 49.34 42.43 47.91 43.69 48.33 41.81 46.92 40.55" style="fill: #fff;"/>
            <path d="m.56,36.22l.91.83-.42,1.88,1.44-1.26,1.46,1.26-.55-1.88,1.44-1.27h-1.8l-.55-1.88-.66,1.88H.63s-.03.23-.07.44Z" style="fill: #fff;"/>
            <polygon points="10.46 35.78 12.23 35.78 12.88 33.9 13.43 35.78 15.23 35.78 13.79 37.05 14.35 38.93 12.88 37.66 11.44 38.93 11.87 37.05 10.46 35.78" style="fill: #fff;"/>
            <polygon points="20.87 35.78 22.63 35.78 23.29 33.9 23.84 35.78 25.64 35.78 24.2 37.05 24.75 38.93 23.29 37.66 21.85 38.93 22.27 37.05 20.87 35.78" style="fill: #fff;"/>
            <polygon points="31.27 35.78 33.03 35.78 33.68 33.9 34.24 35.78 36.03 35.78 34.6 37.05 35.16 38.93 33.68 37.66 32.25 38.93 32.68 37.05 31.27 35.78" style="fill: #fff;"/>
            <polygon points="41.67 35.78 43.43 35.78 44.09 33.9 44.64 35.78 46.44 35.78 45.01 37.05 45.56 38.93 44.09 37.66 42.65 38.93 43.07 37.05 41.67 35.78" style="fill: #fff;"/>
            <path d="m3.3,26.54h1.54l-1.44,1.27.55,1.88-1.4-1.21s.49-1.35.75-1.94Z" style="fill: #fff;"/>
            <polygon points="10.46 26.54 12.23 26.54 12.88 24.66 13.43 26.54 15.23 26.54 13.79 27.81 14.35 29.69 12.88 28.42 11.44 29.69 11.87 27.81 10.46 26.54" style="fill: #fff;"/>
            <polygon points="20.87 26.54 22.63 26.54 23.29 24.66 23.84 26.54 25.64 26.54 24.2 27.81 24.75 29.69 23.29 28.42 21.85 29.69 22.27 27.81 20.87 26.54" style="fill: #fff;"/>
            <polygon points="31.27 26.54 33.03 26.54 33.68 24.66 34.24 26.54 36.03 26.54 34.6 27.81 35.16 29.69 33.68 28.42 32.25 29.69 32.68 27.81 31.27 26.54" style="fill: #fff;"/>
            <polygon points="41.67 26.54 43.43 26.54 44.09 24.66 44.64 26.54 46.44 26.54 45.01 27.81 45.56 29.69 44.09 28.42 42.65 29.69 43.07 27.81 41.67 26.54" style="fill: #fff;"/>
            <polygon points="10.58 17.2 12.34 17.2 12.99 15.31 13.54 17.2 15.34 17.2 13.9 18.47 14.46 20.35 12.99 19.08 11.55 20.35 11.98 18.47 10.58 17.2" style="fill: #fff;"/>
            <polygon points="20.98 17.2 22.74 17.2 23.39 15.31 23.95 17.2 25.74 17.2 24.3 18.47 24.86 20.35 23.39 19.08 21.95 20.35 22.38 18.47 20.98 17.2" style="fill: #fff;"/>
            <polygon points="31.38 17.2 33.14 17.2 33.79 15.31 34.35 17.2 36.14 17.2 34.71 18.47 35.26 20.35 33.79 19.08 32.36 20.35 32.78 18.47 31.38 17.2" style="fill: #fff;"/>
            <polygon points="41.78 17.2 43.54 17.2 44.2 15.31 44.75 17.2 46.54 17.2 45.11 18.47 45.66 20.35 44.2 19.08 42.76 20.35 43.18 18.47 41.78 17.2" style="fill: #fff;"/>
            <polygon points="20.98 7.96 22.74 7.96 23.39 6.08 23.95 7.96 25.74 7.96 24.3 9.23 24.86 11.11 23.39 9.84 21.95 11.11 22.38 9.23 20.98 7.96" style="fill: #fff;"/>
            <polygon points="31.38 7.96 33.14 7.96 33.79 6.08 34.35 7.96 36.14 7.96 34.71 9.23 35.26 11.11 33.79 9.84 32.36 11.11 32.78 9.23 31.38 7.96" style="fill: #fff;"/>
            <polygon points="41.78 7.96 43.54 7.96 44.2 6.08 44.75 7.96 46.54 7.96 45.11 9.23 45.66 11.11 44.2 9.84 42.76 11.11 43.18 9.23 41.78 7.96" style="fill: #fff;"/>
          </g>
        </g>
        <path d="m70.18,18.49c0,8.62-12.33,15.6-27.53,15.6s-27.54-6.99-27.54-15.6S27.44,2.89,42.65,2.89s27.53,6.99,27.53,15.6Z" style="fill: url(#linear-gradient); mix-blend-mode: screen; opacity: .72;"/>
      </g>
    </g>
  </g>
</svg>