<?xml version="1.0" encoding="UTF-8"?>
<svg id="a" data-name="Apple_text" xmlns="http://www.w3.org/2000/svg" width="300" height="250" viewBox="0 0 300 250">
  <path d="m101.13,113.12c0,.46-.1.86-.29,1.21-.25.46-.57.69-.98.69-.11,0-.27-.02-.47-.06s-.36-.06-.47-.06c-1.17,0-2.87.35-5.09,1.06-2.22.71-3.92,1.06-5.09,1.06-4.39,0-6.58-3.33-6.58-9.98,0-5.23.14-9.38.41-12.43.03-.41.04-.63.04-.65,0-.19-.03-.47-.08-.84-.05-.37-.08-.63-.08-.8,0-1.25.68-1.99,2.04-2.21,2.1-.38,4.2-.78,6.3-1.19,2.75-.52,4.81-.78,6.18-.78.79,0,1.49.14,2.09.41.82.38,1.23.91,1.23,1.59,0,1.01-.67,1.51-2,1.51-.16,0-.42-.02-.76-.06-.34-.04-.59-.06-.76-.06-2.21,0-5.22.49-9.04,1.47-.22.03-.42.07-.61.12-.19.06-.33.26-.41.61-.3,1.31-.45,3.87-.45,7.69,0,.57.26.86.78.86.71,0,1.73-.18,3.07-.53,1.34-.35,2.36-.53,3.07-.53.79,0,1.7.25,2.74.74.27.87.41,1.4.41,1.6,0,.68-.2,1.05-.61,1.1-.41.06-.85.11-1.31.16-.22-.14-.52-.2-.9-.2-.95,0-2.1.12-3.44.37-1.12.25-2.25.48-3.39.7-.16.03-.31.05-.43.08-.12.03-.21.19-.27.49-.06.49-.08.89-.08,1.19,0,2.1.04,3.35.12,3.76.27,1.58,1.02,2.37,2.25,2.37,1.04,0,2.55-.31,4.54-.94,1.99-.63,3.57-.94,4.74-.94,1.85,0,3.05.47,3.6,1.41Z" style="fill: #fff;"/>
  <path d="m118.76,115.87c-.41.63-.91.94-1.51.94-.46,0-1.23-.27-2.29-.82v-.49c0-.6.01-1.49.04-2.66.03-1.17.04-2.03.04-2.58,0-5.83-.87-8.75-2.6-8.75-.49,0-1.04.38-1.67,1.15-1.92,2.35-2.89,5.17-2.89,8.47,0,.46.09,1.15.27,2.07.18.91.27,1.6.27,2.06,0,.38-.18.7-.53.94-.35.25-.74.37-1.15.37-1.64,0-2.45-1.04-2.45-3.11v-8.55c0-.22.03-.54.08-.96.05-.42.08-.74.08-.96,0-.33-.05-.8-.14-1.43-.1-.63-.14-1.09-.14-1.39,0-.44.25-.85.76-1.25.5-.4.96-.59,1.37-.59.6,0,1.21.34,1.84,1.02l-.12,1.64c1.01-1.61,2.25-2.41,3.72-2.41.95,0,1.96.33,3.03.98s1.84,1.39,2.33,2.21c1.12,2.07,1.68,4.8,1.68,8.18v5.93Z" style="fill: #fff;"/>
  <path d="m134.95,116.81c-.52.52-1.2.78-2.04.78-.57,0-1.16-.35-1.76-1.06v-5.56c0-6.05-.87-9.08-2.62-9.08s-2.7,2.44-2.7,7.32v2.37c0,.41.07,1.03.2,1.86.14.83.2,1.45.2,1.86,0,.35-.21.67-.63.96-.42.29-.81.43-1.17.43-.68,0-1.26-.28-1.74-.84-.48-.56-.72-1.18-.72-1.86l.16-23.67v-.61c0-.98.54-1.47,1.64-1.47.52,0,1.12.24,1.8.72.68.48,1.02.96,1.02,1.46,0,.6-.13,1.49-.39,2.67-.26,1.18-.39,2.07-.39,2.67,0,.77.03,1.98.08,3.65.6-.35,1.1-.53,1.51-.53,1.06,0,2.22.26,3.48.78,1.61.68,2.73,1.79,3.35,3.31.46,1.15.7,2.73.7,4.74v9.12Z" style="fill: #fff;"/>
  <path d="m151.92,109.21c0,3.52-.11,6-.33,7.44-.14.84-.71,1.27-1.72,1.27-1.53,0-2.21-.76-2.04-2.29-1.36.65-2.78.98-4.25.98s-2.77-.35-4.05-1.06c-1.53-.84-2.29-1.92-2.29-3.23s.87-2.48,2.62-3.6c1.58-1.01,3.07-1.51,4.46-1.51h3.48v-.97c.03-2.84-.82-4.26-2.54-4.26-2.15,0-3.23,1-3.23,3,0,.67-.38,1.01-1.15,1.01-.46,0-.95-.21-1.45-.63-.5-.42-.76-.87-.76-1.33,0-1.53.54-2.78,1.64-3.76,1.09-.98,2.4-1.47,3.93-1.47,5.12,0,7.69,3.48,7.69,10.43Zm-4.13,1.47c0-.54-.41-.82-1.23-.82-3.41,0-5.11.8-5.11,2.41,0,.87.75,1.31,2.25,1.31.93,0,1.8-.26,2.62-.78.98-.57,1.47-1.28,1.47-2.13Z" style="fill: #fff;"/>
  <path d="m169.75,115.87c-.41.63-.91.94-1.51.94-.46,0-1.23-.27-2.29-.82v-.49c0-.6.01-1.49.04-2.66.03-1.17.04-2.03.04-2.58,0-5.83-.87-8.75-2.6-8.75-.49,0-1.04.38-1.67,1.15-1.92,2.35-2.89,5.17-2.89,8.47,0,.46.09,1.15.27,2.07.18.91.27,1.6.27,2.06,0,.38-.18.7-.53.94-.35.25-.74.37-1.14.37-1.64,0-2.45-1.04-2.45-3.11v-8.55c0-.22.03-.54.08-.96.05-.42.08-.74.08-.96,0-.33-.05-.8-.14-1.43-.1-.63-.14-1.09-.14-1.39,0-.44.25-.85.76-1.25.5-.4.96-.59,1.37-.59.6,0,1.21.34,1.84,1.02l-.12,1.64c1.01-1.61,2.25-2.41,3.72-2.41.95,0,1.96.33,3.03.98s1.84,1.39,2.33,2.21c1.12,2.07,1.68,4.8,1.68,8.18v5.93Z" style="fill: #fff;"/>
  <path d="m186.64,111.54c0,.85-.64,1.84-1.92,2.99-1.15,1.06-2.17,1.73-3.09,2-.91.27-1.78.41-2.6.41-2.15,0-3.84-.68-5.05-2.04-1.21-1.36-1.82-3.12-1.82-5.28s.56-4.44,1.68-7.03c1.33-3.11,2.89-4.66,4.66-4.66.98,0,2.17.38,3.56,1.15,1.47.85,2.33,1.69,2.58,2.54.22.74.33,1.57.33,2.49,0,.85-.18,1.8-.53,2.86-.44,1.36-.98,2.04-1.64,2.04-.46,0-.9-.14-1.31-.41-.49-.3-.74-.66-.74-1.1,0-.03.12-.34.37-.94.14-.27.2-1.02.2-2.24,0-1-.04-1.65-.12-1.95-.16-.84-.55-1.26-1.15-1.26-1.34,0-2.37,1.16-3.11,3.47-.54,1.71-.82,3.44-.82,5.18,0,2.91.93,4.36,2.78,4.36.74,0,1.58-.38,2.54-1.15.87-.71,1.49-1.43,1.84-2.17.44-.87.97-1.31,1.6-1.31.41,0,.8.24,1.19.72.38.48.57.92.57,1.33Z" style="fill: #fff;"/>
  <path d="m202.18,112.56c0,1.36-.93,2.43-2.78,3.19-1.45.6-2.96.9-4.54.9-4.2,0-6.3-2.39-6.3-7.16,0-1.96.48-4.14,1.43-6.54,1.17-2.94,2.59-4.42,4.25-4.42,1.5,0,3.11.67,4.85,2,1.73,1.34,2.6,2.73,2.6,4.17,0,1.8-.8,3.23-2.41,4.29-1.42.95-3.11,1.43-5.07,1.43-.38,0-1-.23-1.84-.69.11,2.59.87,3.88,2.29,3.88,1.2,0,2.38-.34,3.54-1.02,1.16-.68,1.9-1.02,2.23-1.02,1.17,0,1.76.33,1.76.98Zm-4.46-7.73c0-.68-.2-1.33-.59-1.94-.4-.61-.92-.92-1.58-.92-.9,0-1.59.4-2.08,1.19-.41.68-.61,1.49-.61,2.41,0,.52.18.94.53,1.27.35.33.8.49,1.35.49,1.99,0,2.99-.83,2.99-2.49Z" style="fill: #fff;"/>
  <path d="m217.64,112.03c0,1.28-.55,2.4-1.64,3.35-1.2,1.04-2.81,1.55-4.83,1.55-.87.03-1.81-.15-2.82-.53-3.27-1.23-4.91-2.22-4.91-2.99,0-1.2.86-1.8,2.58-1.8.25,0,.5.01.78.04.08.82.74,1.47,1.96,1.96,1.06.44,2.09.61,3.07.53.79-.05,1.19-.34,1.19-.86,0-.08-.02-.2-.06-.37s-.06-.29-.06-.39-.52-.31-1.55-.63c-1.17-.35-1.83-.56-1.96-.61-3.11-1.85-4.66-4.09-4.66-6.71,0-1.58.45-3.04,1.35-4.38,1.01-1.47,2.26-2.21,3.76-2.21,1.12,0,2.39.44,3.82,1.31,1.43.87,2.31,1.81,2.64,2.82.22.71.33,1.3.33,1.76,0,.49-.07.9-.21,1.23-.16.41-.33.82-.49,1.23-.52.35-1.04.53-1.55.53-.27,0-.73-.17-1.37-.51-.64-.34-.96-.63-.96-.88,0-.11.16-.46.49-1.06.19-.35.29-.65.29-.9,0-1.64-.64-2.45-1.92-2.45-.76,0-1.35.49-1.76,1.47-.3.76-.45,1.58-.45,2.45,0,1.09.78,2.07,2.33,2.94,1.42.63,2.85,1.27,4.29,1.92,1.55.71,2.33,1.43,2.33,2.17Z" style="fill: #fff;"/>
  <path d="m103.79,140.43c0,2.78-.49,5.14-1.47,7.07-1.23,2.51-3.08,3.76-5.56,3.76-1.34,0-2.48-.38-3.44-1.15v2.45c0,2.62.3,4.68.9,6.17.27.6.41.98.41,1.15,0,.93-.55,1.39-1.64,1.39-.82,0-1.43-.15-1.84-.45-.3-.19-.6-.87-.9-2.04-.25-1.04-.37-1.83-.37-2.37v-9.86c0-.9.05-2.13.16-3.68.11-1.74.18-2.96.2-3.64.03-.68.03-1.58,0-2.7v-2.74c0-2.32.76-3.48,2.27-3.48.38,0,.73.13,1.05.39.32.26.49.57.49.92,0,.6-.07,1.69-.2,3.27,1.06-1.5,2.34-2.25,3.84-2.25,2.02,0,3.57.82,4.66,2.45.95,1.42,1.43,3.19,1.43,5.32Zm-3.64-.37c0-2.94-.63-4.42-1.89-4.42-.55,0-1.26.53-2.14,1.6-1.7,2.04-2.63,4.87-2.8,8.46.3.16.84.74,1.6,1.72.6.74,1.21,1.11,1.81,1.11,2.28,0,3.42-2.82,3.42-8.47Z" style="fill: #fff;"/>
  <path d="m120.92,142.1c0,2.46-.61,4.55-1.84,6.3-1.42,1.99-3.3,2.99-5.64,2.99s-4.21-.82-5.44-2.45c-1.12-1.44-1.68-3.41-1.68-5.89s.61-4.77,1.84-6.95c1.42-2.59,3.26-3.89,5.52-3.89.71,0,1.59.31,2.66.94,3.05,1.83,4.58,4.81,4.58,8.96Zm-3.6-.08c0-4.17-1.01-6.26-3.03-6.26-1.45,0-2.54.89-3.27,2.66-.55,1.34-.82,2.85-.82,4.54,0,3.63,1.08,5.44,3.23,5.44,1.39,0,2.43-.75,3.11-2.25.52-1.14.78-2.52.78-4.13Z" style="fill: #fff;"/>
  <path d="m136.96,146.03c0,1.28-.55,2.4-1.64,3.35-1.2,1.04-2.81,1.55-4.83,1.55-.87.03-1.81-.15-2.82-.53-3.27-1.23-4.91-2.22-4.91-2.99,0-1.2.86-1.8,2.58-1.8.25,0,.5.01.78.04.08.82.74,1.47,1.96,1.96,1.06.44,2.09.61,3.07.53.79-.05,1.19-.34,1.19-.86,0-.08-.02-.2-.06-.37s-.06-.29-.06-.39-.52-.31-1.55-.63c-1.17-.35-1.83-.56-1.96-.61-3.11-1.85-4.66-4.09-4.66-6.71,0-1.58.45-3.04,1.35-4.38,1.01-1.47,2.26-2.21,3.76-2.21,1.12,0,2.39.44,3.82,1.31,1.43.87,2.31,1.81,2.64,2.82.22.71.33,1.3.33,1.76,0,.49-.07.9-.2,1.23-.16.41-.33.82-.49,1.23-.52.35-1.04.53-1.55.53-.27,0-.73-.17-1.37-.51-.64-.34-.96-.63-.96-.88,0-.11.16-.46.49-1.06.19-.35.29-.65.29-.9,0-1.63-.64-2.45-1.92-2.45-.76,0-1.35.49-1.76,1.47-.3.76-.45,1.58-.45,2.45,0,1.09.78,2.07,2.33,2.94,1.42.63,2.85,1.27,4.29,1.92,1.55.71,2.33,1.43,2.33,2.17Z" style="fill: #fff;"/>
  <path d="m143.99,134.41c0,.49-.11,1.19-.33,2.09-.22.9-.33,1.59-.33,2.09v8.42c0,.52.16,1.34.49,2.45-.41.63-.87.94-1.36.94-1.73,0-2.68-.86-2.85-2.58-.27-3.19-.41-5.59-.41-7.2,0-2.7.11-4.96.33-6.79v-.41c0-.49.38-.74,1.13-.74.67,0,1.35.14,2.03.41.86.3,1.3.74,1.3,1.31Zm.37-5.73c0,.6-.2,1.09-.61,1.47-.41.38-.91.57-1.51.57-.71,0-1.37-.25-1.98-.74-.61-.49-.92-1.09-.92-1.8,0-.6.21-1.09.63-1.47.42-.38.95-.57,1.57-.57.74,0,1.39.24,1.96.72.57.48.86,1.08.86,1.82Z" style="fill: #fff;"/>
  <path d="m154.58,135.52c0,.74-1.12,1.25-3.36,1.55-.05.6-.08,1.96-.08,4.09v2.7c0,.54.08,1.35.25,2.41.16,1.06.25,1.85.25,2.37,0,.44-.22.83-.65,1.17-.44.34-.87.51-1.31.51-.68,0-1.25-.59-1.72-1.76-.35-.9-.53-1.77-.53-2.62v-8.67c-1.25-.19-1.98-.31-2.17-.37-.71-.22-1.06-.53-1.06-.94,0-.11.03-.23.08-.37.71-1.01,1.5-1.51,2.37-1.51h.25c.11.03.19.04.25.04.57,0,.84-.67.82-2v-2.98c-.14-.3-.2-.56-.2-.78,0-.35.21-.67.63-.96s.82-.43,1.19-.43c.57,0,1.11.27,1.62.8.51.53.77,1.1.77,1.7,0,.65-.1,1.3-.31,1.94-.2.64-.29,1.3-.27,1.98v.16c2.13.22,3.19.87,3.19,1.96Z" style="fill: #fff;"/>
  <path d="m161.12,134.41c0,.49-.11,1.19-.33,2.09-.22.9-.33,1.59-.33,2.09v8.42c0,.52.16,1.34.49,2.45-.41.63-.87.94-1.36.94-1.73,0-2.68-.86-2.85-2.58-.27-3.19-.41-5.59-.41-7.2,0-2.7.11-4.96.33-6.79v-.41c0-.49.38-.74,1.13-.74.67,0,1.35.14,2.03.41.86.3,1.3.74,1.3,1.31Zm.37-5.73c0,.6-.21,1.09-.61,1.47-.41.38-.91.57-1.51.57-.71,0-1.37-.25-1.98-.74s-.92-1.09-.92-1.8c0-.6.21-1.09.63-1.47s.95-.57,1.57-.57c.74,0,1.39.24,1.96.72.57.48.86,1.08.86,1.82Z" style="fill: #fff;"/>
  <path d="m176.38,134.5c0,1.96-.63,4.96-1.88,9-1.47,4.64-2.9,6.95-4.29,6.95-1.99,0-3.76-1.95-5.32-5.85-.95-2.43-1.73-5.26-2.33-8.51-.14-.79-.2-1.4-.2-1.84s.2-.82.59-1.17c.39-.34.81-.51,1.25-.51.52,0,1.32.39,2.41,1.19-.19.63-.29,1.16-.29,1.59,0,1.47.36,3.39,1.08,5.77.72,2.37,1.51,4.16,2.35,5.36v.12c1,0,1.77-1.85,2.32-5.56.39-2.54.58-4.85.58-6.95,0-.41.21-.76.63-1.06.42-.3.83-.45,1.23-.45,1.24,0,1.86.64,1.86,1.92Z" style="fill: #fff;"/>
  <path d="m183.74,134.41c0,.49-.11,1.19-.33,2.09-.22.9-.33,1.59-.33,2.09v8.42c0,.52.16,1.34.49,2.45-.41.63-.87.94-1.36.94-1.73,0-2.68-.86-2.85-2.58-.27-3.19-.41-5.59-.41-7.2,0-2.7.11-4.96.33-6.79v-.41c0-.49.38-.74,1.13-.74.67,0,1.35.14,2.03.41.86.3,1.3.74,1.3,1.31Zm.37-5.73c0,.6-.21,1.09-.61,1.47-.41.38-.91.57-1.51.57-.71,0-1.37-.25-1.98-.74s-.92-1.09-.92-1.8c0-.6.21-1.09.63-1.47s.95-.57,1.57-.57c.74,0,1.39.24,1.96.72.57.48.86,1.08.86,1.82Z" style="fill: #fff;"/>
  <path d="m194.33,135.52c0,.74-1.12,1.25-3.35,1.55-.05.6-.08,1.96-.08,4.09v2.7c0,.54.08,1.35.25,2.41.16,1.06.25,1.85.25,2.37,0,.44-.22.83-.65,1.17-.44.34-.87.51-1.31.51-.68,0-1.25-.59-1.72-1.76-.35-.9-.53-1.77-.53-2.62v-8.67c-1.25-.19-1.98-.31-2.17-.37-.71-.22-1.06-.53-1.06-.94,0-.11.03-.23.08-.37.71-1.01,1.5-1.51,2.37-1.51h.25c.11.03.19.04.25.04.57,0,.84-.67.82-2v-2.98c-.14-.3-.2-.56-.2-.78,0-.35.21-.67.63-.96.42-.29.82-.43,1.2-.43.57,0,1.11.27,1.62.8.51.53.77,1.1.77,1.7,0,.65-.1,1.3-.31,1.94-.21.64-.29,1.3-.27,1.98v.16c2.13.22,3.19.87,3.19,1.96Z" style="fill: #fff;"/>
  <path d="m209.87,134.46c-.25,1.36-.48,2.71-.7,4.05-.27,1.58-.41,2.93-.41,4.05v11.12c0,2.02-.58,3.56-1.74,4.62s-2.75,1.59-4.76,1.59c-1.31,0-2.75-.34-4.33-1.02-1.88-.79-2.82-1.74-2.82-2.86,0-.38.16-.7.47-.96.31-.26.66-.39,1.04-.39.25,0,.83.37,1.76,1.1s1.99,1.1,3.19,1.1c1.53,0,2.55-.56,3.07-1.68.38-.76.57-1.99.57-3.68,0-.63-.01-1.14-.04-1.55-.9.6-1.91.9-3.03.9-2.04,0-3.63-.74-4.74-2.21-1.01-1.33-1.51-3.04-1.51-5.11,0-.22.14-3.65.41-10.3.82-.35,1.47-.53,1.96-.53.54,0,1.35.33,2.41.98-.65,1.64-.98,4.91-.98,9.81,0,3.14.79,4.7,2.37,4.7,1.17,0,2.07-.98,2.7-2.94.46-1.42.7-2.89.7-4.42v-4.99s-.04-.42-.12-1.35c1.12-.54,1.95-.82,2.49-.82s1.25.26,2.04.78Z" style="fill: #fff;"/>
</svg>