<?xml version="1.0" encoding="UTF-8"?>
<svg id="a" data-name="apple_bottom" xmlns="http://www.w3.org/2000/svg" width="300" height="250" viewBox="0 0 300 250">
  <path d="m0,125v125h300v-125H0Z" style="fill: none;"/>
  <path d="m0,125v125h300v-125H0Z" style="fill: none;"/>
  <g>
    <g>
      <path d="m235.5,125c-4.03,27.8-15.02,67.49-22.18,90.21-6.72,21.35-27.27,23.17-36.93,22.79h-.01c-1.39-.06-2.54-.16-3.4-.25h-.01c-1.08-.13-1.7-.24-1.7-.24,0,0-.58.05-1.68.09h-.01c-4.05.12-15.21,0-31.24-3.81-.34-.08-.69-.16-1.04-.25h-.01c-.74-.18-1.49-.37-2.25-.57h-.02c-1.14-.3-2.31-.62-3.5-.95-.83.34-1.64.66-2.45.94-.27.1-.53.19-.8.27-25.21,8.43-40.99-10.65-53.32-51.47-6.19-20.5-10.76-39.21-11.89-56.76h172.44Z" style="fill: red;"/>
      <path d="m211.04,133.85c-.21,3.44-1.72,7.99-9.57,7.42-3.96-.36-9.28-4.37-11.65-9.25-1.23-2.39-2-4.75-2.48-7.02h22.64c-.39,2.32,1.32,5.63,1.06,8.85Z" style="fill: #fa8d81;"/>
      <path d="m130.58,226.88c-.17.24-.36.49-.57.73-.17.19-.35.36-.55.52-.6.55-1.34,1.01-2.16,1.39-4.02,1.87-10.26,1.92-15.29-.18-5.69-2.25-10.78-5.76-15.41-10.5t-.02-.02c-5.88-6.03-11.01-14.05-15.67-24.04-9.39-20.53-15.38-46.92-15.21-69.78h30.98c2.46,6.99,5.31,14.46,8.29,21.9h0c4.36,10.87,9.02,21.66,13.25,30.85,6.61,14.74,10.97,23.91,10.63,27.97-.12,1.96-2.65,3.56-2.47,6.34.27,2.37,2.6,4.46,4.17,6.76,1.45,2.08,2.36,4.81.03,8.06Z" style="fill: #dc0000;"/>
      <path d="m207.54,211.62c-4.15,7.61-11.03,16.86-23.15,23.06-1.9.97-3.93,1.87-6.1,2.67-.62.23-1.25.44-1.9.65h-.01c-.74.23-1.5.44-2.27.64-.96.25-1.95.48-2.95.67h0c-6.28,1.21-13.21,1.26-20.02-.31-4.63-1.05-9.07-2.81-13.15-5.07-.23-.12-.46-.25-.68-.39h-.01c-.38-.21-.75-.43-1.12-.66h-.01c-2.37-1.43-4.62-3.02-6.7-4.75-1.03-.84-2.02-1.72-2.97-2.63-.07-.05-.13-.11-.19-.17-13.28-12.96-18.38-27.74-21.07-40.21-2.58-12.65-2.34-23.73-1.2-32.77.27-1.91.59-3.72.94-5.44h0c2.55-12.56,6.96-20.19,11.26-21.91h3.74c4.97,1.99,8.77,11.83,12.99,25.27,4.6,14.28,11.09,35.43,21.6,45.32,5.12,4.6,8.11,5.62,13.27,5.44,5.18-.28,11.7-3.62,17.06-7.52,10.96-7.96,18.68-16.37,24.15-14.23,4.9,1.74,7.74,13.99-1.5,32.34Z" style="fill: #dc0000;"/>
    </g>
    <g>
      <path d="m141.83,232.4c-.07,0-1.12.52-3.49,1.39-.12.05-.24.09-.36.14-.84.3-1.84.65-3,1.03-1.02.29-2.17.64-3.48.98-4.9,1.29-11.92,2.55-21.53.74-12.58-1.84-26.22-14.97-32.91-33.45-7.46-18.31-11.1-41.41-18.24-67.51-1.08-3.6-1.89-7.18-2.45-10.72h13c.46,2.39,1.05,4.81,1.77,7.25,7.43,27.36,10.24,50.08,16.06,67.25,2.43,7.85,5.65,14.31,9.38,19.32t.02.02c4.46,6.03,9.68,9.95,15.15,11.69,6.36,2.2,12.01,2.69,16.52,2.7.34,0,.67,0,.99-.01,2.06-.02,3.86-.14,5.35-.22.14-.01.28-.02.41-.03h.02c.39-.03.77-.06,1.12-.09h.01c3.89-.32,5.65-.52,5.66-.48Z"/>
      <path d="m242.93,125c-.63,2.99-1.45,5.97-2.48,8.94-6.58,26-8.95,49.17-15.19,67.78-5.43,18.65-17.38,33.02-29.84,36.06-9.32,2.59-16.36,1.84-21.31.86-.6-.12-1.17-.24-1.71-.36h-.01c-.73-.16-1.38-.32-2-.46-.28-.07-.54-.14-.8-.22h-.01c-4.25-1.16-6.06-1.96-6.15-1.96,0-.04,2.24.09,7.21.2,1.19,0,2.58,0,4.15-.04,2.73-.08,5.98-.33,9.6-1.12,2.73-.6,5.66-1.5,8.73-2.88,9.61-4.04,17.56-15.48,21.78-33.13,4.72-17.51,6.24-40.37,13.16-68,.64-1.91,1.19-3.8,1.67-5.67h13.2Z"/>
      <path d="m178.62,227c-.11-.07.3,2.43-2.52,6.96-2.58,4.23-10.3,11.56-24.11,10.94-13.57-1.04-20.38-8.07-23.16-12.32-2.79-4.61-2.24-7.16-2.36-7.08.5-.72,7.98,4.5,26.21,6.61,9.18.42,15.05-1.72,19.34-3.09,4.2-1.47,6.55-2.13,6.6-2.03Z"/>
    </g>
  </g>
</svg>