<?xml version="1.0" encoding="UTF-8"?>
<svg id="a" data-name="apple_top" xmlns="http://www.w3.org/2000/svg" width="300" height="250" viewBox="0 0 300 250">
  <rect width="300" height="125" style="fill: none;"/>
  <rect width="300" height="125" style="fill: none;"/>
  <g>
    <g>
      <path d="m237.06,107.18c0,4.95-.57,11.03-1.56,17.82H63.06c-1.22-18.87,1.55-36.4,10.53-53.37,17.35-32.75,55.06-18.99,61.86-16.37,1.81.7,3.37,1.56,4.81,2.43,1.86,1.13,3.51,2.26,5.23,3.06.04.02.08.04.13.06.58.26,1.17.49,1.79.65.8.24,1.64.37,2.54.39.64.01,1.31-.04,2.02-.17,0,0,.75-.44,2.16-1.14,1.22-.61,2.94-1.4,5.09-2.27,5.53-2.21,13.89-4.87,23.99-5.84,28.57-2.76,53.85,29.51,53.85,54.75Z" style="fill: red;"/>
      <path d="m170.06,6.3c-9.04,0-27.92,17.63-24.04,66.62,6.83,1.2,3.01,2.05,4.52-3.67,1.51-5.72,1.79-26.7,27.29-52.2,3.55-3.55.85-10.75-7.76-10.75Z" style="fill: #9d7c00;"/>
      <path d="m213.43,123.24c-.46.22-2.43-.35-3.15.82-.15.29-.25.6-.3.94h-22.64c-.46-2.22-.66-4.36-.73-6.37.1-8.44.77-13.18,2.62-13.79,2.31-2.25-2.78-6.66-2.4-10.21.07-1.85,1.16-3.69,3.72-4.94,2.39-1.24,7.16-1.88,12.44,1.58,5.36,3.5,8.1,9.74,9.32,14.39,1.25,4.77,1.53,8.95,1.64,12.15.05,3.22.05,5.02-.52,5.43Z" style="fill: #fa8d81;"/>
      <path d="m94.51,118.66c.68,2.06,1.41,4.17,2.17,6.34h-30.98c0-.87.02-1.74.04-2.6.18-7.39,1.14-14.44,2.9-20.5,1-3.48,2.27-6.63,3.81-9.33,4.05-7.74,10.74-9.84,12.28-7.55,1.89,2.37,1.77,5.71,3.27,11.14,1.28,5.44,3.37,13.27,6.51,22.5Z" style="fill: #dc0000;"/>
      <path d="m118.34,124.63c.56.03,1.1.15,1.63.37h-3.74c.71-.29,1.42-.41,2.11-.37Z" style="fill: #dc0000;"/>
    </g>
    <g>
      <path d="m145.84,60.14s-.13-.04-.3-.12c0,0-.03,0-.05-.02-.67-.31-2.34-1.13-5.23-2.31-.33-.14-.68-.28-1.04-.42-4.59-1.68-12.05-4.51-22.68-4.01-10.41.45-24.37,5.24-35.3,18.69-6.18,7.45-10.96,17.81-12.6,29.95-.98,7.16-.85,14.94.73,23.1h-13c-3.9-24.69,4.3-47.23,16.71-60.13,14.17-15.37,31.79-19.25,43.6-18.01,12.14,1.2,19.31,5.88,23.49,8.65,3.07,2.18,4.67,3.69,5.32,4.31.01,0,.03.03.04.04.18.17.28.27.31.28Z"/>
      <path d="m242.93,125h-13.2c5.85-22.96-.1-42.41-10.75-53.94-11.55-12.58-26.06-15.94-36.47-15.69-20.37,1.35-28.3,7.95-29.13,7.82-.05,0-.07-.03-.08-.07.01,0,.05-.03.12-.1.41-.39,1.99-1.99,5.51-4.55.09-.06.19-.13.29-.2,4.17-2.84,11.09-7.39,22.73-9.28,11.5-1.96,29.48-.08,44.79,14.55,13.83,12.44,21.46,36.82,16.19,61.46Z"/>
      <path d="m130.64,66.21c.33-.96,5.75,4.97,15.94,4.82,10.74-2.15,16.73-6.44,16.95-5.61-.05-.02.33,1.68-1.12,4.95-1.47,2.91-5.02,8.9-15.02,10.23-10.46.68-15.12-6.29-16.13-9.29-1.26-3.46-.54-5.12-.63-5.09Z"/>
      <path d="m146.67,69.16c1.21.54-1.41-25.59,12.88-46.88,8.32-11.33,11.53-15.86,11.22-16.18.41.32-6.85-.43-16.51,12.57-8.26,11.89-9.63,25.85-9.17,35.15.49,9.47,1.68,15.31,1.58,15.34Z"/>
      <path d="m151.14,72.51c.36.53,3.23-23.49,17.24-40.36,7.91-8.36,11.97-12.33,11.8-12.88-.01,0-1.34-.8-4.71-.88-3.14.15-8.98,1.36-14.25,7.36-9.29,10.78-11,23.75-11.28,32.41-.17,8.88,1.27,14.35,1.21,14.35Z"/>
      <path d="m171.31,5.89c.12-.18,1.87-.01,3.66,2.63.88,1.16,2.06,2.98,2.78,4.67.3,1.02.03.89.08.46.02-.04-.54.41-1.01.72-.8.23,1-.28,1.18.04-5.51-5.5-7.22-8.32-6.7-8.52.41-1.58-7.3,4.24,3.8,14.23,1.6,1.24,5.1.07,5.42-.62.72-.59,1.34-1.01,2.2-2.18,2.03-2.75.49-5.9-.32-6.88-1.91-2.41-3.72-3.57-5.48-4.47-3.6-1.99-5.99-.17-5.62-.1Z"/>
    </g>
  </g>
</svg>