<?xml version="1.0" encoding="UTF-8"?>
<svg xmlns="http://www.w3.org/2000/svg" width="300" height="250" viewBox="0 0 300 250">
  <g id="a" data-name="transparent">
    <rect width="300" height="250" style="fill: none;"/>
  </g>
  <g id="b" data-name="avacado">
    <g>
      <g>
        <path d="m163.79,211.35c3.08,9.02-4.23,19.68-16.33,23.81-12.1,4.13-24.4.16-27.48-8.86-3.08-9.02,4.23-19.68,16.33-23.81,12.1-4.13,24.4-.16,27.48,8.86Z" style="fill: #a98b00;"/>
        <path d="m125.28,215.72c.77.41.86,1.82,1.34,3.41.46,1.6,1.4,3.3,3.03,4.53,1.59,1.25,3.78,1.94,5.8,1.76,1.89-.13,4.72-1.09,7.14-2.17,4.19-1.91,7.39-3.37,9.84-3.72,2.44-.39,4.15.21,5.21,1.56,1.05,1.34,1.25,3.18-.1,5.55-1.38,2.32-4.2,5.3-9.96,7.94-3.47,1.45-7.74,2.87-13.11,2.21-5.21-.71-9.76-4-11.88-7.95-2.27-3.95-1.93-8.27-.72-10.53,1.21-2.34,2.71-2.98,3.41-2.58Z" style="fill: #987200;"/>
        <path d="m171.67,237.66c-12.11,4.13-21.04.95-24.61-7.29-4.64-10.69.75-18.96,12.43-23.72,4.66-1.89,11.97,3.34,15.54,11.58,3.44,7.94,2.64,17.39-3.36,19.43Z" style="fill: #a98b00;"/>
        <path d="m150.41,218.73c1.69.28,2.62,3.61,4.69,5.17,1.83,1.56,4.71,2.31,7.69,2.86,4.81.73,7.31,2.4,8.26,5.83.41,1.64.16,3.35-1.46,4.73-1.59,1.33-4.59,2.38-9.02,1.62-2.6-.48-5.53-1.58-8.12-3.56-2.59-1.94-4.7-4.95-5.34-7.89-.69-2.94-.12-5.39.68-6.83.8-1.47,1.81-2.07,2.62-1.93Z" style="fill: #9c7700;"/>
        <path d="m173.42,236.65c-4.47,1.94-10.99-3.17-14.57-11.4-3.58-8.24-2.85-16.49,1.62-18.43,4.47-1.94,10.99,3.17,14.57,11.4,3.58,8.24,2.85,16.49-1.62,18.43Z" style="fill: #a9c000;"/>
        <path d="m171.06,230.08c-2.34,1.02-5.89-1.98-7.94-6.69-2.04-4.71-1.8-9.35.54-10.36,2.34-1.02,5.89,1.98,7.94,6.69,2.04,4.71,1.8,9.35-.54,10.36Z" style="fill: #ccda6a;"/>
        <path d="m170.22,228.14c-1.27.55-3.59-1.94-5.16-5.58-1.58-3.63-1.82-7.03-.55-7.58,1.27-.55,3.59,1.94,5.16,5.58,1.58,3.63,1.82,7.03.55,7.58Z" style="fill: #faf0c2;"/>
      </g>
      <g>
        <g>
          <path d="m160.83,205.81s-1.2.53-3.21,1.69c-1.97,1.18-4.83,3.01-7.33,6.09-2.51,3-4.3,7.6-3.28,12.44.94,4.81,4.36,9.56,9.53,11.26,5.81,1.83,10.25.86,12.88.61,2.68-.41,3.83-.55,3.83-.53-.01-.02-.85.78-3.44,1.92-1.3.54-3.06,1.16-5.43,1.5-2.34.32-5.38.4-8.8-.77-6.26-2.05-10.25-8.04-10.98-13.58-.91-5.73,1.64-10.87,4.6-13.81,2.97-3.05,6.09-4.58,8.21-5.54,2.16-.93,3.42-1.27,3.42-1.29Z"/>
          <path d="m168.47,208.79c-.17-.1,5.75,4.58,7.53,14.98.38,2.52.52,5.41-.34,8.16-.72,2.81-3.33,4.99-6.28,3.92-2.88-.98-5.35-3.59-7.21-6.49-1.88-2.94-3.24-6.37-3.9-9.94-.73-3.99-.44-7.51.76-9.8,1.2-2.32,3.42-2.89,5.01-2.58,3.26.67,4.41,1.9,4.44,1.76-.09.14-.64-1.47-4.2-2.82-1.69-.71-5.07-.26-6.82,2.71-1.72,2.82-2.1,6.78-1.32,11.12.73,3.89,2.21,7.53,4.3,10.69,2.1,3.11,4.78,5.96,8.44,7.12,1.81.51,4.01.33,5.49-.89,1.52-1.15,2.31-2.8,2.73-4.36.84-3.16.52-6.17-.01-8.78-1.13-5.27-3.45-9.1-5.31-11.45-1.86-2.39-3.33-3.3-3.29-3.33Z"/>
          <path d="m164.49,214.55s-.26.91.23,2.16c.43,1.08,1.06,1.12,1.06,1.12,0,0,.44-.46.02-1.54-.49-1.25-1.31-1.74-1.31-1.74Z"/>
          <path d="m162.59,215.48s-.02.9.74,1.85c.66.82,1.27.65,1.27.65,0,0,.3-.55-.36-1.38-.76-.95-1.64-1.12-1.64-1.12Z"/>
          <path d="m162.57,219.29s.22.75,1.05,1.15c.72.35,1.14-.1,1.14-.1,0,0,.08-.6-.64-.95-.83-.4-1.55-.1-1.55-.1Z"/>
          <path d="m163.41,222.96s.59.4,1.27.14c.59-.22.53-.82.53-.82,0,0-.34-.49-.93-.27-.68.26-.86.94-.86.94Z"/>
          <path d="m165.15,227.16s.73-.25,1.08-1.09c.31-.73-.16-1.12-.16-1.12,0,0-.61-.05-.91.68-.35.84-.01,1.54-.01,1.54Z"/>
          <path d="m167.65,228.29s.54-.71.47-1.92c-.06-1.05-.66-1.25-.66-1.25,0,0-.56.28-.5,1.32.07,1.21.69,1.85.69,1.85Z"/>
          <path d="m170.49,230.04s.27-.91-.21-2.16c-.41-1.09-1.05-1.13-1.05-1.13,0,0-.45.46-.03,1.54.48,1.25,1.29,1.75,1.29,1.75Z"/>
          <path d="m171.48,226.93s.03-.9-.73-1.86c-.66-.84-1.26-.67-1.26-.67,0,0-.3.55.35,1.39.76.96,1.64,1.15,1.64,1.15Z"/>
          <path d="m172.74,224.3s-.21-.75-1.04-1.18c-.72-.37-1.15.07-1.15.07,0,0-.09.6.63.97.83.42,1.57.14,1.57.14Z"/>
          <path d="m171.11,220.23s-.57-.42-1.27-.19c-.6.2-.55.8-.55.8,0,0,.32.5.92.3.69-.23.9-.91.9-.91Z"/>
          <path d="m169.55,216.32s-.74.23-1.1,1.05c-.32.72.14,1.12.14,1.12,0,0,.6.07.92-.65.37-.83.04-1.52.04-1.52Z"/>
          <path d="m166.95,215.43s-.55.7-.49,1.9c.05,1.04.64,1.25.64,1.25,0,0,.57-.27.52-1.31-.06-1.2-.67-1.85-.67-1.85Z"/>
        </g>
        <path d="m161.17,206.59c-.03.06-1.21-1.65-4.26-3.33-3.02-1.69-8.13-2.71-14.05-1.51-5.78,1.28-12.94,3.9-17.97,9.56-2.45,2.81-4.08,6.52-3.92,10.41.12,3.86,1.99,7.78,5.14,10.27,3.58,2.82,7.62,3.49,10.83,3.62,3.26.11,5.88-.32,7.88-.67,4.01-.79,5.63-1.28,5.64-1.24-.02-.04-1.3,1.11-5.25,2.64-1.98.72-4.67,1.55-8.26,1.72-3.51.13-8.29-.38-12.65-3.81-3.85-3.05-6.04-7.81-6.1-12.46-.1-4.71,2.01-9.06,4.87-12.11,5.91-6.14,13.44-8.34,19.56-9.36,6.28-.89,11.56.57,14.51,2.55,3,1.97,3.99,3.78,4.04,3.73Z"/>
        <path d="m122.46,226.56c.14-.04-.87-.64-.41-2.4.21-.54,1.14-.65,1.55-.33.48.25.83.62,1.12,1.04.49.89,1.19,1.86.45,3.45-.28.49-1.06.68-1.43.5-.4-.13-.61-.34-.79-.52-.31-.38-.44-.71-.49-.98-.11-.53.01-.77,0-.77,0,0,.24.12.61.38.18.14.42.29.68.44.13.06.26.11.32.1.02.05.06.22-.09,0,.5-.81-.93-3.51-1.34-2.92-.57.9-.12,2.07-.19,1.99Z"/>
      </g>
    </g>
  </g>
</svg>