<?xml version="1.0" encoding="UTF-8"?>
<svg id="a" data-name="banana_text" xmlns="http://www.w3.org/2000/svg" width="300" height="250" viewBox="0 0 300 250">
  <path d="m113.71,98.46v.21c-.41.6-.91.9-1.51.9-.46,0-.86-.2-1.19-.61-.25-.98-2.05-2.58-5.42-4.79-3.37-2.21-5.6-3.31-6.69-3.31h-.74c-.38.03-.64.04-.78.04v1.59c0,.55.07,1.27.2,2.17.14,1.09.29,1.76.45,2,.49.65.74,1.06.74,1.23,0,.49-.19.89-.57,1.21-.38.31-.82.47-1.31.47-1.04,0-1.84-.37-2.41-1.1-.55-.65-.82-3.35-.82-8.1-.57,0-1.17-.18-1.8-.53-.71-.44-1.06-.9-1.06-1.39,0-1.01.91-1.73,2.74-2.17.11-.84.2-2,.29-3.48.05-1.66.12-2.82.2-3.48.16-.87.37-2.18.61-3.93h-.33c-1.09.03-1.64-.45-1.64-1.43,0-.84.33-1.38.98-1.59.46-.14.93-.27,1.39-.41.54-.49.97-.81,1.29-.96.31-.15.81-.22,1.49-.22.49,0,.74.22.74.65,0,.14.34.2,1.02.2,3.19,0,5.9.64,8.14,1.92,2.75,1.55,4.13,3.8,4.13,6.75,0,2.26-.71,4.13-2.13,5.6-.95,1.01-2.65,2.14-5.07,3.39,1.94,1.23,3.86,2.45,5.77,3.68,2.21,1.66,3.3,3.49,3.27,5.48Zm-5.56-18.32c0-1.74-.89-3.07-2.67-3.97-1.42-.74-3.09-1.1-5.01-1.1-.25,0-.83.04-1.77.12.03.98-.23,2.67-.78,5.07-.3,1.45-.51,3.56-.62,6.34,1.59.55,2.57.82,2.96.82.33,0,.81-.1,1.44-.29,1.81-.54,3.28-1.38,4.43-2.49,1.34-1.28,2.01-2.78,2.01-4.5Z" style="fill: #1d1d1b;"/>
  <path d="m130.06,95.56c0,1.36-.93,2.43-2.78,3.19-1.45.6-2.96.9-4.54.9-4.2,0-6.3-2.39-6.3-7.16,0-1.96.48-4.14,1.43-6.54,1.17-2.94,2.59-4.42,4.25-4.42,1.5,0,3.11.67,4.85,2,1.73,1.34,2.6,2.73,2.6,4.17,0,1.8-.8,3.23-2.41,4.29-1.42.95-3.11,1.43-5.07,1.43-.38,0-1-.23-1.84-.69.11,2.59.87,3.88,2.29,3.88,1.2,0,2.38-.34,3.54-1.02,1.16-.68,1.9-1.02,2.23-1.02,1.17,0,1.76.33,1.76.98Zm-4.46-7.73c0-.68-.2-1.33-.59-1.94-.4-.61-.92-.92-1.57-.92-.9,0-1.59.4-2.09,1.19-.41.68-.61,1.49-.61,2.41,0,.52.18.94.53,1.27.35.33.8.49,1.35.49,1.99,0,2.99-.83,2.99-2.5Z" style="fill: #1d1d1b;"/>
  <path d="m146.59,74.29c0,.6-.08,1.38-.25,2.33-.22,1.28-.35,2.04-.41,2.29-.08.85-.21,3.34-.39,7.48-.18,4.14-.27,6.43-.27,6.87,0,2.62.29,4.58.86,5.89-.46.76-1,1.15-1.59,1.15s-1.19-.24-1.68-.72-.76-1.03-.82-1.66c-1.28,1.17-2.59,1.76-3.93,1.76-1.99,0-3.53-.7-4.62-2.09-1.01-1.25-1.51-2.9-1.51-4.95,0-2.4.49-4.84,1.47-7.32,1.25-3.13,2.89-4.7,4.91-4.7,1.2,0,2.43.53,3.68,1.59.14-1.28.2-4.55.2-9.81,0-.49.37-.74,1.1-.74.87,0,1.63.22,2.27.65.64.44.96,1.09.96,1.96Zm-4.74,13.86c0-.93-.2-1.77-.61-2.54-.52-.93-1.2-1.39-2.04-1.39-1.23,0-2.17,1.21-2.82,3.64-.49,1.75-.74,3.46-.74,5.15,0,2.54.74,3.8,2.21,3.8s2.63-1.13,3.31-3.39c.46-1.53.7-3.28.7-5.28Z" style="fill: #1d1d1b;"/>
  <path d="m161.63,84.55c0,.84-.1,2.12-.31,3.81-.2,1.7-.31,2.99-.31,3.86,0,.76.03,1.9.1,3.41.07,1.51.1,2.63.1,3.37,0,.62-.53.94-1.6.94s-1.79-.52-2.08-1.55c-1.04.68-2.04,1.02-3.03,1.02-.79,0-1.69-.21-2.7-.63-1.01-.42-1.72-.93-2.13-1.53-.79-1.15-1.19-2.99-1.19-5.52,0-.87.03-2.4.08-4.58.08-1.94.11-3.45.08-4.54.83-.6,1.51-.9,2.06-.9,1.32,0,1.98.64,1.98,1.92,0,.44-.07,1.09-.2,1.96-.14.87-.21,1.53-.21,1.96v5.77c0,.65.18,1.34.53,2.04.44.82.95,1.23,1.55,1.23,1.17,0,2.04-.75,2.62-2.25.38-1.04.57-2.29.57-3.76v-4.91c0-.63-.16-1.4-.49-2.33.68-.63,1.34-.94,1.96-.94s1.25.2,1.78.61c.53.41.8.92.8,1.55Z" style="fill: #1d1d1b;"/>
  <path d="m177.99,94.54c0,.85-.64,1.84-1.92,2.99-1.15,1.06-2.17,1.73-3.09,2-.91.27-1.78.41-2.6.41-2.15,0-3.84-.68-5.05-2.04-1.21-1.36-1.82-3.12-1.82-5.28s.56-4.44,1.68-7.03c1.34-3.11,2.89-4.66,4.66-4.66.98,0,2.17.38,3.56,1.15,1.47.84,2.33,1.69,2.58,2.54.22.74.33,1.57.33,2.5,0,.84-.18,1.8-.53,2.86-.44,1.36-.98,2.04-1.64,2.04-.46,0-.9-.14-1.31-.41-.49-.3-.74-.66-.74-1.1,0-.03.12-.34.37-.94.14-.27.21-1.02.21-2.24,0-1-.04-1.65-.12-1.95-.16-.84-.55-1.26-1.14-1.26-1.34,0-2.37,1.16-3.11,3.47-.55,1.71-.82,3.44-.82,5.18,0,2.91.93,4.36,2.78,4.36.74,0,1.58-.38,2.54-1.14.87-.71,1.49-1.43,1.84-2.17.44-.87.97-1.31,1.59-1.31.41,0,.8.24,1.19.72.38.48.57.92.57,1.33Z" style="fill: #1d1d1b;"/>
  <path d="m193.53,95.56c0,1.36-.93,2.43-2.78,3.19-1.45.6-2.96.9-4.54.9-4.2,0-6.3-2.39-6.3-7.16,0-1.96.48-4.14,1.43-6.54,1.17-2.94,2.59-4.42,4.25-4.42,1.5,0,3.11.67,4.85,2,1.73,1.34,2.6,2.73,2.6,4.17,0,1.8-.8,3.23-2.41,4.29-1.42.95-3.11,1.43-5.07,1.43-.38,0-1-.23-1.84-.69.11,2.59.87,3.88,2.29,3.88,1.2,0,2.38-.34,3.54-1.02,1.16-.68,1.9-1.02,2.23-1.02,1.17,0,1.76.33,1.76.98Zm-4.46-7.73c0-.68-.2-1.33-.59-1.94-.4-.61-.92-.92-1.57-.92-.9,0-1.59.4-2.09,1.19-.41.68-.61,1.49-.61,2.41,0,.52.18.94.53,1.27s.8.49,1.35.49c1.99,0,2.99-.83,2.99-2.5Z" style="fill: #1d1d1b;"/>
  <path d="m208.99,95.03c0,1.28-.55,2.4-1.64,3.35-1.2,1.04-2.81,1.55-4.83,1.55-.87.03-1.81-.15-2.82-.53-3.27-1.23-4.91-2.22-4.91-2.99,0-1.2.86-1.8,2.58-1.8.25,0,.5.01.78.04.08.82.74,1.47,1.96,1.96,1.06.44,2.09.61,3.07.53.79-.05,1.19-.34,1.19-.86,0-.08-.02-.21-.06-.37-.04-.16-.06-.29-.06-.39s-.52-.31-1.55-.63c-1.17-.35-1.83-.56-1.96-.61-3.11-1.85-4.66-4.09-4.66-6.71,0-1.58.45-3.04,1.35-4.38,1.01-1.47,2.26-2.21,3.76-2.21,1.12,0,2.39.44,3.82,1.31,1.43.87,2.31,1.81,2.64,2.82.22.71.33,1.3.33,1.76,0,.49-.07.9-.2,1.23-.16.41-.33.82-.49,1.23-.52.35-1.04.53-1.55.53-.27,0-.73-.17-1.37-.51s-.96-.63-.96-.88c0-.11.16-.46.49-1.06.19-.35.29-.65.29-.9,0-1.64-.64-2.45-1.92-2.45-.76,0-1.35.49-1.76,1.47-.3.76-.45,1.58-.45,2.45,0,1.09.78,2.07,2.33,2.94,1.42.63,2.85,1.27,4.29,1.92,1.55.71,2.33,1.43,2.33,2.17Z" style="fill: #1d1d1b;"/>
  <path d="m128.06,133.81c-.52.52-1.2.78-2.04.78-.57,0-1.16-.35-1.76-1.06v-5.56c0-6.05-.87-9.08-2.62-9.08s-2.7,2.44-2.7,7.32v2.37c0,.41.07,1.03.2,1.86.14.83.2,1.45.2,1.86,0,.35-.21.67-.63.96-.42.29-.81.43-1.17.43-.68,0-1.26-.28-1.74-.84s-.72-1.18-.72-1.86l.16-23.67v-.61c0-.98.54-1.47,1.64-1.47.52,0,1.12.24,1.8.72.68.48,1.02.96,1.02,1.46,0,.6-.13,1.49-.39,2.67-.26,1.18-.39,2.07-.39,2.67,0,.77.03,1.98.08,3.65.6-.35,1.1-.53,1.51-.53,1.06,0,2.22.26,3.48.78,1.61.68,2.73,1.79,3.35,3.31.46,1.15.7,2.73.7,4.74v9.12Z" style="fill: #1d1d1b;"/>
  <path d="m143.56,129.56c0,1.36-.93,2.43-2.78,3.19-1.45.6-2.96.9-4.54.9-4.2,0-6.3-2.39-6.3-7.16,0-1.96.48-4.14,1.43-6.54,1.17-2.94,2.59-4.42,4.25-4.42,1.5,0,3.11.67,4.85,2,1.73,1.34,2.6,2.73,2.6,4.17,0,1.8-.8,3.23-2.41,4.29-1.42.95-3.11,1.43-5.07,1.43-.38,0-1-.23-1.84-.69.11,2.59.87,3.88,2.29,3.88,1.2,0,2.38-.34,3.54-1.02,1.16-.68,1.9-1.02,2.23-1.02,1.17,0,1.76.33,1.76.98Zm-4.46-7.73c0-.68-.2-1.33-.59-1.94-.4-.61-.92-.92-1.57-.92-.9,0-1.59.4-2.09,1.19-.41.68-.61,1.49-.61,2.41,0,.52.18.94.53,1.27.35.33.8.49,1.35.49,1.99,0,2.99-.83,2.99-2.5Z" style="fill: #1d1d1b;"/>
  <path d="m159.96,126.21c0,3.52-.11,6-.33,7.44-.14.84-.71,1.27-1.72,1.27-1.53,0-2.21-.76-2.04-2.29-1.36.65-2.78.98-4.25.98s-2.77-.35-4.05-1.06c-1.53-.84-2.29-1.92-2.29-3.23s.87-2.48,2.62-3.6c1.58-1.01,3.07-1.51,4.46-1.51h3.48v-.97c.03-2.84-.82-4.26-2.54-4.26-2.15,0-3.23,1-3.23,3,0,.67-.38,1.01-1.15,1.01-.46,0-.95-.21-1.45-.63s-.76-.87-.76-1.33c0-1.53.54-2.78,1.64-3.76,1.09-.98,2.4-1.47,3.93-1.47,5.12,0,7.69,3.48,7.69,10.43Zm-4.13,1.47c0-.54-.41-.82-1.23-.82-3.41,0-5.11.8-5.11,2.41,0,.87.75,1.31,2.25,1.31.93,0,1.8-.26,2.62-.78.98-.57,1.47-1.28,1.47-2.13Z" style="fill: #1d1d1b;"/>
  <path d="m173.9,119.09c0,.19-.03.49-.08.9-.57.82-1.17,1.23-1.8,1.23-.52,0-.98-.3-1.39-.9-.05-1.23-.49-1.84-1.31-1.84-.49,0-1.09,1.3-1.8,3.89-.33,1.14-.49,2.74-.49,4.78,0,1.94.09,3.11.27,3.52.2.52.31.87.31,1.06,0,.46-.21.84-.63,1.12-.42.29-.88.43-1.4.43-1.46,0-2.19-.68-2.19-2.04,0-.14.03-.33.1-.57.07-.25.1-.42.1-.53,0-1.39-.07-3.46-.2-6.2-.14-2.74-.21-4.79-.21-6.16,0-1.23.74-1.84,2.21-1.84.87,0,1.47.26,1.8.78.76-.84,1.62-1.27,2.58-1.27.65,0,1.28.18,1.88.53.41.22.89.69,1.43,1.41.55.72.82,1.29.82,1.7Z" style="fill: #1d1d1b;"/>
  <path d="m184.86,118.52c0,.74-1.12,1.25-3.35,1.55-.05.6-.08,1.96-.08,4.09v2.7c0,.55.08,1.35.25,2.41.16,1.06.25,1.85.25,2.37,0,.44-.22.83-.65,1.17-.44.34-.87.51-1.31.51-.68,0-1.25-.59-1.72-1.76-.35-.9-.53-1.77-.53-2.62v-8.67c-1.25-.19-1.98-.31-2.17-.37-.71-.22-1.06-.53-1.06-.94,0-.11.03-.23.08-.37.71-1.01,1.5-1.51,2.37-1.51h.25c.11.03.19.04.25.04.57,0,.84-.67.82-2v-2.99c-.14-.3-.2-.56-.2-.78,0-.35.21-.67.63-.96.42-.29.82-.43,1.2-.43.57,0,1.11.27,1.62.8.51.53.77,1.1.77,1.7,0,.65-.1,1.3-.31,1.94-.21.64-.29,1.3-.27,1.98v.16c2.13.22,3.19.87,3.19,1.96Z" style="fill: #1d1d1b;"/>
  <path d="m114.71,142.29c0,.6-.08,1.38-.25,2.33-.22,1.28-.35,2.04-.41,2.29-.08.85-.21,3.34-.39,7.48-.18,4.14-.27,6.43-.27,6.87,0,2.62.29,4.58.86,5.89-.46.76-1,1.15-1.59,1.15s-1.19-.24-1.68-.72-.76-1.03-.82-1.66c-1.28,1.17-2.59,1.76-3.93,1.76-1.99,0-3.53-.7-4.62-2.09-1.01-1.25-1.51-2.9-1.51-4.95,0-2.4.49-4.84,1.47-7.32,1.25-3.13,2.89-4.7,4.91-4.7,1.2,0,2.43.53,3.68,1.59.14-1.28.2-4.55.2-9.81,0-.49.37-.74,1.1-.74.87,0,1.63.22,2.27.65.64.44.96,1.09.96,1.96Zm-4.74,13.86c0-.93-.2-1.77-.61-2.54-.52-.93-1.2-1.39-2.04-1.39-1.23,0-2.17,1.21-2.82,3.64-.49,1.75-.74,3.46-.74,5.15,0,2.54.74,3.8,2.21,3.8s2.63-1.13,3.31-3.39c.46-1.53.7-3.28.7-5.28Z" style="fill: #1d1d1b;"/>
  <path d="m121.74,151.41c0,.49-.11,1.19-.33,2.08-.22.9-.33,1.6-.33,2.09v8.42c0,.52.16,1.34.49,2.45-.41.63-.87.94-1.36.94-1.73,0-2.68-.86-2.85-2.58-.27-3.19-.41-5.59-.41-7.2,0-2.7.11-4.96.33-6.79v-.41c0-.49.38-.74,1.13-.74.67,0,1.35.14,2.03.41.86.3,1.3.74,1.3,1.31Zm.37-5.73c0,.6-.2,1.09-.61,1.47-.41.38-.91.57-1.51.57-.71,0-1.37-.25-1.98-.74-.61-.49-.92-1.09-.92-1.8,0-.6.21-1.09.63-1.47.42-.38.95-.57,1.57-.57.74,0,1.39.24,1.96.72.57.48.86,1.08.86,1.82Z" style="fill: #1d1d1b;"/>
  <path d="m136.5,163.03c0,1.28-.55,2.4-1.64,3.35-1.2,1.04-2.81,1.55-4.83,1.55-.87.03-1.81-.15-2.82-.53-3.27-1.23-4.91-2.22-4.91-2.99,0-1.2.86-1.8,2.58-1.8.25,0,.5.01.78.04.08.82.74,1.47,1.96,1.96,1.06.44,2.09.61,3.07.53.79-.05,1.19-.34,1.19-.86,0-.08-.02-.21-.06-.37-.04-.16-.06-.29-.06-.39s-.52-.31-1.55-.63c-1.17-.35-1.83-.56-1.96-.61-3.11-1.85-4.66-4.09-4.66-6.71,0-1.58.45-3.04,1.35-4.38,1.01-1.47,2.26-2.21,3.76-2.21,1.12,0,2.39.44,3.82,1.31,1.43.87,2.31,1.81,2.64,2.82.22.71.33,1.3.33,1.76,0,.49-.07.9-.2,1.23l-.49,1.23c-.52.35-1.04.53-1.55.53-.27,0-.73-.17-1.37-.51-.64-.34-.96-.63-.96-.88,0-.11.16-.46.49-1.06.19-.35.29-.65.29-.9,0-1.64-.64-2.45-1.92-2.45-.76,0-1.35.49-1.76,1.47-.3.76-.45,1.58-.45,2.45,0,1.09.78,2.07,2.33,2.94,1.42.63,2.85,1.27,4.29,1.92,1.55.71,2.33,1.43,2.33,2.17Z" style="fill: #1d1d1b;"/>
  <path d="m151.39,163.56c0,1.36-.93,2.43-2.78,3.19-1.45.6-2.96.9-4.54.9-4.2,0-6.3-2.39-6.3-7.16,0-1.96.48-4.14,1.43-6.54,1.17-2.94,2.59-4.42,4.25-4.42,1.5,0,3.11.67,4.85,2,1.73,1.34,2.6,2.73,2.6,4.17,0,1.8-.8,3.23-2.41,4.29-1.42.95-3.11,1.43-5.07,1.43-.38,0-1-.23-1.84-.69.11,2.59.87,3.88,2.29,3.88,1.2,0,2.38-.34,3.54-1.02,1.16-.68,1.9-1.02,2.23-1.02,1.17,0,1.76.33,1.76.98Zm-4.46-7.73c0-.68-.2-1.33-.59-1.94-.4-.61-.92-.92-1.57-.92-.9,0-1.59.4-2.09,1.19-.41.68-.61,1.49-.61,2.41,0,.52.18.94.53,1.27.35.33.8.49,1.35.49,1.99,0,2.99-.83,2.99-2.5Z" style="fill: #1d1d1b;"/>
  <path d="m167.79,160.21c0,3.52-.11,6-.33,7.44-.14.84-.71,1.27-1.72,1.27-1.53,0-2.21-.76-2.04-2.29-1.36.65-2.78.98-4.25.98s-2.77-.35-4.05-1.06c-1.53-.84-2.29-1.92-2.29-3.23s.87-2.48,2.62-3.6c1.58-1.01,3.07-1.51,4.46-1.51h3.48v-.97c.03-2.84-.82-4.26-2.54-4.26-2.15,0-3.23,1-3.23,3,0,.67-.38,1.01-1.15,1.01-.46,0-.95-.21-1.45-.63-.5-.42-.76-.87-.76-1.33,0-1.53.54-2.78,1.64-3.76,1.09-.98,2.4-1.47,3.93-1.47,5.12,0,7.69,3.48,7.69,10.43Zm-4.13,1.47c0-.54-.41-.82-1.23-.82-3.41,0-5.11.8-5.11,2.41,0,.87.75,1.31,2.25,1.31.93,0,1.8-.26,2.62-.78.98-.57,1.47-1.28,1.47-2.13Z" style="fill: #1d1d1b;"/>
  <path d="m184.39,163.03c0,1.28-.55,2.4-1.64,3.35-1.2,1.04-2.81,1.55-4.83,1.55-.87.03-1.81-.15-2.82-.53-3.27-1.23-4.91-2.22-4.91-2.99,0-1.2.86-1.8,2.58-1.8.25,0,.5.01.78.04.08.82.74,1.47,1.96,1.96,1.06.44,2.09.61,3.07.53.79-.05,1.19-.34,1.19-.86,0-.08-.02-.21-.06-.37-.04-.16-.06-.29-.06-.39s-.52-.31-1.55-.63c-1.17-.35-1.83-.56-1.96-.61-3.11-1.85-4.66-4.09-4.66-6.71,0-1.58.45-3.04,1.35-4.38,1.01-1.47,2.26-2.21,3.76-2.21,1.12,0,2.39.44,3.82,1.31,1.43.87,2.31,1.81,2.64,2.82.22.71.33,1.3.33,1.76,0,.49-.07.9-.21,1.23-.16.41-.33.82-.49,1.23-.52.35-1.04.53-1.55.53-.27,0-.73-.17-1.37-.51-.64-.34-.96-.63-.96-.88,0-.11.16-.46.49-1.06.19-.35.29-.65.29-.9,0-1.64-.64-2.45-1.92-2.45-.76,0-1.35.49-1.76,1.47-.3.76-.45,1.58-.45,2.45,0,1.09.78,2.07,2.33,2.94,1.42.63,2.85,1.27,4.29,1.92,1.55.71,2.33,1.43,2.33,2.17Z" style="fill: #1d1d1b;"/>
  <path d="m199.28,163.56c0,1.36-.93,2.43-2.78,3.19-1.45.6-2.96.9-4.54.9-4.2,0-6.3-2.39-6.3-7.16,0-1.96.48-4.14,1.43-6.54,1.17-2.94,2.59-4.42,4.25-4.42,1.5,0,3.11.67,4.85,2,1.73,1.34,2.6,2.73,2.6,4.17,0,1.8-.8,3.23-2.41,4.29-1.42.95-3.11,1.43-5.07,1.43-.38,0-1-.23-1.84-.69.11,2.59.87,3.88,2.29,3.88,1.2,0,2.38-.34,3.54-1.02,1.16-.68,1.9-1.02,2.23-1.02,1.17,0,1.76.33,1.76.98Zm-4.46-7.73c0-.68-.2-1.33-.59-1.94-.4-.61-.92-.92-1.57-.92-.9,0-1.59.4-2.09,1.19-.41.68-.61,1.49-.61,2.41,0,.52.18.94.53,1.27s.8.49,1.35.49c1.99,0,2.99-.83,2.99-2.5Z" style="fill: #1d1d1b;"/>
</svg>