<?xml version="1.0" encoding="UTF-8"?>
<svg xmlns="http://www.w3.org/2000/svg" width="300" height="250" viewBox="0 0 300 250">
  <g id="a" data-name="background_bottom">
    <rect y="125" width="300" height="125" style="fill: #ffedc2;"/>
  </g>
  <g id="b" data-name="banana_bottom">
    <g>
      <g>
        <path d="m213.17,125c-33.29,17.75-85.38,23.58-125.53,13.59-1.19-.29-2.36-.6-3.53-.92-3.59-1-7.07-2.12-10.42-3.39-1.36-.51-2.7-1.04-4.01-1.6-2.04-.86-4.02-1.77-5.94-2.74-3.18-1.61-6.21-3.25-9.08-4.94h158.51Z" style="fill: #ffdc00;"/>
        <path d="m173.41,125c-7.72,5.1-22.06,9.72-44.88,10.01-2.33.04-4.77.03-7.29-.04-2.85-.09-5.77-.27-8.75-.55-4.3-.4-8.71-1-13.17-1.8-9.3-1.67-18.8-4.21-27.91-7.62h102Z" style="fill: #ebbd00;"/>
        <path d="m257.47,125c-.73,2.45-1.51,5.06-2.33,7.82-13.6,45.54-102.75,86.99-160.49,76.81-51.09-9.01-71.47-35.18-73.97-55.78-.32-2.68-.34-5.27-.09-7.71,5.97-8.91,14.28-14.02,28.47-14.22.97-.02,1.97-.01,3,.03,3.29.1,6.88.44,10.8,1.04,2.79.42,6.49.89,10.83,1.29,2.43.22,5.07.43,7.87.59,9.17.53,20.02.62,30.93-.45,12.62-1.23,25.3-4.01,35.52-9.42h109.46Z" style="fill: #ffe800;"/>
        <path d="m247.47,125c-4.49,8.55-10.59,18.03-18.64,27.66-13.04,15.45-31.84,30.08-53.46,39.1-21.54,9.2-45.22,12.83-66.04,12.02-35.33-1.47-58.18-13.09-70.06-23.75-12.26-11.09-11.94-21.02-8.35-22.13,3.84-1.62,8.02,1.05,19.3,5.34,11.25,4.15,30.45,10.97,60.09,12.21,17.48.67,37.21-1.61,55.62-8.05,18.46-6.29,35.33-16.83,48.52-28.71,5.05-4.55,9.6-9.18,13.67-13.69h19.35Z" style="fill: #f0c700;"/>
      </g>
      <path d="m155.61,125c-1.48.78-2.98,1.52-4.49,2.22-7.53,3.51-15.12,6.03-22.59,7.79-14.45,3.41-28.47,4.01-40.89,3.58-2.11-.07-4.17-.17-6.18-.3-.08-.01-.15-.01-.23-.02-6.88-.67-13.25-1.61-19.08-2.36-11.34-1.46-20.66-2.26-27.75.8-9.58,3.77-12.95,9.71-13.65,10.48.6-.77,3.29-7.06,13.06-11.91,4.16-2.24,9.35-3.14,15.25-3.36.92-.04,1.85-.05,2.81-.06,5.47-.03,11.48.4,17.81.82,3.18.21,6.45.42,9.77.56.71.03,1.43.06,2.14.08,5.63,0,11.58-.18,17.73-.7,11.55-.98,23.8-3.15,35.91-7.62h20.38Z" style="fill: #baab70;"/>
      <path d="m266.42,125c-4.15,10.36-10.31,21.44-19.02,32.68-22.59,29.44-55.46,49.06-87.83,55.53-32.43,6.01-62.56,4.24-86.83-3.63-24.42-7.83-40-23.93-46.17-36.66-6.03-11.94-6.13-19.99-6.25-20.95.05.23.15.87.36,1.88.68,3.12,2.5,9.71,7.69,18.03,7.11,11.78,22.9,25.53,46.27,31.34,22.98,5.91,52.69,5.85,82.42-.92,29.7-7.21,59.06-25.72,79.86-52.77,6.59-8.5,11.79-16.76,15.84-24.53h13.66Z" style="fill: #baab70;"/>
      <path d="m84.41,137.64s-.1-.02-.3.03c-.45.11-1.4.39-2.88.6-3.42.48-9.68.63-19.08-2.36-3.03-.96-6.39-2.25-10.09-3.96-.06-.03-.12-.06-.19-.09-1.17-.54-2.38-1.13-3.63-1.77-2.97-1.53-5.81-3.24-8.52-5.09h26.92c5.81,3.38,9.98,6.16,12.81,8.24.81.61,1.51,1.15,2.11,1.63,2.03,1.63,2.88,2.59,2.85,2.77Z" style="fill: #baab70;"/>
    </g>
  </g>
</svg>