<?xml version="1.0" encoding="UTF-8"?>
<svg xmlns="http://www.w3.org/2000/svg" width="300" height="250" viewBox="0 0 300 250">
  <g id="a" data-name="background_top">
    <rect width="300" height="125" style="fill: #ffedc2;"/>
  </g>
  <g id="b" data-name="banana_top">
    <g>
      <g>
        <path d="m290.27,38.22c-.09.08-.17.16-.24.24-.15.16-.31.31-.46.46-.71.69-1.45,1.38-2.08,2.06-2.44,2.51-5.19,5.87-6.94,11.05-.03.07-.06.14-.08.22,0,0-.43.32-1.29,1.05-1.06.9-2.76,2.43-5.08,4.77-.67.68-1.4,1.43-2.18,2.26-6.92,7.33-17.89,20.42-32.35,42.35-5.76,8.74-14.97,16.23-26.4,22.32H54.66C14.53,101.53,3.9,71.31,7.93,52.07c.42-2.05,1.02-3.97,1.76-5.75,1.76-1.44,3.6-2.65,5.56-3.62,9.91-4.92,22.59-3.67,40.17,4.68,16.3,7.74,67.74,28.04,96.87,12.39,29.14-15.64,72.96-31.97,88.99-27.14,16.03,4.83,26.69,3.51,29.86-3.45,7.62-16.75,20.99-.09,21.59,4.6.2,1.53-.85,2.84-2.46,4.44Z" style="fill: #ffdc00;"/>
        <path d="m173.41,125h-102c-12.66-4.74-24.54-11.16-33.97-19.26-22.44-18.46-26.45-40.75-22.9-41.6,3.74-1.66,13.69,14.5,34.3,25.12,20.16,11.26,49.67,16.62,73.63,17.39,20.92.53,34.77.3,43.72,1.03.85.08,1.65.16,2.42.25,4.09.48,6.96,1.25,8.9,2.55,1.26.84,2.12,1.91,2.67,3.26,1.4,2.71-.53,7.14-6.77,11.26Z" style="fill: #ebbd00;"/>
        <path d="m282.73,57.4s0,.06-.01.09c0,.35-.07.75-.16,1.18-1.56,7.43-13.26,25.8-13.26,25.8,0,0-.49,2.47-11.83,40.53h-109.46c4.2-2.22,7.99-4.9,11.19-8.09,2.94-2.94,6.1-5.96,9.41-8.98,23.01-21.07,53.33-42.68,67.96-42.68,16.74,0,27.03-4.81,29.26-12.12,4.49-14.68,11.09-6.93,14.64-.88.11.19.22.39.33.58.01.01.02.03.02.04h0c.22.4.43.78.62,1.14,0,0,.01,0,.01.02.48.91.86,1.7,1.11,2.26.13.29.18.66.17,1.11Z" style="fill: #ffe800;"/>
        <path d="m247.47,125h-19.35c17.32-19.19,26.08-36.14,29.29-34.6,2.17.66.22,15.24-9.94,34.6Z" style="fill: #f0c700;"/>
      </g>
      <path d="m282.63,57.17c-.12-.12-1.07-1.15-2.91-3.29-.17-.18-.35-.38-.54-.58-.92-1.01-2.05-2.22-3.45-3.51-1.6-1.58-4.38-2.9-4.42-1.64-3.13,2.55-.15,16.93-16.78,22.64-11.85-1.82-23.48.51-37.63,6.99-12.68,6.06-21.29,15.18-31.58,25.82-2.53,2.4-5.14,4.7-7.81,6.88-6.93,5.67-14.3,10.55-21.9,14.52h-20.38c4.1-1.5,8.18-3.27,12.22-5.34,6.45-3.32,12.73-7.33,18.74-11.98,4.32-3.32,8.49-6.97,12.5-10.92,8.7-9.41,19.97-21.6,33.82-27.91,15.09-7.42,31.63-9.31,41.59-6.45,2.03.18,6.02-3.93,7.66-7.05,1.89-3.1,2.54-7.65,6.26-10.94,2.16-2.04,5.81-1.16,7.01-.01,1.41,1.12,2.29,2.27,3.07,3.31,1.09,1.65,1.86,3.1,2.45,4.32.11.21.21.42.3.62.01.03.02.05.03.07h0c.05.12.1.21.15.31.15.35.29.68.41.98,0,0,.01,0,.01.02.83,2.01,1.15,3.02,1.18,3.14Z" style="fill: #baab70;"/>
      <path d="m275.86,79.65c-.8,1.86-1.62,3.88-2.27,5.89-.79,2.4-.45,2.21-.25,6.07.21,5.97-.63,12.5-2.38,19.52-1.12,4.43-2.62,9.07-4.54,13.87h-13.66c3.14-6.02,5.59-11.75,7.46-17.06,2.13-6.09,3.52-11.68,4.05-16.59-.05-1.57.57-6.95,2.06-8.86,1.25-2.37,2.51-4.29,3.72-6.04,7.55-10.11,11.51-15.52,12.51-17.78.27-.62.33-1,.16-1.18-.02-.04-.07-.07-.12-.09.05,0,.09,0,.13,0,1.23.24-.04,7.96-6.87,22.25Z" style="fill: #baab70;"/>
      <path d="m282.07,58.91s-1.23.9-3.4,1.9c-1.06.43-2.45,1.2-4.56.78-2.3-.46-3.53-2.93-3.81-4.68-.61-4.23,1.55-5.24,1.4-5.27.12-.05,1.37,1.46,1.85,4.61.36,2.96,2,3.21,4.71,2.95,2.28-.17,3.81-.3,3.81-.29Z" style="fill: #baab70;"/>
      <path d="m280.68,53.09c.23.18.4-4.76,6.27-11.5,1.36-1.63,3.56-3.33,4.75-5.08.87-.49-2.21-3.84-3.74-6-1.89-2.37-4.2-5.08-6.85-6.48-2.62-1.57-4.04.22-6.29,3.88-2.02,3.72-5.36,7.8-9.85,10.55-2.38,1.26-5.13,2.69-8.99,2.09-2.11-.7-3.62-1.59-4.09-1.78-.95-.42-2.06-.78-3.17-1.14-9.2-2.63-20.23-3.08-31.52-1-11.64,2.12-22.19,7.28-34.44,14.81-12.48,7.11-27.13,12.73-43.33,15.35-58.01,6.91-87.94-20.99-105.66-23.47-9.23-1.92-15.57.08-19.15,1.71-3.61,1.69-5.01,2.57-5.03,2.51.04.05.97-1.27,4.26-3.86,3.19-2.48,9.91-6.14,20.61-5.29,10.75.4,23.45,7.25,39.54,12.17,16.62,4.8,37.97,10.17,63.93,6.38,14.84-2.41,28.39-7.4,40.28-13.88,11.61-6.91,25.03-13.12,37.6-14.73,12.69-1.82,24.68-.79,35.08,2.82,1.31.5,2.6,1,3.9,1.68,1.72,1.04,2.41,1.29,2.59,1.49,1.08.3,3-.21,4.72-1.04,3.58-1.97,6.33-4.66,8.56-8.11,1.26-1.73,2.56-3.69,4.92-5.1,2.45-1.58,5.89-.89,7.54.39,3.67,2.44,5.56,5.46,7.41,8.15.93,1.35,1.69,2.7,2.44,3.98.52.75,2.25,3.37.71,5.1-2.1,2.45-4.05,3.42-5.61,4.95-6.25,5.74-7.17,10.58-7.37,10.4Z" style="fill: #baab70;"/>
      <path d="m66.64,125h-26.92c-17.82-12.15-29.84-30.33-32.57-45.32-3.54-16.6.59-27.02.77-27.75.01.02.01.07.01.14-.02,1.48-.4,12.13,5.54,25.57,6.13,14.7,21.1,30.27,41.18,40.82,4.61,2.37,8.58,4.56,11.99,6.54Z" style="fill: #baab70;"/>
    </g>
  </g>
</svg>