<?xml version="1.0" encoding="UTF-8"?>
<svg xmlns="http://www.w3.org/2000/svg" width="300" height="250" viewBox="0 0 300 250">
  <g id="a" data-name="transparent">
    <rect width="300" height="250" style="fill: none;"/>
  </g>
  <g id="b" data-name="cherry">
    <g>
      <g>
        <path d="m92.54,196.45c0,6.42-5.32,11.63-11.88,11.63s-11.88-5.21-11.88-11.63,5.32-11.63,11.88-11.63,11.88,5.21,11.88,11.63Z" style="fill: #f00000;"/>
        <path d="m88.99,194.87c.59,1.05-.61,2.99-3.35,3.29-1.34.15-2.81-.43-3.46-1.26-.69-.82-.57-1.65-.15-2.04.46-.45,1.09-.56,1.61-.78.53-.2.93-.33,1.63-.4,1.37-.1,3.13.09,3.71,1.18Z" style="fill: #ff6558;"/>
        <path d="m74.72,189.74c1.12.6,1.28,2.45,1.64,4.33.17.94.48,1.79.86,2.34.37.56.81.99,1.58,1.63,1.61,1.25,4.16,2.32,5.91,3.05,1.81.8,2.93,1.29,3.77,2.24,2,2.31-6.55,7.97-15.18,1.8-2.09-1.59-3.75-4.15-4.1-6.67-.4-2.51.22-4.58.99-5.93,1.6-2.73,3.5-3.36,4.53-2.8Z" style="fill: #d20000;"/>
        <path d="m110.86,201.26c0,6.55-5.62,11.87-12.55,11.87s-12.55-5.31-12.55-11.87,5.62-11.87,12.55-11.87,12.55,5.31,12.55,11.87Z" style="fill: red;"/>
        <path d="m97.53,159.65c-.85-.15-1.63-.56-1.46.38.17.95.59,1.02.59,1.02,0,0-.31,3.18-2.45,7.96-2.14,4.79-7.37,15.6-12.29,20.52.85.61,1.67-.33,2.67-1.33,1-1,8.98-12.74,13.02-23.51,1.02,5.8,1.94,18.18,1.83,22.55-.11,4.36-1.76,7.46-1.76,7.46l2.56.07s1.35-13.67.24-20.33c-1.11-6.66-1.33-9.79-1.33-10.78s-.39-3.8-1.6-4.02Z" style="fill: #9d7c00;"/>
        <path d="m89.68,195.69c1.22.33,1.86,1.93,2.79,3.37.92,1.47,1.99,2.56,3.68,3.73,1.72,1.17,3.66,1.91,5.11,2.37,1.45.55,2.94.57,3.89,1.4.92.71.57,3.18-2.43,4.78-2.87,1.56-7.59,1.6-11.58-1.09-4.13-2.61-5.81-7.77-5.01-10.75.67-3.07,2.43-4.14,3.54-3.81Z" style="fill: #dc0000;"/>
        <path d="m106.39,197.54c.55-.18,1.37.14,1.51,1.33.13,1.19-.7,2.48-1.67,3.09-2.01,1.27-3.86.53-4.11-.65-.28-1.21.7-2.46,1.61-3.08.47-.33.72-.29,1.11-.21.43.08.95-.31,1.54-.48Z" style="fill: #ff887c;"/>
      </g>
      <g>
        <path d="m91.32,190.76s-1.46-1.84-3.55-3.22c-1.16-.77-1.45-1.29-1.44-1.32-.02.02.65-.22,1.92.62,2.3,1.55,3.08,3.96,3.07,3.91Z"/>
        <path d="m85.23,185.77s-.98-.34-2.78-.45c-1.76-.08-4.46-.04-7.14,1.36-2.69,1.35-4.86,4.38-5.15,8.21-.51,3.7,1.32,7.79,4.8,9.99,3.93,2.41,7.38,2.14,9.34,1.93,2.03-.3,2.92-.59,2.93-.55-.02-.04-.47.84-2.52,1.89-1.92.93-6.22,2.16-11.27-.91-4.41-2.74-6.56-8.22-5.62-12.66.59-4.46,3.7-8.03,6.91-9.16,3.21-1.23,6-.85,7.78-.52,1.81.38,2.71.91,2.72.88Z"/>
        <path d="m99.39,189.35s-1.62-.15-4.33.55c-2.59.64-6.6,2.81-7.77,7.49-.53,2.26-.63,4.95.36,7.39.95,2.46,2.95,4.67,5.58,5.91,2.6,1.25,5.83,1.49,8.73.49,2.88-.98,5.46-3.22,6.62-6.15,1.29-3.25.82-6.57-.03-8.8-.92-2.28-2.42-3.69-3.7-4.59-2.64-1.75-4.09-2.04-4.04-2.11-.02.1,1.41-.4,4.72.89,1.6.68,3.73,2.08,5.17,4.82,1.33,2.71,2.12,6.57.48,10.85-1.49,3.75-4.78,6.51-8.38,7.64-3.62,1.16-7.53.72-10.63-.93-3.11-1.62-5.36-4.4-6.32-7.37-.99-3-.67-5.97.1-8.45,1.72-5.2,6.33-7.11,9.01-7.51,2.84-.45,4.43-.07,4.42-.12Z"/>
        <path d="m85.61,189.61c.29-.04-1.68,2.47-4.65.92-.79-.5-.9-1.32-.77-1.7.15-.41.39-.54.39-.54.05.05,1.01.22,1.51.47,1.25.86,3.55,1.06,3.52.85Z"/>
        <path d="m101.76,193.32c-.02-.06.24.76-.61,1.6-.75.81-2.5,1.36-4.07.6-1.74-.98-1.01-2.28-1.05-2.19.04-.03,1.08-.15,1.96.29.83.41,1.84.57,2.61.4.79-.13,1.16-.71,1.17-.7Z"/>
        <path d="m81.43,189.95s2.12-1.86,4.37-5.59c2.29-3.68,4.96-8.97,7.43-14.71,2.79-6.44,3.61-8.57,3.5-8.63.14-.08.64,2.64-2.21,9.18-2.51,5.82-5.52,11.02-8.14,14.55-2.58,3.6-4.95,5.23-4.95,5.2Z"/>
        <path d="m97.67,164.66c-.11-.07-2.7,9.83-8.9,19.62-3.65,5.52-6.55,5.75-6.4,5.74-.02-.08,1.58-1.45,5-6.67,6.02-9.47,10.2-18.76,10.3-18.69Z"/>
        <path d="m97.32,162.8c-.09-.01,1.76,11,1.53,23.34-.18,6.91-1.44,8.92-1.42,8.95-.11.16,2.63-1.64,2.82-8.9.22-12.67-3.03-23.41-2.93-23.4Z"/>
        <path d="m96.73,161.01s-.29-.12-.65-.75c-.29-.35.17-1.09.84-1.03.61-.03,1.33.25,1.91.89.58.64.89,1.66.79,2.75-.13,1.01-.07,1.99.14,3.23.42,2.42,1.18,5.44,1.58,9.16.78,7.44.12,12.36-.26,15.35-.44,3-.79,4.13-.78,4.13-.01,0,0-1.18.08-4.19.04-3,.33-7.86-.43-15.13-.39-3.64-1.05-6.6-1.36-9.15-.16-1.25-.13-2.54.08-3.49.15-.89-.01-1.67-.39-2.2-.72-1.11-2.27-1.11-1.99-.37.19.59.48.8.44.82Z"/>
      </g>
    </g>
  </g>
</svg>