<?xml version="1.0" encoding="UTF-8"?>
<svg xmlns="http://www.w3.org/2000/svg" width="300" height="250" viewBox="0 0 300 250">
  <g id="a" data-name="transparent">
    <rect width="300" height="250" style="fill: none;"/>
  </g>
  <g id="b" data-name="green">
    <g>
      <g>
        <path d="m37.16,202.03c-2.03-.36-15.33-5.21-18.78,10.59-3.44,15.8,7.63,29.88,19.76,27.53,9.8.5,18.23-3.16,19.4-18.11,1.18-14.96-5.92-24.52-18.31-20.47-1.23.22-2.07.46-2.07.46Z" style="fill: #95c000;"/>
        <path d="m33.96,191.43c-.77-.41-3.05,1.11-1.83,2.32,1.22,1.22,6.16.98,6.16,12.32,0,1.35.99,1.21.99-.74s.68-10.71-5.32-13.91Z" style="fill: #9d7c00;"/>
        <path d="m23.11,209.8c1.49.68.98,4.83,2.57,9.52.77,2.34,2,4.87,3.71,6.94,1.58,2.12,4.05,3.48,4.63,3.36.15.02.17,0,.26,0h.03s.02,0,.02,0l.35-.14c.46-.18.94-.32,1.43-.43.97-.21,1.91-.26,2.7-.21,3.15.36,3.86.86,4.12.92.15.14.27.32.87.19.55-.12,1.25-.46,1.9-.8,2.68-1.52,4.81-2.51,6.18-1.62,1.28.83,1.9,3.1-.08,7.07-.55.99-1.29,2.11-2.6,3.27-1.25,1.14-3.51,2.39-6.1,2.54-2.49.15-4.62-.43-4.65-.25.03-.87-.05-1.46-.08-1.55,0-.02-.01-.02.05.12l.02.04v.02s.01,0,.01,0h0c.26.58-.57-1.29.58,1.31l-.28.12-.57.22c-1.51.57-3.28.86-4.96.72-3.4-.26-6.1-1.77-8.12-3.43-2.03-1.7-3.52-3.65-4.65-5.66-2.27-4.01-3.06-8.29-2.91-11.9.38-7.45,4.3-11.12,5.56-10.37Z" style="fill: #86ae00;"/>
        <path d="m43.74,215.32c.22-.98.94-1.79,1.18-2.57.27-.75.51-1.4.99-2,.91-1.32,2.23-.72,4.26-1.34,2.06-.73,3.88,2.91,1.36,5.88-1.17,1.52-3.38,2.6-5.26,2.39-1.92-.19-2.75-1.44-2.52-2.36Z" style="fill: #bde42d;"/>
      </g>
      <g>
        <path d="m38.99,205.31s.23-1.3.33-3.38c.09-2.05-.22-5.12-2.03-7.74-2.13-2.86-3.71-2.72-3.62-2.79-.07.07.66,1.04,2.5,3.55,1.61,2.3,2.23,5,2.47,7.01.24,2.02.32,3.36.34,3.35Z"/>
        <path d="m38,206.05s.29-1.21.24-3.16c-.07-1.91-.46-4.76-2.5-7.12-1.16-1.32-2.43-1.59-3.12-1.63-.74,0-1.03.18-1.03.17-.04.12.87.95,2.64,2.81,3.11,3.75,3.69,9.05,3.77,8.93Z"/>
        <path d="m33.55,191.36c.08-.02-.45-.41-1.23.03-.38.2-.78.46-1.2.99-.18.22-.51.89-.07,1.49.19.25.32.34.48.47.07.15.82.4,1.17.13,2.42-2.18.77-3.45.85-3.11.13.06-.25.61-1.43,1.97.12.2.09.34.1.23.01-.08.05-.11.13-.29,0,0,0,0-.03-.02-.1-.07-.23-.17-.23-.16-.03,0-.13.08-.14.07.03-.03.15,0,.12-.01-.02-.02.01-.11.03-.19.17-.38.43-.78.63-1.03.41-.58.79-.61.82-.57Z"/>
        <path d="m38.51,201.68s1.27-.55,3.69-1.03c2.33-.43,6.32-.84,10.17,1.83,3.84,2.65,6.04,8.09,6.33,13.77.17,2.87-.06,5.89-.69,8.88-.62,2.97-1.49,6.06-3.12,8.95-1.81,3.27-4.55,5.4-7.01,6.22-2.47.88-4.5.84-5.98.73-2.97-.31-4.03-.93-4.04-.89,0-.04,1.21-.09,4-.46,2.66-.45,7.49-1.2,10.68-6.94,2.69-5.1,3.91-11.15,3.88-16.4-.04-5.29-1.71-10.21-4.87-12.79-3.16-2.62-6.95-2.68-9.29-2.48-2.41.23-3.74.65-3.75.62Z"/>
        <path d="m36.87,202.01s-1.24-.62-3.66-1.05c-2.36-.38-6.25-.61-10.13,1.84-3.97,2.38-6.41,7.89-6.44,13.59-.05,5.63.81,12,4.33,17.6,2,3.1,4.58,5.12,6.94,6.12,2.38,1.02,4.43,1.13,5.93,1.04,3.01-.29,4-1.08,4.01-1.02,0-.06-1.22.06-3.95-.33-2.64-.45-7.1-1.78-10.66-7.27-3.1-4.88-4.14-10.83-4.32-16.12-.19-5.27,1.61-10.1,4.93-12.5,3.26-2.47,6.97-2.68,9.3-2.53,2.4.18,3.71.66,3.71.63Z"/>
        <path d="m41.14,204.64s.07.35-.22,1.04c-.23.56-1.14,2.09-3.43,1.91-2.04-.4-2.72-1.44-3.15-1.99-.4-.61-.43-.96-.43-.96,0,0,.36-.03,1.02.14.65.14,1.67.6,2.81.8,1.04.14,1.81-.33,2.44-.59.6-.27.95-.36.96-.35Z"/>
      </g>
    </g>
  </g>
</svg>