<?xml version="1.0" encoding="UTF-8"?>
<svg xmlns="http://www.w3.org/2000/svg" width="300" height="250" viewBox="0 0 300 250">
  <g id="a" data-name="background_bottom">
    <rect y="125" width="300" height="125" style="fill: #ffedc2;"/>
  </g>
  <g id="b" data-name="orange_bottom">
    <g>
      <g>
        <path d="m265.32,125c-1.77,60.52-52.71,109.04-115.3,109.04s-113.52-48.52-115.29-109.04h230.59Z" style="fill: #ffae00;"/>
        <path d="m233.35,181.93c0,2.95-.7,6.53-2.28,10.39-2.11,5.14-5.78,10.78-11.43,16.08-18.27,17.57-54.42,27-94.53,15.1-3.22-.95-6.46-2.04-9.72-3.28-21.73-8.19-42.53-22.72-57.04-42.25-.15-.19-.29-.39-.44-.59-12.01-16.04-18.52-35.27-19.79-52.38h51.39c10.08,15.79,27.23,28.85,48.19,36.57,57.43,18.61,70.38,2.58,88.73,7.66,3.85,1.7,6.97,5.66,6.92,12.7Z" style="fill: #fa9700;"/>
      </g>
      <path d="m269.44,125c-.02,2.05-.09,4.13-.22,6.24-1.23,23.94-9.73,51.62-30.75,73.75-20.6,22.32-53.8,36.18-89.42,35.57-35.67.16-68.64-14.37-88.83-37.02-20.59-22.53-28.62-50.3-29.52-74.25-.07-1.44-.12-2.87-.14-4.29h12.31c.05,1.2.12,2.4.21,3.61,1.09,16.08,5.63,33.55,15.27,49.36,3.4,5.59,7.43,10.97,12.18,16.01,13.28,14.41,32.4,25.03,54.58,29.52,7.68,1.56,15.73,2.38,24.03,2.36,32.27.48,60.98-11.52,79.19-30.62.94-.96,1.85-1.93,2.74-2.92,16.62-18.48,24.09-41.32,25.78-61.95.16-1.81.28-3.6.36-5.37h12.23Z"/>
    </g>
  </g>
</svg>