<?xml version="1.0" encoding="UTF-8"?>
<svg id="a" data-name="orange_text" xmlns="http://www.w3.org/2000/svg" width="300" height="250" viewBox="0 0 300 250">
  <path d="m111.74,89.7c0,.38-.12.7-.37.94-.41.46-.63.71-.65.74-.16.27-.33.98-.49,2.13-.68,5.56-1.02,11.06-1.02,16.48,0,3.05.54,4.77,1.64,5.15v1.1c-.33.68-.83,1.02-1.51,1.02-1.39,0-2.44-1.21-3.15-3.64-.52-1.72-.78-3.52-.78-5.4,0-4.12.11-7.55.33-10.31-.82,3.19-1.65,6.39-2.49,9.61-1.52,4.96-2.99,7.44-4.41,7.44-1.6,0-3.02-1.46-4.24-4.38-1.14-2.64-2.54-7.09-4.2-13.33-.16,1.85-.24,3.75-.24,5.68,0,4.01.11,6.91.32,8.71.03.33.18.85.45,1.57.28.72.42,1.29.42,1.7,0,.9-.75,1.35-2.25,1.35-1.77,0-2.66-2.39-2.66-7.16,0-1.94.11-4.83.33-8.67.22-3.84.33-6.72.33-8.63,0-.22-.11-.45-.33-.7-.22-.25-.33-.48-.33-.69,0-1.53,1.36-2.29,4.09-2.29.63,0,1.38.4,2.25,1.19.08.85.22,2.13.41,3.84.27,2.4.91,5.58,1.92,9.53,1.34,5.1,2.49,7.65,3.48,7.65.22,0,.5-.42.86-1.27.68-1.64,1.35-3.94,2-6.91.49-2.37.98-4.74,1.47-7.12.22-1.12.61-2.73,1.19-4.83.57-1.55,1.77-2.33,3.6-2.33.65,0,1.44.15,2.37.45,1.12.38,1.68.83,1.68,1.35Z" style="fill: #1d1d1b;"/>
  <path d="m129.7,109.21c0,3.52-.11,6-.33,7.44-.14.84-.71,1.27-1.72,1.27-1.53,0-2.21-.76-2.04-2.29-1.36.65-2.78.98-4.25.98s-2.77-.35-4.05-1.06c-1.53-.84-2.29-1.92-2.29-3.23s.87-2.48,2.62-3.6c1.58-1.01,3.07-1.51,4.46-1.51h3.48v-.97c.03-2.84-.82-4.26-2.54-4.26-2.15,0-3.23,1-3.23,3,0,.67-.38,1.01-1.15,1.01-.46,0-.95-.21-1.45-.63-.5-.42-.76-.87-.76-1.33,0-1.53.54-2.78,1.64-3.76,1.09-.98,2.4-1.47,3.93-1.47,5.12,0,7.69,3.48,7.69,10.43Zm-4.13,1.47c0-.54-.41-.82-1.23-.82-3.41,0-5.11.8-5.11,2.41,0,.87.75,1.31,2.25,1.31.93,0,1.8-.26,2.62-.78.98-.57,1.47-1.28,1.47-2.13Z" style="fill: #1d1d1b;"/>
  <path d="m147.53,115.87c-.41.63-.91.94-1.51.94-.46,0-1.23-.27-2.29-.82v-.49c0-.6.01-1.49.04-2.66.03-1.17.04-2.03.04-2.58,0-5.83-.87-8.75-2.6-8.75-.49,0-1.04.38-1.67,1.15-1.92,2.35-2.89,5.17-2.89,8.47,0,.46.09,1.15.27,2.07.18.91.27,1.6.27,2.06,0,.38-.18.7-.53.94-.35.25-.74.37-1.15.37-1.64,0-2.45-1.04-2.45-3.11v-8.55c0-.22.03-.54.08-.96.05-.42.08-.74.08-.96,0-.33-.05-.8-.14-1.43-.1-.63-.14-1.09-.14-1.39,0-.44.25-.85.76-1.25.5-.4.96-.59,1.37-.59.6,0,1.21.34,1.84,1.02l-.12,1.64c1.01-1.61,2.25-2.41,3.72-2.41.95,0,1.96.33,3.03.98s1.84,1.39,2.33,2.21c1.12,2.07,1.68,4.8,1.68,8.18v5.93Z" style="fill: #1d1d1b;"/>
  <path d="m165.03,109.21c0,3.52-.11,6-.33,7.44-.14.84-.71,1.27-1.72,1.27-1.53,0-2.21-.76-2.04-2.29-1.36.65-2.78.98-4.25.98s-2.77-.35-4.05-1.06c-1.53-.84-2.29-1.92-2.29-3.23s.87-2.48,2.62-3.6c1.58-1.01,3.07-1.51,4.46-1.51h3.48v-.97c.03-2.84-.82-4.26-2.54-4.26-2.15,0-3.23,1-3.23,3,0,.67-.38,1.01-1.14,1.01-.46,0-.95-.21-1.45-.63-.5-.42-.76-.87-.76-1.33,0-1.53.54-2.78,1.64-3.76s2.4-1.47,3.93-1.47c5.12,0,7.69,3.48,7.69,10.43Zm-4.13,1.47c0-.54-.41-.82-1.23-.82-3.41,0-5.11.8-5.11,2.41,0,.87.75,1.31,2.25,1.31.93,0,1.8-.26,2.62-.78.98-.57,1.47-1.28,1.47-2.13Z" style="fill: #1d1d1b;"/>
  <path d="m182.16,104.01c-.05.68-.23,1.88-.53,3.6-.27,1.5-.41,2.7-.41,3.6,0,.82.04,2.04.12,3.68.08,1.64.12,2.86.12,3.68,0,1.69-.16,2.94-.49,3.76-.38,1.04-1.1,1.87-2.17,2.52-1.06.64-2.17.96-3.31.96s-2.69-.33-4.46-.98c-2.13-.76-3.19-1.61-3.19-2.54,0-1.2.56-1.8,1.68-1.8.52,0,.87.15,1.06.45.35.55.59.87.72.98.12.11.57.24,1.33.39.76.15,1.29.23,1.59.23,2.45,0,3.68-1.54,3.68-4.62,0-.9-.04-1.66-.12-2.29-1.17,1.01-2.58,1.51-4.21,1.51-.68,0-1.45-.19-2.29-.57-.85-.38-1.49-.83-1.92-1.35-.85-.98-1.27-2.44-1.27-4.38,0-2.32.53-4.87,1.6-7.65,1.31-3.41,2.9-5.11,4.78-5.11,1.15,0,2.24.53,3.27,1.59.76,1.01,1.53,2,2.29,2.99.22.27.56.52,1.02.74.57.27.94.48,1.1.61Zm-4.13,2.45c0-.41-.19-.75-.57-1.02-.16-2.51-1.04-3.76-2.62-3.76-.9,0-1.65,1.27-2.25,3.8-.44,1.94-.65,3.61-.65,5.03,0,2.67.7,4.01,2.09,4.01,1.31,0,2.34-1.06,3.11-3.19.6-1.64.9-3.26.9-4.87Z" style="fill: #1d1d1b;"/>
  <path d="m197.91,112.56c0,1.36-.93,2.43-2.78,3.19-1.45.6-2.96.9-4.54.9-4.2,0-6.3-2.39-6.3-7.16,0-1.96.48-4.14,1.43-6.54,1.17-2.94,2.59-4.42,4.25-4.42,1.5,0,3.11.67,4.85,2,1.73,1.34,2.6,2.73,2.6,4.17,0,1.8-.8,3.23-2.41,4.29-1.42.95-3.11,1.43-5.07,1.43-.38,0-1-.23-1.84-.69.11,2.59.87,3.88,2.29,3.88,1.2,0,2.38-.34,3.54-1.02,1.16-.68,1.9-1.02,2.23-1.02,1.17,0,1.76.33,1.76.98Zm-4.46-7.73c0-.68-.2-1.33-.59-1.94-.4-.61-.92-.92-1.58-.92-.9,0-1.59.4-2.08,1.19-.41.68-.61,1.49-.61,2.41,0,.52.18.94.53,1.27.35.33.8.49,1.35.49,1.99,0,2.99-.83,2.99-2.49Z" style="fill: #1d1d1b;"/>
  <path d="m213.37,112.03c0,1.28-.55,2.4-1.64,3.35-1.2,1.04-2.81,1.55-4.83,1.55-.87.03-1.81-.15-2.82-.53-3.27-1.23-4.91-2.22-4.91-2.99,0-1.2.86-1.8,2.58-1.8.25,0,.5.01.78.04.08.82.74,1.47,1.96,1.96,1.06.44,2.09.61,3.07.53.79-.05,1.19-.34,1.19-.86,0-.08-.02-.2-.06-.37s-.06-.29-.06-.39-.52-.31-1.55-.63c-1.17-.35-1.83-.56-1.96-.61-3.11-1.85-4.66-4.09-4.66-6.71,0-1.58.45-3.04,1.35-4.38,1.01-1.47,2.26-2.21,3.76-2.21,1.12,0,2.39.44,3.82,1.31,1.43.87,2.31,1.81,2.64,2.82.22.71.33,1.3.33,1.76,0,.49-.07.9-.2,1.23-.16.41-.33.82-.49,1.23-.52.35-1.04.53-1.55.53-.27,0-.73-.17-1.37-.51-.64-.34-.96-.63-.96-.88,0-.11.16-.46.49-1.06.19-.35.29-.65.29-.9,0-1.64-.64-2.45-1.92-2.45-.76,0-1.35.49-1.76,1.47-.3.76-.45,1.58-.45,2.45,0,1.09.78,2.07,2.33,2.94,1.42.63,2.85,1.27,4.29,1.92,1.55.71,2.33,1.43,2.33,2.17Z" style="fill: #1d1d1b;"/>
  <path d="m127.49,137.48c0,2.45-.45,4.99-1.35,7.61-1.17,3.44-2.73,5.15-4.66,5.15-1.83,0-3.34-1.13-4.54-3.39-.82,2.4-2.11,3.6-3.89,3.6-2.26,0-3.91-1.55-4.95-4.66-.71-2.13-1.06-4.62-1.06-7.48,0-1.8.07-3.26.2-4.38.38-.6.89-.9,1.51-.9.54,0,1.1.18,1.66.53.56.36.84.78.84,1.27,0,.36-.08.88-.25,1.58s-.25,1.22-.25,1.57c0,6,.63,9,1.89,9s2.17-1.66,2.57-4.99c.13-1.25.2-3.45.2-6.58,0-1.04.6-1.55,1.8-1.55,1.34,0,2,.75,2,2.25,0,.14-.01.33-.04.57-.03.25-.04.42-.04.53v4.62c0,3.44.63,5.15,1.88,5.15,1.06,0,1.87-1.25,2.41-3.76.41-1.75.61-3.45.61-5.11,0-1.42-.07-2.25-.2-2.5-.03-.05-.18-.22-.45-.49-.16-.22-.25-.42-.25-.61,0-.49.22-.93.65-1.33.44-.39.9-.59,1.39-.59.74,0,1.32.65,1.76,1.96.35,1.01.53,1.99.53,2.94Z" style="fill: #1d1d1b;"/>
  <path d="m143.31,146.56c0,1.36-.93,2.43-2.78,3.19-1.45.6-2.96.9-4.54.9-4.2,0-6.3-2.39-6.3-7.16,0-1.96.48-4.14,1.43-6.54,1.17-2.94,2.59-4.42,4.25-4.42,1.5,0,3.11.67,4.85,2,1.73,1.34,2.6,2.73,2.6,4.17,0,1.8-.8,3.23-2.41,4.29-1.42.96-3.11,1.43-5.07,1.43-.38,0-1-.23-1.84-.7.11,2.59.87,3.88,2.29,3.88,1.2,0,2.38-.34,3.54-1.02,1.16-.68,1.9-1.02,2.23-1.02,1.17,0,1.76.33,1.76.98Zm-4.46-7.73c0-.68-.2-1.33-.59-1.94-.4-.61-.92-.92-1.57-.92-.9,0-1.59.4-2.09,1.19-.41.68-.61,1.49-.61,2.41,0,.52.18.94.53,1.27.35.33.8.49,1.35.49,1.99,0,2.99-.83,2.99-2.5Z" style="fill: #1d1d1b;"/>
  <path d="m151,134.41c0,.49-.11,1.19-.33,2.09-.22.9-.33,1.59-.33,2.09v8.42c0,.52.16,1.34.49,2.45-.41.63-.87.94-1.36.94-1.73,0-2.68-.86-2.85-2.58-.27-3.19-.41-5.59-.41-7.2,0-2.7.11-4.96.33-6.79v-.41c0-.49.38-.74,1.13-.74.67,0,1.35.14,2.03.41.86.3,1.3.74,1.3,1.31Zm.37-5.73c0,.6-.21,1.09-.61,1.47-.41.38-.91.57-1.51.57-.71,0-1.37-.25-1.98-.74-.61-.49-.92-1.09-.92-1.8,0-.6.21-1.09.63-1.47.42-.38.95-.57,1.57-.57.74,0,1.39.24,1.96.72.57.48.86,1.08.86,1.82Z" style="fill: #1d1d1b;"/>
  <path d="m166.75,138.01c-.06.68-.23,1.88-.53,3.6-.27,1.5-.41,2.7-.41,3.6,0,.82.04,2.04.12,3.68.08,1.64.12,2.86.12,3.68,0,1.69-.16,2.94-.49,3.76-.38,1.04-1.1,1.87-2.17,2.52-1.06.64-2.17.96-3.31.96s-2.69-.33-4.46-.98c-2.13-.76-3.19-1.61-3.19-2.54,0-1.2.56-1.8,1.68-1.8.52,0,.87.15,1.06.45.35.54.59.87.72.98.12.11.57.24,1.33.39.76.15,1.29.23,1.59.23,2.45,0,3.68-1.54,3.68-4.62,0-.9-.04-1.66-.12-2.29-1.17,1.01-2.58,1.51-4.21,1.51-.68,0-1.45-.19-2.29-.57-.84-.38-1.49-.83-1.92-1.35-.85-.98-1.27-2.44-1.27-4.38,0-2.32.53-4.87,1.59-7.65,1.31-3.41,2.9-5.11,4.79-5.11,1.14,0,2.24.53,3.27,1.59.76,1.01,1.53,2,2.29,2.99.22.27.56.52,1.02.74.57.27.94.48,1.1.61Zm-4.13,2.45c0-.41-.19-.75-.57-1.02-.16-2.51-1.04-3.76-2.62-3.76-.9,0-1.65,1.27-2.25,3.8-.44,1.94-.65,3.61-.65,5.03,0,2.67.7,4.01,2.09,4.01,1.31,0,2.34-1.06,3.11-3.19.6-1.64.9-3.26.9-4.87Z" style="fill: #1d1d1b;"/>
  <path d="m182.25,150.81c-.52.52-1.2.78-2.04.78-.57,0-1.16-.35-1.76-1.06v-5.56c0-6.05-.87-9.08-2.62-9.08s-2.7,2.44-2.7,7.32v2.37c0,.41.07,1.03.2,1.86s.21,1.45.21,1.86c0,.35-.21.67-.63.96-.42.29-.81.43-1.17.43-.68,0-1.26-.28-1.74-.84-.48-.56-.71-1.18-.71-1.86l.16-23.67v-.61c0-.98.54-1.47,1.64-1.47.52,0,1.12.24,1.8.72.68.48,1.02.96,1.02,1.46,0,.6-.13,1.49-.39,2.67-.26,1.18-.39,2.07-.39,2.67,0,.77.03,1.98.08,3.65.6-.35,1.1-.53,1.51-.53,1.06,0,2.22.26,3.48.78,1.61.68,2.73,1.79,3.35,3.31.46,1.15.7,2.73.7,4.74v9.12Z" style="fill: #1d1d1b;"/>
  <path d="m192.51,135.52c0,.74-1.12,1.25-3.36,1.55-.05.6-.08,1.96-.08,4.09v2.7c0,.54.08,1.35.25,2.41.16,1.06.25,1.85.25,2.37,0,.44-.22.83-.65,1.17-.44.34-.87.51-1.31.51-.68,0-1.25-.59-1.72-1.76-.35-.9-.53-1.77-.53-2.62v-8.67c-1.25-.19-1.98-.31-2.17-.37-.71-.22-1.06-.53-1.06-.94,0-.11.03-.23.08-.37.71-1.01,1.5-1.51,2.37-1.51h.25c.11.03.19.04.25.04.57,0,.84-.67.82-2v-2.98c-.14-.3-.2-.56-.2-.78,0-.35.21-.67.63-.96.42-.29.82-.43,1.19-.43.57,0,1.11.27,1.62.8.51.53.77,1.1.77,1.7,0,.65-.1,1.3-.31,1.94-.2.64-.29,1.3-.27,1.98v.16c2.13.22,3.19.87,3.19,1.96Z" style="fill: #1d1d1b;"/>
</svg>