<?xml version="1.0" encoding="UTF-8"?>
<svg xmlns="http://www.w3.org/2000/svg" width="300" height="250" viewBox="0 0 300 250">
  <g id="a" data-name="background_top">
    <rect width="300" height="125" style="fill: #ffedc2;"/>
  </g>
  <g id="b" data-name="orange_top">
    <g>
      <g>
        <path d="m265.37,121.73c0,1.09-.02,2.18-.05,3.27H34.73c-.03-1.09-.05-2.18-.05-3.27,0-58.55,46.02-106.64,104.76-111.83,3.48-.32,7.01-.48,10.58-.48,4.05,0,8.06.2,12.01.6,58.06,5.85,103.34,53.64,103.34,111.71Z" style="fill: #ffae00;"/>
        <polygon points="151.09 24.12 154.64 32.43 166.12 32.43 156.83 37.57 160.38 45.89 151.09 40.75 141.81 45.89 145.35 37.57 136.06 32.43 147.54 32.43 151.09 24.12" style="fill: #b3ae00;"/>
        <path d="m185.76,104.57c1.19-5.32,5.1-9.73,6.38-13.93,1.45-4.05,2.76-7.61,5.37-10.87,4.95-7.18,12.08-3.88,23.13-7.27,11.17-3.97,21.08,15.8,7.37,31.93-6.34,8.23-18.34,14.13-28.56,12.96-10.4-1.06-14.95-7.82-13.7-12.83Z" style="fill: #ffc72d;"/>
        <path d="m89.51,125h-51.39c-.29-3.89-.31-7.66-.06-11.27,1.06-19.69,7.87-34.18,14.18-42.83.08-.11.17-.23.25-.34,6.35-8.47,12.34-11.73,16.23-10.16,8.45,3.09,5.69,26.37,13.52,49.16,1.67,5.36,4.12,10.53,7.27,15.44Z" style="fill: #fa9700;"/>
      </g>
      <g>
        <g>
          <path d="m150.02,10.23c0,.12-5.43.21-17.45,2.15-11.7,2.29-31.37,5.94-52.65,22.3-10.46,7.9-20.44,20.11-27.43,35.88-6.69,15.1-10.63,33.46-9.62,54.44h-12.31c-.78-46.52,21.77-81.21,44.98-96.22,24.14-16.06,44.72-17.66,56.77-18.68,2.71-.13,5.08-.19,7.13-.2,7.32-.06,10.58.43,10.58.33Z"/>
          <path d="m269.44,125h-12.23c1.93-41.82-18.33-72.53-37.9-88.24-20.88-17.03-40.21-21.64-51.88-24.18-11.21-2.04-16.7-2.21-17.35-2.33.48.02,4.21-.48,11.95-.23,1.71.06,3.61.15,5.72.29,12.06,1.26,32.51,3.96,56.06,20.64,21.95,15.17,46.22,48.06,45.63,94.05Z"/>
        </g>
        <path d="m138.53,52.43s1.38-5.02,11.53-10.84c7.3,0,2.03,0,3.66,0h0s.02.01.02.01l.03.02.06.03.12.07.23.14.46.27.88.54,1.61,1.06c1.01.69,1.89,1.37,2.67,2.01,1.56,1.29,2.68,2.46,3.49,3.45,1.61,1.98,1.96,3.24,1.96,3.24,0,0-1.26.34-3.78-.05-1.26-.19-2.84-.57-4.74-1.26-.95-.35-1.98-.77-3.09-1.29l-1.72-.85-.91-.48-.46-.26-.24-.13-.12-.07-.06-.03-.03-.02h-.02s0-.01,0-.01c1.63,0-3.65,0,3.65,0-10.15,5.82-15.18,4.47-15.18,4.47Z"/>
        <path d="m165.23,52.43s-1.18-.45-2.88-2.16c-.85-.86-1.83-2.03-2.86-3.62-.51-.8-1.04-1.69-1.57-2.71l-.79-1.61-.39-.88c-1.4,4.08,1.9-5.57,1.57-4.58h0s.01-.01.01-.01l.03-.02.05-.03.11-.06.22-.13.44-.25c9.49-5.44,14.31-3.97,14.31-3.97,0,0-1.17,4.91-10.66,10.34l-.44.25-.22.12-.11.06-.05.03h-.03s-.01.02-.01.02h0c-.34,1,2.96-8.65,1.57-4.56l.34.9.58,1.7c.34,1.09.6,2.1.8,3.03.39,1.85.52,3.38.52,4.58,0,2.41-.52,3.56-.52,3.56Z"/>
        <path d="m173.49,32.4s-3.59,3.67-14.95,3.67h-1.04s-.5-.02-.5-.02h0c.73.49-6.39-4.28-3.38-2.27h0s-.01-.04-.01-.04l-.02-.06-.04-.12-.08-.23-.6-1.77c-.36-1.13-.63-2.18-.84-3.14-.42-1.92-.57-3.49-.59-4.74-.03-2.49.47-3.67.47-3.67,0,0,1.19.48,2.92,2.27.87.9,1.87,2.12,2.92,3.78.53.83,1.07,1.77,1.61,2.82l.82,1.68.1.22.05.11.02.06v.03s.02.01.02.01c3.02,2.02-4.11-2.75-3.37-2.26h.51s1.04-.02,1.04-.02c11.36,0,14.95,3.67,14.95,3.67Z"/>
        <path d="m151.88,20.01s.51,1.18.47,3.67c-.02,1.25-.17,2.82-.59,4.74-.21.96-.48,2.01-.84,3.14l-.6,1.77-.08.23-.04.12-.02.06v.03s-.02.01-.02.01c-1.51,1.01,3.37-2.25-3.38,2.27h-.51s-1.04.02-1.04.02c-11.36,0-14.95-3.67-14.95-3.67,0,0,3.59-3.67,14.95-3.67h1.04s.5.02.5.02h0c-6.74,4.52-1.87,1.25-3.37,2.25h0s.01-.04.01-.04l.03-.06.05-.11.1-.22.82-1.68c.54-1.06,1.09-1.99,1.61-2.82,1.05-1.66,2.06-2.88,2.92-3.78,1.73-1.79,2.92-2.27,2.92-2.27Z"/>
        <path d="m130.28,32.4s4.83-1.47,14.31,3.97l.44.25.21.13.11.06.05.03.03.02h.01s0,.01,0,.01c-.34-.99,2.96,8.66,1.57,4.58l-.39.88-.79,1.61c-.53,1.02-1.05,1.92-1.57,2.71-1.03,1.59-2.01,2.76-2.86,3.62-1.7,1.71-2.88,2.16-2.88,2.16,0,0-.52-1.15-.52-3.56,0-1.21.13-2.73.52-4.58.2-.93.46-1.94.8-3.03l.58-1.7.34-.9c-1.4-4.09,1.91,5.56,1.57,4.57h0s-.01-.01-.01-.01l-.03-.02-.05-.03-.11-.06-.22-.12-.44-.25c-9.49-5.44-10.66-10.34-10.66-10.34Z"/>
      </g>
    </g>
  </g>
</svg>