<?xml version="1.0" encoding="UTF-8"?>
<svg xmlns="http://www.w3.org/2000/svg" width="300" height="250" viewBox="0 0 300 250">
  <g id="a" data-name="background_bottom">
    <rect y="125" width="300" height="125" style="fill: #ffedc2;"/>
  </g>
  <g id="b" data-name="pear_top">
    <g>
      <g>
        <path d="m200.63,228.45c-13.3,6.38-29.46,7.36-42.23,7.49-1.52.02-2.99.02-4.4.02-1.84,0-3.57,0-5.18,0-.33.02-.67.04-1,.06-.78.04-1.56.08-2.32.11-67.57,2.85-81.15-38.97-66.5-100.31.85-3.54,1.79-7.14,2.82-10.81h130.63c1,2.88,2.03,5.84,3.1,8.88,20.95,59.24,6.85,84.13-14.92,94.57Z" style="fill: #a9c000;"/>
        <path d="m222.18,189.44c-.21-.82-.46-1.56-.73-2.23-1.88-4.57-5.13-6-7.86-5.71-3.31.3-6.25,2.37-9.5,3.8-3.31,1.47-6.74,2.75-11.84,4.62-4.22,1.49-10.97,3.56-16.17,3.62-.85-.64-1.65-1.26-2.59-1.88-1.97-1.25-4.03-2.41-6.44-3.34-9.89-4.06-20.26-2.37-25.36-.9-5.66,1.53-8.95,2.84-11.28,3.44-4.59.89-3.19,1.03-6.6.05-2.86-1.01-8.92-5.71-10.36-7.44-5.29-5.69-8.37-17.94-8-27.31.23-9.76,2.73-16.67,6.07-21.42,2.9-4.21,6.81-6.92,7.82-9.74h-30.34c-1.31,1.04-2.6,2.19-3.85,3.45-.36.34-.71.7-1.06,1.07-1.81,1.91-3.52,4.01-5.09,6.29-2.51,3.64-4.66,7.72-6.26,12.14-5.92,16.16-8.14,37.08,3.61,59.07,7.31,11.77,14.14,18.11,25.57,25.17,5.69,3.28,12.96,5.86,20.58,6.61,7.61.8,15-.41,20.53-1.95.86-.24,1.68-.48,2.47-.73,1.59-.48,3.01-.96,4.25-1.39,1.29-.45,2.38-.85,3.23-1.15.5.28,1.01.53,1.5.77,1.34.64,2.65,1.16,3.92,1.59,1.22.41,2.41.73,3.54.99,7.61,1.67,13.28.99,18.1.09,8.57-2,15.22-5.02,20.59-8.57,6.31-4.16,10.84-9.05,14.59-13.84,6.67-9.02,8.59-18.97,6.96-25.17Zm-48.66,3.44c.42.03,1.17.19,2.16.67-.53-.01-1.03-.03-1.51-.08-1.14-.09-1.9-.6-.65-.59Zm-18.57,40.04c.01.06.01.1.01.12-.01-.02-.02-.06-.03-.11.01,0,.01-.01.02-.01Z" style="fill: #97ac00;"/>
        <path d="m109.94,125c-7.94,21.14-20.51,30.17-25.15,25.31-2.45-2.59-3.23-6.64-2.1-13.9.32-2.03.78-4.32,1.4-6.89.35-1.42.74-2.92,1.17-4.52h24.68Z" style="fill: #97b100;"/>
        <path d="m194.18,136.43c-1.58,4.12-4.75,5.54-7.97,5.48-3.34-.03-6.23-1.15-8.7-2.92-2.47-1.85-4.52-4.46-7.11-10.79-.42-1-.83-2.07-1.23-3.2h25.2c1.02,4.46.97,8.56-.19,11.43Z" style="fill: #c2d700;"/>
      </g>
      <g>
        <path d="m223.76,210.93c-8.63,13.81-21.1,20.81-31.14,24.2-10.3,3.26-18.72,3.55-24.99,3.15-6.61-.56-10.97-1.54-13.63-2.32-2.24-.66-3.27-1.17-3.42-1.17.14-.08,1.4-.18,3.9-.44,2.74-.29,6.97-.77,12.88-1.64,10.91-2.27,31.98-5.43,46.95-27.73,3.52-5.56,5.83-11.57,7.14-17.77,3.45-16.44-.14-34.27-6.82-48.9-1.92-4.48-3.64-8.93-5.19-13.31h9.46c1.35,3.13,2.78,6.28,4.31,9.44,10.73,20.87,16.3,51.42.55,76.49Z"/>
        <path d="m150.54,234.79c-.12,0-.93.49-2.72,1.22-2.52,1.01-6.97,2.49-14.1,3.67-6.26.86-14.78,1.25-25.36-1.54-10.36-2.81-23.25-9.88-31.86-23.89-15.07-25.62-10.47-54.69-3.75-77.18,1.26-4.15,2.71-8.17,4.25-12.07h9.32c-.4,1.14-.79,2.29-1.17,3.45-.88,2.6-1.7,5.25-2.46,7.96-.3,1.08-.6,2.16-.88,3.26-5.56,21.64-8.22,48.1,4.2,68.73,6.99,11.3,16.7,17.39,25.29,20.79,8.72,3.31,16.36,4.39,22.26,4.91,9.18.6,14.33.59,16.19.63.47.01.73.03.79.06Z"/>
      </g>
    </g>
  </g>
</svg>