<?xml version="1.0" encoding="UTF-8"?>
<svg xmlns="http://www.w3.org/2000/svg" width="300" height="250" viewBox="0 0 300 250">
  <g id="a" data-name="background_top">
    <rect width="300" height="125" style="fill: #ffedc2;"/>
  </g>
  <g id="b" data-name="pear_bottom">
    <g>
      <g>
        <path d="m212.45,125H81.82c1.23-4.4,2.6-8.89,4.08-13.45,11.58-35.63,24.06-50.32,34.99-55.66.03-.02.05-.03.08-.04,9.04-4.39,17-2.42,22.51-.67,1.89.61,3.5,1.19,4.75,1.47l.84-.34,1.56-.63,3.52-1.42.08-.02,1.17-.48.38-.15c.97-.32,1.92-.62,2.85-.87,1.29-.37,2.53-.67,3.72-.9.03,0,.05,0,.07-.01,5.51-1.1,10.1-.89,14.07.59,6.25,2.31,10.96,7.75,15.31,16.12,6.45,12.48,12.08,31.48,20.65,56.46Z" style="fill: #a9c000;"/>
        <path d="m140.17,11.56c-3.2-3.2-14.61,5.03-7.82,11.81,6.78,6.78,23.06,15.1,17.06,49.12,3.1,1.82,3.94-2.96,3.94-2.96,2.26-32.68.93-43.86-13.18-57.97Z" style="fill: #9d7c00;"/>
        <path d="m119.59,123.63c0,.46-.09.92-.25,1.37h-30.34c4.71-3.75,9.72-6.19,14.35-6.93,3.6-.61,6.58-.56,8.96-.12,5.03.95,7.38,3.68,7.28,5.68Z" style="fill: #97ac00;"/>
        <path d="m120.2,83.25c-1.45,9.82-3.99,22.66-7.89,34.7-.16.51-.32,1.01-.49,1.51-.59,1.93-1.22,3.78-1.88,5.54h-24.68c1.04-3.81,2.35-8.16,3.95-13.13,4.03-11.98,9.32-24.91,15.19-34.49.78-1.36,1.6-2.66,2.45-3.87,5.15-7.32,11.31-11.53,13.48-9.11,1.96,2.34,1.27,8.36-.13,18.85Z" style="fill: #97b100;"/>
        <path d="m194.37,125h-25.2c-2.58-7.23-4.66-16.84-4.23-24.7.34-9.15,3.16-15.62,6.37-15.77,3.35-.18,6.54,5.55,10.14,12.35,3.53,6.93,7.86,14.65,11.09,22.47.79,1.9,1.4,3.81,1.83,5.65Z" style="fill: #c2d700;"/>
      </g>
      <g>
        <path d="m155.1,68.38c-.12-.05.95-5.18,3.01-13.27,1.78-7.9,4.12-20.34-1.74-32.31-7.44-12.86-14.5-11.86-13.97-12.21-.38.31,3.01,4.08,8.97,14.69,4.97,9.9,4.43,21.28,3.98,29.43-.68,8.26-.38,13.7-.25,13.67Z"/>
        <path d="m151.15,71.34s1.18-4.67,2.48-12.15c.93-7.35,2.69-18.46-3.52-29.69-3.72-6.29-9.18-7.8-11.88-7.98-2.98,0-4.12.71-4.14.7-.28.54,3.82,3.78,8.85,11.61,4.52,7.75,5.51,18.05,6.51,25.28.8,7.4,1.67,12.26,1.71,12.23Z"/>
        <path d="m141.91,10.41c.32-.07-1.78-1.66-4.95.1-1.55.79-3.14,1.82-4.82,3.94-.71.86-2.06,3.62-.28,6.03.76,1.02,1.31,1.39,1.94,1.91.29.6,3.35,1.63,4.75.54,9.77-8.8,3.01-13.91,3.37-12.53.53.31-1.17,2.36-5.73,7.88.48.81.37,1.37.42.93.06-.34.18-.36.55-1.22-.03-.03.01.04-.13-.07-.42-.27-.91-.67-.9-.64-.95.49-.47.25-.05.29-.07-.05.05-.41.12-.73.65-1.5,1.69-3.1,2.47-4.12,1.6-2.33,3.14-2.46,3.24-2.31Z"/>
        <path d="m154.17,53.62c-.59.17-.91.27-.97.24.07.02.4-.13.98-.37.04-.03.08-.04.12-.06.31-.14.69-.3,1.14-.48.87-.35,1.99-.77,3.38-1.21,2.48-.78,5.79-1.61,9.97-2.17,5.1-.53,12.4.08,18.42,5.35,6.01,5.1,9.95,12.99,13.44,21.42,5.8,14.43,10.81,31.31,18.25,48.66h-9.46c-6.07-17.09-9.78-33.27-14.04-46.74-1.11-3.43-2.28-6.71-3.6-9.72-1.92-4.37-4.16-8.17-6.98-11.02-2.48-2.61-5.4-4.19-8.33-5.1-2.63-.82-5.27-1.1-7.62-1.11-2.41.07-4.57.27-6.45.52-.02.01-.04.01-.07.01-1.37.19-2.6.41-3.67.63-1.32.27-2.4.55-3.25.78-.45.12-.83.24-1.14.33-.04.01-.08.03-.12.04Z"/>
        <path d="m146.5,55.17c-.85-.13-6.34-2.4-15.66-2.18-3.11.14-6.58.99-9.87,2.86-.03.01-.05.02-.08.04-1.99,1.14-3.91,2.65-5.64,4.61-3.17,3.46-5.88,7.93-8.4,13.01-1.19,2.41-2.34,4.96-3.48,7.61-3.53,8.25-6.96,17.52-10.78,27.39-2.13,5.4-4.29,10.85-6.27,16.49h-9.32c2.72-6.91,5.74-13.42,8.56-19.46,4.41-9.59,8.51-18.65,12.77-26.82,4.26-8.12,8.74-15.52,14.44-20.74,5.67-5.39,12.81-7.07,18.05-6.73,9.77.78,14.84,3.7,15.68,3.92Z"/>
        <path d="m163.71,65.68s.32,1.44-.83,4.22c-.92,2.26-4.52,8.45-13.78,7.71-8.24-1.6-10.93-5.81-12.63-8.03-1.57-2.45-1.67-3.9-1.68-3.9-.07-.66,6.01,1.04,15.35,3.62,4.07.54,7.18-1.24,9.7-2.28,2.42-1.07,3.85-1.39,3.87-1.35Z"/>
      </g>
    </g>
  </g>
  <g id="c" data-name="pear_top">
    <g>
      <g>
        <path d="m212.45,125H81.82c1.23-4.4,2.6-8.89,4.08-13.45,11.58-35.63,24.06-50.32,34.99-55.66.03-.02.05-.03.08-.04,9.04-4.39,17-2.42,22.51-.67,1.89.61,3.5,1.19,4.75,1.47l.84-.34,1.56-.63,3.52-1.42.08-.02,1.17-.48.38-.15c.97-.32,1.92-.62,2.85-.87,1.29-.37,2.53-.67,3.72-.9.03,0,.05,0,.07-.01,5.51-1.1,10.1-.89,14.07.59,6.25,2.31,10.96,7.75,15.31,16.12,6.45,12.48,12.08,31.48,20.65,56.46Z" style="fill: #a9c000;"/>
        <path d="m140.17,11.56c-3.2-3.2-14.61,5.03-7.82,11.81,6.78,6.78,23.06,15.1,17.06,49.12,3.1,1.82,3.94-2.96,3.94-2.96,2.26-32.68.93-43.86-13.18-57.97Z" style="fill: #9d7c00;"/>
        <path d="m119.59,123.63c0,.46-.09.92-.25,1.37h-30.34c4.71-3.75,9.72-6.19,14.35-6.93,3.6-.61,6.58-.56,8.96-.12,5.03.95,7.38,3.68,7.28,5.68Z" style="fill: #97ac00;"/>
        <path d="m120.2,83.25c-1.45,9.82-3.99,22.66-7.89,34.7-.16.51-.32,1.01-.49,1.51-.59,1.93-1.22,3.78-1.88,5.54h-24.68c1.04-3.81,2.35-8.16,3.95-13.13,4.03-11.98,9.32-24.91,15.19-34.49.78-1.36,1.6-2.66,2.45-3.87,5.15-7.32,11.31-11.53,13.48-9.11,1.96,2.34,1.27,8.36-.13,18.85Z" style="fill: #97b100;"/>
        <path d="m194.37,125h-25.2c-2.58-7.23-4.66-16.84-4.23-24.7.34-9.15,3.16-15.62,6.37-15.77,3.35-.18,6.54,5.55,10.14,12.35,3.53,6.93,7.86,14.65,11.09,22.47.79,1.9,1.4,3.81,1.83,5.65Z" style="fill: #c2d700;"/>
      </g>
      <g>
        <path d="m155.1,68.38c-.12-.05.95-5.18,3.01-13.27,1.78-7.9,4.12-20.34-1.74-32.31-7.44-12.86-14.5-11.86-13.97-12.21-.38.31,3.01,4.08,8.97,14.69,4.97,9.9,4.43,21.28,3.98,29.43-.68,8.26-.38,13.7-.25,13.67Z"/>
        <path d="m151.15,71.34s1.18-4.67,2.48-12.15c.93-7.35,2.69-18.46-3.52-29.69-3.72-6.29-9.18-7.8-11.88-7.98-2.98,0-4.12.71-4.14.7-.28.54,3.82,3.78,8.85,11.61,4.52,7.75,5.51,18.05,6.51,25.28.8,7.4,1.67,12.26,1.71,12.23Z"/>
        <path d="m141.91,10.41c.32-.07-1.78-1.66-4.95.1-1.55.79-3.14,1.82-4.82,3.94-.71.86-2.06,3.62-.28,6.03.76,1.02,1.31,1.39,1.94,1.91.29.6,3.35,1.63,4.75.54,9.77-8.8,3.01-13.91,3.37-12.53.53.31-1.17,2.36-5.73,7.88.48.81.37,1.37.42.93.06-.34.18-.36.55-1.22-.03-.03.01.04-.13-.07-.42-.27-.91-.67-.9-.64-.95.49-.47.25-.05.29-.07-.05.05-.41.12-.73.65-1.5,1.69-3.1,2.47-4.12,1.6-2.33,3.14-2.46,3.24-2.31Z"/>
        <path d="m154.17,53.62c-.59.17-.91.27-.97.24.07.02.4-.13.98-.37.04-.03.08-.04.12-.06.31-.14.69-.3,1.14-.48.87-.35,1.99-.77,3.38-1.21,2.48-.78,5.79-1.61,9.97-2.17,5.1-.53,12.4.08,18.42,5.35,6.01,5.1,9.95,12.99,13.44,21.42,5.8,14.43,10.81,31.31,18.25,48.66h-9.46c-6.07-17.09-9.78-33.27-14.04-46.74-1.11-3.43-2.28-6.71-3.6-9.72-1.92-4.37-4.16-8.17-6.98-11.02-2.48-2.61-5.4-4.19-8.33-5.1-2.63-.82-5.27-1.1-7.62-1.11-2.41.07-4.57.27-6.45.52-.02.01-.04.01-.07.01-1.37.19-2.6.41-3.67.63-1.32.27-2.4.55-3.25.78-.45.12-.83.24-1.14.33-.04.01-.08.03-.12.04Z"/>
        <path d="m146.5,55.17c-.85-.13-6.34-2.4-15.66-2.18-3.11.14-6.58.99-9.87,2.86-.03.01-.05.02-.08.04-1.99,1.14-3.91,2.65-5.64,4.61-3.17,3.46-5.88,7.93-8.4,13.01-1.19,2.41-2.34,4.96-3.48,7.61-3.53,8.25-6.96,17.52-10.78,27.39-2.13,5.4-4.29,10.85-6.27,16.49h-9.32c2.72-6.91,5.74-13.42,8.56-19.46,4.41-9.59,8.51-18.65,12.77-26.82,4.26-8.12,8.74-15.52,14.44-20.74,5.67-5.39,12.81-7.07,18.05-6.73,9.77.78,14.84,3.7,15.68,3.92Z"/>
        <path d="m163.71,65.68s.32,1.44-.83,4.22c-.92,2.26-4.52,8.45-13.78,7.71-8.24-1.6-10.93-5.81-12.63-8.03-1.57-2.45-1.67-3.9-1.68-3.9-.07-.66,6.01,1.04,15.35,3.62,4.07.54,7.18-1.24,9.7-2.28,2.42-1.07,3.85-1.39,3.87-1.35Z"/>
      </g>
    </g>
  </g>
</svg>