<?xml version="1.0" encoding="UTF-8"?>
<svg id="b" data-name="button" xmlns="http://www.w3.org/2000/svg" width="300" height="250" viewBox="0 0 300 250">
  <rect x="91.47" y="122.65" width="60" height="30" rx="5" ry="5"/>
  <g>
    <path d="m111.59,131.14c.69,0,1.29.08,1.8.24.51.16.93.39,1.27.68.33.29.58.65.75,1.06s.24.88.24,1.38-.09.97-.26,1.39c-.17.42-.43.79-.77,1.09-.34.31-.76.54-1.27.71-.51.17-1.09.25-1.75.25h-1.67v3.97h-1.6v-10.77h3.26Zm0,5.54c.41,0,.76-.05,1.07-.16.31-.11.56-.25.77-.45s.36-.42.47-.69.16-.56.16-.89c0-.66-.2-1.17-.61-1.54-.41-.38-1.03-.56-1.86-.56h-1.67v4.29h1.67Z" style="fill: #fff;"/>
    <path d="m118.56,130.84v11.07h-1.47v-11.07h1.47Z" style="fill: #fff;"/>
    <path d="m120.45,135.35c.42-.41.89-.71,1.38-.91.5-.2,1.04-.3,1.64-.3.44,0,.82.07,1.15.21s.62.34.85.6.4.56.52.92c.12.35.18.75.18,1.18v4.86h-.65c-.15,0-.25-.02-.33-.07-.07-.05-.13-.14-.18-.27l-.16-.67c-.19.18-.39.34-.58.48-.19.14-.39.25-.6.35-.21.1-.43.17-.66.22s-.5.08-.78.08c-.3,0-.58-.04-.84-.12-.26-.08-.49-.21-.69-.38-.19-.17-.35-.38-.46-.64-.11-.26-.17-.55-.17-.89,0-.3.08-.59.24-.87.16-.28.43-.53.79-.75.37-.22.85-.4,1.44-.54.59-.14,1.32-.22,2.19-.24v-.56c0-.57-.12-1-.37-1.29-.25-.28-.6-.43-1.08-.43-.32,0-.59.04-.81.12-.22.08-.4.17-.56.27-.16.1-.29.19-.41.27-.12.08-.24.12-.36.12-.1,0-.19-.03-.26-.08-.07-.05-.13-.12-.18-.19l-.26-.47Zm4.29,3.17c-.6.02-1.1.07-1.52.14-.42.07-.75.17-1.01.29-.26.12-.45.26-.56.42-.12.16-.17.34-.17.54,0,.19.03.35.09.49s.15.25.26.34c.11.09.23.15.38.19s.3.06.47.06c.23,0,.43-.02.62-.07s.36-.11.53-.19c.17-.08.32-.18.47-.3.15-.12.3-.26.44-.41v-1.5Z" style="fill: #fff;"/>
    <path d="m134.6,134.29l-4.23,9.83c-.04.11-.1.19-.18.25-.07.06-.19.09-.33.09h-1.09l1.4-3.04-3.13-7.14h1.27c.12,0,.22.03.29.09.07.06.12.13.15.2l1.93,4.57c.04.12.08.23.12.35.04.12.07.23.09.35.03-.12.07-.24.11-.36s.08-.23.13-.35l1.87-4.57c.03-.08.09-.16.17-.21.07-.06.16-.08.25-.08h1.17Z" style="fill: #fff;"/>
  </g>
</svg>