<?xml version="1.0" encoding="UTF-8"?>
<svg xmlns="http://www.w3.org/2000/svg" width="300" height="250" viewBox="0 0 300 250">
  <g id="b" data-name="Layer 2">
    <rect width="300" height="250" style="fill: #ffedc2;"/>
    <g>
      <g>
        <path d="m175.88,30.09c-.69,1.51-3,1.8-6.48.75-3.48-1.05-12.98,2.49-19.3,5.89-6.32,3.39-17.48-1.01-21.01-2.69-4.56-2.17-7.6-2.13-9.92-.23-1.78,4.27.37,12.41,11.72,18.14,11.35,5.73,32.46,2.7,38.14-5.91,5.68-8.61,8.87-10.94,8.87-10.94.84-2.54,2.78-3.09,2.66-4.01-.13-1.02-3.03-4.63-4.68-1Z" style="fill: #ffdc00;"/>
        <path d="m120.22,37.67c.81-.36,2.97,3.14,7.44,5.45,4.37,2.44,10.77,3.61,15.97,3.77,8.79.22,11.83-.17,12.52,1.54.72,1.39-2.6,4.87-12.79,4.6-5.94-.18-13.46-2.29-18.18-6.34-4.87-4-5.74-8.84-4.97-9.02Z" style="fill: #ebbd00;"/>
        <path d="m174.73,35.28c-.49,1.59-2.72,2.63-6.35,2.63s-11.71,6.13-16.78,11.21c-5.07,5.07-17.03,4.07-20.9,3.49-4.99-.76-7.5.36-9.17,2.85-.48,4.6,3.54,11.57,16.07,13.77,12.52,2.21,31.86-6.78,34.81-16.66,2.95-9.88,3.07-10.49,3.07-10.49,0,0,3.3-5.18,2.88-6.11s-2.39-4.72-3.63-.69Z" style="fill: #ffe800;"/>
        <path d="m172.9,43.37c.68.21-.5,6.69-6.2,13.51-2.83,3.35-6.91,6.52-11.6,8.48-4.67,2-9.81,2.78-14.33,2.61-7.66-.32-12.62-2.84-15.2-5.15-2.66-2.4-2.59-4.56-1.81-4.8.83-.35,1.74.23,4.19,1.16,2.44.9,6.6,2.38,13.03,2.65,3.79.15,8.07-.35,12.06-1.75,4.01-1.37,7.67-3.65,10.53-6.23,5.76-5.18,8.46-10.89,9.32-10.48Z" style="fill: #f0c700;"/>
      </g>
      <g>
        <path d="m121.54,55.7c.06.09.53-1.44,2.86-2.6,2.35-1.26,6.18-.56,10.37-.42,4.29,0,9.44-.48,14.29-2.96,2.41-1.24,4.7-2.92,6.78-4.97,1.89-2.04,4.33-4.68,7.34-6.05,3.27-1.61,6.86-2.02,9.02-1.4.44.04,1.31-.85,1.66-1.53.41-.67.55-1.66,1.36-2.37.47-.44,1.26-.25,1.52,0,.31.24.5.49.67.72.31.46.49.85.64,1.15.26.62.35.9.35.9,0,0-.21-.22-.63-.72-.22-.24-.5-.55-.87-.89-.35-.34-.95-.63-.96-.36-.68.55-.03,3.67-3.64,4.91-2.57-.4-5.09.11-8.16,1.52-2.75,1.31-4.62,3.29-6.85,5.6-2.25,2.14-4.78,3.89-7.42,5.12-5.33,2.49-10.78,2.67-15.11,2.4-4.41-.43-7.87-1.35-10.21-.34-2.29.9-2.95,2.37-2.99,2.29Z"/>
        <path d="m121.47,56.7s-.04,1.78,1.36,4.57c1.34,2.76,4.72,6.25,10.02,7.95,5.27,1.71,11.8,2.09,18.84.79,7.02-1.4,14.15-5.66,19.05-12.05,2.76-3.57,4.34-7.06,5.11-10.1.38-1.52.56-2.94.52-4.23-.04-.84-.12-.8.05-1.32.14-.44.32-.87.49-1.28,1.53-3.2,1.77-4.88,1.46-4.83.26.09-.54,1.21-2.72,4.13-.26.38-.54.8-.81,1.31-.32.41-.46,1.58-.45,1.92-.11,1.06-.42,2.28-.88,3.6-.93,2.64-2.52,5.75-5.05,9.02-4.51,5.87-10.88,9.88-17.32,11.45-6.45,1.47-12.89,1.48-17.88.2-5.07-1.26-8.5-4.24-10.04-6.8-1.6-2.56-1.72-4.37-1.75-4.34Z"/>
        <path d="m125.48,57.77c.01-.08,4.19,1.94,11.21,3.14,3.5.56,7.73.81,12.23-.02,4.48-.81,9.15-2.79,13.13-5.97,4.45-3.59,6.62-6.83,7.94-8.79,1.29-2,1.67-2.89,1.68-2.89-.01,0-.22.95-1.37,3.07-1.18,2.07-3.24,5.49-7.8,9.17-4.07,3.26-8.89,5.25-13.47,6.01-4.6.78-8.89.43-12.39-.22-7.04-1.39-11.13-3.58-11.15-3.49Z"/>
        <path d="m178.25,36.54s-.27.2-.74.41c-.23.09-.53.26-.99.17-.5-.1-.76-.64-.83-1.02-.13-.92.34-1.14.3-1.14.03,0,.3.32.4,1,.08.64.43.7,1.02.64.49-.04.83-.07.83-.06Z"/>
        <path d="m177.95,35.27c.05.04.09-1.03,1.36-2.49.3-.35.77-.72,1.03-1.1.19-.11-.48-.83-.81-1.3-.41-.51-.91-1.1-1.49-1.4-.57-.34-.88.05-1.36.84-.44.81-1.16,1.69-2.14,2.29-.52.27-1.11.58-1.95.45-.46-.15-.79-.34-.89-.39-.21-.09-.45-.17-.69-.25-2-.57-4.39-.67-6.84-.22-2.52.46-4.81,1.58-7.47,3.21-2.71,1.54-5.88,2.76-9.4,3.33-12.58,1.5-19.08-4.55-22.92-5.09-2-.42-3.38.02-4.15.37-.78.37-1.09.56-1.09.55,0,.01.21-.28.92-.84.69-.54,2.15-1.33,4.47-1.15,2.33.09,5.09,1.57,8.58,2.64,3.6,1.04,8.24,2.21,13.87,1.38,3.22-.52,6.16-1.61,8.74-3.01,2.52-1.5,5.43-2.85,8.16-3.19,2.75-.39,5.35-.17,7.61.61.28.11.56.22.85.36.37.23.52.28.56.32.24.06.65-.05,1.02-.22.78-.43,1.37-1.01,1.86-1.76.27-.38.55-.8,1.07-1.11.53-.34,1.28-.19,1.63.09.8.53,1.21,1.18,1.61,1.77.2.29.37.58.53.86.11.16.49.73.15,1.11-.46.53-.88.74-1.22,1.07-1.36,1.24-1.56,2.3-1.6,2.25Z"/>
        <path d="m118.78,35.02s-.97,2.27-.17,6.03c.68,3.75,4.04,8.41,8.91,10.94,5.49,2.8,7.9,1.53,7.84,1.64.04-.1-1.58-1.66-6.46-4.16-4.35-2.29-7.6-5.67-8.93-8.86-1.4-3.16-1.18-5.61-1.2-5.58Z"/>
        <path d="m122.71,38.76s2.61,1.83,7.07,3.97c4.42,2.11,10.98,4.35,18.09,3.89,3.96-.26,6.52-1.04,8.11-1.49,1.59-.49,2.22-.71,2.22-.7,0-.01-.56.38-2.1,1.04-1.54.63-4.12,1.6-8.19,1.87-7.3.47-13.93-2-18.29-4.28-4.41-2.31-6.89-4.33-6.91-4.29Z"/>
        <path d="m179.19,31.51s-.17.2-.61.28c-.54.11-1.05-.47-1.29-.96-.16-.29-.13-.63.01-.82.21-.16.31-.04.29-.06-.08.14.11.12.35.56.24.43.38.85.66.91.31.1.59.07.59.08Z"/>
      </g>
    </g>
    <g>
      <g>
        <path d="m59.19,35.28c-1.43.25-2.16-.84-3.67-1.43-1.51-.58-9.89-3.64-13.75,3.64-3.86,7.28-2.56,15.03.3,24.49,2.86,9.46,6.55,13.67,12.58,11.17,5.43,1.53,8.84,1.22,8.84,1.22,0,0,7.37,1.33,9.35-4.96,1.98-6.29,5.28-18.41,5.28-24.02s-5.62-12.79-11.97-12.17c-4.13.4-6.95,2.06-6.95,2.06Z" style="fill: red;"/>
        <path d="m63.21,22.96c-2.01,0-6.21,3.92-5.35,14.81,1.52.27.67.46,1-.82.34-1.27.4-5.94,6.07-11.61.79-.79.19-2.39-1.73-2.39Z" style="fill: #9d7c00;"/>
        <path d="m66.94,42.6c.01-.41.26-.82.83-1.1.53-.27,1.59-.42,2.77.35,1.19.78,1.8,2.17,2.07,3.2.28,1.06.34,1.99.36,2.7.01.72.01,1.12-.11,1.21-.1.05-.54-.08-.7.18-.27.51.24,1.36.17,2.18-.05.76-.38,1.78-2.13,1.65-.88-.08-2.07-.97-2.59-2.06-.54-1.05-.68-2.07-.71-2.98.02-1.88.17-2.93.58-3.07.51-.5-.62-1.48-.53-2.27Z" style="fill: #fa8d81;"/>
        <path d="m44.24,40.47c.42.52.39,1.27.73,2.48.28,1.21.75,2.95,1.45,5,1.36,4.09,3.49,9.26,5.27,13.14,1.47,3.28,2.44,5.32,2.36,6.22-.03.44-.59.79-.55,1.41.06.53.58.99.93,1.5.35.5.55,1.16-.12,1.95-.73.8-2.58.98-4,.39-2.87-1.13-5.06-3.71-6.92-7.68-2.17-4.74-3.52-10.88-3.37-16.09.06-2.59.56-4.99,1.49-6.63.9-1.72,2.39-2.19,2.73-1.68Z" style="fill: #dc0000;"/>
        <path d="m51.72,49.27c1.29.07,2.21,2.39,3.25,5.7,1.02,3.17,2.47,7.88,4.8,10.08,1.14,1.02,1.8,1.25,2.95,1.21,1.15-.06,2.6-.8,3.79-1.67,2.44-1.77,4.15-3.64,5.37-3.16,1.09.39,1.72,3.11-.33,7.19-1.07,1.96-2.95,4.4-6.51,5.72-1.75.64-3.92.86-6.04.37-2.12-.48-4.05-1.63-5.52-3.04-2.95-2.88-4.09-6.17-4.68-8.94-.57-2.81-.52-5.28-.27-7.29.58-4.02,1.96-6.24,3.18-6.16Z" style="fill: #dc0000;"/>
      </g>
      <g>
        <path d="m56.94,73.23s-.44.22-1.52.57c-1.07.31-2.85.89-5.56.38-2.8-.41-5.83-3.33-7.32-7.44-1.66-4.07-2.47-9.21-4.06-15.01-1.91-6.39.02-12.47,3.17-15.75,3.15-3.42,7.07-4.28,9.69-4,2.7.27,4.29,1.31,5.22,1.92.93.66,1.25,1.04,1.26,1.03,0,.02-.45-.23-1.47-.64-1.02-.37-2.68-1-5.04-.89-2.31.1-5.42,1.16-7.85,4.16-2.42,2.92-3.88,7.85-2.25,13.41,1.65,6.09,2.28,11.14,3.57,14.95,1.2,3.85,3.23,6.19,5.46,6.9,2.19.76,4,.61,5.08.55,1.11-.09,1.6-.14,1.6-.13Z"/>
        <path d="m61.74,73.95s.5.02,1.6.04c1.08,0,2.9.04,5-.9,2.14-.9,3.9-3.44,4.84-7.37,1.05-3.89,1.39-8.98,2.93-15.12,1.88-5.65.54-10.48-2.02-13.25-2.57-2.8-5.8-3.54-8.11-3.49-4.77.32-6.47,1.93-6.5,1.72,0,.01.33-.36,1.25-1.03.92-.63,2.47-1.68,5.12-2.11,2.56-.43,6.55-.02,9.96,3.24,3.44,3.1,5.16,9.54,3.05,15.65-1.46,5.78-1.99,10.93-3.38,15.07-1.21,4.15-3.86,7.34-6.63,8.02-2.66.74-4.48.26-5.57.01-1.1-.29-1.54-.49-1.55-.48Z"/>
        <path d="m65.12,72.03s.07.54-.56,1.55c-.57.94-2.29,2.57-5.36,2.43-3.02-.23-4.53-1.79-5.15-2.74-.62-1.02-.5-1.59-.52-1.57.11-.16,1.77,1,5.83,1.47,2.04.09,3.35-.38,4.3-.69.93-.33,1.46-.47,1.47-.45Z"/>
        <path d="m54.45,36.28c.07-.21,1.28,1.1,3.54,1.07,2.39-.48,3.72-1.43,3.77-1.25-.01,0,.07.37-.25,1.1-.33.65-1.12,1.98-3.34,2.28-2.32.15-3.36-1.4-3.59-2.07-.28-.77-.12-1.14-.14-1.13Z"/>
        <path d="m58.01,36.94c.27.12-.31-5.69,2.86-10.42,1.85-2.52,2.56-3.53,2.49-3.6.09.07-1.52-.09-3.67,2.8-1.84,2.64-2.14,5.75-2.04,7.81.11,2.11.37,3.4.35,3.41Z"/>
        <path d="m59.01,37.68c.08.12.72-5.22,3.83-8.97,1.76-1.86,2.66-2.74,2.62-2.86,0,0-.3-.18-1.05-.2-.7.03-2,.3-3.17,1.64-2.06,2.4-2.44,5.28-2.51,7.21-.04,1.98.28,3.19.27,3.19Z"/>
        <path d="m63.49,22.87s.41,0,.81.58c.2.26.46.66.62,1.04.07.23,0,.2.02.1,0,0-.12.09-.22.16-.18.05.22-.06.26,0-1.23-1.22-1.61-1.85-1.49-1.9.09-.35-1.62.94.84,3.16.36.28,1.13.02,1.21-.14.16-.13.3-.23.49-.48.45-.61.11-1.31-.07-1.53-.43-.54-.83-.79-1.22-.99-.8-.44-1.33-.04-1.25-.02Z"/>
      </g>
    </g>
    <g>
      <g>
        <ellipse cx="240.46" cy="48.71" rx="22.6" ry="22.01" style="fill: #ffae00;"/>
        <polygon points="240.66 29.59 241.36 31.22 243.61 31.22 241.79 32.22 242.48 33.85 240.66 32.85 238.84 33.85 239.54 32.22 237.72 31.22 239.97 31.22 240.66 29.59" style="fill: #b3ae00;"/>
        <path d="m247.46,45.35c.23-1.04,1-1.91,1.25-2.73.28-.79.54-1.49,1.05-2.13.97-1.41,2.37-.76,4.53-1.42,2.19-.78,4.13,3.1,1.44,6.26-1.24,1.61-3.59,2.77-5.6,2.54-2.04-.21-2.93-1.53-2.68-2.51Z" style="fill: #ffc72d;"/>
        <path d="m224.52,36.7c1.66.6,1.11,5.17,2.65,9.63,1.38,4.42,5.48,8.21,10.87,10.19,11.25,3.65,13.79.51,17.39,1.5.75.33,1.36,1.11,1.36,2.49,0,1.35-.75,3.37-2.69,5.19-3.87,3.72-11.82,5.58-20.43,2.32-4.3-1.62-8.42-4.51-11.26-8.4-2.89-3.86-4.15-8.65-3.89-12.47.21-3.86,1.54-6.7,2.78-8.39,1.26-1.71,2.46-2.37,3.23-2.06Z" style="fill: #fa9700;"/>
      </g>
      <g>
        <path d="m240.46,26.87s-1.06.04-3.42.42c-2.29.45-6.15,1.16-10.32,4.37-4.13,3.11-7.86,9.65-7.22,18.4.29,4.26,1.82,9.02,5.38,12.81,3.5,3.8,9.08,6.26,15.4,6.25,6.32.09,11.95-2.26,15.52-6,3.63-3.72,5.24-8.45,5.59-12.71.78-8.73-3.36-15.13-7.36-18.34-4.09-3.34-7.88-4.24-10.16-4.74-2.35-.43-3.42-.44-3.41-.46,0,.03,1.05-.15,3.47.01,2.36.25,6.37.78,10.98,4.04,4.49,3.11,9.48,10,8.9,19.65-.24,4.69-1.91,10.11-6.02,14.45-4.04,4.37-10.54,7.09-17.52,6.97-6.99.03-13.45-2.81-17.4-7.25-4.03-4.41-5.61-9.85-5.78-14.55-.45-9.54,4.1-16.66,8.79-19.69,4.73-3.15,8.76-3.46,11.12-3.66,2.42-.12,3.47.05,3.47.03Z"/>
        <path d="m238.2,35.14s.27-.98,2.26-2.12c1.43,0,.4,0,.72,0h0s0,0,0,0h0s.01.01.01.01h.02s.05.04.05.04l.09.05.17.11.31.21c.2.14.37.27.52.39.3.25.53.48.68.68.32.39.38.63.38.63,0,0-.25.07-.74-.01-.25-.04-.56-.11-.93-.25-.19-.07-.39-.15-.6-.25l-.34-.17-.18-.09-.09-.05-.05-.03h-.02s-.01-.02-.01-.02h0s0,0,0,0h0c.32,0-.72,0,.71,0-1.99,1.14-2.97.88-2.97.88Z"/>
        <path d="m243.44,35.14s-.23-.09-.56-.42c-.17-.17-.36-.4-.56-.71-.1-.16-.2-.33-.31-.53l-.16-.32-.08-.17c-.27.8.37-1.09.31-.9h0s0,0,0,0h0s.01,0,.01,0h.02s.04-.04.04-.04l.09-.05c1.86-1.07,2.8-.78,2.8-.78,0,0-.23.96-2.09,2.03l-.09.05-.04.02h-.02s-.01.02-.01.02h0s0,0,0,0h0c-.07.2.58-1.7.31-.89l.07.18.11.33c.07.21.12.41.16.59.08.36.1.66.1.9,0,.47-.1.7-.1.7Z"/>
        <path d="m245.05,31.21s-.7.72-2.93.72h-.2s-.1,0-.1,0h0c.14.1-1.25-.84-.66-.44h0s0,0,0,0h0s0-.03,0-.03l-.02-.05-.12-.35c-.07-.22-.12-.43-.17-.62-.08-.38-.11-.68-.11-.93,0-.49.09-.72.09-.72,0,0,.23.09.57.45.17.18.37.42.57.74.1.16.21.35.32.55l.16.33.02.04v.02s.02.01.02.01h0s0,0,0,0c.59.4-.8-.54-.66-.44h.1s.2,0,.2,0c2.23,0,2.93.72,2.93.72Z"/>
        <path d="m240.82,28.78s.1.23.09.72c0,.24-.03.55-.12.93-.04.19-.09.39-.17.62l-.12.35-.02.05v.02s-.01.01-.01.01h0s0,0,0,0c-.3.2.66-.44-.66.44h-.1s-.2,0-.2,0c-2.23,0-2.93-.72-2.93-.72,0,0,.7-.72,2.93-.72h.2s.1,0,.1,0h0c-1.32.88-.37.24-.66.44h0s0,0,0,0h0s0-.03,0-.03l.02-.04.16-.33c.11-.21.21-.39.32-.55.21-.32.4-.56.57-.74.34-.35.57-.45.57-.45Z"/>
        <path d="m236.59,31.21s.95-.29,2.8.78l.09.05.04.02h.02s.01.02.01.02h0s0,0,0,0h0c-.07-.19.58,1.7.31.9l-.08.17-.16.32c-.1.2-.21.38-.31.53-.2.31-.39.54-.56.71-.33.34-.56.42-.56.42,0,0-.1-.23-.1-.7,0-.24.03-.53.1-.9.04-.18.09-.38.16-.59l.11-.33.07-.18c-.27-.8.37,1.09.31.89h0s0,0,0,0h0s-.01,0-.01,0h-.02s-.04-.04-.04-.04l-.09-.05c-1.86-1.07-2.09-2.03-2.09-2.03Z"/>
      </g>
    </g>
    <g>
      <g>
        <path d="m105.03,171.59c-.29-.07-.66-.2-1.1-.34-2.83-.9-8.43-2.05-13.34,13.06-5.67,17.46-3.79,29.97,14.58,28.83,7.05,0,24.1.76,15.47-23.66-5.13-14.51-5.82-21.28-13.85-18.6l-1.75.7Z" style="fill: #a9c000;"/>
        <path d="m103.16,161.14c-.74-.74-3.39,1.17-1.81,2.74,1.57,1.57,5.35,3.5,3.95,11.38.72.42.91-.69.91-.69.52-7.58.22-10.16-3.06-13.44Z" style="fill: #9d7c00;"/>
        <path d="m98.39,187.11c0,.78-1.09,1.44-1.87,2.58-.77,1.1-1.35,2.7-1.41,4.96-.09,2.17.63,5.01,1.85,6.33.33.4,1.74,1.49,2.4,1.72.79.23.47.19,1.53-.01.54-.14,1.3-.44,2.61-.8,1.18-.34,3.59-.73,5.88.21.56.22,1.03.48,1.49.77.22.14.41.29.6.44l.29.23s-.07-.06-.1-.08c-.37-.23-.64-.3-.78-.31-.29,0-.11.12.15.14,1.24.13,3.09-.43,4.19-.82,1.18-.43,1.98-.73,2.74-1.07.75-.33,1.44-.81,2.2-.88.73-.08,1.61.37,1.99,1.84.38,1.44-.07,3.74-1.61,5.83-1.61,2.05-3.83,4.18-8.15,5.19-1.12.21-2.43.37-4.2-.02-.87-.2-1.87-.56-2.87-1.27l-.18-.13-.09-.07-.05-.03-.02-.02c1.66-2.05.47-.57.84-1.03l.14-.17c.09-.11.19-.27.25-.37.11-.16.2-.36.21-.39.05-.11-.08.1-.04.94,0,.26.03.47.07.77.01.27.14,1.04.12.85-.03.01-.06.02-.17.06-.39.11-1.32.49-2.6.85-1.28.36-2.99.64-4.76.45-1.76-.17-3.45-.77-4.77-1.53-2.65-1.64-4.23-3.1-5.93-5.83-2.72-5.1-2.21-9.95-.84-13.69,1.37-3.78,4.49-6.51,7.09-6.92,2.6-.44,3.8.6,3.76,1.29Z" style="fill: #97ac00;"/>
        <path d="m98.57,173.38c.46.54.3,1.94-.03,4.37-.35,2.37-.97,5.5-1.94,8.39-1.78,5.81-5.1,8.37-6.26,7.15-1.02-1.08-.79-3.26,1.03-8.91.93-2.78,2.16-5.77,3.52-7.99,1.27-2.23,3.11-3.66,3.69-3.01Z" style="fill: #97b100;"/>
        <path d="m110.38,178.05c.78-.04,1.52,1.29,2.35,2.86.82,1.6,1.82,3.39,2.57,5.21.63,1.51.76,3.02.38,3.96-.36.96-1.1,1.28-1.85,1.27-.78,0-1.45-.27-2.02-.68-.57-.43-1.05-1.03-1.65-2.5-.71-1.71-1.38-4.36-1.27-6.47.08-2.12.73-3.62,1.48-3.66Z" style="fill: #c2d700;"/>
      </g>
      <g>
        <path d="m106.62,174.3s.22-1.2.7-3.08c.41-1.83.95-4.72-.4-7.49-1.72-2.98-3.36-2.75-3.24-2.83-.09.07.7.95,2.08,3.4,1.15,2.29,1.03,4.93.92,6.82-.16,1.91-.09,3.18-.06,3.17Z"/>
        <path d="m105.71,174.99s.27-1.08.57-2.82c.22-1.7.62-4.28-.82-6.88-.86-1.46-2.13-1.81-2.75-1.85-.69,0-.96.17-.96.16-.06.13.88.88,2.05,2.69,1.05,1.8,1.28,4.18,1.51,5.86.19,1.71.39,2.84.4,2.84Z"/>
        <path d="m103.57,160.87c.07-.02-.41-.38-1.15.02-.36.18-.73.42-1.12.91-.17.2-.48.84-.07,1.4.18.24.3.32.45.44.07.14.78.38,1.1.13,2.26-2.04.7-3.22.78-2.9.12.07-.27.55-1.33,1.83.11.19.08.32.1.21.01-.08.04-.08.13-.28,0,0,0,0-.03-.02-.1-.06-.21-.15-.21-.15-.22.11-.11.06-.01.07-.02-.01.01-.1.03-.17.15-.35.39-.72.57-.96.37-.54.73-.57.75-.53Z"/>
        <path d="m106.18,170.94c.02.06,1.19-.67,3.62-.99,1.18-.12,2.87.02,4.27,1.24,1.39,1.18,2.31,3.01,3.11,4.96,1.59,3.95,2.92,8.69,5.23,13.47,2.49,4.84,3.78,11.92.13,17.73-2,3.2-4.89,4.82-7.22,5.61-2.39.76-4.34.82-5.79.73-2.91-.25-3.95-.85-3.96-.81,0-.04,1.18-.09,3.89-.49,2.53-.53,7.41-1.26,10.88-6.43,2.98-4.7,2.21-10.78.07-15.45-2.18-5.08-3.21-9.99-4.45-13.92-.63-1.95-1.35-3.69-2.45-4.81-1.09-1.15-2.55-1.44-3.7-1.44-2.35.07-3.63.65-3.63.59Z"/>
        <path d="m104.66,171.24c-.02.07-1.19-.71-3.66-.91-1.21-.08-2.87.31-4.18,1.56-1.32,1.21-2.36,2.92-3.35,4.81-.99,1.89-1.94,3.99-2.96,6.22-1.02,2.19-2.16,4.64-2.97,7.31-1.56,5.21-2.62,11.95.87,17.89,2,3.25,4.98,4.89,7.38,5.54,2.45.65,4.43.56,5.88.36,2.91-.48,3.89-1.17,3.9-1.13,0-.04-1.19.02-3.94-.16-1.37-.12-3.14-.37-5.16-1.14-1.99-.79-4.24-2.2-5.86-4.82-2.88-4.78-2.26-10.92-.97-15.93.66-2.58,1.59-4.92,2.5-7.22.89-2.29,1.68-4.44,2.5-6.35.82-1.91,1.67-3.6,2.75-4.78,1.07-1.21,2.45-1.69,3.61-1.74,2.35-.06,3.66.58,3.66.5Z"/>
        <path d="m108.62,173.68s.07.33-.19.98c-.21.52-1.05,1.96-3.19,1.79-1.91-.37-2.53-1.35-2.93-1.86-.36-.57-.39-.9-.39-.9-.02-.15,1.39.24,3.56.84.94.12,1.66-.29,2.25-.53.56-.25.89-.32.9-.31Z"/>
      </g>
    </g>
    <g>
      <g>
        <path d="m204.78,169.76c2.16,1.36,2.56,5.56.17,12-2.38,6.44-14.19,21.2-25.05,15.25-10.86-5.95-1.9-24.59-.17-28.21s10.89-9.74,14.94-5.7c4.05,4.04,10.1,6.66,10.1,6.66Z" style="fill: #f00000;"/>
        <path d="m184.57,167.02c2.77.97,1.28,9.54,1.58,17.8.1,1.98.52,3.58.71,4.15.09.48-.07.91,1.07,1.29,2.19.54,4.87.19,5.56,1.46.63,1.06.03,3.71-4.41,5.65-1.16.4-2.68.7-4.49.36-1.8-.31-3.71-1.41-5-2.84-2.62-2.93-3.35-6.33-3.59-9.43-.3-6.26,1.58-11.09,3.39-14.28,1.89-3.18,3.9-4.66,5.19-4.16Z" style="fill: #d20000;"/>
        <path d="m208,167.44s-4.34,1.67-5.08.52c-.74-1.14,1.55-6.05,1.55-6.05,0,0-5.52-.59-4.86,4.57-2.25-1.62-5.05-7.56-5.05-7.56,0,0,1.42,6.46,2.87,8.86-3.95-.84-6.42.76-6.42.76l8.86,3.2s.05,1.52,1.13,2.6c1.19-.47,3.1-.38,3.1-.38,0,0,.57-.66,3.81.64-.87-1.8-2.4-4.11-2.4-4.11,1.19-.5,2.47-2.47,2.49-3.05Z" style="fill: #8db300;"/>
        <path d="m193.93,181.41c.88-2.4,3.37-8.41,10.16-7.45,6.8.96,25.61,16.32,22.1,28.19-3.51,11.87-24.61,7.48-28.52,6.55-3.91-.93-11.83-8.58-8.74-13.39,3.09-4.82,4.99-13.9,4.99-13.9Z" style="fill: red;"/>
        <path d="m197.46,181.44c1.31.66.81,3.88.3,8.24-.24,2.1-.35,4.72.27,6.12.32.69.59.96,1.14,1.33.55.37,1.54.81,2.88,1.12,2.68.64,5.96.81,9.09,1.07,2.58.24,4.54.09,5.81-.33,2.67-.65,3.57-3.81,4.88-4.03.66-.13,1.58.53,2.02,2.31.43,1.66.12,4.87-2.52,7.44-2.57,2.57-6.46,3.75-10.2,4-3.21.22-6.99.48-11.48-.55-2.22-.54-4.64-1.46-6.78-3.28-2.18-1.78-3.62-4.58-3.99-6.99-.67-4.88.86-8.05,2.04-10.46,2.62-4.74,5.37-6.59,6.55-5.99Z" style="fill: #dc0000;"/>
        <path d="m189.99,176.03s.72,9-.24,9.97c-.96.96-7.32,2.94-7.32,2.94,0,0,2.23,3.24,7.13,1.5-1.1,2.55-5.91,6.85-5.91,6.85,0,0,7.25-.64,8.38-6.8,2.29,2.29,4.5,2.68,4.5,2.68l-2.18-5.01s5.03.15,5.28-3.77c-2.04.36-4.65.36-4.65.36,0,0,3.05-3.3,3.64-6.74-3.34,2.49-6.01,4.35-6.01,4.35.61-3.46-2.03-6.42-2.61-6.31Z" style="fill: #8db300;"/>
        <path d="m216.3,189.44c-1.3,1.29-5.82-.84-8.28-2.39-1.03-.67-1.41-1.23-1.44-1.89.03-.63.1-1.47-.2-2.4-.3-.88.29-1.92,1.5-2.22,1.13-.31,2.51-.06,3.85.82,3.21,2.06,5.93,6.74,4.57,8.08Z" style="fill: #ff5651;"/>
        <path d="m191.46,199.09c.32-.2,1.08.46,1.42,1.01.29.47.13.79-.19.99s-.68.19-.97-.28c-.34-.55-.58-1.52-.26-1.72Z" style="fill: #e3b186;"/>
        <path d="m195.48,195.83c.28-.25,1.15.24,1.58.72.37.4.28.75,0,1.01-.28.25-.63.31-1-.09-.44-.48-.86-1.39-.58-1.64Z" style="fill: #e3b186;"/>
        <path d="m197.64,203.02c.28-.25,1.15.25,1.58.72.37.4.28.75,0,1.01s-.63.31-1-.09c-.44-.48-.86-1.39-.58-1.64Z" style="fill: #e3b186;"/>
        <path d="m198.48,189.52c.2-.32,1.17-.08,1.72.26.47.29.47.65.28.97-.2.32-.52.48-.99.19-.55-.34-1.21-1.1-1.01-1.42Z" style="fill: #ebbe95;"/>
        <path d="m200.22,195.55c.2-.32,1.17-.08,1.72.26.47.29.47.65.28.97-.2.32-.52.48-.99.19-.55-.34-1.21-1.1-1.01-1.42Z" style="fill: #ebbe95;"/>
        <path d="m203.68,202.37c.2-.32,1.17-.08,1.72.26.47.29.47.65.28.97s-.52.48-.99.19c-.55-.34-1.21-1.1-1.01-1.42Z" style="fill: #e3b186;"/>
        <path d="m207.17,192.92c.2-.32,1.17-.08,1.72.26.47.29.47.65.28.97-.2.32-.52.48-.99.19-.55-.34-1.21-1.1-1.01-1.42Z" style="fill: #ebbe95;"/>
        <path d="m209.14,199.72c.2-.32,1.17-.08,1.72.26.47.29.47.65.28.97-.2.32-.52.48-.99.19-.55-.34-1.21-1.1-1.01-1.42Z" style="fill: #e3b186;"/>
        <path d="m207.43,207.21c.12-.36,1.12-.34,1.73-.14.52.17.61.52.49.88-.12.36-.4.58-.92.41-.61-.2-1.43-.79-1.31-1.15Z" style="fill: #e3b186;"/>
        <path d="m213.07,190.21c.2-.32,1.17-.08,1.72.26.47.29.47.65.28.97-.2.32-.52.48-.99.19-.55-.34-1.21-1.1-1.01-1.42Z" style="fill: #ebbe95;"/>
        <path d="m215.67,182.97c.25-.28,1.16.14,1.64.58.4.37.34.72.09,1-.25.28-.6.37-1.01,0-.48-.44-.98-1.3-.73-1.58Z" style="fill: #ebbe95;"/>
        <path d="m216.03,197.1c.2-.32,1.17-.08,1.72.26.47.29.47.65.28.97-.2.32-.52.48-.99.19-.55-.34-1.21-1.1-1.01-1.42Z" style="fill: #ebbe95;"/>
        <path d="m219.64,190.04c.2-.32,1.17-.08,1.72.26.47.29.47.65.28.97-.2.32-.52.48-.99.19-.55-.34-1.21-1.1-1.01-1.42Z" style="fill: #ebbe95;"/>
        <path d="m213.73,204.32c.2-.32,1.17-.08,1.72.26.47.29.47.65.28.97-.2.32-.52.48-.99.19-.55-.34-1.21-1.1-1.01-1.42Z" style="fill: #e3b186;"/>
        <path d="m222.26,197.42c.2-.32,1.17-.08,1.72.26.47.29.47.65.28.97-.2.32-.52.48-.99.19-.55-.34-1.21-1.1-1.01-1.42Z" style="fill: #e3b186;"/>
        <path d="m219.96,202.84c.2-.32,1.17-.08,1.72.26.47.29.47.65.28.97-.2.32-.52.48-.99.19-.55-.34-1.21-1.1-1.01-1.42Z" style="fill: #e3b186;"/>
        <path d="m211.11,183.74c.2-.32,1.17-.08,1.72.26.47.29.47.65.28.97-.2.32-.52.48-.99.19-.55-.34-1.21-1.1-1.01-1.42Z" style="fill: #ebbe95;"/>
        <path d="m204.86,186.42c.2-.32,1.17-.08,1.72.26.47.29.47.65.28.97-.2.32-.52.48-.99.19-.55-.34-1.21-1.1-1.01-1.42Z" style="fill: #ebbe95;"/>
        <path d="m201.67,181.01c.07-.37,1.07-.48,1.7-.36.54.11.67.44.6.81-.07.37-.32.63-.86.52-.63-.13-1.51-.61-1.44-.98Z" style="fill: #ebbe95;"/>
        <path d="m179.42,176.88c.36.1.41,1.1.25,1.72-.14.53-.48.64-.85.54-.36-.1-.61-.36-.47-.89.17-.63.7-1.47,1.07-1.37Z" style="fill: #e3b186;"/>
        <path d="m184.1,179.7c.35.14.28,1.14.05,1.74-.2.51-.55.58-.9.44-.35-.14-.56-.43-.36-.94.24-.6.87-1.38,1.22-1.24Z" style="fill: #e3b186;"/>
        <path d="m182.81,172.76c.35.14.28,1.14.05,1.74-.2.51-.55.58-.9.44-.35-.14-.56-.43-.36-.94.24-.6.87-1.38,1.22-1.24Z" style="fill: #e3b186;"/>
        <path d="m188.57,176.08c.35.14.28,1.14.05,1.74-.2.51-.55.58-.9.44s-.56-.43-.36-.94c.24-.6.87-1.38,1.22-1.24Z" style="fill: #ebbe95;"/>
        <path d="m195.79,176.62c.25.28-.26,1.14-.74,1.58-.41.36-.76.27-1.01-.01-.25-.28-.31-.64.1-1,.48-.43,1.4-.84,1.65-.56Z" style="fill: #ebbe95;"/>
        <path d="m194.86,171.35c.25.28-.26,1.14-.74,1.58-.41.36-.76.27-1.01-.01s-.31-.64.1-1c.48-.43,1.4-.84,1.65-.56Z" style="fill: #ebbe95;"/>
        <path d="m190.58,164.99c.08.37-.79.87-1.42,1-.53.12-.79-.14-.87-.51-.08-.37.05-.71.58-.82.63-.14,1.63-.04,1.71.33Z" style="fill: #ebbe95;"/>
        <path d="m187.95,170.56c.28.25-.15,1.16-.59,1.64-.37.4-.73.34-1,.08-.28-.25-.37-.6,0-1.01.44-.48,1.31-.97,1.59-.71Z" style="fill: #ebbe95;"/>
        <path d="m183.82,166.45c.31.22,0,1.17-.38,1.7-.32.45-.68.43-.98.21-.31-.22-.44-.55-.12-1,.38-.53,1.18-1.13,1.48-.91Z" style="fill: #e3b186;"/>
        <path d="m184.1,185.46c.35.14.28,1.14.05,1.74-.2.51-.55.58-.9.44-.35-.14-.56-.43-.36-.94.24-.6.87-1.38,1.22-1.24Z" style="fill: #e3b186;"/>
        <path d="m179.45,184.64c.35.14.28,1.14.05,1.74-.2.51-.55.58-.9.44s-.56-.43-.36-.94c.24-.6.87-1.38,1.22-1.24Z" style="fill: #e3b186;"/>
        <path d="m180.9,190.66c.35.14.28,1.14.05,1.74-.2.51-.55.58-.9.44-.35-.14-.56-.43-.36-.94.24-.6.87-1.38,1.22-1.24Z" style="fill: #e3b186;"/>
        <path d="m184.47,194.24c.35.14.28,1.14.05,1.74-.2.51-.55.58-.9.44s-.56-.43-.36-.94c.24-.6.87-1.38,1.22-1.24Z" style="fill: #e3b186;"/>
        <path d="m189.13,182.67c.29.24-.09,1.17-.5,1.67-.35.42-.71.38-1,.14-.29-.24-.4-.58-.05-1,.41-.5,1.26-1.04,1.54-.8Z" style="fill: #ebbe95;"/>
        <path d="m206.69,178.73c.07-.37,1.07-.48,1.7-.36.54.11.67.44.6.81-.07.37-.32.63-.86.52-.63-.13-1.51-.61-1.44-.98Z" style="fill: #ebbe95;"/>
        <path d="m201.34,175.41c0-.38.95-.68,1.6-.68.55,0,.74.3.74.68,0,.38-.19.68-.74.68-.65,0-1.6-.3-1.6-.68Z" style="fill: #ebbe95;"/>
      </g>
      <g>
        <path d="m182.18,189.58c.08-.15,1.02.78,3.43,1.54,2.53.37,3.68-.14,3.7-.04,0-.01-.03.34-.57.83-.52.43-1.65,1.13-3.47.77-1.81-.46-2.52-1.56-2.82-2.14-.28-.64-.26-.95-.26-.95Z"/>
        <path d="m189.31,191.08s.25.35.1,1.33c-.12.99-1.07,2.45-2.82,3.73-1.75,1.29-2.74,2-3.2,2.64-.44.64-.5,1.06-.54,1.05.06,0-.34-.3-.2-1.34.16-1.04,1.26-2.36,2.97-3.6,3.42-2.37,3.53-3.77,3.7-3.8Z"/>
        <path d="m182.84,199.82c.05.04-.23-.51.5-1.47.71-.95,2.34-1.75,4.47-2.83,4.17-2.19,3.66-4.55,3.97-4.4-.04,0,.26.38.21,1.51.01,1.11-1.02,3.11-3.43,4.29-2.35,1.18-3.89,1.52-4.69,2.02-.8.45-.99.9-1.03.87Z"/>
        <path d="m191.77,191.07c.13-.09.77.66,2.77,1.44,1.31.5,1.98,1.51,2.1,2.04.17.57.09.84.09.84-.11.09-.84-.59-2.82-1.42-1.29-.46-2.02-1.52-2.1-2.06-.15-.58-.04-.85-.05-.84Z"/>
        <path d="m196.74,195.39s-.85-.69-1.95-3.16c-1.16-2.47-1.01-3.6-.99-3.61-.02,0,1.21.32,2.44,2.95,1.19,2.69.47,3.86.5,3.82Z"/>
        <path d="m194.08,185.76c-.03-.08,1.25-.95,2.81-4.98,1.39-4.13,1.96-5.62,2.07-5.58-.12-.03.94,1.57-.58,6.15-.85,2.26-2.09,3.49-2.96,3.99-.89.52-1.35.41-1.34.42Z"/>
        <path d="m198.96,175.2s.09.38-.02,1.3c-.17.87-.42,2.48-2.13,4.2-1.82,1.58-3.02,1.94-3.68,2.53-.69.5-1.02.73-1.03.72.02,0-.02-.4.43-1.24.38-.9,1.75-1.9,3.17-3.15,2.51-2.91,3.1-4.49,3.25-4.35Z"/>
        <path d="m193.79,188.62s.33-.11,1.05-.26c.68-.19,1.93-.3,2.92-1.24.92-1,1.01-2.25,1.21-2.94.13-.73.3-1.05.3-1.05,0,0,.22.25.5,1.01.14.69.68,2.27-.88,4.1-1.8,1.58-3.39,1.07-4.09.91-.77-.26-1-.54-1-.53Z"/>
        <path d="m199.27,183.13s.29.09.53.71c.11.29.12.94-.37,1.45-.47.47-1.09.7-1.77.84-2.7.42-3.52-.42-3.53-.39-.03-.03.81-.8,3.22-1.17,1.24-.28,1.44-.29,1.66-.72.18-.43.25-.73.27-.72Z"/>
        <path d="m192.1,183.95s-.11-.36-.13-1.13c-.04-.78-.06-1.89-.71-3.47-1.56-3.08-2.31-4.3-2.19-4.35-.12.1,1.72,0,3.65,3.74.83,1.98.39,3.55.02,4.25-.38.74-.65.95-.65.96Z"/>
        <path d="m189.07,174.99c-.19-.04,1.93.91,1.95,5.78-.31,4.7-1.63,5.82-1.51,5.87-.12.02-.35-1.6-.08-5.9.02-4.26-.49-5.68-.36-5.74Z"/>
        <path d="m189.5,186.64s-.47,1.05-3.14,2.65c-1.37.79-2.59.97-3.31.79-.73-.19-.87-.53-.88-.5.11-.06.94-.18,3.41-1.68,2.59-1.56,3.95-1.3,3.91-1.26Z"/>
        <path d="m190.2,190.18s.43-.02.88-.89c.24-.41.52-.96.8-1.7.14-.36.28-.77.38-1.21.05-.21.09-.45.1-.64.07-.19-.17-.39.18-.06.47.09.17,0,.05.18-.16.12-.32.29-.47.45-.3.33-.55.69-.77,1.01-.44.65-.73,1.2-.93,1.63-.45.87-.24,1.21-.22,1.24.05.09-.67-.22-.55-1.4.02-.56.16-1.27.53-2.1.19-.42.42-.87.77-1.34.18-.23.38-.47.67-.71.31-.15.56-.69,1.66-.36.9.71.61,1.23.66,1.57-.03.37-.11.67-.2.95-.18.56-.42,1.01-.65,1.4-.47.78-.98,1.3-1.42,1.64-.91.77-1.57.36-1.47.35Z"/>
        <path d="m193.88,180.85c.1.09.59-2.15,3.49-4.73,1.46-1.24,3.83-2.24,6.62-2.01,2.78.18,5.74,1.4,8.57,3.25,5.56,3.8,11.32,9.74,14.45,18.2.66,2.14,1.23,4.57.47,7.25-.78,2.45-2.56,4.66-4.81,5.94-4.49,2.53-9.32,3.08-14.2,3.52-5.55.35-10.34-.74-13.79-2.63-3.47-1.89-5.52-4.51-6.41-6.71-1.7-4.62.11-6.44-.11-6.36.15-.08-.65,2.05,1.52,5.63,2.08,3.5,8.28,7.61,18.6,6.9,4.52-.37,9.29-1,12.83-2.96,1.75-.96,2.96-2.47,3.61-4.21.54-1.6.25-3.68-.29-5.56-2.51-7.67-7.76-13.85-12.79-17.69-2.57-1.9-5.25-3.21-7.76-3.55-2.52-.38-4.74.35-6.22,1.41-2.96,2.23-3.71,4.43-3.79,4.33Z"/>
        <path d="m207.72,175.05c-.05.04-.8-.51-1.8-1.75-1.08-1.1-1.65-1.78-1.61-1.85-.09.11,1-.9,2.79.79,1.46,1.9.53,2.86.62,2.81Z"/>
        <path d="m204.25,171.44c-.04-.14.8-.57,2.03-2.16.81-1.07,1.93-1.4,2.45-1.36.57.01.8.17.8.16.05.12-.75.65-2.02,2.21-.77,1.06-1.95,1.43-2.46,1.35-.57-.03-.79-.21-.79-.2Z"/>
        <path d="m209.52,168.08s-.86.63-3.4.96c-2.56.39-3.55-.09-3.56-.11,0,.02.61-1.05,3.34-1.47,2.77-.36,3.65.65,3.62.61Z"/>
        <path d="m200.03,167.91s-1.63-.44-4.01-4.13c-2.3-3.72-2.09-5.36-2.12-5.34.03-.02,1.25.89,3.47,4.48,2.28,3.54,2.68,4.95,2.67,4.98Z"/>
        <path d="m193.9,158.44s1,1.27,1.98,5.5c1.12,3.96,2.13,5.18,1.97,5.28,0,0-.39-.11-1.11-.73-.71-.58-1.83-1.88-2.39-4.14-1.02-4.41-.41-5.89-.45-5.91Z"/>
        <path d="m202.56,168.94c0,.25-1.52-1.01-.32-3.99,1.18-2.83,2.45-3.15,2.41-3.17.04.01.14,1.17-.93,3.74-1.01,2.54-1.22,3.33-1.16,3.43Z"/>
        <path d="m204.65,161.77c-.03-.07.22.48-.59,1-.7.5-2.19.45-2.89,1.2-.68.89-.69,2.24-.86,2.87-.13.71-.27,1.02-.28,1.01,0,0-.25-.23-.52-.94-.12-.68-.9-1.97.47-4.01.88-.93,1.89-.94,2.48-.96.63,0,1.05.07,1.35.07.59.04.83-.27.84-.25Z"/>
        <path d="m197.85,169.22c-.05.24-1.32-.61-4.41-.44-3.21.59-4.54.9-4.56.78.06.14.44-1.6,4.39-2.36,2.04-.22,3.35.62,3.89,1.15.57.56.68.87.69.87Z"/>
        <path d="m188.87,169.56c-.09.16,1.35-1.55,5.8-.26,4.21,1.55,4.85,3.09,4.93,3-.01.12-1.57-.08-5.41-1.49-3.86-1.16-5.29-1.13-5.32-1.26Z"/>
        <path d="m199.6,172.31s.74.23,1.18,1.04c.53.97,0,1.7,0,1.68,0-.02-.85.08-1.41-.95-.61-1.21.26-1.83.24-1.77Z"/>
        <path d="m203.02,172.63s.08-.4-.59-1.04c-.31-.32-.74-.72-1.33-1.17-.3-.22-.63-.46-1-.67-.18-.1-.38-.2-.55-.26-.15-.12-.4.06.04-.18.23-.44.06-.19.18-.04.06.17.17.36.28.54.22.36.47.69.7.97.47.57.89.99,1.22,1.29.66.65,1.03.57,1.06.55.1-.03-.38.56-1.44.14-.51-.17-1.12-.48-1.79-1.04-.33-.28-.68-.62-1.01-1.07-.16-.23-.33-.48-.47-.81-.06-.33-.49-.71.13-1.65.92-.65,1.32-.23,1.65-.19.34.13.58.29.82.44.46.32.81.66,1.1.98.58.65.92,1.25,1.1,1.75.45,1.05-.12,1.54-.09,1.44Z"/>
        <path d="m195.45,164s-.87-.95-3.03-1.6c-2.1-.66-5.7-.66-9.16,1.57-3.46,2.18-6.32,6.31-7.97,11.15-1.56,4.81-2.87,10.42-1.41,16.39.92,3.33,2.68,5.76,4.89,7.16,2.31,1.22,4.19,1.12,5.52,1.05,2.7-.29,3.62-.94,3.64-.9.01-.04-1.1-.19-3.54-.69-1.18-.28-2.79-.69-4.14-1.7-1.25-1.07-2.62-3.1-3.31-5.75-1.23-4.84-.31-10.21.9-14.76,1.26-4.57,3.48-8.43,6.33-10.67,2.83-2.28,6.06-2.73,8.13-2.38,2.12.33,3.14,1.16,3.14,1.12Z"/>
      </g>
    </g>
  </g>
  <g id="c" data-name="start">
    <g>
      <path d="m89.84,105.08c0,1.18-.79,1.77-2.36,1.77-.2,0-.5-.02-.91-.07-.41-.05-.71-.07-.91-.07-1.31,0-2.98.25-5,.74-2.65.65-4.3,1.03-4.96,1.13-.23,1.6-.46,3.19-.69,4.76-.26,1.93-.39,3.53-.39,4.81,0,1.05.26,1.55.79,1.52l.34-.05c2.65-.23,4.48-.34,5.5-.34,2.32,0,3.99.72,5,2.16,0,1.37-.51,2.06-1.52,2.06-.2,0-.48-.05-.86-.15-.38-.1-.66-.15-.86-.15-.43,0-1.03-.02-1.82-.05h-1.82c-1.73,0-3.11.1-4.12.3-.52.13-.83.29-.93.47-.1.18-.17.59-.22,1.23s-.07,1.27-.07,1.9c0,3.84.13,5.93.39,6.25.49.72.74,1.2.74,1.43,0,.46-.27.91-.81,1.35-.54.44-1.04.66-1.5.66-1.15,0-1.9-.34-2.26-1.03-.69-1.25-1.03-3.65-1.03-7.23,0-1.97.19-4.9.56-8.8.38-3.9.56-6.83.56-8.8,0-1.44-.12-2.16-.34-2.16-.07,0-.17.02-.32.05-.15.03-.25.05-.32.05-.39,0-.76-.26-1.1-.79-.34-.52-.52-1.01-.52-1.47,0-.52.32-.92.97-1.18.1-.06.65-.23,1.63-.49-.1-.29-.15-.52-.15-.69,0-1.11.56-1.67,1.67-1.67.62,0,1.59.51,2.9,1.52,5.17-.88,8.75-1.32,10.75-1.32.95,0,1.8.16,2.55.49.95.43,1.42,1.05,1.42,1.86Z" style="fill: #95c000;"/>
      <path d="m95.49,116.9c0,.59-.13,1.42-.39,2.5-.26,1.08-.39,1.91-.39,2.5v10.11c0,.62.2,1.6.59,2.94-.5.75-1.04,1.13-1.64,1.13-2.08,0-3.22-1.03-3.42-3.09-.33-3.83-.49-6.71-.49-8.64,0-3.24.13-5.95.39-8.15v-.49c0-.59.45-.88,1.36-.88.81,0,1.62.16,2.43.49,1.04.36,1.56.88,1.56,1.57Zm.44-6.87c0,.72-.25,1.31-.74,1.77-.49.46-1.1.69-1.82.69-.85,0-1.64-.29-2.38-.88-.74-.59-1.1-1.31-1.1-2.16,0-.72.25-1.31.76-1.77.51-.46,1.14-.69,1.89-.69.88,0,1.67.29,2.35.86.69.57,1.03,1.3,1.03,2.18Z" style="fill: #95c000;"/>
      <path d="m113.79,117c0,2.35-.75,5.95-2.26,10.79-1.77,5.56-3.48,8.34-5.15,8.34-2.39,0-4.51-2.34-6.38-7.02-1.15-2.91-2.08-6.31-2.8-10.21-.16-.95-.25-1.68-.25-2.21s.24-.99.71-1.4c.47-.41.97-.61,1.5-.61.62,0,1.59.47,2.9,1.42-.23.75-.34,1.39-.34,1.91,0,1.77.43,4.07,1.3,6.92.87,2.85,1.81,4.99,2.82,6.43v.15c1.19,0,2.12-2.22,2.79-6.67.46-3.04.7-5.82.7-8.34,0-.49.25-.92.75-1.28.5-.36.99-.54,1.48-.54,1.49,0,2.23.77,2.23,2.31Z" style="fill: #95c000;"/>
      <path d="m131.26,131.48c0,1.64-1.11,2.91-3.34,3.83-1.73.72-3.55,1.08-5.45,1.08-5.04,0-7.56-2.86-7.56-8.59,0-2.36.57-4.97,1.72-7.85,1.41-3.53,3.11-5.3,5.1-5.3,1.8,0,3.74.8,5.81,2.4,2.08,1.6,3.12,3.27,3.12,5,0,2.16-.97,3.88-2.9,5.15-1.7,1.15-3.73,1.72-6.08,1.72-.46,0-1.19-.28-2.21-.83.13,3.11,1.05,4.66,2.75,4.66,1.44,0,2.85-.41,4.24-1.23,1.39-.82,2.28-1.23,2.67-1.23,1.41,0,2.11.39,2.11,1.18Zm-5.35-9.27c0-.82-.24-1.59-.71-2.33-.47-.74-1.1-1.1-1.89-1.1-1.08,0-1.91.47-2.5,1.42-.49.82-.74,1.78-.74,2.9,0,.62.21,1.13.64,1.52.42.39.96.59,1.62.59,2.39,0,3.58-1,3.58-2.99Z" style="fill: #95c000;"/>
      <path d="m161.48,127.45c0,4.22-.13,7.2-.39,8.93-.16,1.01-.85,1.52-2.06,1.52-1.83,0-2.65-.92-2.45-2.75-1.64.78-3.34,1.18-5.1,1.18s-3.32-.43-4.86-1.28c-1.83-1.01-2.75-2.31-2.75-3.88s1.05-2.98,3.14-4.32c1.9-1.21,3.68-1.82,5.35-1.82h4.17v-1.17c.03-3.41-.98-5.11-3.04-5.11-2.58,0-3.88,1.2-3.88,3.59,0,.81-.46,1.21-1.37,1.21-.56,0-1.14-.25-1.74-.76-.61-.51-.91-1.04-.91-1.59,0-1.83.65-3.34,1.96-4.51,1.31-1.18,2.88-1.77,4.71-1.77,6.15,0,9.22,4.17,9.22,12.51Zm-4.96,1.77c0-.65-.49-.98-1.47-.98-4.09,0-6.13.97-6.13,2.9,0,1.05.9,1.57,2.7,1.57,1.11,0,2.16-.31,3.14-.93,1.18-.69,1.77-1.54,1.77-2.55Z" style="fill: #95c000;"/>
      <path d="m191.71,105.96c0,.72-.1,1.65-.29,2.8-.26,1.54-.43,2.45-.49,2.75-.1,1.01-.25,4.01-.47,8.98-.21,4.97-.32,7.72-.32,8.24,0,3.14.34,5.5,1.03,7.07-.56.92-1.19,1.37-1.91,1.37s-1.42-.29-2.01-.86c-.59-.57-.92-1.23-.98-1.99-1.54,1.41-3.11,2.11-4.71,2.11-2.39,0-4.24-.83-5.54-2.5-1.21-1.5-1.82-3.48-1.82-5.94,0-2.88.59-5.81,1.77-8.78,1.5-3.76,3.47-5.64,5.89-5.64,1.44,0,2.91.64,4.42,1.91.16-1.54.25-5.46.25-11.78,0-.59.44-.88,1.33-.88,1.05,0,1.95.26,2.72.79.77.52,1.15,1.31,1.15,2.35Zm-5.69,16.63c0-1.11-.25-2.13-.74-3.04-.62-1.11-1.44-1.67-2.45-1.67-1.47,0-2.6,1.46-3.39,4.37-.59,2.09-.88,4.15-.88,6.18,0,3.04.88,4.56,2.65,4.56s3.16-1.36,3.97-4.07c.56-1.83.83-3.94.83-6.33Z" style="fill: #95c000;"/>
      <path d="m210.99,127.45c0,4.22-.13,7.2-.39,8.93-.16,1.01-.85,1.52-2.06,1.52-1.83,0-2.65-.92-2.45-2.75-1.64.78-3.34,1.18-5.1,1.18s-3.32-.43-4.86-1.28c-1.83-1.01-2.75-2.31-2.75-3.88s1.05-2.98,3.14-4.32c1.9-1.21,3.68-1.82,5.35-1.82h4.17v-1.17c.03-3.41-.98-5.11-3.04-5.11-2.58,0-3.88,1.2-3.88,3.59,0,.81-.46,1.21-1.37,1.21-.56,0-1.14-.25-1.74-.76-.61-.51-.91-1.04-.91-1.59,0-1.83.65-3.34,1.96-4.51,1.31-1.18,2.88-1.77,4.71-1.77,6.15,0,9.22,4.17,9.22,12.51Zm-4.96,1.77c0-.65-.49-.98-1.47-.98-4.09,0-6.13.97-6.13,2.9,0,1.05.9,1.57,2.7,1.57,1.11,0,2.16-.31,3.14-.93,1.18-.69,1.77-1.54,1.77-2.55Z" style="fill: #95c000;"/>
      <path d="m231.6,116.95c-.29,1.64-.57,3.26-.83,4.86-.33,1.9-.49,3.52-.49,4.86v13.35c0,2.42-.7,4.27-2.09,5.54s-3.3,1.91-5.72,1.91c-1.57,0-3.3-.41-5.2-1.23-2.26-.95-3.39-2.09-3.39-3.44,0-.46.19-.84.56-1.15.38-.31.79-.47,1.25-.47.29,0,1,.44,2.11,1.32s2.39,1.33,3.83,1.33c1.83,0,3.06-.67,3.68-2.01.46-.92.69-2.39.69-4.42,0-.75-.02-1.37-.05-1.86-1.08.72-2.29,1.08-3.63,1.08-2.45,0-4.35-.88-5.69-2.65-1.21-1.6-1.82-3.65-1.82-6.13,0-.26.16-4.38.49-12.36.98-.42,1.77-.64,2.36-.64.65,0,1.62.39,2.89,1.18-.79,1.96-1.18,5.89-1.18,11.78,0,3.76.95,5.64,2.85,5.64,1.41,0,2.49-1.18,3.24-3.53.56-1.7.83-3.47.83-5.3v-5.99s-.05-.51-.15-1.62c1.34-.65,2.34-.98,2.99-.98.69,0,1.5.31,2.45.93Z" style="fill: #95c000;"/>
    </g>
  </g>
</svg>