<?xml version="1.0" encoding="UTF-8"?>
<svg id="a" data-name="strawberry_text" xmlns="http://www.w3.org/2000/svg" width="300" height="250" viewBox="0 0 300 250">
  <path d="m121.5,108.55c0,.9-.22,1.73-.65,2.49-1.96,3.35-5.34,5.03-10.14,5.03-1.25,0-2.7-.18-4.33-.53-.3.84-.8,1.27-1.51,1.27-1.31,0-1.96-.55-1.96-1.64v-.57c0-.25-.04-.39-.12-.45-.35-.16-.7-.34-1.02-.53-.33-.19-.49-.53-.49-1.02,0-.84.41-1.32,1.23-1.43v-5.23c-.52-.35-.78-.76-.78-1.23,0-.52.26-.97.78-1.35v-12.51c0-.44.24-.88.72-1.33.48-.45.93-.67,1.37-.67.6,0,1.01.08,1.23.25.27.3.55.6.82.9l-.29,1.84c1.88-2.54,4.25-3.8,7.14-3.8,2.28,0,4.08.83,5.38,2.49,1.2,1.5,1.79,3.42,1.79,5.77,0,1.34-.29,2.69-.86,4.05-.57,1.45-1.34,2.59-2.29,3.44,2.67.85,4.01,2.44,4.01,4.78Zm-3.72-.26c0-1.06-1.32-1.75-3.95-2.07-1.09-.11-2.88-.16-5.38-.16-.9,0-1.63.03-2.2.08-.03.7-.04,1.36-.04,1.95v2.52c0,.57.01,1.06.04,1.46,1.33.54,2.8.81,4.4.81,1.47,0,2.96-.41,4.48-1.22,1.77-.92,2.65-2.05,2.65-3.37Zm-.86-12.17c0-3.35-1.21-5.03-3.64-5.03-1.75,0-3.37,1.16-4.87,3.48-1.39,2.1-2.09,4.06-2.09,5.89v2.62h2.21c2.86,0,4.91-.42,6.13-1.27,1.5-1.06,2.25-2.96,2.25-5.68Z" style="fill: #fff;"/>
  <path d="m138.92,108.1c0,2.45-.61,4.55-1.84,6.3-1.42,1.99-3.3,2.99-5.64,2.99s-4.21-.82-5.44-2.45c-1.12-1.44-1.68-3.41-1.68-5.89s.61-4.77,1.84-6.95c1.42-2.59,3.26-3.89,5.52-3.89.71,0,1.59.31,2.66.94,3.05,1.83,4.58,4.81,4.58,8.96Zm-3.6-.08c0-4.17-1.01-6.26-3.03-6.26-1.45,0-2.54.89-3.27,2.66-.55,1.34-.82,2.85-.82,4.54,0,3.63,1.08,5.44,3.23,5.44,1.39,0,2.43-.75,3.11-2.25.52-1.15.78-2.52.78-4.13Z" style="fill: #fff;"/>
  <path d="m155.89,108.1c0,2.45-.61,4.55-1.84,6.3-1.42,1.99-3.3,2.99-5.64,2.99s-4.21-.82-5.44-2.45c-1.12-1.44-1.68-3.41-1.68-5.89s.61-4.77,1.84-6.95c1.42-2.59,3.26-3.89,5.52-3.89.71,0,1.59.31,2.66.94,3.05,1.83,4.58,4.81,4.58,8.96Zm-3.6-.08c0-4.17-1.01-6.26-3.03-6.26-1.45,0-2.54.89-3.27,2.66-.55,1.34-.82,2.85-.82,4.54,0,3.63,1.08,5.44,3.23,5.44,1.39,0,2.43-.75,3.11-2.25.52-1.15.78-2.52.78-4.13Z" style="fill: #fff;"/>
  <path d="m171.92,112.03c0,1.28-.55,2.4-1.64,3.35-1.2,1.04-2.81,1.55-4.83,1.55-.87.03-1.81-.15-2.82-.53-3.27-1.23-4.91-2.22-4.91-2.99,0-1.2.86-1.8,2.58-1.8.25,0,.5.01.78.04.08.82.74,1.47,1.96,1.96,1.06.44,2.09.61,3.07.53.79-.05,1.19-.34,1.19-.86,0-.08-.02-.2-.06-.37s-.06-.29-.06-.39-.52-.31-1.55-.63c-1.17-.35-1.83-.56-1.96-.61-3.11-1.85-4.66-4.09-4.66-6.71,0-1.58.45-3.04,1.35-4.38,1.01-1.47,2.26-2.21,3.76-2.21,1.12,0,2.39.44,3.82,1.31,1.43.87,2.31,1.81,2.64,2.82.22.71.33,1.3.33,1.76,0,.49-.07.9-.2,1.23-.16.41-.33.82-.49,1.23-.52.35-1.04.53-1.55.53-.27,0-.73-.17-1.37-.51-.64-.34-.96-.63-.96-.88,0-.11.16-.46.49-1.06.19-.35.29-.65.29-.9,0-1.64-.64-2.45-1.92-2.45-.76,0-1.35.49-1.76,1.47-.3.76-.45,1.58-.45,2.45,0,1.09.78,2.07,2.33,2.94,1.42.63,2.85,1.27,4.29,1.92,1.55.71,2.33,1.43,2.33,2.17Z" style="fill: #fff;"/>
  <path d="m184.23,101.52c0,.74-1.12,1.25-3.35,1.55-.05.6-.08,1.96-.08,4.09v2.7c0,.55.08,1.35.25,2.41.16,1.06.25,1.85.25,2.37,0,.44-.22.83-.65,1.17-.44.34-.87.51-1.31.51-.68,0-1.25-.59-1.72-1.76-.35-.9-.53-1.77-.53-2.62v-8.67c-1.25-.19-1.98-.31-2.17-.37-.71-.22-1.06-.53-1.06-.94,0-.11.03-.23.08-.37.71-1.01,1.5-1.51,2.37-1.51h.25c.11.03.19.04.25.04.57,0,.84-.67.82-2v-2.99c-.14-.3-.2-.56-.2-.78,0-.35.21-.67.63-.96.42-.29.82-.43,1.2-.43.57,0,1.11.27,1.62.8.51.53.77,1.1.77,1.7,0,.65-.1,1.3-.31,1.94-.21.64-.29,1.3-.27,1.98v.16c2.13.22,3.19.87,3.19,1.96Z" style="fill: #fff;"/>
  <path d="m198.54,112.03c0,1.28-.55,2.4-1.64,3.35-1.2,1.04-2.81,1.55-4.83,1.55-.87.03-1.81-.15-2.82-.53-3.27-1.23-4.91-2.22-4.91-2.99,0-1.2.86-1.8,2.58-1.8.25,0,.5.01.78.04.08.82.74,1.47,1.96,1.96,1.06.44,2.09.61,3.07.53.79-.05,1.19-.34,1.19-.86,0-.08-.02-.2-.06-.37s-.06-.29-.06-.39-.52-.31-1.55-.63c-1.17-.35-1.83-.56-1.96-.61-3.11-1.85-4.66-4.09-4.66-6.71,0-1.58.45-3.04,1.35-4.38,1.01-1.47,2.26-2.21,3.76-2.21,1.12,0,2.39.44,3.82,1.31,1.43.87,2.31,1.81,2.64,2.82.22.71.33,1.3.33,1.76,0,.49-.07.9-.2,1.23-.16.41-.33.82-.49,1.23-.52.35-1.04.53-1.55.53-.27,0-.73-.17-1.37-.51-.64-.34-.96-.63-.96-.88,0-.11.16-.46.49-1.06.19-.35.29-.65.29-.9,0-1.64-.64-2.45-1.92-2.45-.76,0-1.35.49-1.76,1.47-.3.76-.45,1.58-.45,2.45,0,1.09.78,2.07,2.33,2.94,1.42.63,2.85,1.27,4.29,1.92,1.55.71,2.33,1.43,2.33,2.17Z" style="fill: #fff;"/>
  <path d="m95.04,134.41c0,.49-.11,1.19-.33,2.09-.22.9-.33,1.59-.33,2.09v8.42c0,.52.16,1.34.49,2.45-.41.63-.87.94-1.36.94-1.73,0-2.68-.86-2.85-2.58-.27-3.19-.41-5.59-.41-7.2,0-2.7.11-4.96.33-6.79v-.41c0-.49.38-.74,1.13-.74.67,0,1.35.14,2.03.41.86.3,1.3.74,1.3,1.31Zm.37-5.73c0,.6-.2,1.09-.61,1.47-.41.38-.91.57-1.51.57-.71,0-1.37-.25-1.98-.74-.61-.49-.92-1.09-.92-1.8,0-.6.21-1.09.63-1.47.42-.38.95-.57,1.57-.57.74,0,1.39.24,1.96.72.57.48.86,1.08.86,1.82Z" style="fill: #fff;"/>
  <path d="m117.73,150.08c-.92.57-1.62.86-2.1.86-.35,0-.89-.19-1.62-.57v-4.5c0-7.25-.59-10.88-1.78-10.88-.89,0-1.61,1.1-2.15,3.31-.41,1.61-.61,3.09-.61,4.46v3.76c0,.19.07.47.2.84.14.37.2.65.2.84,0,.44-.23.83-.7,1.17-.46.34-.91.51-1.35.51-.46,0-.93-.23-1.39-.7-.46-.46-.7-.91-.7-1.35v-7.61c0-3.08-.35-4.62-1.04-4.62-.11,0-.35.26-.71.78-1.97,2.62-2.95,5.43-2.95,8.42,0,.44.06,1.07.18,1.9s.18,1.45.18,1.86c0,.54-.17.99-.51,1.35-.34.35-.78.53-1.33.53-.63,0-1.13-.22-1.51-.65-.14-.19-.3-.83-.49-1.92-.16-1.01-.25-1.7-.25-2.08v-8.89c0-.65.16-1.52.49-2.61.41-1.31.84-1.96,1.31-1.96.54,0,1.04.21,1.47.62.44.41.63.89.57,1.42.79-1.31,1.81-1.96,3.07-1.96,1.55,0,2.82,1.04,3.8,3.11.52-1.23.98-2.07,1.39-2.54.68-.79,1.53-1.19,2.54-1.19s2.03.53,3.07,1.59c1.8,1.83,2.7,4.95,2.7,9.37v7.32Z" style="fill: #fff;"/>
  <path d="m141.82,150.08c-.92.57-1.62.86-2.1.86-.35,0-.89-.19-1.62-.57v-4.5c0-7.25-.59-10.88-1.78-10.88-.89,0-1.61,1.1-2.15,3.31-.41,1.61-.61,3.09-.61,4.46v3.76c0,.19.07.47.2.84.14.37.2.65.2.84,0,.44-.23.83-.7,1.17-.46.34-.91.51-1.35.51-.46,0-.93-.23-1.39-.7-.46-.46-.7-.91-.7-1.35v-7.61c0-3.08-.35-4.62-1.04-4.62-.11,0-.35.26-.71.78-1.97,2.62-2.95,5.43-2.95,8.42,0,.44.06,1.07.18,1.9s.18,1.45.18,1.86c0,.54-.17.99-.51,1.35-.34.35-.78.53-1.33.53-.63,0-1.13-.22-1.51-.65-.14-.19-.3-.83-.49-1.92-.16-1.01-.25-1.7-.25-2.08v-8.89c0-.65.16-1.52.49-2.61.41-1.31.84-1.96,1.31-1.96.54,0,1.04.21,1.47.62.44.41.63.89.57,1.42.79-1.31,1.81-1.96,3.07-1.96,1.55,0,2.82,1.04,3.8,3.11.52-1.23.98-2.07,1.39-2.54.68-.79,1.53-1.19,2.54-1.19s2.03.53,3.07,1.59c1.8,1.83,2.7,4.95,2.7,9.37v7.32Z" style="fill: #fff;"/>
  <path d="m157.57,135.55c0,.84-.1,2.12-.31,3.82-.21,1.7-.31,2.98-.31,3.86,0,.76.03,1.9.1,3.41.07,1.51.1,2.63.1,3.37,0,.63-.53.94-1.59.94s-1.79-.52-2.09-1.55c-1.04.68-2.04,1.02-3.03,1.02-.79,0-1.69-.21-2.7-.63-1.01-.42-1.72-.93-2.13-1.53-.79-1.14-1.19-2.98-1.19-5.52,0-.87.03-2.4.08-4.58.08-1.94.11-3.45.08-4.54.83-.6,1.51-.9,2.06-.9,1.32,0,1.98.64,1.98,1.92,0,.44-.07,1.09-.2,1.96-.14.87-.2,1.53-.2,1.96v5.77c0,.65.18,1.34.53,2.04.44.82.95,1.23,1.55,1.23,1.17,0,2.04-.75,2.62-2.25.38-1.04.57-2.29.57-3.76v-4.91c0-.63-.16-1.4-.49-2.33.68-.63,1.34-.94,1.96-.94s1.25.2,1.78.61c.53.41.8.92.8,1.55Z" style="fill: #fff;"/>
  <path d="m175.11,149.87c-.41.63-.91.94-1.51.94-.46,0-1.23-.27-2.29-.82v-.49c0-.6.01-1.49.04-2.66.03-1.17.04-2.03.04-2.58,0-5.83-.87-8.75-2.6-8.75-.49,0-1.04.38-1.67,1.15-1.92,2.34-2.89,5.17-2.89,8.47,0,.46.09,1.15.27,2.06.18.91.27,1.6.27,2.07,0,.38-.18.7-.53.94-.35.25-.74.37-1.14.37-1.64,0-2.45-1.04-2.45-3.11v-8.55c0-.22.03-.54.08-.96.05-.42.08-.74.08-.96,0-.33-.05-.8-.14-1.43-.1-.63-.14-1.09-.14-1.39,0-.44.25-.85.76-1.25.5-.4.96-.59,1.37-.59.6,0,1.21.34,1.84,1.02l-.12,1.64c1.01-1.61,2.25-2.41,3.72-2.41.95,0,1.96.33,3.03.98s1.84,1.39,2.33,2.21c1.12,2.07,1.68,4.8,1.68,8.18v5.93Z" style="fill: #fff;"/>
  <path d="m182.96,134.41c0,.49-.11,1.19-.33,2.09-.22.9-.33,1.59-.33,2.09v8.42c0,.52.16,1.34.49,2.45-.41.63-.87.94-1.36.94-1.73,0-2.68-.86-2.85-2.58-.27-3.19-.41-5.59-.41-7.2,0-2.7.11-4.96.33-6.79v-.41c0-.49.38-.74,1.13-.74.67,0,1.35.14,2.03.41.86.3,1.3.74,1.3,1.31Zm.37-5.73c0,.6-.21,1.09-.61,1.47-.41.38-.91.57-1.51.57-.71,0-1.37-.25-1.98-.74s-.92-1.09-.92-1.8c0-.6.21-1.09.63-1.47s.95-.57,1.57-.57c.74,0,1.39.24,1.96.72.57.48.86,1.08.86,1.82Z" style="fill: #fff;"/>
  <path d="m193.55,135.52c0,.74-1.12,1.25-3.35,1.55-.05.6-.08,1.96-.08,4.09v2.7c0,.54.08,1.35.25,2.41.16,1.06.25,1.85.25,2.37,0,.44-.22.83-.65,1.17-.44.34-.87.51-1.31.51-.68,0-1.25-.59-1.72-1.76-.35-.9-.53-1.77-.53-2.62v-8.67c-1.25-.19-1.98-.31-2.17-.37-.71-.22-1.06-.53-1.06-.94,0-.11.03-.23.08-.37.71-1.01,1.5-1.51,2.37-1.51h.25c.11.03.19.04.25.04.57,0,.84-.67.82-2v-2.98c-.14-.3-.2-.56-.2-.78,0-.35.21-.67.63-.96.42-.29.82-.43,1.2-.43.57,0,1.11.27,1.62.8.51.53.77,1.1.77,1.7,0,.65-.1,1.3-.31,1.94-.21.64-.29,1.3-.27,1.98v.16c2.13.22,3.19.87,3.19,1.96Z" style="fill: #fff;"/>
  <path d="m209.09,134.46c-.25,1.36-.48,2.71-.7,4.05-.27,1.58-.41,2.93-.41,4.05v11.12c0,2.02-.58,3.56-1.74,4.62-1.16,1.06-2.75,1.59-4.76,1.59-1.31,0-2.75-.34-4.33-1.02-1.88-.79-2.82-1.74-2.82-2.86,0-.38.16-.7.47-.96.31-.26.66-.39,1.04-.39.25,0,.83.37,1.76,1.1s1.99,1.1,3.19,1.1c1.53,0,2.55-.56,3.07-1.68.38-.76.57-1.99.57-3.68,0-.63-.01-1.14-.04-1.55-.9.6-1.91.9-3.03.9-2.04,0-3.63-.74-4.74-2.21-1.01-1.33-1.51-3.04-1.51-5.11,0-.22.14-3.65.41-10.3.82-.35,1.47-.53,1.96-.53.54,0,1.35.33,2.41.98-.65,1.64-.98,4.91-.98,9.81,0,3.14.79,4.7,2.37,4.7,1.17,0,2.07-.98,2.7-2.94.46-1.42.7-2.89.7-4.42v-4.99s-.04-.42-.12-1.35c1.12-.54,1.95-.82,2.5-.82s1.25.26,2.04.78Z" style="fill: #fff;"/>
</svg>