<?xml version="1.0" encoding="UTF-8"?>
<svg xmlns="http://www.w3.org/2000/svg" width="300" height="250" viewBox="0 0 300 250">
  <g id="a" data-name="background_top">
    <rect width="300" height="125" style="fill: #ffedc2;"/>
  </g>
  <g id="b" data-name="strawberry_top">
    <path d="m176.31,75.55c0,.1.01.19,0,.29.01.62.01,1.25-.01,1.89,0,.21-.01.43-.02.65-.05,1.49-.17,3.05-.36,4.68-.82,7.4-2.98,16.14-6.67,26.12-1.67,4.51-4.4,9.96-8,15.82H37.08c1.95-30.35,17.61-62.97,22.12-72.38,4.96-10.35,23.8-25.37,41.18-29.55,7.75-1.87,15.21-1.58,21.02,2.25,1.06.69,2.06,1.5,3,2.44,1.83,1.83,3.75,3.58,5.73,5.26.04.04.06.06.1.08h.01c1.29,1.12,2.6,2.18,3.92,3.21,3.77,2.94,7.63,5.62,11.34,7.99.26.17.51.34.76.49h.01c.76.49,1.5.95,2.24,1.4,2.87,1.76,5.6,3.33,8.08,4.68h0c.8.44,1.57.86,2.31,1.25.2.1.4.2.59.31,1.25.65,2.4,1.24,3.43,1.75,3.44,1.71,5.56,2.63,5.56,2.63,1.01.64,1.93,1.42,2.75,2.34.22.24.43.49.64.75.93,1.18,1.72,2.57,2.37,4.14.01.02.01.03.02.04h0c.06.16.12.31.17.46,1.16,3.02,1.8,6.7,1.87,11.01Z" style="fill: #d20000;"/>
    <path d="m87.21,122.56c.04.83.1,1.65.16,2.44h-44.54c-1.22-27.16,6.94-48.09,14.82-61.95,1.9-3.19,3.82-5.98,5.73-8.37,2.18-2.74,4.34-4.95,6.41-6.6,2.79-2.23,5.43-3.45,7.73-3.6,1-.07,1.93.07,2.79.4,4.91,1.72,6.75,8.92,7.3,19.26.05,1.06.1,2.16.12,3.28.41,14.92-1.25,35.23-.52,55.14Z" style="fill: #d20000;"/>
    <path d="m182.54,46.67s-18.95,7.27-22.16,2.28c-3.21-4.99,6.75-26.41,6.75-26.41,0,0-24.1-2.57-21.2,19.94-9.83-7.07-22.04-32.99-22.04-32.99,0,0,6.2,28.18,12.52,38.68-17.24-3.66-28.02,3.32-28.02,3.32l38.68,13.95s.22,6.65,4.91,11.35c5.2-2.05,13.52-1.66,13.52-1.66,0,0,2.5-2.88,16.63,2.8-3.78-7.84-10.46-17.92-10.46-17.92,5.2-2.18,10.78-10.76,10.88-13.33Z" style="fill: #8db300;"/>
    <path d="m236.18,125h-119.39c.48-1.73.93-3.37,1.33-4.91.18-.67.35-1.33.51-1.95.38-1.47.72-2.82,1.02-4.02.93-3.85,1.44-6.27,1.49-6.47h0c.24-.66.51-1.38.81-2.15.68-1.77,1.53-3.82,2.59-6,.93-1.94,2.03-3.98,3.3-6.02,3.99-6.38,9.76-12.8,18.07-16.25,1.58-.65,3.25-1.19,5.02-1.61.35-.09.7-.16,1.06-.23,4-.82,8.48-.98,13.5-.27,1.9.27,4.01.79,6.3,1.56,1.43.47,2.93,1.04,4.49,1.7,17.09,7.21,41.28,24.94,59.9,46.62Z" style="fill: #dc0000;"/>
    <path d="m140.15,120.5c-.01.3-.02.6-.03.91-.05,1.14-.12,2.34-.23,3.59h-26.46c1.27-1.86,2.53-3.57,3.78-5.13.47-.6.95-1.18,1.42-1.73,5.57-6.56,10.7-10.06,14.43-10.73,1.14-.21,2.15-.16,3,.15.17.06.33.13.48.21,1.16.58,1.99,1.63,2.56,3.08.91,2.28,1.17,5.56,1.05,9.65Z" style="fill: #dc0000;"/>
    <path d="m146.01,120.61c-.09,1.35-.3,2.58-.63,3.72-.06.23-.13.45-.21.67h-41.11c1.82-7.58.8-27.48.22-36.4h0c-.13-2.02-.24-3.48-.28-4.1-.02-.22-.03-.34-.03-.34,2.54-.45,14.05,12.47,11.39,27.56,0,0,.4-.27,1.13-.79.28-.2.61-.43.99-.7.94-.66,2.18-1.53,3.66-2.58h0c3.89-2.78,9.49-6.79,15.9-11.52,1.36-1,2.77-2.04,4.2-3.11.12-.09.24-.18.36-.27-.89,5.2-3.06,10.33-5.54,14.81-4.65,8.46-10.34,14.62-10.34,14.62,0,0,2.26,0,5.56-.14.64-.03,1.33-.06,2.04-.1h.01c2.08-.11,4.42-.28,6.79-.53.9-.09,1.81-.19,2.7-.31,1.08-.14,2.15-.31,3.19-.49Z" style="fill: #8db300;"/>
    <path d="m215.53,125h-39.07c-.06-.32-.1-.64-.12-.97.14-2.76.44-6.41-.86-10.49-1.32-3.83,1.28-8.37,6.56-9.68,4.93-1.36,10.93-.24,16.79,3.6,6.58,4.23,12.69,10.97,16.7,17.54Z" style="fill: #dc0000;"/>
    <path d="m216.01,114.47c1.1-1.21,5.08.62,7.16,2.52,1.76,1.6,1.5,3.16.4,4.37-1.1,1.21-2.63,1.62-4.39.01-2.09-1.9-4.27-5.69-3.17-6.9Z" style="fill: #ebbe95;"/>
    <path d="m196.12,117.81c.85-1.39,5.1-.35,7.51,1.12,2.03,1.24,2.07,2.82,1.21,4.22-.85,1.4-2.28,2.08-4.31.84-2.41-1.47-5.27-4.78-4.41-6.18Z" style="fill: #ebbe95;"/>
    <path d="m154.92,105.9c.32-1.61,4.66-2.1,7.43-1.55,2.34.46,2.92,1.93,2.6,3.53-.32,1.61-1.41,2.74-3.75,2.28-2.77-.55-6.6-2.66-6.29-4.26Z" style="fill: #ebbe95;"/>
    <path d="m57.84,87.87c1.58.42,1.8,4.79,1.07,7.52-.61,2.3-2.11,2.79-3.69,2.37-1.58-.42-2.65-1.58-2.03-3.89.72-2.73,3.07-6.42,4.66-6Z" style="fill: #e3b186;"/>
    <path d="m78.26,100.17c1.52.6,1.24,4.96.21,7.59-.87,2.22-2.41,2.53-3.94,1.93-1.52-.6-2.45-1.87-1.58-4.09,1.03-2.63,3.78-6.03,5.31-5.43Z" style="fill: #e3b186;"/>
    <path d="m72.63,69.91c1.52.6,1.24,4.96.21,7.59-.87,2.22-2.41,2.53-3.94,1.94-1.52-.6-2.45-1.87-1.58-4.09,1.03-2.63,3.78-6.03,5.31-5.43Z" style="fill: #e3b186;"/>
    <path d="m97.75,84.37c1.52.6,1.24,4.96.21,7.59-.87,2.22-2.41,2.53-3.94,1.94s-2.45-1.87-1.58-4.09c1.03-2.63,3.78-6.03,5.31-5.43Z" style="fill: #ebbe95;"/>
    <path d="m129.27,86.74c1.09,1.22-1.12,4.99-3.23,6.87-1.77,1.59-3.3,1.17-4.39-.05-1.09-1.22-1.34-2.78.43-4.37,2.1-1.89,6.09-3.68,7.18-2.46Z" style="fill: #ebbe95;"/>
    <path d="m125.22,63.76c1.09,1.22-1.12,4.99-3.23,6.87-1.77,1.59-3.3,1.17-4.39-.05s-1.34-2.78.43-4.37c2.1-1.89,6.09-3.68,7.18-2.46Z" style="fill: #ebbe95;"/>
    <path d="m106.53,36c.35,1.6-3.45,3.78-6.21,4.37-2.33.5-3.44-.61-3.79-2.21-.34-1.6.21-3.08,2.54-3.58,2.76-.6,7.11-.18,7.46,1.42Z" style="fill: #ebbe95;"/>
    <path d="m95.07,60.33c1.2,1.11-.65,5.07-2.57,7.14-1.62,1.75-3.17,1.48-4.37.36-1.2-1.11-1.6-2.64.02-4.39,1.92-2.07,5.72-4.23,6.92-3.12Z" style="fill: #ebbe95;"/>
    <path d="m77.02,42.37c1.33.95,0,5.11-1.64,7.41-1.38,1.94-2.96,1.87-4.29.92-1.33-.95-1.92-2.41-.54-4.36,1.64-2.3,5.13-4.93,6.47-3.98Z" style="fill: #e3b186;"/>
    <path d="m59.02,125h-5.23c1.27-1.99,3.05-3.7,4.17-3.26.8.31,1.1,1.67,1.06,3.26Z" style="fill: #e3b186;"/>
    <path d="m100.2,113.17c1.26,1.04-.37,5.1-2.17,7.28-1.52,1.84-3.09,1.65-4.35.6-1.26-1.04-1.74-2.55-.22-4.38,1.8-2.18,5.48-4.54,6.74-3.5Z" style="fill: #ebbe95;"/>
    <path d="m176.82,95.94c.32-1.61,4.66-2.1,7.43-1.55,2.34.46,2.92,1.93,2.6,3.53-.32,1.61-1.41,2.74-3.75,2.28-2.77-.55-6.6-2.65-6.29-4.26Z" style="fill: #ebbe95;"/>
    <path d="m153.48,81.49c0-1.64,4.16-2.97,6.99-2.97,2.38,0,3.24,1.32,3.24,2.96,0,1.64-.85,2.96-3.23,2.97-2.82,0-6.99-1.32-6.99-2.96Z" style="fill: #ebbe95;"/>
    <g>
      <path d="m140.55,107.38c-.46,1.23-.95,2.38-1.45,3.47-2.38,5.12-5.21,8.77-7.82,11.19-.19.18-.38.35-.57.52-1.09.95-2.14,1.69-3.09,2.23-.13.08-.25.15-.38.21h-4.05c1.91-2.23,5.59-7.2,9.87-17.59.33-.8.66-1.63,1-2.49.13-.39.26-.76.38-1.13h0c.96-2.86,1.82-5.4,2.6-7.66,1.99-5.79,3.41-9.74,4.38-12.21.9-2.28,1.41-3.31,1.63-3.35-.03.05.02.22.11.52.11.38.29.96.46,1.77.74,3.43,1.42,11-3.07,24.52Z"/>
      <path d="m143.09,80.56s.37,1.65-.08,5.66c-.74,3.79-1.84,10.8-9.31,18.34-7.96,6.89-13.18,8.47-16.05,11.04-3.03,2.19-4.43,3.19-4.49,3.12.08.04-.09-1.76,1.88-5.41,1.64-3.91,7.62-8.29,13.85-13.75,10.94-12.68,13.52-19.59,14.2-19Z"/>
      <path d="m147.51,125h-5.62c.4-1.42.67-2.76.93-3.9.11-.49.23-.94.35-1.35.2-1.11.42-2.01.61-2.71.02-.04.04-.09.04-.13.16-.54.31-.95.43-1.24.04-.11.07-.2.1-.28.06-.12.1-.19.12-.22,0,.01.02.02.05.04t.01.01c.21.27,1.08,1.47,2.1,4.35.08.42.21.93.33,1.5.24,1.08.49,2.41.55,3.93Z"/>
      <path d="m146.96,121.07c-.19,1.06-.66,2.22-1.58,3.26-.07.08-.14.16-.22.24-.15.15-.3.3-.46.43h-20.49c1.4-.75,3.51-1.65,6.5-2.44.8-.22,1.67-.42,2.61-.62h.01c.85-.17,1.76-.34,2.72-.49,1.82-.41,3.13-.69,4.1-.95,1.92-.51,2.52-.95,3.15-2.19.19-.46.35-.89.48-1.27.02-.04.04-.09.04-.13.19-.51.33-.94.43-1.24.04-.11.07-.2.1-.28.06-.16.1-.25.12-.23h0s.02.03.05.05t.01.01c.26.17,1.35.74,2.24,3.04.25.64.38,1.67.19,2.81Z"/>
      <path d="m113.15,118.72s-.48-1.57-.57-4.95c-.17-3.39-.24-8.24-3.11-15.13-6.81-13.43-10.06-18.75-9.54-18.99-.54.43,7.51,0,15.95,16.33,3.63,8.65,1.69,15.48.09,18.54-1.66,3.23-2.84,4.15-2.82,4.21Z"/>
      <g>
        <path d="m99.91,79.68s-.03-.04.03-.03c-.01.01-.02.01-.03.03Z"/>
        <path d="m108.45,104.85c-.65,10.02-2.36,16.31-3.89,20.15h-3.5c-.19-4.08-.15-10.64.46-20.29.06-17.98-2-24.37-1.62-25.01,0-.01,0-.02,0-.01.02.01.04.03.08.06,0,.01.01.01.02.01h.01c.47.41,2.21,1.71,3.98,4.74,1.37,2.34,2.77,5.71,3.62,10.49v.02c.5,2.78.81,6.03.83,9.84Z"/>
      </g>
      <path d="m121.21,125h-13.22c.04-.06.09-.13.14-.19.81-1.02,1.66-2.07,2.91-3.1,1.23-.63,2.29-2.65,6.17-1.84.29.05.59.13.91.22.06.01.12.03.18.05,2.48,1.94,2.89,3.56,2.91,4.86Z"/>
      <path d="m240.35,125h-12.15c-1.28-1.63-2.59-3.22-3.92-4.77-1.66-1.94-3.34-3.83-5.05-5.66-6.74-7.25-13.79-13.59-20.75-18.9-7.42-5.5-15.06-9.87-22.56-12.61-3.82-1.4-7.6-2.38-11.31-2.88-.4-.06-.8-.11-1.2-.16-3.01-.36-5.91-.37-8.67-.07h-.01c-4.06.41-7.81,1.46-11.11,2.91-.14.06-.27.12-.4.18-.62.28-1.22.57-1.8.88-.44.22-.87.46-1.29.71-.94.54-1.83,1.11-2.66,1.71-6.42,4.82-10.46,9.61-12.93,13.16-2.11,3.01-3.1,5.13-3.47,5.62.48-.76,1.97-5.4,6.77-11.64,2.08-2.72,4.8-5.74,8.33-8.88,2.86-2.43,6.54-4.66,10.83-6.28,1.59-.6,3.27-1.12,5.03-1.53,3.99-.95,8.38-1.35,13.02-.98,2.22.14,4.47.44,6.74.87,1.49.29,3,.64,4.51,1.05,1.08.3,2.17.62,3.26.98.66.21,1.33.43,2,.67,6.98,2.48,14.02,6.12,20.88,10.59,13.03,8.9,26.3,20.49,37.91,35.03Z"/>
      <path d="m181.33,79.89c-.24.19-3.51-2.23-7.86-7.63-4.71-4.78-7.21-7.75-7.04-8.09-.4.49,4.36-3.93,12.19,3.44,6.36,8.28,2.3,12.48,2.71,12.28Z"/>
      <path d="m166.17,64.15c-.17-.62,3.48-2.47,8.85-9.44,3.54-4.66,8.43-6.1,10.69-5.92,2.48.05,3.47.73,3.47.71.22.53-3.27,2.84-8.82,9.64-3.34,4.61-8.5,6.26-10.75,5.89-2.49-.14-3.44-.9-3.45-.87Z"/>
      <path d="m189.18,49.49c-.09.15-3.75,2.75-14.84,4.2-11.17,1.69-15.5-.39-15.53-.47,0,.09,2.67-4.58,14.59-6.4,12.1-1.56,15.91,2.84,15.78,2.67Z"/>
      <path d="m147.79,48.73c.17,0-7.13-1.91-17.5-18-10.02-16.22-9.14-23.37-9.27-23.28.13-.07,5.44,3.9,15.12,19.56,9.94,15.45,11.69,21.59,11.64,21.72Z"/>
      <path d="m121.02,7.44c.11-.11,4.38,5.56,8.65,23.98,4.89,17.29,9.31,22.59,8.58,23.04.03-.04-1.69-.5-4.86-3.17-3.08-2.53-7.99-8.22-10.42-18.08-4.46-19.23-1.8-25.71-1.94-25.77Z"/>
      <path d="m158.81,53.22c.01,1.11-6.62-4.39-1.41-17.43,5.14-12.33,10.7-13.74,10.53-13.84.17.06.6,5.11-4.05,16.32-4.42,11.07-5.31,14.53-5.07,14.95Z"/>
      <path d="m167.93,21.95c-.15-.29.98,2.09-2.58,4.36-3.03,2.17-9.54,1.98-12.62,5.25-2.97,3.86-3,9.79-3.75,12.54-.57,3.08-1.18,4.43-1.21,4.42.03-.01-1.08-1.02-2.25-4.11-.53-2.98-3.94-8.6,2.03-17.48,3.82-4.05,8.27-4.12,10.81-4.2,2.73,0,4.59.29,5.89.29,2.56.19,3.61-1.17,3.68-1.07Z"/>
      <path d="m138.25,54.46c-.24,1.05-5.74-2.68-19.26-1.9-13.99,2.56-19.81,3.93-19.89,3.39.25.61,1.94-6.99,19.16-10.29,8.91-.97,14.64,2.69,16.97,5.02,2.48,2.43,2.97,3.78,3.03,3.78Z"/>
      <path d="m99.09,55.95c-.39.7,5.89-6.76,25.3-1.12,18.36,6.77,21.16,13.5,21.5,13.1-.05.51-6.85-.35-23.61-6.49-16.84-5.06-23.08-4.92-23.2-5.49Z"/>
      <path d="m145.9,67.93c.16.15,3.22.99,5.13,4.54,2.3,4.21.03,7.42,0,7.34-.04-.08-3.71.33-6.15-4.15-2.67-5.3,1.15-8,1.03-7.74Z"/>
      <path d="m160.81,69.34c.06-.14.37-1.73-2.58-4.52-1.35-1.4-3.25-3.16-5.82-5.13-1.29-.96-2.74-2.02-4.36-2.92-.79-.43-1.66-.88-2.41-1.12-.66-.51-1.73.28.16-.8,1.01-1.92.27-.83.8-.19.26.74.75,1.59,1.2,2.37.96,1.59,2.06,3,3.07,4.25,2.05,2.51,3.88,4.34,5.33,5.64,2.9,2.84,4.47,2.48,4.61,2.42.43-.12-1.64,2.44-6.27.63-2.21-.73-4.9-2.11-7.8-4.54-1.44-1.23-2.98-2.69-4.43-4.66-.72-1.01-1.45-2.07-2.06-3.52-.24-1.42-2.14-3.09.57-7.22,4.02-2.85,5.76-1.01,7.19-.82,1.47.56,2.55,1.26,3.59,1.94,2.02,1.38,3.53,2.86,4.82,4.26,2.54,2.82,4,5.46,4.81,7.64,1.97,4.56-.51,6.72-.41,6.29Z"/>
      <path d="m127.73,31.69c-.31-.13-2.18-1.49-5.69-2.82-2.08-.78-4.73-1.56-7.98-2.06-9.04-1.52-23.12.42-35.49,10.38-5.68,4.48-10.8,10.43-15.19,17.49-5.22,8.36-9.44,18.27-12.42,29.07-3.4,12.78-6.28,27.06-6.45,41.25h-13.58c.49-16.06,4.44-31.17,8.87-44.8,7.2-21.11,19.66-39.17,34.76-48.67,8.88-5.73,17.98-8.08,25.82-8.46,5.5-.27,10.38.43,14.15,1.62,2.97.9,5.37,1.95,7.27,2.95,3.83,2.02,5.63,3.88,5.93,4.05Z"/>
    </g>
  </g>
</svg>