<?xml version="1.0" encoding="UTF-8"?>
<svg xmlns="http://www.w3.org/2000/svg" width="300" height="250" viewBox="0 0 300 250">
  <g id="a" data-name="background_bottom">
    <rect y="125" width="300" height="125" style="fill: #ffedc2;"/>
  </g>
  <g id="b" data-name="strawberry_bottom">
    <path d="m144.7,125H37.08c-1.33,20.62,3.68,40.2,22.86,50.71,4.11,2.25,8.25,3.82,12.39,4.79,1,.24,2.01.44,3.01.61.55.09,1.09.17,1.64.24h0c1.91.25,3.81.38,5.72.39,0,0,.01.01.01,0,.75.02,1.49.01,2.25-.03h.01c2.92-.11,5.82-.48,8.7-1.08.78-.16,1.56-.33,2.33-.53.11-.03.22-.06.33-.08.9-.23,1.79-.48,2.68-.76,9.46-2.89,18.57-8.11,26.95-14.57.94-.72,1.86-1.46,2.78-2.21.66-.54,1.31-1.08,1.95-1.63.93-.79,1.85-1.6,2.76-2.43,1.2-1.08,2.39-2.19,3.55-3.32,2.38-2.29,4.66-4.65,6.84-7.06,1.31-1.43,2.57-2.88,3.81-4.34,5.3-6.29,9.9-12.71,13.59-18.7h-16.55Z" style="fill: #d20000;"/>
    <path d="m118.95,161.5c-2.21,5.02-7.81,10.94-18.99,15.83-.37.13-.75.25-1.13.38-.8.25-1.64.48-2.51.7-.13.03-.27.07-.41.1-.6.14-1.22.28-1.86.4-1.73.32-3.59.54-5.55.61-2.54.1-5.26-.07-8.15-.6-.15-.03-.3-.05-.45-.09-.57-.1-1.15-.23-1.73-.38-1.38-.34-2.77-.78-4.15-1.32-5.77-2.22-11.35-6.01-15.5-10.61-6.22-6.96-10.01-14.53-12.33-22.16-1.95-6.4-2.88-12.84-3.35-19-.01-.12-.01-.24-.01-.36h44.54c.28,3.33.73,6.35,1.22,8.87.04.19.08.37.11.54h0c.59,2.89,1.2,5.07,1.59,6.25,0,.02.01.03.01.05.37,2.06-.3,3.92,4.67,5.59,1.99.49,4.07.81,6.14,1.06.26.03.51.06.77.09.06,0,.13,0,.19.02,2.44.28,4.84.48,7.06.76,1.2.16,2.35.33,3.41.57,1.04.22,2,.49,2.86.83,1.72.67,3.05,1.62,3.82,3.03h0c.3.51.53,1.08.68,1.72.47,1.9.27,4.37-.95,7.12Z" style="fill: #d20000;"/>
    <path d="m144.7,125h-27.91c-1.71,6.07-3.89,13.13-6.48,20.15-.38,1.03-.77,2.06-1.18,3.08-2.28,5.9-4.87,11.65-7.72,16.66h0c-.66,1.18-1.34,2.3-2.03,3.38h-.01c-.38.6-.72,1.2-1.02,1.81h0c-.95,1.9-1.54,3.85-1.83,5.88-.12.81-.18,1.62-.2,2.45-.01.53-.01,1.06.02,1.61.4,9.01,5.99,18.75,13.29,27.02,8.81,10,20.13,17.85,27.86,19.68,17.06,4.04,109.11,23.22,124.44-28.59,7.01-23.68-6.35-50.55-25.75-73.13h-91.48Z" style="fill: #dc0000;"/>
    <path d="m252.31,184.07c-.25,6.44-2.52,14.54-8.55,21.88h-.01c-.49.6-1.01,1.2-1.54,1.78-.01.01-.02.01-.02.01-.49.53-1,1.05-1.53,1.57-11.19,11.22-28.17,16.36-44.51,17.47-14.01.97-30.51,2.07-50.09-2.42-9.69-2.34-20.25-6.38-29.6-14.31-9.52-7.78-15.8-20-17.4-30.5-.01-.1-.03-.19-.04-.29-.07-.52-.13-1.04-.19-1.55-.11-.94-.2-1.86-.27-2.77-.13-1.67-.2-3.28-.21-4.85h0c0-.38,0-.74,0-1.1,0-.68.01-1.35.04-2,.05-1.66.17-3.25.34-4.8.46-4.33,1.33-8.26,2.42-11.86.29-.98.6-1.93.92-2.86.37-1.06.75-2.09,1.15-3.09,1.52-3.87,3.21-7.33,4.76-10.49,1.81-3.28,3.64-6.24,5.45-8.89h26.46c-.06.86-.13,1.76-.22,2.67-.09.97-.19,1.97-.31,2.99-.07.69-.15,1.39-.22,2.11-.29,2.47-.6,5.08-.93,7.8-.12,1.04-.25,2.1-.38,3.18-.42,3.59-.74,7.52-.82,11.35-.13,5.94.35,11.63,1.99,15.37,1.39,3,2.56,4.19,4.96,5.81,2.39,1.62,6.73,3.53,12.55,4.88,11.68,2.8,26.01,3.53,39.64,4.66,11.28,1.07,19.83.39,25.36-1.44,11.66-2.86,15.58-16.63,21.31-17.6,2.86-.58,6.9,2.34,8.82,10.08.13.51.25,1.06.34,1.63.28,1.64.41,3.52.33,5.58Z" style="fill: #dc0000;"/>
    <path d="m144.7,125h-40.64c-.3,1.26-.68,2.18-1.15,2.65-.36.36-.88.75-1.55,1.16-.86.53-1.95,1.11-3.2,1.7-2.64,1.26-6,2.61-9.46,3.9h0c-1.11.42-2.23.83-3.34,1.23-.01,0-.02,0-.03.01-7.45,2.69-14.37,4.84-14.37,4.84,0,0,.54.78,1.64,1.88.98.98,2.42,2.22,4.33,3.37,4.88,2.96,12.84,5.37,24.18,1.62.31-.1.64-.21.96-.33-.06.14-.12.28-.19.42-.35.75-.77,1.54-1.25,2.36-.78,1.33-1.72,2.72-2.77,4.15-1.46,2-3.15,4.07-4.91,6.1-7.58,8.72-16.65,16.86-16.65,16.86,0,0,2.23-.2,5.6-.99.86-.2,1.78-.44,2.76-.73,4.04-1.16,9.02-3.08,13.69-6.21.35-.24.69-.47,1.02-.71h.01c5.16-3.71,9.83-8.94,12.29-16.35.12-.38.24-.75.36-1.14h0c.08-.29.16-.58.23-.87.1-.37.2-.74.28-1.12.12-.5.22-1.02.32-1.54.85.85,1.7,1.64,2.54,2.37,1.3,1.14,2.58,2.15,3.82,3.03h0c2.33,1.67,4.52,2.91,6.41,3.83h.01c4.09,1.98,6.85,2.47,6.85,2.47l-6.95-15.97h0s-.69-1.59-.69-1.59l-1.34-3.08-.54-1.24s5.3.16,10.83-1.72c1.81-.62,3.65-1.45,5.34-2.59,2.62-1.77,4.86-4.26,6.03-7.77h-.47Z" style="fill: #8db300;"/>
    <path d="m218.76,142.71c-5.67,5.63-25.38-3.65-36.13-10.44-3.96-2.58-5.72-4.81-6.17-7.27h39.07c4.53,7.41,6.38,14.6,3.23,17.71Z" style="fill: #dc0000;"/>
    <path d="m110.39,184.81c1.39-.86,4.71,2,6.19,4.4,1.25,2.03.57,3.45-.83,4.31s-2.97.83-4.22-1.2c-1.48-2.41-2.53-6.65-1.14-7.51Z" style="fill: #e3b186;"/>
    <path d="m127.9,170.57c1.21-1.11,5,1.07,6.91,3.15,1.61,1.76,1.21,3.28,0,4.39-1.21,1.11-2.76,1.37-4.37-.38-1.91-2.08-3.74-6.05-2.54-7.16Z" style="fill: #e3b186;"/>
    <path d="m137.34,201.95c1.21-1.11,5,1.07,6.91,3.15,1.61,1.76,1.21,3.28,0,4.39s-2.76,1.37-4.37-.38c-1.91-2.08-3.74-6.05-2.54-7.16Z" style="fill: #e3b186;"/>
    <path d="m141.01,143.04c.85-1.4,5.1-.35,7.51,1.12,2.03,1.24,2.07,2.82,1.21,4.22-.85,1.4-2.28,2.08-4.31.84-2.41-1.48-5.27-4.78-4.41-6.18Z" style="fill: #ebbe95;"/>
    <path d="m148.61,169.36c.85-1.4,5.1-.35,7.51,1.12,2.03,1.24,2.07,2.82,1.21,4.22-.85,1.4-2.28,2.08-4.31.84-2.41-1.48-5.27-4.78-4.41-6.18Z" style="fill: #ebbe95;"/>
    <path d="m163.69,199.12c.85-1.4,5.1-.35,7.51,1.12,2.03,1.24,2.07,2.82,1.21,4.22s-2.28,2.08-4.31.84c-2.41-1.48-5.27-4.78-4.41-6.18Z" style="fill: #e3b186;"/>
    <path d="m178.94,157.9c.85-1.4,5.1-.35,7.51,1.12,2.03,1.24,2.07,2.82,1.21,4.22-.85,1.4-2.28,2.08-4.31.84-2.41-1.48-5.27-4.78-4.41-6.18Z" style="fill: #ebbe95;"/>
    <path d="m187.51,187.55c.85-1.4,5.1-.35,7.51,1.12,2.03,1.24,2.07,2.82,1.21,4.22-.85,1.4-2.28,2.08-4.31.84-2.41-1.48-5.27-4.78-4.41-6.18Z" style="fill: #e3b186;"/>
    <path d="m180.06,220.24c.51-1.55,4.89-1.5,7.57-.61,2.26.75,2.65,2.28,2.14,3.83-.51,1.55-1.74,2.54-4,1.79-2.68-.89-6.22-3.46-5.7-5.01Z" style="fill: #e3b186;"/>
    <path d="m204.69,146.03c.85-1.4,5.1-.35,7.51,1.12,2.03,1.24,2.07,2.82,1.21,4.22-.85,1.4-2.28,2.08-4.31.84-2.41-1.48-5.27-4.78-4.41-6.18Z" style="fill: #ebbe95;"/>
    <path d="m217.6,176.13c.85-1.4,5.1-.35,7.51,1.13,2.03,1.24,2.07,2.82,1.21,4.22-.85,1.4-2.28,2.08-4.31.84-2.41-1.48-5.27-4.78-4.41-6.18Z" style="fill: #ebbe95;"/>
    <path d="m233.32,145.32c.85-1.4,5.1-.35,7.51,1.12,2.03,1.24,2.07,2.82,1.21,4.22-.85,1.4-2.28,2.08-4.31.84-2.41-1.48-5.27-4.78-4.41-6.18Z" style="fill: #ebbe95;"/>
    <path d="m207.55,207.6c.85-1.4,5.1-.35,7.51,1.12,2.03,1.24,2.07,2.82,1.21,4.22-.85,1.4-2.28,2.08-4.31.84-2.41-1.48-5.27-4.78-4.41-6.18Z" style="fill: #e3b186;"/>
    <path d="m244.78,177.53c.85-1.4,5.1-.35,7.51,1.12,2.03,1.24,2.07,2.82,1.21,4.22-.85,1.4-2.28,2.08-4.31.84-2.41-1.48-5.27-4.78-4.41-6.18Z" style="fill: #e3b186;"/>
    <path d="m234.76,201.16c.85-1.4,5.1-.35,7.51,1.12,2.03,1.24,2.07,2.82,1.21,4.22-.85,1.4-2.28,2.08-4.31.84-2.41-1.48-5.27-4.78-4.41-6.18Z" style="fill: #e3b186;"/>
    <path d="m168.84,129.53c.85-1.4,5.1-.35,7.51,1.13,2.03,1.24,2.07,2.82,1.21,4.22-.85,1.4-2.28,2.08-4.31.84-2.41-1.48-5.27-4.78-4.41-6.18Z" style="fill: #ebbe95;"/>
    <path d="m78.26,125.32c1.52.6,1.24,4.96.21,7.59-.87,2.22-2.41,2.53-3.94,1.93-1.52-.6-2.45-1.87-1.58-4.09,1.03-2.63,3.78-6.03,5.31-5.43Z" style="fill: #e3b186;"/>
    <path d="m59.02,125c-.03,1.44-.35,3.08-.84,4.33-.87,2.22-2.42,2.53-3.94,1.93-1.53-.59-2.45-1.87-1.58-4.09.27-.7.67-1.45,1.13-2.17h5.23Z" style="fill: #e3b186;"/>
    <path d="m64.29,148.03c1.52.6,1.24,4.96.22,7.59-.87,2.22-2.41,2.53-3.94,1.94-1.52-.6-2.45-1.87-1.58-4.09,1.03-2.63,3.78-6.03,5.31-5.43Z" style="fill: #e3b186;"/>
    <path d="m79.89,163.63c1.52.6,1.24,4.96.22,7.59-.87,2.22-2.41,2.53-3.94,1.94s-2.45-1.87-1.58-4.09c1.03-2.63,3.78-6.03,5.31-5.43Z" style="fill: #e3b186;"/>
    <g>
      <path d="m69.89,143.31c.34-.67,4.46,3.41,14.96,6.71,11.02,1.61,16.07-.62,16.15-.18-.02-.06-.13,1.49-2.5,3.61-2.27,1.88-7.19,4.93-15.16,3.34-7.9-1.99-10.99-6.81-12.31-9.35-1.23-2.81-1.13-4.14-1.15-4.14Z"/>
      <path d="m101,149.85c-.2-.03,1.11,1.51.43,5.78-.5,4.34-4.67,10.68-12.33,16.28-7.63,5.65-11.97,8.72-13.98,11.53-1.91,2.78-2.17,4.63-2.36,4.57.27,0-1.47-1.33-.86-5.86.71-4.55,5.52-10.29,12.95-15.73,14.91-10.33,15.39-16.46,16.14-16.57Z"/>
      <path d="m72.77,188.01c.24.19-1.01-2.23,2.18-6.4,3.11-4.15,10.21-7.64,19.5-12.34,18.2-9.56,15.99-19.86,17.34-19.18-.17,0,1.12,1.66.9,6.58.06,4.85-4.45,13.55-14.97,18.72-10.27,5.15-16.98,6.65-20.47,8.82-3.51,1.95-4.31,3.92-4.48,3.81Z"/>
      <path d="m111.73,149.8c.57-.37,3.37,2.88,12.11,6.28,5.74,2.17,8.64,6.6,9.17,8.9.73,2.48.37,3.67.4,3.66-.47.39-3.69-2.57-12.29-6.18-5.64-1.99-8.81-6.62-9.16-8.97-.64-2.53-.19-3.69-.23-3.69Z"/>
      <path d="m133.41,168.64c-.18-.04-3.72-3.02-8.51-13.79-5.06-10.78-4.4-15.69-4.33-15.74-.1.02,5.27,1.42,10.66,12.88,5.18,11.72,2.06,16.82,2.19,16.65Z"/>
      <path d="m127.24,125c-2.62,1.48-4.35,1.65-5.06,1.65-.23,0-.36-.02-.39-.02-.04-.1.47-.54,1.4-1.63h4.05Z"/>
      <path d="m145.17,125h2.34c.14,3.38-.67,7.73-4.71,12.45-1.58,1.38-3.11,2.39-4.59,3.12-5.9,2.93-10.83,1.4-13.27.86l-.09-.03c-.59-.2-1.1-.39-1.54-.59h-.01c-1.89-.83-2.61-1.58-2.72-1.69,0-.01-.02-.01-.02-.01,0-.02.94-.32,2.95-.79.48-.11,1.02-.22,1.63-.35,2.08-.58,5.38-1,8.66-2.61,1.4-.68,2.79-1.58,4.08-2.81.56-.61,1.06-1.24,1.48-1.89.78-1.15,1.36-2.34,1.82-3.52.27-.72.5-1.44.71-2.14h3.28Z"/>
      <path d="m144.7,125c-1.03.93-2.22,1.62-3.52,2.14-.49.21-.99.38-1.51.53-.73.23-1.48.42-2.25.58-10.41,1.62-14.4-1.05-15.24-1.6-.12-.07-.17-.11-.18-.09-.05-.05.6-.71,2.21-1.56h20.49Z"/>
      <path d="m104.56,125c-1.51,3.82-2.84,5.22-2.74,5.44.02.01.03.02.02.03-.03.01-.06-.01-.1-.06-.12-.16-.26-.67-.38-1.6-.13-.88-.24-2.14-.3-3.81h3.5Z"/>
      <path d="m101.84,130.47c-.22.07-2.07,4.56-13.68,11.56-5.98,3.44-11.31,4.23-14.45,3.45-3.18-.81-3.8-2.29-3.82-2.17.49-.25,4.11-.79,14.89-7.34,11.29-6.82,17.25-5.65,17.06-5.51Z"/>
      <path d="m121.21,125h-13.22c-1.46,1.97-2.45,3.88-3.24,5.64-1.59,3.64-2.19,6.74-2.29,9.18-.2,2.11.21,3.59.76,4.56.62,1.16,1.44,1.62,1.63,1.62.17.26,2.39,1.22,5.46-.85.31-.21.64-.46.97-.74,1.94-1.48,4.13-3.75,6.2-7.15,1.02-1.71,2.05-3.68,2.83-6.12.37-1.24.74-2.54.87-4.16-.08-.55.04-1.21.03-1.98Zm-12.47,17.05c-1.99,3.8-3.72,3.91-3.86,3.89-.09-.1-1-1.58.97-5.39.86-1.87,2.14-4.28,4.05-7.12.96-1.41,2.05-2.96,3.37-4.41.28-.31.58-.62.89-.92-.07.42-.16.84-.25,1.25-.43,1.92-1.07,3.71-1.67,5.3-1.23,3.19-2.47,5.63-3.5,7.4Z"/>
      <path d="m267.54,201c-3.43,10.68-11.17,20.34-20.97,25.93-19.6,11.02-40.67,13.42-61.95,15.34-24.23,1.55-45.13-3.21-60.18-11.48-15.17-8.25-24.08-19.69-27.97-29.27-2.66-7.24-3.35-12.91-3.19-17.18.02-.37.04-.72.07-1.07.07-.96.18-1.84.33-2.64.11-.62.23-1.19.37-1.72.2-.78.42-1.47.64-2.07.68-1.84,1.36-2.81,1.39-3.03.06.2-.1,1.04-.16,2.45-.03.63-.04,1.38-.01,2.25.02.49.05,1.02.1,1.59.4,4.22,1.89,10.44,6.62,18.23,1.7,2.86,4.04,5.81,7,8.71,12.86,12.54,37.57,23.92,74.17,21.38,19.73-1.63,40.54-4.37,55.98-12.91,7.65-4.17,12.94-10.79,15.77-18.39,2.36-6.99,1.11-16.05-1.25-24.27-5.89-18.04-15.27-34.18-26.1-47.85h12.15c10.02,12.55,18.8,27.28,25.13,44.39,2.88,9.35,5.39,19.92,2.06,31.61Z"/>
      <path d="m93.35,183.27c1.08.19,1.6.31,1.6.37-.02-.07-.52.23-1.67.7-2.14.89-6.52,2.38-14.2,3.21-1.79.1-3.8.21-6.02.16-.04,0-.07,0-.11,0h-.19s-.08,0-.12-.01c-4.94-.15-10.88-1.13-17.66-4.72-9.65-6.09-17.35-16.71-21.35-31.25-2.22-9.13-2.97-18.06-2.7-26.72h13.58c-.08,6.52.41,13.03,1.68,19.36.25,1.27.53,2.53.85,3.78,3.01,11.55,8.98,20.43,14.42,25.08,3.66,2.74,7.75,4.46,11.55,5.66,1.2.38,2.37.71,3.48,1,.57.15,1.12.28,1.65.42.47.11.93.22,1.38.32,1.45.3,2.8.57,4.04.81.49.1.96.19,1.41.28h.01c4.04.78,6.8,1.26,8.37,1.56Z"/>
    </g>
  </g>
</svg>