<?xml version="1.0" encoding="UTF-8"?>
<svg xmlns="http://www.w3.org/2000/svg" width="300" height="250" viewBox="0 0 300 250">
  <g id="a" data-name="transparent">
    <rect width="300" height="250" style="fill: none;"/>
  </g>
  <g id="b" data-name="text1">
    <g>
      <path d="m89.84,18.07c0,1.18-.79,1.77-2.36,1.77-.2,0-.5-.02-.91-.07-.41-.05-.71-.07-.91-.07-1.31,0-2.98.25-5,.74-2.65.65-4.3,1.03-4.96,1.13-.23,1.6-.46,3.19-.69,4.76-.26,1.93-.39,3.53-.39,4.81,0,1.05.26,1.55.79,1.52l.34-.05c2.65-.23,4.48-.34,5.5-.34,2.32,0,3.99.72,5,2.16,0,1.37-.51,2.06-1.52,2.06-.2,0-.48-.05-.86-.15-.38-.1-.66-.15-.86-.15-.43,0-1.03-.02-1.82-.05h-1.82c-1.73,0-3.11.1-4.12.3-.52.13-.83.29-.93.47-.1.18-.17.59-.22,1.23s-.07,1.27-.07,1.9c0,3.84.13,5.93.39,6.25.49.72.74,1.2.74,1.43,0,.46-.27.91-.81,1.35-.54.44-1.04.66-1.5.66-1.15,0-1.9-.34-2.26-1.03-.69-1.25-1.03-3.65-1.03-7.23,0-1.97.19-4.9.56-8.8.38-3.9.56-6.83.56-8.8,0-1.44-.12-2.16-.34-2.16-.07,0-.17.02-.32.05-.15.03-.25.05-.32.05-.39,0-.76-.26-1.1-.79-.34-.52-.52-1.01-.52-1.47,0-.52.32-.92.97-1.18.1-.06.65-.23,1.63-.49-.1-.29-.15-.52-.15-.69,0-1.11.56-1.67,1.67-1.67.62,0,1.59.51,2.9,1.52,5.17-.88,8.75-1.32,10.75-1.32.95,0,1.8.16,2.55.49.95.43,1.42,1.05,1.42,1.86Z" style="fill: #95c000;"/>
      <path d="m95.49,29.9c0,.59-.13,1.42-.39,2.5-.26,1.08-.39,1.91-.39,2.5v10.11c0,.62.2,1.6.59,2.94-.5.75-1.04,1.13-1.64,1.13-2.08,0-3.22-1.03-3.42-3.09-.33-3.83-.49-6.71-.49-8.64,0-3.24.13-5.95.39-8.15v-.49c0-.59.45-.88,1.36-.88.81,0,1.62.16,2.43.49,1.04.36,1.56.88,1.56,1.57Zm.44-6.87c0,.72-.25,1.31-.74,1.77-.49.46-1.1.69-1.82.69-.85,0-1.64-.29-2.38-.88-.74-.59-1.1-1.31-1.1-2.16,0-.72.25-1.31.76-1.77.51-.46,1.14-.69,1.89-.69.88,0,1.67.29,2.35.86.69.57,1.03,1.3,1.03,2.18Z" style="fill: #95c000;"/>
      <path d="m113.79,29.99c0,2.35-.75,5.95-2.26,10.79-1.77,5.56-3.48,8.34-5.15,8.34-2.39,0-4.51-2.34-6.38-7.02-1.15-2.91-2.08-6.31-2.8-10.21-.16-.95-.25-1.68-.25-2.21s.24-.99.71-1.4c.47-.41.97-.61,1.5-.61.62,0,1.59.47,2.9,1.42-.23.75-.34,1.39-.34,1.91,0,1.77.43,4.07,1.3,6.92.87,2.85,1.81,4.99,2.82,6.43v.15c1.19,0,2.12-2.22,2.79-6.67.46-3.04.7-5.82.7-8.34,0-.49.25-.92.75-1.28.5-.36.99-.54,1.48-.54,1.49,0,2.23.77,2.23,2.31Z" style="fill: #95c000;"/>
      <path d="m131.26,44.47c0,1.64-1.11,2.91-3.34,3.83-1.73.72-3.55,1.08-5.45,1.08-5.04,0-7.56-2.86-7.56-8.59,0-2.36.57-4.97,1.72-7.85,1.41-3.53,3.11-5.3,5.1-5.3,1.8,0,3.74.8,5.81,2.4,2.08,1.6,3.12,3.27,3.12,5,0,2.16-.97,3.88-2.9,5.15-1.7,1.15-3.73,1.72-6.08,1.72-.46,0-1.19-.28-2.21-.83.13,3.11,1.05,4.66,2.75,4.66,1.44,0,2.85-.41,4.24-1.23,1.39-.82,2.28-1.23,2.67-1.23,1.41,0,2.11.39,2.11,1.18Zm-5.35-9.27c0-.82-.24-1.59-.71-2.33-.47-.74-1.1-1.1-1.89-1.1-1.08,0-1.91.47-2.5,1.42-.49.82-.74,1.78-.74,2.9,0,.62.21,1.13.64,1.52.42.39.96.59,1.62.59,2.39,0,3.58-1,3.58-2.99Z" style="fill: #95c000;"/>
      <path d="m161.48,40.44c0,4.22-.13,7.2-.39,8.93-.16,1.01-.85,1.52-2.06,1.52-1.83,0-2.65-.92-2.45-2.75-1.64.78-3.34,1.18-5.1,1.18s-3.32-.43-4.86-1.28c-1.83-1.01-2.75-2.31-2.75-3.88s1.05-2.98,3.14-4.32c1.9-1.21,3.68-1.82,5.35-1.82h4.17v-1.17c.03-3.41-.98-5.11-3.04-5.11-2.58,0-3.88,1.2-3.88,3.59,0,.81-.46,1.21-1.37,1.21-.56,0-1.14-.25-1.74-.76-.61-.51-.91-1.04-.91-1.59,0-1.83.65-3.34,1.96-4.51,1.31-1.18,2.88-1.77,4.71-1.77,6.15,0,9.22,4.17,9.22,12.51Zm-4.96,1.77c0-.65-.49-.98-1.47-.98-4.09,0-6.13.97-6.13,2.9,0,1.05.9,1.57,2.7,1.57,1.11,0,2.16-.31,3.14-.93,1.18-.69,1.77-1.54,1.77-2.55Z" style="fill: #95c000;"/>
      <path d="m191.71,18.95c0,.72-.1,1.65-.29,2.8-.26,1.54-.43,2.45-.49,2.75-.1,1.01-.25,4.01-.47,8.98-.21,4.97-.32,7.72-.32,8.24,0,3.14.34,5.5,1.03,7.07-.56.92-1.19,1.37-1.91,1.37s-1.42-.29-2.01-.86c-.59-.57-.92-1.23-.98-1.99-1.54,1.41-3.11,2.11-4.71,2.11-2.39,0-4.24-.83-5.54-2.5-1.21-1.5-1.82-3.48-1.82-5.94,0-2.88.59-5.81,1.77-8.78,1.5-3.76,3.47-5.64,5.89-5.64,1.44,0,2.91.64,4.42,1.91.16-1.54.25-5.46.25-11.78,0-.59.44-.88,1.33-.88,1.05,0,1.95.26,2.72.79.77.52,1.15,1.31,1.15,2.35Zm-5.69,16.63c0-1.11-.25-2.13-.74-3.04-.62-1.11-1.44-1.67-2.45-1.67-1.47,0-2.6,1.46-3.39,4.37-.59,2.09-.88,4.15-.88,6.18,0,3.04.88,4.56,2.65,4.56s3.16-1.36,3.97-4.07c.56-1.83.83-3.94.83-6.33Z" style="fill: #95c000;"/>
      <path d="m210.99,40.44c0,4.22-.13,7.2-.39,8.93-.16,1.01-.85,1.52-2.06,1.52-1.83,0-2.65-.92-2.45-2.75-1.64.78-3.34,1.18-5.1,1.18s-3.32-.43-4.86-1.28c-1.83-1.01-2.75-2.31-2.75-3.88s1.05-2.98,3.14-4.32c1.9-1.21,3.68-1.82,5.35-1.82h4.17v-1.17c.03-3.41-.98-5.11-3.04-5.11-2.58,0-3.88,1.2-3.88,3.59,0,.81-.46,1.21-1.37,1.21-.56,0-1.14-.25-1.74-.76-.61-.51-.91-1.04-.91-1.59,0-1.83.65-3.34,1.96-4.51,1.31-1.18,2.88-1.77,4.71-1.77,6.15,0,9.22,4.17,9.22,12.51Zm-4.96,1.77c0-.65-.49-.98-1.47-.98-4.09,0-6.13.97-6.13,2.9,0,1.05.9,1.57,2.7,1.57,1.11,0,2.16-.31,3.14-.93,1.18-.69,1.77-1.54,1.77-2.55Z" style="fill: #95c000;"/>
      <path d="m231.6,29.94c-.29,1.64-.57,3.26-.83,4.86-.33,1.9-.49,3.52-.49,4.86v13.35c0,2.42-.7,4.27-2.09,5.54s-3.3,1.91-5.72,1.91c-1.57,0-3.3-.41-5.2-1.23-2.26-.95-3.39-2.09-3.39-3.44,0-.46.19-.84.56-1.15.38-.31.79-.47,1.25-.47.29,0,1,.44,2.11,1.32s2.39,1.33,3.83,1.33c1.83,0,3.06-.67,3.68-2.01.46-.92.69-2.39.69-4.42,0-.75-.02-1.37-.05-1.86-1.08.72-2.29,1.08-3.63,1.08-2.45,0-4.35-.88-5.69-2.65-1.21-1.6-1.82-3.65-1.82-6.13,0-.26.16-4.38.49-12.36.98-.42,1.77-.64,2.36-.64.65,0,1.62.39,2.89,1.18-.79,1.96-1.18,5.89-1.18,11.78,0,3.76.95,5.64,2.85,5.64,1.41,0,2.49-1.18,3.24-3.53.56-1.7.83-3.47.83-5.3v-5.99s-.05-.51-.15-1.62c1.34-.65,2.34-.98,2.99-.98.69,0,1.5.31,2.45.93Z" style="fill: #95c000;"/>
    </g>
  </g>
</svg>