<?xml version="1.0" encoding="UTF-8"?>
<svg xmlns="http://www.w3.org/2000/svg" width="300" height="250" viewBox="0 0 300 250">
  <g id="a" data-name="transparent">
    <rect width="300" height="250" style="fill: none;"/>
  </g>
  <g id="b" data-name="text3">
    <g>
      <path d="m65.9,104.55c0,.72-.1,1.65-.29,2.8-.26,1.54-.43,2.45-.49,2.75-.1,1.01-.25,4.01-.47,8.98-.21,4.97-.32,7.72-.32,8.24,0,3.14.34,5.5,1.03,7.07-.56.92-1.19,1.37-1.91,1.37s-1.42-.29-2.01-.86-.92-1.23-.98-1.99c-1.54,1.41-3.11,2.11-4.71,2.11-2.39,0-4.24-.83-5.54-2.5-1.21-1.5-1.82-3.48-1.82-5.94,0-2.88.59-5.81,1.77-8.78,1.5-3.76,3.47-5.64,5.89-5.64,1.44,0,2.91.64,4.42,1.91.16-1.54.25-5.46.25-11.78,0-.59.44-.88,1.33-.88,1.05,0,1.95.26,2.72.79.77.52,1.15,1.31,1.15,2.35Zm-5.69,16.63c0-1.11-.25-2.13-.74-3.04-.62-1.11-1.44-1.67-2.45-1.67-1.47,0-2.6,1.46-3.39,4.37-.59,2.09-.88,4.15-.88,6.18,0,3.04.88,4.56,2.65,4.56s3.16-1.36,3.97-4.07c.56-1.83.83-3.94.83-6.33Z" style="fill: #a98b00;"/>
      <path d="m85.97,124.72c0,2.94-.74,5.46-2.21,7.56-1.7,2.39-3.96,3.58-6.77,3.58s-5.05-.98-6.53-2.94c-1.34-1.73-2.01-4.09-2.01-7.07s.74-5.72,2.21-8.34c1.7-3.11,3.91-4.66,6.62-4.66.85,0,1.91.38,3.19,1.13,3.66,2.19,5.5,5.77,5.5,10.75Zm-4.32-.1c0-5-1.21-7.51-3.63-7.51-1.73,0-3.04,1.06-3.93,3.19-.65,1.6-.98,3.42-.98,5.45,0,4.35,1.29,6.53,3.88,6.53,1.67,0,2.91-.9,3.73-2.7.62-1.37.93-3.03.93-4.96Z" style="fill: #a98b00;"/>
      <path d="m105.94,128.84c0,1.01-.77,2.21-2.31,3.58-1.37,1.28-2.61,2.08-3.7,2.4-1.1.33-2.13.49-3.12.49-2.58,0-4.6-.82-6.06-2.45-1.46-1.64-2.18-3.75-2.18-6.33s.67-5.33,2.01-8.44c1.6-3.73,3.47-5.59,5.59-5.59,1.18,0,2.6.46,4.27,1.37,1.77,1.01,2.8,2.03,3.09,3.04.26.88.39,1.88.39,2.99,0,1.01-.21,2.16-.64,3.43-.52,1.64-1.18,2.45-1.96,2.45-.56,0-1.08-.16-1.57-.49-.59-.36-.88-.8-.88-1.32,0-.03.15-.41.44-1.12.16-.33.25-1.22.25-2.69,0-1.2-.05-1.98-.15-2.34-.2-1.01-.65-1.51-1.37-1.51-1.6,0-2.85,1.39-3.73,4.16-.65,2.05-.98,4.12-.98,6.21,0,3.49,1.11,5.23,3.34,5.23.88,0,1.9-.46,3.04-1.37,1.05-.85,1.78-1.72,2.21-2.6.52-1.05,1.16-1.57,1.91-1.57.49,0,.96.29,1.42.86.46.57.69,1.1.69,1.59Z" style="fill: #a98b00;"/>
      <path d="m117.91,116.82c0,.88-1.34,1.5-4.03,1.86-.06.72-.1,2.35-.1,4.91v3.24c0,.66.1,1.62.29,2.9s.29,2.22.29,2.85c0,.52-.26.99-.79,1.4-.52.41-1.05.61-1.57.61-.82,0-1.51-.7-2.06-2.11-.43-1.08-.64-2.13-.64-3.14v-10.4c-1.51-.23-2.37-.38-2.6-.44-.85-.26-1.28-.64-1.28-1.13,0-.13.03-.28.1-.44.85-1.21,1.8-1.82,2.85-1.82h.29c.13.03.23.05.29.05.69,0,1.01-.8.98-2.4v-3.58c-.16-.36-.25-.67-.25-.93,0-.42.25-.81.75-1.15.5-.34.98-.52,1.43-.52.68,0,1.33.32,1.94.96.62.64.92,1.32.92,2.04,0,.79-.12,1.56-.37,2.33-.25.77-.35,1.56-.32,2.38v.2c2.55.26,3.83,1.05,3.83,2.36Z" style="fill: #a98b00;"/>
      <path d="m136.21,124.72c0,2.94-.74,5.46-2.21,7.56-1.7,2.39-3.96,3.58-6.77,3.58s-5.05-.98-6.53-2.94c-1.34-1.73-2.01-4.09-2.01-7.07s.74-5.72,2.21-8.34c1.7-3.11,3.91-4.66,6.62-4.66.85,0,1.91.38,3.19,1.13,3.66,2.19,5.5,5.77,5.5,10.75Zm-4.32-.1c0-5-1.21-7.51-3.63-7.51-1.73,0-3.04,1.06-3.93,3.19-.65,1.6-.98,3.42-.98,5.45,0,4.35,1.29,6.53,3.88,6.53,1.67,0,2.91-.9,3.73-2.7.62-1.37.93-3.03.93-4.96Z" style="fill: #a98b00;"/>
      <path d="m151.91,117.51c0,.23-.03.59-.1,1.08-.69.98-1.41,1.47-2.16,1.47-.62,0-1.18-.36-1.67-1.08-.07-1.47-.59-2.21-1.57-2.21-.59,0-1.31,1.55-2.16,4.66-.39,1.37-.59,3.29-.59,5.74,0,2.32.11,3.73.32,4.22.24.62.37,1.05.37,1.28,0,.56-.25,1.01-.75,1.35-.5.34-1.06.52-1.68.52-1.75,0-2.62-.82-2.62-2.45,0-.16.04-.39.12-.69.08-.29.12-.51.12-.64,0-1.67-.08-4.15-.25-7.43-.16-3.29-.25-5.75-.25-7.38,0-1.47.88-2.21,2.65-2.21,1.05,0,1.77.31,2.16.93.92-1.01,1.95-1.52,3.09-1.52.79,0,1.54.21,2.26.64.49.26,1.06.83,1.72,1.69s.98,1.55.98,2.04Z" style="fill: #a98b00;"/>
      <path d="m182.43,126.04c0,4.22-.13,7.2-.39,8.93-.16,1.01-.85,1.52-2.06,1.52-1.83,0-2.65-.92-2.45-2.75-1.64.79-3.34,1.18-5.1,1.18s-3.32-.43-4.86-1.28c-1.83-1.01-2.75-2.31-2.75-3.88s1.05-2.98,3.14-4.32c1.9-1.21,3.68-1.82,5.35-1.82h4.17v-1.17c.03-3.41-.98-5.11-3.04-5.11-2.58,0-3.88,1.2-3.88,3.59,0,.81-.46,1.21-1.37,1.21-.56,0-1.14-.25-1.74-.76-.61-.51-.91-1.04-.91-1.59,0-1.83.65-3.34,1.96-4.51,1.31-1.18,2.88-1.77,4.71-1.77,6.15,0,9.22,4.17,9.22,12.51Zm-4.96,1.77c0-.65-.49-.98-1.47-.98-4.09,0-6.13.97-6.13,2.9,0,1.05.9,1.57,2.7,1.57,1.11,0,2.16-.31,3.14-.93,1.18-.69,1.77-1.54,1.77-2.55Z" style="fill: #a98b00;"/>
      <path d="m210.6,119.17c0,2.94-.54,5.99-1.62,9.13-1.41,4.12-3.27,6.18-5.59,6.18-2.19,0-4.01-1.36-5.45-4.07-.98,2.88-2.54,4.32-4.66,4.32-2.72,0-4.69-1.86-5.94-5.59-.85-2.55-1.28-5.54-1.28-8.98,0-2.16.08-3.91.25-5.25.46-.72,1.06-1.08,1.82-1.08.65,0,1.32.21,1.99.64.67.43,1.01.93,1.01,1.52,0,.43-.1,1.05-.29,1.89-.2.83-.29,1.46-.29,1.89,0,7.2.75,10.79,2.27,10.79s2.6-2,3.09-5.99c.16-1.5.24-4.14.24-7.9,0-1.24.72-1.86,2.16-1.86,1.6,0,2.4.9,2.4,2.7,0,.16-.02.39-.05.69-.03.29-.05.51-.05.64v5.54c0,4.12.75,6.18,2.26,6.18,1.28,0,2.24-1.5,2.89-4.51.49-2.09.74-4.14.74-6.13,0-1.7-.08-2.7-.25-2.99-.03-.06-.21-.26-.54-.59-.2-.26-.29-.51-.29-.74,0-.59.26-1.12.78-1.59.52-.47,1.08-.71,1.67-.71.88,0,1.59.79,2.11,2.35.42,1.21.64,2.39.64,3.53Z" style="fill: #a98b00;"/>
      <path d="m230.22,126.04c0,4.22-.13,7.2-.39,8.93-.16,1.01-.85,1.52-2.06,1.52-1.83,0-2.65-.92-2.45-2.75-1.64.79-3.34,1.18-5.1,1.18s-3.32-.43-4.86-1.28c-1.83-1.01-2.75-2.31-2.75-3.88s1.05-2.98,3.14-4.32c1.9-1.21,3.68-1.82,5.35-1.82h4.17v-1.17c.03-3.41-.98-5.11-3.04-5.11-2.58,0-3.88,1.2-3.88,3.59,0,.81-.46,1.21-1.37,1.21-.56,0-1.14-.25-1.74-.76-.61-.51-.91-1.04-.91-1.59,0-1.83.65-3.34,1.96-4.51,1.31-1.18,2.88-1.77,4.71-1.77,6.15,0,9.22,4.17,9.22,12.51Zm-4.96,1.77c0-.65-.49-.98-1.47-.98-4.09,0-6.13.97-6.13,2.9,0,1.05.9,1.57,2.7,1.57,1.11,0,2.16-.31,3.14-.93,1.18-.69,1.77-1.54,1.77-2.55Z" style="fill: #a98b00;"/>
      <path d="m250.83,115.54c-.29,1.64-.57,3.26-.83,4.86-.33,1.9-.49,3.52-.49,4.86v13.35c0,2.42-.7,4.27-2.08,5.54-1.39,1.28-3.3,1.91-5.72,1.91-1.57,0-3.3-.41-5.2-1.23-2.26-.95-3.39-2.09-3.39-3.44,0-.46.19-.84.56-1.15.38-.31.79-.47,1.25-.47.29,0,1,.44,2.11,1.33,1.11.88,2.39,1.33,3.83,1.33,1.83,0,3.06-.67,3.68-2.01.46-.92.69-2.39.69-4.42,0-.75-.02-1.37-.05-1.86-1.08.72-2.29,1.08-3.63,1.08-2.45,0-4.35-.88-5.69-2.65-1.21-1.6-1.82-3.65-1.82-6.13,0-.26.16-4.38.49-12.36.98-.42,1.77-.64,2.36-.64.65,0,1.62.39,2.9,1.18-.79,1.96-1.18,5.89-1.18,11.78,0,3.76.95,5.64,2.85,5.64,1.41,0,2.49-1.18,3.24-3.53.56-1.7.83-3.47.83-5.3v-5.99s-.05-.51-.15-1.62c1.34-.65,2.34-.98,2.99-.98s1.5.31,2.45.93Z" style="fill: #a98b00;"/>
    </g>
  </g>
</svg>