<?xml version="1.0" encoding="UTF-8"?>
<svg id="Layer_1" data-name="Layer 1" xmlns="http://www.w3.org/2000/svg" viewBox="0 0 68.23 79.04">
  <defs>
    <style>
      .cls-1 {
        fill: #076400;
      }
    </style>
  </defs>
  <g>
    <path class="cls-1" d="m30.16,30.36c-5.24,0-9.76-3.49-11.9-8.54-.84,2.39-1.31,5.07-1.31,7.91,0,10.04,5.92,18.19,13.21,18.19s13.21-8.14,13.21-18.19c0-2.83-.47-5.52-1.31-7.91-2.14,5.05-6.66,8.54-11.9,8.54Z"/>
    <path class="cls-1" d="m33.25,12.05v10.47c0,.28-.79.46-1.81.54v4.9c4.27-.51,7.85-3.93,9.47-8.8-1.82-3.5-4.52-6.07-7.66-7.1Z"/>
    <path class="cls-1" d="m29.11,27.94v-4.87c-1.12-.07-2.04-.26-2.04-.56v-10.47c-3.02,1-5.63,3.41-7.44,6.71,1.54,5.04,5.15,8.62,9.48,9.18Z"/>
    <path class="cls-1" d="m31.79,20.64v-5.9c0-.42-3.25-.42-3.25,0v5.9c0,.42,3.25.42,3.25,0Z"/>
    <path class="cls-1" d="m48.36,9.44c-.81,1.18-1.93,2.05-3.8,2.06-.03,0-.05,0-.08,0-.65-.02-1.16-.11-1.59-.28-.52-.2-.93-.5-1.29-.89-.09-.1-.18-.2-.26-.31-.71-.93-1.19-2.37-1.64-4.05-.52-1.89-1.4-3.39-2.57-4.41C35.95.53,34.49,0,32.97,0c-.13,0-.26,0-.4.01-1.69.09-3.11.91-4.06,2.05-.95,1.14-1.47,2.6-1.47,4.07,0,.43.05.86.14,1.28.32,1.47.83,2.64,1.33,3.54.04.07.08.13.12.2.56-.02,1.37-.02,2.14-.02-.06-.08-.12-.16-.18-.25-.55-.78-1.25-2.05-1.64-3.85-.07-.29-.1-.59-.1-.9,0-1.05.38-2.12,1.06-2.92.68-.8,1.6-1.34,2.78-1.41.1,0,.19,0,.29,0,1.12,0,2.11.37,2.97,1.11.86.75,1.58,1.91,2.02,3.53.47,1.72.97,3.35,1.94,4.66.48.67,1.12,1.22,1.91,1.61.43.21.91.38,1.44.48.38.07.79.11,1.21.11.04,0,.07,0,.1,0h.04c2.48,0,4.25-1.32,5.25-2.86,1.03-1.56,1.42-3.32,1.42-4.61h-1.79c0,.92-.33,2.44-1.12,3.62Z"/>
    <path class="cls-1" d="m30.21,13.2l.05-.06s-.07,0-.11,0c.03.03.06.05.06.06Z"/>
  </g>
  <g>
    <path d="m6.85,63.27l-1.37,1.37H1.61l-1.61-1.61v-4.94l1.61-1.61h3.79l1.37,1.37-1.22,1.22-.98-.98h-2.1l-.66.66v3.62l.66.66h2.18l.98-.98,1.22,1.22Z"/>
    <path d="m15.28,58.09v4.94l-1.61,1.61h-3.98l-1.61-1.61v-4.94l1.61-1.61h3.98l1.61,1.61Zm-1.8,4.28v-3.62l-.66-.66h-2.28l-.66.66v3.62l.66.66h2.28l.66-.66Z"/>
    <path d="m25.6,64.64h-1.8v-5.1l-2.1,3.93h-.76l-2.1-3.93v5.1h-1.72v-8.16h1.81l2.42,4.54,2.42-4.54h1.81v8.16Z"/>
    <path d="m34.51,57.83v2.59l-1.34,1.34h-3.69v2.88h-1.8v-8.16h5.49l1.34,1.34Zm-1.8,1.93v-1.27l-.4-.4h-2.84v2.06h2.84l.4-.4Z"/>
    <path d="m42.82,56.48v6.55l-1.61,1.61h-3.56l-1.61-1.61v-6.55h1.8v5.89l.66.66h1.86l.74-.74v-5.8h1.71Z"/>
    <path d="m51.19,58.09h-2.58v6.55h-1.8v-6.55h-2.58v-1.61h6.96v1.61Z"/>
    <path d="m54.5,58.09v1.66h4.15v1.61h-4.15v1.68h4.75v1.61h-6.55v-8.16h6.55v1.61h-4.75Z"/>
    <path d="m66.22,64.64l-1.67-3.02h-1.76v3.02h-1.8v-8.16h5.49l1.34,1.34v2.43l-1.31,1.32,1.7,3.06h-2Zm-3.43-4.62h2.83l.41-.42v-1.12l-.41-.4h-2.83v1.93Z"/>
    <path d="m10.52,77.46h-3.29l-.56,1.58h-1.85l3.19-8.16h1.81l3.19,8.16h-1.93l-.56-1.58Zm-.58-1.61l-1.07-2.99-1.07,2.99h2.13Z"/>
    <path d="m20.97,77.67l-1.37,1.37h-3.87l-1.61-1.61v-4.94l1.61-1.61h3.79l1.37,1.37-1.22,1.22-.98-.98h-2.1l-.66.66v3.62l.66.66h2.18l.98-.98,1.22,1.22Z"/>
    <path d="m27.48,77.46h-3.29l-.56,1.58h-1.85l3.19-8.16h1.81l3.19,8.16h-1.93l-.56-1.58Zm-.58-1.61l-1.07-2.99-1.07,2.99h2.13Z"/>
    <path d="m38.35,72.49v4.94l-1.61,1.61h-5.34v-8.16h5.34l1.61,1.61Zm-1.8.66l-.66-.66h-2.69v4.94h2.69l.66-.66v-3.62Z"/>
    <path d="m42,72.49v1.66h4.15v1.61h-4.15v1.68h4.75v1.61h-6.55v-8.16h6.55v1.61h-4.75Z"/>
    <path d="m56.96,79.04h-1.8v-5.1l-2.1,3.93h-.76l-2.1-3.93v5.1h-1.72v-8.16h1.81l2.42,4.54,2.42-4.54h1.81v8.16Z"/>
    <path d="m66.25,70.88l-3.05,4.5v3.66h-1.8v-3.66l-3.05-4.5h2.12l1.9,2.89,1.87-2.89h2Z"/>
  </g>
</svg>