<?xml version="1.0" encoding="utf-8"?>
<!-- Generator: Adobe Illustrator 27.2.0, SVG Export Plug-In . SVG Version: 6.00 Build 0)  -->
<svg version="1.1" id="Layer_1" xmlns="http://www.w3.org/2000/svg" xmlns:xlink="http://www.w3.org/1999/xlink" x="0px" y="0px"
	 viewBox="0 0 172.9 47.9" style="enable-background:new 0 0 172.9 47.9;" xml:space="preserve">
<style type="text/css">
	.st0{fill:#076400;}
</style>
<g>
	<path class="st0" d="M13.2,30.4c-5.2,0-9.8-3.5-11.9-8.5C0.5,24.2,0,26.9,0,29.7c0,10,5.9,18.2,13.2,18.2c7.3,0,13.2-8.1,13.2-18.2
		c0-2.8-0.5-5.5-1.3-7.9C23,26.9,18.5,30.4,13.2,30.4z"/>
	<path class="st0" d="M16.3,12v10.5c0,0.3-0.8,0.5-1.8,0.5V28c4.3-0.5,7.8-3.9,9.5-8.8C22.1,15.7,19.4,13.1,16.3,12z"/>
	<path class="st0" d="M12.2,27.9v-4.9c-1.1-0.1-2-0.3-2-0.6V12c-3,1-5.6,3.4-7.4,6.7C4.2,23.8,7.8,27.4,12.2,27.9z"/>
	<path class="st0" d="M14.8,20.6v-5.9c0-0.4-3.3-0.4-3.3,0v5.9C11.6,21.1,14.8,21.1,14.8,20.6z"/>
	<path class="st0" d="M31.4,9.4c-0.8,1.2-1.9,2-3.8,2.1c0,0-0.1,0-0.1,0c-0.6,0-1.2-0.1-1.6-0.3c-0.5-0.2-0.9-0.5-1.3-0.9
		c-0.1-0.1-0.2-0.2-0.3-0.3c-0.7-0.9-1.2-2.4-1.6-4.1c-0.5-1.9-1.4-3.4-2.6-4.4C19,0.5,17.5,0,16,0c-0.1,0-0.3,0-0.4,0
		c-1.7,0.1-3.1,0.9-4.1,2.1c-0.9,1.1-1.5,2.6-1.5,4.1c0,0.4,0,0.9,0.1,1.3c0.3,1.5,0.8,2.6,1.3,3.5c0,0.1,0.1,0.1,0.1,0.2
		c0.6,0,1.4,0,2.1,0c-0.1-0.1-0.1-0.2-0.2-0.3C13.1,10.1,12.4,8.8,12,7c-0.1-0.3-0.1-0.6-0.1-0.9c0-1,0.4-2.1,1.1-2.9
		c0.7-0.8,1.6-1.3,2.8-1.4c0.1,0,0.2,0,0.3,0c1.1,0,2.1,0.4,3,1.1c0.9,0.7,1.6,1.9,2,3.5c0.5,1.7,1,3.4,1.9,4.7
		c0.5,0.7,1.1,1.2,1.9,1.6c0.4,0.2,0.9,0.4,1.4,0.5c0.4,0.1,0.8,0.1,1.2,0.1c0,0,0.1,0,0.1,0c0,0,0,0,0,0c2.5,0,4.2-1.3,5.3-2.9
		c1-1.6,1.4-3.3,1.4-4.6h-1.8C32.5,6.7,32.2,8.3,31.4,9.4z"/>
	<path class="st0" d="M13.3,13.2L13.3,13.2C13.3,13.1,13.2,13.1,13.3,13.2C13.2,13.2,13.3,13.2,13.3,13.2z"/>
</g>
<g>
	<path d="M45.7,26.2l-1.4,1.4h-3.9l-1.6-1.6V21l1.6-1.6h3.8l1.4,1.4L44.4,22l-1-1h-2.1l-0.7,0.7v3.6l0.7,0.7h2.2l1-1L45.7,26.2z"/>
	<path d="M54.2,21v4.9l-1.6,1.6h-4L47,25.9V21l1.6-1.6h4L54.2,21z M52.4,25.3v-3.6L51.7,21h-2.3l-0.7,0.7v3.6l0.7,0.7h2.3L52.4,25.3
		z"/>
	<path d="M64.5,27.5h-1.8v-5.1l-2.1,3.9h-0.8l-2.1-3.9v5.1H56v-8.2h1.8l2.4,4.5l2.4-4.5h1.8V27.5z"/>
	<path d="M73.4,20.7v2.6l-1.3,1.3h-3.7v2.9h-1.8v-8.2h5.5L73.4,20.7z M71.6,22.6v-1.3L71.2,21h-2.8V23h2.8L71.6,22.6z"/>
	<path d="M81.7,19.4v6.5l-1.6,1.6h-3.6l-1.6-1.6v-6.5h1.8v5.9l0.7,0.7h1.9l0.7-0.7v-5.8H81.7z"/>
	<path d="M90.1,21h-2.6v6.5h-1.8V21h-2.6v-1.6h7V21z"/>
	<path d="M93.4,21v1.7h4.2v1.6h-4.2v1.7h4.8v1.6h-6.5v-8.2h6.5V21H93.4z"/>
	<path d="M105.1,27.5l-1.7-3h-1.8v3h-1.8v-8.2h5.5l1.3,1.3v2.4l-1.3,1.3l1.7,3.1H105.1z M101.7,22.9h2.8l0.4-0.4v-1.1l-0.4-0.4h-2.8
		V22.9z"/>
	<path d="M116.8,25.9h-3.3l-0.6,1.6h-1.8l3.2-8.2h1.8l3.2,8.2h-1.9L116.8,25.9z M116.3,24.3l-1.1-3l-1.1,3H116.3z"/>
	<path d="M127.3,26.2l-1.4,1.4h-3.9l-1.6-1.6V21l1.6-1.6h3.8l1.4,1.4L126,22l-1-1h-2.1l-0.7,0.7v3.6l0.7,0.7h2.2l1-1L127.3,26.2z"/>
	<path d="M133.8,25.9h-3.3l-0.6,1.6h-1.8l3.2-8.2h1.8l3.2,8.2h-1.9L133.8,25.9z M133.2,24.3l-1.1-3l-1.1,3H133.2z"/>
	<path d="M144.7,21v4.9l-1.6,1.6h-5.3v-8.2h5.3L144.7,21z M142.9,21.6l-0.7-0.7h-2.7v4.9h2.7l0.7-0.7V21.6z"/>
	<path d="M148.3,21v1.7h4.2v1.6h-4.2v1.7h4.8v1.6h-6.5v-8.2h6.5V21H148.3z"/>
	<path d="M163.3,27.5h-1.8v-5.1l-2.1,3.9h-0.8l-2.1-3.9v5.1h-1.7v-8.2h1.8l2.4,4.5l2.4-4.5h1.8V27.5z"/>
	<path d="M172.6,19.4l-3,4.5v3.7h-1.8v-3.7l-3-4.5h2.1l1.9,2.9l1.9-2.9H172.6z"/>
</g>
</svg>
