<?xml version="1.0" encoding="UTF-8"?>
<svg xmlns="http://www.w3.org/2000/svg" width="728" height="90" viewBox="0 0 728 90">
  <g id="logo_background">
    <rect width="728" height="90" fill="#070741"/>
  </g>
  <g id="logo_bar">
    <rect x="242.77" y="37.51" width="91.27" height="15" fill="#fff"/>
  </g>
  <g id="logo_circle">
    <path d="m288.47,7.92c-20.48,0-37.09,16.6-37.09,37.08s16.6,37.08,37.09,37.08,37.08-16.6,37.08-37.08-16.6-37.08-37.08-37.08m23.93,37.08c0,13.21-10.72,23.93-23.93,23.93s-23.92-10.71-23.92-23.93,10.71-23.92,23.92-23.92,23.93,10.71,23.93,23.92" fill="#fff"/>
  </g>
  <g id="logo_tagline">
    <g>
      <polygon points="347.79 75.89 347.79 68.32 352.53 68.32 352.53 69.84 349.57 69.84 349.57 71.14 351.91 71.14 351.91 72.67 349.57 72.67 349.57 74.31 352.76 74.31 352.76 75.89 347.79 75.89" fill="#fff"/>
      <polygon points="357.78 75.89 355.93 75.89 353.21 68.32 355.18 68.32 356.86 73.4 358.54 68.32 360.5 68.32 357.78 75.89" fill="#fff"/>
      <polygon points="361.3 75.89 361.3 68.32 366.03 68.32 366.03 69.84 363.08 69.84 363.08 71.14 365.41 71.14 365.41 72.67 363.08 72.67 363.08 74.31 366.27 74.31 366.27 75.89 361.3 75.89" fill="#fff"/>
      <path d="m368.96,69.74v1.78h.62c.33,0,.59-.09.78-.26.19-.18.3-.4.3-.66,0-.25-.1-.45-.27-.61-.18-.16-.42-.24-.73-.24h-.68Zm2.22,6.15l-1.88-2.86h-.34v2.86h-1.78v-7.57h2.58c.85,0,1.5.21,1.97.62.46.41.7.97.7,1.68,0,.48-.13.89-.36,1.24-.24.35-.58.62-1.03.79l2.15,3.24h-2.01Z" fill="#fff"/>
      <polygon points="377.85 72.82 377.85 75.89 376.07 75.89 376.07 72.82 373.49 68.32 375.53 68.32 376.97 71.12 378.44 68.32 380.44 68.32 377.85 72.82" fill="#fff"/>
      <path d="m388.59,73.46c0,.79-.22,1.42-.67,1.88-.45.47-1.09.69-1.89.69-.48,0-.88-.1-1.22-.32-.34-.22-.63-.57-.88-1.04l1.38-.79c.19.38.43.58.72.58.52,0,.79-.38.79-1.14v-5h1.78v5.14Z" fill="#fff"/>
      <path d="m393.59,74.44c.65,0,1.18-.22,1.61-.66.43-.44.64-1,.64-1.67s-.22-1.22-.64-1.66c-.43-.44-.97-.67-1.61-.67s-1.17.23-1.6.67c-.43.45-.65,1.01-.65,1.66s.21,1.22.65,1.67c.43.45.97.67,1.6.67m0,1.6c-1.14,0-2.1-.37-2.87-1.13-.77-.76-1.16-1.69-1.16-2.8s.38-2.03,1.15-2.79c.77-.75,1.73-1.13,2.87-1.14,1.15,0,2.1.38,2.88,1.14.77.75,1.16,1.68,1.16,2.79,0,1.11-.39,2.05-1.16,2.8-.77.75-1.73,1.13-2.88,1.13" fill="#fff"/>
      <path d="m405.48,72.38c0,.72-.09,1.29-.24,1.68-.15.39-.38.75-.68,1.05-.3.31-.66.54-1.1.69-.43.16-.93.22-1.5.22-.53,0-1-.08-1.41-.23-.42-.15-.77-.39-1.06-.7-.3-.32-.52-.67-.67-1.07-.15-.4-.23-.96-.23-1.66v-4.06h1.78v4c0,.7.15,1.24.44,1.59.28.36.69.54,1.23.54,1.11,0,1.67-.71,1.67-2.13v-4h1.78v4.06Z" fill="#fff"/>
      <path d="m408.48,69.74v1.78h.61c.32,0,.58-.09.78-.26.19-.18.29-.4.29-.66,0-.25-.09-.45-.27-.61-.18-.16-.42-.24-.73-.24h-.68Zm2.21,6.15l-1.87-2.86h-.34v2.86h-1.78v-7.57h2.58c.84,0,1.5.21,1.97.62.47.41.7.97.7,1.68,0,.48-.12.89-.36,1.24-.24.35-.58.62-1.03.79l2.15,3.24h-2.02Z" fill="#fff"/>
      <polygon points="418.56 75.89 415.23 71.2 415.23 75.89 413.45 75.89 413.45 68.32 415.25 68.32 418.62 73.07 418.62 68.32 420.39 68.32 420.39 75.89 418.56 75.89" fill="#fff"/>
      <polygon points="421.64 75.89 421.64 68.32 426.37 68.32 426.37 69.84 423.42 69.84 423.42 71.14 425.76 71.14 425.76 72.67 423.42 72.67 423.42 74.31 426.61 74.31 426.61 75.89 421.64 75.89" fill="#fff"/>
      <polygon points="431.43 72.82 431.43 75.89 429.66 75.89 429.66 72.82 427.07 68.32 429.11 68.32 430.55 71.12 432.02 68.32 434.02 68.32 431.43 72.82" fill="#fff"/>
      <polygon points="444.02 75.89 444.02 71.2 441.91 73.84 439.85 71.2 439.85 75.89 438.08 75.89 438.08 68.32 439.75 68.32 441.91 71.2 444.02 68.32 445.8 68.32 445.8 75.89 444.02 75.89" fill="#fff"/>
      <path d="m450.3,70.4l-.84,2.58h1.7l-.85-2.58Zm1.82,5.49l-.45-1.38h-2.7l-.44,1.38h-1.93l2.8-7.57h1.8l2.87,7.57h-1.94Z" fill="#fff"/>
      <polygon points="458.28 69.9 458.28 75.89 456.5 75.89 456.5 69.9 454.46 69.9 454.46 68.32 460.32 68.32 460.32 69.9 458.28 69.9" fill="#fff"/>
      <polygon points="464.6 69.9 464.6 75.89 462.82 75.89 462.82 69.9 460.78 69.9 460.78 68.32 466.65 68.32 466.65 69.9 464.6 69.9" fill="#fff"/>
      <polygon points="467.5 75.89 467.5 68.32 472.23 68.32 472.23 69.84 469.27 69.84 469.27 71.14 471.61 71.14 471.61 72.67 469.27 72.67 469.27 74.31 472.47 74.31 472.47 75.89 467.5 75.89" fill="#fff"/>
      <path d="m475.16,69.74v1.78h.61c.32,0,.59-.09.77-.26.19-.18.29-.4.29-.66,0-.25-.09-.45-.27-.61-.18-.16-.42-.24-.73-.24h-.68Zm2.21,6.15l-1.87-2.86h-.34v2.86h-1.78v-7.57h2.57c.85,0,1.51.21,1.97.62.46.41.69.97.69,1.68,0,.48-.12.89-.36,1.24-.23.35-.58.62-1.03.79l2.16,3.24h-2.02Z" fill="#fff"/>
      <path d="m479.84,74.39l1.34-.8c.27.61.68.92,1.26.92.31,0,.55-.07.73-.2.18-.13.28-.32.28-.54,0-.2-.07-.36-.21-.5-.14-.14-.52-.35-1.15-.64-.73-.33-1.23-.66-1.49-1.01-.27-.34-.4-.76-.4-1.26,0-.61.23-1.13.7-1.54.47-.42,1.07-.63,1.79-.63,1.05,0,1.81.42,2.29,1.24l-1.24.79c-.24-.39-.59-.6-1.05-.6-.24,0-.43.06-.58.18-.15.12-.22.27-.22.46s.09.35.23.48c.16.13.5.32,1.01.56.76.36,1.31.72,1.62,1.08.31.36.47.81.47,1.36,0,.67-.27,1.23-.81,1.65-.53.44-1.2.65-2,.65-1.16,0-2.02-.55-2.57-1.64" fill="#fff"/>
    </g>
  </g>
  <g id="logo">
    <g>
      <polygon points="355.32 16.99 355.32 28.77 351.83 28.77 351.83 16.99 347.81 16.99 347.81 13.9 359.34 13.9 359.34 16.99 355.32 16.99" fill="#fff"/>
      <path d="m364.53,16.69v3.5h1.21c.64,0,1.15-.16,1.53-.51.38-.35.57-.78.57-1.3,0-.48-.18-.88-.53-1.2-.35-.32-.83-.48-1.43-.48h-1.34Zm4.35,12.08l-3.68-5.62h-.68v5.62h-3.49v-14.87h5.06c1.66,0,2.95.4,3.86,1.21.92.8,1.37,1.9,1.37,3.31,0,.94-.23,1.74-.7,2.43-.47.69-1.14,1.2-2.02,1.56l4.24,6.36h-3.96Z" fill="#fff"/>
      <path d="m380.68,17.98l-1.66,5.07h3.34l-1.69-5.07Zm3.58,10.79l-.89-2.7h-5.3l-.87,2.7h-3.79l5.48-14.87h3.54l5.65,14.87h-3.82Z" fill="#fff"/>
      <polygon points="399.65 28.77 393.13 19.56 393.13 28.77 389.63 28.77 389.63 13.9 393.14 13.9 399.78 23.21 399.78 13.9 403.27 13.9 403.27 28.77 399.65 28.77" fill="#fff"/>
      <path d="m405.15,25.82l2.63-1.58c.52,1.2,1.35,1.81,2.48,1.81.6,0,1.08-.14,1.44-.4.35-.27.53-.63.54-1.07,0-.39-.14-.72-.41-1-.28-.28-1.03-.7-2.26-1.26-1.44-.64-2.42-1.3-2.94-1.98-.52-.68-.78-1.5-.78-2.48,0-1.2.47-2.21,1.39-3.02.92-.82,2.1-1.23,3.52-1.23,2.07,0,3.56.81,4.49,2.43l-2.43,1.56c-.45-.78-1.15-1.16-2.07-1.16-.46,0-.84.11-1.14.35-.29.23-.43.53-.43.9s.15.68.46.94c.3.26.96.63,1.98,1.1,1.51.7,2.57,1.41,3.19,2.11.62.71.93,1.6.93,2.66,0,1.31-.53,2.41-1.59,3.25-1.06.85-2.37,1.28-3.93,1.28-2.28,0-3.97-1.07-5.06-3.23" fill="#fff"/>
      <path d="m421.19,16.76v4.29h1.11c.84,0,1.47-.18,1.91-.55.43-.37.65-.9.65-1.58s-.22-1.24-.65-1.61c-.43-.37-1.07-.55-1.91-.55h-1.11Zm0,7.15v4.87h-3.49v-14.87h4.97c1.79,0,3.19.45,4.19,1.34,1,.89,1.5,2.1,1.5,3.62s-.53,2.78-1.59,3.69c-1.06.91-2.47,1.35-4.24,1.35h-1.34Z" fill="#fff"/>
      <path d="m437.67,25.92c1.26,0,2.31-.44,3.16-1.32.85-.87,1.27-1.97,1.27-3.27s-.42-2.39-1.27-3.27c-.85-.87-1.9-1.3-3.16-1.3s-2.32.44-3.16,1.31c-.84.88-1.26,1.96-1.26,3.26s.42,2.39,1.27,3.27c.85.88,1.89,1.32,3.15,1.32m0,3.13c-2.25,0-4.13-.74-5.64-2.23-1.51-1.49-2.27-3.32-2.27-5.49,0-2.17.75-4,2.27-5.48,1.52-1.48,3.39-2.23,5.64-2.24,2.25,0,4.13.74,5.66,2.22,1.52,1.48,2.28,3.31,2.28,5.5,0,2.19-.77,4.02-2.28,5.5-1.52,1.48-3.4,2.22-5.66,2.22" fill="#fff"/>
      <path d="m451.08,16.69v3.5h1.2c.64,0,1.15-.16,1.53-.51.38-.35.58-.78.58-1.3-.02-.48-.19-.88-.54-1.2-.35-.32-.83-.48-1.44-.48h-1.33Zm4.35,12.08l-3.68-5.62h-.67v5.62h-3.49v-14.87h5.05c1.66,0,2.95.4,3.86,1.21.91.8,1.37,1.9,1.37,3.31,0,.94-.24,1.74-.7,2.43-.47.69-1.14,1.2-2.02,1.56l4.23,6.36h-3.96Z" fill="#fff"/>
      <polygon points="467.58 16.99 467.58 28.77 464.08 28.77 464.08 16.99 460.07 16.99 460.07 13.9 471.59 13.9 471.59 16.99 467.58 16.99" fill="#fff"/>
      <polygon points="351.28 40.49 351.28 43.03 355.97 43.03 355.97 46.03 351.28 46.03 351.28 52.37 347.79 52.37 347.79 37.5 357.19 37.5 357.19 40.49 351.28 40.49" fill="#fff"/>
      <path d="m366.3,49.52c1.26,0,2.32-.44,3.16-1.32.84-.87,1.27-1.97,1.27-3.28s-.43-2.39-1.27-3.26c-.84-.87-1.9-1.31-3.16-1.31s-2.31.44-3.16,1.32c-.84.88-1.26,1.96-1.26,3.25s.43,2.39,1.27,3.27c.85.88,1.9,1.33,3.15,1.33m0,3.13c-2.25,0-4.13-.74-5.64-2.23-1.51-1.49-2.27-3.32-2.27-5.49,0-2.17.75-3.99,2.27-5.48,1.52-1.48,3.4-2.23,5.65-2.24,2.25,0,4.13.74,5.65,2.22,1.52,1.47,2.28,3.32,2.28,5.49,0,2.2-.77,4.03-2.28,5.51-1.51,1.48-3.4,2.22-5.65,2.22" fill="#fff"/>
      <path d="m379.71,40.29v3.49h1.2c.64,0,1.15-.16,1.53-.51.39-.35.57-.78.57-1.3,0-.47-.18-.88-.53-1.2-.35-.32-.83-.48-1.44-.48h-1.33Zm4.35,12.08l-3.69-5.62h-.67v5.62h-3.5v-14.87h5.06c1.66,0,2.94.4,3.86,1.2.91.81,1.37,1.91,1.37,3.31,0,.94-.24,1.75-.7,2.43-.47.69-1.15,1.21-2.02,1.56l4.23,6.36h-3.96Z" fill="#fff"/>
      <polygon points="394.25 52.37 394.25 37.5 397.74 37.5 397.74 49.26 403.45 49.26 403.45 52.37 394.25 52.37" fill="#fff"/>
      <path d="m412.56,49.52c1.26,0,2.31-.44,3.16-1.32.85-.87,1.27-1.97,1.27-3.28s-.42-2.39-1.27-3.26c-.84-.87-1.89-1.31-3.16-1.31s-2.32.44-3.16,1.32c-.84.88-1.26,1.96-1.26,3.25s.43,2.39,1.26,3.27c.85.88,1.9,1.33,3.15,1.33m0,3.13c-2.25,0-4.13-.74-5.64-2.23-1.52-1.49-2.27-3.32-2.27-5.49,0-2.17.75-3.99,2.26-5.48,1.52-1.48,3.4-2.23,5.65-2.24,2.25,0,4.13.74,5.65,2.22,1.52,1.47,2.27,3.32,2.27,5.49,0,2.2-.77,4.03-2.27,5.51-1.52,1.48-3.4,2.22-5.65,2.22" fill="#fff"/>
      <polygon points="432.47 52.37 425.95 43.16 425.95 52.37 422.46 52.37 422.46 37.5 425.97 37.5 432.6 46.81 432.6 37.5 436.09 37.5 436.09 52.37 432.47 52.37" fill="#fff"/>
      <path d="m442.04,40.4v9.07h.96c1.62,0,2.88-.4,3.79-1.2.91-.79,1.37-1.91,1.37-3.33,0-1.46-.47-2.58-1.37-3.37-.91-.78-2.17-1.18-3.79-1.18h-.96Zm-3.5,11.97v-14.87h4.79c2.53,0,4.55.66,6.05,1.98,1.51,1.32,2.26,3.1,2.26,5.36,0,2.4-.75,4.25-2.27,5.56-1.51,1.31-3.6,1.97-6.26,1.97h-4.57Z" fill="#fff"/>
      <path d="m461.05,49.52c1.26,0,2.32-.44,3.17-1.32.84-.87,1.27-1.97,1.27-3.28s-.43-2.39-1.27-3.26c-.85-.87-1.91-1.31-3.17-1.31s-2.31.44-3.15,1.32c-.84.88-1.26,1.96-1.26,3.25s.42,2.39,1.27,3.27c.84.88,1.89,1.33,3.15,1.33m0,3.13c-2.25,0-4.13-.74-5.64-2.23-1.51-1.49-2.27-3.32-2.27-5.49-.01-2.17.75-3.99,2.26-5.48,1.52-1.48,3.4-2.23,5.65-2.24,2.25,0,4.14.74,5.65,2.22,1.52,1.47,2.28,3.32,2.28,5.49,0,2.2-.77,4.03-2.28,5.51-1.51,1.48-3.4,2.22-5.65,2.22" fill="#fff"/>
      <polygon points="481.22 52.37 474.7 43.16 474.7 52.37 471.21 52.37 471.21 37.5 474.72 37.5 481.35 46.81 481.35 37.5 484.84 37.5 484.84 52.37 481.22 52.37" fill="#fff"/>
    </g>
  </g>
  <g id="logo_line">
    <rect x="347.79" y="59.83" width="137.05" height="1.5" fill="#fff"/>
  </g>
</svg>