<?xml version="1.0" encoding="UTF-8"?>
<svg id="clouds" xmlns="http://www.w3.org/2000/svg" width="300" height="265.3" viewBox="0 0 300 265.3">
  <path d="m198.25,23.78c-2.65-1.26-5.92-.74-7.97,1.22-.73.67-1.23,1.52-1.51,2.43-.67-2.2-2.11-4.2-4.27-5.39-3.95-2.39-9.28-1.89-13.01.95.05-1.74-.37-3.51-1.36-5.07-2.98-5.13-10.24-7.16-15.71-4.1-.17.09-.3.23-.38.4-1.35-.74-2.93-1.06-4.5-.84-4.94.71-7.91,5.87-7.08,10.6-.78-.35-1.63-.57-2.51-.62.06-.12.12-.24.18-.36,2.59-5.98-2.58-13.03-9.18-12.93-6.28-.15-12.13,5.26-12.4,11.87,0,.13.01.26.05.38-3.05.99-5.22,3.56-6.02,6.45-.52-.52-1.13-.97-1.81-1.31-5.5-2.76-12.42,1.73-12.69,7.97-.48,5.91,4.31,11.73,10.54,12.34.23.03.45-.04.64-.17.52,1.53,1.42,2.94,2.74,4.03,4.36,3.91,11.76,3.66,16.03-.77,2.26.8,4.79.72,6.98-.58.14-.08.27-.17.4-.26.88,4.3,5.18,7.82,9.93,7.34,1.03-.06,2.03-.29,2.98-.64.03.1.08.2.16.28,3.89,4.9,11.38,5.78,16.09,2.16,2.78-1.97,4.05-5.32,3.76-8.47,3.38,3.88,9.13,5.4,13.76,3.39,5.47-2.13,7.7-9.18,4.61-13.79,4.24,2.1,9.61,1.55,13.04-1.6,4.75-4.05,4.06-12.26-1.51-14.91Z" style="fill: #fff;"/>
  <g>
    <g>
      <path d="m154.9,17.13c-1.07-1.29-1.33-2.85-.48-3.3,5.46-3.06,12.72-1.03,15.71,4.1,3.34,5.27.24,12.91-5.86,13.79-2.91.41-5.87-1.05-7.25-3.53-1.48-2.55-.61-5.96,1.69-7.46,2.35-1.69,5.92-.53,6.64,2.13.35,1.28-.11,2.7-1.11,3.47-.97.85-2.51.81-3.38-.03-.48-.54-.41-.55.08-.1.92.69,2.25.54,2.96-.24.76-.75.98-1.92.61-2.84-.77-1.94-3.49-2.4-4.84-1.11-1.5,1.24-1.72,3.56-.66,4.96,1.06,1.48,3.06,2.17,4.72,1.72,1.64-.38,2.97-1.9,3.44-3.54.51-1.65.13-3.46-.85-4.71-2.09-2.79-6.34-3.31-8.85-1.41-.35.24-1.49-.58-2.58-1.89Z" style="fill: #77adbd;"/>
      <path d="m158.91,27.98c1.07,1.29,1.33,2.85.48,3.3-5.46,3.06-12.72,1.03-15.71-4.1-3.34-5.27-.24-12.91,5.85-13.79,2.91-.41,5.87,1.05,7.25,3.53,1.48,2.55.61,5.96-1.68,7.46-2.35,1.69-5.92.53-6.64-2.13-.36-1.28.11-2.7,1.11-3.48.96-.85,2.51-.81,3.38.03.48.54.41.56-.09.1-.92-.69-2.25-.54-2.96.24-.76.75-.98,1.92-.61,2.84.77,1.94,3.49,2.4,4.84,1.11,1.5-1.24,1.72-3.56.66-4.96-1.06-1.48-3.06-2.17-4.72-1.72-1.64.38-2.97,1.9-3.44,3.54-.51,1.65-.13,3.46.85,4.71,2.09,2.79,6.34,3.31,8.85,1.41.35-.24,1.49.58,2.58,1.89Z" style="fill: #77adbd;"/>
      <path d="m121.61,23.37c-1.66.23-3.13-.41-3.06-1.43.27-6.6,6.12-12.02,12.4-11.87,6.59-.1,11.77,6.95,9.18,12.93-1.24,2.85-4.21,4.72-7.22,4.58-3.12-.08-5.71-2.76-5.8-5.68-.25-3.06,2.83-5.65,5.63-4.82,1.36.39,2.39,1.61,2.54,2.94.23,1.35-.67,2.73-1.92,3.06-.76.14-.74.07-.04-.13,1.15-.44,1.78-1.75,1.47-2.85-.24-1.13-1.2-2-2.26-2.19-2.22-.42-4.25,1.82-3.82,3.82.29,2.1,2.29,3.65,4.22,3.48,1.99-.12,3.79-1.58,4.34-3.38.6-1.75-.03-3.87-1.28-5.27-1.24-1.44-3.15-2.15-4.9-1.96-3.83.32-6.8,3.97-6.5,7.45.02.48-1.27,1.06-2.96,1.29Z" style="fill: #77adbd;"/>
      <path d="m158.96,29.94c1.29-1.07,2.85-1.33,3.3-.48,3.06,5.46,1.03,12.72-4.1,15.71-5.27,3.34-12.91.24-13.79-5.86-.41-2.91,1.05-5.87,3.53-7.25,2.55-1.48,5.96-.61,7.46,1.68,1.69,2.35.53,5.92-2.13,6.64-1.28.35-2.7-.11-3.47-1.11-.85-.97-.81-2.51.03-3.38.54-.48.55-.41.1.09-.69.91-.54,2.25.24,2.96.75.76,1.92.98,2.84.61,1.94-.77,2.4-3.49,1.11-4.84-1.24-1.5-3.56-1.72-4.96-.66-1.48,1.06-2.17,3.06-1.72,4.72.39,1.63,1.9,2.97,3.54,3.44,1.65.51,3.46.13,4.71-.85,2.79-2.09,3.31-6.34,1.41-8.85-.24-.35.57-1.49,1.89-2.58Z" style="fill: #77adbd;"/>
      <path d="m146.97,38.91c.92,1.4,1,2.98.1,3.34-5.77,2.43-12.76-.41-15.15-5.84-2.73-5.61,1.21-12.86,7.37-13.04,2.94-.08,5.72,1.7,6.81,4.32,1.18,2.7-.06,5.99-2.51,7.23-2.52,1.42-5.94-.15-6.36-2.87-.21-1.31.42-2.67,1.49-3.33,1.05-.73,2.58-.52,3.35.41.42.59.35.6-.1.09-.83-.79-2.18-.79-2.97-.09-.84.65-1.19,1.8-.93,2.75.54,2.01,3.2,2.78,4.68,1.65,1.63-1.07,2.11-3.34,1.21-4.85-.88-1.59-2.8-2.5-4.5-2.24-1.67.2-3.16,1.55-3.82,3.13-.69,1.58-.52,3.42.32,4.78,1.76,3.01,5.93,4,8.63,2.4.38-.2,1.42.74,2.35,2.17Z" style="fill: #77adbd;"/>
      <path d="m152.9,44.1c1.64-.38,3.14.09,3.17,1.06.28,6.26-4.79,11.83-10.71,12.2-6.21.62-11.65-5.58-9.7-11.42.94-2.78,3.57-4.78,6.41-4.9,2.94-.18,5.6,2.13,5.91,4.86.46,2.86-2.19,5.53-4.88,4.97-1.3-.26-2.36-1.31-2.61-2.55-.32-1.24.4-2.6,1.54-3.01.7-.19.68-.12.05.12-1.03.51-1.49,1.77-1.11,2.75.32,1.02,1.27,1.74,2.26,1.82,2.08.19,3.71-2.05,3.17-3.82-.44-1.9-2.41-3.13-4.14-2.81-1.8.28-3.31,1.76-3.65,3.45-.39,1.63.37,3.5,1.62,4.67,1.25,1.19,3.03,1.67,4.6,1.35,3.44-.62,5.8-4.18,5.23-7.27-.06-.42,1.18-1.07,2.85-1.46Z" style="fill: #77adbd;"/>
      <path d="m126.73,47.69c1.42.9,2.14,2.3,1.47,3-4.25,4.6-11.79,4.9-16.2.94-4.81-3.98-4.21-12.21,1.32-14.93,2.64-1.29,5.91-.81,7.99,1.12,2.19,1.97,2.42,5.48.7,7.62-1.71,2.33-5.47,2.32-6.97.02-.73-1.11-.72-2.6-.02-3.65.66-1.1,2.14-1.54,3.22-1.01.62.36.56.4-.05.13-1.08-.38-2.31.18-2.74,1.14-.5.95-.34,2.13.29,2.89,1.33,1.61,4.06,1.2,4.95-.43,1.04-1.64.54-3.91-.9-4.92-1.46-1.09-3.58-1.12-5.02-.18-1.44.87-2.24,2.72-2.18,4.43.03,1.73.94,3.33,2.27,4.22,2.85,2.01,7.05,1.19,8.85-1.39.26-.34,1.59.09,3.04,1Z" style="fill: #77adbd;"/>
      <path d="m110.12,44.79c.14,1.67-.54,3.1-1.5,2.98-6.23-.61-11.03-6.43-10.54-12.34.27-6.24,7.19-10.73,12.69-7.97,2.62,1.32,4.22,4.22,3.93,7.04-.24,2.94-2.9,5.24-5.65,5.16-2.89.05-5.16-2.95-4.23-5.54.44-1.25,1.64-2.15,2.89-2.22,1.28-.14,2.52.77,2.76,1.96.09.72.02.69-.13.04-.36-1.09-1.54-1.73-2.57-1.49-1.05.17-1.9,1.01-2.12,1.98-.48,2.03,1.49,3.96,3.33,3.68,1.94-.17,3.44-1.93,3.37-3.69-.02-1.82-1.27-3.53-2.89-4.11-1.56-.62-3.52-.14-4.85.94-1.36,1.06-2.08,2.77-1.99,4.36.12,3.49,3.31,6.34,6.45,6.21.43,0,.89,1.32,1.04,3.03Z" style="fill: #77adbd;"/>
      <path d="m170.75,28.65c-1.56-.62-2.53-1.86-2-2.67,3.32-5.31,10.67-7.01,15.75-3.94,5.46,3.02,6.41,11.21,1.48,14.91-2.35,1.76-5.66,1.9-8.06.38-2.52-1.52-3.4-4.93-2.1-7.36,1.25-2.61,4.94-3.3,6.85-1.31.93.95,1.2,2.42.7,3.58-.44,1.21-1.81,1.91-2.98,1.6-.68-.24-.63-.29.03-.13,1.14.17,2.23-.61,2.48-1.63.31-1.02-.06-2.15-.82-2.78-1.6-1.33-4.21-.43-4.78,1.34-.72,1.81.2,3.94,1.8,4.66,1.64.79,3.73.43,4.96-.76,1.25-1.12,1.69-3.09,1.32-4.76-.35-1.69-1.55-3.1-3.01-3.72-3.18-1.45-7.15.14-8.44,3.01-.19.38-1.58.21-3.17-.42Z" style="fill: #77adbd;"/>
      <path d="m160.1,40.78c1.31-1.1,2.58-1.69,2.88-1.39,2.12,2.32,6.39,2.59,8.96.22,1.19-1.06,1.89-2.76,1.69-4.48-.17-1.7-1.2-3.43-2.74-4.11-1.55-.74-3.64-.43-4.95.83-1.3,1.18-1.5,3.5-.26,4.99,1.09,1.51,3.86,1.55,4.96-.22.53-.84.53-2.03-.09-2.9-.55-.89-1.84-1.29-2.86-.77-.57.35-.64.32-.07-.12,1.01-.66,2.53-.42,3.33.58.83.94,1.04,2.42.46,3.62-1.19,2.48-4.91,2.98-6.91.89-1.99-1.9-2.22-5.41-.3-7.64,1.81-2.19,4.99-3.09,7.77-2.15,5.84,1.97,7.5,10.05,3.25,14.63-3.87,4.5-11.37,5.18-16.19,1.18-.76-.6-.22-2.09,1.07-3.16Z" style="fill: #77adbd;"/>
      <path d="m150.19,54.12c1.51-.8,2.87-1.13,3.1-.77,1.6,2.71,5.73,3.84,8.72,2.05,1.39-.79,2.42-2.32,2.58-4.04.18-1.7-.47-3.61-1.84-4.58-1.36-1.05-3.48-1.17-5.02-.2-1.52.89-2.19,3.12-1.27,4.83.76,1.7,3.46,2.31,4.9.8.69-.71.93-1.88.51-2.86-.36-.99-1.54-1.64-2.65-1.34-.63.23-.69.18-.04-.13,1.12-.44,2.56.11,3.14,1.25.63,1.1.52,2.58-.29,3.63-1.67,2.19-5.42,1.91-6.95-.54-1.56-2.26-1.06-5.75,1.27-7.54,2.22-1.77,5.51-2,8.05-.52,5.31,3.13,5.28,11.37.19,14.98-4.7,3.61-12.19,2.74-16.09-2.16-.62-.75.21-2.09,1.7-2.88Z" style="fill: #77adbd;"/>
      <path d="m184.97,34.94c1.43-.93,2.76-1.38,3.02-1.04,1.83,2.55,6.04,3.32,8.87,1.27,1.31-.91,2.21-2.52,2.21-4.25.03-1.71-.79-3.55-2.24-4.4-1.45-.92-3.57-.86-5.02.24-1.43,1.02-1.9,3.3-.84,4.93.91,1.62,3.65,1.99,4.95.37.62-.77.77-1.95.26-2.89-.45-.95-1.68-1.5-2.76-1.11-.61.28-.67.24-.05-.12,1.08-.54,2.56-.12,3.24.97.72,1.03.75,2.53.03,3.65-1.47,2.33-5.23,2.38-6.97.07-1.75-2.12-1.57-5.63.6-7.63,2.05-1.96,5.32-2.48,7.97-1.22,5.56,2.65,6.26,10.86,1.51,14.91-4.37,4.01-11.9,3.8-16.22-.74-.68-.69.03-2.1,1.43-3.01Z" style="fill: #77adbd;"/>
      <path d="m168.86,45.45c1.66-.42,3.06-.38,3.21.05.97,3.19,4.93,5.39,8.45,4.31,1.63-.46,3.07-1.78,3.67-3.5.61-1.7.42-3.81-.74-5.16-1.14-1.41-3.27-2.07-5.09-1.46-1.78.54-3.01,2.64-2.52,4.62.33,1.94,2.96,3.22,4.8,2.05.88-.55,1.42-1.68,1.23-2.78-.12-1.09-1.15-2.05-2.35-2.03-.7.07-.74.02,0-.13,1.24-.16,2.56.76,2.85,2.06.35,1.26-.13,2.73-1.21,3.58-2.22,1.78-5.95.57-6.85-2.29-.99-2.67.37-6.04,3.17-7.26,2.67-1.22,6.03-.62,8.2,1.5,4.54,4.46,2.44,12.73-3.56,15.06-5.62,2.44-12.9-.32-15.57-6.2-.43-.9.69-2.03,2.32-2.43Z" style="fill: #77adbd;"/>
      <path d="m133.12,33.04c-.02,1.71-.39,3.06-.81,3.09-3.14.1-6.12,3.18-5.99,6.66.03,1.59.87,3.24,2.3,4.2,1.4.98,3.39,1.32,4.9.59,1.57-.69,2.7-2.49,2.58-4.31-.05-1.76-1.68-3.41-3.63-3.44-1.85-.15-3.69,1.92-3.06,3.91.29.94,1.2,1.72,2.26,1.82,1.04.16,2.18-.56,2.45-1.67.1-.66.17-.69.13.03-.15,1.2-1.33,2.2-2.61,2.15-1.26.02-2.52-.79-3.05-2.01-1.12-2.51.93-5.67,3.82-5.83,2.73-.28,5.55,1.83,6.01,4.74.49,2.8-.9,5.8-3.42,7.31-5.29,3.15-12.51-.83-13.23-7.03-.91-5.86,3.46-12.01,9.63-13.07.95-.18,1.73,1.19,1.71,2.87Z" style="fill: #77adbd;"/>
      <path d="m130.79,31.78c-1.69.25-3.08.11-3.18-.31-.61-3.09-4.11-5.53-7.54-4.84-1.57.28-3.06,1.38-3.78,2.95-.74,1.54-.75,3.56.21,4.93.93,1.44,2.89,2.26,4.66,1.86,1.73-.33,3.1-2.21,2.82-4.13-.15-1.85-2.49-3.33-4.35-2.39-.89.44-1.51,1.46-1.43,2.52,0,1.05.9,2.06,2.04,2.15.67,0,.71.06,0,.13-1.21.04-2.38-.96-2.54-2.23-.22-1.24.37-2.61,1.49-3.33,2.3-1.5,5.75,0,6.37,2.83.71,2.65-.92,5.77-3.72,6.69-2.68.93-5.86.04-7.76-2.2-3.96-4.72-1.18-12.48,4.83-14.19,5.64-1.84,12.41,1.49,14.44,7.41.33.91-.9,1.9-2.56,2.15Z" style="fill: #77adbd;"/>
    </g>
    <g>
      <path d="m163.55,30.63c-2.25.1-4.47-1.11-5.52-3-.05-.08-.09-.17-.13-.25.06.1.13.2.2.29,1.05,1.47,2.95,2.39,4.83,2.31.37-.02.74-.07,1.09-.17,1.94-.46,3.66-2.2,4.27-4.34.6-1.94.19-4.15-1.06-5.75-1.45-1.94-3.96-3.09-6.53-2.97-1.28.06-2.47.41-3.47,1.04-.31-.21-.84-.66-1.44-1.39-.59-.71-.74-1.36-.72-1.6,1.38-.75,2.88-1.16,4.48-1.24,3.97-.17,7.72,1.77,9.58,4.95v.02s.02.02.02.02c1.42,2.24,1.57,5.21.4,7.75-1.09,2.37-3.08,3.93-5.44,4.27-.18.03-.37.04-.56.05h0Z" style="fill: #abd9ed;"/>
      <path d="m154.26,31.55c-3.97.17-7.73-1.77-9.58-4.95v-.02s-.02-.02-.02-.02c-1.42-2.24-1.57-5.21-.4-7.75,1.09-2.37,3.08-3.93,5.44-4.27.18-.02.37-.04.56-.05,2.25-.1,4.47,1.11,5.52,3,.05.08.09.16.13.24-.06-.1-.13-.19-.2-.28-1.05-1.47-2.95-2.39-4.83-2.31-.38.02-.76.07-1.12.17-1.91.45-3.63,2.2-4.25,4.34-.6,1.94-.19,4.15,1.06,5.75,1.45,1.94,3.96,3.09,6.53,2.97,0,0,0,0,0,0,1.28-.06,2.47-.42,3.46-1.04.31.21.84.66,1.44,1.39.59.7.74,1.36.72,1.6-1.38.75-2.88,1.17-4.48,1.24h0Z" style="fill: #abd9ed;"/>
      <path d="m133.46,26.43c-.17,0-.34,0-.5,0-.1,0-.21,0-.31-.02.06,0,.12,0,.17,0,.07,0,.13,0,.2-.01,2.39-.14,4.65-1.91,5.35-4.2.68-2.01.08-4.58-1.53-6.38-1.36-1.57-3.42-2.46-5.51-2.37-.12,0-.25.01-.37.03-2.09.17-4.14,1.26-5.59,2.97-1.29,1.53-2,3.42-1.97,5.25-.32.16-.98.39-1.94.53-.13.02-.25.03-.37.03-.79.03-1.26-.19-1.38-.31.27-5.58,5.08-10.47,10.56-10.71.22,0,.44-.01.65,0h.04c2.82-.04,5.6,1.48,7.26,3.97,1.55,2.32,1.86,5,.84,7.35-.97,2.22-3.22,3.78-5.6,3.89h0Z" style="fill: #abd9ed;"/>
      <path d="m153.74,45.38c-3.58.16-7.63-2.13-8.22-6.22-.34-2.42.87-4.92,2.95-6.08.08-.05.17-.09.25-.14-.1.06-.2.13-.29.2-1.8,1.28-2.71,3.77-2.14,5.91.46,1.94,2.2,3.66,4.34,4.28.67.21,1.39.3,2.12.26,1.33-.06,2.62-.53,3.63-1.32,1.55-1.16,2.61-3.01,2.9-5.06.25-1.78-.1-3.55-.97-4.95.21-.31.66-.84,1.39-1.44.61-.51,1.2-.71,1.52-.72.03,0,.06,0,.08,0,2.63,4.83.91,11.37-3.72,14.06h-.02s-.02.02-.02.02c-1.12.71-2.44,1.12-3.81,1.18h0Z" style="fill: #abd9ed;"/>
      <path d="m143.15,41.95c-4.34.19-8.52-2.28-10.16-6.02v-.02s-.02-.02-.02-.02c-1.16-2.4-1-5.28.45-7.7,1.33-2.23,3.45-3.57,5.83-3.68h.09c2.44-.07,4.79,1.41,5.71,3.61.04.09.07.17.1.26-.05-.1-.1-.2-.16-.3-.99-1.78-3.05-2.94-5.13-2.84-.18,0-.36.03-.54.05-1.94.23-3.85,1.77-4.71,3.83-.81,1.86-.66,4.1.4,5.83,1.39,2.37,4.15,3.83,7.03,3.7.96-.04,1.88-.27,2.69-.66.28.25.76.75,1.28,1.55.5.77.58,1.43.54,1.67-1.08.44-2.22.69-3.39.74h0Z" style="fill: #abd9ed;"/>
      <path d="m144.82,56.23c-2.62.12-5.17-1.13-6.83-3.34-1.51-2-1.96-4.41-1.23-6.6.78-2.31,2.98-4,5.35-4.11h.1c.07,0,.13,0,.2,0-.12.01-.24.03-.36.05-2.2.34-4.13,2.17-4.57,4.35-.45,1.9.33,4.23,1.97,5.74,1.24,1.18,2.95,1.83,4.69,1.75.31-.01.62-.05.92-.11,1.91-.34,3.69-1.52,4.87-3.22,1.02-1.48,1.5-3.22,1.35-4.86.33-.18.97-.45,1.89-.66.24-.06.48-.09.71-.1.55-.02.91.09,1.05.17.18,5.5-4.29,10.57-9.63,10.9h-.02s-.02,0-.02,0c-.14.01-.28.02-.42.03h0Z" style="fill: #abd9ed;"/>
      <path d="m120.01,53.21c-2.73.12-5.36-.77-7.24-2.45h-.02s-.02-.03-.02-.03c-2.04-1.69-3.1-4.47-2.77-7.25.31-2.6,1.71-4.69,3.86-5.75.74-.36,1.54-.56,2.38-.6,1.62-.07,3.19.48,4.31,1.53.07.06.14.13.2.19-.09-.07-.18-.14-.27-.21-.98-.73-2.27-1.11-3.58-1.05-1,.04-1.95.34-2.73.85-1.67,1.01-2.77,3.21-2.7,5.43.03,2.03,1.1,4.01,2.78,5.14,1.3.92,2.96,1.39,4.66,1.32,2.18-.1,4.18-1.04,5.45-2.56.36.11,1,.37,1.8.88.77.49,1.12,1.06,1.18,1.3-1.85,1.95-4.49,3.12-7.28,3.25h0Z" style="fill: #abd9ed;"/>
      <path d="m108.64,46.61c-5.47-.6-9.85-5.75-9.41-11.09v-.02s0-.02,0-.02c.17-3.99,3.7-7.51,7.7-7.69,1.17-.05,2.28.18,3.31.7,2.18,1.1,3.54,3.53,3.3,5.89,0,.09-.02.19-.03.28,0-.12,0-.23,0-.35-.02-2.22-1.56-4.4-3.66-5.15-.63-.25-1.37-.37-2.14-.34-1.35.06-2.74.59-3.82,1.46-1.6,1.25-2.53,3.3-2.42,5.32.07,1.93.97,3.86,2.49,5.27,1.32,1.23,2.97,1.95,4.61,2.03.13.35.31,1.02.39,1.97.08.91-.17,1.54-.32,1.73h0Z" style="fill: #abd9ed;"/>
      <path d="m181.9,37.22c-1.21.05-2.4-.25-3.36-.86-.08-.05-.16-.1-.24-.16.1.06.21.11.32.16.77.37,1.69.56,2.63.52,1.36-.06,2.67-.6,3.59-1.48,1.48-1.34,2.15-3.69,1.67-5.86-.41-1.99-1.82-3.74-3.68-4.54-1.01-.46-2.18-.68-3.35-.63-2.67.12-5.15,1.6-6.35,3.74-.42-.04-1.12-.21-1.93-.53-.85-.34-1.3-.84-1.4-1.06,1.82-2.83,5.1-4.67,8.6-4.83,2.01-.09,3.91.38,5.51,1.34h.02s.02.02.02.02c2.32,1.28,3.88,3.81,4.07,6.61.18,2.61-.81,4.93-2.73,6.36-.95.71-2.16,1.14-3.38,1.19h0Z" style="fill: #abd9ed;"/>
      <path d="m167.01,45.41c-2.66.12-5.2-.7-7.17-2.3.02-.24.29-.86,1-1.44.73-.61,1.33-.96,1.67-1.11,1.37,1.26,3.35,1.94,5.39,1.85,1.83-.08,3.54-.77,4.81-1.95,1.5-1.33,2.3-3.43,2.06-5.46-.22-2.2-1.6-4.23-3.42-5.03-.74-.36-1.63-.53-2.54-.49-1.39.06-2.73.63-3.69,1.55-.07.07-.15.14-.21.21.05-.07.1-.13.15-.19,1.03-1.25,2.66-2.04,4.35-2.11.75-.03,1.48.07,2.17.3,2.26.76,3.93,2.66,4.57,5.19.69,2.72,0,5.61-1.8,7.55v.02s-.03.02-.03.02c-1.75,2.03-4.42,3.27-7.34,3.4h0Z" style="fill: #abd9ed;"/>
      <path d="m158.29,60.2c-3.46.15-6.76-1.29-8.83-3.86.07-.23.46-.78,1.27-1.21.78-.42,1.45-.66,1.87-.75,1.39,1.94,3.95,3.13,6.54,3.02,1.24-.05,2.44-.41,3.47-1.02,1.74-.99,2.95-2.88,3.14-4.93.24-2.2-.7-4.47-2.32-5.63-.96-.74-2.25-1.13-3.59-1.07-.98.04-1.92.33-2.72.83-.09.05-.17.11-.26.16.06-.05.13-.11.19-.16.94-.76,2.15-1.19,3.41-1.25,1.19-.05,2.35.23,3.35.81,2.06,1.21,3.3,3.41,3.42,6.02.12,2.8-1.15,5.49-3.31,7.02h-.02s-.02.03-.02.03c-1.55,1.19-3.48,1.87-5.59,1.96h0Z" style="fill: #abd9ed;"/>
      <path d="m192.61,40.37c-3.13.14-6.1-1.01-8.17-3.15.05-.24.39-.82,1.16-1.31.8-.52,1.43-.8,1.79-.91,1.42,1.65,3.7,2.59,6.09,2.49,1.5-.07,2.9-.54,4.06-1.39,1.65-1.14,2.68-3.13,2.69-5.18.04-2.21-1.09-4.39-2.81-5.4-.9-.56-2.02-.85-3.15-.8-1.15.05-2.28.45-3.15,1.12-.09.06-.17.13-.25.19.06-.06.12-.12.18-.18,1.01-.97,2.37-1.53,3.84-1.59.99-.04,1.98.15,2.86.57,2.16,1.03,3.59,3.1,3.93,5.69.36,2.78-.66,5.57-2.68,7.29h-.02s-.02.03-.02.03c-1.66,1.53-3.92,2.43-6.36,2.53h0Z" style="fill: #abd9ed;"/>
      <path d="m178.19,53.8c-4.43.2-8.77-2.41-10.58-6.34.1-.2.61-.66,1.52-.89.57-.14,1.14-.23,1.6-.25.17,0,.29,0,.39,0,1.17,2.98,4.44,5.07,7.85,4.92.64-.03,1.28-.14,1.88-.32,2.02-.58,3.72-2.2,4.42-4.23.79-2.17.4-4.71-.96-6.29-1.09-1.36-2.94-2.17-4.8-2.09-.53.02-1.04.12-1.53.28-.1.03-.2.06-.3.1.08-.04.16-.08.24-.11.69-.32,1.42-.49,2.2-.52,1.77-.08,3.49.57,4.73,1.79,1.77,1.74,2.47,4.26,1.92,6.92-.58,2.85-2.54,5.24-5.1,6.23h-.02s-.02.02-.02.02c-1.07.47-2.23.73-3.45.78h0Z" style="fill: #abd9ed;"/>
      <path d="m131.29,50.21c-4.06.18-7.88-3.08-8.35-7.11v-.02s0-.02,0-.02c-.82-5.3,3.18-10.76,8.59-11.74.17.17.46.78.45,1.7,0,.95-.14,1.63-.24,1.99-3.69.44-6.7,3.97-6.56,7.82.03,2,1.11,3.97,2.81,5.12,1.15.8,2.61,1.23,4,1.17.74-.03,1.43-.2,2.06-.5,2-.88,3.38-3.16,3.24-5.42,0-.1-.01-.21-.02-.31.02.08.03.17.05.25.41,2.36-.77,4.88-2.87,6.14-.96.57-2.01.88-3.14.93h0Z" style="fill: #abd9ed;"/>
      <path d="m119.9,37.81c-1.88.08-3.72-.72-4.93-2.15-1.54-1.83-1.98-4.31-1.21-6.81.82-2.68,2.92-4.79,5.47-5.52h.02s.02-.01.02-.01c.78-.25,1.61-.4,2.45-.44,4.59-.2,8.99,2.75,10.51,7.04-.15.19-.7.58-1.6.71-.37.05-.72.09-1.05.1-.44.02-.75,0-.95-.03-.91-3.14-4.24-5.5-7.68-5.35-.37.02-.73.06-1.09.13-1.97.35-3.74,1.73-4.6,3.59-.96,2-.83,4.44.31,6.08,1.02,1.56,2.96,2.54,4.93,2.45.32-.01.63-.06.94-.12.1-.02.2-.04.3-.07-.08.03-.16.06-.24.09-.52.18-1.05.28-1.59.3h0Z" style="fill: #abd9ed;"/>
    </g>
  </g>
</svg>