<?xml version="1.0" encoding="UTF-8"?>
<svg id="Layer_1" data-name="Layer 1" xmlns="http://www.w3.org/2000/svg" width="158.04" height="71.17" viewBox="0 0 158.04 71.17">
  <path d="m67.39,20.65l-3,3.18c-.37.39-.3.95.15,1.24l12.09,7.81c.45.29,1.12.21,1.49-.18l.13-.14s0,0,0,0l-10.85-11.9Z" style="fill: #fff;"/>
  <path d="m79.22,30.1l-8.61-11.46c-.32-.43-.89-.46-1.26-.07l-1.97,2.08,10.85,11.9s0,0,0,0l.9-.96c.37-.39.4-1.06.08-1.49" style="fill: #fff;"/>
  <path d="m79.81,21.75l-5.52-13.23c-.21-.5-.75-.67-1.2-.38l-2.42,1.54,7.59,14.21s0,0,0,0l1.11-.71c.45-.29.65-.93.44-1.43" style="fill: #fff;"/>
  <path d="m103.4,20.28c-.27-.39-.77-.43-1.1-.1l-8.93,8.9c-.33.33-.39.92-.12,1.31l.76,1.09c.27.39.84.54,1.27.34l11.5-5.28c.43-.2.56-.67.29-1.06l-3.66-5.2Z" style="fill: #fff;"/>
  <path d="m99.96,12.4c-.33-.34-.82-.31-1.1.07l-4.2,8.1c-.28.38-.25.97.08,1.31l-.24-.33c.32.34.91.41,1.31.15l7.28-4.91c.39-.26.45-.75.12-1.09l-3.24-3.31Z" style="fill: #fff;"/>
  <path d="m91.6,1.85c-.61-.16-1.62-.4-2.23-.54L83.62.03c-.62-.14-1.1.27-1.08.9l.14,3.72.75-.2c.57-.15,1.04.2,1.04.8l.11,20.91s.02,0,.04,0l1.71.25s.03,0,.05,0l10.22-23.26-5-1.31Z" style="fill: #fff;"/>
  <path d="m83.43,4.45l-.75.2.76,20.19c.02.62.53,1.2,1.14,1.31l-.11-20.91c0-.59-.47-.95-1.04-.8" style="fill: #fff;"/>
  <path d="m87.95,25.54l9.75-20.93c.27-.57-.01-1.17-.63-1.33l-.47-.12-10.22,23.26c.61.07,1.31-.32,1.57-.88" style="fill: #fff;"/>
  <path d="m14.43,52.61c-.25.17-.57.35-.93.52-.37.18-.7.35-1.18.51-.47.16-1.01.29-1.61.4-.6.1-1.28.16-2.04.16-1.18,0-2.29-.18-3.32-.54-1.03-.36-2.03-.89-2.81-1.6-.78-.71-1.4-1.58-1.85-2.61-.45-1.03-.68-2.23-.68-3.58s.31-2.55.75-3.61c.44-1.05,1.06-1.94,1.84-2.66.78-.72,1.7-1.26,2.77-1.63,1.07-.37,2.21-.55,3.43-.55,1.03,0,1.91.09,2.64.25.73.17,1.32.38,1.77.63.45.25.78.54.98.85.2.32.3.63.3.95,0,.42-.14.81-.43,1.17-.29.36-.55.63-.81.82-.38-.36-.93-.7-1.65-1.03-.72-.33-1.6-.49-2.66-.49-.72,0-1.39.1-2.01.31-.62.21-1.16.53-1.61.97-.45.43-.81.97-1.08,1.61-.26.64-.48,1.41-.48,2.29s.14,1.72.41,2.37c.28.65.65,1.19,1.14,1.61.48.42,1.04.73,1.68.94.63.2,1.32.3,2.06.3,1.06,0,1.9-.14,2.55-.43.64-.28,1.08-.5,1.31-.65l1.52,2.69Z" style="fill: #fff;"/>
  <path d="m31.37,43.53c.09-1.94.68-3.44,1.88-4.51,1.19-1.07,2.84-1.6,4.95-1.6,1.33,0,2.41.19,3.24.55.83.37,1.25.93,1.25,1.69,0,.36-.1.71-.3,1.04-.2.34-.36.55-.49.63-.36-.17-.8-.33-1.33-.47-.53-.15-1.13-.22-1.8-.22-2.47,0-3.7,1.31-3.79,3.92v9.18h-3.61v-10.22Z" style="fill: #fff;"/>
  <path d="m58.83,43.53c.09-1.94.68-3.44,1.88-4.51,1.19-1.07,2.84-1.6,4.95-1.6,1.33,0,2.41.19,3.24.55.83.37,1.25.93,1.25,1.69,0,.36-.1.71-.3,1.04-.2.34-.36.55-.49.63-.36-.17-.8-.33-1.33-.47-.53-.15-1.13-.22-1.8-.22-2.47,0-3.7,1.31-3.79,3.92v9.18h-3.61v-10.22Z" style="fill: #fff;"/>
  <path d="m71.75,49.79c.15.11.41.24.79.41.38.17.85.34,1.41.52.56.18,1.2.33,1.91.46.72.12,1.5.19,2.34.19,1.1,0,1.99-.14,2.69-.43.7-.28,1.04-.77,1.04-1.47,0-.59-.22-1.04-.66-1.35-.44-.3-1.23-.52-2.37-.65l-2.47-.28c-.85-.08-1.62-.24-2.33-.46-.71-.22-1.31-.52-1.82-.9-.51-.38-.81-.85-1.1-1.41-.28-.56-.43-1.23-.43-2.01,0-.67.13-1.31.4-1.91.27-.6.69-1.14,1.26-1.6.57-.46,1.32-.83,2.24-1.09.92-.26,2.04-.4,3.34-.4,2.19,0,3.9.24,5.11.73,1.21.49,1.82,1.12,1.82,1.9,0,.25-.05.47-.14.66s-.2.36-.32.51c-.12.15-.24.27-.36.36-.13.09-.22.15-.28.17-.09-.09-.27-.22-.55-.4-.29-.18-.67-.36-1.15-.54-.49-.18-1.07-.34-1.74-.47-.68-.14-1.46-.21-2.34-.21-2.45,0-3.67.64-3.67,1.93,0,.55.23.96.69,1.25.46.28,1.13.48,1.99.59l3.22.41c1.75.23,3.02.71,3.98,1.44.97.73,1.45,1.8,1.45,3.21,0,1.58-.63,2.85-1.88,3.8-1.26.95-2.98,1.42-5.34,1.42-1.14,0-2.17-.09-3.1-.25-.93-.17-1.82-.36-2.51-.59-.68-.22-1.24-.44-1.66-.65-.42-.21-.7-.37-.82-.48l1.36-2.44Z" style="fill: #fff;"/>
  <path d="m29.16,41.03c-.41-.86-.99-1.56-1.73-2.09-.74-.53-1.62-.91-2.64-1.16-1.02-.24-2.16-.36-3.4-.36-1.03,0-1.89.06-2.56.19-.68.13-1.21.3-1.61.52-.4.22-.68.48-.84.76-.16.29-.24.58-.24.87,0,.42.11.78.33,1.08.22.3.4.5.52.6.23-.19.71-.42,1.44-.7.73-.27,1.69-.41,2.9-.41.72,0,1.37.05,1.96.16.59.11,1.1.3,1.52.57.42.28.75.66,1,1.14.19.39.31.85.35,1.4v.03s.02.38.02.38c0,.01,0,.02,0,.03h0l-.06,2.63h0v4.62c-.19.04-.57.1-1.14.18-.57.07-1.34.11-2.31.11-.87,0-1.59-.06-2.17-.17-.58-.11-1.04-.28-1.38-.51-.34-.22-.57-.49-.71-.81-.14-.32-.21-.67-.21-1.04,0-.93.33-1.61.98-2.04.65-.43,1.7-.65,3.13-.65.73,0,1.34.02,1.84.05.41-.1,1.19-.6,1.2-1.64,0-.32-.04-.59-.1-.81-.21-.02-.44-.04-.7-.06-.72-.05-1.48-.08-2.28-.08-1.39,0-2.57.11-3.54.33-.97.22-1.85.55-2.45,1-.6.44-1.03.99-1.3,1.65-.26.65-.4,1.41-.4,2.28,0,.65.11,1.29.33,1.91.22.62.63,1.17,1.24,1.65.6.47,1.51.85,2.56,1.14,1.04.28,2.39.43,4.04.43.82,0,1.61-.02,2.37-.06.76-.04,1.45-.09,2.06-.14.61-.05,1.14-.1,1.6-.16.45-.05.79-.1.91-.14v-9.53c.09-1.22-.12-2.27-.53-3.13" style="fill: #fff;"/>
  <path d="m52.77,47.25c1.18-.24,2.12-.58,2.82-1.01.7-.43,1.27-.95,1.54-1.55.27-.6.41-1.27.41-2.01s-.15-1.39-.44-2.02c-.3-.63-.73-1.19-1.31-1.66-.58-.48-1.29-.86-2.14-1.14-.85-.28-1.82-.43-2.91-.43-1.25,0-2.39.21-3.43.62-1.04.41-1.95.99-2.72,1.74-.77.75-1.37,1.65-1.8,2.69s-.74,2.2-.74,3.47c0,1.33.22,2.51.67,3.53.44,1.02,1.05,1.89,1.82,2.6.77.71,1.76,1.24,2.78,1.6,1.02.36,2.12.54,3.31.54.84,0,1.62-.07,2.33-.19.71-.13,1.33-.27,1.87-.44.54-.17.9-.35,1.26-.54.36-.19.62-.33.79-.44l-1.33-2.53c-.13.06-.32.16-.59.28-.26.13-.58.25-.95.38-.37.12-.79.23-1.25.32-.46.08-.97.12-1.52.12-1.62,0-2.87-.33-3.75-.99-.73-.55-1.21-1.25-1.45-2.09-.14-.4-.26-.92-.3-1.53-.03-.59.08-1.08.11-1.46h0c.02-.61.14-1.21.36-1.8.22-.59.53-1.11.93-1.57.4-.45.9-.82,1.49-1.09.59-.27,1.28-.41,2.06-.41.95,0,1.75.2,2.39.6.64.4.96,1,.96,1.8,0,.32-.06.62-.19.92-.13.3-.39.56-.79.79-.4.23-.96.42-1.68.57-.72.15-1.75.22-2.91.22h-.9c-.45.33-.93.92-.89,1.89,0,.23.04.42.08.58.11,0,.23,0,.34.01.37.01.76.02,1.19.02,1.81,0,3.31-.12,4.5-.36" style="fill: #fff;"/>
  <path d="m88.35,34.68c0-.6.17-1.04.52-1.31.34-.27.82-.4,1.42-.4.39,0,.75.05,1.08.15.33.1.55.17.66.21v4.23h4.68c.71,0,1.21.15,1.5.44.29.29.43.71.43,1.27,0,.37-.05.7-.16,1.02-.11.31-.19.53-.26.66h-6.19l-.09,7.19c0,.56.08,1.02.23,1.37.15.36.36.64.63.86.27.21.58.36.94.45.36.08.73.13,1.11.13.62,0,1.2-.1,1.74-.29.54-.2.92-.38,1.16-.55l1.48,2.45c-.17.13-.41.29-.73.48-.31.19-.6.38-1.06.55-.45.17-.96.32-1.52.44-.56.12-1.17.18-1.84.18-1.89,0-3.41-.49-4.38-1.47-.97-.98-1.45-2.26-1.45-3.85l.09-14.2Z" style="fill: #fff;"/>
  <path d="m100.46,43.33c.09-1.98.69-3.51,1.91-4.6,1.22-1.09,2.9-1.63,5.05-1.63,1.35,0,2.46.19,3.31.57.85.38,1.27.95,1.27,1.72,0,.37-.1.72-.31,1.07-.2.34-.37.56-.5.64-.37-.17-.82-.33-1.36-.48-.54-.15-1.15-.23-1.84-.23-2.52,0-3.77,1.33-3.86,4v9.36h-3.68v-10.42Z" style="fill: #fff;"/>
  <path d="m113.18,39.26c0-.6.17-1.04.52-1.31.34-.27.83-.4,1.45-.4.39,0,.74.05,1.07.15.32.1.53.17.64.21l-.09,8.49c0,1.46.34,2.58,1.03,3.34.69.76,1.74,1.14,3.16,1.14s2.47-.38,3.16-1.14c.69-.76,1.03-1.88,1.03-3.34l.09-7.13c0-.6.17-1.04.52-1.31.34-.27.82-.4,1.42-.4.41,0,.77.05,1.1.15.32.1.54.17.65.21l-.09,9.29c0,1.1-.19,2.08-.57,2.95-.38.87-.92,1.61-1.61,2.21-.7.6-1.44,1.06-2.41,1.37-.97.31-2.03.47-3.19.47s-2.23-.16-3.2-.47c-.97-.31-1.88-.77-2.57-1.37-.69-.6-1.23-1.34-1.61-2.21-.39-.87-.58-1.85-.58-2.95l.09-7.94Z" style="fill: #fff;"/>
  <path d="m131.28,49.78c.15.11.42.25.81.42.39.17.86.35,1.44.53.57.18,1.22.34,1.95.47.73.13,1.53.19,2.39.19,1.12,0,2.03-.15,2.74-.44.71-.29,1.06-.79,1.06-1.5,0-.6-.22-1.06-.68-1.37-.45-.31-1.26-.53-2.42-.66l-2.52-.29c-.86-.09-1.65-.24-2.37-.47-.72-.23-1.34-.53-1.85-.92-.52-.39-.83-.87-1.12-1.44-.29-.57-.44-1.25-.44-2.05,0-.69.14-1.34.41-1.95.27-.61.7-1.16,1.29-1.63.59-.47,1.35-.84,2.29-1.11.94-.27,2.08-.4,3.41-.4,2.24,0,3.97.25,5.21.74,1.24.49,1.86,1.14,1.86,1.93,0,.26-.05.48-.15.68-.1.19-.21.37-.32.52-.12.15-.24.27-.37.37-.13.1-.23.16-.29.18-.09-.09-.27-.22-.56-.4-.29-.18-.68-.36-1.18-.55-.5-.18-1.09-.34-1.77-.48-.69-.14-1.48-.21-2.39-.21-2.5,0-3.74.66-3.74,1.97,0,.56.24.98.71,1.27.47.29,1.15.49,2.03.6l3.28.42c1.78.24,3.08.73,4.06,1.47.99.74,1.48,1.83,1.48,3.27,0,1.61-.64,2.9-1.92,3.87-1.28.97-3.04,1.45-5.45,1.45-1.16,0-2.22-.08-3.16-.26-.95-.17-1.86-.37-2.56-.6-.7-.23-1.26-.45-1.69-.66-.43-.21-.71-.38-.84-.48l1.39-2.48Z" style="fill: #fff;"/>
  <path d="m147.08,34.74c0-.6.17-1.04.52-1.31.34-.27.82-.4,1.42-.4.39,0,.75.05,1.08.15.33.09.55.17.66.21v4.23h4.68c.71,0,1.21.15,1.5.44.29.29.44.71.44,1.27,0,.37-.05.71-.16,1.02-.11.31-.19.53-.26.66h-6.2l-.09,7.19c0,.56.07,1.02.23,1.37.15.35.36.64.63.85.27.21.58.36.94.45.35.09.73.13,1.11.13.62,0,1.2-.1,1.74-.29.54-.2,1.01-.38,1.25-.55l1.48,2.45c-.17.13-.41.29-.73.48-.31.19-.69.38-1.15.55s-.96.32-1.52.43c-.56.12-1.17.18-1.84.18-1.89,0-3.41-.49-4.38-1.47-.97-.98-1.45-2.26-1.45-3.86l.09-14.2Z" style="fill: #fff;"/>
  <path d="m60.16,65.07c0-.12.02-.24.07-.34.05-.11.11-.2.19-.28.08-.08.18-.14.29-.19.11-.05.23-.07.35-.07.24,0,.45.09.62.26.17.17.26.38.26.62,0,.12-.02.24-.07.35-.05.11-.11.21-.19.29-.08.08-.17.15-.28.2-.11.05-.22.07-.34.07-.25,0-.46-.09-.63-.27-.18-.18-.26-.39-.26-.64" style="fill: #fff;"/>
  <path d="m94.47,65.13c0-.12.02-.24.07-.34.05-.11.11-.2.19-.28.08-.08.18-.14.29-.19.11-.04.23-.07.35-.07.24,0,.45.09.62.26s.26.38.26.63c0,.12-.02.24-.07.35-.05.11-.11.21-.19.29-.08.08-.17.14-.28.2-.11.05-.22.07-.34.07-.25,0-.46-.09-.63-.27-.18-.18-.26-.39-.26-.64" style="fill: #fff;"/>
  <path d="m25.1,68.44c-.09.02-.23.04-.43.06-.19.02-.42.05-.68.07-.26.02-.55.04-.88.06-.32.02-.66.03-1.01.03-.7,0-1.28-.06-1.72-.18-.45-.12-.8-.28-1.05-.49-.26-.2-.43-.44-.53-.7-.09-.27-.14-.54-.14-.82,0-.37.06-.69.17-.97.11-.28.3-.51.55-.7.26-.19.59-.33,1-.43.41-.09.92-.14,1.51-.14.34,0,.66.01.97.03.31.02.54.04.69.06,0-.31-.05-.58-.15-.78-.1-.21-.25-.37-.43-.49-.18-.12-.4-.2-.65-.24s-.53-.07-.84-.07c-.51,0-.93.06-1.24.18-.31.12-.51.22-.62.3-.05-.04-.13-.13-.22-.26-.1-.13-.14-.28-.14-.46,0-.13.03-.25.1-.37.07-.12.19-.23.36-.32.17-.09.4-.17.69-.22.29-.05.65-.08,1.09-.08.53,0,1.01.05,1.45.15.44.1.81.27,1.13.49.32.23.56.52.74.89.18.37.26.82.26,1.34v4.06Zm-1.52-3c-.09-.02-.26-.04-.51-.08-.25-.04-.62-.05-1.11-.05-.61,0-1.06.09-1.34.28-.28.18-.42.47-.42.87,0,.16.03.31.09.45.06.14.16.25.3.34.14.1.34.17.59.22.25.05.55.07.92.07.41,0,.74-.02.99-.05.24-.03.4-.05.49-.07v-1.97Z" style="fill: #fff;"/>
  <path d="m32.56,67.98c-.11.07-.24.15-.4.22-.16.08-.34.15-.54.22-.2.07-.43.12-.69.17-.26.04-.55.07-.87.07-.5,0-.98-.08-1.42-.23-.44-.15-.83-.38-1.16-.68-.33-.3-.6-.67-.79-1.11-.19-.44-.29-.95-.29-1.53s.09-1.09.28-1.54c.19-.45.45-.83.78-1.14.33-.3.73-.54,1.18-.69.46-.16.94-.24,1.47-.24.44,0,.82.04,1.13.11.31.07.56.16.76.27.19.11.33.23.42.36.09.14.13.27.13.4,0,.18-.06.35-.18.5-.12.15-.24.27-.34.35-.16-.15-.4-.3-.7-.44-.31-.14-.68-.21-1.13-.21-.31,0-.59.05-.86.14-.27.09-.49.23-.69.41-.19.18-.35.41-.46.69-.11.28-.17.6-.17.98s.06.73.18,1.01c.12.28.28.51.49.69.21.18.45.31.72.4.27.09.56.13.88.13.45,0,.81-.06,1.09-.18s.46-.21.56-.28l.65,1.15Z" style="fill: #fff;"/>
  <path d="m33.48,60.49c0-.25.07-.43.22-.55.14-.11.34-.17.59-.17.16,0,.31.02.45.06.14.04.23.07.28.09v1.77h1.96c.3,0,.51.06.63.18.12.12.18.3.18.53,0,.15-.02.3-.07.43-.05.13-.08.22-.11.28h-2.59v3.01c0,.23.03.42.09.57.06.15.15.27.26.36.11.09.24.15.39.19.15.04.3.05.46.05.26,0,.5-.04.73-.12.22-.08.39-.16.49-.23l.62,1.02c-.07.05-.17.12-.3.2-.13.08-.29.16-.48.23-.19.07-.4.13-.63.18-.23.05-.49.08-.77.08-.79,0-1.39-.2-1.79-.61-.4-.41-.61-.95-.61-1.61v-5.94Z" style="fill: #fff;"/>
  <path d="m39.7,58.66c.26,0,.48.09.66.27.18.18.27.4.27.66s-.09.48-.27.66c-.18.18-.4.27-.66.27s-.48-.09-.66-.27c-.18-.18-.27-.4-.27-.66s.09-.48.27-.66c.18-.18.4-.27.66-.27m-.77,3.75c0-.25.07-.43.22-.55.14-.11.35-.17.61-.17.16,0,.31.02.44.06.14.04.23.07.27.09v6.63h-1.54v-6.06Z" style="fill: #fff;"/>
  <path d="m45.56,61.51c.52,0,1.01.09,1.46.27.45.18.85.43,1.18.75.33.32.59.7.78,1.13.19.44.28.91.28,1.42s-.1.97-.28,1.41c-.19.44-.45.81-.78,1.13-.33.32-.73.57-1.18.76-.45.18-.94.28-1.46.28s-1.01-.09-1.46-.28c-.45-.18-.85-.44-1.18-.76-.33-.32-.59-.7-.78-1.13-.19-.44-.28-.91-.28-1.41s.1-.99.28-1.42c.19-.44.45-.81.78-1.13.33-.32.73-.57,1.18-.75.45-.18.94-.27,1.46-.27m0,5.79c.31,0,.59-.06.85-.17.26-.11.48-.27.67-.47.18-.2.33-.44.43-.7.1-.27.15-.55.15-.87s-.05-.61-.15-.88c-.1-.27-.25-.51-.43-.71-.18-.2-.41-.35-.67-.47-.26-.11-.54-.17-.85-.17s-.6.06-.86.17c-.26.11-.48.27-.66.47-.18.2-.33.43-.43.71-.1.28-.15.57-.15.88s.05.6.15.87c.1.27.25.5.43.7.18.2.4.36.66.47.26.11.54.17.86.17" style="fill: #fff;"/>
  <path d="m50.56,64.38c0-.45.08-.85.25-1.21.17-.36.4-.66.69-.9.29-.25.64-.44,1.04-.57.4-.13.84-.2,1.32-.2s.92.07,1.32.2c.4.13.75.32,1.04.57.29.25.52.55.68.9.16.36.24.76.24,1.21v4.09h-1.54v-3.7c0-.61-.15-1.08-.45-1.4-.3-.32-.73-.48-1.31-.48s-1.02.16-1.32.48c-.29.32-.44.78-.44,1.4v3.7h-1.54v-4.09Z" style="fill: #fff;"/>
  <path d="m65.49,59.24c0-.24.07-.42.22-.54.14-.12.35-.18.61-.18.16,0,.31.02.45.06.13.04.22.07.27.09v3.72c.18-.22.45-.42.81-.61.36-.19.83-.29,1.4-.29.42,0,.79.06,1.14.18.35.12.65.29.9.52.25.23.45.52.58.86.13.34.2.74.2,1.2v4.22h-1.54v-3.76c0-.59-.12-1.04-.37-1.35-.25-.3-.67-.46-1.27-.46s-1.07.18-1.38.53c-.31.36-.47.82-.47,1.41v3.62h-1.54v-9.23Z" style="fill: #fff;"/>
  <path d="m79.66,67.97c-.07.05-.19.11-.34.19-.15.08-.34.16-.57.23-.23.07-.49.14-.8.19-.3.05-.63.08-.99.08-.5,0-.98-.08-1.41-.23-.44-.15-.82-.38-1.15-.68-.33-.3-.59-.67-.78-1.11-.19-.44-.28-.94-.28-1.51s.09-1.03.28-1.48c.18-.45.44-.83.77-1.15.33-.32.71-.57,1.16-.74.45-.18.93-.26,1.46-.26.47,0,.88.06,1.24.18.36.12.66.28.91.48.25.2.43.44.56.71.13.27.19.56.19.86s-.06.6-.17.86c-.12.26-.32.48-.62.66-.3.18-.7.33-1.2.43-.51.1-1.14.16-1.92.16-.18,0-.35,0-.51,0-.16,0-.33-.01-.51-.02.07.46.3.83.67,1.11.37.28.91.42,1.6.42.23,0,.45-.02.65-.05.2-.04.38-.08.53-.14.16-.05.29-.11.4-.16.11-.05.2-.09.25-.12l.57,1.08Zm-4.74-3.2c.21,0,.4.01.59.01h.57c.49,0,.9-.03,1.2-.09.3-.06.54-.14.71-.24.17-.1.28-.21.34-.34.05-.12.08-.26.08-.39,0-.34-.14-.6-.41-.77-.27-.17-.61-.26-1.02-.26-.33,0-.62.06-.88.17-.25.12-.46.27-.64.46-.17.2-.3.42-.4.67-.09.25-.15.51-.15.77" style="fill: #fff;"/>
  <path d="m81.13,59.24c0-.24.07-.42.22-.54.14-.12.35-.18.61-.18.16,0,.31.02.45.06.14.04.23.07.27.09v9.8h-1.54v-9.23Z" style="fill: #fff;"/>
  <path d="m84.15,65.39c0-.63.09-1.19.27-1.67s.43-.89.76-1.21c.32-.33.71-.58,1.17-.75.46-.17.97-.26,1.53-.26.51,0,.98.09,1.42.27.43.18.81.43,1.13.74.32.32.57.69.75,1.13.18.44.27.92.27,1.43s-.09,1-.26,1.44c-.18.44-.42.81-.73,1.13-.31.32-.67.56-1.09.74-.42.17-.88.26-1.37.26s-.97-.1-1.36-.3c-.4-.2-.71-.44-.93-.73v3.55h-1.54v-5.78Zm3.62,1.89c.31,0,.59-.06.84-.17.26-.11.48-.27.66-.47.18-.2.33-.43.43-.7.1-.27.15-.56.15-.88s-.05-.59-.15-.86c-.1-.27-.24-.49-.43-.69-.18-.19-.4-.35-.66-.46-.26-.11-.54-.17-.84-.17s-.59.05-.84.16c-.26.11-.48.26-.66.45-.18.19-.33.42-.43.68-.1.27-.15.56-.15.88s.05.61.15.88c.1.27.25.5.42.7.18.2.4.35.65.47.26.11.54.17.86.17" style="fill: #fff;"/>
  <path d="m105.63,68.44c-.09.02-.23.04-.43.06-.19.02-.42.05-.68.07-.26.02-.55.04-.88.06-.33.02-.66.03-1.01.03-.7,0-1.27-.06-1.72-.18-.45-.12-.8-.28-1.05-.49-.26-.2-.43-.44-.53-.7s-.14-.54-.14-.82c0-.37.05-.69.17-.97.11-.28.3-.51.55-.7.26-.19.59-.33,1-.43.41-.09.92-.14,1.51-.14.34,0,.67.01.97.03.31.02.54.04.69.06,0-.31-.05-.58-.16-.78-.1-.21-.24-.37-.43-.49-.18-.12-.39-.2-.65-.24-.25-.04-.53-.07-.84-.07-.51,0-.93.06-1.24.18s-.51.22-.61.3c-.05-.04-.13-.13-.22-.26s-.14-.28-.14-.46c0-.13.03-.25.1-.37.07-.12.19-.23.36-.32.17-.09.4-.17.69-.22.29-.05.65-.08,1.09-.08.53,0,1.01.05,1.45.15.44.1.81.27,1.13.49.32.23.56.52.74.89.18.37.26.82.26,1.34v4.06Zm-1.52-3c-.09-.02-.26-.04-.51-.08-.25-.04-.62-.05-1.11-.05-.61,0-1.06.09-1.34.28-.28.18-.42.47-.42.87,0,.16.03.31.09.45.06.14.16.25.3.34.14.1.34.17.59.22.25.05.55.07.92.07.41,0,.74-.02.98-.05.24-.03.4-.05.49-.07v-1.97Z" style="fill: #fff;"/>
  <path d="m112.7,59.24c0-.24.07-.42.21-.54.14-.12.34-.18.61-.18.16,0,.31.02.45.06.14.04.23.07.27.09v6.09c0,.66-.09,1.23-.28,1.72-.18.48-.44.89-.76,1.21-.32.33-.71.57-1.15.73-.44.16-.93.24-1.45.24s-1.02-.09-1.47-.27c-.45-.18-.83-.43-1.16-.74-.33-.32-.58-.69-.76-1.13s-.28-.92-.28-1.43.09-1,.26-1.44c.18-.44.42-.81.73-1.13.31-.32.68-.57,1.09-.74.42-.18.88-.26,1.37-.26.52,0,.98.1,1.38.3.4.2.71.45.93.74v-3.31Zm0,5.84c0-.31-.05-.59-.16-.86-.1-.27-.24-.5-.42-.7-.18-.2-.4-.35-.65-.46-.26-.11-.54-.17-.84-.17s-.6.06-.85.17c-.25.11-.47.27-.66.46-.18.19-.33.42-.42.7-.1.27-.15.56-.15.88s.05.61.15.87c.1.27.24.49.42.69.18.19.4.35.66.46.25.11.53.17.85.17s.59-.05.84-.16c.26-.11.48-.26.65-.45.18-.19.32-.42.42-.69.1-.27.16-.57.16-.89" style="fill: #fff;"/>
  <path d="m117.81,68.47c-.42-.78-.81-1.52-1.16-2.21-.35-.69-.65-1.3-.9-1.84-.25-.54-.44-.99-.58-1.35-.14-.36-.2-.59-.2-.7,0-.19.06-.35.19-.48.13-.13.32-.2.58-.2.19,0,.35.02.47.05.12.04.19.06.21.08.18.49.37.98.58,1.48.21.5.41.97.61,1.42.2.45.39.85.57,1.21.18.36.32.66.44.9.17-.32.36-.71.55-1.15.2-.44.39-.88.57-1.31.18-.43.35-.82.5-1.18.15-.35.25-.61.32-.78.09-.22.2-.4.32-.53.13-.13.32-.2.59-.2.25,0,.46.04.61.13.16.09.25.14.26.16-.05.19-.15.45-.28.78-.13.33-.29.69-.47,1.1-.18.4-.38.83-.59,1.27-.21.44-.42.87-.63,1.29-.21.42-.4.81-.59,1.17-.18.36-.34.66-.46.89h-1.51Z" style="fill: #fff;"/>
  <path d="m124.07,58.66c.26,0,.48.09.66.27.18.18.27.4.27.66s-.09.48-.27.66c-.18.18-.4.27-.66.27s-.48-.09-.66-.27c-.18-.18-.27-.4-.27-.66s.09-.48.27-.66c.18-.18.4-.27.66-.27m-.77,3.75c0-.25.07-.43.21-.55.14-.11.35-.17.61-.17.16,0,.31.02.45.06.14.04.23.07.27.09v6.63h-1.54v-6.06Z" style="fill: #fff;"/>
  <path d="m132.37,67.98c-.11.07-.24.15-.4.22-.16.08-.34.15-.54.22-.2.07-.43.12-.69.17-.26.04-.55.07-.87.07-.5,0-.98-.08-1.42-.23-.44-.15-.83-.38-1.16-.68-.33-.3-.6-.67-.79-1.11-.19-.44-.29-.95-.29-1.53s.1-1.09.28-1.54c.19-.45.45-.83.78-1.14.33-.3.73-.54,1.18-.69.45-.16.94-.24,1.46-.24.44,0,.82.04,1.13.11.31.07.56.16.75.27.19.11.33.23.42.36.08.14.13.27.13.4,0,.18-.06.35-.18.5-.12.15-.24.27-.34.35-.16-.15-.4-.3-.7-.44-.31-.14-.68-.21-1.13-.21-.31,0-.59.05-.86.14-.26.09-.49.23-.69.41-.19.18-.35.41-.46.69-.11.28-.17.6-.17.98s.06.73.18,1.01c.12.28.28.51.49.69.21.18.44.31.71.4.27.09.56.13.88.13.45,0,.81-.06,1.09-.18s.46-.21.56-.28l.65,1.15Z" style="fill: #fff;"/>
  <path d="m139.08,67.97c-.07.05-.19.11-.34.19-.15.08-.34.16-.57.23-.23.07-.49.14-.8.19-.3.05-.63.08-.99.08-.5,0-.97-.08-1.41-.23-.44-.15-.82-.38-1.15-.68-.33-.3-.59-.67-.78-1.11-.19-.44-.28-.94-.28-1.51s.09-1.03.28-1.48c.18-.45.44-.83.77-1.15.33-.32.72-.57,1.16-.74.45-.18.93-.26,1.46-.26.47,0,.88.06,1.24.18.36.12.66.28.91.48.25.2.43.44.56.71.13.27.19.56.19.86s-.06.6-.17.86c-.12.26-.32.48-.62.66-.3.18-.7.33-1.2.43s-1.14.16-1.92.16c-.18,0-.35,0-.5,0-.16,0-.33-.01-.51-.02.07.46.3.83.67,1.11.37.28.91.42,1.6.42.23,0,.45-.02.65-.05.2-.04.38-.08.53-.14.16-.05.29-.11.4-.16.11-.05.2-.09.25-.12l.57,1.08Zm-4.74-3.2c.21,0,.4.01.59.01h.57c.5,0,.9-.03,1.2-.09.31-.06.54-.14.72-.24.17-.1.28-.21.34-.34.05-.12.08-.26.08-.39,0-.34-.14-.6-.41-.77-.28-.17-.61-.26-1.02-.26-.33,0-.62.06-.88.17-.25.12-.46.27-.64.46-.17.2-.3.42-.4.67-.1.25-.15.51-.15.77" style="fill: #fff;"/>
</svg>