<?xml version="1.0" encoding="UTF-8"?>
<svg id="man" xmlns="http://www.w3.org/2000/svg" width="300" height="265.3" viewBox="0 0 300 265.3">
  <path d="m157.32,165.29c0,3.93-2.16,7.12-4.82,7.12s-4.82-3.19-4.82-7.12,2.16-7.12,4.82-7.12,4.82,3.19,4.82,7.12Z" style="fill: #489ab4;"/>
  <path d="m141.36,177.11v32.93s3.61,2.07,4.85,2.59c1.24.52,6.66-.39,6.66-.39v-29.3l-11.51-5.83Z" style="fill: #489ab4;"/>
  <path d="m150.5,166.78s-7.06,2.94-8.19,3.59c-1.13.65-2.14,2.98-2.37,4.28-.23,1.3-.46,15.95-.46,15.95l2.84,8.98,9.24-24.49-1.07-8.3Z" style="fill: #489ab4;"/>
  <rect x="147.27" y="169.46" width="10.5" height="33.45" style="fill: #489ab4;"/>
  <polygon points="145.13 209.13 145.13 235.32 153.14 235.32 153.14 200.31 146.26 199.93 145.13 209.13" style="fill: #489ab4;"/>
  <path d="m145.58,233.89s-1.47.91-1.92,1.94c-.45,1.04.45,2.12,4.06,1.87,3.57-.59,5.42-.92,5.42-.92l-.11-10.15-7.45,7.26Z" style="fill: #489ab4;"/>
  <path d="m163,177.11v32.93s-3.61,2.07-4.85,2.59c-1.24.52-6.66-.39-6.66-.39v-29.3l11.51-5.83Z" style="fill: #489ab4;"/>
  <path d="m154.53,167.19s6.64,2.53,7.77,3.18c1.13.65,2.14,2.98,2.37,4.28.23,1.3,0,15.95,0,15.95l-2.14,7.26-8.24-22.69.24-7.98Z" style="fill: #489ab4;"/>
  <polygon points="159.48 209.13 159.48 235.32 151.46 235.32 151.46 200.31 158.35 199.93 159.48 209.13" style="fill: #489ab4;"/>
  <path d="m159.02,233.89s1.47.91,1.92,1.94c.45,1.04-.45,2.12-4.06,1.87-3.26-.84-5.42-.71-5.42-.71l.11-10.35,7.45,7.26Z" style="fill: #489ab4;"/>
</svg>