<?xml version="1.0" encoding="UTF-8"?>
<svg id="rain_main" xmlns="http://www.w3.org/2000/svg" width="300" height="265.3" viewBox="0 0 300 265.3">
  <path d="m119.21,42.3v-12.65c0-.1.07-.18.15-.18h0c.08,0,.15.08.15.18h0v12.65c0,.1-.07.18-.15.18h0c-.08,0-.15-.08-.15-.18h0Z" style="fill: #fff;"/>
  <path d="m150.55,84.59V30.82c0-.1.07-.18.15-.18h0c.08,0,.15.08.15.18h0v53.77c0,.1-.07.18-.15.18h0c-.08,0-.15-.08-.15-.18h0Z" style="fill: #fff;"/>
  <path d="m165.29,202.96v-70.2c0-.1.07-.18.15-.18h0c.08,0,.15.08.15.18h0v70.2c0,.1-.07.18-.15.18h0c-.08,0-.15-.08-.15-.18h0Z" style="fill: #fff;"/>
  <path d="m169.9,155.69V54.86c0-.1.07-.18.15-.18h0c.08,0,.15.08.15.18h0v100.83c0,.1-.07.18-.15.18h0c-.08,0-.15-.08-.15-.18h0Z" style="fill: #fff;"/>
  <path d="m184.03,159.74v-75.58c0-.1.07-.18.15-.18h0c.08,0,.15.08.15.18h0v75.58c0,.1-.07.18-.15.18h0c-.08,0-.15-.08-.15-.18h0Z" style="fill: #fff;"/>
  <path d="m153.77,226.38v-70.2c0-.1.07-.18.15-.18h0c.08,0,.15.08.15.18h0v70.2c0,.1-.07.18-.15.18h0c-.08,0-.15-.08-.15-.18h0Z" style="fill: #fff;"/>
  <path d="m122.44,166.1v-75.58c0-.1.07-.18.15-.18h0c.08,0,.15.08.15.18h0v75.58c0,.1-.07.18-.15.18h0c-.09,0-.15-.08-.15-.18h0Z" style="fill: #fff;"/>
  <path d="m176.35,86.9V24.32c0-.1.07-.18.15-.18h0c.08,0,.15.08.15.18h0v62.58c0,.1-.07.18-.15.18h0c-.08,0-.15-.08-.15-.18h0Z" style="fill: #fff;"/>
  <path d="m131.09,34.88v-2.53c0-.1.07-.18.15-.18h0c.09,0,.15.08.15.18h0v2.53c0,.1-.07.18-.15.18h0c-.08,0-.15-.08-.15-.18h0Z" style="fill: #fff;"/>
  <path d="m138.92,94.42V20.22c0-.1.07-.18.15-.18h0c.08,0,.15.08.15.18h0v74.2c0,.1-.07.18-.15.18h0c-.09,0-.15-.08-.15-.18h0Z" style="fill: #fff;"/>
  <path d="m129.25,196.52v-75.42c0-.1.07-.18.15-.18h0c.08,0,.15.08.15.18h0v75.42c0,.1-.07.18-.15.18h0c-.08,0-.15-.08-.15-.18h0Z" style="fill: #fff;"/>
  <path d="m119.11,185.25v-75.42c0-.1.07-.18.15-.18h0c.08,0,.15.08.15.18h0v75.42c0,.1-.07.18-.15.18h0c-.09,0-.15-.08-.15-.18h0Z" style="fill: #fff;"/>
  <path d="m141.69,201.35v-55.02c0-.1.07-.18.15-.18h0c.09,0,.15.08.15.18h0v55.02c0,.1-.07.18-.15.18h0c-.08,0-.15-.08-.15-.18h0Z" style="fill: #fff;"/>
  <path d="m116.75,198.57V32.47c0-.1.07-.18.15-.18h0c.09,0,.15.08.15.18h0v166.1c0,.1-.07.18-.15.18h0c-.08,0-.15-.08-.15-.18h0Z" style="fill: #fff;"/>
  <path d="m156.65,179.96v-104.93c0-.1.07-.18.15-.18h0c.08,0,.15.08.15.18h0v104.93c0,.1-.07.18-.15.18h0c-.09,0-.15-.08-.15-.18h0Z" style="fill: #fff;"/>
  <path d="m186.29,96.97V28.07c0-.1.07-.18.15-.18h0c.08,0,.15.08.15.18h0v68.89c0,.1-.07.18-.15.18h0c-.09,0-.15-.08-.15-.18h0Z" style="fill: #fff;"/>
  <path d="m166.45,109.36V31.91c0-.1.07-.18.15-.18h0c.08,0,.15.08.15.18h0v77.45c0,.1-.07.18-.15.18h0c-.09,0-.15-.08-.15-.18h0Z" style="fill: #fff;"/>
  <path d="m135.12,182.77v-112.98c0-.1.07-.18.15-.18h0c.08,0,.15.08.15.18h0v112.98c0,.1-.07.18-.15.18h0c-.09,0-.15-.08-.15-.18h0Z" style="fill: #fff;"/>
  <path d="m179.35,223.82V35.46c0-.1.07-.18.15-.18h0c.08,0,.15.08.15.18h0v188.36c0,.1-.07.18-.15.18h0c-.08,0-.15-.08-.15-.18h0Z" style="fill: #fff;"/>
  <path d="m146.5,143.17V30.19c0-.1.07-.18.15-.18h0c.08,0,.15.08.15.18h0v112.98c0,.1-.07.18-.15.18h0c-.08,0-.15-.08-.15-.18h0Z" style="fill: #fff;"/>
  <path d="m124.91,21.01v8.37c0-.1.07-.18.15-.18h0c.08,0,.15.08.15.18h0v-8.37c0,.1-.07.18-.15.18h0c-.09,0-.15-.08-.15-.18h0Z" style="fill: #fff;"/>
  <path d="m130.16,100.54v-24.63c0-.1.07-.18.15-.18h0c.08,0,.15.08.15.18h0v24.63c0,.1-.07.18-.15.18h0c-.08,0-.15-.08-.15-.18h0Z" style="fill: #fff;"/>
  <path d="m149.7,222.82v-82.63c0-.1.07-.18.15-.18h0c.08,0,.15.08.15.18h0v82.63c0,.1-.07.18-.15.18h0c-.08,0-.15-.08-.15-.18h0Z" style="fill: #fff;"/>
  <path d="m173.05,127.21v-50.41c0-.1.07-.18.15-.18h0c.08,0,.15.08.15.18h0v50.41c0,.1-.07.18-.15.18h0c-.08,0-.15-.08-.15-.18h0Z" style="fill: #fff;"/>
  <path d="m134.92,63.83V18.95c0-.1.07-.18.15-.18h0c.09,0,.15.08.15.18h0v44.88c0,.1-.07.18-.15.18h0c-.08,0-.15-.08-.15-.18h0Z" style="fill: #fff;"/>
  <path d="m155.66,50.67V18.2c0-.1.07-.18.15-.18h0c.08,0,.15.08.15.18h0v32.47c0,.1-.07.18-.15.18h0c-.08,0-.15-.08-.15-.18h0Z" style="fill: #fff;"/>
  <path d="m172.83,47.6v-24.63c0-.1.07-.18.15-.18h0c.08,0,.15.08.15.18h0v24.63c0,.1-.07.18-.15.18h0c-.09,0-.15-.08-.15-.18h0Z" style="fill: #fff;"/>
  <path d="m161.31,204.04v-80.49c0-.1.07-.18.15-.18h0c.09,0,.15.08.15.18h0v80.49c0,.1-.07.18-.15.18h0c-.08,0-.15-.08-.15-.18h0Z" style="fill: #fff;"/>
  <path d="m163.16,27.36v7.34c0-.1.07-.18.15-.18h0c.08,0,.15.08.15.18h0v-7.34c0,.1-.07.18-.15.18h0c-.08,0-.15-.08-.15-.18h0Z" style="fill: #fff;"/>
  <path d="m142.42,26.79v2.37c0-.1.07-.18.15-.18h0c.09,0,.15.08.15.18h0v-2.37c0,.1-.07.18-.15.18h0c-.08,0-.15-.08-.15-.18h0Z" style="fill: #fff;"/>
  <path d="m122.15,83.61v-44.77c0-.1.07-.18.15-.18h0c.08,0,.15.08.15.18h0v44.77c0,.1-.07.18-.15.18h0c-.08,0-.15-.08-.15-.18h0Z" style="fill: #fff;"/>
  <path d="m138.13,214.85v-24.63c0-.1.07-.18.15-.18h0c.08,0,.15.08.15.18h0v24.63c0,.1-.07.18-.15.18h0c-.09,0-.15-.08-.15-.18h0Z" style="fill: #fff;"/>
  <path d="m158.87,211.14v-33.32c0-.1.07-.18.15-.18h0c.08,0,.15.08.15.18h0v33.32c0,.1-.07.18-.15.18h0c-.09,0-.15-.08-.15-.18h0Z" style="fill: #fff;"/>
  <path d="m122,210.41v-33.32c0-.1.07-.18.15-.18h0c.08,0,.15.08.15.18h0v33.32c0,.1-.07.18-.15.18h0c-.09,0-.15-.08-.15-.18h0Z" style="fill: #fff;"/>
  <path d="m176.22,201.28v-41.17c0-.1.07-.18.15-.18h0c.09,0,.15.08.15.18h0v41.17c0,.1-.07.18-.15.18h0c-.08,0-.15-.08-.15-.18h0Z" style="fill: #fff;"/>
  <path d="m169.93,218.98v-53.22c0-.1.07-.18.15-.18h0c.08,0,.15.08.15.18h0v53.22c0,.1-.07.18-.15.18h0c-.08,0-.15-.08-.15-.18h0Z" style="fill: #fff;"/>
  <path d="m126.45,215.41v-53.6c0-.1.07-.18.15-.18h0c.08,0,.15.08.15.18h0v53.6c0,.1-.07.18-.15.18h0c-.08,0-.15-.08-.15-.18h0Z" style="fill: #fff;"/>
  <path d="m143.85,154.75v-42.79c0-.1.07-.18.15-.18h0c.09,0,.15.08.15.18h0v42.79c0,.1-.07.18-.15.18h0c-.09,0-.15-.08-.15-.18h0Z" style="fill: #fff;"/>
  <path d="m152.91,123.66v-42.79c0-.1.07-.18.15-.18h0c.08,0,.15.08.15.18h0v42.79c0,.1-.07.18-.15.18h0c-.08,0-.15-.08-.15-.18h0Z" style="fill: #fff;"/>
  <path d="m174.59,165.22v-24.63c0-.1.07-.18.15-.18h0c.08,0,.15.08.15.18h0v24.63c0,.1-.07.18-.15.18h0c-.08,0-.15-.08-.15-.18h0Z" style="fill: #fff;"/>
  <path d="m181.98,208.59v-56.04c0-.1.07-.18.15-.18h0c.08,0,.15.08.15.18h0v56.04c0,.1-.07.18-.15.18h0c-.08,0-.15-.08-.15-.18h0Z" style="fill: #fff;"/>
  <path d="m160.85,93.26V31.41c0-.1.07-.18.15-.18h0c.08,0,.15.08.15.18h0v61.85c0,.1-.07.18-.15.18h0c-.09,0-.15-.08-.15-.18h0Z" style="fill: #fff;"/>
  <path d="m179.96,22.01v6.95c0-.1.07-.18.15-.18h0c.08,0,.15.08.15.18h0v-6.95c0,.1-.07.18-.15.18h0c-.08,0-.15-.08-.15-.18h0Z" style="fill: #fff;"/>
  <path d="m183.05,59.04v-31.92c0-.1.07-.18.15-.18h0c.08,0,.15.08.15.18h0v31.92c0,.1-.07.18-.15.18h0c-.08,0-.15-.08-.15-.18h0Z" style="fill: #fff;"/>
  <path d="m126.87,81.7V16.42c0-.1.07-.18.15-.18h0c.08,0,.15.08.15.18h0v65.28c0,.1-.07.18-.15.18h0c-.09,0-.15-.08-.15-.18h0Z" style="fill: #fff;"/>
  <path d="m129.2,235.19s-.91-1.63-2.46-3.39h0c-1.54-1.77-3.71-3.66-6.2-4.19h0c-.08-.02-.14-.11-.12-.21h0c.02-.1.1-.17.18-.15h0c4.33.95,7.62,5.75,8.57,7.28h0v-30.77c0-.1.07-.18.15-.18h0c.08,0,.15.08.15.18h0v31.94l-.28-.5h0Z" style="fill: #fff;"/>
  <path d="m141.74,234.26v-25.8c0-.1.07-.18.15-.18h0c.09,0,.15.08.15.18h0v24.78c.55-1.66,1.86-5.14,3.83-7.71h0c.06-.07.15-.08.22-.01h0c.06.07.07.18,0,.26h0c-1.31,1.7-2.33,3.83-3.02,5.55h0c-.69,1.71-1.05,2.99-1.05,2.99h0l-.3-.06h0Z" style="fill: #fff;"/>
  <path d="m159.25,230.54h0c-.05-.08-.04-.19.03-.26h0c.07-.06.16-.05.22.03h0l2.65,4.03,2.51-4.21c.05-.08.14-.1.21-.04h0c.07.06.09.17.04.25h0l-2.75,4.61-2.91-4.42h0Z" style="fill: #fff;"/>
  <path d="m162.03,231.12v-17.77c0-.1.07-.18.15-.18h0c.08,0,.15.08.15.18h0v17.77c0,.1-.07.18-.15.18h0c-.08,0-.15-.08-.15-.18h0Z" style="fill: #fff;"/>
  <path d="m172.9,216.01h0c0-.1.07-.18.15-.18h0c.08,0,.15.08.15.18h0v19.31l2.15-2.8c.06-.07.15-.08.22-.01h0c.06.07.07.18.01.26h0l-2.68,3.5v-20.25h0Z" style="fill: #fff;"/>
  <path d="m186.89,166.5h0c0-.1.07-.18.15-.18h0c.08,0,.15.08.15.18h0v70.56c.86-1.25,3.6-5.06,6.05-6.52h0c.08-.04.17,0,.21.08h0c.04.09,0,.2-.07.24h0c-1.42.84-2.98,2.55-4.18,4.05h0c-1.2,1.5-2.04,2.78-2.04,2.78h0l-.28.42v-71.62h0Z" style="fill: #fff;"/>
  <path d="m116.49,236.3s-1.5-1.71-3.34-3.57h0c-1.83-1.86-4.01-3.86-5.28-4.41h0c-.08-.03-.12-.14-.09-.23h0c.03-.09.12-.14.2-.11h0c2.39,1.04,7.29,6.45,8.47,7.77h0v-24.88c0-.1.07-.18.15-.18h0c.08,0,.15.08.15.18h0v25.73l-.26-.3h0Z" style="fill: #fff;"/>
  <path d="m181.4,234.83s-.54-.5-1.23-1.03h0c-.69-.53-1.53-1.1-2.09-1.23h0c-.08-.02-.14-.12-.12-.22h0c.02-.1.1-.16.18-.14h0c1.02.25,2.59,1.58,3.19,2.11h0v-12.53c0-.1.07-.18.15-.18h0c.08,0,.15.08.15.18h0v13.27l-.25-.23h0Z" style="fill: #fff;"/>
  <path d="m135.75,196.14c0-.1.07-.18.15-.18h0c.09,0,.15.08.15.18h0v37.68l2.87-3.41c.06-.07.16-.07.22,0h0c.06.07.06.19,0,.26h0l-3.4,4.04v-38.56h0Z" style="fill: #fff;"/>
</svg>