<?xml version="1.0" encoding="UTF-8"?>
<svg id="rain_minor" xmlns="http://www.w3.org/2000/svg" width="300" height="265.3" viewBox="0 0 300 265.3">
  <path d="m119.21,42.3v-12.65c0-.1.07-.18.15-.18h0c.08,0,.15.08.15.18h0v12.65c0,.1-.07.18-.15.18h0c-.08,0-.15-.08-.15-.18h0Z" style="fill: #fff;"/>
  <path d="m150.55,84.59V30.82c0-.1.07-.18.15-.18h0c.08,0,.15.08.15.18h0v53.77c0,.1-.07.18-.15.18h0c-.08,0-.15-.08-.15-.18h0Z" style="fill: #fff;"/>
  <path d="m169.9,131.37V54.86c0-.1.07-.18.15-.18h0c.08,0,.15.08.15.18h0v76.51c0,.1-.07.18-.15.18h0c-.08,0-.15-.08-.15-.18h0Z" style="fill: #fff;"/>
  <path d="m184.03,159.74v-75.58c0-.1.07-.18.15-.18h0c.08,0,.15.08.15.18h0v75.58c0,.1-.07.18-.15.18h0c-.08,0-.15-.08-.15-.18h0Z" style="fill: #fff;"/>
  <path d="m122.44,166.1v-75.58c0-.1.07-.18.15-.18h0c.08,0,.15.08.15.18h0v75.58c0,.1-.07.18-.15.18h0c-.09,0-.15-.08-.15-.18h0Z" style="fill: #fff;"/>
  <path d="m176.35,86.9v-48.58c0-.1.07-.18.15-.18h0c.08,0,.15.08.15.18h0v48.58c0,.1-.07.18-.15.18h0c-.08,0-.15-.08-.15-.18h0Z" style="fill: #fff;"/>
  <path d="m131.09,34.88v-2.53c0-.1.07-.18.15-.18h0c.09,0,.15.08.15.18h0v2.53c0,.1-.07.18-.15.18h0c-.08,0-.15-.08-.15-.18h0Z" style="fill: #fff;"/>
  <path d="m138.92,94.42v-54.2c0-.1.07-.18.15-.18h0c.08,0,.15.08.15.18h0v54.2c0,.1-.07.18-.15.18h0c-.09,0-.15-.08-.15-.18h0Z" style="fill: #fff;"/>
  <path d="m129.25,136.23v-15.13c0-.1.07-.18.15-.18h0c.08,0,.15.08.15.18h0v15.13c0,.1-.07.18-.15.18h0c-.08,0-.15-.08-.15-.18h0Z" style="fill: #fff;"/>
  <path d="m119.11,185.25v-75.42c0-.1.07-.18.15-.18h0c.08,0,.15.08.15.18h0v75.42c0,.1-.07.18-.15.18h0c-.09,0-.15-.08-.15-.18h0Z" style="fill: #fff;"/>
  <path d="m116.75,198.57V32.47c0-.1.07-.18.15-.18h0c.09,0,.15.08.15.18h0v166.1c0,.1-.07.18-.15.18h0c-.08,0-.15-.08-.15-.18h0Z" style="fill: #fff;"/>
  <path d="m156.65,127.3v-52.28c0-.1.07-.18.15-.18h0c.08,0,.15.08.15.18h0v52.28c0,.1-.07.09-.15.09v.09c-.09,0-.15-.08-.15-.18h0Z" style="fill: #fff;"/>
  <path d="m186.29,96.97V28.07c0-.1.07-.18.15-.18h0c.08,0,.15.08.15.18h0v68.89c0,.1-.07.18-.15.18h0c-.09,0-.15-.08-.15-.18h0Z" style="fill: #fff;"/>
  <path d="m166.45,109.36V31.91c0-.1.07-.18.15-.18h0c.08,0,.15.08.15.18h0v77.45c0,.1-.07.18-.15.18h0c-.09,0-.15-.08-.15-.18h0Z" style="fill: #fff;"/>
  <path d="m135.12,132.49v-62.7c0-.1.07-.18.15-.18h0c.08,0,.15.08.15.18h0v62.7c0,.1-.07.18-.15.18h0c-.09,0-.15-.08-.15-.18h0Z" style="fill: #fff;"/>
  <path d="m179.35,143.26V35.46c0-.1.07-.18.15-.18h0c.08,0,.15.08.15.18h0v107.81c0,.1-.07.18-.15.18h0c-.08,0-.15-.08-.15-.18h0Z" style="fill: #fff;"/>
  <path d="m146.5,123.84V30.19c0-.1.07-.18.15-.18h0c.08,0,.15.08.15.18h0v112.98c0,.1-.07.18-.15.18h0c-.08,0-.15-.08-.15-.18v-19.33Z" style="fill: #fff;"/>
  <path d="m124.91,48.01v-18.63c0-.1.07-.18.15-.18h0c.08,0,.15.08.15.18h0v18.63c0,.1-.07.18-.15.18h0c-.09,0-.15-.08-.15-.18h0Z" style="fill: #fff;"/>
  <path d="m130.16,100.54v-24.63c0-.1.07-.18.15-.18h0c.08,0,.15.08.15.18h0v24.63c0,.1-.07.18-.15.18h0c-.08,0-.15-.08-.15-.18h0Z" style="fill: #fff;"/>
  <path d="m173.05,127.21v-50.41c0-.1.07-.18.15-.18h0c.08,0,.15.08.15.18h0v50.41c0,.1-.07.18-.15.18h0c-.08,0-.15-.08-.15-.18h0Z" style="fill: #fff;"/>
  <path d="m134.92,63.83v-17.88c0-.1.07-.18.15-.18h0c.09,0,.15.08.15.18h0v17.88c0,.1-.07.18-.15.18h0c-.08,0-.15-.08-.15-.18h0Z" style="fill: #fff;"/>
  <path d="m155.66,50.67v-5.47c0-.1.07-.18.15-.18h0c.08,0,.15.08.15.18h0v5.47c0,.1-.07.18-.15.18h0c-.08,0-.15-.08-.15-.18h0Z" style="fill: #fff;"/>
  <path d="m172.83,47.6v2.37c0-.1.07-.18.15-.18h0c.08,0,.15.08.15.18h0v-2.37c0,.1-.07.18-.15.18h0c-.09,0-.15-.08-.15-.18h0Z" style="fill: #fff;"/>
  <path d="m163.16,27.36v7.34c0-.1.07-.18.15-.18h0c.08,0,.15.08.15.18h0v-7.34c0,.1-.07.18-.15.18h0c-.08,0-.15-.08-.15-.18h0Z" style="fill: #fff;"/>
  <path d="m142.42,53.79v-24.63c0-.1.07-.18.15-.18h0c.09,0,.15.08.15.18h0v24.63c0,.1-.07.18-.15.18h0c-.08,0-.15-.08-.15-.18h0Z" style="fill: #fff;"/>
  <path d="m122.15,83.61v-44.77c0-.1.07-.18.15-.18h0c.08,0,.15.08.15.18h0v44.77c0,.1-.07.18-.15.18h0c-.08,0-.15-.08-.15-.18h0Z" style="fill: #fff;"/>
  <path d="m122,210.41v-33.32c0-.1.07-.18.15-.18h0c.08,0,.15.08.15.18h0v33.32c0,.1-.07.18-.15.18h0c-.09,0-.15-.08-.15-.18h0Z" style="fill: #fff;"/>
  <path d="m143.85,127.3v-15.34c0-.1.07-.18.15-.18h0c.09,0,.15.08.15.18h0v15.34c0,.1-.07.18-.15.18h0c-.09,0-.15-.08-.15-.18h0Z" style="fill: #fff;"/>
  <path d="m152.91,123.66v-42.79c0-.1.07-.18.15-.18h0c.08,0,.15.08.15.18h0v42.79c0,.1-.07.18-.15.18h0c-.08,0-.15-.08-.15-.18h0Z" style="fill: #fff;"/>
  <path d="m181.98,208.59v-56.04c0-.1.07-.18.15-.18h0c.08,0,.15.08.15.18h0v56.04c0,.1-.07.18-.15.18h0c-.08,0-.15-.08-.15-.18h0Z" style="fill: #fff;"/>
  <path d="m160.85,93.26V31.41c0-.1.07-.18.15-.18h0c.08,0,.15.08.15.18h0v61.85c0,.1-.07.18-.15.18h0c-.09,0-.15-.08-.15-.18h0Z" style="fill: #fff;"/>
  <path d="m179.96,49.01v-20.06c0-.1.07-.18.15-.18h0c.08,0,.15.08.15.18h0v20.06c0,.1-.07.18-.15.18h0c-.08,0-.15-.08-.15-.18h0Z" style="fill: #fff;"/>
  <path d="m183.05,59.04v-17.92c0-.1.07-.18.15-.18h0c.08,0,.15.08.15.18h0v17.92c0,.1-.07.18-.15.18h0c-.08,0-.15-.08-.15-.18h0Z" style="fill: #fff;"/>
  <path d="m126.87,81.7v-38.28c0-.1.07-.18.15-.18h0c.08,0,.15.08.15.18h0v38.28c0,.1-.07.18-.15.18h0c-.09,0-.15-.08-.15-.18h0Z" style="fill: #fff;"/>
  <path d="m186.89,166.5h0c0-.1.07-.18.15-.18h0c.08,0,.15.08.15.18h0v70.56c.86-1.25,3.6-5.06,6.05-6.52h0c.08-.04.17,0,.21.08h0c.04.09,0,.2-.07.24h0c-1.42.84-2.98,2.55-4.18,4.05h0c-1.2,1.5-2.04,2.78-2.04,2.78h0l-.28.42v-71.62h0Z" style="fill: #fff;"/>
  <path d="m116.49,236.3s-1.5-1.71-3.34-3.57h0c-1.83-1.86-4.01-3.86-5.28-4.41h0c-.08-.03-.12-.14-.09-.23h0c.03-.09.12-.14.2-.11h0c2.39,1.04,7.29,6.45,8.47,7.77h0v-24.88c0-.1.07-.18.15-.18h0c.08,0,.15.08.15.18h0v25.73l-.26-.3h0Z" style="fill: #fff;"/>
</svg>