<?xml version="1.0" encoding="UTF-8"?>
<svg id="umbrella" xmlns="http://www.w3.org/2000/svg" width="300" height="265.3" xmlns:xlink="http://www.w3.org/1999/xlink" viewBox="0 0 300 265.3">
  <defs>
    <linearGradient id="linear-gradient" x1="193.55" y1="-1418.69" x2="207.57" y2="-1418.69" gradientTransform="translate(-40.26 1337.64) rotate(-.4) scale(1 .84)" gradientUnits="userSpaceOnUse">
      <stop offset="0" stop-color="#b40100"/>
      <stop offset=".44" stop-color="#cf0000"/>
      <stop offset="1" stop-color="#cf0000"/>
    </linearGradient>
    <linearGradient id="linear-gradient-2" x1="200.56" y1="-1418.69" x2="227.85" y2="-1418.69" gradientTransform="translate(-40.26 1337.64) rotate(-.4) scale(1 .84)" gradientUnits="userSpaceOnUse">
      <stop offset="0" stop-color="#a00100"/>
      <stop offset=".96" stop-color="#cf0000"/>
      <stop offset="1" stop-color="#cf0000"/>
    </linearGradient>
    <linearGradient id="linear-gradient-3" x1="173.28" y1="-1418.69" x2="200.57" y2="-1418.69" gradientTransform="translate(-40.26 1337.64) rotate(-.4) scale(1 .84)" gradientUnits="userSpaceOnUse">
      <stop offset="0" stop-color="#bb0100"/>
      <stop offset=".41" stop-color="#cf0000"/>
      <stop offset="1" stop-color="#cf0000"/>
    </linearGradient>
    <linearGradient id="linear-gradient-4" x1="182.05" y1="-1418.69" x2="200.57" y2="-1418.69" gradientTransform="translate(-40.26 1337.64) rotate(-.4) scale(1 .84)" gradientUnits="userSpaceOnUse">
      <stop offset="0" stop-color="#ab0100"/>
      <stop offset=".58" stop-color="#cf0000"/>
      <stop offset="1" stop-color="#cf0000"/>
    </linearGradient>
    <linearGradient id="linear-gradient-5" x1="200.56" y1="-1418.69" x2="219.07" y2="-1418.69" gradientTransform="translate(-40.26 1337.64) rotate(-.4) scale(1 .84)" gradientUnits="userSpaceOnUse">
      <stop offset="0" stop-color="#a00100"/>
      <stop offset="1" stop-color="#cc0100"/>
    </linearGradient>
  </defs>
  <path d="m151.98,129.47c3.68-.03,6.76,9.24,7.15,21.06-4.76-3.52-9.43-3.49-14.02.1.23-11.83,3.18-21.13,6.86-21.15h0Z" style="fill: url(#linear-gradient); fill-rule: evenodd;"/>
  <path d="m151.98,129.47c14.33-.1,26.15,9.1,27.42,20.92-3.29-3.01-6.21-2.99-8.78.06-.89-11.82-8.93-21.05-18.65-20.98h0Z" style="fill: url(#linear-gradient-2); fill-rule: evenodd;"/>
  <path d="m151.98,129.47c-9.72.07-17.64,9.4-18.37,21.23-2.88-2.74-5.8-2.72-8.78.06,1.11-11.83,12.81-21.19,27.14-21.29h0Z" style="fill: url(#linear-gradient-3); fill-rule: evenodd;"/>
  <path d="m151.98,129.47c-3.68.03-6.65,9.33-6.87,21.15-4.01-3.16-7.84-3.13-11.5.08.73-11.83,8.64-21.17,18.36-21.23h0Z" style="fill: url(#linear-gradient-4); fill-rule: evenodd;"/>
  <path d="m151.98,129.47c9.72-.07,17.76,9.16,18.65,20.98-4.19-3.33-8.02-3.3-11.5.08-.39-11.82-3.47-21.08-7.16-21.06h0Z" style="fill: url(#linear-gradient-5); fill-rule: evenodd;"/>
</svg>