<?xml version="1.0" encoding="utf-8"?>
<!-- Generator: Adobe Illustrator 27.2.0, SVG Export Plug-In . SVG Version: 6.00 Build 0)  -->
<svg version="1.1" xmlns="http://www.w3.org/2000/svg" xmlns:xlink="http://www.w3.org/1999/xlink" x="0px" y="0px"
	 viewBox="0 0 300 250" style="enable-background:new 0 0 300 250;" xml:space="preserve">
<style type="text/css">
	.st0{fill:#FFFF00;}
</style>
<g id="Layer_1">
</g>
<g id="_x3C_Layer_x3E_">
	<g>
		<defs>
			<path id="SVGID_1_" d="M136.6,42.8c-1.4,1.4-28.2,23.4-28.2,23.4L91.2,86.8l-6.9,12.4l-16.5,2.8l2.1,17.2l18.6,2.8
				c0,0,8.3-2.8,10.3-1.4c2.1,1.4,24.8,13.8,26.8,14.5c2.1,0.7,10.3,52.3,10.3,53.7c0,1.4,8,9.6,11.7,10.3c3.7,0.7,26.1,2.1,26.1,0
				c0-2.1-13.8-23.4-13.8-23.4l-2.8-26.1l-4.1-19l-4.1-7.9l-8.3-7.6l-6.9-7.6l-6.2-4.1l-3.4-5.5l20.8-15.1l6.3-8.3l32.8,20
				l18.6,13.1l2.1-23.4l-38.5-30.3l-14.9-11c0,0-5.9-0.6-10.3-0.6C138.8,42.2,137.1,42.3,136.6,42.8"/>
		</defs>
		<clipPath id="SVGID_00000015337347874869894960000011905665611604162722_">
			<use xlink:href="#SVGID_1_"  style="overflow:visible;"/>
		</clipPath>
	</g>
	<g>
		<defs>
			<path id="SVGID_00000094613512441267269740000015606962791963999378_" d="M136.6,42.8c-1.4,1.4-28.2,23.4-28.2,23.4L91.2,86.8
				l-6.9,12.4l-16.5,2.8l2.1,17.2l18.6,2.8c0,0,8.3-2.8,10.3-1.4c2.1,1.4,24.8,13.8,26.8,14.5c2.1,0.7,10.3,52.3,10.3,53.7
				c0,1.4,8,9.6,11.7,10.3c3.7,0.7,26.1,2.1,26.1,0c0-2.1-13.8-23.4-13.8-23.4l-2.8-26.1l-4.1-19l-4.1-7.9l-8.3-7.6l-6.9-7.6
				l-6.2-4.1l-3.4-5.5l20.8-15.1l6.3-8.3l32.8,20l18.6,13.1l2.1-23.4l-38.5-30.3l-14.9-11c0,0-5.9-0.6-10.3-0.6
				C138.8,42.2,137.1,42.3,136.6,42.8"/>
		</defs>
		<clipPath id="SVGID_00000173861932522454673350000004128550025437119874_">
			<use xlink:href="#SVGID_00000094613512441267269740000015606962791963999378_"  style="overflow:visible;"/>
		</clipPath>
	</g>
	<path class="st0" d="M170.5,179.5c-1.4-1.1-3-2.1-4.6-2.8L164,165l37.9-34.3c0.6,2.6,1.2,5.2,1.9,7.8l0.4,1.5
		C187.2,146.5,174.3,161.4,170.5,179.5 M142.4,194.1v-9.9h13c6.4,0,11.9,4.1,14,9.9H142.4z M131.9,135.4c-0.3-1.3-1.2-2.5-2.3-3.2
		l-32-18.5c-4.1-2.4-7.3-7-8.3-12.1c-0.6-3.1-0.4-6,0.5-8.5l14.4,4l18.3,5.1l18.1,18.1c4.6,4.6,7.6,10.4,8.8,16.8l6,37.3
		c0,0,0,0-0.1,0h-14.5L131.9,135.4z M96.1,139.1l3-13.1l23.7,13.7l7.8,33.9C125.2,157.4,112.3,144.5,96.1,139.1 M85.3,185.7
		l8.5-36.9c15.7,5.6,27.4,19.8,29.3,36.9H85.3z M79.1,235c-24.4,0-44.3-19.9-44.3-44.3c0-24.4,19.9-44.3,44.3-44.3
		c1.7,0,3.4,0.1,5.1,0.3l-9.9,42.9c-0.3,1.5,0,3,0.9,4.2c0.9,1.2,2.4,1.9,3.9,1.9h44.1C120.7,217.7,101.8,235,79.1,235 M83.1,116.1
		c-4.8,0-8.8-3.9-8.8-8.8v-1.1h5.9c1.1,3.6,2.9,7,5.2,9.9H83.1z M131.3,50.4c3.3-3.3,7.8-5.2,12.5-5.2s9.1,1.8,12.5,5.2l42.9,38.1
		v10.3l-44.2-32c-0.9-0.6-1.9-0.9-2.9-0.9c-1.3,0-2.5,0.5-3.5,1.4l-24.9,24.9l-16.5-4.6l-10.2-2.8L131.3,50.4z M174.3,14.1
		c6.8,0,12.3,5.5,12.3,12.3c0,6.8-5.5,12.3-12.3,12.3c-6.8,0-12.3-5.5-12.3-12.3C161.9,19.6,167.5,14.1,174.3,14.1 M192.4,126
		l-30.3,27.4l-2.9-17.9c0,0,0-0.1,0-0.1c-0.6-3.3-1.6-6.4-2.9-9.4H192.4z M199.6,116.1h-49.5c-0.8-0.9-1.6-1.9-2.5-2.7l-15.6-15.6
		l20.5-20.5l46.7,33.8C199.4,112.8,199.5,114.4,199.6,116.1 M209,91.2h11.8c3.9,0,7.1,3.2,7.1,7.1c0,3.9-3.2,7.1-7.1,7.1H214
		c-2.6,0-4.7,1.9-4.9,4.4c-0.1-1.5-0.1-3-0.1-4.5V91.2z M270.9,205.2c-2.5-1.1-5.4,0.1-6.5,2.6c-6.9,16.5-23,27.2-40.9,27.2
		c-21.5,0-39.4-15.3-43.5-35.6c0-0.1,0-0.2,0-0.2c0-2.2-0.3-4.3-0.8-6.3c0-0.7-0.1-1.4-0.1-2.2c0-18.5,11.4-34.5,27.6-41.1
		l11.9,42.4c0.6,2.2,2.6,3.6,4.8,3.6c0.4,0,0.9-0.1,1.3-0.2c2.6-0.7,4.2-3.5,3.4-6.1l-11.9-42.4c2.3-0.4,4.7-0.6,7.2-0.6
		c17.6,0,33.6,10.4,40.7,26.6c1.1,2.5,4,3.6,6.5,2.6c2.5-1.1,3.6-4,2.6-6.5c-8.6-19.8-28.1-32.5-49.7-32.5c-3.4,0-6.7,0.3-9.9,0.9
		l-0.4-1.5c-1.4-5.1-2.5-10.2-3.2-15.5c0,0,0,0,0,0c-0.4-3-0.7-6.1-0.9-9.1c0.4,2.3,2.4,4,4.8,4h6.7c9.3,0,16.9-7.6,16.9-16.9
		c0-9.3-7.6-16.9-16.9-16.9H206l-37.9-33.6c2,0.6,4,0.9,6.2,0.9c12.3,0,22.2-10,22.2-22.2c0-12.3-10-22.2-22.2-22.2
		c-12.3,0-22.2,10-22.2,22.2c0,4.2,1.2,8.1,3.2,11.4c-3.5-1.6-7.4-2.5-11.4-2.5c-7.4,0-14.3,2.9-19.5,8.1L83.9,83.9c0,0,0,0,0,0
		c-0.1,0.1-0.3,0.3-0.4,0.4c0,0,0,0,0,0.1c0,0,0,0,0,0c-2.6,3.4-4,7.5-4.3,11.9h-9.7c-2.7,0-4.9,2.2-4.9,4.9v6
		c0,10.3,8.4,18.7,18.7,18.7H89l-2.5,10.9c-2.4-0.3-4.9-0.5-7.4-0.5c-29.9,0-54.2,24.3-54.2,54.2c0,18.3,9.1,34.5,23,44.3H29.8
		c-2.7,0-4.9,2.2-4.9,4.9c0,2.7,2.2,4.9,4.9,4.9h49.3c26.8,0,49.1-19.6,53.4-45.1c0.3,2.4,2.4,4.3,4.9,4.3H171
		c3.2,12.7,11,23.6,21.4,30.9H161c-2.7,0-4.9,2.2-4.9,4.9c0,2.7,2.2,4.9,4.9,4.9h62.5c21.9,0,41.5-13,50-33.2
		C274.6,209.1,273.4,206.2,270.9,205.2"/>
	<path class="st0" d="M271.3,185.7c-2.5,0-4.5,2-4.5,4.5v0.2c0,2.5,2,4.5,4.5,4.6h0c2.5,0,4.5-2,4.5-4.5v-0.2
		C275.8,187.7,273.8,185.7,271.3,185.7"/>
</g>
</svg>
