<?xml version="1.0" encoding="utf-8"?>
<!-- Generator: Adobe Illustrator 27.2.0, SVG Export Plug-In . SVG Version: 6.00 Build 0)  -->
<svg version="1.1" xmlns="http://www.w3.org/2000/svg" xmlns:xlink="http://www.w3.org/1999/xlink" x="0px" y="0px"
	 viewBox="0 0 300 250" style="enable-background:new 0 0 300 250;" xml:space="preserve">
<style type="text/css">
	.st0{clip-path:url(#SVGID_00000055697992074046954870000001634383495542739096_);fill:#3AAA35;}
	.st1{fill:none;stroke:#000000;stroke-width:0.5;stroke-miterlimit:10;}
	.st2{clip-path:url(#SVGID_00000165943338904850413460000004707234473087266980_);fill:#FFFFFF;}
	.st3{clip-path:url(#SVGID_00000017478072445754173740000001080364894925450171_);fill:#FFFFFF;}
	.st4{clip-path:url(#SVGID_00000139981682401274514560000001943889384582123182_);fill:#E30613;}
	.st5{fill:none;stroke:#000000;stroke-width:0.25;stroke-miterlimit:10;}
	.st6{clip-path:url(#SVGID_00000072244211158363515150000008199840369731612039_);fill:#FFFF00;}
</style>
<g id="Layer_1">
</g>
<g id="_x3C_Layer_x3E_">
	<g>
		<defs>
			<path id="SVGID_1_" d="M166.8,72.1c-0.3,0.3-6.8,5.6-6.8,5.6l-4.1,4.9l-1.6,3l-4,0.7l0.5,4.1l4.4,0.7c0,0,2-0.7,2.5-0.3
				c0.5,0.3,5.9,3.3,6.4,3.5c0.5,0.2,2.5,12.5,2.5,12.8c0,0.3,1.9,2.3,2.8,2.5c0.9,0.2,6.3,0.5,6.3,0s-3.3-5.6-3.3-5.6l-0.7-6.3
				l-1-4.5l-1-1.9l-2-1.8l-1.6-1.8l-1.5-1l-0.8-1.3l5-3.6l1.5-2l7.8,4.8l4.4,3.1l0.5-5.6l-9.2-7.2l-3.6-2.6c0,0-1.4-0.1-2.5-0.1
				C167.3,71.9,166.9,72,166.8,72.1"/>
		</defs>
		<clipPath id="SVGID_00000122691382304381851470000011127068128351849877_">
			<use xlink:href="#SVGID_1_"  style="overflow:visible;"/>
		</clipPath>
		<path style="clip-path:url(#SVGID_00000122691382304381851470000011127068128351849877_);fill:#3AAA35;" d="M182.6,81.9
			c-0.3-0.2-10.5-9.4-10.9-9.7c-0.3-0.3-4.1-0.4-4.1-0.4l-6.3,3.9c0,0-7.1,6.6-6.1,6.9c1,0.3,8.7,2.5,8.7,2.5l6.3-6.6l12.8,9.1
			L182.6,81.9z"/>
	</g>
	<g>
		<defs>
			<path id="SVGID_00000062872216426252961730000000699578278848749199_" d="M166.8,72.1c-0.3,0.3-6.8,5.6-6.8,5.6l-4.1,4.9l-1.6,3
				l-4,0.7l0.5,4.1l4.4,0.7c0,0,2-0.7,2.5-0.3c0.5,0.3,5.9,3.3,6.4,3.5c0.5,0.2,2.5,12.5,2.5,12.8c0,0.3,1.9,2.3,2.8,2.5
				c0.9,0.2,6.3,0.5,6.3,0s-3.3-5.6-3.3-5.6l-0.7-6.3l-1-4.5l-1-1.9l-2-1.8l-1.6-1.8l-1.5-1l-0.8-1.3l5-3.6l1.5-2l7.8,4.8l4.4,3.1
				l0.5-5.6l-9.2-7.2l-3.6-2.6c0,0-1.4-0.1-2.5-0.1C167.3,71.9,166.9,72,166.8,72.1"/>
		</defs>
		<clipPath id="SVGID_00000154428236285385651340000014523792589118891436_">
			<use xlink:href="#SVGID_00000062872216426252961730000000699578278848749199_"  style="overflow:visible;"/>
		</clipPath>
	</g>
	<path d="M174.9,104.8c-0.3-0.3-0.7-0.5-1.1-0.7l-0.4-2.8l9.1-8.2c0.1,0.6,0.3,1.2,0.5,1.9l0.1,0.4
		C178.9,96.9,175.8,100.5,174.9,104.8 M168.1,108.3v-2.4h3.1c1.5,0,2.9,1,3.3,2.4H168.1z M165.6,94.2c-0.1-0.3-0.3-0.6-0.6-0.8
		l-7.7-4.4c-1-0.6-1.7-1.7-2-2.9c-0.1-0.7-0.1-1.4,0.1-2l3.4,1l4.4,1.2l4.3,4.3c1.1,1.1,1.8,2.5,2.1,4l1.4,8.9c0,0,0,0,0,0h-3.5
		L165.6,94.2z M157,95.1l0.7-3.1l5.7,3.3l1.9,8.1C164,99.5,160.9,96.4,157,95.1 M154.5,106.3l2-8.8c3.8,1.3,6.6,4.7,7,8.8H154.5z
		 M153,118.1c-5.9,0-10.6-4.8-10.6-10.6c0-5.9,4.8-10.6,10.6-10.6c0.4,0,0.8,0,1.2,0.1l-2.4,10.3c-0.1,0.4,0,0.7,0.2,1
		c0.2,0.3,0.6,0.4,0.9,0.4h10.5C162.9,113.9,158.4,118.1,153,118.1 M153.9,89.6c-1.2,0-2.1-0.9-2.1-2.1v-0.3h1.4
		c0.3,0.9,0.7,1.7,1.2,2.4H153.9z M165.5,73.9c0.8-0.8,1.9-1.2,3-1.2s2.2,0.4,3,1.2l10.3,9.1v2.5l-10.6-7.7
		c-0.2-0.2-0.5-0.2-0.7-0.2c-0.3,0-0.6,0.1-0.8,0.3l-6,6l-3.9-1.1l-2.5-0.7L165.5,73.9z M175.8,65.2c1.6,0,3,1.3,3,3
		c0,1.6-1.3,3-3,3s-3-1.3-3-3C172.8,66.5,174.1,65.2,175.8,65.2 M180.1,92l-7.2,6.6l-0.7-4.3c0,0,0,0,0,0c-0.1-0.8-0.4-1.5-0.7-2.2
		H180.1z M181.8,89.6H170c-0.2-0.2-0.4-0.4-0.6-0.7l-3.7-3.7l4.9-4.9l11.2,8.1C181.8,88.8,181.8,89.2,181.8,89.6 M184.1,83.7h2.8
		c0.9,0,1.7,0.8,1.7,1.7s-0.8,1.7-1.7,1.7h-1.6c-0.6,0-1.1,0.5-1.2,1.1c0-0.4,0-0.7,0-1.1V83.7z M198.9,110.9
		c-0.6-0.3-1.3,0-1.5,0.6c-1.7,3.9-5.5,6.5-9.8,6.5c-5.1,0-9.4-3.7-10.4-8.5c0,0,0,0,0-0.1c0-0.5-0.1-1-0.2-1.5c0-0.2,0-0.3,0-0.5
		c0-4.4,2.7-8.2,6.6-9.8l2.9,10.2c0.1,0.5,0.6,0.9,1.1,0.9c0.1,0,0.2,0,0.3,0c0.6-0.2,1-0.8,0.8-1.5L185.8,97
		c0.6-0.1,1.1-0.1,1.7-0.1c4.2,0,8,2.5,9.7,6.4c0.3,0.6,1,0.9,1.6,0.6c0.6-0.3,0.9-1,0.6-1.6c-2.1-4.7-6.7-7.8-11.9-7.8
		c-0.8,0-1.6,0.1-2.4,0.2l-0.1-0.4c-0.3-1.2-0.6-2.5-0.8-3.7c0,0,0,0,0,0c-0.1-0.7-0.2-1.4-0.2-2.2c0.1,0.5,0.6,1,1.2,1h1.6
		c2.2,0,4.1-1.8,4.1-4.1c0-2.2-1.8-4.1-4.1-4.1h-3.5l-9.1-8c0.5,0.1,1,0.2,1.5,0.2c2.9,0,5.3-2.4,5.3-5.3c0-2.9-2.4-5.3-5.3-5.3
		c-2.9,0-5.3,2.4-5.3,5.3c0,1,0.3,1.9,0.8,2.7c-0.8-0.4-1.8-0.6-2.7-0.6c-1.8,0-3.4,0.7-4.7,1.9l-9.7,9.7c0,0,0,0,0,0
		c0,0-0.1,0.1-0.1,0.1c0,0,0,0,0,0c0,0,0,0,0,0c-0.6,0.8-1,1.8-1,2.9h-2.3c-0.7,0-1.2,0.5-1.2,1.2v1.4c0,2.5,2,4.5,4.5,4.5h1.4
		l-0.6,2.6c-0.6-0.1-1.2-0.1-1.8-0.1c-7.2,0-13,5.8-13,13c0,4.4,2.2,8.3,5.5,10.6h-4.3c-0.7,0-1.2,0.5-1.2,1.2
		c0,0.7,0.5,1.2,1.2,1.2H153c6.4,0,11.8-4.7,12.8-10.8c0.1,0.6,0.6,1,1.2,1h8c0.8,3,2.6,5.6,5.1,7.4h-7.5c-0.7,0-1.2,0.5-1.2,1.2
		c0,0.7,0.5,1.2,1.2,1.2h15c5.2,0,9.9-3.1,12-7.9C199.8,111.9,199.5,111.2,198.9,110.9"/>
	<path class="st1" d="M174.9,104.8c-0.3-0.3-0.7-0.5-1.1-0.7l-0.4-2.8l9.1-8.2c0.1,0.6,0.3,1.2,0.5,1.9l0.1,0.4
		C178.9,96.9,175.8,100.5,174.9,104.8z M168.1,108.3v-2.4h3.1c1.5,0,2.9,1,3.3,2.4H168.1z M165.6,94.2c-0.1-0.3-0.3-0.6-0.6-0.8
		l-7.7-4.4c-1-0.6-1.7-1.7-2-2.9c-0.1-0.7-0.1-1.4,0.1-2l3.4,1l4.4,1.2l4.3,4.3c1.1,1.1,1.8,2.5,2.1,4l1.4,8.9c0,0,0,0,0,0h-3.5
		L165.6,94.2z M157,95.1l0.7-3.1l5.7,3.3l1.9,8.1C164,99.5,160.9,96.4,157,95.1z M154.5,106.3l2-8.8c3.8,1.3,6.6,4.7,7,8.8H154.5z
		 M153,118.1c-5.9,0-10.6-4.8-10.6-10.6c0-5.9,4.8-10.6,10.6-10.6c0.4,0,0.8,0,1.2,0.1l-2.4,10.3c-0.1,0.4,0,0.7,0.2,1
		c0.2,0.3,0.6,0.4,0.9,0.4h10.5C162.9,113.9,158.4,118.1,153,118.1z M153.9,89.6c-1.2,0-2.1-0.9-2.1-2.1v-0.3h1.4
		c0.3,0.9,0.7,1.7,1.2,2.4H153.9z M165.5,73.9c0.8-0.8,1.9-1.2,3-1.2s2.2,0.4,3,1.2l10.3,9.1v2.5l-10.6-7.7
		c-0.2-0.2-0.5-0.2-0.7-0.2c-0.3,0-0.6,0.1-0.8,0.3l-6,6l-3.9-1.1l-2.5-0.7L165.5,73.9z M175.8,65.2c1.6,0,3,1.3,3,3
		c0,1.6-1.3,3-3,3s-3-1.3-3-3C172.8,66.5,174.1,65.2,175.8,65.2z M180.1,92l-7.2,6.6l-0.7-4.3c0,0,0,0,0,0c-0.1-0.8-0.4-1.5-0.7-2.2
		H180.1z M181.8,89.6H170c-0.2-0.2-0.4-0.4-0.6-0.7l-3.7-3.7l4.9-4.9l11.2,8.1C181.8,88.8,181.8,89.2,181.8,89.6z M184.1,83.7h2.8
		c0.9,0,1.7,0.8,1.7,1.7s-0.8,1.7-1.7,1.7h-1.6c-0.6,0-1.1,0.5-1.2,1.1c0-0.4,0-0.7,0-1.1V83.7z M198.9,110.9
		c-0.6-0.3-1.3,0-1.5,0.6c-1.7,3.9-5.5,6.5-9.8,6.5c-5.1,0-9.4-3.7-10.4-8.5c0,0,0,0,0-0.1c0-0.5-0.1-1-0.2-1.5c0-0.2,0-0.3,0-0.5
		c0-4.4,2.7-8.2,6.6-9.8l2.9,10.2c0.1,0.5,0.6,0.9,1.1,0.9c0.1,0,0.2,0,0.3,0c0.6-0.2,1-0.8,0.8-1.5L185.8,97
		c0.6-0.1,1.1-0.1,1.7-0.1c4.2,0,8,2.5,9.7,6.4c0.3,0.6,1,0.9,1.6,0.6c0.6-0.3,0.9-1,0.6-1.6c-2.1-4.7-6.7-7.8-11.9-7.8
		c-0.8,0-1.6,0.1-2.4,0.2l-0.1-0.4c-0.3-1.2-0.6-2.5-0.8-3.7c0,0,0,0,0,0c-0.1-0.7-0.2-1.4-0.2-2.2c0.1,0.5,0.6,1,1.2,1h1.6
		c2.2,0,4.1-1.8,4.1-4.1c0-2.2-1.8-4.1-4.1-4.1h-3.5l-9.1-8c0.5,0.1,1,0.2,1.5,0.2c2.9,0,5.3-2.4,5.3-5.3c0-2.9-2.4-5.3-5.3-5.3
		c-2.9,0-5.3,2.4-5.3,5.3c0,1,0.3,1.9,0.8,2.7c-0.8-0.4-1.8-0.6-2.7-0.6c-1.8,0-3.4,0.7-4.7,1.9l-9.7,9.7c0,0,0,0,0,0
		c0,0-0.1,0.1-0.1,0.1c0,0,0,0,0,0c0,0,0,0,0,0c-0.6,0.8-1,1.8-1,2.9h-2.3c-0.7,0-1.2,0.5-1.2,1.2v1.4c0,2.5,2,4.5,4.5,4.5h1.4
		l-0.6,2.6c-0.6-0.1-1.2-0.1-1.8-0.1c-7.2,0-13,5.8-13,13c0,4.4,2.2,8.3,5.5,10.6h-4.3c-0.7,0-1.2,0.5-1.2,1.2
		c0,0.7,0.5,1.2,1.2,1.2H153c6.4,0,11.8-4.7,12.8-10.8c0.1,0.6,0.6,1,1.2,1h8c0.8,3,2.6,5.6,5.1,7.4h-7.5c-0.7,0-1.2,0.5-1.2,1.2
		c0,0.7,0.5,1.2,1.2,1.2h15c5.2,0,9.9-3.1,12-7.9C199.8,111.9,199.5,111.2,198.9,110.9z"/>
	<g>
		<defs>
			<path id="SVGID_00000010302319252987255900000005161676465081384333_" d="M59.4,72.1c-0.3,0.3-6.8,5.6-6.8,5.6l-4.1,4.9l-1.6,3
				l-4,0.7l0.5,4.1l4.4,0.7c0,0,2-0.7,2.5-0.3c0.5,0.3,5.9,3.3,6.4,3.5c0.5,0.2,2.5,12.5,2.5,12.8c0,0.3,1.9,2.3,2.8,2.5
				c0.9,0.2,6.3,0.5,6.3,0s-3.3-5.6-3.3-5.6l-0.7-6.3l-1-4.5l-1-1.9l-2-1.8l-1.6-1.8l-1.5-1l-0.8-1.3l5-3.6l1.5-2l7.8,4.8l4.4,3.1
				l0.5-5.6l-9.2-7.2l-3.6-2.6c0,0-1.4-0.1-2.5-0.1C59.9,71.9,59.5,72,59.4,72.1"/>
		</defs>
		<clipPath id="SVGID_00000105392395823554928380000009685786827345655962_">
			<use xlink:href="#SVGID_00000010302319252987255900000005161676465081384333_"  style="overflow:visible;"/>
		</clipPath>
		<path style="clip-path:url(#SVGID_00000105392395823554928380000009685786827345655962_);fill:#FFFFFF;" d="M75.2,81.9
			c-0.3-0.2-10.5-9.4-10.9-9.7c-0.3-0.3-4.1-0.4-4.1-0.4L54,75.7c0,0-7.1,6.6-6.1,6.9c1,0.3,8.7,2.5,8.7,2.5l6.3-6.6l12.8,9.1
			L75.2,81.9z"/>
	</g>
	<g>
		<defs>
			<path id="SVGID_00000070805771835146028550000018405102512366491311_" d="M59.4,72.1c-0.3,0.3-6.8,5.6-6.8,5.6l-4.1,4.9l-1.6,3
				l-4,0.7l0.5,4.1l4.4,0.7c0,0,2-0.7,2.5-0.3c0.5,0.3,5.9,3.3,6.4,3.5c0.5,0.2,2.5,12.5,2.5,12.8c0,0.3,1.9,2.3,2.8,2.5
				c0.9,0.2,6.3,0.5,6.3,0s-3.3-5.6-3.3-5.6l-0.7-6.3l-1-4.5l-1-1.9l-2-1.8l-1.6-1.8l-1.5-1l-0.8-1.3l5-3.6l1.5-2l7.8,4.8l4.4,3.1
				l0.5-5.6l-9.2-7.2l-3.6-2.6c0,0-1.4-0.1-2.5-0.1C59.9,71.9,59.5,72,59.4,72.1"/>
		</defs>
		<clipPath id="SVGID_00000047742295703846911710000011653445348237923471_">
			<use xlink:href="#SVGID_00000070805771835146028550000018405102512366491311_"  style="overflow:visible;"/>
		</clipPath>
	</g>
	<path d="M67.5,104.8c-0.3-0.3-0.7-0.5-1.1-0.7l-0.4-2.8l9.1-8.2c0.1,0.6,0.3,1.2,0.5,1.9l0.1,0.4C71.5,96.9,68.4,100.5,67.5,104.8
		 M60.8,108.3v-2.4h3.1c1.5,0,2.9,1,3.3,2.4H60.8z M58.3,94.2c-0.1-0.3-0.3-0.6-0.6-0.8l-7.7-4.4c-1-0.6-1.7-1.7-2-2.9
		c-0.1-0.7-0.1-1.4,0.1-2l3.4,1l4.4,1.2l4.3,4.3c1.1,1.1,1.8,2.5,2.1,4l1.4,8.9c0,0,0,0,0,0h-3.5L58.3,94.2z M49.7,95.1l0.7-3.1
		l5.7,3.3l1.9,8.1C56.7,99.5,53.6,96.4,49.7,95.1 M47.1,106.3l2-8.8c3.8,1.3,6.6,4.7,7,8.8H47.1z M45.6,118.1
		c-5.9,0-10.6-4.8-10.6-10.6c0-5.9,4.8-10.6,10.6-10.6c0.4,0,0.8,0,1.2,0.1l-2.4,10.3c-0.1,0.4,0,0.7,0.2,1c0.2,0.3,0.6,0.4,0.9,0.4
		h10.5C55.6,113.9,51.1,118.1,45.6,118.1 M46.6,89.6c-1.2,0-2.1-0.9-2.1-2.1v-0.3h1.4c0.3,0.9,0.7,1.7,1.2,2.4H46.6z M58.2,73.9
		c0.8-0.8,1.9-1.2,3-1.2s2.2,0.4,3,1.2L74.4,83v2.5l-10.6-7.7c-0.2-0.2-0.5-0.2-0.7-0.2c-0.3,0-0.6,0.1-0.8,0.3l-6,6l-3.9-1.1
		l-2.5-0.7L58.2,73.9z M68.4,65.2c1.6,0,3,1.3,3,3c0,1.6-1.3,3-3,3c-1.6,0-3-1.3-3-3C65.5,66.5,66.8,65.2,68.4,65.2 M72.8,92
		l-7.2,6.6l-0.7-4.3c0,0,0,0,0,0c-0.1-0.8-0.4-1.5-0.7-2.2H72.8z M74.5,89.6H62.7c-0.2-0.2-0.4-0.4-0.6-0.7l-3.7-3.7l4.9-4.9
		l11.2,8.1C74.4,88.8,74.5,89.2,74.5,89.6 M76.8,83.7h2.8c0.9,0,1.7,0.8,1.7,1.7S80.5,87,79.6,87H78c-0.6,0-1.1,0.5-1.2,1.1
		c0-0.4,0-0.7,0-1.1V83.7z M91.6,110.9c-0.6-0.3-1.3,0-1.5,0.6c-1.7,3.9-5.5,6.5-9.8,6.5c-5.1,0-9.4-3.7-10.4-8.5c0,0,0,0,0-0.1
		c0-0.5-0.1-1-0.2-1.5c0-0.2,0-0.3,0-0.5c0-4.4,2.7-8.2,6.6-9.8l2.9,10.2c0.1,0.5,0.6,0.9,1.1,0.9c0.1,0,0.2,0,0.3,0
		c0.6-0.2,1-0.8,0.8-1.5L78.5,97c0.6-0.1,1.1-0.1,1.7-0.1c4.2,0,8,2.5,9.7,6.4c0.3,0.6,1,0.9,1.6,0.6c0.6-0.3,0.9-1,0.6-1.6
		c-2.1-4.7-6.7-7.8-11.9-7.8c-0.8,0-1.6,0.1-2.4,0.2l-0.1-0.4c-0.3-1.2-0.6-2.5-0.8-3.7c0,0,0,0,0,0c-0.1-0.7-0.2-1.4-0.2-2.2
		c0.1,0.5,0.6,1,1.2,1h1.6c2.2,0,4.1-1.8,4.1-4.1c0-2.2-1.8-4.1-4.1-4.1H76l-9.1-8c0.5,0.1,1,0.2,1.5,0.2c2.9,0,5.3-2.4,5.3-5.3
		c0-2.9-2.4-5.3-5.3-5.3c-2.9,0-5.3,2.4-5.3,5.3c0,1,0.3,1.9,0.8,2.7c-0.8-0.4-1.8-0.6-2.7-0.6c-1.8,0-3.4,0.7-4.7,1.9l-9.7,9.7
		c0,0,0,0,0,0c0,0-0.1,0.1-0.1,0.1c0,0,0,0,0,0c0,0,0,0,0,0c-0.6,0.8-1,1.8-1,2.9h-2.3c-0.7,0-1.2,0.5-1.2,1.2v1.4
		c0,2.5,2,4.5,4.5,4.5H48l-0.6,2.6c-0.6-0.1-1.2-0.1-1.8-0.1c-7.2,0-13,5.8-13,13c0,4.4,2.2,8.3,5.5,10.6h-4.3
		c-0.7,0-1.2,0.5-1.2,1.2c0,0.7,0.5,1.2,1.2,1.2h11.8c6.4,0,11.8-4.7,12.8-10.8c0.1,0.6,0.6,1,1.2,1h8c0.8,3,2.6,5.6,5.1,7.4h-7.5
		c-0.7,0-1.2,0.5-1.2,1.2c0,0.7,0.5,1.2,1.2,1.2h15c5.2,0,9.9-3.1,12-7.9C92.4,111.9,92.2,111.2,91.6,110.9"/>
	<path class="st1" d="M67.5,104.8c-0.3-0.3-0.7-0.5-1.1-0.7l-0.4-2.8l9.1-8.2c0.1,0.6,0.3,1.2,0.5,1.9l0.1,0.4
		C71.5,96.9,68.4,100.5,67.5,104.8z M60.8,108.3v-2.4h3.1c1.5,0,2.9,1,3.3,2.4H60.8z M58.3,94.2c-0.1-0.3-0.3-0.6-0.6-0.8l-7.7-4.4
		c-1-0.6-1.7-1.7-2-2.9c-0.1-0.7-0.1-1.4,0.1-2l3.4,1l4.4,1.2l4.3,4.3c1.1,1.1,1.8,2.5,2.1,4l1.4,8.9c0,0,0,0,0,0h-3.5L58.3,94.2z
		 M49.7,95.1l0.7-3.1l5.7,3.3l1.9,8.1C56.7,99.5,53.6,96.4,49.7,95.1z M47.1,106.3l2-8.8c3.8,1.3,6.6,4.7,7,8.8H47.1z M45.6,118.1
		c-5.9,0-10.6-4.8-10.6-10.6c0-5.9,4.8-10.6,10.6-10.6c0.4,0,0.8,0,1.2,0.1l-2.4,10.3c-0.1,0.4,0,0.7,0.2,1c0.2,0.3,0.6,0.4,0.9,0.4
		h10.5C55.6,113.9,51.1,118.1,45.6,118.1z M46.6,89.6c-1.2,0-2.1-0.9-2.1-2.1v-0.3h1.4c0.3,0.9,0.7,1.7,1.2,2.4H46.6z M58.2,73.9
		c0.8-0.8,1.9-1.2,3-1.2s2.2,0.4,3,1.2L74.4,83v2.5l-10.6-7.7c-0.2-0.2-0.5-0.2-0.7-0.2c-0.3,0-0.6,0.1-0.8,0.3l-6,6l-3.9-1.1
		l-2.5-0.7L58.2,73.9z M68.4,65.2c1.6,0,3,1.3,3,3c0,1.6-1.3,3-3,3c-1.6,0-3-1.3-3-3C65.5,66.5,66.8,65.2,68.4,65.2z M72.8,92
		l-7.2,6.6l-0.7-4.3c0,0,0,0,0,0c-0.1-0.8-0.4-1.5-0.7-2.2H72.8z M74.5,89.6H62.7c-0.2-0.2-0.4-0.4-0.6-0.7l-3.7-3.7l4.9-4.9
		l11.2,8.1C74.4,88.8,74.5,89.2,74.5,89.6z M76.8,83.7h2.8c0.9,0,1.7,0.8,1.7,1.7S80.5,87,79.6,87H78c-0.6,0-1.1,0.5-1.2,1.1
		c0-0.4,0-0.7,0-1.1V83.7z M91.6,110.9c-0.6-0.3-1.3,0-1.5,0.6c-1.7,3.9-5.5,6.5-9.8,6.5c-5.1,0-9.4-3.7-10.4-8.5c0,0,0,0,0-0.1
		c0-0.5-0.1-1-0.2-1.5c0-0.2,0-0.3,0-0.5c0-4.4,2.7-8.2,6.6-9.8l2.9,10.2c0.1,0.5,0.6,0.9,1.1,0.9c0.1,0,0.2,0,0.3,0
		c0.6-0.2,1-0.8,0.8-1.5L78.5,97c0.6-0.1,1.1-0.1,1.7-0.1c4.2,0,8,2.5,9.7,6.4c0.3,0.6,1,0.9,1.6,0.6c0.6-0.3,0.9-1,0.6-1.6
		c-2.1-4.7-6.7-7.8-11.9-7.8c-0.8,0-1.6,0.1-2.4,0.2l-0.1-0.4c-0.3-1.2-0.6-2.5-0.8-3.7c0,0,0,0,0,0c-0.1-0.7-0.2-1.4-0.2-2.2
		c0.1,0.5,0.6,1,1.2,1h1.6c2.2,0,4.1-1.8,4.1-4.1c0-2.2-1.8-4.1-4.1-4.1H76l-9.1-8c0.5,0.1,1,0.2,1.5,0.2c2.9,0,5.3-2.4,5.3-5.3
		c0-2.9-2.4-5.3-5.3-5.3c-2.9,0-5.3,2.4-5.3,5.3c0,1,0.3,1.9,0.8,2.7c-0.8-0.4-1.8-0.6-2.7-0.6c-1.8,0-3.4,0.7-4.7,1.9l-9.7,9.7
		c0,0,0,0,0,0c0,0-0.1,0.1-0.1,0.1c0,0,0,0,0,0c0,0,0,0,0,0c-0.6,0.8-1,1.8-1,2.9h-2.3c-0.7,0-1.2,0.5-1.2,1.2v1.4
		c0,2.5,2,4.5,4.5,4.5H48l-0.6,2.6c-0.6-0.1-1.2-0.1-1.8-0.1c-7.2,0-13,5.8-13,13c0,4.4,2.2,8.3,5.5,10.6h-4.3
		c-0.7,0-1.2,0.5-1.2,1.2c0,0.7,0.5,1.2,1.2,1.2h11.8c6.4,0,11.8-4.7,12.8-10.8c0.1,0.6,0.6,1,1.2,1h8c0.8,3,2.6,5.6,5.1,7.4h-7.5
		c-0.7,0-1.2,0.5-1.2,1.2c0,0.7,0.5,1.2,1.2,1.2h15c5.2,0,9.9-3.1,12-7.9C92.4,111.9,92.2,111.2,91.6,110.9z"/>
	<g>
		<defs>
			<path id="SVGID_00000175312259290671747200000004126924497457357199_" d="M105.7,111.5c-0.5,0.5-9.5,7.9-9.5,7.9l-5.8,7l-2.3,4.2
				l-5.6,0.9l0.7,5.8l6.3,0.9c0,0,2.8-0.9,3.5-0.5c0.7,0.5,8.4,4.6,9.1,4.9c0.7,0.2,3.5,17.7,3.5,18.1c0,0.5,2.7,3.3,3.9,3.5
				c1.2,0.2,8.8,0.7,8.8,0c0-0.7-4.6-7.9-4.6-7.9l-0.9-8.8l-1.4-6.4l-1.4-2.7l-2.8-2.6l-2.3-2.6l-2.1-1.4l-1.2-1.9l7-5.1l2.1-2.8
				l11.1,6.7l6.3,4.4l0.7-7.9l-13-10.2l-5-3.7c0,0-2-0.2-3.5-0.2C106.5,111.3,105.8,111.4,105.7,111.5"/>
		</defs>
		<clipPath id="SVGID_00000070079926374712178480000003259290785842791607_">
			<use xlink:href="#SVGID_00000175312259290671747200000004126924497457357199_"  style="overflow:visible;"/>
		</clipPath>
		<path style="clip-path:url(#SVGID_00000070079926374712178480000003259290785842791607_);fill:#FFFFFF;" d="M128,125.5
			c-0.5-0.2-14.9-13.3-15.3-13.7c-0.5-0.4-5.8-0.6-5.8-0.6l-8.8,5.4c0,0-10,9.3-8.6,9.8c1.4,0.5,12.3,3.5,12.3,3.5l8.9-9.3l18,12.8
			L128,125.5z"/>
	</g>
	<g>
		<defs>
			<path id="SVGID_00000167388390041224062590000012570559519162042263_" d="M106.6,111.3l-2.6,1.6c-2.7,2.3-7.9,6.5-7.9,6.5l-5.8,7
				l-0.1,0.2c2.9,0.9,11.5,3.2,11.5,3.2l8.9-9.3l17.4,12.4l0.3-3.5l-0.3-4c-0.2-0.1-2.8-2.4-5.8-5.1l-6.5-5.1l-5-3.7
				c0,0-2-0.2-3.5-0.2C107,111.3,106.8,111.3,106.6,111.3"/>
		</defs>
		<clipPath id="SVGID_00000023260407985130665620000004220023631346127505_">
			<use xlink:href="#SVGID_00000167388390041224062590000012570559519162042263_"  style="overflow:visible;"/>
		</clipPath>
		<path style="clip-path:url(#SVGID_00000023260407985130665620000004220023631346127505_);fill:#E30613;" d="M92.9,111.6
			c0.5,0.5,0.5,1.4,0,1.9c-0.5,0.5-1.4,0.5-1.9,0c-0.5-0.5-0.5-1.4,0-1.9C91.5,111.1,92.4,111.1,92.9,111.6"/>
		<path style="clip-path:url(#SVGID_00000023260407985130665620000004220023631346127505_);fill:#E30613;" d="M88,111.6
			c0.5,0.5,0.5,1.4,0,1.9c-0.5,0.5-1.4,0.5-1.9,0s-0.5-1.4,0-1.9C86.6,111.1,87.5,111.1,88,111.6"/>
		<path style="clip-path:url(#SVGID_00000023260407985130665620000004220023631346127505_);fill:#E30613;" d="M97.7,111.6
			c0.5,0.5,0.5,1.4,0,1.9c-0.5,0.5-1.4,0.5-1.9,0s-0.5-1.4,0-1.9C96.4,111.1,97.2,111.1,97.7,111.6"/>
		<path style="clip-path:url(#SVGID_00000023260407985130665620000004220023631346127505_);fill:#E30613;" d="M102.6,111.6
			c0.5,0.5,0.5,1.4,0,1.9c-0.5,0.5-1.4,0.5-1.9,0c-0.5-0.5-0.5-1.4,0-1.9C101.3,111.1,102.1,111.1,102.6,111.6"/>
		<path style="clip-path:url(#SVGID_00000023260407985130665620000004220023631346127505_);fill:#E30613;" d="M112.4,111.6
			c0.5,0.5,0.5,1.4,0,1.9c-0.5,0.5-1.4,0.5-1.9,0c-0.5-0.5-0.5-1.4,0-1.9C111,111.1,111.9,111.1,112.4,111.6"/>
		<path style="clip-path:url(#SVGID_00000023260407985130665620000004220023631346127505_);fill:#E30613;" d="M107.5,111.6
			c0.5,0.5,0.5,1.4,0,1.9c-0.5,0.5-1.4,0.5-1.9,0c-0.5-0.5-0.5-1.4,0-1.9C106.1,111.1,107,111.1,107.5,111.6"/>
		<path style="clip-path:url(#SVGID_00000023260407985130665620000004220023631346127505_);fill:#E30613;" d="M117.2,111.6
			c0.5,0.5,0.5,1.4,0,1.9c-0.5,0.5-1.4,0.5-1.9,0c-0.5-0.5-0.5-1.4,0-1.9C115.9,111.1,116.7,111.1,117.2,111.6"/>
		<path style="clip-path:url(#SVGID_00000023260407985130665620000004220023631346127505_);fill:#E30613;" d="M122.1,111.6
			c0.5,0.5,0.5,1.4,0,1.9c-0.5,0.5-1.4,0.5-1.9,0c-0.5-0.5-0.5-1.4,0-1.9C120.8,111.1,121.6,111.1,122.1,111.6"/>
		<path style="clip-path:url(#SVGID_00000023260407985130665620000004220023631346127505_);fill:#E30613;" d="M127,111.6
			c0.5,0.5,0.5,1.4,0,1.9c-0.5,0.5-1.4,0.5-1.9,0c-0.5-0.5-0.5-1.4,0-1.9C125.6,111.1,126.5,111.1,127,111.6"/>
		<path style="clip-path:url(#SVGID_00000023260407985130665620000004220023631346127505_);fill:#E30613;" d="M131.9,111.6
			c0.5,0.5,0.5,1.4,0,1.9c-0.5,0.5-1.4,0.5-1.9,0c-0.5-0.5-0.5-1.4,0-1.9C130.5,111.1,131.4,111.1,131.9,111.6"/>
		<path style="clip-path:url(#SVGID_00000023260407985130665620000004220023631346127505_);fill:#E30613;" d="M92.9,116.5
			c0.5,0.5,0.5,1.4,0,1.9c-0.5,0.5-1.4,0.5-1.9,0c-0.5-0.5-0.5-1.4,0-1.9C91.5,115.9,92.4,115.9,92.9,116.5"/>
		<path style="clip-path:url(#SVGID_00000023260407985130665620000004220023631346127505_);fill:#E30613;" d="M88,116.5
			c0.5,0.5,0.5,1.4,0,1.9c-0.5,0.5-1.4,0.5-1.9,0s-0.5-1.4,0-1.9C86.6,115.9,87.5,115.9,88,116.5"/>
		<path style="clip-path:url(#SVGID_00000023260407985130665620000004220023631346127505_);fill:#E30613;" d="M97.7,116.5
			c0.5,0.5,0.5,1.4,0,1.9c-0.5,0.5-1.4,0.5-1.9,0s-0.5-1.4,0-1.9C96.4,115.9,97.2,115.9,97.7,116.5"/>
		<path style="clip-path:url(#SVGID_00000023260407985130665620000004220023631346127505_);fill:#E30613;" d="M102.6,116.5
			c0.5,0.5,0.5,1.4,0,1.9c-0.5,0.5-1.4,0.5-1.9,0c-0.5-0.5-0.5-1.4,0-1.9C101.3,115.9,102.1,115.9,102.6,116.5"/>
		<path style="clip-path:url(#SVGID_00000023260407985130665620000004220023631346127505_);fill:#E30613;" d="M112.4,116.5
			c0.5,0.5,0.5,1.4,0,1.9c-0.5,0.5-1.4,0.5-1.9,0c-0.5-0.5-0.5-1.4,0-1.9C111,115.9,111.9,115.9,112.4,116.5"/>
		<path style="clip-path:url(#SVGID_00000023260407985130665620000004220023631346127505_);fill:#E30613;" d="M107.5,116.5
			c0.5,0.5,0.5,1.4,0,1.9c-0.5,0.5-1.4,0.5-1.9,0c-0.5-0.5-0.5-1.4,0-1.9C106.1,115.9,107,115.9,107.5,116.5"/>
		<path style="clip-path:url(#SVGID_00000023260407985130665620000004220023631346127505_);fill:#E30613;" d="M117.2,116.5
			c0.5,0.5,0.5,1.4,0,1.9c-0.5,0.5-1.4,0.5-1.9,0c-0.5-0.5-0.5-1.4,0-1.9C115.9,115.9,116.7,115.9,117.2,116.5"/>
		<path style="clip-path:url(#SVGID_00000023260407985130665620000004220023631346127505_);fill:#E30613;" d="M122.1,116.5
			c0.5,0.5,0.5,1.4,0,1.9c-0.5,0.5-1.4,0.5-1.9,0c-0.5-0.5-0.5-1.4,0-1.9C120.8,115.9,121.6,115.9,122.1,116.5"/>
		<path style="clip-path:url(#SVGID_00000023260407985130665620000004220023631346127505_);fill:#E30613;" d="M127,116.5
			c0.5,0.5,0.5,1.4,0,1.9c-0.5,0.5-1.4,0.5-1.9,0c-0.5-0.5-0.5-1.4,0-1.9C125.6,115.9,126.5,115.9,127,116.5"/>
		<path style="clip-path:url(#SVGID_00000023260407985130665620000004220023631346127505_);fill:#E30613;" d="M131.9,116.5
			c0.5,0.5,0.5,1.4,0,1.9c-0.5,0.5-1.4,0.5-1.9,0c-0.5-0.5-0.5-1.4,0-1.9C130.5,115.9,131.4,115.9,131.9,116.5"/>
		<path style="clip-path:url(#SVGID_00000023260407985130665620000004220023631346127505_);fill:#E30613;" d="M92.9,121.3
			c0.5,0.5,0.5,1.4,0,1.9c-0.5,0.5-1.4,0.5-1.9,0c-0.5-0.5-0.5-1.4,0-1.9C91.5,120.8,92.4,120.8,92.9,121.3"/>
		<path style="clip-path:url(#SVGID_00000023260407985130665620000004220023631346127505_);fill:#E30613;" d="M88,121.3
			c0.5,0.5,0.5,1.4,0,1.9c-0.5,0.5-1.4,0.5-1.9,0s-0.5-1.4,0-1.9C86.6,120.8,87.5,120.8,88,121.3"/>
		<path style="clip-path:url(#SVGID_00000023260407985130665620000004220023631346127505_);fill:#E30613;" d="M97.7,121.3
			c0.5,0.5,0.5,1.4,0,1.9c-0.5,0.5-1.4,0.5-1.9,0s-0.5-1.4,0-1.9C96.4,120.8,97.2,120.8,97.7,121.3"/>
		<path style="clip-path:url(#SVGID_00000023260407985130665620000004220023631346127505_);fill:#E30613;" d="M102.6,121.3
			c0.5,0.5,0.5,1.4,0,1.9c-0.5,0.5-1.4,0.5-1.9,0c-0.5-0.5-0.5-1.4,0-1.9C101.3,120.8,102.1,120.8,102.6,121.3"/>
		<path style="clip-path:url(#SVGID_00000023260407985130665620000004220023631346127505_);fill:#E30613;" d="M112.4,121.3
			c0.5,0.5,0.5,1.4,0,1.9c-0.5,0.5-1.4,0.5-1.9,0c-0.5-0.5-0.5-1.4,0-1.9C111,120.8,111.9,120.8,112.4,121.3"/>
		<path style="clip-path:url(#SVGID_00000023260407985130665620000004220023631346127505_);fill:#E30613;" d="M107.5,121.3
			c0.5,0.5,0.5,1.4,0,1.9c-0.5,0.5-1.4,0.5-1.9,0c-0.5-0.5-0.5-1.4,0-1.9C106.1,120.8,107,120.8,107.5,121.3"/>
		<path style="clip-path:url(#SVGID_00000023260407985130665620000004220023631346127505_);fill:#E30613;" d="M117.2,121.3
			c0.5,0.5,0.5,1.4,0,1.9c-0.5,0.5-1.4,0.5-1.9,0c-0.5-0.5-0.5-1.4,0-1.9C115.9,120.8,116.7,120.8,117.2,121.3"/>
		<path style="clip-path:url(#SVGID_00000023260407985130665620000004220023631346127505_);fill:#E30613;" d="M122.1,121.3
			c0.5,0.5,0.5,1.4,0,1.9c-0.5,0.5-1.4,0.5-1.9,0c-0.5-0.5-0.5-1.4,0-1.9C120.8,120.8,121.6,120.8,122.1,121.3"/>
		<path style="clip-path:url(#SVGID_00000023260407985130665620000004220023631346127505_);fill:#E30613;" d="M127,121.3
			c0.5,0.5,0.5,1.4,0,1.9c-0.5,0.5-1.4,0.5-1.9,0c-0.5-0.5-0.5-1.4,0-1.9C125.6,120.8,126.5,120.8,127,121.3"/>
		<path style="clip-path:url(#SVGID_00000023260407985130665620000004220023631346127505_);fill:#E30613;" d="M131.9,121.3
			c0.5,0.5,0.5,1.4,0,1.9c-0.5,0.5-1.4,0.5-1.9,0c-0.5-0.5-0.5-1.4,0-1.9C130.5,120.8,131.4,120.8,131.9,121.3"/>
		<path style="clip-path:url(#SVGID_00000023260407985130665620000004220023631346127505_);fill:#E30613;" d="M92.9,126.2
			c0.5,0.5,0.5,1.4,0,1.9c-0.5,0.5-1.4,0.5-1.9,0c-0.5-0.5-0.5-1.4,0-1.9C91.5,125.7,92.4,125.7,92.9,126.2"/>
		<path style="clip-path:url(#SVGID_00000023260407985130665620000004220023631346127505_);fill:#E30613;" d="M88,126.2
			c0.5,0.5,0.5,1.4,0,1.9c-0.5,0.5-1.4,0.5-1.9,0c-0.5-0.5-0.5-1.4,0-1.9C86.6,125.7,87.5,125.7,88,126.2"/>
		<path style="clip-path:url(#SVGID_00000023260407985130665620000004220023631346127505_);fill:#E30613;" d="M97.7,126.2
			c0.5,0.5,0.5,1.4,0,1.9c-0.5,0.5-1.4,0.5-1.9,0c-0.5-0.5-0.5-1.4,0-1.9C96.4,125.7,97.2,125.7,97.7,126.2"/>
		<path style="clip-path:url(#SVGID_00000023260407985130665620000004220023631346127505_);fill:#E30613;" d="M102.6,126.2
			c0.5,0.5,0.5,1.4,0,1.9c-0.5,0.5-1.4,0.5-1.9,0c-0.5-0.5-0.5-1.4,0-1.9C101.3,125.7,102.1,125.7,102.6,126.2"/>
		<path style="clip-path:url(#SVGID_00000023260407985130665620000004220023631346127505_);fill:#E30613;" d="M112.4,126.2
			c0.5,0.5,0.5,1.4,0,1.9c-0.5,0.5-1.4,0.5-1.9,0c-0.5-0.5-0.5-1.4,0-1.9C111,125.7,111.9,125.7,112.4,126.2"/>
		<path style="clip-path:url(#SVGID_00000023260407985130665620000004220023631346127505_);fill:#E30613;" d="M107.5,126.2
			c0.5,0.5,0.5,1.4,0,1.9c-0.5,0.5-1.4,0.5-1.9,0c-0.5-0.5-0.5-1.4,0-1.9C106.1,125.7,107,125.7,107.5,126.2"/>
		<path style="clip-path:url(#SVGID_00000023260407985130665620000004220023631346127505_);fill:#E30613;" d="M117.2,126.2
			c0.5,0.5,0.5,1.4,0,1.9c-0.5,0.5-1.4,0.5-1.9,0c-0.5-0.5-0.5-1.4,0-1.9C115.9,125.7,116.7,125.7,117.2,126.2"/>
		<path style="clip-path:url(#SVGID_00000023260407985130665620000004220023631346127505_);fill:#E30613;" d="M122.1,126.2
			c0.5,0.5,0.5,1.4,0,1.9c-0.5,0.5-1.4,0.5-1.9,0c-0.5-0.5-0.5-1.4,0-1.9C120.8,125.7,121.6,125.7,122.1,126.2"/>
		<path style="clip-path:url(#SVGID_00000023260407985130665620000004220023631346127505_);fill:#E30613;" d="M127,126.2
			c0.5,0.5,0.5,1.4,0,1.9c-0.5,0.5-1.4,0.5-1.9,0c-0.5-0.5-0.5-1.4,0-1.9C125.6,125.7,126.5,125.7,127,126.2"/>
		<path style="clip-path:url(#SVGID_00000023260407985130665620000004220023631346127505_);fill:#E30613;" d="M131.9,126.2
			c0.5,0.5,0.5,1.4,0,1.9c-0.5,0.5-1.4,0.5-1.9,0c-0.5-0.5-0.5-1.4,0-1.9C130.5,125.7,131.4,125.7,131.9,126.2"/>
		<path style="clip-path:url(#SVGID_00000023260407985130665620000004220023631346127505_);fill:#E30613;" d="M92.9,131.1
			c0.5,0.5,0.5,1.4,0,1.9c-0.5,0.5-1.4,0.5-1.9,0c-0.5-0.5-0.5-1.4,0-1.9C91.5,130.6,92.4,130.6,92.9,131.1"/>
		<path style="clip-path:url(#SVGID_00000023260407985130665620000004220023631346127505_);fill:#E30613;" d="M88,131.1
			c0.5,0.5,0.5,1.4,0,1.9c-0.5,0.5-1.4,0.5-1.9,0s-0.5-1.4,0-1.9C86.6,130.6,87.5,130.6,88,131.1"/>
		<path style="clip-path:url(#SVGID_00000023260407985130665620000004220023631346127505_);fill:#E30613;" d="M97.7,131.1
			c0.5,0.5,0.5,1.4,0,1.9c-0.5,0.5-1.4,0.5-1.9,0s-0.5-1.4,0-1.9C96.4,130.6,97.2,130.6,97.7,131.1"/>
		<path style="clip-path:url(#SVGID_00000023260407985130665620000004220023631346127505_);fill:#E30613;" d="M102.6,131.1
			c0.5,0.5,0.5,1.4,0,1.9c-0.5,0.5-1.4,0.5-1.9,0c-0.5-0.5-0.5-1.4,0-1.9C101.3,130.6,102.1,130.6,102.6,131.1"/>
		<path style="clip-path:url(#SVGID_00000023260407985130665620000004220023631346127505_);fill:#E30613;" d="M112.4,131.1
			c0.5,0.5,0.5,1.4,0,1.9c-0.5,0.5-1.4,0.5-1.9,0c-0.5-0.5-0.5-1.4,0-1.9C111,130.6,111.9,130.6,112.4,131.1"/>
		<path style="clip-path:url(#SVGID_00000023260407985130665620000004220023631346127505_);fill:#E30613;" d="M107.5,131.1
			c0.5,0.5,0.5,1.4,0,1.9c-0.5,0.5-1.4,0.5-1.9,0c-0.5-0.5-0.5-1.4,0-1.9C106.1,130.6,107,130.6,107.5,131.1"/>
		<path style="clip-path:url(#SVGID_00000023260407985130665620000004220023631346127505_);fill:#E30613;" d="M117.2,131.1
			c0.5,0.5,0.5,1.4,0,1.9c-0.5,0.5-1.4,0.5-1.9,0c-0.5-0.5-0.5-1.4,0-1.9C115.9,130.6,116.7,130.6,117.2,131.1"/>
		<path style="clip-path:url(#SVGID_00000023260407985130665620000004220023631346127505_);fill:#E30613;" d="M122.1,131.1
			c0.5,0.5,0.5,1.4,0,1.9c-0.5,0.5-1.4,0.5-1.9,0c-0.5-0.5-0.5-1.4,0-1.9C120.8,130.6,121.6,130.6,122.1,131.1"/>
		<path style="clip-path:url(#SVGID_00000023260407985130665620000004220023631346127505_);fill:#E30613;" d="M127,131.1
			c0.5,0.5,0.5,1.4,0,1.9c-0.5,0.5-1.4,0.5-1.9,0c-0.5-0.5-0.5-1.4,0-1.9C125.6,130.6,126.5,130.6,127,131.1"/>
		<path style="clip-path:url(#SVGID_00000023260407985130665620000004220023631346127505_);fill:#E30613;" d="M131.9,131.1
			c0.5,0.5,0.5,1.4,0,1.9c-0.5,0.5-1.4,0.5-1.9,0c-0.5-0.5-0.5-1.4,0-1.9C130.5,130.6,131.4,130.6,131.9,131.1"/>
	</g>
	<g>
		<defs>
			<path id="SVGID_00000172419677858781279950000004611809907194131608_" d="M106.6,111.3l-2.6,1.6c-2.7,2.3-7.9,6.5-7.9,6.5l-5.8,7
				l-0.1,0.2c2.9,0.9,11.5,3.2,11.5,3.2l8.9-9.3l17.4,12.4l0.3-3.5l-0.3-4c-0.2-0.1-2.8-2.4-5.8-5.1l-6.5-5.1l-5-3.7
				c0,0-2-0.2-3.5-0.2C107,111.3,106.8,111.3,106.6,111.3"/>
		</defs>
		<clipPath id="SVGID_00000163033560173019655080000001243008859538578598_">
			<use xlink:href="#SVGID_00000172419677858781279950000004611809907194131608_"  style="overflow:visible;"/>
		</clipPath>
	</g>
	<path d="M117.1,157.7c-0.5-0.4-1-0.7-1.6-1l-0.6-3.9l12.8-11.6c0.2,0.9,0.4,1.8,0.6,2.6l0.1,0.5
		C122.8,146.5,118.4,151.6,117.1,157.7 M107.6,162.6v-3.3h4.4c2.2,0,4,1.4,4.7,3.3H107.6z M104.1,142.8c-0.1-0.5-0.4-0.8-0.8-1.1
		l-10.8-6.2c-1.4-0.8-2.5-2.4-2.8-4.1c-0.2-1-0.1-2,0.2-2.9l4.9,1.3l6.2,1.7l6.1,6.1c1.5,1.5,2.6,3.5,3,5.7l2,12.6c0,0,0,0,0,0h-4.9
		L104.1,142.8z M92,144l1-4.4l8,4.6l2.6,11.4C101.8,150.2,97.5,145.9,92,144 M88.4,159.8l2.9-12.4c5.3,1.9,9.2,6.7,9.9,12.4H88.4z
		 M86.3,176.4c-8.3,0-15-6.7-15-15c0-8.3,6.7-15,15-15c0.6,0,1.2,0,1.7,0.1l-3.4,14.5c-0.1,0.5,0,1,0.3,1.4c0.3,0.4,0.8,0.6,1.3,0.6
		h14.9C100.3,170.6,94,176.4,86.3,176.4 M87.6,136.3c-1.6,0-3-1.3-3-3v-0.4h2c0.4,1.2,1,2.4,1.8,3.3H87.6z M103.9,114.1
		c1.1-1.1,2.6-1.7,4.2-1.7c1.6,0,3.1,0.6,4.2,1.7l14.5,12.8v3.5l-14.9-10.8c-0.3-0.2-0.6-0.3-1-0.3c-0.4,0-0.9,0.2-1.2,0.5l-8.4,8.4
		l-5.6-1.5l-3.5-1L103.9,114.1z M118.4,101.8c2.3,0,4.2,1.9,4.2,4.2c0,2.3-1.9,4.2-4.2,4.2c-2.3,0-4.2-1.9-4.2-4.2
		C114.2,103.7,116.1,101.8,118.4,101.8 M124.5,139.6l-10.2,9.3l-1-6.1c0,0,0,0,0,0c-0.2-1.1-0.5-2.2-1-3.2H124.5z M127,136.3h-16.7
		c-0.3-0.3-0.5-0.6-0.8-0.9l-5.3-5.3l6.9-6.9l15.8,11.4C126.9,135.2,126.9,135.7,127,136.3 M130.1,127.9h4c1.3,0,2.4,1.1,2.4,2.4
		c0,1.3-1.1,2.4-2.4,2.4h-2.3c-0.9,0-1.6,0.7-1.7,1.5c0-0.5,0-1,0-1.5V127.9z M151,166.3c-0.8-0.4-1.8,0-2.2,0.9
		c-2.3,5.6-7.8,9.2-13.8,9.2c-7.2,0-13.3-5.2-14.7-12c0,0,0-0.1,0-0.1c0-0.7-0.1-1.4-0.3-2.1c0-0.2,0-0.5,0-0.7
		c0-6.3,3.9-11.6,9.3-13.9l4,14.3c0.2,0.7,0.9,1.2,1.6,1.2c0.1,0,0.3,0,0.5-0.1c0.9-0.2,1.4-1.2,1.2-2.1l-4-14.3
		c0.8-0.1,1.6-0.2,2.4-0.2c6,0,11.3,3.5,13.7,9c0.4,0.8,1.4,1.2,2.2,0.9c0.8-0.4,1.2-1.4,0.9-2.2c-2.9-6.7-9.5-11-16.8-11
		c-1.1,0-2.3,0.1-3.3,0.3l-0.1-0.5c-0.5-1.7-0.8-3.5-1.1-5.2c0,0,0,0,0,0c-0.1-1-0.2-2-0.3-3.1c0.2,0.8,0.8,1.3,1.6,1.3h2.3
		c3.2,0,5.7-2.6,5.7-5.7c0-3.2-2.6-5.7-5.7-5.7h-5l-12.8-11.3c0.7,0.2,1.4,0.3,2.1,0.3c4.1,0,7.5-3.4,7.5-7.5c0-4.1-3.4-7.5-7.5-7.5
		c-4.1,0-7.5,3.4-7.5,7.5c0,1.4,0.4,2.7,1.1,3.9c-1.2-0.5-2.5-0.8-3.8-0.8c-2.5,0-4.8,1-6.6,2.7l-13.7,13.7c0,0,0,0,0,0
		c0,0-0.1,0.1-0.1,0.1c0,0,0,0,0,0c0,0,0,0,0,0c-0.9,1.2-1.4,2.5-1.5,4H83c-0.9,0-1.7,0.7-1.7,1.7v2c0,3.5,2.8,6.3,6.3,6.3h2
		l-0.9,3.7c-0.8-0.1-1.6-0.2-2.5-0.2c-10.1,0-18.3,8.2-18.3,18.3c0,6.2,3.1,11.6,7.8,15h-6.1c-0.9,0-1.7,0.7-1.7,1.7
		s0.7,1.7,1.7,1.7h16.6c9,0,16.6-6.6,18-15.2c0.1,0.8,0.8,1.5,1.7,1.5h11.3c1.1,4.3,3.7,8,7.2,10.4h-10.6c-0.9,0-1.7,0.7-1.7,1.7
		s0.7,1.7,1.7,1.7H135c7.4,0,14-4.4,16.9-11.2C152.3,167.7,151.9,166.7,151,166.3"/>
	<path class="st5" d="M117.1,157.7c-0.5-0.4-1-0.7-1.6-1l-0.6-3.9l12.8-11.6c0.2,0.9,0.4,1.8,0.6,2.6l0.1,0.5
		C122.8,146.5,118.4,151.6,117.1,157.7z M107.6,162.6v-3.3h4.4c2.2,0,4,1.4,4.7,3.3H107.6z M104.1,142.8c-0.1-0.5-0.4-0.8-0.8-1.1
		l-10.8-6.2c-1.4-0.8-2.5-2.4-2.8-4.1c-0.2-1-0.1-2,0.2-2.9l4.9,1.3l6.2,1.7l6.1,6.1c1.5,1.5,2.6,3.5,3,5.7l2,12.6c0,0,0,0,0,0h-4.9
		L104.1,142.8z M92,144l1-4.4l8,4.6l2.6,11.4C101.8,150.2,97.5,145.9,92,144z M88.4,159.8l2.9-12.4c5.3,1.9,9.2,6.7,9.9,12.4H88.4z
		 M86.3,176.4c-8.3,0-15-6.7-15-15c0-8.3,6.7-15,15-15c0.6,0,1.2,0,1.7,0.1l-3.4,14.5c-0.1,0.5,0,1,0.3,1.4c0.3,0.4,0.8,0.6,1.3,0.6
		h14.9C100.3,170.6,94,176.4,86.3,176.4z M87.6,136.3c-1.6,0-3-1.3-3-3v-0.4h2c0.4,1.2,1,2.4,1.8,3.3H87.6z M103.9,114.1
		c1.1-1.1,2.6-1.7,4.2-1.7c1.6,0,3.1,0.6,4.2,1.7l14.5,12.8v3.5l-14.9-10.8c-0.3-0.2-0.6-0.3-1-0.3c-0.4,0-0.9,0.2-1.2,0.5l-8.4,8.4
		l-5.6-1.5l-3.5-1L103.9,114.1z M118.4,101.8c2.3,0,4.2,1.9,4.2,4.2c0,2.3-1.9,4.2-4.2,4.2c-2.3,0-4.2-1.9-4.2-4.2
		C114.2,103.7,116.1,101.8,118.4,101.8z M124.5,139.6l-10.2,9.3l-1-6.1c0,0,0,0,0,0c-0.2-1.1-0.5-2.2-1-3.2H124.5z M127,136.3h-16.7
		c-0.3-0.3-0.5-0.6-0.8-0.9l-5.3-5.3l6.9-6.9l15.8,11.4C126.9,135.2,126.9,135.7,127,136.3z M130.1,127.9h4c1.3,0,2.4,1.1,2.4,2.4
		c0,1.3-1.1,2.4-2.4,2.4h-2.3c-0.9,0-1.6,0.7-1.7,1.5c0-0.5,0-1,0-1.5V127.9z M151,166.3c-0.8-0.4-1.8,0-2.2,0.9
		c-2.3,5.6-7.8,9.2-13.8,9.2c-7.2,0-13.3-5.2-14.7-12c0,0,0-0.1,0-0.1c0-0.7-0.1-1.4-0.3-2.1c0-0.2,0-0.5,0-0.7
		c0-6.3,3.9-11.6,9.3-13.9l4,14.3c0.2,0.7,0.9,1.2,1.6,1.2c0.1,0,0.3,0,0.5-0.1c0.9-0.2,1.4-1.2,1.2-2.1l-4-14.3
		c0.8-0.1,1.6-0.2,2.4-0.2c6,0,11.3,3.5,13.7,9c0.4,0.8,1.4,1.2,2.2,0.9c0.8-0.4,1.2-1.4,0.9-2.2c-2.9-6.7-9.5-11-16.8-11
		c-1.1,0-2.3,0.1-3.3,0.3l-0.1-0.5c-0.5-1.7-0.8-3.5-1.1-5.2c0,0,0,0,0,0c-0.1-1-0.2-2-0.3-3.1c0.2,0.8,0.8,1.3,1.6,1.3h2.3
		c3.2,0,5.7-2.6,5.7-5.7c0-3.2-2.6-5.7-5.7-5.7h-5l-12.8-11.3c0.7,0.2,1.4,0.3,2.1,0.3c4.1,0,7.5-3.4,7.5-7.5c0-4.1-3.4-7.5-7.5-7.5
		c-4.1,0-7.5,3.4-7.5,7.5c0,1.4,0.4,2.7,1.1,3.9c-1.2-0.5-2.5-0.8-3.8-0.8c-2.5,0-4.8,1-6.6,2.7l-13.7,13.7c0,0,0,0,0,0
		c0,0-0.1,0.1-0.1,0.1c0,0,0,0,0,0c0,0,0,0,0,0c-0.9,1.2-1.4,2.5-1.5,4H83c-0.9,0-1.7,0.7-1.7,1.7v2c0,3.5,2.8,6.3,6.3,6.3h2
		l-0.9,3.7c-0.8-0.1-1.6-0.2-2.5-0.2c-10.1,0-18.3,8.2-18.3,18.3c0,6.2,3.1,11.6,7.8,15h-6.1c-0.9,0-1.7,0.7-1.7,1.7
		s0.7,1.7,1.7,1.7h16.6c9,0,16.6-6.6,18-15.2c0.1,0.8,0.8,1.5,1.7,1.5h11.3c1.1,4.3,3.7,8,7.2,10.4h-10.6c-0.9,0-1.7,0.7-1.7,1.7
		s0.7,1.7,1.7,1.7H135c7.4,0,14-4.4,16.9-11.2C152.3,167.7,151.9,166.7,151,166.3z"/>
	<g>
		<defs>
			<path id="SVGID_00000160172781911399606730000014234223929916620699_" d="M209.1,102.6c-0.6,0.6-11.9,9.8-11.9,9.8l-7.2,8.7
				l-2.9,5.2l-6.9,1.2l0.9,7.2l7.8,1.2c0,0,3.5-1.2,4.3-0.6c0.9,0.6,10.4,5.8,11.3,6.1c0.9,0.3,4.3,22,4.3,22.5c0,0.6,3.4,4,4.9,4.3
				c1.6,0.3,11,0.9,11,0c0-0.9-5.8-9.8-5.8-9.8l-1.2-11l-1.7-8l-1.7-3.3l-3.5-3.2l-2.9-3.2l-2.6-1.7l-1.4-2.3l8.8-6.4l2.6-3.5
				l13.8,8.4l7.8,5.5l0.9-9.8l-16.2-12.7l-6.2-4.6c0,0-2.5-0.3-4.3-0.3C210.1,102.3,209.3,102.4,209.1,102.6"/>
		</defs>
		<clipPath id="SVGID_00000157299983976887155930000002682715661184959377_">
			<use xlink:href="#SVGID_00000160172781911399606730000014234223929916620699_"  style="overflow:visible;"/>
		</clipPath>
		<path style="clip-path:url(#SVGID_00000157299983976887155930000002682715661184959377_);fill:#FFFF00;" d="M236.9,119.9
			c-0.6-0.3-18.5-16.5-19.1-17.1s-7.2-0.7-7.2-0.7l-11,6.8c0,0-12.4,11.6-10.7,12.1s15.3,4.3,15.3,4.3l11.1-11.6l22.4,16
			L236.9,119.9z"/>
	</g>
	<g>
		<defs>
			<path id="SVGID_00000057135785542541613070000002845337256409371279_" d="M209.1,102.6c-0.6,0.6-11.9,9.8-11.9,9.8l-7.2,8.7
				l-2.9,5.2l-6.9,1.2l0.9,7.2l7.8,1.2c0,0,3.5-1.2,4.3-0.6c0.9,0.6,10.4,5.8,11.3,6.1c0.9,0.3,4.3,22,4.3,22.5c0,0.6,3.4,4,4.9,4.3
				c1.6,0.3,11,0.9,11,0c0-0.9-5.8-9.8-5.8-9.8l-1.2-11l-1.7-8l-1.7-3.3l-3.5-3.2l-2.9-3.2l-2.6-1.7l-1.4-2.3l8.8-6.4l2.6-3.5
				l13.8,8.4l7.8,5.5l0.9-9.8l-16.2-12.7l-6.2-4.6c0,0-2.5-0.3-4.3-0.3C210.1,102.3,209.3,102.4,209.1,102.6"/>
		</defs>
		<clipPath id="SVGID_00000077295029170475571420000008919646729464999040_">
			<use xlink:href="#SVGID_00000057135785542541613070000002845337256409371279_"  style="overflow:visible;"/>
		</clipPath>
	</g>
	<path d="M223.4,160c-0.6-0.5-1.3-0.9-1.9-1.2l-0.8-4.9l15.9-14.4c0.2,1.1,0.5,2.2,0.8,3.3l0.2,0.6C230.4,146.2,225,152.4,223.4,160
		 M211.6,166.2V162h5.5c2.7,0,5,1.7,5.9,4.1H211.6z M207.2,141.5c-0.1-0.6-0.5-1-1-1.3l-13.4-7.8c-1.7-1-3.1-2.9-3.5-5.1
		c-0.3-1.3-0.2-2.5,0.2-3.6l6,1.7l7.7,2.1l7.6,7.6c1.9,1.9,3.2,4.4,3.7,7l2.5,15.7c0,0,0,0,0,0h-6.1L207.2,141.5z M192.1,143.1
		l1.3-5.5l9.9,5.7l3.3,14.2C204.3,150.7,198.9,145.3,192.1,143.1 M187.6,162.6l3.6-15.5c6.6,2.3,11.5,8.3,12.3,15.5H187.6z
		 M185,183.3c-10.3,0-18.6-8.4-18.6-18.6c0-10.3,8.4-18.6,18.6-18.6c0.7,0,1.4,0,2.2,0.1l-4.2,18c-0.1,0.6,0,1.3,0.4,1.8
		c0.4,0.5,1,0.8,1.6,0.8h18.5C202.5,176.1,194.6,183.3,185,183.3 M186.7,133.4c-2,0-3.7-1.7-3.7-3.7v-0.5h2.5
		c0.5,1.5,1.2,2.9,2.2,4.1H186.7z M206.9,105.8c1.4-1.4,3.3-2.2,5.2-2.2c2,0,3.8,0.8,5.2,2.2l18,16v4.3l-18.6-13.4
		c-0.4-0.3-0.8-0.4-1.2-0.4c-0.5,0-1.1,0.2-1.5,0.6l-10.5,10.5l-6.9-1.9l-4.3-1.2L206.9,105.8z M225,90.5c2.9,0,5.2,2.3,5.2,5.2
		s-2.3,5.2-5.2,5.2c-2.9,0-5.2-2.3-5.2-5.2S222.1,90.5,225,90.5 M232.6,137.5l-12.7,11.5l-1.2-7.5c0,0,0,0,0,0
		c-0.3-1.4-0.7-2.7-1.2-3.9H232.6z M235.6,133.4h-20.8c-0.3-0.4-0.7-0.8-1.1-1.2l-6.5-6.5l8.6-8.6l19.6,14.2
		C235.5,132,235.6,132.7,235.6,133.4 M239.6,122.9h4.9c1.6,0,3,1.3,3,3c0,1.6-1.3,3-3,3h-2.8c-1.1,0-2,0.8-2.1,1.9
		c0-0.6,0-1.3,0-1.9V122.9z M265.6,170.8c-1.1-0.4-2.3,0.1-2.7,1.1c-2.9,6.9-9.7,11.4-17.2,11.4c-9,0-16.6-6.4-18.3-15
		c0,0,0-0.1,0-0.1c0-0.9-0.1-1.8-0.3-2.6c0-0.3,0-0.6,0-0.9c0-7.8,4.8-14.5,11.6-17.2l5,17.8c0.3,0.9,1.1,1.5,2,1.5
		c0.2,0,0.4,0,0.6-0.1c1.1-0.3,1.7-1.5,1.4-2.6l-5-17.8c1-0.2,2-0.2,3-0.2c7.4,0,14.1,4.4,17.1,11.2c0.5,1.1,1.7,1.5,2.7,1.1
		c1-0.5,1.5-1.7,1.1-2.7c-3.6-8.3-11.8-13.7-20.9-13.7c-1.4,0-2.8,0.1-4.1,0.4l-0.2-0.6c-0.6-2.1-1-4.3-1.3-6.5c0,0,0,0,0,0
		c-0.2-1.3-0.3-2.5-0.4-3.8c0.2,1,1,1.7,2,1.7h2.8c3.9,0,7.1-3.2,7.1-7.1c0-3.9-3.2-7.1-7.1-7.1h-6.2l-15.9-14.1
		c0.8,0.2,1.7,0.4,2.6,0.4c5.1,0,9.3-4.2,9.3-9.3s-4.2-9.3-9.3-9.3c-5.1,0-9.3,4.2-9.3,9.3c0,1.8,0.5,3.4,1.3,4.8
		c-1.5-0.7-3.1-1-4.8-1c-3.1,0-6,1.2-8.2,3.4l-17,17c0,0,0,0,0,0c-0.1,0.1-0.1,0.1-0.2,0.2c0,0,0,0,0,0c0,0,0,0,0,0
		c-1.1,1.4-1.7,3.2-1.8,5h-4.1c-1.1,0-2.1,0.9-2.1,2.1v2.5c0,4.3,3.5,7.8,7.8,7.8h2.5l-1.1,4.6c-1-0.1-2-0.2-3.1-0.2
		c-12.6,0-22.8,10.2-22.8,22.8c0,7.7,3.8,14.5,9.7,18.6h-7.6c-1.1,0-2.1,0.9-2.1,2.1c0,1.1,0.9,2.1,2.1,2.1H185
		c11.3,0,20.6-8.2,22.4-19c0.1,1,1,1.8,2.1,1.8h14.1c1.4,5.3,4.6,9.9,9,13h-13.2c-1.1,0-2.1,0.9-2.1,2.1c0,1.1,0.9,2.1,2.1,2.1h26.3
		c9.2,0,17.4-5.5,21-13.9C267.1,172.5,266.6,171.3,265.6,170.8"/>
</g>
</svg>
