<?xml version="1.0" encoding="utf-8"?>
<!-- Generator: Adobe Illustrator 27.2.0, SVG Export Plug-In . SVG Version: 6.00 Build 0)  -->
<svg version="1.1" xmlns="http://www.w3.org/2000/svg" xmlns:xlink="http://www.w3.org/1999/xlink" x="0px" y="0px"
	 viewBox="0 0 300 250" style="enable-background:new 0 0 300 250;" xml:space="preserve">
<style type="text/css">
	.st0{fill:#FFFFFF;}
</style>
<g id="Layer_1">
</g>
<g id="_x3C_Layer_x3E_">
	<g>
		<path class="st0" d="M261.3,83.8c0,15.4-12.5,27.9-27.9,27.9s-27.9-12.5-27.9-27.9c0-15.4,12.5-27.9,27.9-27.9
			S261.3,68.4,261.3,83.8"/>
	</g>
	<g>
		<path d="M147.7,103.7c-0.3,10.2-8.9,18.3-19.1,18c-10.2-0.3-18.2-8.9-17.9-19.1c0.3-10.2,8.9-18.3,19.1-18
			C140,84.9,148.1,93.4,147.7,103.7 M102.2,104.3c-0.5,15.1,11.3,27.7,26.4,28.2c15.1,0.5,27.6-11.4,28.1-26.4
			c0.5-15.1-11.3-27.7-26.4-28.2C115.2,77.4,102.6,89.3,102.2,104.3"/>
	</g>
	<g>
		<path d="M126.2,101.6c0,2.1,1.6,3.7,3.7,3.8c2,0,3.7-1.6,3.7-3.7c0-2.1-1.6-3.7-3.7-3.8C127.9,97.9,126.2,99.6,126.2,101.6"/>
	</g>
	<g>
		<path d="M172.6,86.1c3.9-7,7.1-36.9,7.1-36.9s-8.3,32.3-15.8,31.8c-4.9-0.2-13.9-20.7-13.9-20.7s0.8,14.1,3.9,21.9
			C157.8,91.5,166.2,97.6,172.6,86.1"/>
	</g>
	<g>
		<path d="M201.6,112.6c-0.8,1.1-2,2-2,2c0-1.5,0.3-4.9,1.8-5.8C202.5,108.3,202.8,111.1,201.6,112.6 M205.1,109.1
			c-0.4-4.1-4.4-5.2-6.8-2.7c-2.1,2.2-3.7,6.7-1.7,12.3c0.9,2.2,2.5,3.4,4.6,3.6c0.1,0,0.1,0,0.2,0c2,0,4.3-1.9,5.7-4.8
			c1.1-2.2,1.6-4.5,1.6-4.5l0-0.2l-1-0.3l-0.1,0.2c-0.7,1.7-3.3,6.4-5.7,6.2c-1.8-0.1-2-2-2-2.6
			C202.3,114.8,205.4,112.3,205.1,109.1"/>
	</g>
	<g>
		<path d="M184.1,124.6c-3.5,2.1,1-8,2.9-8.8c1.4-0.6,1.7,1.5,1.3,2.8C187.9,119.8,185.8,123.6,184.1,124.6 M190.7,121.5
			c1,1.7,3.7,3.7,4.3,4.1l0.2,0.1l1.3-0.4c0,0-2.4-3.2-3.5-8.5l-1.9-19.6l-0.9,0.8l-1.5,14.6c-0.5-0.3-1.1-0.4-1.7-0.2
			c-3.2,0.7-7.8,7.3-8.4,11.1c-0.3,1.9,1,5.4,4.3,5.6C184.7,129.2,187.6,127.8,190.7,121.5"/>
	</g>
	<g>
		<path d="M60.4,158.2c6.4-2.7,13.7-6.1,21.4-9.9c0,0,0.9-1.6,1.1-2.2c0,0-10.3,0.8-22,3.5c0,0,0,0,0,0
			c1.2-17.1,10.8-28.7,17.4-32.9l-3.3-0.6c-17.9,1.4-26.4,19.6-26.3,36.8c0,0,0,0,0,0.1c-3.8,1.3-7.5,2.8-10.6,4.6
			c0,0,0.3,2.7,0.3,4.6c0,1.9-0.3,4.7-0.3,4.7s4.3-1.5,11.3-4.2c1.2,13.6,4.6,34.2,10.8,51.6l1.8,0
			C62.1,214.3,59.3,183.3,60.4,158.2"/>
	</g>
	<g>
		<path d="M101.8,177.8c0.8-5.2-23.8-21.7-26.5-14.7c-3.2,8.3-4.3,48.3-4.3,48.3l2.5-1.2l9.3-39.3c9.8,7,11.6,5,2.5,15.1l-0.9,1
			c-0.4,0.4-0.5,1-0.3,1.5l2.4,6.2c0.2,0.6,0.8,1.1,1.5,1.2l19.1,3.8l-16.3-10C94.1,186.5,101.4,181.9,101.8,177.8"/>
	</g>
	<g>
		<path d="M170.3,142.9c-5.9,1.1-15.7,20.5-15.7,20.5l-5.8-15.2c-0.2,14.7,2,33.8,2,33.8l4.4,2l14.6-28.9c0,0,0.9,6.9,7.4,21.7
			l1.5-0.6C177.8,165.3,179,141.4,170.3,142.9"/>
	</g>
	<g>
		<path d="M194.8,154.6c-4.2-12.3,15.2-24.2,15.2-24.2l-0.1-1.8c0,0-26.2,10.9-26.4,25.8c-0.2,12.3,11,15.5,22.1,13
			c8.1-1.8,14.4-6.8,14.4-6.8l-0.7-0.4C219.3,160.3,198.8,166.5,194.8,154.6"/>
	</g>
	<g>
		<path d="M238,124.5c3.2-0.1-2.1,10.4-11.4,12.7C228,130.2,236.1,124.6,238,124.5 M228,149.6c-2.8-3.4-1.8-8.2-1.8-8.2
			c11-3,18.6-13.8,17.5-19.2c-0.8-4.2-7-6.6-15.4-0.6c-14.7,11.8-13.9,33.5-2.3,37.1c14.5,3.8,33.6-21.5,35.2-23.7
			c0.1-0.1,0.1-0.2,0.1-0.3v-1.4C258.6,137.6,234.5,157.6,228,149.6"/>
	</g>
	<polygon points="250.6,123.8 251.9,123.8 251.9,118.4 253.6,118.4 253.6,117.3 248.9,117.3 248.9,118.4 250.6,118.4 	"/>
	<g>
		<path d="M259.5,117.3l-1.6,5l0,0l-1.5-5l-1.8,0v6.5l1.2,0v-3c0-0.3,0-1-0.1-2.1h0l1.5,5.1l1.2,0l1.6-5.1h0c0,0.8-0.1,1.3-0.1,1.5
			c0,0.2,0,0.4,0,0.5v3.1l1.2,0v-6.5L259.5,117.3z"/>
	</g>
	<g>
		<path d="M90.5,146.4c8.1-38.8,4.2-59.6,4.1-65.1c4.1-1.7,36.1-18.7,36.1-18.7c-10.5,1.3-50.5,11.1-78,25
			c13.1-0.9,28.2-2.6,33.2-3.5C84.5,103.1,85.8,131,90.5,146.4"/>
	</g>
	<g>
		<path d="M235.1,45.4c2.6,0,4.8-2.1,4.8-4.7c0-2.6-2.1-4.8-4.7-4.8c-2.6,0-4.8,2.1-4.8,4.7C230.4,43.2,232.5,45.4,235.1,45.4"/>
	</g>
	<g>
		<path d="M177.2,111.6c6.2-13.2,18.7-55.5,19.4-62.3c0.3-2.5,17.3-4,21.4-1.8c0,0-10.9,6.4-13.7,9.7c-2.6,3.1-3.6,6.4,0.5,9.3
			c3.9,2.7,27.2,14.6,27.2,14.6l-0.1-2.1l-22.9-17c7.8-4.3,19.3-11,19.4-14.8c0-0.1,0-0.2,0-0.3c0,0,0,0,0,0c0,0,0,0,0,0
			c0-0.1,0-0.2,0-0.3c-0.4-2.8-4.4-7.4-10.9-8.8c0,0,0,0,0,0c-7.7-1.9-22.9-2.1-29.3,5.2c-1.7,2-4.2,16-13.6,70.2L177.2,111.6z"/>
	</g>
	<g>
		<path d="M133.1,168.2L133.1,168.2C133.1,168.2,133.1,168.2,133.1,168.2C133.1,168.2,133.1,168.2,133.1,168.2
			c-0.1,0.2-0.4,0.8-1.1,3.1c-0.9,2.6-1.7,4.9-3.9,8.2c-3.8,4.8-8.8,8.3-10.5,6.7c-3.8-3.5,7.2-19.8,16.6-31.3l-4.2-0.5
			c-9.2,7.9-22.3,23.4-22.2,35.1c0.1,14.4,27,4.8,28.5-14c1.2,3.5,8.6,12,8.6,12s-3.6-11.5-6-18.8
			C137.9,165.9,134.2,165.9,133.1,168.2"/>
	</g>
</g>
</svg>
