<?xml version="1.0" encoding="utf-8"?>
<!-- Generator: Adobe Illustrator 27.2.0, SVG Export Plug-In . SVG Version: 6.00 Build 0)  -->
<svg version="1.1" id="Layer_1" xmlns="http://www.w3.org/2000/svg" xmlns:xlink="http://www.w3.org/1999/xlink" x="0px" y="0px"
	 viewBox="0 0 223.2 178.4" style="enable-background:new 0 0 223.2 178.4;" xml:space="preserve">
<style type="text/css">
	.st0{fill:#FFFFFF;}
	.st1{fill:#FFFF00;}
</style>
<g id="Layer_1_00000028283575813383653500000013933673289789750681_">
</g>
<g id="_x3C_Layer_x3E_">
	<g>
		<path class="st0" d="M223.2,47.9c0,15.4-12.5,27.9-27.9,27.9s-27.9-12.5-27.9-27.9S179.9,20,195.3,20S223.2,32.5,223.2,47.9"/>
	</g>
	<g>
		<path class="st1" d="M109.6,67.8c-0.3,10.2-8.9,18.3-19.1,18c-10.2-0.3-18.2-8.9-17.9-19.1c0.3-10.2,8.9-18.3,19.1-18
			C101.9,49,110,57.5,109.6,67.8 M64.1,68.4c-0.5,15.1,11.3,27.7,26.4,28.2c15.1,0.5,27.6-11.4,28.1-26.4
			c0.5-15.1-11.3-27.7-26.4-28.2C77.1,41.5,64.5,53.4,64.1,68.4"/>
	</g>
	<g>
		<path class="st1" d="M88.1,65.7c0,2.1,1.6,3.7,3.7,3.8c2,0,3.7-1.6,3.7-3.7s-1.6-3.7-3.7-3.8C89.8,62,88.1,63.7,88.1,65.7"/>
	</g>
	<g>
		<path class="st1" d="M134.5,50.2c3.9-7,7.1-36.9,7.1-36.9s-8.3,32.3-15.8,31.8c-4.9-0.2-13.9-20.7-13.9-20.7s0.8,14.1,3.9,21.9
			C119.7,55.6,128.1,61.7,134.5,50.2"/>
	</g>
	<g>
		<path class="st1" d="M163.5,76.7c-0.8,1.1-2,2-2,2c0-1.5,0.3-4.9,1.8-5.8C164.4,72.4,164.7,75.2,163.5,76.7 M167,73.2
			c-0.4-4.1-4.4-5.2-6.8-2.7c-2.1,2.2-3.7,6.7-1.7,12.3c0.9,2.2,2.5,3.4,4.6,3.6c0.1,0,0.1,0,0.2,0c2,0,4.3-1.9,5.7-4.8
			c1.1-2.2,1.6-4.5,1.6-4.5v-0.2l-1-0.3l-0.1,0.2c-0.7,1.7-3.3,6.4-5.7,6.2c-1.8-0.1-2-2-2-2.6C164.2,78.9,167.3,76.4,167,73.2"/>
	</g>
	<g>
		<path class="st1" d="M146,88.7c-3.5,2.1,1-8,2.9-8.8c1.4-0.6,1.7,1.5,1.3,2.8C149.8,83.9,147.7,87.7,146,88.7 M152.6,85.6
			c1,1.7,3.7,3.7,4.3,4.1l0.2,0.1l1.3-0.4c0,0-2.4-3.2-3.5-8.5L153,61.3l-0.9,0.8l-1.5,14.6c-0.5-0.3-1.1-0.4-1.7-0.2
			c-3.2,0.7-7.8,7.3-8.4,11.1c-0.3,1.9,1,5.4,4.3,5.6C146.6,93.3,149.5,91.9,152.6,85.6"/>
	</g>
	<g>
		<path class="st1" d="M22.3,122.3c6.4-2.7,13.7-6.1,21.4-9.9c0,0,0.9-1.6,1.1-2.2c0,0-10.3,0.8-22,3.5l0,0
			C24,96.6,33.6,85,40.2,80.8l-3.3-0.6C19,81.6,10.5,99.8,10.6,117c0,0,0,0,0,0.1c-3.8,1.3-7.5,2.8-10.6,4.6c0,0,0.3,2.7,0.3,4.6
			c0,1.9-0.3,4.7-0.3,4.7s4.3-1.5,11.3-4.2c1.2,13.6,4.6,34.2,10.8,51.6h1.8C24,178.4,21.2,147.4,22.3,122.3"/>
	</g>
	<g>
		<path class="st1" d="M63.7,141.9c0.8-5.2-23.8-21.7-26.5-14.7c-3.2,8.3-4.3,48.3-4.3,48.3l2.5-1.2l9.3-39.3c9.8,7,11.6,5,2.5,15.1
			l-0.9,1c-0.4,0.4-0.5,1-0.3,1.5l2.4,6.2c0.2,0.6,0.8,1.1,1.5,1.2l19.1,3.8l-16.3-10C56,150.6,63.3,146,63.7,141.9"/>
	</g>
	<g>
		<path class="st1" d="M132.2,107c-5.9,1.1-15.7,20.5-15.7,20.5l-5.8-15.2c-0.2,14.7,2,33.8,2,33.8l4.4,2l14.6-28.9
			c0,0,0.9,6.9,7.4,21.7l1.5-0.6C139.7,129.4,140.9,105.5,132.2,107"/>
	</g>
	<g>
		<path class="st1" d="M156.7,118.7c-4.2-12.3,15.2-24.2,15.2-24.2l-0.1-1.8c0,0-26.2,10.9-26.4,25.8c-0.2,12.3,11,15.5,22.1,13
			c8.1-1.8,14.4-6.8,14.4-6.8l-0.7-0.4C181.2,124.4,160.7,130.6,156.7,118.7"/>
	</g>
	<g>
		<path class="st1" d="M199.9,88.6c3.2-0.1-2.1,10.4-11.4,12.7C189.9,94.3,198,88.7,199.9,88.6 M189.9,113.7
			c-2.8-3.4-1.8-8.2-1.8-8.2c11-3,18.6-13.8,17.5-19.2c-0.8-4.2-7-6.6-15.4-0.6c-14.7,11.8-13.9,33.5-2.3,37.1
			c14.5,3.8,33.6-21.5,35.2-23.7c0.1-0.1,0.1-0.2,0.1-0.3v-1.4C220.5,101.7,196.4,121.7,189.9,113.7"/>
	</g>
	<polygon class="st1" points="212.5,87.9 213.8,87.9 213.8,82.5 215.5,82.5 215.5,81.4 210.8,81.4 210.8,82.5 212.5,82.5 	"/>
	<g>
		<path class="st1" d="M221.4,81.4l-1.6,5l0,0l-1.5-5h-1.8v6.5h1.2v-3c0-0.3,0-1-0.1-2.1l0,0l1.5,5.1h1.2l1.6-5.1l0,0
			c0,0.8-0.1,1.3-0.1,1.5s0,0.4,0,0.5v3.1h1.2v-6.5H221.4z"/>
	</g>
	<g>
		<path class="st1" d="M52.4,110.5c8.1-38.8,4.2-59.6,4.1-65.1c4.1-1.7,36.1-18.7,36.1-18.7c-10.5,1.3-50.5,11.1-78,25
			c13.1-0.9,28.2-2.6,33.2-3.5C46.4,67.2,47.7,95.1,52.4,110.5"/>
	</g>
	<g>
		<path class="st1" d="M197,9.5c2.6,0,4.8-2.1,4.8-4.7c0-2.6-2.1-4.8-4.7-4.8s-4.8,2.1-4.8,4.7C192.3,7.3,194.4,9.5,197,9.5"/>
	</g>
	<g>
		<path class="st1" d="M139.1,75.7c6.2-13.2,18.7-55.5,19.4-62.3c0.3-2.5,17.3-4,21.4-1.8c0,0-10.9,6.4-13.7,9.7
			c-2.6,3.1-3.6,6.4,0.5,9.3c3.9,2.7,27.2,14.6,27.2,14.6l-0.1-2.1l-22.9-17c7.8-4.3,19.3-11,19.4-14.8c0-0.1,0-0.2,0-0.3l0,0l0,0
			c0-0.1,0-0.2,0-0.3c-0.4-2.8-4.4-7.4-10.9-8.8l0,0c-7.7-1.9-22.9-2.1-29.3,5.2c-1.7,2-4.2,16-13.6,70.2L139.1,75.7z"/>
	</g>
	<g>
		<path class="st1" d="M95,132.3L95,132.3L95,132.3L95,132.3c-0.1,0.2-0.4,0.8-1.1,3.1c-0.9,2.6-1.7,4.9-3.9,8.2
			c-3.8,4.8-8.8,8.3-10.5,6.7c-3.8-3.5,7.2-19.8,16.6-31.3l-4.2-0.5c-9.2,7.9-22.3,23.4-22.2,35.1c0.1,14.4,27,4.8,28.5-14
			c1.2,3.5,8.6,12,8.6,12s-3.6-11.5-6-18.8C99.8,130,96.1,130,95,132.3"/>
	</g>
</g>
</svg>
