<?xml version="1.0" encoding="UTF-8"?>
<svg id="_Layer_" data-name="&amp;lt;Layer&amp;gt;" xmlns="http://www.w3.org/2000/svg" viewBox="0 0 194.43 160.59">
  <defs>
    <style>
      .cls-1 {
        fill: #0075bf;
      }

      .cls-2 {
        fill: #fff;
      }

      .cls-3 {
        fill: #e30613;
      }

      .cls-4 {
        fill: none;
        stroke: #000;
        stroke-miterlimit: 10;
      }
    </style>
  </defs>
  <path d="m42.09,64.41h-2.75c-1.52,0-2.75-1.23-2.75-2.75s1.23-2.75,2.75-2.75h2.75c1.52,0,2.75,1.23,2.75,2.75s-1.23,2.75-2.75,2.75"/>
  <path d="m77.82,80.9h-5.56c-1.52,0-2.75-1.23-2.75-2.75s1.23-2.75,2.75-2.75h5.6c.73,0,1.42.29,1.93.81.51.52.8,1.21.79,1.94-.01,1.52-1.25,2.75-2.77,2.75"/>
  <path d="m47.01,78.15c0,1.52-1.23,2.75-2.75,2.75h-5.6c-1.52,0-2.75-1.23-2.75-2.75s1.23-2.75,2.75-2.75h5.6c1.52,0,2.75,1.23,2.75,2.75"/>
  <path d="m58.89,64.41h-5.6c-1.52,0-2.75-1.23-2.75-2.75s1.23-2.75,2.75-2.75h5.6c1.52,0,2.75,1.23,2.75,2.75s-1.23,2.75-2.75,2.75"/>
  <path d="m132.19,155.1h5.6c1.52,0,2.75,1.23,2.75,2.75s-1.23,2.75-2.75,2.75h-5.6c-1.52,0-2.75-1.23-2.75-2.75s1.23-2.75,2.75-2.75"/>
  <path d="m85.89,74.36c-.19,0-.38-.02-.57-.06-1.48-.31-2.43-1.77-2.12-3.25.08-.38.12-.76.12-1.14,0-.87-.2-1.73-.6-2.5-.69-1.35-.15-3.01,1.2-3.7,1.35-.69,3.01-.15,3.7,1.2,1.14,2.24,1.48,4.8.96,7.25-.26,1.27-1.39,2.19-2.68,2.19"/>
  <path d="m61.05,80.9h-5.6c-1.52,0-2.75-1.23-2.75-2.75s1.23-2.75,2.75-2.75h5.6c1.52,0,2.75,1.23,2.75,2.75s-1.23,2.75-2.75,2.75"/>
  <path d="m75.69,64.41h-5.6c-1.52,0-2.75-1.23-2.75-2.75s1.23-2.75,2.75-2.75h5.6c1.52,0,2.75,1.23,2.75,2.75s-1.23,2.75-2.75,2.75"/>
  <path d="m102.85,112.16c-.22.06-.44.08-.67.08-1.26,0-2.36-.86-2.66-2.08-.36-1.41-1.03-2.73-1.96-3.85-.66-.75-.86-1.79-.53-2.73.33-.94,1.15-1.63,2.13-1.79.98-.16,1.98.22,2.6.99,1.47,1.76,2.53,3.82,3.08,6.05.18.71.07,1.46-.31,2.08-.37.63-.98,1.08-1.69,1.25"/>
  <path d="m48.56,154.98c.59.08,1.18.12,1.78.12h3.46c1.52,0,2.75,1.23,2.75,2.75s-1.23,2.75-2.75,2.75h-3.46c-.83,0-1.65-.05-2.47-.16-1.51-.19-2.57-1.57-2.38-3.08.19-1.51,1.57-2.57,3.08-2.37h-.01Z"/>
  <path d="m44.73,122.94c1.82-.55,3.71-.83,5.61-.82h.72c1.52,0,2.75,1.23,2.75,2.75s-1.23,2.75-2.75,2.75h-.72c-1.36,0-2.71.2-4.01.59-.26.08-.53.12-.8.12-1.36,0-2.52-1-2.72-2.34-.2-1.35.62-2.64,1.92-3.03h0Z"/>
  <path d="m50.59,102.88c-1.52,0-2.75-1.23-2.75-2.75s1.23-2.75,2.75-2.75h5.6c1.52,0,2.75,1.23,2.75,2.75s-1.23,2.75-2.75,2.75h-5.6Z"/>
  <path d="m34.17,145.61c1.38-.62,3.01,0,3.63,1.37.64,1.42,1.52,2.72,2.6,3.85.71.71.97,1.73.7,2.69-.27.96-1.04,1.7-2.01,1.92-.97.23-1.99-.08-2.66-.82-1.51-1.58-2.74-3.4-3.64-5.39-.62-1.38,0-3.01,1.38-3.63"/>
  <path d="m19.78,89.63c.7-.21,1.45-.13,2.09.22.64.35,1.12.94,1.32,1.64.4,1.35,1.14,2.57,2.15,3.56,1.08,1.06,1.1,2.8.04,3.89-1.06,1.08-2.8,1.1-3.89.04-1.67-1.64-2.9-3.68-3.57-5.93-.21-.7-.13-1.45.22-2.09.35-.64.94-1.12,1.64-1.32"/>
  <path d="m22.91,84.55c-1.09,0-2.07-.64-2.51-1.63-.44-.99-.26-2.15.46-2.96,1.57-1.75,3.56-3.06,5.77-3.83,1.43-.49,3,.27,3.49,1.71.49,1.44-.27,3-1.71,3.49-1.33.46-2.52,1.25-3.46,2.3-.52.58-1.27.91-2.05.91"/>
  <path d="m62.25,122.12h5.6c1.52,0,2.75,1.23,2.75,2.75s-1.23,2.75-2.75,2.75h-5.6c-1.52,0-2.75-1.23-2.75-2.75s1.23-2.75,2.75-2.75"/>
  <path d="m33.79,97.39h5.6c1.52,0,2.75,1.23,2.75,2.75s-1.23,2.75-2.75,2.75h-5.6c-1.52,0-2.75-1.23-2.75-2.75s1.23-2.75,2.75-2.75"/>
  <path d="m115.39,155.1h5.6c1.52,0,2.75,1.23,2.75,2.75s-1.23,2.75-2.75,2.75h-5.6c-1.52,0-2.75-1.23-2.75-2.75s1.23-2.75,2.75-2.75"/>
  <path d="m34.42,130.56c.86-1.25,2.57-1.58,3.83-.72,1.25.86,1.58,2.57.72,3.83-.88,1.29-1.53,2.71-1.92,4.22-.21.98-.95,1.77-1.92,2.05-.97.28-2.01.01-2.72-.7-.71-.71-.97-1.76-.68-2.72.55-2.12,1.46-4.14,2.7-5.95"/>
  <path d="m94.44,121.13c1.31-.65,2.45-1.58,3.34-2.73.93-1.2,2.66-1.42,3.86-.48,1.2.93,1.41,2.66.49,3.86-1.41,1.81-3.2,3.27-5.25,4.29-1.35.63-2.97.07-3.63-1.27-.66-1.34-.13-2.96,1.19-3.65"/>
  <path d="m98.59,155.1h5.61c1.52,0,2.75,1.23,2.75,2.75s-1.23,2.75-2.75,2.75h-5.61c-1.52,0-2.75-1.23-2.75-2.75s1.23-2.75,2.75-2.75"/>
  <path d="m64.99,155.1h5.6c1.52,0,2.75,1.23,2.75,2.75s-1.23,2.75-2.75,2.75h-5.6c-1.52,0-2.75-1.23-2.75-2.75s1.23-2.75,2.75-2.75"/>
  <path d="m84.18,102.88c-1.52,0-2.75-1.23-2.75-2.75s1.23-2.75,2.75-2.75h5.6c1.52,0,2.75,1.23,2.75,2.75s-1.23,2.75-2.75,2.75h-5.6Z"/>
  <path d="m67.38,102.88c-1.52,0-2.75-1.23-2.75-2.75s1.23-2.75,2.75-2.75h5.61c1.52,0,2.75,1.23,2.75,2.75s-1.23,2.75-2.75,2.75h-5.61Z"/>
  <path d="m79.05,122.12h5.6c1.52,0,2.75,1.23,2.75,2.75s-1.23,2.75-2.75,2.75h-5.6c-1.52,0-2.75-1.23-2.75-2.75s1.23-2.75,2.75-2.75"/>
  <path d="m81.79,155.1h5.6c1.52,0,2.75,1.23,2.75,2.75s-1.23,2.75-2.75,2.75h-5.6c-1.52,0-2.75-1.23-2.75-2.75s1.23-2.75,2.75-2.75"/>
  <path d="m149.27,155.1h2.75c1.52,0,2.75,1.23,2.75,2.75s-1.23,2.75-2.75,2.75h-2.75c-1.52,0-2.75-1.23-2.75-2.75s1.23-2.75,2.75-2.75"/>
  <path class="cls-1" d="m20.54,3.24s-13,5-13,6-4,14-4,14l4,14s12,18,13,18,21-28,21-28l-3-14-9-8-9-2Z"/>
  <path class="cls-2" d="m21.54,24.24c2.21,0,4-1.79,4-4s-1.79-4-4-4-4,1.79-4,4,1.79,4,4,4"/>
  <path d="m21.98,5.5c-9.1,0-16.48,7.39-16.49,16.49,0,6.96,10.49,21.31,16.49,28.69,6-7.37,16.49-21.71,16.49-28.69,0-9.1-7.39-16.48-16.49-16.49m0,52.21c-.8,0-1.56-.35-2.08-.96C17.86,54.39,0,33.3,0,21.98,0,9.84,9.84,0,21.98,0s21.98,9.84,21.98,21.98c0,11.32-17.86,32.4-19.9,34.77-.52.61-1.28.96-2.08.96"/>
  <path d="m24.73,19.24c0-1.52-1.23-2.75-2.75-2.75s-2.75,1.23-2.75,2.75,1.23,2.75,2.75,2.75,2.75-1.23,2.75-2.75m-10.99,0c0-4.55,3.69-8.24,8.24-8.24s8.24,3.69,8.24,8.24-3.69,8.24-8.24,8.24-8.24-3.69-8.24-8.24"/>
  <path class="cls-3" d="m170.08,95.44l-7.72,3-11,7.87-2,10.13s1,11,2,12,17,28,17,28l8.86-9,15.14-34-6-11s-10-4-11-5-5.28-2-5.28-2"/>
  <path d="m170.08,98.14c-10.77.01-19.5,8.74-19.51,19.51,0,8.41,12.81,26.8,19.51,35.5,6.7-8.7,19.51-27.09,19.51-35.5-.01-10.77-8.74-19.5-19.51-19.51m0,60.7c-.66,0-1.28-.3-1.69-.81-.91-1.13-22.15-27.78-22.15-40.37s10.68-23.84,23.85-23.84,23.84,10.67,23.84,23.84-21.24,39.24-22.15,40.37c-.41.51-1.03.81-1.69.81"/>
  <path class="cls-4" d="m170.08,98.14c-10.77.01-19.5,8.74-19.51,19.51,0,8.41,12.81,26.8,19.51,35.5,6.7-8.7,19.51-27.09,19.51-35.5-.01-10.77-8.74-19.5-19.51-19.51Zm0,60.7c-.66,0-1.28-.3-1.69-.81-.91-1.13-22.15-27.78-22.15-40.37s10.68-23.84,23.85-23.84,23.84,10.67,23.84,23.84-21.24,39.24-22.15,40.37c-.41.51-1.03.81-1.69.81Z"/>
  <path class="cls-2" d="m170.71,122.94c3.33,0,6.04-2.7,6.04-6.04s-2.7-6.04-6.04-6.04-6.04,2.7-6.04,6.04,2.7,6.04,6.04,6.04"/>
  <path d="m174.42,116.9c0-2.39-1.94-4.33-4.34-4.33s-4.34,1.94-4.34,4.33,1.94,4.34,4.34,4.34,4.34-1.94,4.34-4.34m-13.01,0c0-4.79,3.88-8.67,8.67-8.67s8.67,3.88,8.67,8.67-3.88,8.67-8.67,8.67-8.67-3.88-8.67-8.67"/>
  <path class="cls-4" d="m174.42,116.9c0-2.39-1.94-4.33-4.34-4.33s-4.34,1.94-4.34,4.33,1.94,4.34,4.34,4.34,4.34-1.94,4.34-4.34Zm-13.01,0c0-4.79,3.88-8.67,8.67-8.67s8.67,3.88,8.67,8.67-3.88,8.67-8.67,8.67-8.67-3.88-8.67-8.67Z"/>
</svg>