<?xml version="1.0" encoding="UTF-8"?>
<svg id="Layer_1" data-name="Layer 1" xmlns="http://www.w3.org/2000/svg" viewBox="0 0 290.81 187.58">
  <defs>
    <style>
      .cls-1 {
        fill: #d11317;
      }

      .cls-2 {
        fill: #293074;
      }
    </style>
  </defs>
  <path class="cls-1" d="m19.8,77.7L0,112.6l255.56-38.09s-8.88-6.75,3.99-17.43L19.8,77.7Z"/>
  <path class="cls-2" d="m279.22,52.22s-19.96,13.64-13.04,25.41c0,0-7.24,4.01.76,9.66,0,0-12.37,5.57-9.1-9.71l-200.92,30.4s-4.29,18.2-32.79,35.43c0,0-2.09,1.22-2.28,3.51,0,0,.2,2.85-2.39,6.3,0,0-3.21,5.6-10.65,10.36l.53,3.73-3.49,8,8.54,12.26,7.72-20.85,15.29-11.74s14.96-23.42,39.57-32.59c0,0,21.71-9.27,53.41-4.02l2.89-2.78,36.7-.81s1.38.32.46,1.06c0,0-7.23,5.56-15.15,6.28l.74,2.26s.22.79-.37.98l-7.69,3.05-5.08,14.1,14.43-6.28.81.6s12.55.78,31.45-3.04c0,0,13.1-2.59,16.75-19.56l24.94-1.09s5.19,1.11,4.54,5.93l-1.79,14.14,11.4-10.16.79,2.67s8.64-9.36,10.86-14.71c0,0,9.49.19,11.83-3.64,0,0,1.08-1.08,4.11-9.43,0,0,1.42-5.86,7.29-11.63,0,0,4.54-4.25,7.06-15.41,0,0,3.04-16.16,3.02-19.25,0,0,3.27-15.99-7.69-20.7,0,0-8.14-4.49-23.39-3.25,0,0-3.04-10.61-24.05-25.16l-1.53,2.27S226.51-.11,216.34,0l-.51,1.41s-6.18-.04-19.65,1.36l1.25,3.73s-27.79,1.29-67.21,27.68l-.72,2.16-5.01,2.36,2.68,1.47s-30.12,10.88-52.04,28.81l204.1-16.77Z"/>
</svg>