<?xml version="1.0" encoding="UTF-8"?>
<svg id="Layer_2" data-name="Layer 2" xmlns="http://www.w3.org/2000/svg" viewBox="0 0 267.86 200.63">
  <defs>
    <style>
      .cls-1 {
        fill: #fff;
      }

      .cls-2 {
        fill: #c8932b;
      }

      .cls-3 {
        fill: #231f20;
      }

      .cls-4 {
        fill: #185465;
      }

      .cls-5 {
        fill: #8a6728;
      }

      .cls-6 {
        fill: none;
        stroke: #231f20;
        stroke-width: .14px;
      }
    </style>
  </defs>
  <path class="cls-3" d="m218.83,134.39s18.64-5.22,27.52-20.07c10.44-2.17,21.5-13.73,21.5-23.98,0-12.8-9.63-18.52-9.63-18.52,0,0-3.54-9.13-16.96-17.89,0,0,3.73-4.29,3.73-9.13s-3.73-7.83-10.38-12.67c-6.65-4.85-13.11-7.27-21.31-12.36-8.2-5.1-26.34-13.86-38.02-16.4-11.68-2.55-18.89-3.35-25.47-3.35-13.48,0-18.58,2.17-18.58,2.17,0,0-4.1-1.74-13.23-1.74s-14.66.75-34.11,6.03c-19.45,5.28-34.42,8.95-50.26,9.94-15.84.99-23.05,1.8-27.96,1.8S0,25.04,0,27.03c0,13.23,17.33,30.63,26.59,35.6,0,0-.81,4.97-.81,9.38s1.37,21.99,16.15,38.96c19.63,20.75,38.89,23.55,51.94,32,13.05,8.45,17.46,17.65,24.36,28.09,10.5,17.58,28.21,29.58,47.41,29.58,31.19,0,45.29-30.38,45.29-36.91,0-4.29-5.22-5.16-5.22-5.16,0,0,4.04-12.49.87-23.98,0,0-4.16,7.08-10.87,14.6,0,0-8.08-7.02-6.46-14.91,0,0,6.59-1.93,12.43-7.83,0,0,8.95-1.49,15.29-8.45,0,0,1.06,1.86,2.17,2.98l4.16-3.04.25,4.04,1.86-.43s-1.12,5.29-6.59,12.87Z"/>
  <path class="cls-4" d="m187.51,155.32s1.24-4.29-4.41-7.64c0,0,.68,3.11.37,5.16l4.04,2.48Z"/>
  <path class="cls-4" d="m214.41,80.46c6.4-.35,14.63,1.38,14.46,7.78,0,0,2.25,3.17,4.21,7.37,0,0,4.84-3.8,6.74-9.85-16.71-7.61-21.84-7.95-25.41-5.3Z"/>
  <path class="cls-2" d="m203.47,79.08l12.96,10.6-17.98,6.68s1.44-4.26.29-4.84c-12.97-7.2-35.09-13.6-57.45-17.86-22.36-4.26-34.11-4.58-34.11-4.58l7.55,1.52,7.78,3.17-26.62,1.9v5.59l-8.12.75c-1.84-4.03-3.92-2.71-6.34-4.32-1.96-1.21-2.88-3.69-3.11-4.67-.23-.98-1.44-.92-3.69-1.56-2.25-.63-3.17-.12-3.63.69-.46.81,1.96.69,1.96.69-.86.92-4.55,1.21-4.55,1.21l-.06.29,2.13.35c-.63.69-1.15,3.11.29,4.44,1.44,1.32,3.23.06,3.23.06,0,0-.98,1.38-.63,1.84.35.46-1.15,1.9-1.15,3.34,0,2.71,3.34,4.03,3.34,4.03l-14.75,5.93-1.27,2.36s.17,2.13-1.33,3c-1.5.86-1.56,1.5-2.02,2.02-.46.52-5.42,4.21-5.42,4.21-3.75-3.86-4.55-5.7-4.55-5.7,2.94-2.59,2.82-5.77,2.82-5.77l-2.48-.35c2.82-1.73,3.11-3.17,3.11-3.17-.52.69-1.61.23-1.61.23-.52-2.65-2.36-2.82-3-4.67s-3.23-1.27-3.23-1.27c.52-.86,1.96-1.84,1.96-1.84.81-3.4,1.73-3.57,1.73-4.78,0-2.53-4.72-3-4.9-2.42-.17.58.98,1.21.98,1.21-2.36.63-4.21,2.02-4.21,2.02-1.96-15.15.69-17.98.69-17.98,13.02-.46,19.3-7.15,19.3-7.15l-6.05.23-4.84-2.53,10.71-3.63c17.05-.4,29.38-12.04,29.38-12.04,0,0-10.03,6.16-20.86,6.16-8.24,0-17.86-3.17-25.93-9.79l-.29-1.32c1.96-.29,1.56-1.38,2.36-2.36.81-.98,2.19-.4,2.13-.81-.06-.4-.98-.46-.98-.46l-.06-.69s2.88,0,2.88-1.27-2.02-.17-4.72-1.5l-1.5-3.46c11.24-.63,24.2-4.21,24.2-4.21,1.04,1.96,3.11,2.31,3.11,2.31l-1.73,1.04s1.56.29,2.42.17c.86-.12,1.33-.46,2.59-.4,1.27.06,3.05.23,2.77-.81-.29-1.04-2.25-1.79-2.25-1.79l.17-.46,2.94.75c-.81-1.5.06-3.05.06-3.05l24.66-5.58s1.5,3.68,4.26,3.56c4.32-.58,3.8.98,5.99,1.15-1.15-1.15-2.59-3.98-2.59-3.98l.35-.23,2.71,2.13c2.65-2.25,5.82-1.09,5.99-1.56.17-.46-1.44-1.67-1.15-2.02s2.19,1.73,2.71,1.38c.52-.35-.81-3.28-.81-3.28,8.3-.52,21.32.92,21.32.92l.12.46c-2.48.52.4,3.23.4,3.23l-.69.23s-1.5-1.56-2.13-1.56-1.21.58-1.21,1.61,2.19,2.31,3.69,2.31,2.71-.81,2.71-.81c0,.63,3.86.35,3.69-.58-.17-.92-2.31-2.65-2.31-2.65l4.09,1.96,1.5-2.48c10.95,2.3,16.65,4.44,16.65,4.44,0,0-1.67.17-2.82,1.04-.86.46,0,1.67,0,1.67-.81-.4-1.15.29-1.15.29,1.04,2.19,3.4,1.9,3.4,1.9l-.46-1.04c1.15,0,1.5,1.04,1.5,1.04,0,0,1.56-.06,3.05-.17s3,1.15,3,1.15l-.29-.98,1.09-1.38.75.98h2.02l2.07,1.84.29-1.67c.23.69,1.09.98,1.09.98.23-.46,1.38-1.15,1.38-1.15-.35-1.15,2.19-2.77,2.19-2.77.35-2.65-3.05-3-3.86-2.82-.81.17-.17,1.15-.69,1.27-.52.12-.58-1.27-.98-1.21-.4.06-.23,1.15-.23,1.15,0,0-1.73-.17-2.25.23-.52.4-1.84,2.42-1.84,2.42l-9.97-5.01,2.76-1.04.52.63c1.09-5.42-5.42-4.95-5.82-4.84-.4.11.81,2.65.23,2.82-.58.17-1.79-1.84-2.25-1.84s-2.76,1.5-2.76,1.5c-2.36-1.32-9.05-2.42-9.05-2.42,0,0,4.26-1.09,9.68-1.09,17.46,0,31,6.28,35.21,8.18,4.21,1.9,4.32,3.46,4.32,3.46-.81-.46-1.84-.75-1.84-.75-.12,1.21,6.86,4.03,6.86,4.03-1.61-1.79-1.15-2.59-1.15-2.59,1.96,2.3,3,1.44,3.57,1.73.58.29,21.5,11.53,23.74,12.79,2.25,1.27,2.42,2.65,1.79,2.94-.63.29-1.44-1.33-1.44-1.33-.92.86-.92,2.94-.29,3.11.63.17,0-.58.86-.46.86.12.63.81,2.07,1.15,1.44.35,3,1.33,3,1.33l.12-1.56,2.36,2.94c3.28-.23,5.53,2.71,5.53,5.93s-2.07,4.84-2.07,4.84c-12.79-9.22-22.7-12.16-22.7-12.16,7.03,3.57,19.24,14,22.93,18.27,3.69,4.26,4.38,5.53,4.38,7.55s-1.32,3.46-1.32,4.38.52,1.85,1.5,1.85c1.67,0,4.67-3.8,4.67-3.8,0,0,5.47,3.92,5.47,8.82s-6.16,3-11.12,7.26c0,0-12.44-5.24-27.19-6.91-13.02-1.44-20.44-.57-20.44-.57l10.2,4.15Z"/>
  <path class="cls-5" d="m41.39,33.92c7.72,5.78,16.64,8.56,24.35,8.56,10.83,0,20.86-6.16,20.86-6.16,0,0-12.33,11.64-29.38,12.04l-10.71,3.63,4.84,2.53,6.05-.23s-6.28,6.68-19.3,7.15c0,0-2.65,2.83-.69,17.98,0,0,1.84-1.38,4.21-2.02,0,0-1.15-.63-.98-1.21.17-.58,4.9-.12,4.9,2.42,0,1.21-.92,1.39-1.73,4.78,0,0-1.44.98-1.96,1.84,0,0,2.59-.58,3.23,1.27s2.48,2.02,3,4.67c0,0,1.09.46,1.61-.23,0,0-.29,1.44-3.11,3.17l2.48.35s.12,3.17-2.82,5.77c0,0,.81,1.84,4.55,5.7,0,0,4.96-3.69,5.42-4.21.46-.52.52-1.15,2.02-2.02,1.5-.86,1.33-3,1.33-3l1.27-2.36,14.75-5.93s-3.34-1.33-3.34-4.03c0-1.44,1.5-2.88,1.15-3.34-.35-.46.63-1.84.63-1.84,0,0-1.79,1.27-3.23-.06-1.44-1.32-.92-3.74-.29-4.44l-2.13-.35.06-.29s3.69-.29,4.55-1.21c0,0-2.42.11-1.96-.69.46-.81,1.38-1.32,3.63-.69,2.25.63,3.46.58,3.69,1.56.23.98,1.15,3.46,3.11,4.67,2.42,1.61,4.5.29,6.34,4.32l8.12-.75v-5.59l26.62-1.9-7.78-3.17-7.55-1.52s11.76.32,34.11,4.58c4.8.92,9.58,1.93,14.27,3.03,0,0-4.13-4.43-8.62-8.13,0,0-17.17-4.96-40.59-8.19,0,0,12.68.42,36,5.17-8.09-6.57-14.87-8.4-14.87-11.37,0-1.93,3.76-4.9,3.76-4.9l5.48-4.33,12.16-4.7-.37-3.5.94-.78s-.89-2.35,1.83-2.14l.16-.21s-11.06-4.17-37.15-4.44l2.66,2.66s-2.87.16-5.27-.21c0,0-.99,2.14.63,5.22l-2.77-.21,3.76,1.88s-2.3-.16-2.45,2.29c.05,2.03-3.18,2.14-3.18,2.14l.37,1.3-2.19-.99,1.3,1.62c-6.05.37-7.88-.99-6.57-2.82.52-.68.05-1.51-1.1-2.5l.05-1.15s2.87.47,3.76.57c0,0-1.04-.94-3.76-1.88.37-1.62,1.67-.83,2.56-3.08,0,0,1.72.42,2.97.94,0,0-.57-1.2-3.97-2.14,0,0,1.83-.21,3.08-.31,1.25-.1,1.25-1.2,1.25-1.2-12.36.89-24.68,4.64-32.08,6.57l2.5-2.71s-7.88,2.24-14.82,2.24-13.31-1.86-19.62-3.49Z"/>
  <path class="cls-5" d="m216.38,75.85c-.88-.13-1.77-.24-2.67-.34-9.9-1.1-16.57-.86-19.19-.68l-1.14-.53s-3.39-5.27-9.44-6.73c0,0,6-2.14,13.83-2.14s12.68,2.61,16.07,2.61c2.97,0,2.56-1.88,2.56-1.88,1.67,1.51.52,4.02-3.08,4.23,0,0,.25,2.69,3.07,5.47Z"/>
  <path class="cls-6" d="m238.2,41.91c.63,1.01.98,2.23.98,3.51,0,3.23-2.07,4.84-2.07,4.84-3.45-2.49-6.69-4.52-9.59-6.16,6.25.55,8.91.18,10.68-2.19Z"/>
  <path class="cls-4" d="m128.04,98.33c15.06,5.95,13.2,20.65,14.01,29.7.19,16.68,2.79,26.54,17.79,34.04,0,0,12.15-6.51,15.75-17.79-8-5.33-7.56-14.57-7.56-19.35,0-12.71-2.85-22.44-16.99-24.92,9.8,6.7,10.11,28.7,10.11,31.68,0,10.11,2.98,14.76,2.98,14.76,0,0-5.02-1.43-6.51-17.61-.75-28.02-17.3-34.1-29.57-30.51Z"/>
  <path class="cls-3" d="m172.92,60.47s6.73-3.81,14.71-3.81c8.66,0,16.9,2.03,16.9,2.03,0,0,2.14-2.19,2.14-6.94,0-7.67-6.83-12.37-6.83-12.37,0,0,2.09,3.5,2.09,8.09,0,5.48-4.59,7.98-9.81,7.98-7.77,0-14.19-4.28-14.19-4.28l-10.23-4.17-2.03-3.81.26-3.5s.78-1.25,1.93-1.56l-.26-1.25,1.1.99s3.18-1.1,3.18-3.55c0-1.41-1.51-2.19-2.61-2.19s-1.41.47-2.24.47-.57-.83-2.09-.05c-1.51.78-6.1,2.3-6.1,2.3,0,0-2.5.73-3.65-.99-1.15-1.72-2.71-1.83-3.55-1.83-2.14.36-.21,1.57-.21,1.57l-.16.21s-2.25-.37-1.94,1.77l-2.19,6.68-11.9,3.13-4.33,4.44.05.42s5.17-1.83,10.96-1.3l4.38,6,8.87,4.96,7.36,1.93,4.91,1.83s5.95,2.76,14.61,11.37c0,0-.1-4.64-9.13-14.56Z"/>
  <path class="cls-5" d="m167.44,38.3c-.92.45-1.51,1.41-1.51,1.41l-.26,3.5,2.03,3.81,10.23,4.17s6.42,4.28,14.19,4.28c2.93,0,5.67-.79,7.51-2.46,0,0-1.92.89-4.95.89s-5.53-1.15-11.69-5.9c-6.16-4.75-11.54-8.08-15.55-9.7Z"/>
  <path class="cls-5" d="m204.05,43.76c1.41,2.05,2.62,4.75,2.62,7.99,0,4.75-2.14,6.94-2.14,6.94,0,0-8.24-2.03-16.9-2.03-7.98,0-14.71,3.81-14.71,3.81,0,0,7.73-.31,9.76,7.41,0,0,11.74-8.09,29.37-7.25-.42-6.26-4.21-12.43-8-16.86Z"/>
  <path class="cls-3" d="m216.39,66.15s.42,1.88-2.56,1.88c-3.39,0-8.24-2.61-16.07-2.61s-13.83,2.14-13.83,2.14l-.58-.12c1.28-.78,4.33-2.49,8.78-4.01,7.45-2.45,19.82-1.51,24.25,2.71Z"/>
  <path class="cls-3" d="m146.94,68.55s-17.17-4.96-40.59-8.19c0,0,12.68.42,36,5.17,19.52,3.7,46.08,12.26,55.57,17.74,1.15,1.25,1.04,1.1,1.04,2.14s-1.15,1.51-1.98,1.51-.83.1-4.23-1.67c-3.39-1.77-20.24-9.6-45.81-16.69Z"/>
  <path class="cls-3" d="m215.08,31.6c-.1.22-.28.24-.46.35-.18.11-.43.25-.67.3-.44.08-1,.09-1.23.56.18.08.24.4.33.56.1.19.26.42.42.56.37.33.83.64,1.1,1.05-.32.05-.63-.21-.89-.36-.25-.14-.66-.13-.85-.28-.02.58.43,1.03.8,1.4.51.51,1.26.89,1.97,1.11.19.06.38.11.56.17.23.08.47.07.69.14.33.11.64.38.96.5.18.06.33.08.52.1.12.01.5.17.59.1.11-.08-.12-.53-.18-.63-.15-.25-.41-.46-.57-.73-.31-.54.11-.39.48-.22.37.17.67.41.98.61.24.16.83.56,1.14.55.04-.49-.03-1.08-.22-1.52-.24-.54-.37-1.16-.78-1.61-.37-.41-.85-.7-1.29-1.01-.21-.15-.44-.3-.68-.39-.12-.04-.39-.21-.5-.18-.11.03-.14.22-.27.27-.45.19-.74-.18-.94-.48-.19-.28-.34-.51-.56-.76l-.46-.16Z"/>
  <path class="cls-3" d="m204.04,22.32c0,.33.19.82-.09,1.08-.35.32-.92-.05-1.29-.22-.26-.12-.83-.48-.97-.05-.09.26.35.74.46,1.04.29.15.43.65.36.97-.21.06-.53,0-.64-.18-.36-.08-.71-.36-.97-.65-.03.15.15.46.23.6.15.28.3.4.53.6.38.33.77.62,1.13.94.41.37.81.68,1.4.68.75,0,1.32.06,2.03.3.38.13.79.32.99.67.23.42.48.71.85,1.01.53.42,1.01.84,1.64,1.13.26.12,1.41.52,1.5.04-.13-.1-.35-.44-.38-.59-.25-.17-.48-.71-.56-1-.07-.28-.05-.34.25-.38.28-.03.38,0,.54.19.25.29.38.66.6.94.2.25.62.49.91.54.23-.3.07-.44.05-.8-.02-.31.09-.63-.06-.88-.11-.18-.3-.3-.49-.4-.08-.04-.42-.12-.47-.18-.25-.29.37-.46.56-.52.02-.49-.09-1.06-.46-1.36-.3-.24-.81-.64-.91-1.05-.33-.09-.33.33-.57.45-.29.15-.53-.11-.73-.29-.39-.35-.81-.6-1.13-.99-.23-.28-.42-.51-.8-.65-.32-.12-.77-.05-1.11-.05-.35,0-.65.1-.97.21-.21.07-.52.17-.7-.05-.15-.19-.12-.51-.29-.73l-.46-.38Z"/>
  <path class="cls-3" d="m195.38,29.2c.15.15.4.29.6.43.13.1.38.35.56.38.43.44-.53.83-.75,1.04-.32.32-.87.76-.67,1.28.08.21.25.4.32.66.07.29.03.63.11.91.1.35.73,1.06,1.1,1.18.43.14.52-.33.77-.52.18-.13.54-.08.74-.03.32.09.52.15.85.17.18,0,1.25.06.86.43-.3.29-.97-.14-1.29.14.02.22.39.28.56.37.21.11.44.25.61.41.27.25.51.34.89.4.25.04.5,0,.7-.07.23-.07.41-.19.62-.26.25-.08.57-.06.83-.09.33-.03.52-.08.83.05.29.13.61.29.91.39-.13-.15-.23-.48-.35-.69-.09-.16-.26-.58-.19-.79.09-.27.55-.19.64-.53.08-.27-.13-.45-.21-.71-.11-.35-.12-.48-.4-.72-.19-.16-.39-.32-.56-.5-.16-.16-.15-.21-.25-.41-.26-.51-.63-.98-1.1-1.32-.47-.33-1-.52-1.51-.76-.3-.14-.48-.34-.83-.35-.21,0-.71-.07-.75.19-.03.19.28.46.32.67.08.43-.15.47-.49.35-.45-.15-.76-.5-1.15-.75-.28-.18-.56-.31-.85-.47-.31-.17-.54-.43-.87-.59l-.62.08Z"/>
  <path class="cls-3" d="m190.01,35.47c-.03-.07.01-.12-.11-.11-.02-.02.01-.05,0-.07-.19.03-.38-.4-.46-.54-.14-.24-.23-.4-.46-.57-.42-.32-.91-.62-1.34-.89-.46-.29-.93-.71-1.24-1.16-.14-.2-.19-.41-.35-.58-.15-.15-.44-.33-.66-.38-.64-.14-1.36.38-1.82.75-.31.24-.58.81-1,.77-.6-.05-1.13-.44-1.72-.51-.07.93,1.05.86,1.43,1.52.03,0,.05,0,.07,0,.09.24.22.51,0,.69-.22.19-.63-.03-.88-.15-.13-.06-.25-.16-.39-.22-.17-.07-.25-.23-.4-.3-.26-.12-.62.11-.6.41,0,.14.13.27.16.43.02.14.02.3,0,.44-.02.24-.08.43-.24.61-.19.21-.47.33-.43.67.04.35.53.51.81.69.21.13.5.29.56.54.14.02.15.15.13.26-.3.17-.68-.11-1-.18-.3-.06-.58-.06-.89-.08-.28.55.81,1.11,1.2,1.26.58.21,1.27.19,1.9.2.44,0,.81.12,1.26.13.37.01.75.04,1.12.03.35-.01.62-.14.94-.29.36-.17.48-.34.71-.65.34-.46.75-.87,1.11-1.31.3-.36.93-.82.5-1.34-.18-.21-.45-.33-.67-.5-.18-.14-.5-.52-.25-.76.14-.14.59-.02.73.04.25.1.5.32.76.46.2.11.34.18.49.31.13.11.58.26.58.28l.43.08Z"/>
  <path class="cls-3" d="m180.66,23.29c.11.11.27.19.35.26.16.02.42.35.53.45.19.17.29.33.51.47.19.12.33.24.49.38.15.13.44.19.54.41.27,0,.75.25,1,.35.32.13.65.24.96.35.86.29,1.8.48,2.71.45.04-.38.05-.69-.2-1-.23-.28-.58-.52-.6-.9.54-.29,1.34.57,1.67.91.46.46,1.07.88,1.52,1.3.25.05.52.12.79.04.33-.09.34-.26.55-.48.45-.46,1.2-.37,1.81-.38.65,0,1.13-.33,1.33-.96.07-.23.13-.63.08-.87-.04-.22-.23-.48-.37-.68-.2-.29-.56-.62-.87-.83-.33-.23-1.06-.45-1.26-.82-.26-.49.34-.48.64-.38.26.08.68.57.97.35-.09-.18-.36-.31-.51-.43-.23-.19-.41-.35-.61-.54-.41-.39-.81-.59-1.4-.59-.56,0-1.06.18-1.58.3-.34.07-1.36-.07-1.54.24.27.28,1.47.96,1.22,1.5-.11.24-.69.24-.88.14-.16-.08-.29-.28-.45-.38-.17-.1-.48-.2-.56-.37-.25-.09-.46-.32-.69-.46-.26-.15-.49-.29-.79-.4-.54-.2-1.33-.31-1.9-.16-.26.07-.67.22-.89.37-.26.17-.44.42-.72.58-.29.16-.7.27-.95.49-.29.26.09.48.27.71.15.18.41.33.54.54.12.18.08.42.18.61-.32.12-.89-.09-1.1-.34l-.81-.21Z"/>
  <path class="cls-3" d="m164.93,22.78c.19-.11.65.27.79.38.16.12.53.34.61.5.25.5-.77.81-1.07.99-.37.22-.99.42-1.14.85-.18.49.47.88.54,1.32.03.17.03.44-.03.59-.42.09-.89-.21-1.21-.42-.31-.21-.65-.33-.99-.5,0,.44.61.93.99,1.05.11.27.56.36.78.53.2.16.52.46.44.77-.11.42-.54.19-.83.06-.35-.17-.57-.32-.97-.26-.07.29-.29.45-.19.77.09.27.33.39.48.58.23.28.38.48.78.55.37.06.78.02,1.15.02.62,0,1.24,0,1.85-.05.31-.03.57-.07.85-.13.31-.07.6-.28.87-.38.27-.1.36-.04.31-.33-.04-.24-.19-.43-.31-.63-.15-.27-.75-.6-.72-.89.45-.15.65.15.99.38.3.2.61.34.95.44.72.21,1.47.02,2.16-.22.64-.23,1.14-.8,1.67-1.25.46-.39,1.2-.22,1.69-.62.45-.37-.14-.79-.21-1.18-.06-.35.07-.42.39-.43.14,0,.32-.02.45.02.18.05.26.18.42.22.3.09.3-.19.32-.44.02-.26.05-.62,0-.88-.12-.59-.91-.85-1.38-1.1-.5-.27-1-.49-1.53-.71-.45-.19-1.46-.3-1.92-.13.21.14.24.29.4.48.06.08.27.17.29.25.08.31-.55.22-.73.17-.69-.19-1.2-1-1.94-.56-.3.18-.44.34-.69.57-.2.19-.66.16-.94.13-.3-.03-.65-.12-.93-.19-.31-.08-.65-.1-.95-.17-.23-.05-.43-.16-.68-.13h-.83Z"/>
  <path class="cls-3" d="m150.82,28.69c.04-.23-.19-.47-.34-.56-.29-.19-.51-.32-.71-.56-.22-.26-.96-1.02-.54-1.35.12-.1.4-.13.54-.2.13-.07.27-.16.41-.24.23-.11.42-.26.64-.39.48-.28.69-.73,1.05-1.14.25-.28.41-.42.57-.78.14-.31.35-.49.64-.66.58-.34,1.2.37,1.76.42-.35-.21-.69-.7-.62-1.12.04-.27.3-.46.54-.59.32-.16.61-.3.91-.5.96-.61,1.67-2.09.47-2.82-.37-.22-1.08-.5-1.53-.31-.18.08-.34.23-.53.31-.25.12-.51.15-.8.16-.67.04-1.23-.06-1.87-.25-.35-.1-.72-.14-1.08-.28-.38-.15-.88-.31-1.29-.24.05.16.22.13.32.22.07.07.12.27.16.37.15.4.02.5-.39.55-.64.08-1.31-.19-1.56.55-.33.98-1.06.64-1.92.64-.28,0-.59-.08-.59.27,0,.29.29.47.51.63.71.48,1.38.78,1.68,1.63.23.65-.26.45-.69.18-.44-.27-.82-.54-1.29-.75-.7-.31-1.36-.71-2.07-.98-.52-.2-1.3-.02-1.79.22-.44.22-.99.52-1.27.96-.25.39-.61,1.19-.42,1.62.26.6.86,1.04,1.37,1.42.2.15.49.38.64.57.1.13.27.54.24.68-.36.05-.67-.03-1-.12-.16-.04-.94-.32-.94,0,.32.07.64.46.94.6.22.1.49.15.73.28.24.13.5.38.81.33-.29.57,1.64.45,1.93.46.61.03,1.1.03,1.64-.22.25-.11.49-.07.51-.38.02-.27-.02-.36-.14-.59-.1-.2-.26-.61-.02-.75.32-.17.78.38.95.53.38.35.8.69,1.22.97.32.21.68.45,1.03.59l1.21.62Z"/>
  <path class="cls-3" d="m126.51,24.15c-.04-.29.13-.66.13-.97,0-.3,0-.59,0-.89,0-.1-.05-.33,0-.4.05-.09.31-.17.41-.22.29-.17.55-.35.81-.54.45-.32.74-.92.97-1.42.24-.54.55-1.3.41-1.92-.06-.28-.31-.63-.43-.89-.12-.25-.27-.45-.47-.64-.44-.42-1.12-.57-1.74-.6-.59-.03-1.33-.1-1.88.1-.32.12-.57.16-.92.16-.42,0-.61-.23-.82-.56-.17-.27-.31-.53-.44-.81-.1-.22-.15-.5-.26-.71-.13-.24-.46-.43-.48-.03,0,.08.08.27.1.35.03.17.04.36.07.54.19,1.1.47,2.18.41,3.34,0,.14,0,.23-.11.29-.26.14-.37-.26-.5-.43-.16-.21-.3-.4-.45-.64-.35-.55-.58-1.1-1.21-1.3-.62-.2-1.09.15-1.61.43-.4.22-.82.5-1.17.85-.37.37-.6.93-.47,1.47.13.54.65.92.69,1.49.05.83-1.05,0-1.31-.21-.41-.34-.75-.71-1.03-1.14-.18.43-.04,1.33.13,1.76.21.54.6,1.36,1.03,1.75.21.19.49.39.73.53.31.19.56.27.89.41.72.3,1.41.54,2.2.26,1.04-.36,1.93-1.13,3.02-1.28.61-.09,1.19-.06,1.7.27.28.18.5.35.74.57.15.14.35.6.51.66l.35.35Z"/>
  <path class="cls-3" d="m134.36,41.57c-.33-.44-.62-.79-1.1-1.03-.22-.11-.56-.29-.33-.61.13-.19.43-.27.6-.43.39-.34.75-.97.95-1.43.11-.26.24-.58.17-.87-.05-.22-.29-.47-.43-.66-.14-.19-.2-.29-.24-.55.46-.33.95.3,1.35.38-.12-.18-.18-.38-.28-.55-.15-.25-.38-.34-.65-.45-.24-.1-.54-.26-.45-.6.07-.27.42-.26.6-.44.14-.14.11-.24.13-.44.02-.13.09-.35.06-.47-.06-.25-.47-.42-.65-.52-.27-.14-.51-.3-.77-.45-.17-.1-.61-.33-.82-.26-.72.24.34,1.68-.88.89-.49-.32-1.13-.7-1.72-.86-.61-.17-1.24.08-1.75.34-.62.33-1.28.64-1.96.83-.28.08-.66.2-.86.4-.32.32-.04.46.13.73.16.25.31.52.44.79.11.23.27.46.21.74-.47,0-1.02-.39-1.47-.51-.21-.06-.44-.11-.65-.18-.32-.1-.46-.13-.66.16-.19.28-.11.57-.25.86-.13.27-.47.39-.73.49-.4.15-.76.39-1.13.61-.25.15-.61.29-.76.54-.36.61.11,1.24.49,1.61.3.29.87.66.75,1.15-.33.02-1.09-.14-1.28.16.16.09.23.22.36.31.27.2.58.33.86.53.36.26.82.45,1.17.72.2.16.45.37.11.46-.36.09-.77-.06-1.14.02.06.06.14.06.2.12.1.08.22.26.34.33.19.12.51.1.74.17.63.18.92.1,1.52.35.7.29,1.49.6,2.15.13-.35-.12-1.39-.45-1.15-1.03.14-.33.64-.13.83,0,.29.2.58.41.91.56,1.37.64,2.43-.99,3.23-1.77.36-.36.73-.82,1.26-.95.43-.1,1.46-.13,1.67.41l.89.24Z"/>
  <path class="cls-3" d="m59.63,67.59c-.32,0-.65.03-.96,0-.33-.03-.6-.33-.89-.29-.44-.61-1.68-1.15-2.45-1.27-.72-.11-1.95-.42-2.71-.03-.78.4-1.45,1.37-2.04,2.02-.34.38-.66.76-.92,1.23-.33.59-.32,1.09-.45,1.74-.26,1.23-1.37.85-2.28,1.31.7.06,1.42-.01,2.12.02.45.02,1.6-.06,1.81.38-.46.31-1.3.41-1.66.95.22.19.44.21.61.46.15.22.35.74.43,1.01.17.54.09,1.22.09,1.81,0,.76-.01,1.5.1,2.24.08.57-.06,1.43.14,1.96.81-.29,1.84,0,2.67.05-.11.32-.62.46-.9.63-.35.22-.76.47-1.16.69-.82.47-1.12,1.5-.69,2.38.43.87.85,1.53,1.75,1.99.85.43,1.91.79,2.9.68,1.93-.23,3.02-2.63,4.27-3.85.81-.78,2-.99,2.66-1.99.58-.89.98-2.43.81-3.48-.08-.49-.33-.93-.63-1.39-.29-.45-.79-.64-1.29-.87-.58-.27-1.11-.17-1.68.11-.46.23-.93.24-1.46.36.3-.4.75-.72,1.18-1,.2-.13.77-.33.89-.52.12-.19,0-.87-.03-1.13-.06-.38-.35-.75-.56-1.05-.43-.61-.74-1.5-.96-2.26-.1-.35-.1-.75-.33-1.02-.24-.28-.75-.61-1.06-.39.22-.5,1.73-.71,2.23-.95l.43-.52Z"/>
  <path class="cls-3" d="m70.25,57.49c-.03-.29-.81-.69-.99-.83-.44-.35-.76-.31-1.3-.45-.32-.08-.82-.31-1.23-.29-.48.03-.6.31-.96.56-.82.57-1.86-.04-2.71.34-.73.32-1.36.95-1.52,1.77.33-.05.31.16.56.27.15.07.2.07.4.12.32.07.79.17,1.12.15.07.14.07.28,0,.41-.26-.02-.58.13-.86.15-.27.02-.64.05-.9,0-.39-.07-1.29-.51-1.55.03.55.48.03.88.03,1.42,0,.65.52,1.31.77,1.82.04.01.08,0,.12.01.17.79,1.13,1.41,1.81,1.66.59.22,1.32.28,1.95.37.42.06.91.13,1.34.1-.02-.47-.4-.65-.79-.81-.29-.12-1.18-.34-.73-.7.41-.33,1.36.09,1.8.14.56.07,1.03.25,1.58.29.83.05,2.04.28,2.67-.33.33-.32.49-.83.72-1.19.27-.42.79-.59.9-1.05.09-.35.07-.88.05-1.24-.03-.54-.3-.72-.53-1.13-.33-.12-.65-.46-.98-.64-.36-.2-.59-.26-1.02-.27-.34-.01-.92.09-1.12-.17-.29-.37.04-.52.31-.64l1.05.14Z"/>
  <path class="cls-3" d="m91.06,47.16c-.16-.18-.41-.03-.67-.09-.28-.07-.49-.25-.73-.37-.5-.26-1.06-.52-1.65-.59-.12-.49-.27-.67,0-1.12.22-.37.5-.61.61-1.05.19-.77,0-1.73-.58-2.28-1.19-1.12-3.44-1.14-5.04-1.05.16.21.41.29.61.48.25.24.28.5.72.47.1.12.19.31.2.51.04,0,.08.01.12.02.27.71-2.42.25-2.84.23-.32-.02-.56-.02-.82.19-.24.2-.27.53-.56.72-.41.26-.96.36-1.38.65-.77.52-1.52,1.12-2.42,1.4-.42.13-.97.2-.73.77.15.34.64.66.86.89.05.06.16.05.23.05.07.25-.07.45-.28.57-.38.2-.71-.14-1.02-.32-.47-.27-.93-.54-1.4-.82-.19.43-.02,1.07.09,1.47.07.25.24.46.22.72-.03.34-.23.43-.41.67-.92,1.2,1.7,1.3,2.28,2-.6.42-1.63.03-2.24-.15-.62-.19-1.37-.19-1.99.05.92.62,2.26,1.04,3.41,1.33.67.17,1.34.29,2.04.38.66.09,1.14.38,1.83.38.55,0,1.07-.05,1.59-.1.65-.06.79-.19,1.27-.57.44-.35.68-.48,1.27-.48.48,0,1,.04,1.43-.09.63-.19,1.8-.74,1.68-1.46-.13-.74-.91-1.18-.38-2.02.2-.33.41-.37.74-.54.29-.15.46-.4.72-.56.7-.41,1.31-.24,2.01-.1l1.19-.19Z"/>
  <path class="cls-3" d="m102.59,62.11c-.39-.08-.77.39-1.14.47-.4.09-1.03.13-1.43.06-.87-.15-1.76-.68-2.32-1.35-1.11-1.31-1.62-2.99-2.81-4.23-.32-.33-.87-.58-1.02-.99-.72-.26-1.55-.17-2.32-.25-.3-.03-1.78-.34-1.72.23.47.03,2.63.61,1.9,1.48-.52.62-2.42.04-3.14.15-.66.1-.63.61-.84,1.11-.18.44-.43.89-.64,1.33-.25.53-.89,2.09-.57,2.7.19.36.96.22,1.37.34.24.07,1.08.27,1.21.43-.52.49-1.18.62-1.81.86-.62,1.33,1.79,2.66,2.6,3.34.41.34,1.14.72,1.35,1.23.35.83-.56,1.09-1.14,1.39-.09.44.79.64,1.1.74.35.11.63.21.99.25.42.05.54.13.94.26.99.32,2.36.14,3.27-.34.49-.26.85-.46,1.44-.49.57-.03,1.14.03,1.68-.04.78-.11,1.84-.47,2.57-.84.43-.22.72-.41.67-.88-.05-.41-.29-.87-.56-1.19-.35-.43-.75-.85-1.11-1.27-.26-.31-.68-.52-.97-.82-.2-.21-.43-.58-.51-.87-.15-.51-.07-.73.42-.92.73-.29,1.39-.8,2.14-1.11l.38-.76Z"/>
  <path class="cls-3" d="m120.68,56.54c-.78-.11-1.33-.56-2.09-.67-.05-.09-.1-.27-.1-.36.53-.22,1.04-.37,1.61-.18.59.2.91.51,1.62.51-.3.1-.7-.61-.89-.78-.32-.28-.69-.38-1.06-.62-.64-.44-.95-1.19-1.71-1.62-.32-.18-2.77-.63-2.33-1.23.19-.27,1.22.08.95-.38-.1-.17-1.17-.6-1.35-.67-.4-.14-.94-.12-1.38-.14-.49-.02-1.15-.17-1.62-.05-.36.1-.16,0-.34.29-.13.2-.19.52-.36.72-.4.45-.88.21-1.45.28-.23.03-1.13.2-1.14.5-.01.35,1.1.53,1.4.64.27.1,1.13.36.8.81-.23.31-1.07,0-1.31-.08-.54-.2-1.25-.57-1.82-.42.07.59,1.53,1.14,2.04,1.39.22.11.79.24.55.67-.16.28-.79.15-1.06.15.49-.04.93.33,1.3.57.46.3,1,.51,1.38.91.4.41.18.8.39,1.29.18.41.6.71.95.91.63.35,1.75.29,2.35-.07.35-.21.81-.43,1.15-.67.37-.26.45-.62.84-.91.39-.28.87-.71,1.37-.65l1.29-.14Z"/>
  <path class="cls-3" d="m68.2,25.01c-.95,0-1.7.43-2.67.48-1.11.05-2-.47-3.07-.57-1.05-.1-1.95-.22-2.69.59-.7.76-1.32,1.44-2.17,2.04-.49.34-.37.62-.7.99-.23.27-.66.27-.99.33-.39.07-.81.21-1.19.33-.38.12-.95.13-1.27.33.26.11.64.05.93.05.52,0,.81.15,1.3.27.81.2,1.2.47.56,1.25-.38.46-.57.99-.15,1.43.2.21.53.37.75.49.21.1.48.16.7.28.21.11.19.3.5.29.02.08.02.24,0,.32-.71.24-2.09-.41-2.52.39.74.7,1.3.81,2.43.81,1.03,0,2.04-.15,2.89-.76.46-.33.69-.38,1.29-.38.29,0,.72.08,1.01,0,.28-.08.3-.18.51-.38.5-.48.73-.52,1.43-.58.56-.05.72-.19,1.1-.56.64-.63.89-1.01.58-1.95-.09-.28-.21-.57-.24-.9-.04-.49.24-.74.33-1.15.09-.37-.02-.77-.16-1.09-.1-.24-.36-.56-.37-.82-.02-.76.85-.64,1.29-.9l.57-.62Z"/>
  <path class="cls-3" d="m97.16,17.06c-.96-.03-1.68.88-2.6.25-.46-.31-.62-.35-1.21-.35s-.82,0-1.29.32c-.8.56-1.75.87-2.48,1.39-.57.41-.8.71-1.53.72-.5,0-.98,0-1.47.09-1.09.2-1.98.98-2.78,1.71-.52.48-1.58,2.02-1.27,2.77.7.17.98.36,1.76.05.14-.06.58-.31.76-.17.37.28-.05.75-.28.91-.59.41-1.21.8-1.81,1.18-.63.39-1.11.47-1.38,1.14.54.01,1.17-.03,1.72-.13.48-.09.97-.37,1.49-.29.06.25.43.33.64.53.28.26.4.52.71.74.38.28.8.45,1.24.57,1.08.3,2.29.2,3.42.2.98,0,1.99.04,2.96-.05.43-.04.99-.06,1.37-.25.38-.18,1.06-.62,1.26-.99-.26-.27-1.44-.08-1.86-.1-.3-.67.48-.85.94-.95.58-.12.87-.3,1.34-.67.74-.57.93-1.46,1.51-2.15.29-.34.64-.45,1.01-.69.42-.27.86-.65,1.24-.99.68-.6.98-2.02.48-2.84-.24-.39-1.42-1.09-1.84-1.11-.6-.02-1.6.44-2.12.76-.23.14-1.97.93-1.7.05.18-.58,1.37-.66,1.66-1.19l.09-.48Z"/>
  <path class="cls-3" d="m111.67,31.62s-.99,2.14.63,5.22l-2.77-.21,3.76,1.88s-2.3-.16-2.45,2.29c.05,2.03-3.18,2.14-3.18,2.14l.37,1.3-2.19-.99,1.3,1.62c-6.05.37-7.88-.99-6.57-2.82.52-.68.05-1.51-1.1-2.5l.05-1.15s2.87.47,3.76.57c0,0-1.04-.94-3.76-1.88.37-1.62,1.67-.83,2.56-3.08,0,0,1.72.42,2.97.94,0,0-.57-1.2-3.97-2.14,0,0,1.83-.21,3.08-.31,1.25-.1,1.25-1.2,1.25-1.2.89-.1,1.27-.72,2.65-.72s2.74.16,3.61,1.03Z"/>
  <path class="cls-1" d="m191.93,115.06s1.3,7.89-7.02,16.84c0,0,14.48-2.3,22.12-18.7,0,0,.81,2.36.5,7.58,0,0,3.98-1.06,10.31-10.07,0,0,.37,2.86,2.49,5.28l5.53-4.66s.68,1.68.93,5.03c0,0,1.8-.75,4.91-2.98,0,0,.06,3.23-5.78,14.35,8.14-4.23,16.16-13.42,16.16-17.33,0-1.86-1.93-3.6-4.23-3.6s-4.16,1.8-4.16,1.8c0,0-1.3-1.55-3.54-1.55s-4.04,2.05-4.04,2.05c0,0,.25-1.68-1.93-1.68s-11.87,6.46-32.25,7.64Z"/>
  <path class="cls-1" d="m204.1,142.58s-4.41,7.77-11.25,15.22c0,0-.99-2.55-2.17-3.11,0,0-3.85,2.98-4.97,4.47,0,0-1.49-2.73-2.67-3.79,0,0-2.8,2.24-3.54,3.29,0,0,3.54-6.09.12-16.59,0,0-4.41,13.73-16.15,21.56-.56.5-.75,3.29,3.66,3.29,6.9,0,10.94-5.41,10.94-5.41,0,0,7.02-1.18,13.92-.31,0,0,2.36,2.24,4.1,2.24s8.57-7.27,8.02-20.88Z"/>
  <path class="cls-1" d="m46.25,22.02h-3.29v-1.43s3.3.12-29.82.93c0,0,13.11,3.91,20.25,7.83,0,0,1.74-.99,2.92-1.06,1.18-.06,1.3-.56,2.73-.62,1.43-.06,1.3-.93,1.3-.93h2.17s-.5-1.24-2.3-1.74c0,0,2.86-1.86,6.03-2.98Z"/>
  <path class="cls-1" d="m4.56,27.06s3.54,1.37,5.34,3.85c.06,6.15,5.16,11.37,11.8,16.84h-4.29s3.85,2.55,10.81,4.6c0,0-1.06.81-4.66,1.18,0,0,5.72,3.79,19.07,3.79,11.18,0,16.03-3.42,16.03-3.42l-9.07-1.24s15.97-1.55,24.17-8.26c0,0-5.03,3.29-22.24,3.29s-24.79-4.97-24.79-4.97c0,0,10.07,1.86,16.47.62-14.48-10.06-21.37-16.53-38.65-16.28Z"/>
  <path class="cls-1" d="m231.06,101.32s8.53,0,14.29,6.39c0,0,9.62-1.73,14.23-7.84-4.49.23-5.76-.63-5.76-1.56s1.04-1.09,3.75-1.09h3.57s2.02-.69,2.36-6.97c-3.51,3.23-7.72,4.15-8.41,2.65-.86-1.84,6.22-2.65,8.3-5.88,0,0,.35-1.56-1.04-4.9-2.59,4.38-4.15,5.07-5.3,4.32-1.79-1.15,3.4-3.11,4.15-6.34l-2.48-3c-7.2,14.75-19.53,11.75-27.66,24.2Z"/>
  <path class="cls-1" d="m59.46,97.47s.99-1.12,2.3-1.99l-.5,1.86h.31s1.8-2.05,3.54-2.17c0,0-.87.93.43,1.43,2.49.93,5.53.43,8.82.87.93.37,1.49.56,3.48-.19,1.99-.75,3.42-.75,3.42-.75,0,0-2.86,1.18-3.42,2.11,0,0,1.93,1.24,1.93,3.36s-.74,3.67-2.86,4.97c-2.86,1.68-3.17,3.6-3.17,3.6l1.86-1.18s-.5,4.29-4.6,4.29c-2.36,0-2.98-1.3-3.79-1.3-.5,0-2.05,1.74-2.05,1.74,0,0,.12-1.68,2.92-4.53,0,0-1.86.74-2.67,1.8-3.98-2.36-8.45-2.61-8.45-6.21,0-1.55,1.24-3.6,1.24-3.6,0,0-.99.06-1.43,1.12l-.19-1.93-6.09,5.03s3.54,3.91,9.82,8.76c6.28,4.85,17.15,11.43,27.59,15.78,10.44,4.35,19.26,9.38,24.17,14.73,4.91,5.34,9.19,13.17,13.67,19.76,4.47,6.59,14.91,18.14,25.54,20.88l-2.17,2.67s7.89,1.37,18.2-.18l-3.29,3.66c17.02-1.74,30.94-9.44,38.71-24.17,0,0-2.92-2.55-11.06-2.55-11.99,0-22.99,7.7-33.61,7.7s-18.08-9.38-23.86-18.33c-5.78-8.95-15.91-29.27-15.91-44.12,0-24.11,17.02-26.22,17.02-26.22,0,0-21.87-4.85-35.66-5.9,33.61,1.49,70.95,11.12,88.85,20.01.5.43.87,2.92-1.55,2.92-1.62,0-6.65-3.42-19.38-7.7,3.11,6.09,10.62,16.78,25.1,16.78,13.61,0,19.07-8.95,36.84-9.44.5-10.25-4.41-12.55-15.72-18.14-11.31-5.59-19.9-7.76-19.9-7.76l-.46.06s5.48,2.77,11.01,7.2l-1.33.75s3.17,2.02,7.78,7.66c0,0-7.28,3.01-11.88,2.71,0,0-.12,1.37-1.74,1.37-1.12,0-5.34-2.24-15.6-6.65-10.25-4.41-37.65-14.04-74.5-18.95,0,0,5.93,1.81,8.18,2.85,0,0-3.05-.86-5.65-.46l2.65,1.67s-17.69-.75-28.23,1.5c0,0,6.86,1.96,9.56,5.47,0,0-4.28.06-6.89.46,0,0,.68,1.37.68,1.99s-2.24,2.17-2.24,2.17h1.68v4.22s-2.36,3.35-8.95,1.68l.25-1.06-3.91.37s2.73-1.3,4.04-2.36c0,0-4.02,1.68-4.88-.45,0,0-13.31,3.28-19.7,8.53,0,0,3.73.62,5.7,1.81"/>
  <path class="cls-1" d="m147.92,38.58s-11.84,1.98-17.69,11.53l.94-.26s5.11-5.74,18.94-5.74c16.07,0,26.4,9.08,35.58,10.33,0,0-6.16-1.46-8.76-6.63,0,0-.47,1.46.1,2.56-6.63-3.7-10.49-5.16-10.96-10.85,0,0-1.46,1.15-1.57,3.86l-1.09-.84s-.26,1.1,1.51,2.03c.63.31-.31,1.15-.31,1.15,0,0-1.98-.31-3.76-1.3,0,0,1.36-.1.89-.63-.47-.52-1.88-1.83-2.19-2.5-.83-1.04,1.41-.52,1.41-.52,0,0-.68-1.09-2.71-1.46,0,0,.47-.68,1.41-.52s-.21-.99,1.04-1.36c1.25-.37,3.13-1.62,4.12-3.44.83-1.3,2.35.37,2.35.37,0,0-.42-2.19-3.76-2.19-3.86,0-6.73,2.19-6.73,2.19l2.33,1.18s-.99.16-2.24-.37c-1.25-.52-2.09,1.04-2.09,2.71,0,2.3,2.66,2.82,2.66,4.07s-.21,2.3-1.2,1.04l.1,1.15c-2.56-1.88-4.8-1.77-6.37-4.49l1.83.73s-.16-.68-2.19-1.72c0,0-.31-.83.26-.83l.05-2.3h-4.64v.47l2.73,2.57Z"/>
  <path class="cls-4" d="m177.33,55.42v-.42l-7.04-2.19-.16.63s.42.31.42,1.2-.68,2.24-2.61,2.24-2.71-1.62-2.56-2.71c0,0,1.93.05,1.93-1.2,0-1.83-7.62-3.76-17.58-3.39,8.61,6.63,13.62,9.23,17.27,9.23,4.33,0,10.33-3.39,10.33-3.39Z"/>
  <path class="cls-1" d="m165.38,54.16s1.93.05,1.93-1.2c0-1.17-3.12-2.38-7.98-3.01,0,0,3.18,2.01,6.05,4.21Z"/>
  <path class="cls-1" d="m142.11,48.84s-1.15-.21-4.64.1c0,0,.84,2.19,3.24,4.59,0,0-2.19-.16-3.18-.37,6.73,6.68,12.89,9.03,22.64,8.87l-1.46.78s6,.16,11.37,2.4c-14.61-9.6-13.72-5.53-27.96-16.38Z"/>
  <path class="cls-3" d="m109.66,97.23s-1.68.06-3.42.75c0,0-2.24-4.6-5.41-4.6s-8.2,3.17-8.2,3.17l.25-1.18c-5.47,0-6.9.31-6.9,2.36s2.17,2.3,4.6,4.54c0,0,.93-.99,2.3-1.06l-2.98,2.8s1.86-1.3,3.98.12c2.11,1.43,7.02-.19,8.95-1.3,0,0-.62,1.37-1.86,2.05,0,0,4.47,1.37,6.46-1.12,1.18-1.86-.68-4.47-.68-4.47,0,0,1.43-1.49,2.92-2.05Z"/>
  <path class="cls-3" d="m99.29,112.45c-4.54,1.37-9.51.19-14.85.06l.75-.99s-1.68.25-3.04.99c-1.37.75-4.47.99-4.47,3.66,0,2.24,1.86,3.6,1.86,3.6l1.74-1.93s.25,1.24-.43,2.05c6.28,4.04,13.3,1.68,16.09,4.54l3.29-2.24s.12.68-1.55,3.35c2.05,1.99,3.48,2.61,5.47,2.61s3.23-.37,3.48-3.11l.81-.93-1.24.06s.31-1.18-.43-2.48c0,0,.5-.56,1.99.5,0,0,.56,0,1.24-.81l.68-.81-.75.06c-.5-3.79-3.48-5.65-5.59-4.85,0,0-.37-2.55-3.17-2.55-1.06,0-3.11,1.24-4.66,1.24l2.8-2.05Z"/>
</svg>