<?xml version="1.0" encoding="UTF-8"?>
<svg id="Layer_1" data-name="Layer 1" xmlns="http://www.w3.org/2000/svg" viewBox="0 0 231.57 164.04">
  <defs>
    <style>
      .cls-1 {
        fill: #fff;
      }

      .cls-2 {
        fill: #cecfd7;
      }

      .cls-3 {
        fill: #be1818;
      }

      .cls-4 {
        fill: #232e5d;
      }

      .cls-5 {
        fill: #6d91ca;
      }
    </style>
  </defs>
  <path class="cls-1" d="m74.77,95.7c.23,2.71,1.19,8.13,4.33,14.16,3.86,7.46,11.96,17.4,28.66,23.02,2.65,4.17,5.77,8.05,9.3,11.57,12.7,12.66,29.56,19.61,47.49,19.59,17.92-.03,34.77-7.03,47.43-19.73,12.65-12.7,19.61-29.56,19.59-47.49-.03-17.93-7.04-34.77-19.73-47.43-10.06-10.03-22.67-16.48-36.56-18.72-18.79-17.02-40.73-10.92-41.67-10.64-.32.09-.79.23-1.38.4-6.75,2.25-10.24-.33-12.5-2.1-2.51-1.96-5.24-3.96-7.88-5.45-8.96-5.04-21.71-5.22-32.44-.9-7.07,2.42-10.63-.7-12.74-2.16C52.68.17,35.47-2.14,17.21,1.89,4.91,4.59,0,7.1,0,7.1c0,0,8.42,1.22,17.22,4.89,7.23,3.02,12.97,6.9,17.32,13.85,0,0,2.73,4.03.96,5.21-1.99,1.33-4.07-1.92-4.07-1.92-.07,2.33-.06,4.67.09,6.43,1.02,18.56,4.8,29.71,13.76,38.23,4.07,3.88,10.94,7.65,21.56,11.82,4.85,1.94,7.46,4.42,7.93,10.1Z"/>
  <path class="cls-4" d="m208.81,52.43c-9.74-9.71-22.1-15.83-35.49-17.72-17.43-16.69-38.53-10.57-38.53-10.57,4.47.66,7.44,3.33,6.3,6.27-.76,1.96-4.01,2.06-5.49,2.07-4.72.05-8.78-2.84-12.03-5.48-3.38-2.75-8.89-7.62-13.83-10.39-9.19-5.18-23.79-4.53-34.34,2.22,6.31.43,13.91,2.24,18.44,6,2.53,2.1,5.76,6.31,3.12,8.29-2.32,1.72-8.02.83-10.91-.85-4.61-2.67-8.75-6.7-11.24-9.63C58.11,2.94,34.42,1.85,14.89,6.67c12.82,3.6,21.37,10.9,26.66,23.49,5.29,12.59,9.39,17.95,18.1,21.36,5.45,2.14,6.92,2.53,6.5,4.94-.63,3.54-7.09,1.84-12.01-.08-6-2.34-13.91-8.81-18.62-20.94.86,15.7,3.85,26.83,12.7,35.25,3.76,3.57,10.67,7.27,21.47,11.43,6.9,2.65,12.36,4.25,17.5,8.86,5.99,5.37,3.44,8.91-.54,8.24-4.5-.76-7.71-5.35-7.71-5.35,0,0,0,25.58,31.63,35.42,2.63,4.36,5.82,8.44,9.51,12.13,11.89,11.84,27.68,18.37,44.46,18.33,16.79-.02,32.56-6.58,44.4-18.47,11.86-11.89,18.37-27.67,18.34-44.46-.03-16.79-6.58-32.56-18.47-44.41Z"/>
  <path class="cls-5" d="m205.47,55.61c-9.43-9.43-21.53-15.21-34.6-16.64-11.24-11.2-22.46-10.68-22.46-10.68,4.92,3.09,2.39,9.96-8.56,11.48-10.85,1.49-24.62-2.18-31.33-9.99-6.91-8.05-12.13-8.42-12.13-8.42,5.99,3.75,6.42,8.25,10.06,15.09,3.64,6.85,11.13,9.31,17.66,9.74,6.88.45,7.04,3.56,1.5,6.85-6.05,3.58-11.4.19-15.29-3.64-6.14-6.06-12.26-7.23-20.72-7.12-8.45.11-19.63,1.22-29.06-2.31-9.43-3.53-15.67-15.95-15.67-15.95,4.68,16.49,15.04,24.3,24.66,26.19,12.72,2.5,21.5,5.52,26.88,9.87,5.25,4.26,8.04,8.51,10.02,14.36,1.52,4.52,1.8,10.52.29,10.88-1.75.42-2.11-2-4.18-6.21-2.28-4.65-5.01-8.3-10.49-11.23-7.45-3.97-14.73-3.74-22.16-3.64-5.89.09-9.34-.59-9.34-.59,0,0,.25.79,9.84,2.94,10.69,2.4,21.01,8.42,27.9,23.1,5.85,12.48,2.79,21.28-10.17,17.3,0,0,6.06,13.46,25.84,18.25,2.55,4.49,5.73,8.65,9.48,12.41,10.96,10.96,25.53,17,41.03,17s30.07-6.04,41.03-17c10.96-10.96,16.99-25.53,16.99-41.03,0-15.5-6.03-30.07-16.99-41.03Z"/>
  <path class="cls-1" d="m164.44,41.45c14.74,0,28.6,5.74,39.02,16.16,10.42,10.42,16.16,24.28,16.16,39.02,0,30.43-24.76,55.19-55.18,55.19-14.73,0-28.6-5.75-39.02-16.17-10.42-10.42-16.16-24.28-16.16-39.02s5.74-28.6,16.16-39.02c10.43-10.42,24.29-16.16,39.02-16.16Z"/>
  <g>
    <path class="cls-4" d="m164.52,147.07c-27.85.04-50.46-22.5-50.5-50.35-.04-27.85,22.5-50.46,50.35-50.5,27.84-.04,50.45,22.51,50.49,50.35.04,27.85-22.51,50.46-50.35,50.5Z"/>
    <path class="cls-1" d="m152.1,86.44h-14.93l-4.93,8.78-6.62-18.78h77.5l-6.62,18.78-4.88-8.78h-14.69l-12.44,54.43-12.39-54.43Z"/>
    <polygon class="cls-2" points="203.12 76.44 125.62 76.44 126.88 79.99 163.83 79.99 152.1 86.44 164.49 140.86 164.49 79.99 201.87 79.99 203.12 76.44"/>
  </g>
  <path class="cls-3" d="m126.39,32.89c-11.24-.32-15.82-4.78-22.8-10.38-8.55-6.86-18.02-4.95-18.02-4.95,5.67-3.24,16.83-3.38,24.87,3.67,7.18,6.3,10.71,9.71,15.95,11.67Z"/>
  <path class="cls-3" d="m30.46,8.13s10.52-.25,19.71,16.24c7.72,13.86,22.46,16.63,33.24,13.58,0,0-14.2-.37-21.98-14.14-7.94-14.08-18.44-17.99-30.97-15.68Z"/>
  <path class="cls-3" d="m90,87.98s-1.49-15.33-23.34-19.77c-21.98-4.48-24.82-15.92-24.82-15.92,0,0,.15,16.51,19.07,21.58,13.22,3.54,22.91,5.57,29.09,14.11Z"/>
  <g>
    <polygon class="cls-3" points="172.02 71.59 169.05 62.75 176.56 57.23 167.23 57.32 164.31 48.46 161.51 57.36 152.18 57.41 159.79 62.82 156.95 71.71 164.44 66.15 172.02 71.59"/>
    <polygon class="cls-3" points="138.74 102.85 132.57 109.84 124.03 106.09 128.78 114.11 122.57 121.08 131.67 119.05 136.38 127.1 137.26 117.82 146.38 115.83 137.82 112.12 138.74 102.85"/>
    <polygon class="cls-3" points="182.44 116.04 191.58 117.88 192.61 127.15 197.19 119.02 206.33 120.91 200.02 114.05 204.64 105.95 196.15 109.82 189.88 102.92 190.94 112.19 182.44 116.04"/>
  </g>
</svg>