<?xml version="1.0" encoding="UTF-8"?>
<svg xmlns="http://www.w3.org/2000/svg" width="336" height="280" viewBox="0 0 336 280">
  <g id="logo_background">
    <rect width="336" height="280" fill="#070741"/>
    <rect width="336" height="280" fill="#070741"/>
  </g>
  <g id="logo_bar">
    <rect x="46.77" y="132.51" width="91.27" height="15" fill="#fff"/>
  </g>
  <g id="logo_circle">
    <path d="m92.47,102.92c-20.48,0-37.09,16.6-37.09,37.08s16.6,37.08,37.09,37.08,37.08-16.6,37.08-37.08-16.6-37.08-37.08-37.08m23.93,37.08c0,13.21-10.72,23.93-23.93,23.93s-23.92-10.71-23.92-23.93,10.71-23.92,23.92-23.92,23.93,10.71,23.93,23.92" fill="#fff"/>
  </g>
  <g id="logo_tagline">
    <g>
      <polygon points="151.79 170.89 151.79 163.32 156.53 163.32 156.53 164.84 153.57 164.84 153.57 166.14 155.91 166.14 155.91 167.67 153.57 167.67 153.57 169.31 156.76 169.31 156.76 170.89 151.79 170.89" fill="#fff"/>
      <polygon points="161.78 170.89 159.93 170.89 157.21 163.32 159.18 163.32 160.86 168.4 162.54 163.32 164.5 163.32 161.78 170.89" fill="#fff"/>
      <polygon points="165.3 170.89 165.3 163.32 170.03 163.32 170.03 164.84 167.08 164.84 167.08 166.14 169.41 166.14 169.41 167.67 167.08 167.67 167.08 169.31 170.27 169.31 170.27 170.89 165.3 170.89" fill="#fff"/>
      <path d="m172.96,164.74v1.78h.62c.33,0,.59-.09.78-.26.19-.18.3-.4.3-.66,0-.25-.1-.45-.27-.61-.18-.16-.42-.24-.73-.24h-.68Zm2.22,6.15l-1.88-2.86h-.34v2.86h-1.78v-7.57h2.58c.85,0,1.5.21,1.97.62.46.41.7.97.7,1.68,0,.48-.13.89-.36,1.24-.24.35-.58.62-1.03.79l2.15,3.24h-2.01Z" fill="#fff"/>
      <polygon points="181.85 167.82 181.85 170.89 180.07 170.89 180.07 167.82 177.49 163.32 179.53 163.32 180.97 166.12 182.44 163.32 184.44 163.32 181.85 167.82" fill="#fff"/>
      <path d="m192.59,168.46c0,.79-.22,1.42-.67,1.88-.45.47-1.09.69-1.89.69-.48,0-.88-.1-1.22-.32-.34-.22-.63-.57-.88-1.04l1.38-.79c.19.38.43.58.72.58.52,0,.79-.38.79-1.14v-5h1.78v5.14Z" fill="#fff"/>
      <path d="m197.59,169.44c.65,0,1.18-.22,1.61-.66.43-.44.64-1,.64-1.67s-.22-1.22-.64-1.66c-.43-.44-.97-.67-1.61-.67s-1.17.23-1.6.67c-.43.45-.65,1.01-.65,1.66s.21,1.22.65,1.67c.43.45.97.67,1.6.67m0,1.6c-1.14,0-2.1-.37-2.87-1.13-.77-.76-1.16-1.69-1.16-2.8s.38-2.03,1.15-2.79c.77-.75,1.73-1.13,2.87-1.14,1.15,0,2.1.38,2.88,1.14.77.75,1.16,1.68,1.16,2.79,0,1.11-.39,2.05-1.16,2.8-.77.75-1.73,1.13-2.88,1.13" fill="#fff"/>
      <path d="m209.48,167.38c0,.72-.09,1.29-.24,1.68-.15.39-.38.75-.68,1.05-.3.31-.66.54-1.1.69-.43.16-.93.22-1.5.22-.53,0-1-.08-1.41-.23-.42-.15-.77-.39-1.06-.7-.3-.32-.52-.67-.67-1.07-.15-.4-.23-.96-.23-1.66v-4.06h1.78v4c0,.7.15,1.24.44,1.59.28.36.69.54,1.23.54,1.11,0,1.67-.71,1.67-2.13v-4h1.78v4.06Z" fill="#fff"/>
      <path d="m212.48,164.74v1.78h.61c.32,0,.58-.09.78-.26.19-.18.29-.4.29-.66,0-.25-.09-.45-.27-.61-.18-.16-.42-.24-.73-.24h-.68Zm2.21,6.15l-1.87-2.86h-.34v2.86h-1.78v-7.57h2.58c.84,0,1.5.21,1.97.62.47.41.7.97.7,1.68,0,.48-.12.89-.36,1.24-.24.35-.58.62-1.03.79l2.15,3.24h-2.02Z" fill="#fff"/>
      <polygon points="222.56 170.89 219.23 166.2 219.23 170.89 217.45 170.89 217.45 163.32 219.25 163.32 222.62 168.07 222.62 163.32 224.39 163.32 224.39 170.89 222.56 170.89" fill="#fff"/>
      <polygon points="225.64 170.89 225.64 163.32 230.37 163.32 230.37 164.84 227.42 164.84 227.42 166.14 229.76 166.14 229.76 167.67 227.42 167.67 227.42 169.31 230.61 169.31 230.61 170.89 225.64 170.89" fill="#fff"/>
      <polygon points="235.43 167.82 235.43 170.89 233.66 170.89 233.66 167.82 231.07 163.32 233.11 163.32 234.55 166.12 236.02 163.32 238.02 163.32 235.43 167.82" fill="#fff"/>
      <polygon points="248.02 170.89 248.02 166.2 245.91 168.84 243.85 166.2 243.85 170.89 242.08 170.89 242.08 163.32 243.75 163.32 245.91 166.2 248.02 163.32 249.8 163.32 249.8 170.89 248.02 170.89" fill="#fff"/>
      <path d="m254.3,165.4l-.84,2.58h1.7l-.85-2.58Zm1.82,5.49l-.45-1.38h-2.7l-.44,1.38h-1.93l2.8-7.57h1.8l2.87,7.57h-1.94Z" fill="#fff"/>
      <polygon points="262.28 164.9 262.28 170.89 260.5 170.89 260.5 164.9 258.46 164.9 258.46 163.32 264.32 163.32 264.32 164.9 262.28 164.9" fill="#fff"/>
      <polygon points="268.6 164.9 268.6 170.89 266.82 170.89 266.82 164.9 264.78 164.9 264.78 163.32 270.65 163.32 270.65 164.9 268.6 164.9" fill="#fff"/>
      <polygon points="271.5 170.89 271.5 163.32 276.23 163.32 276.23 164.84 273.27 164.84 273.27 166.14 275.61 166.14 275.61 167.67 273.27 167.67 273.27 169.31 276.47 169.31 276.47 170.89 271.5 170.89" fill="#fff"/>
      <path d="m279.16,164.74v1.78h.61c.32,0,.59-.09.77-.26.19-.18.29-.4.29-.66,0-.25-.09-.45-.27-.61-.18-.16-.42-.24-.73-.24h-.68Zm2.21,6.15l-1.87-2.86h-.34v2.86h-1.78v-7.57h2.57c.85,0,1.51.21,1.97.62.46.41.69.97.69,1.68,0,.48-.12.89-.36,1.24-.23.35-.58.62-1.03.79l2.16,3.24h-2.02Z" fill="#fff"/>
      <path d="m283.84,169.39l1.34-.8c.27.61.68.92,1.26.92.31,0,.55-.07.73-.2.18-.13.28-.32.28-.54,0-.2-.07-.36-.21-.5-.14-.14-.52-.35-1.15-.64-.73-.33-1.23-.66-1.49-1.01-.27-.34-.4-.76-.4-1.26,0-.61.23-1.13.7-1.54.47-.42,1.07-.63,1.79-.63,1.05,0,1.81.42,2.29,1.24l-1.24.79c-.24-.39-.59-.6-1.05-.6-.24,0-.43.06-.58.18-.15.12-.22.27-.22.46s.09.35.23.48c.16.13.5.32,1.01.56.76.36,1.31.72,1.62,1.08.31.36.47.81.47,1.36,0,.67-.27,1.23-.81,1.65-.53.44-1.2.65-2,.65-1.16,0-2.02-.55-2.57-1.64" fill="#fff"/>
    </g>
  </g>
  <g id="logo">
    <g>
      <polygon points="159.32 111.99 159.32 123.77 155.83 123.77 155.83 111.99 151.81 111.99 151.81 108.9 163.34 108.9 163.34 111.99 159.32 111.99" fill="#fff"/>
      <path d="m168.53,111.69v3.5h1.21c.64,0,1.15-.16,1.53-.51.38-.35.57-.78.57-1.3,0-.48-.18-.88-.53-1.2-.35-.32-.83-.48-1.43-.48h-1.34Zm4.35,12.08l-3.68-5.62h-.68v5.62h-3.49v-14.87h5.06c1.66,0,2.95.4,3.86,1.21.92.8,1.37,1.9,1.37,3.31,0,.94-.23,1.74-.7,2.43-.47.69-1.14,1.2-2.02,1.56l4.24,6.36h-3.96Z" fill="#fff"/>
      <path d="m184.68,112.98l-1.66,5.07h3.34l-1.69-5.07Zm3.58,10.79l-.89-2.7h-5.3l-.87,2.7h-3.79l5.48-14.87h3.54l5.65,14.87h-3.82Z" fill="#fff"/>
      <polygon points="203.65 123.77 197.13 114.56 197.13 123.77 193.63 123.77 193.63 108.9 197.14 108.9 203.78 118.21 203.78 108.9 207.27 108.9 207.27 123.77 203.65 123.77" fill="#fff"/>
      <path d="m209.15,120.82l2.63-1.58c.52,1.2,1.35,1.81,2.48,1.81.6,0,1.08-.14,1.44-.4.35-.27.53-.63.54-1.07,0-.39-.14-.72-.41-1-.28-.28-1.03-.7-2.26-1.26-1.44-.64-2.42-1.3-2.94-1.98-.52-.68-.78-1.5-.78-2.48,0-1.2.47-2.21,1.39-3.02.92-.82,2.1-1.23,3.52-1.23,2.07,0,3.56.81,4.49,2.43l-2.43,1.56c-.45-.78-1.15-1.16-2.07-1.16-.46,0-.84.11-1.14.35-.29.23-.43.53-.43.9s.15.68.46.94c.3.26.96.63,1.98,1.1,1.51.7,2.57,1.41,3.19,2.11.62.71.93,1.6.93,2.66,0,1.31-.53,2.41-1.59,3.25-1.06.85-2.37,1.28-3.93,1.28-2.28,0-3.97-1.07-5.06-3.23" fill="#fff"/>
      <path d="m225.19,111.76v4.29h1.11c.84,0,1.47-.18,1.91-.55.43-.37.65-.9.65-1.58s-.22-1.24-.65-1.61c-.43-.37-1.07-.55-1.91-.55h-1.11Zm0,7.15v4.87h-3.49v-14.87h4.97c1.79,0,3.19.45,4.19,1.34,1,.89,1.5,2.1,1.5,3.62s-.53,2.78-1.59,3.69c-1.06.91-2.47,1.35-4.24,1.35h-1.34Z" fill="#fff"/>
      <path d="m241.67,120.92c1.26,0,2.31-.44,3.16-1.32.85-.87,1.27-1.97,1.27-3.27s-.42-2.39-1.27-3.27c-.85-.87-1.9-1.3-3.16-1.3s-2.32.44-3.16,1.31c-.84.88-1.26,1.96-1.26,3.26s.42,2.39,1.27,3.27c.85.88,1.89,1.32,3.15,1.32m0,3.13c-2.25,0-4.13-.74-5.64-2.23-1.51-1.49-2.27-3.32-2.27-5.49,0-2.17.75-4,2.27-5.48,1.52-1.48,3.39-2.23,5.64-2.24,2.25,0,4.13.74,5.66,2.22,1.52,1.48,2.28,3.31,2.28,5.5,0,2.19-.77,4.02-2.28,5.5-1.52,1.48-3.4,2.22-5.66,2.22" fill="#fff"/>
      <path d="m255.08,111.69v3.5h1.2c.64,0,1.15-.16,1.53-.51.38-.35.58-.78.58-1.3-.02-.48-.19-.88-.54-1.2-.35-.32-.83-.48-1.44-.48h-1.33Zm4.35,12.08l-3.68-5.62h-.67v5.62h-3.49v-14.87h5.05c1.66,0,2.95.4,3.86,1.21.91.8,1.37,1.9,1.37,3.31,0,.94-.24,1.74-.7,2.43-.47.69-1.14,1.2-2.02,1.56l4.23,6.36h-3.96Z" fill="#fff"/>
      <polygon points="271.58 111.99 271.58 123.77 268.08 123.77 268.08 111.99 264.07 111.99 264.07 108.9 275.59 108.9 275.59 111.99 271.58 111.99" fill="#fff"/>
      <polygon points="155.28 135.49 155.28 138.03 159.97 138.03 159.97 141.03 155.28 141.03 155.28 147.37 151.79 147.37 151.79 132.5 161.19 132.5 161.19 135.49 155.28 135.49" fill="#fff"/>
      <path d="m170.3,144.52c1.26,0,2.32-.44,3.16-1.32.84-.87,1.27-1.97,1.27-3.28s-.43-2.39-1.27-3.26c-.84-.87-1.9-1.31-3.16-1.31s-2.31.44-3.16,1.32c-.84.88-1.26,1.96-1.26,3.25s.43,2.39,1.27,3.27c.85.88,1.9,1.33,3.15,1.33m0,3.13c-2.25,0-4.13-.74-5.64-2.23-1.51-1.49-2.27-3.32-2.27-5.49,0-2.17.75-3.99,2.27-5.48,1.52-1.48,3.4-2.23,5.65-2.24,2.25,0,4.13.74,5.65,2.22,1.52,1.47,2.28,3.32,2.28,5.49,0,2.2-.77,4.03-2.28,5.51-1.51,1.48-3.4,2.22-5.65,2.22" fill="#fff"/>
      <path d="m183.71,135.29v3.49h1.2c.64,0,1.15-.16,1.53-.51.39-.35.57-.78.57-1.3,0-.47-.18-.88-.53-1.2-.35-.32-.83-.48-1.44-.48h-1.33Zm4.35,12.08l-3.69-5.62h-.67v5.62h-3.5v-14.87h5.06c1.66,0,2.94.4,3.86,1.2.91.81,1.37,1.91,1.37,3.31,0,.94-.24,1.75-.7,2.43-.47.69-1.15,1.21-2.02,1.56l4.23,6.36h-3.96Z" fill="#fff"/>
      <polygon points="198.25 147.37 198.25 132.5 201.74 132.5 201.74 144.26 207.45 144.26 207.45 147.37 198.25 147.37" fill="#fff"/>
      <path d="m216.56,144.52c1.26,0,2.31-.44,3.16-1.32.85-.87,1.27-1.97,1.27-3.28s-.42-2.39-1.27-3.26c-.84-.87-1.89-1.31-3.16-1.31s-2.32.44-3.16,1.32c-.84.88-1.26,1.96-1.26,3.25s.43,2.39,1.26,3.27c.85.88,1.9,1.33,3.15,1.33m0,3.13c-2.25,0-4.13-.74-5.64-2.23-1.52-1.49-2.27-3.32-2.27-5.49,0-2.17.75-3.99,2.26-5.48,1.52-1.48,3.4-2.23,5.65-2.24,2.25,0,4.13.74,5.65,2.22,1.52,1.47,2.27,3.32,2.27,5.49,0,2.2-.77,4.03-2.27,5.51-1.52,1.48-3.4,2.22-5.65,2.22" fill="#fff"/>
      <polygon points="236.47 147.37 229.95 138.16 229.95 147.37 226.46 147.37 226.46 132.5 229.97 132.5 236.6 141.81 236.6 132.5 240.09 132.5 240.09 147.37 236.47 147.37" fill="#fff"/>
      <path d="m246.04,135.4v9.07h.96c1.62,0,2.88-.4,3.79-1.2.91-.79,1.37-1.91,1.37-3.33,0-1.46-.47-2.58-1.37-3.37-.91-.78-2.17-1.18-3.79-1.18h-.96Zm-3.5,11.97v-14.87h4.79c2.53,0,4.55.66,6.05,1.98,1.51,1.32,2.26,3.1,2.26,5.36,0,2.4-.75,4.25-2.27,5.56-1.51,1.31-3.6,1.97-6.26,1.97h-4.57Z" fill="#fff"/>
      <path d="m265.05,144.52c1.26,0,2.32-.44,3.17-1.32.84-.87,1.27-1.97,1.27-3.28s-.43-2.39-1.27-3.26c-.85-.87-1.91-1.31-3.17-1.31s-2.31.44-3.15,1.32c-.84.88-1.26,1.96-1.26,3.25s.42,2.39,1.27,3.27c.84.88,1.89,1.33,3.15,1.33m0,3.13c-2.25,0-4.13-.74-5.64-2.23-1.51-1.49-2.27-3.32-2.27-5.49-.01-2.17.75-3.99,2.26-5.48,1.52-1.48,3.4-2.23,5.65-2.24,2.25,0,4.14.74,5.65,2.22,1.52,1.47,2.28,3.32,2.28,5.49,0,2.2-.77,4.03-2.28,5.51-1.51,1.48-3.4,2.22-5.65,2.22" fill="#fff"/>
      <polygon points="285.22 147.37 278.7 138.16 278.7 147.37 275.21 147.37 275.21 132.5 278.72 132.5 285.35 141.81 285.35 132.5 288.84 132.5 288.84 147.37 285.22 147.37" fill="#fff"/>
    </g>
  </g>
  <g id="logo_line">
    <rect x="151.79" y="154.83" width="137.05" height="1.5" fill="#fff"/>
  </g>
</svg>