<?xml version="1.0" encoding="UTF-8"?>
<svg xmlns="http://www.w3.org/2000/svg" width="300" height="250.06" xmlns:xlink="http://www.w3.org/1999/xlink" viewBox="0 0 300 250.06">
  <defs>
    <linearGradient id="linear-gradient" x1="150" y1="245.07" x2="150" y2="-43.47" gradientTransform="translate(0 250.11) scale(1 -1)" gradientUnits="userSpaceOnUse">
      <stop offset="0" stop-color="#ffc93f"/>
      <stop offset="1" stop-color="#eb5d00"/>
    </linearGradient>
    <linearGradient id="linear-gradient-2" x1="150" y1="379.05" x2="150" y2="-6.37" gradientTransform="translate(0 250.11) scale(1 -1)" gradientUnits="userSpaceOnUse">
      <stop offset="0" stop-color="#ffc93f"/>
      <stop offset="1" stop-color="#dc5d00"/>
    </linearGradient>
    <linearGradient id="linear-gradient-3" x1="252.06" y1="221.79" x2="199.01" y2="54.98" gradientTransform="translate(0 250.11) scale(1 -1)" gradientUnits="userSpaceOnUse">
      <stop offset="0" stop-color="#ffe872"/>
      <stop offset="1" stop-color="#eb5d00"/>
    </linearGradient>
    <linearGradient id="linear-gradient-4" x1="171.17" y1="300.08" x2="43.86" y2="-100.31" xlink:href="#linear-gradient-3"/>
    <radialGradient id="radial-gradient" cx="31.97" cy="117.19" fx="31.97" fy="117.19" r="68.58" gradientUnits="userSpaceOnUse">
      <stop offset="0" stop-color="#ffffcf"/>
      <stop offset=".72" stop-color="#fbe28c"/>
      <stop offset="1" stop-color="#fad772"/>
    </radialGradient>
    <radialGradient id="radial-gradient-2" cx="1.84" cy="58.19" fx="1.84" fy="58.19" r="13.5" xlink:href="#radial-gradient"/>
    <radialGradient id="radial-gradient-3" cx="94.26" cy="157.28" fx="94.26" fy="157.28" r="175.74" xlink:href="#radial-gradient"/>
    <radialGradient id="radial-gradient-4" cx="88.39" cy="54.87" fx="88.39" fy="54.87" r="7.57" xlink:href="#radial-gradient"/>
    <radialGradient id="radial-gradient-5" cx="7.47" cy="93.72" fx="7.47" fy="93.72" r=".41" xlink:href="#radial-gradient"/>
    <radialGradient id="radial-gradient-6" cx="27.57" cy="66.29" fx="27.57" fy="66.29" r=".86" xlink:href="#radial-gradient"/>
    <radialGradient id="radial-gradient-7" cx="34.26" cy="142.54" fx="34.26" fy="142.54" r=".49" xlink:href="#radial-gradient"/>
    <radialGradient id="radial-gradient-8" cx="53.25" cy="70.21" fx="53.25" fy="70.21" r=".95" xlink:href="#radial-gradient"/>
    <radialGradient id="radial-gradient-9" cx="-23.46" cy="135.44" fx="-23.46" fy="135.44" r="41.77" xlink:href="#radial-gradient"/>
    <radialGradient id="radial-gradient-10" cx="101.93" cy="122.5" fx="101.93" fy="122.5" r="28.37" gradientTransform="translate(0 250.1) scale(1 -1)" gradientUnits="userSpaceOnUse">
      <stop offset="0" stop-color="#fff59f"/>
      <stop offset=".99" stop-color="#3a2b3d"/>
    </radialGradient>
    <linearGradient id="linear-gradient-5" x1="149.96" y1="286.29" x2="92.37" y2="223.81" gradientTransform="matrix(1,0,0,1,0,0)" xlink:href="#linear-gradient"/>
  </defs>
  <g id="background">
    <g id="background-2" data-name="background">
      <rect y=".06" width="300" height="249.99" style="fill: url(#linear-gradient);"/>
    </g>
    <g id="could2">
      <path d="m299.95,89.35c-1.65-.95-6.8-8.58-6.89-8.59-9.11-1.33-20.11-5.55-29.06-1.39-5.91,2.75-7.92,6.88-14.19,7.18-11.16.53-22.74-.59-34.22.48-14.37,1.33-40.4-5.63-52.9,8.12,11.82,6.93,28.51,4.02,40.93,5.71,11.8,1.6,34.1,14.54,44.96,6.49-3.31-1.45-6.58-3.79-9.69-6.2,16.29-6.93,36.07-8.21,52.25-1.38-2.72,3.64-7.29,4.47-10.58,6.71,4.35.51,8.67,2,12.75,4.6-1.79,4.21-5.7,6.15-7.8,8.64,1.92.41,2.69,1.45,4.19,2.2-6.03,4.92-21.39,7.24-25.87,2.26-10.2,7.32-28.23,9.17-40.33,7.87-36.83-3.94-73.14-7.74-109.86-5.21-13.94.96-40.79-12.57-52.22,5.98,21.39,14.94,51.23,14.98,73.73,17.82-6.97,9.09-22.99,9.34-32.23,7.8-12.28-2.06-21.62-.2-33.95,3.17-22.18,6.05-68.97,5.92-68.97,5.92v82.54h300" style="fill: url(#linear-gradient-2);"/>
    </g>
    <g id="cloud1">
      <path d="m300,47.33c-13.34-.03-27.48-2.74-39.68,2.46,5.46,1.67,11.28,2.71,16.37,5.85-5.28,2.28-17.49.64-19.1,7.44-26.64,8.91-58.87-.12-85.01,12.01,27.74,2.63,56.36,1.68,83.87-4.11-3.19-.49-6.72-.17-9.92-.66,6.23-2.49,16.76-4.84,21.49,1.76-1.45,1.22-2.43,3.46-3.55,4.53,8.36,4.8,25.81,3.08,35.51,4.18v-33.46h.02Z" style="fill: url(#linear-gradient-3);"/>
      <path d="m300,.06H0l.11,68.5c44.57-2.13,73.75.42,118.36,2.06,13.24.49,28.92,4.25,41.98-.25-4.85-5.85-21.14-3.5-27.7-4.4,6.06-3.53,13.66-1.57,19.18-5.97-15.25-4.59-36.06,8.44-49.73.47,2.76-3.43,7.13-3.32,11.08-5.6-3.77-1.96-8.13-2.77-12.25-3.54,2.08-2.1,5.14-3.76,8.1-4.43-2.11-1.11-5.04-3.84-7.84-4.43,16.89-10.27,38.88,2.63,56.7-5.14-6.34-1.24-16.76-1.79-21.75-6.18,5.68-4.49,15.46-3.25,19.4-8.86-1.02-.88-1.98-2.12-3-2.96,24.5.03,49.47-6.01,73.93-3.24,11.56,1.31,21.93,3.21,33.71,2.18,11.94-1.04,24.17-2.84,35.7,2.55-3.03,2.08-6.64,3.18-9.96,4.06,1.91.4,3.9,1.77,5.86,2.16-2.7,1.38-5.81,2.7-8.69,3.7,4.61,2.81,11.07,3.07,16.63,3l.18-33.68Z" style="fill: url(#linear-gradient-4);"/>
    </g>
  </g>
  <g id="moon">
    <g id="Moon">
      <g>
        <path d="m94.95,77.81c0,36.76-29.79,66.55-66.55,66.55-10.11,0-19.69-2.25-28.27-6.29V46.9c-.16-.83-.18-1.65,0-2.39v-26.96c8.58-4.04,18.16-6.29,28.27-6.29,18.68,0,35.56,7.7,47.65,20.09,6.55,6.72,11.7,14.83,14.95,23.84,2.5,6.9,3.89,14.33,3.94,22.08.01.18.01.36.01.54Z" style="fill: url(#radial-gradient);"/>
        <path d="m.13,46.9c.27,1.46.95,2.96,1.58,4.12-.55-.23-1.07-.42-1.58-.57v-3.55Z" style="fill: url(#radial-gradient-2);"/>
        <path d="m.13,16.4c9.43-3.91,20.32-5.62,28.27-5.62,12.73,0,27.43,4.18,37.92,11.35,4.02,2.75,7.1,5.86,9.73,9.22,4.1,5.24,7.08,11.09,10.76,17.15-1.33-2-2.92-3.59-5.83-2.83.71.53,1.17,1.27,2.2,1.75-5.29-1.95-5.1,2.39-8.74,4.29-3.85,2.01-10.44.76-14.89,1.93,1.21.25,2.25,1.75,3.03,2.34-1,.04-2.3.88-3.58.67.85,1.93,2.81,4.02,2.28,6.57-1.75-1.01-3.52-2.42-5.37-3.44.89,1.81.36,2.82.15,4.48-2.59-1.29-3.05-4.46-3.81-6.89-1.79,1.41-3.94,2.43-6.1,3.23,1.37-2.45,4.72-5.64,7.17-7.05-.23,2.93,1.53,5.21,4.22,3.43,2.22-1.47.64-4.6,2.05-6.16,1.31-1.45,5.99-2.53,7.86-3.81,4.27-2.93,10.03-5.97,3.37-10.29-4.53-2.94-9.61-1.49-10.95,4.15-1.61-.83-3.14-2.18-4.25-3.69,5.18.14,4.67-8.07.26-7.29-3.57.64-1.65,6.48-5.95,7.77,1.97-2.76-1.55-6.79-4.25-7.55-3-.85-6.82.54-10.14,0-5.21-.84-7.31-.79-10.71,3.32-3.01,3.65-5.74,6.94-6.29,11.79-3.04-2.02-5.87-1.69-9.05-.3,2.61-3.19-2.05-5.76-4.82-5.21-.27,3.69-2.24,1.75-3.72,3.29-.42.44-.68.95-.82,1.51v-28.11Z" style="fill: url(#radial-gradient-3);"/>
        <path d="m88.27,50.83v.02c-.49-.77-.97-1.54-1.43-2.31.49.74.95,1.54,1.43,2.29Z" style="fill: url(#radial-gradient-4);"/>
        <path d="m7.7,93.73c.33-.08.64-.14.93-.18-.31.09-.62.14-.93.18Z" style="fill: url(#radial-gradient-5);"/>
        <path d="m28.06,66.46c.38-.87,1.02-1.62,1.95-2.18-.8.56-1.42,1.33-1.95,2.18Z" style="fill: url(#radial-gradient-6);"/>
        <path d="m34.54,142.51c.37-.01.75-.02,1.12-.04-.37.04-.74.07-1.1.08l-.02-.04Z" style="fill: url(#radial-gradient-7);"/>
        <path d="m55.95,69.59c-.71.27-1.43.49-2.16.67.71-.3,1.44-.55,2.16-.67Z" style="fill: url(#radial-gradient-8);"/>
        <path d="m.13,102.75c1.26-.19,2.58-.33,4.09-.17,3.84.4,5.56,2.59,7.83,7.17-.57.11-.53-.5-1.23-.5,2.62,4.91,10.5,8.54,15.86,9.81,7.36,1.76,19.04-1.58,21.78,8.71,1.87,7.04-6.08,13.81-12.72,14.69,33.46-1.51,58.95-32.92,59.2-65.19.01-.16.01-.33.01-.49,0-6.38-.38-15.47-3.95-21.59-.58-1.01-1.25-1.93-2.02-2.75,1.78,3.13-.56,13.11-.21,17.33-2.27.29-4.82.18-7.23.4,3.23,5.63,10.64,21.12,8.14,27.38-.49,1.23-3.93,1.49-4.99,3.02-1.64,2.35-1.42,5.95-3.14,8.53-4.72-5.95-5.87,1.77-7.53,5.7-8.48-.37,13.27-22.47,4.34-27.6.48,1.09.57,2.05-.14,2.99-.42-.08-5.55-3.77-3.98-4.36-3.16,1.18-5.95-.85-8.7-2.44,2.88,3.23,2.4,7.87-1.12,10.47-.69-1.4-1.61-.98-1.78-3.23-.65,2.2-2.04,2.77-3.34,4.45-1.33-1.72-2.18-3.94-2.4-6.23-2.83,4.01-4.02,9.3-9.56,10.25-5.25.91-12.53-3.83-13.69-9.26.8-1.4,2.14-2.2,3.15-3.47,1.16,1.74,1.94,4.6,3.05,6.56.28-3.4,1.62-7.34.45-10.63,4.99,1.77,10.15,3.4,15.19,4.87-.69-3.99-4.07-6.81-7.3-9,1.72-1.98,4.58-2.32,6.68-4.04-1.01-.37-2.91-2.11-4.1-2.43.93-.42,1.96-.99,3.02-1.44-2.81.71-5.76.79-8.71.58,6.42,5.39-13.78,14.22-13.92.98.38,0,.85-.02,1.3-.05-1.57-.01-2.99-.64-4.53-1.01-.44-1.52-.43-3.02.12-4.27-1.95,3.17-2.72,7.49-7.28,6.96,1.1,2.37,8.48,7.89,8.12,10.02-.72,4.25-11.02,1.87-13.95,1.18,1.15,3.37-2.06,7.88-6.31,8.9,7.06-.77,3.87,12.84-2.52,4.11.13.3.88,1.43,1.06,1.65-1.7-1-4.71-2.25-7.04-3.7v7.14Z" style="fill: url(#radial-gradient-9);"/>
      </g>
    </g>
  </g>
  <g id="castle">
    <g id="house">
      <g>
        <path d="m48.07,230.81c-.04-.14,3-1.21,3.18-1.82.2-.68-.47-1.34-.78-1.86-.44-.75-.64-1.45-.86-2.28-.27-1.04-.37-3.35.75-4.06-1.82,1.15-2.84,1.75-4.3-.06-1.27-1.56-2.83-3.19-3.41-5.16-.15-.52-.12-1.47-.53-1.86-.31-.3-.76-.08-1.12-.28-1.48-.86-1.44-3.31-1.5-4.77-.04-.86.08-1.71.05-2.57-.05-.97-.65-2.08-.53-3.04.02-.11.58-1.46.89-.93-.27-.47-.63-.92-.61-1.49-.44.54-.41,1.28-1.12,1.61-1.22-1.45-.8-3.04-.44-4.62.19-.84.44-1.76,1.12-2.31.58-.47,1.29-.64,1.97-.92.47-.2.74-.78,1.2-.92.38-.11,1.47.32,1.87.41.76.19,1.51.5,2.28.64-.56-.7-2.03-.95-2.88-1.07.36-.19.66-.43,1-.63-.42.26-1.21.7-1.73.44.41-.28.8-.95,1.23-1.13.61-.25,1.75.57,2.32.8,1.23.52,2.37,1.94,3.72,2-.54-.43-1.1-.85-1.7-1.19-.25-.14-.43-.22-.62-.46.32-.24.75-.25,1.11-.41.6-.27,1.14-.67,1.69-1.03-.86.49-2.08,1.16-3.12,1.18-1.04,0-1.94-1.04-2.87-1.43.45-.6.55-1.13.54-1.87,0-.44.02-.63.27-1.03.41-.65,1.14-1.28,1.36-2.04.14-.48-.09-1.1-.25-1.59.17.77.17,1.19-.2,1.84-.38.68-.99,1.23-1.29,1.96-.54-.69-.85-1.44-1.3-2.17.1.68.24,1.21.65,1.76.35.47.53.78.48,1.38-.1,1.39-1.15,2.01-2.13,2.79-.39-.62-.43-1.58-.28-2.27.24-1.05.3-2.32,0-3.39,0,.43.37,2.7.07,2.93-.26.2-1.05-.75-1.27-.94.78.88,1.56,2.63.89,3.77-.24.4-1.23,1.42-1.75,1.39-.51-.03-.5-.94-.58-1.36-.04.38-.22,1.3.03,1.65-.43.27-1.98.78-1.6,1.48-.76-1.39-.69-3.27-1.06-4.79-.24-1.01,0-1.08.73-1.86,1.25-1.34,2.42-2.64,3.52-4.12.24-.34.63-1.16,1.01-1.3,1.17-.44,3.04.2,4.28.23-.13-.56.45-.74.82-.99.93-.62,1.71-1.54,2.69-2.07-1.78.89-4.45,3.35-6.62,1.97-1.1-.7-.12-1.38.51-1.96.6-.56,1.37-3.14,2.37-2.76.15.06.46.61.62.74.42.34.98.53,1.43.83-.49-.57-1.05-1.08-1.61-1.56.58-.24,1.22-.37,1.77-.68,1.04-.58,1.94-1.58,2.52-2.63-.45.35-.75.89-1.21,1.26-.76.63-1.45,1.2-2.41,1.5-.49.15-1.72.7-2.22.25-.38-.35-.41-1.41-.55-1.87-.22-.78-.53-1.54-.93-2.25-.84-1.47-1.4-2.95-1.09-4.73.09.88-.08,1.72,0,2.57.09,1.15,1.04,2.04,1.14,3.18-.72-.47-1.47-1.05-2.02-1.71.89,1.39,2.3,2.34,2.76,4.02.37,1.34-.16,1.73-.77,2.68-.47.73-.86,1.52-1.34,2.23-.11-.41-.33-.77-.32-1.22,0-.69.59-1.23.56-1.91-.36.51-.67,1.24-1.09.67-.36-.49-.24-2.2-.34-2.84.03,1.46.27,2.86.62,4.29.23.91.58,1.67,0,2.39-.26.32-.7.54-.97.88-.48.57-.83,1.24-1.23,1.86-.43.66-.97,1.38-1.67,1.76-.11.06-1.84.63-1.79.71-.71-1.22-1.61-2.35-2.26-3.6-.44-.86-.29-1.28-.16-2.16.24-1.47.53-2.92.75-4.41-.18.51-.24,1.06-.41,1.57-.15.45-.55.94-.57,1.44.04-.73-.2-1.52-.49-2.19.41-.29.67-.68,1.08-.96.78-.53,1.7-.86,2.43-1.47-.81.49-2.13,1.2-3.1,1.1-.25.57-.57,1.31-.59,1.93-.72-.88-2.03-2.21-2.13-3.41-.09-1.14,1.43-1.99,2.16-2.62-.35-.51-.86-.93-1.22-1.45.09.53.78,1.13.59,1.58-.14.35-1.13.86-1.45,1.16-.96-1.35-.16-2.51-.16-3.92-.27.67-.56,1.47-.58,2.18-.02-.23-.07-.46-.11-.68.26,1.21.26,2.45.57,3.66-2.35-1.19-2.93-4.4-3.81-6.63.32,1.46.81,2.97,1.25,4.39.33,1.05,1.6,1.84,2.35,2.63.57.61.76,1.45,1.14,2.18-.33.04-1.14.24-1.42.13-.52-.22-.52-1.2-1.13-1.54.08.55.45,1.25.68,1.79-.51.57-1.32.81-1.94,1.24.86-.14,2.33-.69,2.88-1.41.51.2,1.1.17,1.64.13.13.53.43.83.73,1.26.56.85.34,1.92.11,2.88-.41-.27-1.24-1.19-1.73-1.16-.12,0,.73.73.77.75.38.25.73.55,1.05.87.31.3.29.33.45.8.24.75,1.81,2.56,1.36,3.32-.37.62-1.89.73-2.53.94.91-.3,2.49-1.12,3.31-.25.59.62.59,1.86.66,2.63.18,2.2.71,4.11-.89,5.85-.11.12-.03.18-.17.25-1.16.58-3.68-.63-3.92-1.96-.2-1.07-.14-1.53.51-2.38.53-.69.92-1.22,1.28-2.01-.39.85-1.21,1.26-1.67,2.01.02-.93.26-1.7-.34-2.54-.5-.7-.73-1.34-1.05-2.13-.03.49.16.96.43,1.34.39.54.68,1.1.93,1.75.2.51.17.63-.39.38-.64-.28-1.25-.85-1.72-1.37.34.46.67,1.05,1.16,1.35.41.24.57.08.59.64.03.63-.35,1.24-.34,1.89,0,.6.17,1.22.24,1.82-.89-.29-1.36-1.26-1.63-2.07-.32-.96-.89-1.86-.8-2.91.14-1.65.75-3.31.25-4.99,0,1.54.13,3-.32,4.46-.08-.48-.28-.94-.4-1.41-.1.63.29,1.48.36,2.14.08.71.26,1.41.3,2.12-2.32-2.67-6.53-5.76-4.89-9.81.99-2.46,3.24-4.01,3.84-6.69-1.17.85-1.2,2.91-2.34,3.81-.29-.62-.08-1.43-.44-2.03-.24.88.25,1.88.04,2.67-.18.68-.84,1.87-1.48,2.14-.23-1.08-.26-2.19-.21-3.28.05-.93-.12-1.97.14-2.85.3-1.01.54-2.11.85-3.09-.23.71-.2,1.48-.75,2.03-.89-1.48-2.27-2.37-2.1-4.19-.04.4-.1.92-.45,1.13-.54-.53-1.22-1-1.14-1.79.04-.36.32-.72.36-1.11.08-.62-.04-1.31-.08-1.94-.1.5-.16,2.42-.61,2.63-.6.27-1.07-1.66-1.15-1.93-.31-1.22-.86-1.99-1.83-2.84.74.65,1.36,2.22,1.81,3.1.52,1,.86,2.08,1.38,3.06.53.99,3.01,2.09,2.94,3.26-.08,1.29-3.02-.99-3.38-1.33,1.6,1.53,4.11,2.23,3.68,4.78-.24,1.41-.22,3.03-.3,4.53-.82.06-1.22.32-1.93-.27-.29-.24-1.05-1.44-1.5-1.37.49-.08.94-1,1.05-1.41.22-.77-.23-1.18-.35-1.93.09.55.14,1.19.13,1.73-.95-.9-1.49-2.6-2.08-3.75.43.93.9,1.84,1.26,2.81.15.4.39.89.35,1.34,0,.14-.45,1.05-.47,1.02-.92-1.38-1.98-2.64-2.92-4.03-.05.89.9,1.63,1.4,2.28.6.77,1.02,2.69,1.97,3.13-1.03-.47-1.9-.77-2.65-1.7-1.02-1.27-3.15-3.62-3.21-5.35.04.94.47,2.1.9,2.94s1.31,1.4,1.68,2.24c-.41.84-2.17-1-2.54-1.37,1.05,1.04,2.47,1.79,3.72,2.54.99.59,2.71,1.05,1.77,2.52-.5-.16-1.75-.34-2.16.04.8.26,1.94.3,2.72.41.04-.49.18-.96.14-1.46,0,.08,2.09.14,2.34.4.32.35.24.99.39,1.42.57,1.79,1.39,3.93,2.81,5.24,1.05.97,1.87,1.39,2.35,2.88,0,0-1.54-.28-1.68-.34-.59-.21-1.14-.54-1.64-.93-1.05-.84-1.86-1.97-2.89-2.84.57.79,1.47,1.46,1.92,2.31-1.39.51-2.58-1.71-3.48-2.49.6.83,1.79,2.63,2.91,2.7.99.08,2.11.77,2.62,1.69-.84.4-2.27,1.55-3.22.91-.76-.52-.88-1.64-1.61-2.18.34.57,1.04,1.45,1.03,2.15-1.08-.29-1.54-.49-2.19-1.51-.31-.49-2.99-3.42-1.76-3.94.4-.17.85.15,1.3-.19-.28-.18-.71,0-1.03,0,.12-.45.48-.73.65-1.15.21-.52.08-1.22-.07-1.75.17,1.09-.7,3.96-2.19,2.57-.53-.49-.73-1.34-1.07-1.95-.6-1.06-1.38-2.05-2.08-3.04.21.25.15.49.24.77.1.33.31.59.47.89.57,1.05,1.4,1.94,1.91,3.02-.35-.32-.69-.68-1-1.05-.34-.41-.8-.62-1.14-1.01.11.65.85,1.18,1.28,1.62.58.59,1.25,1.1,1.81,1.72.33.38.36.84.63,1.25-.39,0-1.47-.98-1.69-1.33-.2-.32-.08-.7-.34-1.02.03.28.2.59.06.9-.37-.34-.71-.31-1.14-.43-.49-.14-.5-.28-.73-.76-.59-1.22-1.73-2.2-2.77-3.03.34.4,1.29,1.86,1.85,1.9-.39-.03-.87-.11-1.18.09.5.22,1.04.06,1.42.39.27.23.71.8.74,1.18-.51,0-1.01-.19-1.5-.34-.59-.19-.79-.54-1.29-.94-.69-.56-1.45-1.05-2.28-1.33.79.88,2.43,1.1,2.95,2.19-.59.06-1.25.1-1.8-.27.7.26,1.47.17,2.16.42.54.2,1.03.46,1.6.61.93.24,1.7.71,2.47,1.35.02.26-1.05.9-1.28.91-.48.02-1.41-.93-1.83-1.19-.27-.16-.56-.38-.88-.33.48.38.96.76,1.49,1.06.24.14.66.26.84.51.41.57-.12,1.49-.37,2,.26-.33.63-.66.77-1.07.1-.3.03-.56.23-.81.31-.4,1.1-.77,1.61-.68.57.11.89.64,1.29,1.02.51.48,1.32,1.14,1.59,1.8-.28.39-.95.65-1.38.86-.56-.64-1.43-1.14-2.12-1.62.3.67,1.19.89,1.49,1.54-.41.24-.85-.13-1.24.13.29.16.66.13.98.16-1.07.43-1.58.35-2.59-.16-.41-.21-.83-.32-1.21-.61-.6-.47-1.13-1.06-1.71-1.56.3.32,1.54,1.38.58,1.27-1.05-.12-2.16-1.08-3.13-1.52,1.06.72,2.15,1.46,3.35,1.89.59.22,1.62.28,2.06.81.5.59-.08,1.37-.37,1.89-.58,1.05-.9,2.03-.89,3.24,0-.36.89-2.27.75-2.43.31.39.79.61,1.13.99.15.16.25.38.43.52-.57-.67-.87-1.22-1.66-1.58,0,0,.56-.89.6-.99.26-.54.39-.9,1.03-1.05.45-.09.91-.12,1.34-.26.45-.15.87-.34,1.35-.43.47.8-.93,3.02-1.41,3.64.56-.32.87-.8,1.1-1.38.25-.6.67-1.16.87-1.79.11-.37.14-.66.52-.85.73-.36,1.54.41,2.19.66.34.13,2.14.44,2.33.07-.34.72-.56,1.29-1.14,1.8-.35.3-1.79,1.35-1.64,1.79.43-.44,1.42-1.9,2.06-1.95.61-.05.74,1.41.89,1.88-.15-1.2-.9-2.76.32-3.53.82-.52,1.86-.49,2.79-.24,1.03.28,1.8.98,2.65,1.59.84.6.53,1.27-.24,1.7-1.01.57-2.54,1.78-3.77,1.66-.57-.06-1.38-.4-1.87-.72.34.57,1.4.6,1.58,1.12-.41.08-.89-.16-1.31-.24-.79-.15-1.57-.39-2.35-.59.87.26,1.8.47,2.65.83.45.2.65.29.38.73-.31.5-1.06.88-1.53,1.22-.51.38-1.03.75-1.54,1.12.57-.27,1.03-.73,1.57-1.04.77-.44,1.57-.85,2.28-1.39.7-.54,1.57-1.06,2.43-1.26.19.52-.46,1.56-.59,2.1-.18.69-.47.99-.82,1.54.55-.64,1.06-1.33,1.34-2.15.15-.46.02-1.05.23-1.47.35-.68,1.54-1.1,2.16-1.49,1.32-.83,3.32.5,4.3,1.4,1.04.95,1.31,2.51,1.95,3.7.38.7,1.63,2.4,1.12,3.26-.27.47-1.44.48-1.84.24.24.8.09,1.81-.43,2.47,2.09-.99,2.56.13,3.12,2.03.67,2.29,1.66,4.62,2.57,6.81.57,1.38,1.56,2.62,2.1,4,.24.61-.04,1.07.1,1.62.21.78,1.03.98,1.65,1.39,1.56,1.05,2.72,3.41,3.22,5.17l-.11.05Z"/>
        <path d="m155.62,225.31c1.67-1.56,3.68-2.53,5.5-3.49-.68-.1-1.02-.08-1.68-.27.44-1.3,1.49-1.68,3.01-2.09.75-.21,1.62-.41,2.5-.18.75.21,1.37.62,2.04.97.47.24,1.09.19,1.52.43.35.21.77,1.13.98,1.45.4.6.67,1.23,1.09,1.82.13-.67-.7-1.78-1.18-2.41.39.16.77.27,1.16.42-.49-.19-1.35-.54-1.53-1,.49.17,1.26.16,1.7.38.61.31.79,1.42,1,1.91.46,1.05.18,2.41,1.07,3.35-.04-.55-.12-1.1-.28-1.65-.07-.23-.13-.39-.08-.61.4.12.71.4,1.08.59.61.3,1.29.51,1.92.73-.95-.39-2.31-.95-3.02-1.65-.73-.71-.57-1.75-.91-2.54.75.06,1.22-.08,1.77-.4.32-.19.48-.24.95-.23.77.02,1.74.25,2.46.09.45-.1.76-.52,1.01-.83-.45.43-.77.6-1.51.61-.77.02-1.6-.17-2.35-.08.14-.65.5-1.17.72-1.78-.43.35-.73.66-.86,1.17-.11.42-.23.68-.7.89-1.11.5-2.29.03-3.55-.31.2-.52.89-.94,1.5-1.12.94-.26,1.94-.74,2.52-1.38-.33.17-1.76,1.36-2.15,1.23-.33-.1-.16-1.03-.18-1.25-.11.89-.89,2.14-2.19,2.15-.47,0-1.91-.26-2.25-.63-.33-.36.36-.73.6-.95-.31.13-1.12.38-1.22.69-.5-.19-1.95-1.04-2.21-.49.52-1.08,1.97-1.8,2.84-2.67.57-.58.82-.43,1.89-.26,1.86.31,3.64.58,5.5.73.42.04,1.3-.05,1.67.15,1.13.61,1.95,2.16,2.78,3.01.32-.32.87,0,1.3.15,1.11.39,2.34.54,3.4.99-1.88-.85-5.58-1.67-6.03-3.72-.24-1.04.94-.64,1.82-.45.84.19,3.29-.34,3.69.5.07.12-.14.57-.12.73.04.43.28.89.37,1.32.08-.57.08-1.16.06-1.74.58.3,1.11.68,1.72.93,1.15.47,2.51.69,3.7.65-.57-.17-1.19-.15-1.77-.31-1-.26-1.88-.51-2.78-1.04-.45-.27-1.71-.89-1.71-1.41,0-.4.76-.87,1.03-1.14.43-.47.79-.99,1.04-1.55.52-1.17,1.23-2.16,2.78-2.67-.58.42-1.34.65-1.92,1.05-.79.54-.82,1.54-1.59,2.08-.14-.68-.23-1.43-.11-2.07-.43,1.17-.16,2.52-1.1,3.52-.74.8-1.4.59-2.53.57-.87-.02-1.72.04-2.59,0,.24-.24.35-.54.69-.72.53-.27,1.34-.09,1.81-.4-.62-.04-1.39.05-1.25-.47.12-.45,1.48-1.06,1.87-1.38-1.07.61-1.95,1.36-2.78,2.17-.53.53-.85,1.07-1.78.98-.42-.05-.89-.25-1.33-.31-.75-.09-1.5-.06-2.23-.08-.79-.03-1.7-.1-2.46-.41-.12-.06-1.73-1-1.76-.93.42-.98.64-2.05,1.13-3.01.33-.66.75-.73,1.5-.99,1.26-.44,2.54-.83,3.81-1.29-.51.09-.96.26-1.46.36-.44.08-1.08,0-1.47.2.57-.27,1-.75,1.29-1.22.5.16.97.18,1.46.35.93.32,1.81.81,2.77,1.05-.92-.35-2.35-.97-2.96-1.67-.59.06-1.37.15-1.85.38.16-.85.25-2.29,1.08-2.84.78-.54,2.47.16,3.44.4.14-.44.1-.96.24-1.42-.32.28-.3,1-.77,1.05-.36.05-1.42-.42-1.86-.52.34-1.21,1.76-1.13,2.82-1.7-.69.09-1.49.22-2.03.49.15-.1.3-.24.43-.36-.72.67-1.65,1.18-2.35,1.88-.73-2.08,1.26-3.8,2.33-5.31-.87.81-1.66,1.76-2.41,2.65-.56.66-.27,1.85-.35,2.67-.06.65-.56,1.11-.84,1.67-.25-.22-.97-.68-1.07-.92-.2-.44.54-.84.37-1.39-.36.27-.62.82-.87,1.2-.78-.11-1.52-.57-2.26-.82.7.53,2.12,1.31,3.04,1.39.2.43.63.82,1.03,1.17-.3.3-.32.63-.44,1.01-.25.73-1.21,1.02-2.08,1.25-.08-.39.03-1.34-.33-1.66-.09-.08-.04.79-.03.84.08.36.09.73.08,1.07,0,.33-.04.34-.28.63-.39.48-.67,2.28-1.54,2.28-.72,0-1.85-1-2.45-1.35.85.5,2.54,1.24,2.47,2.16-.06.66-.97,1.17-1.51,1.53-1.52,1.03-2.58,2.16-4.98,1.77-.17-.03-.16.06-.31,0-1.23-.56-2.06-2.77-1.23-3.48.67-.57,1.05-.73,2.13-.62.88.08,1.54.13,2.38.06-.89.08-1.77-.31-2.65-.32.71-.37,1.45-.52,1.67-1.27.17-.63.5-1.04.87-1.59-.39.18-.6.5-.7.84-.14.48-.36.91-.66,1.36-.24.35-.35.38-.55-.1-.23-.56-.24-1.21-.17-1.74-.11.41-.33.89-.21,1.35.1.38.33.41-.07.66-.45.28-1.17.27-1.65.55-.44.25-.79.61-1.2.9-.4-.73,0-1.44.42-1.96.5-.61.77-1.37,1.62-1.73,1.33-.57,3-.83,3.9-1.86-1.15.62-2.15,1.31-3.56,1.6.3-.25.51-.57.78-.85-.54.19-.9.8-1.35,1.11-.48.34-.88.75-1.38,1.07.4-2.67-.19-6.81,3.96-7.35,2.51-.33,5.23.57,7.65-.1-1.44-.45-3,.38-4.46-.04.26-.45,1.01-.64,1.22-1.13-.82.19-1.23.94-1.98,1.12-.63.15-1.98.2-2.62-.14.65-.6,1.45-1.07,2.31-1.48.73-.35,1.38-.89,2.23-1.06.96-.21,1.95-.5,2.89-.69-.68.13-1.23.47-2.03.31.5-1.21.21-2.51,1.68-3.15-.33.14-.75.3-1.16.15.02-.58-.09-1.24.55-1.51.29-.12.75-.08,1.08-.21.52-.21.95-.56,1.38-.85-.44.13-1.92.89-2.39.65-.62-.3.5-1.41.65-1.57.7-.72.89-1.39.86-2.41.03.77-.73,1.83-1.06,2.51-.39.76-.96,1.43-1.34,2.19s.52,2.91-.41,3.33c-1.02.47-1.35-2.47-1.34-2.85-.04,1.72,1.16,3.72-1.04,4.46-1.22.41-2.42,1.08-3.6,1.64-.6-.54-1.08-.71-1.13-1.42-.02-.3.36-1.31,0-1.58.4.3,1.39.24,1.79.15.73-.17.73-.63,1.2-1.03-.34.28-.78.58-1.21.79.02-1.02.91-2.07,1.37-2.95-.4.68-.75,1.37-1.23,2.01-.2.27-.41.63-.75.79-.11.06-1.09.12-1.08.09.4-1.2.6-2.43,1-3.65-.7.33-.59,1.28-.73,1.89-.16.73-1.31,1.79-.98,2.62-.36-.89-.73-1.62-.56-2.5.25-1.22.53-3.63,1.78-4.38-.68.4-1.24,1.18-1.57,1.82-.33.64-.14,1.46-.52,2.05-.9.07-.74-1.89-.73-2.29-.05,1.14.36,2.42.66,3.58.24.92,1.08,2.28-.67,2.24-.22-.4-.95-1.33-1.52-1.46.36.65,1.11,1.44,1.56,2.03.4-.17.85-.27,1.19-.5-.07.04,1.34,1.49,1.31,1.76-.04.37-.57.57-.79.85-.94,1.12-1.97,2.55-1.98,4.05,0,1.11.25,1.86-.54,2.78,0,0-.84-1.16-.9-1.28-.25-.49-.39-1-.43-1.51-.1-1.06.19-2.07.12-3.13-.21.71-.08,1.6-.4,2.26-1.35-.74-.5-2.47-.54-3.38-.2.75-.73,2.3-.02,3.09.62.71.88,1.76.55,2.48-.87-.41-2.72-.91-2.9-1.83-.14-.73.62-1.26.51-1.99-.2.47-.36,1.3-.89,1.57-.53-.86-.69-1.25-.38-2.1.15-.41.49-3.44,1.73-2.81.41.2.47.64,1.04.81-.06-.26-.49-.48-.7-.71.42-.1.89.03,1.31-.03.53-.07.97-.44,1.26-.76-.7.57-3.43,1.13-3.43-.45,0-.56.5-1.05.72-1.54.39-.85.58-1.77.84-2.67-.05.24-.26.31-.41.48-.17.21-.23.45-.34.69-.4.81-.48,1.75-.94,2.54,0-.37.03-.75.09-1.1.08-.4-.08-.8-.04-1.19-.41.34-.3,1.05-.33,1.54-.04.64.04,1.3-.04,1.94-.05.38-.38.59-.5.94-.25-.26-.28-1.4-.17-1.7.1-.26.46-.34.53-.65-.2.14-.31.38-.64.4,0-.39-.26-.6-.46-.95-.23-.4-.13-.46.06-.81.5-.9.46-2.08.36-3.13-.07.4-.5,1.65-.15,2.03-.24-.27-.51-.64-.89-.77.18.42.67.73.7,1.13.02.28-.11.81-.36.99-.34-.35-.56-.76-.77-1.16-.26-.48-.14-.76-.18-1.27-.06-.7-.22-1.42-.58-2.1-.1.89.85,2.11.4,2.91-.45-.39-.94-.81-1.04-1.34.28.58.89,1.06,1.17,1.64.22.44.36.89.65,1.35.46.73.65,1.45.7,2.23-.19.12-1.39-.35-1.56-.5-.35-.32-.28-1.35-.38-1.73-.07-.25-.1-.53-.36-.73.05.48.09.96.23,1.45.07.23.26.56.2.78-.14.51-1.21.52-1.74.57.42.05.93.16,1.34.08.3-.06.43-.21.76-.18.51.05,1.34.43,1.61.82.31.43.13.88.13,1.3,0,.55.06,1.37-.24,1.82-.49-.04-1.14-.39-1.59-.6.09-.64-.13-1.44-.24-2.11-.28.48.16,1.18-.12,1.65-.47-.18-.48-.63-.95-.79.08.26.35.5.56.73-1.06-.56-1.36-.94-1.67-1.84-.13-.37-.33-.7-.37-1.07-.07-.6.02-1.21-.02-1.81-.04.34.03,1.61-.55.91-.63-.76-.68-1.91-1.03-2.75.2,1.02.39,2.06.89,3.06.25.5.91,1.22.82,1.74-.1.58-1.07.5-1.67.52-1.18.03-2.14.21-3.03.72.26-.15,2.31-.32,2.34-.48-.08.38.08.79.05,1.18-.02.17-.1.33-.08.51.1-.66.32-1.09.04-1.78,0,0,1.05.02,1.15,0,.58-.04.94-.1,1.49.28.39.26.72.57,1.12.81.42.24.85.45,1.25.73-.27.65-2.9.6-3.69.52.62.24,1.2.26,1.79.19.63-.08,1.33,0,1.93-.14.36-.08.58-.17.99,0,.77.35.75,1.22,1.02,1.77.13.28,1.15,1.64,1.55,1.61-.76.06-1.34.14-2.13-.05-.46-.11-2.23-.67-2.47-.4.63.12,2.4.2,2.87.61.46.4-.54,1.08-.79,1.37.78-.59,1.43-1.74,2.85-1.22.95.35,1.66,1.07,2.09,1.81.49.82.51,1.63.64,2.46.13.82-.58.88-1.44.53-1.12-.45-3.08-1.01-3.83-1.9-.36-.42-.65-1.1-.75-1.57-.19.46.51,1.21.25,1.54-.34-.25-.49-.68-.72-.99-.43-.6-.8-1.23-1.18-1.86.41.71.89,1.42,1.21,2.15.17.4.23.57-.28.56-.58,0-1.39-.37-1.96-.55-.63-.2-1.27-.4-1.9-.6.59.27,1.24.4,1.86.65.87.35,1.71.73,2.62.99.88.25,1.87.64,2.62,1.14-.25.34-1.49.32-1.98.45-.63.16-1.06.08-1.72.07.86.11,1.72.19,2.52.04.45-.08.8-.41,1.25-.44.74-.04,1.88.6,2.59.87,1.53.57,1.91,2.47,1.92,3.52.02,2.75-3.36,4.19-2.76,7.05l-.07.05Z"/>
        <path d="m72.48,249.99h103.06c-4.66-2.17-11.02-1.98-14.26-6.16-2.3-2.96-2.9-14.47-1.64-21.24.06-.33.13-.65.2-.95.1-.42.2-.82.32-1.19h.01s0-.02.01-.03h.01c.34-1.14.77-1.99,1.29-2.46-.95,0-1.98-.14-3.08-.38-9.39-2.04-23.11-11.89-22.13-21.66.07-.69,1.51-1.06,1.45-1.86-.07-.77-1.49-1.1-1.85-1.71-1.17-1.98-1.77-4.37.27-6.09-2.76-.86-5.64-.66-7.7-1.38-1.84-.66-3.03-2.04-2.89-5.55-.15,0-11.5.75-12.53.89-4.55.63-9.65.7-14.04-.84-2.96-1.04-3.72-3.31-6.16-4.94-1.21,1.08-1.91,2.8-3.19,3.75-2.23,1.66-4.73.72-7.18,1.35-2.14.55-1.59,1.45-3.06,2.26-2.21,1.23-4.39-.22-6.38.54-3.61,1.38-.88,12.81-2.47,16.99-1.23,3.24-4.16,3.64-7.46,2.71,2.78.77,3.8,2.24,3.64,4.08,0,0,.01,0,0,0-.48,5.93-12.91,15.68-17.14,18.53-.55.36-.96.62-1.19.73-.85.42-1.6.85-2.26,1.29-1.95,1.27-3.19,2.6-4.13,3.95-.84,1.19-1.46,2.4-2.13,3.61-1.04,1.86-2.21,3.71-4.6,5.46-.47.35-1.02.66-1.61.94-.54.27-1.14.51-1.76.74-4.68,1.66-11.29,2.37-15.39,4.45-2.72,1.38-5,3.03-7.45,4.16h63.42Z"/>
        <path d="m33.02,244.13c-.48-.48-.56-1.54-.81-2.13-.25-.57-3.36-6.41-3.07-6.55.48-.21.97-.46,1.45-.65.06,1.35,1.05,2.78,1.67,3.97.85,1.64,2.48,2.8,3.65,4.26-.24-.31-2.63.97-2.88,1.1h0Z"/>
        <path d="m30.08,237.2c-.58.3-1.16.75-1.53,1.3-.17.25-.73,1.16-.62,1.45-.19-.55-.37-1.06-.63-1.58-.24-.47-.77-.97-.89-1.43,1.6-.4,3.29-1.18,4.78-1.9.71-.35,1.88-.89,2.08-1.73-.02,1.02.24,2.44.77,3.33-1.08-.74-2.96.05-3.97.57h0Z"/>
        <path d="m26.11,231.99c.19-2.43,3.2-2.19,4.43-.71.69.83.52,1.52.51,2.48,0,.59.4,1.81-.05,2.33-.14.17-1.03.23-1.27.23-.19-1.01.38-2.26-.3-3.17-.31-.42-1.33-.76-1.41.08-.05.53,1.88,2.71,1.96,2.59-.29.46-.79.84-1.18,1.19-.28-.79-1.19-1.52-1.66-2.23-.59-.89-1.13-1.64-1.05-2.79h.02Z"/>
        <path d="m44.71,233.9c-.73.45-1.69,2.85-2.54,2.68-.55-.1-1.21-1.11-1.6-1.51-.63-.64-1.15-1.39-1.5-2.21-.36-.83-1.17-3.14.23-3.47,1.84-.43,4.54,3.15,5.42,4.5Z"/>
        <path d="m114,213.68l-46.06,2.68c.11,0-.91-8.84-1.05-9.58-.4-2.21-2.21-3.59-4.08-4.57-1.87-.98-4.11-2.38-6.19-2.82-.57-1.35-.18-3.17-.24-4.59-.09-2.33-.85-5.26-.24-7.53-.06-.05-.1-.09-.14-.14-.78.26-8.13-.44-8.14,0,.04-2.33.2-5.12-.51-7.33.96.03,1.9-.26,2.87-.19.04.83.11,1.74-.08,2.54.55-.25,1.15-.37,1.79-.35.1-.88-.04-1.7-.3-2.52.74-.04,1.49-.07,2.19-.17.19.78.19,1.55.22,2.36,1.78-.5,1.57-.88,1.72-2.53.38.04,1.33-.33,1.6-.17.7.41.6,1.83.65,2.51,2.43.64,2.24-5.94,2.13-7.12-.17-1.79.23-8.47-1.35-9.68-.55-.42-1.69.11-2.45-.37-.04-1.46.41-1.88.85-3.32.54-1.73,1.39-3.36,1.86-5.11.95-3.52,1.66-7.51,3.32-10.77,2.17,3.55,2.87,7.42,4.45,11.21,1.12,2.71,1.38,4.5,2.41,7.26-1.08.84-1.49,1.09-2.7.93-.16,1.59,3,15.98,1.58,16.36.36-.09,7.23-1.88,7.23-1.88l-1.79-40.2-4.26-4.95.17-12.09-4.11.39s7.95-24.77,9-25.43,9.9,24.85,9.9,24.85l-3.81.2.25,10.29s3.56,2.05,3.86,3.78.43,8.92.43,8.92l2.57-.17v-.21c-.02-1.22-.03-2.42-.05-3.64-.04-2.68-.08-5.37-.1-8.05-.04-3.05-.08-6.1-.12-9.15-.04-2.56-.07-5.12-.1-7.7-.02-1.05-.03-2.11-.04-3.16-.5,0-4.92-1.31-4.62-1.72.58-.82,1.12-1.19,1.54-2.22,1.19-2.86,2.04-5.93,2.97-8.89,1.56-5.03,2.84-10.14,4.41-15.17.55-1.74,1.1-3.49,1.86-5.15.13-.28.98-2.28,1.38-2.27.34,0,1.18,1.73,1.33,2.01.69,1.26,1.22,2.6,1.74,3.94,1.69,4.36,3.06,8.83,4.42,13.3.82,2.69,1.58,5.41,2.41,8.1.56,1.79,1.02,3.91,2.08,5.49.24.34.71.62.59.97-.38,1.11-4.62,1.38-4.59,2.05l.28,9.39,4.72,8.85-4.78.28.72,24.63s4.03,1,4.12.25c.24-2.07-.14-5.56-.14-5.56,0,0-1.77.76-2.09-.27-.32-1.04,3.18-11.74,5.24-14.75,1.4-2.07,7.72,14.96,6.35,15.27-1.38.31-1.95.28-1.95.28.44.08.71,8.05.73,8.78.02.66.11,3.25.37,3.81.41.89,1.32.41,2.23.34.04-.79,0-1.61,0-2.4.5-.07,2.08-.24,2.57-.08,0,.73-.09,1.56-.06,2.29,1.1.05,2.31.43,3.38.35.05-.83,0-1.7.05-2.52,1.05-.1,2.17-.36,3.21-.34.06.91.06,1.8.22,2.69.68.03,1.37-.04,2.02.18.08-.97.39-1.88.39-2.87.72-.06,1.47-.05,2.19,0,.24,3.41.16,6.88.69,10.25,0,.05-2.82.89-2.96.99-1.15.8-1.15,2.62-1.27,3.88-.67,6.74-1.33,14.06,3.38,19.49-4.02,1.14-6.76,4.96-8.72,8.38.33-.58-.28-2.35-.73-2.75-.71-.64-1.3-.38-2.2-.13-2.74.75-4.63,3.06-6.09,5.34-.72,1.11-1.65,2.44-1.75,3.8-.05.55.41,3,1.24,3l-.02-.05Z"/>
        <path d="m77.05,168.84c-.63.21-10.42,3-10.3,3.24-.11-.23-.22-.68-.24-.92,2.01-.3,20.37-6.28,20.3-6.64.07.32.05.6,0,.92-3.18.24-6.69,2.42-9.75,3.4Z"/>
        <path d="m70.08,181.12s-.44-9.05-.15-10.43c-1.69.53-.06,10.71-.41,10.72.22,0,.36-.08.57-.29h0Z"/>
        <path d="m72.09,181.1s-.38-9.54-.12-10.99c-1.42.57-.05,11.28-.35,11.3.19,0,.3-.08.47-.31Z"/>
        <path d="m74.13,179.37s-.44-9.05-.15-10.43c-1.69.53-.06,10.71-.41,10.72.22,0,.36-.08.56-.3h0Z"/>
        <path d="m101.92,151.06c.44.15,7.23,2.28,7.15,2.45.08-.17.15-.52.17-.7-1.39-.23-14.14-4.76-14.09-5.02-.05.24-.03.46,0,.7,2.2.18,4.64,1.84,6.76,2.57h0Z"/>
        <path d="m106.76,160.35s.3-6.85.1-7.88c1.17.4.04,8.1.28,8.11-.15,0-.24-.06-.39-.23Z"/>
        <path d="m105.36,160.33s.26-7.22.08-8.32c.99.42.03,8.54.24,8.55-.13,0-.21-.07-.33-.24h0Z"/>
        <path d="m103.95,159.03s.31-6.85.1-7.88c1.17.4.04,8.1.28,8.11-.15,0-.24-.06-.39-.23Z"/>
        <path d="m101.22,81.1s-.2-2.5-.07-2.87c-.75.15-.03,2.95-.18,2.96.09,0,.16-.02.25-.08h0Z"/>
        <path d="m102.15,81.1s-.2-2.5-.07-2.87c-.75.15-.03,2.95-.19,2.96.09,0,.16-.02.25-.08Z"/>
        <path d="m57.3,154.42c.47,1.16,2.67,1.36,3.65,2.02-.06-.34.2-1.89.73-1.88-1.48-.02-3.13.18-3.17-1.71-.05-1.49-.19-3.05-.42-4.53-.24-.06-.7-.07-.93,0,.04,1.16.16,2.31.22,3.47.04.68-.29,2.05-.05,2.67v-.02Z"/>
        <path d="m57.73,145.4c.09.98,1.26,1.5,1.7,2.27-1.14.14-2.57.63-3.69.2.36-.74,2.07-1.58,1.99-2.48h0Z"/>
        <path d="m100.87,87.91c-.53,1.09-2.01,1.2-2.65,2.22-.41-.69-.63-1.28-1.13-1.92.21-.11,2.5-.87,2.51-.85-.08-.18-.03-.41-.08-.57.13.11.39.18.5.27-.02-.08-.03-.19-.06-.28.34.04-.09-.05.17-.23.31-2.18.07-4.01.35-5.99.46,0,1.39,0,1.83-.11.06-1.63.97,8.9-.11,6.99-.24-.1-.46-.03-.7-.05-.03.11-.03.24,0,.36,0-.04-.05-.06-.08-.06.04.16.03.42.07.58-.16-.21-.39-.25-.58-.38h-.02Z"/>
        <path d="m103.73,79.2c-.13-.19-2.37-2.16-2.4-2.15-.86.53-1.77,1.53-2.15,2.46.83.12,1.8-.1,2.64-.15.57-.04,1.39.11,1.9-.16h0Z"/>
        <path d="m110.78,152.68c.06-.81,1-1.41,1-1.41,0,0,.9.54,1.01,1.26.2,1.35.11,3.17.11,4.01-.57.05-1.12.08-1.68.22,0-.44-.56-2.6-.44-4.08h0Z" style="fill: #ffae3f;"/>
        <path d="m89.92,131.1c.06-.81,1-1.41,1-1.41,0,0,.9.54,1.02,1.26.2,1.35.11,3.17.1,4.01-.57.05-1.12.08-1.68.22,0-.44-.56-2.6-.44-4.08h0Z" style="fill: #ffae3f;"/>
        <path d="m97.99,142.31c.11-.8,1.09-1.35,1.09-1.35,0,0,.87.59.92,1.33.1,1.36-.09,3.17-.15,4.01-.57,0-1.13.02-1.69.1.04-.44-.39-2.64-.18-4.1Z" style="fill: #ffae3f;"/>
        <path d="m74.04,124.51c.15-1.05,1.42-1.76,1.42-1.76,0,0,1.14.77,1.22,1.73.14,1.77-.12,4.15-.21,5.24-.74,0-1.47.02-2.2.14.06-.58-.5-3.45-.24-5.36h0Z" style="fill: #ffae3f;"/>
        <path d="m76.8,144.6c.08-.55.73-.91.73-.91,0,0,.59.4.63.9.08.92-.07,2.16-.1,2.72-.39,0-.76,0-1.14.08.03-.3-.25-1.79-.12-2.78h0Z" style="fill: #ffae3f;"/>
        <path d="m85.23,161.35c.03-.74.87-1.33.87-1.33,0,0,.85.46.97,1.12.23,1.22.21,2.9.24,3.67-.52.06-1.03.12-1.53.25,0-.4-.59-2.36-.55-3.72Z" style="fill: #ffae3f;"/>
        <path d="m88.8,155.85c.11-.73,1.02-1.22,1.02-1.22,0,0,.79.56.83,1.22.08,1.24-.12,2.91-.19,3.67-.52,0-1.04,0-1.54.08.05-.4-.32-2.42-.11-3.76Z" style="fill: #ffae3f;"/>
        <path d="m61.43,166.87c.02-.51.59-.9.59-.9,0,0,.57.31.66.76.15.84.14,1.98.16,2.5-.35.04-.7.08-1.04.17,0-.28-.41-1.61-.37-2.53h0Z" style="fill: #ffae3f;"/>
        <path d="m65.29,175.15c.06-.5.66-.85.66-.85,0,0,.55.36.59.82.08.85-.02,1.98-.05,2.51-.36,0-.71.02-1.05.08.02-.27-.27-1.64-.16-2.55h0Z" style="fill: #ffae3f;"/>
        <path d="m123.14,173.74c.24-.97,1.49-1.52,1.49-1.52,0,0,.99.83.98,1.73-.03,1.68-.49,3.87-.67,4.89-.7-.06-1.38-.11-2.07-.07.1-.54-.15-3.27.27-5.03h0Z" style="fill: #ffae3f;"/>
        <path d="m93.42,116.24c.14-1.4,1.8-2.41,1.8-2.41,0,0,1.55.97,1.7,2.25.28,2.35.06,5.54,0,6.99-.99.06-2.57-.08-3.53.1.04-.78-.23-4.37.03-6.93Z" style="fill: #ffae3f;"/>
        <path d="m94.88,126.4c-.02-.06.31-14.62.1-16.83,1.17.86.04,17.28.28,17.31-.15-.02-.24-.13-.39-.48Z"/>
        <path d="m86.79,112.26l.81,39.35s1.13-38.51-.81-39.35Z" style="fill: url(#radial-gradient-10);"/>
        <path d="m72.48,249.99c.32-1.1,2.27-2.31,6.85-3.74,11.93-3.75,24.32-5.9,36.26-9.66,7.2-2.26,19.41-4.37,23.44-11.29,2.34-3.99-18.59-10.06-25.67-12.15h-.01c-.65-.2-1.18-.36-1.57-.48-7.34-2.29-1.38-6,4.83-8.47,2.35-.94,4.74-1.69,6.46-2.13h0c.67-.17,1.25-.29,1.67-.35-.57-.08-1.29-.07-1.96-.02-.97.06-1.86.21-2.09.3-.54.2-1.45.47-2.56.82h-.02c-5.08,1.58-14.36,4.7-12.37,8.89.44.94,1.66,1.68,3.03,2.27h.03c1.67.73,3.53,1.23,4.58,1.61,3.89,1.42,7.93,2.52,11.69,4.28,5.59,2.62,7.24,5.88,1.31,9.35-8.56,5.01-19.37,7-28.82,9.63-10.43,2.9-21.34,5.42-31.25,9.88-.83.37-1.72.8-2.55,1.26h8.71Z" style="fill: url(#linear-gradient-5);"/>
      </g>
    </g>
  </g>
</svg>