<?xml version="1.0" encoding="UTF-8"?>
<svg xmlns="http://www.w3.org/2000/svg" width="300" height="250.06" viewBox="0 0 300 250.06">
  <g id="pumpkin2">
    <g id="pumpkin2-2" data-name="pumpkin2">
      <path d="m289.62,197.19c-.48.31-1.07.36-1.58.54-.51.18-.99.41-1.46.62-.76.36-2.26.98-2.21,1.96.05.83,1.44,1.2,2.29,1.42.63.16,2.73.2,2.83.87.12.79-1.18,1.31-1.75,1.5-.41.14-.87.26-1.33.29-.51.03-1.04-.18-1.46.08.28,1.16,1.17,1.81,1.87,2.62.21.24.56.55.46.96-.33.29-.78,0-1.08-.13-1.63-.7-3-1.69-4.33-2.83-.44-.37-1.21-.98-1.33-1.5-.05-.21.03-.45,0-.66-.14-.86-1.17-1.31-1.08-2.37-.56,1.01-1.3,1.88-2,2.79-.66.86-1.6,1.8-1.37,3.25,2.27.17,3.91,1.12,5.04,2.5,1.09,1.33,2,3.17,1.87,5.54.74-.35.62-1.96.54-2.95.74-.41,1.93-.25,2.66.08.78.35,1.61,1.07,2.29,1.71.68.63,1.47,1.39,1.83,2.12.36.74.52,1.69.71,2.58.58,2.78.48,6.11-.21,8.82-.87,3.45-2.66,6.31-4.66,8.49-2.04,2.22-4.83,4.14-7.99,5.16-3.28,1.06-7.9,1.24-11.53.25,1.92-.13,3.36-.75,4.33-1.83-3.42.94-7.89,1.62-10.95.08-1.02-.51-2.07-.8-3.12-1.12-2.16-.67-4.1-1.59-5.58-2.96-3-2.76-3.41-8.14-2.87-13.73.25-2.63.62-5.03,1.37-7.16.7-1.98,1.6-4.01,2.79-5.74,1.13-1.64,2.72-3.27,5.08-3.45,1.12-.09,1.86.19,2.54.62-1.32,1.19-2.98,2.05-3.7,3.83.77-.6,1.45-1.37,2.29-2.04.79-.62,1.59-1.41,2.54-1.87,1.34-.66,3.53-.9,5.37-1,1.45-.08,5.21-.21,5.29,1.17.02.43-.46,1.06-.67,1.46-.73,1.38-1.38,2.89-1.91,4.37-.81,2.22-1.55,4.14-1.91,6.49.89-1.89,1.41-4.1,2.25-6.2.4-1.01.83-1.97,1.21-3,.53-1.44,1.08-2.83,2.46-3.37.63-.25,1.36-.23,1.79-.71.23-.26.27-.59.42-1-.46.03-.89.24-1.41.25-1.38,0-3.2-1.36-2.16-2.66.55-.69,2.01-.79,2.83-.33.48.27,1.01.98,1.5.92.79-.11.63-2.1.33-2.66-.85-1.61-4.25-2.79-6.74-1.91-.25.09-.87.31-.92.58-.07.42.76.99.75,1.62-.03,1.6-3.14,2.06-3.75.5-.18-.46-.07-.87.08-1.54-1.19,0-2.05.72-3.04,1.21-1.81.89-4.01,1.86-6.28,2.25-4.34.74-7.18-1-6.78-5.87.24,1.31,1.23,2.22,2.21,2.95.79.59,1.77,1.35,2.83,1.21-.09-1.13-1.13-1.68-1.62-2.54,1.3,1,2.73,1.65,4.74,1.96.7.11,1.61.28,2.25.12.45-.11.9-.46,1.33-.71s.87-.5,1.29-.71c.86-.42,1.98-.94,3.04-.96.31,0,.57.12.83.08.33-.04.71-.4,1.04-.58,1.03-.58,2.29-1.09,3.75-1.21,3.08-.24,4.89,1.14,6.08,2.91.3.45.68,1.7,1.16,1.79.49.09,1.09-.31,1.5-.58.46-.3.83-.72,1.21-.92.5-.25,1.2-.41,1.83-.58,1.8-.5,4.01-1.02,6.12-1.12l-.04-.02Zm-27.42,20.14c.92.09,1.71-.13,2.46-.46-2.18-2.05-3.97-4.49-5.54-7.16-1.66,3.05-.04,7.3,3.08,7.62h0Zm10.82,3.29c.83,1.36,2.09,2.6,4.08,2.75,2.84.22,4.72-1.42,5.12-3.83,0-.02,0-.05-.04-.04-2.66.77-5.63,1.22-9.16,1.12h0Zm-19.48,2.58c.35-.09.61-.28.92-.42.5.93,1.18,2.37.37,3.45.89,1.42,1.67,2.97,2.62,4.33.61-.15,1.24-.29,1.87-.42.35.26.72.54,1.12.87.33.27.9.66.96,1.08.12.84-.69,1.39-.92,2.12,1.83,1.03,3.63,2.09,6.33,2.25.45-.69.79-1.49,1.25-2.16.78.43,1.85.46,2.41,1.08.42.46.37,1.13.37,2.08,1.61.03,2.59-.57,3.58-1.16.06-.89-.14-1.69.25-2.16.53-.64,1.81-.37,2.71-.71.31.67.61,1.36,1,1.96,2.22-1.32,3.93-3.15,5.2-5.41-2.34.65-5.52,1.51-8.36.75-.33.59-.61,1.22-1,1.75-.63-.21-1.33-.34-1.91-.58.18-.48.44-.89.58-1.42-1.62-.44-3.16-.95-4.54-1.62-.45.57-.93,1.13-1.41,1.66-.8-.45-2.93-.22-3.08-1.21-.07-.46.22-.77.37-1.12-1.14-.74-2.24-1.53-3.41-2.25-.53.56-.93,1.26-1.46,1.83-.48-.55-2.09-.75-2.21-1.58-.1-.71.54-1.23.75-1.87-2-1.27-3.92-2.86-5.29-4.62.31,1.16.64,2.3.92,3.5h.01Z" style="fill-rule: evenodd;"/>
    </g>
  </g>
  <g id="transparent">
    <rect width="300" height="250" style="fill: none;"/>
  </g>
</svg>