<?xml version="1.0" encoding="UTF-8"?>
<svg xmlns="http://www.w3.org/2000/svg" width="300" height="250.06" viewBox="0 0 300 250.06">
  <g id="pumpkin1">
    <g id="pumpkin1-2" data-name="pumpkin1">
      <path d="m243.91,184.6c-.28.52-.81.95-1.25,1.46-.42.49-.95,1.02-.96,1.75.71.29,1.45-.18,2.04-.5,1.59-.85,3.64-2.24,4.41-3.87.12-.26.19-.55.21-.83.2,5.28-2.57,7.97-7.74,7.49-3.35-.31-6.27-1.52-8.78-2.79-1.33-.67-2.26-1.59-4.08-1.75.09.87.24,1.48-.08,2.08-.93,1.76-4.43,1.34-4.66-.5-.07-.54.22-.96.42-1.25.22-.32.69-.67.67-1-.04-.56-1.53-.9-2.16-1-2.87-.44-5.83.48-7.24,2-.46.49-.89,1.24-.92,2.08-.02.64.1,1.85.62,1.96.44.09,1.17-.57,1.5-.79.38-.26.93-.66,1.5-.75,1.49-.23,3.48.66,2.75,2.41-.6,1.45-2.89,2.17-4.83,1.37.03.88.47,1.56,1.25,1.87.74.29,1.51.3,2.16.75,1.03.71,1.53,2.1,1.96,3.37.44,1.31.92,2.75,1.37,3.95,1.04,2.74,1.5,5.64,2.46,8.2.07-1.5-.35-2.93-.71-4.29-.88-3.31-1.9-6.55-3.33-9.49-.25-.52-.76-1.27-.71-1.83.04-.46.52-.82.92-1,1.5-.67,3.84-.59,5.78-.5,1.92.09,3.93.43,5.49.83,1.69.44,2.8,1.45,3.95,2.37.59.47,1.21.94,1.71,1.46.52.54.91,1.22,1.58,1.58-.34-1.17-1.16-2.01-1.96-2.75-.4-.37-.82-.74-1.25-1.08s-.93-.63-1.25-1.08c1.69-1.03,4.19-.86,6.03-.29,1.85.57,3.01,1.6,4.29,2.95,1.67,1.77,3.23,4.01,4.37,6.49.38.83,1,2.13.75,3.16-.09.39-.46.82-.71,1.25-2.57,4.45-4.39,9.63-4.24,16.81.03,1.72.14,3.61.33,5.41.06.58.23,1.37.12,1.79-.21.83-1.89,1.18-2.71,1.62-.97.52-1.96.99-2.95,1.33-2.23.76-4.92.86-6.91,1.66-1.04.42-1.97.94-3.12,1.16-3.85.74-8.1-.23-11.32-1.04,1.07,1.31,2.9,2.24,5.37,2.29-4.69,1.32-10.37,1.06-14.44-.25-4.06-1.3-7.25-3.45-9.95-6.49-3.63-4.09-6.66-10.49-5.7-18.6.14-1.15.41-2.31.71-3.41.32-1.18.6-2.51,1.21-3.41.66-.99,1.66-1.91,2.66-2.75.89-.75,2.07-1.78,3.33-2.08.65-.15,2.36-.39,2.7.08.31.43-.2,1.3-.17,2.04.04.84.23,1.35.71,1.75,0-3.11,1.41-5.52,2.95-7.2,1.51-1.65,3.59-2.79,6.37-2.91.35-.53.4-1.35.21-2.08-.56-2.13-2.7-3.67-4.12-4.87.44,1.56,1.12,3.28,1.37,5.16.08.61.17,1.38-.25,1.83-.4,0-.63-.54-.96-.75-.36-.23-.94-.44-1.41-.67-.47-.22-1.14-.57-1.62-.46-.72.17-.89,1.9-1.08,2.62-.28,1.03-.57,1.93-.87,2.83-.87-1.3-1.7-2.58-2.7-3.91-.22-.29-.66-1.16-.96-1.21-.54-.09-1.32.76-1.58,1.04-1.26,1.38-2.13,3.05-2.79,4.95-.05-2.09.67-4.38.5-6.74-1.97-.58-4.14.21-5.62.79.14-.26.7-.31,1-.46,1.02-.52,1.78-1.9,2.46-2.95.93-1.43,1.7-2.78,3.5-3.25-.57-1.57-1.98-2.45-3.45-3.12-.5-.23-1.03-.37-1.54-.62,2.04-.29,3.89-.64,5.87-.5,1.34.1,2.73.7,3.95,1.17.62.24,1.24.47,1.83.71.62.25,1.31.42,1.83.71.42.23.9.82,1.41,1.17.47.32,1.34.83,1.96.66.55-.14,1.05-1.51,1.41-2.04,1.35-1.97,3.4-3.65,6.53-3.87,2.62-.18,4.32.57,5.91,1.42.21.11.51.24.79.42.24.15.51.42.75.46.45.08.89-.11,1.33-.08,1.12.08,2.22.56,3.16,1,.59.28,1.24.61,1.83.96.57.33,1.27.95,1.91,1.04.88.12,1.85-.09,2.71-.21,2.51-.36,4.65-1.17,6.2-2.46v.02Zm-15.61,24.26c.7.25,1.3.52,2.12.58,4.86.35,7.41-5.6,5.45-9.61,0-.03,0-.05-.04-.04-2.1,3.43-4.63,6.44-7.53,9.07Zm-22.56,3.29v.12c.47,3.09,2.69,5.06,6.28,4.79,2.2-.17,3.95-1.53,4.99-2.87.15-.19.41-.47.33-.62-4.36.17-8.23-.48-11.61-1.42h.01Zm30.63,6.2c.24.75,1.04,1.51.79,2.37-.15.52-.88.79-1.37,1.04-.57.29-1.09.63-1.58.83-.55-.78-1.08-1.59-1.66-2.33-1.48.98-2.99,1.92-4.49,2.87.15.47.49.88.37,1.46-.25,1.25-3,.93-4.04,1.5-.56-.7-1.08-1.45-1.71-2.08-1.78.86-3.78,1.49-5.87,2.04.2.63.49,1.18.67,1.83-.84.21-1.62.49-2.5.67-.43-.68-.69-1.53-1.16-2.16-3.6.92-7.53-.14-10.53-.96,1.48,2.89,3.49,5.25,6.28,6.83.48-.83.91-1.7,1.42-2.5,1.08.52,3.02.07,3.45,1.21.24.62.07,1.56,0,2.41,1.2.82,2.53,1.52,4.54,1.54.04-1.15,0-2.04.54-2.62.75-.82,2.21-.84,3.25-1.42.43.96.92,1.85,1.37,2.79,3.45-.3,5.95-1.54,8.28-2.96-.48-.9-1.59-2.22-.75-3.16.29-.32.76-.58,1.25-.96.26-.21.91-.91,1.25-.96.34-.04.85.17,1.21.25.44.1.82.21,1.21.29,1.19-1.87,2.44-3.66,3.58-5.58-.98-1.44.08-3.21.75-4.25.39.13.69.37,1.08.5.46-1.48,1.05-3.06,1.41-4.49-1.86,2.49-4.51,4.18-7.03,5.99h-.01Z" style="fill-rule: evenodd;"/>
    </g>
  </g>
  <g id="transparent">
    <rect width="300" height="250" style="fill: none;"/>
  </g>
</svg>