<?xml version="1.0" encoding="UTF-8"?>
<svg xmlns="http://www.w3.org/2000/svg" width="300" height="250.06" xmlns:xlink="http://www.w3.org/1999/xlink" viewBox="0 0 300 250.06">
  <defs>
    <radialGradient id="radial-gradient" cx="487.21" cy="-202.9" fx="487.21" fy="-202.9" r="6.41" gradientTransform="translate(-45.62 -401.01) rotate(32.88) scale(1 -1)" gradientUnits="userSpaceOnUse">
      <stop offset=".05" stop-color="#446d79"/>
      <stop offset=".51" stop-color="#1e3137"/>
      <stop offset=".87" stop-color="#000"/>
    </radialGradient>
    <radialGradient id="radial-gradient-2" cx="356.49" cy="-8.83" fx="356.49" fy="-8.83" r="5.43" gradientTransform="translate(0 252) scale(1 -1)" xlink:href="#radial-gradient"/>
    <radialGradient id="radial-gradient-3" cx="-680.39" cy="114.53" fx="-680.39" fy="114.53" r="5.03" gradientTransform="translate(216.88 -654.23) rotate(-102.55) scale(1 -1)" gradientUnits="userSpaceOnUse">
      <stop offset="0" stop-color="#ff8600"/>
      <stop offset=".47" stop-color="red"/>
      <stop offset=".99" stop-color="#1f0900"/>
    </radialGradient>
  </defs>
  <g id="spider">
    <path d="m243.92,35.14c-1,.33-1.48,1.58-1.09,2.79.4,1.22,1.53,1.94,2.52,1.61,1-.33,1.48-1.58,1.09-2.79-.4-1.22-1.53-1.94-2.52-1.61Z"/>
    <path d="m225.02,36.44c1.39-.83,2.74-1.69,4.06-2.61.91-.64,1.98-2.39,3.15-2.42.97-.02,7.26-1.17,7.24-1.75.14,3.25,5.52,4.16,7.97,4.48.39.05.5-.54.11-.6-1.99-.33-8-1.22-7.36-4.29.05-.25-.2-.43-.42-.36-1.42.46-2.86.88-4.3,1.26-1.23.33-3,.19-4.17.61-.62.22-2.15,2.19-2.57,2.55-1.21,1.07-2.55,1.95-3.91,2.82-.2.13,0,.43.21.31h0Z"/>
    <path d="m248.84,30.86c-.91-.97-4.14-1.65-4.1-2.93.06-2.34.11-5.08-.76-7.29-.11-.28-.49-.13-.42.15.62,2.61.4,5.11.66,7.74.03.31.46.43.68.54,1.2.6,2.73,1.17,3.67,2.11.2.2.47-.13.28-.32h0Z"/>
    <path d="m249.93,30.07c-.18-.58-1.19-2.2-.43-2.76.88-.64,1.69-1.38,2.48-2.13,1.51-1.4,2.71-3.06,3.29-5.04.08-.29-.39-.44-.5-.17-1.23,3.24-3.65,5.22-6.2,7.42-.1.09-.13.21-.06.33.51.8.81,1.57,1.12,2.44.07.19.35.08.29-.1h0Z"/>
    <path d="m266.6,24.06c-2.62-.03-5.07-.15-7.68.19-.55.07-.82.64-1.09,1.05-.92,1.38-2.08,2.61-2.94,4.02-.18.29.23.62.49.42.87-.66,1.51-1.5,2.16-2.37.47-.63,1.07-2.19,1.88-2.29,2.39-.31,4.83-.31,7.21-.67.23-.03.2-.35-.03-.35h0Z"/>
    <path d="m229.32,49.56c1.92-.07,3.79-.04,5.68.22.65.09,2.25.8,2.82.59,1.25-.45,2.45-1.5,3.71-2.04,1.37-.59,2.8-1.07,4.21-1.53.24-.08.26-.38.1-.54-2.39-2.34,1.66-6.79,3.21-8.5.27-.29-.19-.68-.46-.4-1.59,1.64-5.44,6-3.82,8.59.56.9-.97.78-1.78,1.07-1.44.5-2.81,1.11-4.15,1.84-1.6.87-2.9.34-4.62.2-1.63-.14-3.31.02-4.94.13-.24.02-.21.38.03.36h0Z"/>
    <path d="m251.34,39.35c-.22,1.52-1.1,2.88-1.66,4.29-.09.24-.33.55-.16.81,1.55,2.45,3.18,4.71,4.27,7.41.11.27.5.13.42-.15-.7-2.49-2.32-4.55-3.68-6.7-.64-1-.39-1.1.02-2.26.42-1.18,1.05-2.04,1.2-3.32.03-.27-.38-.35-.42-.08h0Z"/>
    <path d="m252.82,39.58c.29.96.53,1.91.61,2.91,0,.1.09.21.2.22,3.45.37,6.66.73,9.55,2.84.28.2.62-.18.35-.4-1.6-1.33-3.42-2-5.43-2.44-1.15-.26-2.38-.38-3.56-.44-1.04-.05-1.21-2.15-1.43-2.8-.07-.19-.35-.09-.29.1h0Z"/>
    <path d="m269.31,34.28c-1.81.98-4.81,4.28-7,3.56-1.64-.54-2.87-1.35-4.65-1.41-.34,0-.41.51-.12.63,1.01.43,2.08.61,3.11,1.04.85.36,1.6.79,2.54.73,2.33-.16,4.6-2.94,6.32-4.27.18-.14,0-.4-.2-.29h0Z"/>
    <path d="m250.45,29.51c-3.77,1.23-3.79,3.72-2.88,6.5s2.38,4.79,6.16,3.55c3.77-1.23,8.23-5.8,7.51-8.01-.68-2.09-7.02-3.28-10.79-2.05h0Z" style="fill: url(#radial-gradient);"/>
    <path d="m246.09,33.76c-1.25.41-1.86,1.97-1.36,3.49.49,1.52,1.91,2.42,3.16,2.02,1.25-.41,1.86-1.97,1.36-3.49-.49-1.52-1.91-2.42-3.16-2.02Z" style="fill: url(#radial-gradient-2);"/>
    <path d="m252.44,35.75c.63.42.32,2,.14,2.58,1.08-.15,1.98-1.21,3.07-1.46-2.14-1.24-.18-3,1.61-2.3-.44-.52-.64-1.19-.72-1.85-.03-.2-.33-1.47-.31-1.51-.38.78-1.28,1.73-2.23,1.4-.82-.29-1.15-1.64-.7-2.38-.95.67-2.14.88-3.23,1.23.73.23,2.63,1.03,1.76,2.08-.57.7-1.93.3-2.56-.08.94.55,1.01,2.92,1.23,3.83.24-.55,1.12-2.1,1.95-1.55h0Z" style="fill: url(#radial-gradient-3);"/>
  </g>
  <g id="transparent">
    <rect width="300" height="250" style="fill: none;"/>
  </g>
</svg>