<?xml version="1.0" encoding="UTF-8"?>
<svg xmlns="http://www.w3.org/2000/svg" width="300" height="250.06" viewBox="0 0 300 250.06">
  <g id="web">
    <g>
      <path d="m300,22.2s-59.14,18.32-77.88,32.27c8.76-5.24,52.45-23.61,77.89-32.28h0Z" style="fill-rule: evenodd;"/>
      <path d="m239.71.18s14.71,69.55,24.49,87.85c-3.4-8.83-24.41-70.68-24.49-87.85Z" style="fill-rule: evenodd;"/>
      <path d="m277.62,52.49s-39.04-18.14-59.43-18.98c8.8,1.54,45.52,8.52,59.43,18.98Z" style="fill-rule: evenodd;"/>
      <path d="m265.5,2.45s-23.83,48.08-27.75,71.43c2.76-10.34,14.97-44.4,27.75-71.44h0Z" style="fill-rule: evenodd;"/>
      <path d="m243.64,42.73c.32-1.23.29-2.09-.06-3.28-.43-1.47-.25-.98.95-1.46,1.68-.67,2.42-2.62,2.49-4.47-.19.08-.39.16-.58.23,1.05,1.74,2.39,2.07,4.19,1.78.61-.1.48.66.74,1.02.52.74.96,1.07,1.74,1.42.09.04-.58,2.34-.45,3.03.29,1.58-2.15,3.07-2.82,4.66-.31.74-.34,1.56-.36,2.36,0,.16-1.66-.17-1.81-.16-.62.07-1.99.66-2.46.1-.77-.94-1.59-1.6-2.59-2.19-.99-.58-2.13-.84-3.22-1.05-.34-.06.41-1.35.46-1.66.35-2.31-.27-4.24-1.54-6.05-.09.22-.18.43-.27.65,4.1-.87,6.72-4.76,7.63-9.21-.2.08-.41.16-.61.25,2.29,2.4,5.26,3.8,8.13,1.88-.19-.11-.39-.21-.58-.32.04,2.84,1.33,4.88,3.73,5.71-.25-.09,1.11.06,1.06.33-.17,1.11-.3,2.21-.36,3.33-.09,1.56.18,2.92.82,4.27.1-.22.19-.44.28-.66-4.84.44-6.08,7.85-6.37,12.25.2-.08.41-.16.61-.25-1.34-1.1-2.77-1.81-4.36-2.31-1.73-.55-4.07.23-5.21-1.49-1.92-2.89-6.05-2.87-8.84-3.66.07.23.15.46.22.7,2.39-4,2.48-8.46.18-12.54-.1.22-.19.44-.28.66,3.61-.56,5.76-4.13,7.26-7.57.92-2.1,1.53-4.41,1.94-6.7.23-1.33,1.41.22,2.1.73.74.56,1.48,1.12,2.23,1.66,1.42,1.03,2.92,1.8,4.6,2,.67.08,1.3-.09,1.94-.26.03,0,.72,2.48.77,2.59,1.42,3.98,5.49,5.62,8.98,5.01-.13-.2-.25-.4-.37-.61-1.52,4.01-2.65,9.18-.63,13.21.1-.22.19-.44.28-.66-6.9,1.16-8.9,12.08-9.06,18.59.21-.12.41-.24.62-.36-2.09-1.84-4.48-2.94-7.03-3.66-.73-.2-7.5-.39-7.47-.29-1.36-5.79-7.08-9.69-12.04-10.2.07.23.15.46.22.7,1.79-2.94,2.28-6.28,1.68-9.78-.25-1.44-.81-2.75-1.47-3.98-.39-.74-.94-1.34-1.47-1.94-.14-.16,1.84-1.47,2.03-1.61,6.3-4.6,11.25-12.02,12.73-20.4.05-.28,3.66,2.18,4.07,2.46,1.54,1.03,3.13,1.93,4.82,2.59,1.08.42,2.26.68,3.4.71,1.5.03,3.89-1.28,4.24.78,1.29,7.59,9.29,11.04,15.32,10.85-.1-.23-.21-.47-.31-.7-2.01,3.1-3.26,6.63-3.9,10.39-.29,1.75-.32,3.54-.2,5.3.12,1.81,1.27,3.35-.41,4.36-6.75,4.06-10.44,13.49-11.86,21.57l.61-.25c-3.02-2.23-6.4-3.11-9.98-3.22-1.94-.06-3.85.29-5.72.83-1.01.29-1.97.75-2.91,1.24-1.25.65-1.03.27-1.49-1.09-2.49-7.57-8.02-15.05-15.13-17.04-.01.28-.03.56-.04.84,1.98,0,1.29-5.63,1.22-6.84-.1-1.98-.32-3.96-.67-5.91-.12-.68-2.6-6.93-2.69-6.86,9.02-7.91,16.18-19.64,17.92-32.58-.23.05-.45.11-.68.16,2.05,4.64,7.37,6.29,11.48,7.34,2.39.61,4.88,1,7.34.83,2.97-.2,5.66-2.26,8.44-3.29-.16-.16-.32-.31-.48-.47-.5,4.88,1.96,9.6,4.22,13.53,1.26,2.2,2.63,4.35,4.4,6.07,2.25,2.18,5.21,3.37,7.86,4.76-.02-.24-.03-.49-.05-.73-3.11,1.78-4.58,5.11-5.74,8.65-1.43,4.39-2.35,8.95-1.62,13.6.08.54.83.48.75-.06-.61-3.92.03-7.5,1-11.26,1.03-4.03,2.55-8.22,6.03-10.22.26-.15.18-.61-.05-.73-2.38-1.25-4.79-2.39-6.99-4.04-1.95-1.46-3.29-3.72-4.6-5.86-2.33-3.82-4.98-8.72-4.48-13.55.03-.31-.21-.57-.48-.47-2.29.84-4.4,2.17-6.72,2.93-2.36.78-4.98.25-7.34-.22-4.28-.84-10.22-2.49-12.34-7.29-.15-.34-.63-.18-.68.16-1.77,13.15-9.12,24.58-18.25,32.57-.21.18-.21.47-.03.68,2.53,3.01,3.26,6.73,3.59,10.74.08.94.71,7.48-.42,7.48-.45,0-.43.73-.04.84,7.57,2.12,13.01,10.57,15.22,18.67.07.27.36.35.56.22,5.63-3.84,13.55-3.88,19.09.2.23.17.55.1.61-.25,1.52-8.67,5.53-17.92,12.92-21.79.18-.1.32-.31.23-.54-2.22-6.18-.32-13.71,3.05-18.9.19-.3.03-.71-.31-.7-6.52.21-13.96-3.74-14.75-11.85-.03-.29-.26-.44-.5-.37-6.5,1.88-11.28-2.12-16.62-5.66-.21-.14-.49.06-.53.31-1.39,9.82-7.6,17.87-15.16,22.5-.22.13-.21.52-.03.68,3.92,3.68,4.61,10.3,1.74,15.03-.15.24-.1.66.22.7,5.21.54,10.26,4.51,11.64,10.41.05.23.29.33.48.26,4.64-1.73,10.28-.04,14.07,3.29.27.24.61.01.62-.36.15-6.03,1.98-16.6,8.37-17.68.29-.05.42-.38.28-.66-1.87-3.74-.71-8.67.69-12.37.1-.27-.08-.66-.37-.61-4.43.78-8.44-2.22-8.85-7.44-.02-.27-.27-.47-.5-.37-4.23,1.85-7.76-2.77-11.25-4.76-.21-.12-.5.04-.53.31-.62,5.34-3.21,13.97-8.69,14.82-.28.04-.44.38-.28.66,2.11,3.74,2.07,7.83-.13,11.51-.16.27-.08.61.22.7,3.34.95,7.29.85,9.16,4.72.06.13.22.21.34.19,3.03-.49,6.07.32,8.55,2.36.21.17.59.1.61-.25.26-3.98,1.29-11.15,5.69-11.55.3-.03.41-.39.28-.66-1.16-2.44-.63-5.16-.23-7.73.04-.28-.16-.51-.4-.5-2.76.09-4.45-1.94-4.5-5.02,0-.34-.36-.47-.58-.32-2.62,1.75-5.23.28-7.22-1.82-.22-.23-.55-.05-.61.25-.83,4.03-3.2,7.73-6.95,8.54-.24.05-.46.38-.27.65,1.55,2.2,2.18,4.85.57,7.3-.15.23-.08.63.21.66,2.62.28,5.09,1.22,6.64,3.76.08.13.26.23.4.15,1.41-.76,2.76-.81,4.23-.26.22.08.52-.06.48-.38-.36-2.76,1-4.96,3.17-6.08.16-.08.27-.27.2-.47-.5-1.58-.37-2.92.64-4.14.17-.2.05-.56-.19-.6-.81-.84-1.61-1.68-2.42-2.52-.02-.24-.23-.38-.42-.32-1.55.72-2.97.31-4.27-1.24-.2-.32-.57-.11-.58.23-.11,2.65-1.69,4.1-3.94,4.18-.2,0-.34.32-.21.5.88,1.27,1.32,2.79.93,4.38-.09.35.39.44.48.1h0Z"/>
    </g>
  </g>
  <g id="transparent">
    <rect width="300" height="250" style="fill: none;"/>
  </g>
</svg>