<?xml version="1.0" encoding="UTF-8"?>
<svg id="Layer_1" data-name="Layer 1" xmlns="http://www.w3.org/2000/svg" width="128.34" height="111.81" viewBox="0 0 128.34 111.81">
  <path d="m128.33,67.1c-.12-.73-.82-1.23-1.55-1.11l-14.1,2.32c-.91-1.98-5.47-1.01-6.33-1.35-2.1-.82-8.31-8.2-9.22-9.25-1.22-1.41-3.96-8.25-5.74-12.32.21-.32.4-.66.57-1.04,1.61-3.55-.8-8.31-1.48-9.51-.69-1.23-.5-2.28-.27-3.38,12.93-2.05,22.6-7.65,21.94-12.91-.58-4.62-8.91-7.52-19.75-7.36L83.53.1l-13.98-.1-12.23,12.26,15.33-7.48,5.8,2.03-.49,6.32c-10,2.57-16.89,7.28-16.33,11.76.5,4.01,6.84,6.72,15.58,7.26-.3.37-.59.74-.85,1.12-1.08,1.59-1.29,3.46-1.87,5.24-1.06,3.27-1.85,7.36-3.85,10.18-2.1,2.96-7.25,6.64-9.6,9.22-4.58,5.04-4.57,9.76-1.93,14.7,1.14,2.13,3.43,3.15,5.82,3.57l-22.12,3.64c.59-.19,1.17-.39,1.75-.59,1.35-.46,2.7-.93,4.05-1.42-1.4.31-2.79.64-4.17.98-1.33.32-2.65.67-3.97,1.01l.24-.09c1.1-.43,2.19-.87,3.28-1.33,1.09-.46,2.17-.93,3.25-1.43-1.17.2-2.32.45-3.48.7-1.15.25-2.3.52-3.45.8l-1.71.43-1.71.44s-.01,0-.02,0c.13-.14.26-.27.4-.41.12-.08.25-.16.38-.23l1.5-.94,1.5-.95c.99-.64,1.98-1.28,2.97-1.94-1.06.52-2.12,1.05-3.17,1.6l-1.57.82-.07.04c.29-.31.57-.62.85-.93.66-.74,1.32-1.47,1.95-2.24-.83.55-1.63,1.12-2.43,1.7-.8.58-1.59,1.17-2.37,1.77-.74.57-1.48,1.15-2.21,1.73.28-.73.55-1.47.81-2.21.48-.68.96-1.37,1.44-2.06.55-.81,1.1-1.62,1.64-2.43-.65.73-1.29,1.47-1.93,2.21-.21.25-.42.5-.63.75.18-.58.36-1.17.52-1.76-1.21,1.66-2.29,3.38-3.31,5.12-.11.13-.22.26-.33.4-.23.29-.47.57-.7.86-1,0-1.99.01-2.98.03l-1.74-.68c-2.39-.92-4.81-1.76-7.26-2.52-2.45-.75-4.93-1.44-7.49-1.91,2.22,1.35,4.53,2.48,6.86,3.56.1.05.2.09.3.14-.22-.03-.45-.06-.67-.09-2.33-.31-4.66-.58-7-.79-2.34-.21-4.69-.38-7.06-.4,2.27.68,4.55,1.27,6.84,1.79,1.78.41,3.57.79,5.36,1.15-1.05-.06-2.1-.11-3.15-.15-1.15-.05-2.31-.1-3.46-.13-2.31-.08-4.61-.13-6.93-.13,2.29.31,4.59.57,6.88.79.46.05.91.09,1.37.14-.63.05-1.27.1-1.9.16-2.63.23-5.26.51-7.88.91,2.64.25,5.28.39,7.92.47,2.08.07,4.16.1,6.23.12-.16.02-.32.03-.47.05-2.57.25-5.14.52-7.7.81-2.56.29-5.13.62-7.68.99,2.58-.06,5.16-.16,7.74-.3,2.58-.14,5.15-.3,7.73-.48.18-.01.37-.03.55-.04-2.74.59-5.47,1.21-8.19,1.88-2.78.69-5.55,1.42-8.3,2.26,2.87-.21,5.72-.54,8.56-.91,2.84-.37,5.67-.8,8.49-1.26.35-.06.7-.12,1.04-.17-.53.15-1.05.3-1.58.45-1.19.34-2.39.68-3.58,1.03-1.19.35-2.38.7-3.57,1.07-2.38.72-4.75,1.47-7.11,2.27,2.44-.49,4.87-1.04,7.28-1.61,1.21-.28,2.42-.58,3.62-.87,1.21-.29,2.41-.6,3.62-.91,1.88-.47,3.75-.97,5.62-1.46-1.44.54-2.87,1.09-4.3,1.65-2.6,1.02-5.18,2.08-7.74,3.19-2.56,1.11-5.11,2.27-7.62,3.54,2.73-.65,5.43-1.41,8.1-2.22,1.27-.38,2.53-.78,3.79-1.18-.17.09-.35.17-.52.26-1.96,1-3.91,2.01-5.84,3.07,2.05-.8,4.08-1.64,6.1-2.5,2.02-.86,4.03-1.74,6.04-2.63l1.3-.58s.05-.02.07-.02c-.4.21-.8.42-1.2.64-2.15,1.16-4.29,2.35-6.41,3.59-2.12,1.24-4.21,2.53-6.25,3.91,2.33-.81,4.61-1.72,6.87-2.67,1.55-.66,3.09-1.33,4.62-2.03-.33.25-.65.51-.98.76-.88.68-1.76,1.37-2.63,2.07-1.75,1.39-3.49,2.79-5.19,4.24,1.88-1.21,3.74-2.45,5.57-3.72.92-.63,1.84-1.26,2.75-1.91.81-.57,1.61-1.13,2.41-1.71-.63.61-1.26,1.24-1.88,1.87-1.31,1.35-2.6,2.72-3.79,4.2,1.64-.96,3.19-2.03,4.72-3.13,1.52-1.1,3.01-2.24,4.47-3.41,1.46-1.17,2.9-2.37,4.3-3.61.34-.3.68-.6,1.02-.9,1.04-.54,2.07-1.08,3.1-1.63l.26.16c.1.1.2.19.3.29.62.59,1.25,1.17,1.89,1.74.63.58,1.28,1.14,1.93,1.7.65.56,1.32,1.1,2,1.63-.48-.72-.97-1.42-1.48-2.12-.16-.22-.33-.44-.49-.66.75.46,1.49.91,2.24,1.37,1.03.62,2.07,1.23,3.11,1.84-.96-.73-1.93-1.45-2.9-2.16-.97-.71-1.95-1.42-2.93-2.11-.25-.18-.5-.36-.76-.54-.25-.32-.5-.64-.75-.96.36.16.73.32,1.09.48,1.03.45,2.07.89,3.11,1.31,1.04.43,2.08.85,3.14,1.25,1.05.4,2.11.79,3.18,1.15-.94-.64-1.89-1.24-2.85-1.84-.88-.55-1.77-1.07-2.65-1.6.8.21,1.59.42,2.39.62,1.24.32,2.49.62,3.74.91-1.2-.45-2.41-.9-3.62-1.32-1.21-.43-2.42-.84-3.64-1.26l-1.67-.55c-.13-.07-.25-.14-.38-.21-.05-.03-.11-.06-.16-.09,1.07.1,2.14.19,3.22.28,1.1.08,2.21.16,3.31.22,1.11.05,2.21.1,3.33.12-1.07-.31-2.15-.58-3.22-.85-.89-.22-1.78-.42-2.67-.62l30.57-5.03c-.22,1.04-1.42,2.79-3.54,5.3-.75.89-10.43,9.23-24.19,15.12-14.13,6.05-30.57,8.95-30.97,9.91-1.33,3.12,17,2.33,18.06,1.88,1.82-.78,13.65-3.89,15.5-3.32,2.64.81,8.93-3.86,11.55-4.65,2.15-.64,3.88-2.81,6.14-2.34,3.07.64,4.81.86,7.29-1.19.68-.56,1.54-1.27,2.37-1.64.45-.21.83-.26,1.22-.28-.52.61-1.34.85-2.05,1.39-1.04.79-1.72,1.74-1.84,3.1-.04.46.2.99.17,1.44-.03.39-.54.78-.54.78l2.21,1.95s1.64-1.48,3.33.3c1.05,1.1,1.45,2.91,2.64,3.84.72.56,1.3,1.24,2.34,1.9,2.42,1.53,4.65-.38,4.41-1.44-.48-2.12-2.16-1.14-2.54-.35-1.12-.56-.86-1.21-1.59-2.24-.82-1.15-2.09-1.8-2.39-3.26-.18-.84-.16-1.65-.32-2.49-.15-.79-.56-1.4-.16-2.06.55-.9,2.46-.97,2.8-1.93-3.24-.25.8-2.78,1.23-3.27.12-.13.24-.26.37-.39.63.14,1.25.33,1.79.43.32.06.73.15,1.2.25-.38.62-1.04,1.03-1.55,1.67-.81,1.02-1.24,2.11-1.03,3.45.07.45.44.91.52,1.35.07.39-.34.89-.34.89l2.62,1.35s1.23-1.83,3.3-.53c1.29.81,2.11,2.47,3.5,3.08.84.37,1.56.89,2.73,1.27,2.72.89,4.42-1.5,3.93-2.47-.99-1.94-2.37-.58-2.55.28-1.22-.28-1.13-.96-2.09-1.79-1.07-.92-2.46-1.23-3.12-2.58-.37-.77-.55-1.56-.92-2.34-.34-.73-.89-1.22-.66-1.96.07-.23.22-.43.41-.62,1.1.25,2.08.47,2.71.6,1.62.34,8.29-3.2,8.27-4.93-.03-2.48-2.73-11.53-4.76-16.84.09-.03.18-.05.27-.08.86-.26,1.63-.78,2.45-1.17l7.8-1.28c1.5.91,3.14,1.77,4.34-.7,0,0,0-.01,0-.02l14.95-2.46c.73-.12,1.23-.81,1.11-1.55Zm-40.56-.96c-1.36-.49-2.49-.82-3.07-1.06-1.23-.5-2.92-1.01-3.97-1.76-1.59-1.14-1.25-2.52-.37-4.02.57-.97,1.41-1.73,1.89-2.71.68-1.36.6-3.02.97-4.49.38-1.51,1.16-2.33,2.13-2.92.47.59.91,1.19,1.24,1.82.2.38,2.9,5.68,2.55,10.34-.13,1.74-.69,3.4-1.37,4.79Z"/>
</svg>