<?xml version="1.0" encoding="utf-8"?>
<svg viewBox="50 50 300 300" xmlns="http://www.w3.org/2000/svg">
  <ellipse style="fill: rgb(237, 9, 9);" cx="200" cy="200" rx="212.356" ry="212.356"/>
  <g id="text">
    <path d="M 140.125 123.515 L 138.813 127.755 L 143.193 127.755 L 141.881 123.515 C 141.807 123.347 141.728 123.226 141.644 123.152 C 141.561 123.077 141.464 123.04 141.352 123.04 L 140.654 123.04 C 140.542 123.04 140.444 123.077 140.36 123.152 C 140.278 123.226 140.199 123.347 140.125 123.515 Z M 138.534 136.738 C 138.534 137.09 138.454 137.346 138.296 137.504 C 138.139 137.663 137.883 137.742 137.529 137.742 L 133.43 137.742 C 133.076 137.742 132.82 137.663 132.661 137.504 C 132.504 137.346 132.426 137.09 132.426 136.738 L 132.426 129.373 C 132.426 128.815 132.514 128.174 132.69 127.448 C 132.866 126.723 133.141 125.877 133.513 124.91 L 135.94 118.577 C 136.052 118.261 136.223 118.029 136.455 117.881 C 136.688 117.732 136.99 117.657 137.362 117.657 L 144.867 117.657 C 145.219 117.657 145.512 117.732 145.745 117.881 C 145.978 118.029 146.15 118.261 146.262 118.577 L 148.687 124.91 C 149.059 125.877 149.334 126.723 149.51 127.448 C 149.688 128.174 149.776 128.815 149.776 129.373 L 149.776 136.738 C 149.776 137.09 149.697 137.346 149.539 137.504 C 149.38 137.663 149.125 137.742 148.772 137.742 L 144.559 137.742 C 144.187 137.742 143.913 137.663 143.737 137.504 C 143.56 137.346 143.472 137.09 143.472 136.738 L 143.472 132.832 L 138.534 132.832 L 138.534 136.738 Z M 158.384 137.742 L 154.2 137.742 C 153.846 137.742 153.59 137.663 153.433 137.504 C 153.275 137.346 153.196 137.09 153.196 136.738 L 153.196 118.662 C 153.196 118.308 153.275 118.052 153.433 117.895 C 153.59 117.737 153.846 117.657 154.2 117.657 L 157.101 117.657 C 157.454 117.657 157.756 117.713 158.008 117.825 C 158.259 117.936 158.505 118.131 158.746 118.41 L 164.158 124.602 L 164.158 118.662 C 164.158 118.308 164.237 118.052 164.395 117.895 C 164.553 117.737 164.809 117.657 165.162 117.657 L 169.346 117.657 C 169.7 117.657 169.956 117.737 170.114 117.895 C 170.272 118.052 170.35 118.308 170.35 118.662 L 170.35 136.738 C 170.35 137.09 170.272 137.346 170.114 137.504 C 169.956 137.663 169.7 137.742 169.346 137.742 L 165.162 137.742 C 164.809 137.742 164.553 137.663 164.395 137.504 C 164.237 137.346 164.158 137.09 164.158 136.738 L 164.158 133.306 L 159.388 127.532 L 159.388 136.738 C 159.388 137.09 159.309 137.346 159.151 137.504 C 158.992 137.663 158.737 137.742 158.384 137.742 Z M 174.758 137.742 C 174.405 137.742 174.149 137.663 173.991 137.504 C 173.833 137.346 173.753 137.09 173.753 136.738 L 173.753 133.417 C 173.753 133.064 173.833 132.809 173.991 132.651 C 174.149 132.492 174.405 132.413 174.758 132.413 L 177.52 132.413 L 177.52 123.04 L 174.758 123.04 C 174.405 123.04 174.149 122.962 173.991 122.804 C 173.833 122.646 173.753 122.39 173.753 122.036 L 173.753 118.662 C 173.753 118.308 173.833 118.052 173.991 117.895 C 174.149 117.737 174.405 117.657 174.758 117.657 L 186.641 117.657 C 186.995 117.657 187.25 117.737 187.408 117.895 C 187.566 118.052 187.645 118.308 187.645 118.662 L 187.645 122.036 C 187.645 122.39 187.566 122.646 187.408 122.804 C 187.25 122.962 186.995 123.04 186.641 123.04 L 183.936 123.04 L 183.936 132.413 L 186.641 132.413 C 186.995 132.413 187.25 132.492 187.408 132.651 C 187.566 132.809 187.645 133.064 187.645 133.417 L 187.645 136.738 C 187.645 137.09 187.566 137.346 187.408 137.504 C 187.25 137.663 186.995 137.742 186.641 137.742 L 174.758 137.742 Z M 196.233 137.742 L 192.076 137.742 C 191.723 137.742 191.468 137.663 191.309 137.504 C 191.151 137.346 191.072 137.09 191.072 136.738 L 191.072 118.662 C 191.072 118.308 191.151 118.052 191.309 117.895 C 191.468 117.737 191.723 117.657 192.076 117.657 L 196.568 117.657 C 196.866 117.657 197.111 117.722 197.306 117.852 C 197.501 117.983 197.683 118.197 197.851 118.494 L 200.362 123.04 C 200.454 123.208 200.533 123.329 200.597 123.404 C 200.663 123.478 200.752 123.515 200.864 123.515 L 201.114 123.515 C 201.226 123.515 201.314 123.478 201.379 123.404 C 201.445 123.329 201.524 123.208 201.616 123.04 L 204.1 118.494 C 204.266 118.197 204.448 117.983 204.643 117.852 C 204.839 117.722 205.085 117.657 205.383 117.657 L 209.902 117.657 C 210.255 117.657 210.51 117.737 210.668 117.895 C 210.827 118.052 210.906 118.308 210.906 118.662 L 210.906 136.738 C 210.906 137.09 210.827 137.346 210.668 137.504 C 210.51 137.663 210.255 137.742 209.902 137.742 L 205.606 137.742 C 205.252 137.742 204.996 137.663 204.838 137.504 C 204.68 137.346 204.602 137.09 204.602 136.738 L 204.602 126.919 L 202.955 129.958 C 202.788 130.275 202.589 130.503 202.356 130.642 C 202.123 130.781 201.83 130.851 201.478 130.851 L 200.362 130.851 C 200.008 130.851 199.714 130.781 199.482 130.642 C 199.25 130.503 199.05 130.275 198.882 129.958 L 197.237 126.919 L 197.237 136.738 C 197.237 137.09 197.158 137.346 197 137.504 C 196.842 137.663 196.586 137.742 196.233 137.742 Z M 222.03 123.515 L 220.718 127.755 L 225.098 127.755 L 223.786 123.515 C 223.712 123.347 223.633 123.226 223.549 123.152 C 223.466 123.077 223.369 123.04 223.257 123.04 L 222.559 123.04 C 222.447 123.04 222.35 123.077 222.266 123.152 C 222.183 123.226 222.104 123.347 222.03 123.515 Z M 220.439 136.738 C 220.439 137.09 220.36 137.346 220.201 137.504 C 220.044 137.663 219.789 137.742 219.435 137.742 L 215.335 137.742 C 214.981 137.742 214.725 137.663 214.567 137.504 C 214.409 137.346 214.331 137.09 214.331 136.738 L 214.331 129.373 C 214.331 128.815 214.419 128.174 214.595 127.448 C 214.772 126.723 215.046 125.877 215.418 124.91 L 217.846 118.577 C 217.957 118.261 218.129 118.029 218.36 117.881 C 218.593 117.732 218.895 117.657 219.267 117.657 L 226.772 117.657 C 227.125 117.657 227.417 117.732 227.65 117.881 C 227.883 118.029 228.055 118.261 228.167 118.577 L 230.593 124.91 C 230.965 125.877 231.239 126.723 231.415 127.448 C 231.593 128.174 231.682 128.815 231.682 129.373 L 231.682 136.738 C 231.682 137.09 231.602 137.346 231.444 137.504 C 231.286 137.663 231.03 137.742 230.677 137.742 L 226.464 137.742 C 226.092 137.742 225.818 137.663 225.642 137.504 C 225.465 137.346 225.377 137.09 225.377 136.738 L 225.377 132.832 L 220.439 132.832 L 220.439 136.738 Z M 243.482 137.742 L 238.963 137.742 C 238.609 137.742 238.354 137.663 238.196 137.504 C 238.038 137.346 237.959 137.09 237.959 136.738 L 237.959 123.04 L 233.857 123.04 C 233.505 123.04 233.249 122.962 233.091 122.804 C 232.932 122.646 232.853 122.39 232.853 122.036 L 232.853 118.662 C 232.853 118.308 232.932 118.052 233.091 117.895 C 233.249 117.737 233.505 117.657 233.857 117.657 L 248.586 117.657 C 248.94 117.657 249.196 117.737 249.354 117.895 C 249.512 118.052 249.59 118.308 249.59 118.662 L 249.59 122.036 C 249.59 122.39 249.512 122.646 249.354 122.804 C 249.196 122.962 248.94 123.04 248.586 123.04 L 244.486 123.04 L 244.486 136.738 C 244.486 137.09 244.407 137.346 244.249 137.504 C 244.09 137.663 243.835 137.742 243.482 137.742 Z M 266.232 137.742 L 253.288 137.742 C 252.935 137.742 252.678 137.663 252.52 137.504 C 252.363 137.346 252.284 137.09 252.284 136.738 L 252.284 118.662 C 252.284 118.308 252.363 118.052 252.52 117.895 C 252.678 117.737 252.935 117.657 253.288 117.657 L 266.232 117.657 C 266.585 117.657 266.84 117.737 266.998 117.895 C 267.157 118.052 267.236 118.308 267.236 118.662 L 267.236 121.924 C 267.236 122.278 267.157 122.535 266.998 122.693 C 266.84 122.85 266.585 122.929 266.232 122.929 L 258.533 122.929 L 258.533 125.077 L 263.971 125.077 C 264.325 125.077 264.581 125.157 264.738 125.315 C 264.896 125.472 264.976 125.728 264.976 126.082 L 264.976 129.066 C 264.976 129.419 264.896 129.676 264.738 129.834 C 264.581 129.991 264.325 130.07 263.971 130.07 L 258.533 130.07 L 258.533 132.469 L 266.232 132.469 C 266.585 132.469 266.84 132.548 266.998 132.706 C 267.157 132.865 267.236 133.12 267.236 133.473 L 267.236 136.738 C 267.236 137.09 267.157 137.346 266.998 137.504 C 266.84 137.663 266.585 137.742 266.232 137.742 Z" style="fill: rgb(255, 255, 255); white-space: pre;"/>
    <path d="M 157.716 195.162 L 136.73 195.162 C 135.889 195.162 135.281 194.974 134.906 194.597 C 134.529 194.222 134.34 193.613 134.34 192.772 L 134.34 185.001 C 134.34 184.16 134.529 183.552 134.906 183.177 C 135.281 182.8 135.889 182.611 136.73 182.611 L 154.594 182.611 C 155.17 182.611 155.602 182.423 155.89 182.046 C 156.178 181.671 156.322 181.217 156.322 180.686 C 156.322 179.932 156.178 179.379 155.89 179.025 C 155.602 178.671 155.17 178.472 154.594 178.427 L 144.633 177.032 C 141.534 176.59 139.044 175.572 137.162 173.978 C 135.281 172.384 134.34 169.728 134.34 166.009 L 134.34 159.036 C 134.34 155.273 135.558 152.385 137.992 150.37 C 140.428 148.356 143.792 147.349 148.086 147.349 L 166.681 147.349 C 167.522 147.349 168.131 147.537 168.507 147.914 C 168.884 148.289 169.072 148.897 169.072 149.738 L 169.072 157.641 C 169.072 158.483 168.884 159.092 168.507 159.468 C 168.131 159.844 167.522 160.033 166.681 160.033 L 151.207 160.033 C 150.632 160.033 150.19 160.221 149.879 160.598 C 149.569 160.973 149.415 161.449 149.415 162.025 C 149.415 162.601 149.569 163.088 149.879 163.486 C 150.19 163.885 150.632 164.106 151.207 164.15 L 161.103 165.478 C 164.203 165.921 166.703 166.939 168.606 168.533 C 170.51 170.126 171.462 172.782 171.462 176.502 L 171.462 183.475 C 171.462 187.238 170.234 190.126 167.777 192.141 C 165.32 194.155 161.966 195.162 157.716 195.162 Z M 206.643 195.162 L 189.376 195.162 C 188.535 195.162 187.838 195.008 187.285 194.698 C 186.731 194.387 186.299 193.811 185.989 192.97 L 179.482 176.701 C 179.083 175.727 178.751 174.875 178.485 174.144 C 178.22 173.413 177.998 172.716 177.821 172.053 C 177.644 171.388 177.523 170.69 177.455 169.96 C 177.389 169.23 177.356 168.334 177.356 167.271 L 177.356 149.738 C 177.356 148.897 177.545 148.289 177.921 147.914 C 178.297 147.537 178.905 147.349 179.746 147.349 L 190.307 147.349 C 191.148 147.349 191.79 147.537 192.233 147.914 C 192.675 148.289 192.897 148.897 192.897 149.738 L 192.897 168.068 C 192.897 168.511 192.94 168.954 193.028 169.396 C 193.117 169.839 193.25 170.304 193.428 170.791 L 196.548 180.088 C 196.681 180.531 196.836 180.83 197.012 180.985 C 197.19 181.139 197.456 181.217 197.81 181.217 L 198.54 181.217 C 198.894 181.217 199.16 181.139 199.338 180.985 C 199.515 180.83 199.67 180.531 199.802 180.088 L 202.924 170.725 C 203.101 170.237 203.233 169.773 203.322 169.33 C 203.411 168.887 203.455 168.444 203.455 168.002 L 203.455 149.738 C 203.455 148.897 203.643 148.289 204.019 147.914 C 204.395 147.537 205.004 147.349 205.845 147.349 L 216.271 147.349 C 217.113 147.349 217.722 147.537 218.098 147.914 C 218.474 148.289 218.663 148.897 218.663 149.738 L 218.663 167.271 C 218.663 168.334 218.629 169.23 218.562 169.96 C 218.496 170.69 218.375 171.388 218.198 172.053 C 218.021 172.716 217.799 173.413 217.534 174.144 C 217.268 174.875 216.936 175.727 216.537 176.701 L 210.03 192.97 C 209.72 193.811 209.288 194.387 208.734 194.698 C 208.181 195.008 207.484 195.162 206.643 195.162 Z M 263.349 195.162 L 242.431 195.162 C 236.896 195.162 232.79 194.056 230.112 191.842 C 227.433 189.628 226.094 186.219 226.094 181.614 L 226.094 160.896 C 226.094 156.292 227.433 152.883 230.112 150.669 C 232.79 148.455 236.896 147.349 242.431 147.349 L 259.033 147.349 C 259.874 147.349 260.482 147.537 260.858 147.914 C 261.235 148.289 261.423 148.897 261.423 149.738 L 261.423 157.774 C 261.423 158.615 261.235 159.224 260.858 159.601 C 260.482 159.977 259.874 160.166 259.033 160.166 L 245.221 160.166 C 243.848 160.166 242.829 160.442 242.165 160.995 C 241.501 161.549 241.169 162.379 241.169 163.486 L 241.169 179.358 C 241.169 180.464 241.424 181.283 241.933 181.814 C 242.441 182.346 243.205 182.611 244.224 182.611 L 250.665 182.611 L 250.665 172.251 C 250.665 171.41 250.853 170.801 251.23 170.426 C 251.606 170.049 252.215 169.861 253.056 169.861 L 263.349 169.861 C 264.19 169.861 264.799 170.049 265.175 170.426 C 265.552 170.801 265.74 171.41 265.74 172.251 L 265.74 192.772 C 265.74 193.613 265.552 194.222 265.175 194.597 C 264.799 194.974 264.19 195.162 263.349 195.162 Z" style="fill: rgb(255, 255, 255); white-space: pre;"/>
    <path d="M 163.744 203.392 L 170.555 203.392 C 171.134 203.392 171.552 203.522 171.812 203.781 C 172.071 204.04 172.2 204.459 172.2 205.037 L 172.2 222.775 C 172.2 223.749 172.163 224.656 172.087 225.494 C 172.01 226.332 171.774 227.314 171.378 228.442 L 169.092 234.66 C 168.94 235.117 168.719 235.505 168.43 235.824 C 168.14 236.145 167.751 236.305 167.264 236.305 L 161.184 236.305 C 160.696 236.305 160.254 236.198 159.858 235.985 C 159.462 235.771 159.203 235.421 159.081 234.934 L 156.979 227.483 C 156.887 227.178 156.773 226.972 156.637 226.866 C 156.499 226.759 156.339 226.705 156.156 226.705 L 155.744 226.705 C 155.562 226.705 155.402 226.759 155.265 226.866 C 155.127 226.972 155.013 227.178 154.922 227.483 L 152.773 234.934 C 152.652 235.391 152.423 235.733 152.087 235.961 C 151.752 236.19 151.341 236.305 150.852 236.305 L 144.82 236.305 C 144.332 236.305 143.912 236.153 143.562 235.848 C 143.212 235.543 142.96 235.147 142.808 234.66 L 140.522 228.35 C 140.126 227.224 139.89 226.241 139.813 225.402 C 139.738 224.565 139.7 223.659 139.7 222.683 L 139.7 205.037 C 139.7 204.459 139.829 204.04 140.089 203.781 C 140.348 203.522 140.766 203.392 141.345 203.392 L 148.385 203.392 C 148.963 203.392 149.382 203.522 149.641 203.781 C 149.9 204.04 150.03 204.459 150.03 205.037 L 150.03 221.861 L 152.681 216.1 C 152.926 215.582 153.246 215.216 153.642 215.004 C 154.038 214.79 154.526 214.684 155.105 214.684 L 157.024 214.684 C 157.603 214.684 158.091 214.79 158.487 215.004 C 158.883 215.216 159.203 215.582 159.448 216.1 L 162.099 221.861 L 162.099 205.037 C 162.099 204.459 162.228 204.04 162.487 203.781 C 162.747 203.522 163.165 203.392 163.744 203.392 Z M 178.996 236.305 C 178.416 236.305 177.997 236.175 177.738 235.916 C 177.479 235.657 177.349 235.238 177.349 234.66 L 177.349 229.22 C 177.349 228.64 177.479 228.221 177.738 227.962 C 177.997 227.704 178.416 227.575 178.996 227.575 L 183.52 227.575 L 183.52 212.214 L 178.996 212.214 C 178.416 212.214 177.997 212.085 177.738 211.826 C 177.479 211.566 177.349 211.148 177.349 210.569 L 177.349 205.037 C 177.349 204.459 177.479 204.04 177.738 203.781 C 177.997 203.522 178.416 203.392 178.996 203.392 L 198.468 203.392 C 199.048 203.392 199.467 203.522 199.725 203.781 C 199.984 204.04 200.113 204.459 200.113 205.037 L 200.113 210.569 C 200.113 211.148 199.984 211.566 199.725 211.826 C 199.467 212.085 199.048 212.214 198.468 212.214 L 194.034 212.214 L 194.034 227.575 L 198.468 227.575 C 199.048 227.575 199.467 227.704 199.725 227.962 C 199.984 228.221 200.113 228.64 200.113 229.22 L 200.113 234.66 C 200.113 235.238 199.984 235.657 199.725 235.916 C 199.467 236.175 199.048 236.305 198.468 236.305 L 178.996 236.305 Z M 221.278 236.305 L 213.872 236.305 C 213.292 236.305 212.873 236.175 212.614 235.916 C 212.355 235.657 212.225 235.238 212.225 234.66 L 212.225 212.214 L 205.507 212.214 C 204.927 212.214 204.508 212.085 204.249 211.826 C 203.99 211.566 203.86 211.148 203.86 210.569 L 203.86 205.037 C 203.86 204.459 203.99 204.04 204.249 203.781 C 204.508 203.522 204.927 203.392 205.507 203.392 L 229.642 203.392 C 230.221 203.392 230.64 203.522 230.899 203.781 C 231.158 204.04 231.287 204.459 231.287 205.037 L 231.287 210.569 C 231.287 211.148 231.158 211.566 230.899 211.826 C 230.64 212.085 230.221 212.214 229.642 212.214 L 222.922 212.214 L 222.922 234.66 C 222.922 235.238 222.793 235.657 222.534 235.916 C 222.275 236.175 221.856 236.305 221.278 236.305 Z M 244.45 236.305 L 237.365 236.305 C 236.785 236.305 236.366 236.175 236.107 235.916 C 235.848 235.657 235.718 235.238 235.718 234.66 L 235.718 205.037 C 235.718 204.459 235.848 204.04 236.107 203.781 C 236.366 203.522 236.785 203.392 237.365 203.392 L 244.45 203.392 C 245.029 203.392 245.447 203.522 245.706 203.781 C 245.966 204.04 246.095 204.459 246.095 205.037 L 246.095 214.957 L 253.729 214.957 L 253.729 205.037 C 253.729 204.459 253.859 204.04 254.118 203.781 C 254.377 203.522 254.796 203.392 255.374 203.392 L 262.46 203.392 C 263.039 203.392 263.458 203.522 263.718 203.781 C 263.977 204.04 264.106 204.459 264.106 205.037 L 264.106 234.66 C 264.106 235.238 263.977 235.657 263.718 235.916 C 263.458 236.175 263.039 236.305 262.46 236.305 L 255.374 236.305 C 254.796 236.305 254.377 236.175 254.118 235.916 C 253.859 235.657 253.729 235.238 253.729 234.66 L 253.729 224.512 L 246.095 224.512 L 246.095 234.66 C 246.095 235.238 245.966 235.657 245.706 235.916 C 245.447 236.175 245.029 236.305 244.45 236.305 Z" style="fill: rgb(255, 255, 255); white-space: pre;"/>
    <path d="M 167.206 282.1 L 152.298 282.1 C 148.353 282.1 145.426 281.311 143.517 279.733 C 141.608 278.155 140.654 275.726 140.654 272.444 L 140.654 257.676 C 140.654 254.395 141.608 251.965 143.517 250.387 C 145.426 248.81 148.353 248.021 152.298 248.021 L 164.131 248.021 C 164.73 248.021 165.164 248.155 165.432 248.424 C 165.7 248.691 165.835 249.125 165.835 249.725 L 165.835 255.452 C 165.835 256.052 165.7 256.485 165.432 256.753 C 165.164 257.022 164.73 257.156 164.131 257.156 L 154.286 257.156 C 153.307 257.156 152.581 257.353 152.109 257.748 C 151.635 258.142 151.398 258.733 151.398 259.523 L 151.398 270.835 C 151.398 271.624 151.58 272.207 151.943 272.586 C 152.305 272.964 152.85 273.153 153.575 273.153 L 158.166 273.153 L 158.166 265.769 C 158.166 265.171 158.301 264.737 158.57 264.468 C 158.837 264.201 159.271 264.067 159.871 264.067 L 167.206 264.067 C 167.806 264.067 168.24 264.201 168.509 264.468 C 168.777 264.737 168.91 265.171 168.91 265.769 L 168.91 280.395 C 168.91 280.995 168.777 281.429 168.509 281.696 C 168.24 281.965 167.806 282.1 167.206 282.1 Z M 190.48 282.1 L 175.523 282.1 C 174.923 282.1 174.488 281.965 174.22 281.696 C 173.952 281.429 173.818 280.995 173.818 280.395 L 173.818 274.858 C 173.818 274.258 173.952 273.824 174.22 273.556 C 174.488 273.288 174.923 273.153 175.523 273.153 L 188.253 273.153 C 188.664 273.153 188.972 273.02 189.177 272.752 C 189.382 272.483 189.484 272.16 189.484 271.782 C 189.484 271.244 189.382 270.85 189.177 270.598 C 188.972 270.346 188.664 270.204 188.253 270.171 L 181.154 269.178 C 178.945 268.862 177.17 268.136 175.83 267 C 174.489 265.864 173.818 263.971 173.818 261.32 L 173.818 256.352 C 173.818 253.669 174.686 251.61 176.421 250.175 C 178.157 248.739 180.555 248.021 183.616 248.021 L 196.869 248.021 C 197.468 248.021 197.902 248.155 198.17 248.424 C 198.438 248.691 198.573 249.125 198.573 249.725 L 198.573 255.356 C 198.573 255.956 198.438 256.391 198.17 256.659 C 197.902 256.927 197.468 257.061 196.869 257.061 L 185.84 257.061 C 185.43 257.061 185.114 257.195 184.893 257.464 C 184.673 257.731 184.562 258.07 184.562 258.481 C 184.562 258.891 184.673 259.238 184.893 259.523 C 185.114 259.807 185.43 259.965 185.84 259.996 L 192.893 260.943 C 195.102 261.258 196.885 261.984 198.242 263.12 C 199.599 264.255 200.277 266.148 200.277 268.8 L 200.277 273.769 C 200.277 276.452 199.401 278.51 197.65 279.945 C 195.898 281.381 193.508 282.1 190.48 282.1 Z M 217.801 257.96 L 215.576 265.156 L 223.007 265.156 L 220.783 257.96 C 220.657 257.676 220.522 257.471 220.38 257.345 C 220.238 257.219 220.072 257.156 219.883 257.156 L 218.7 257.156 C 218.511 257.156 218.345 257.219 218.202 257.345 C 218.06 257.471 217.927 257.676 217.801 257.96 Z M 215.103 280.395 C 215.103 280.995 214.969 281.429 214.7 281.696 C 214.432 281.965 213.998 282.1 213.399 282.1 L 206.441 282.1 C 205.841 282.1 205.407 281.965 205.14 281.696 C 204.871 281.429 204.737 280.995 204.737 280.395 L 204.737 267.9 C 204.737 266.953 204.887 265.865 205.187 264.634 C 205.487 263.404 205.952 261.968 206.583 260.327 L 210.701 249.583 C 210.89 249.047 211.182 248.652 211.576 248.399 C 211.97 248.147 212.483 248.021 213.114 248.021 L 225.847 248.021 C 226.447 248.021 226.944 248.147 227.337 248.399 C 227.732 248.652 228.024 249.047 228.214 249.583 L 232.331 260.327 C 232.962 261.968 233.428 263.404 233.728 264.634 C 234.028 265.865 234.178 266.953 234.178 267.9 L 234.178 280.395 C 234.178 280.995 234.043 281.429 233.775 281.696 C 233.507 281.965 233.073 282.1 232.473 282.1 L 225.327 282.1 C 224.696 282.1 224.23 281.965 223.93 281.696 C 223.63 281.429 223.48 280.995 223.48 280.395 L 223.48 273.769 L 215.103 273.769 L 215.103 280.395 Z M 249.023 282.1 L 241.688 282.1 C 241.088 282.1 240.654 281.965 240.385 281.696 C 240.117 281.429 239.983 280.995 239.983 280.395 L 239.983 249.725 C 239.983 249.125 240.117 248.691 240.385 248.424 C 240.654 248.155 241.088 248.021 241.688 248.021 L 256.17 248.021 C 260.461 248.021 263.396 248.873 264.974 250.576 C 266.552 252.28 267.34 254.504 267.34 257.25 L 267.34 263.309 C 267.34 266.054 266.552 268.279 264.974 269.982 C 263.396 271.686 260.461 272.538 256.17 272.538 L 250.728 272.538 L 250.728 280.395 C 250.728 280.995 250.593 281.429 250.324 281.696 C 250.057 281.965 249.623 282.1 249.023 282.1 Z M 250.632 256.872 L 250.632 264.018 L 254.892 264.018 C 255.807 264.018 256.407 263.782 256.692 263.309 C 256.975 262.835 257.116 262.299 257.116 261.7 L 257.116 259.191 C 257.116 258.592 256.975 258.055 256.692 257.583 C 256.407 257.109 255.807 256.872 254.892 256.872 L 250.632 256.872 Z" style="fill: rgb(255, 255, 255); white-space: pre;"/>
  </g>
</svg>