<?xml version="1.0" encoding="UTF-8"?>
<svg xmlns="http://www.w3.org/2000/svg" width="396.52" height="351.99" xmlns:xlink="http://www.w3.org/1999/xlink" viewBox="0 0 396.52 351.99">
  <defs>
    <linearGradient id="linear-gradient" x1="-15.94" y1="222.32" x2="315.94" y2="27.1" gradientUnits="userSpaceOnUse">
      <stop offset="0" stop-color="#e7bed7"/>
      <stop offset="1" stop-color="#9e4a68"/>
    </linearGradient>
  </defs>
  <g id="background">
    <rect width="300" height="249.42" fill="url(#linear-gradient)"/>
  </g>
  <g id="transparent">
    <rect y="0" width="300" height="250" fill="none"/>
  </g>
  <g id="Music_Notes" data-name="Music Notes">
    <g opacity=".25">
      <path d="m66.62,33.21c-.4,0-.81-.02-1.22-.04.37,3,2.73,5.51,5.81,5.32.12,0,.48-.07.48-.07-2.91-.05-5-2.4-5.07-5.21Zm0,0c-.4,0-.81-.02-1.22-.04.37,3,2.73,5.51,5.81,5.32.12,0,.48-.07.48-.07-2.91-.05-5-2.4-5.07-5.21Zm0,0c-.4,0-.81-.02-1.22-.04.37,3,2.73,5.51,5.81,5.32.12,0,.48-.07.48-.07-2.91-.05-5-2.4-5.07-5.21Zm16.74.23c-.32-4.97-4.41-8.94-9.49-9.02-1.55-.03-3.09.43-4.42,1.23-.35-1.33-.69-2.65-1-3.97-.07-.31-.14-.62-.22-.94-.04-.19-.08-.38-.12-.57-.06-.26-.12-.52-.18-.79-.41-1.93-.78-3.84-1.06-5.7,2.04-3.77,3.73-7.44,3.87-10.75.05-1.11-.03-2.1-.2-2.93h-1.65c.5.8.8,2.04.57,3.24-.44,2.27-1.57,4.65-3.01,7.14-.36-3.48-.38-6.7.09-9.44.06-.38.15-.7.25-.95h-1.56c-.29,3.12-.01,7.07.62,11.4-1.58,2.64-3.43,5.41-5.07,8.31-.07.11-.14.23-.2.35-.23.4-.44.8-.66,1.21-.02.04-.05.09-.07.14-1.49,2.83-2.71,5.8-3.24,8.88-.1.59-.14,1.2-.12,1.81,0,.35.03.7.07,1.05.13,1,.4,2.01.8,2.98.05.14.1.28.17.42,2.2,5.06,7.64,9.43,13.58,9.53,1.22.02,2.4-.14,3.51-.47.42,1.23.8,2.35,1.16,3.36.04.12.08.24.11.36.15.46.24.94.28,1.41h0c.44,4.1-2.33,8.25-5.4,9.57-2.28.99-4.25.69-5.75-.32-.01,0-.01,0-.01,0-1.21-.8-2.12-2.08-2.66-3.5.15.48.6,1.83.74,2.07.15.27.38.57.66.9,0,0,.01,0,.01,0,1.25,1.41,3.74,2.99,7.35,1.52,4.51-1.86,6.07-6.59,5.95-9.99-.01-.5-.07-.97-.16-1.4-.05-.25-.11-.49-.18-.71-.36-1.1-.76-2.29-1.19-3.56,1.55-.57,2.94-1.46,4.11-2.57.18-.16.34-.33.51-.51,1.86-2.01,3.06-4.64,3.21-7.56.01-.15.02-.3.02-.45,0-.26,0-.52-.02-.77Zm-12.66,12.24c-5.23-.95-8.47-4.6-10.08-8.43h0c-.06-.16-.12-.3-.17-.45-.49-1.26-.79-2.52-.94-3.71-.04-.37-.07-.73-.08-1.08-.03-.56-.01-1.1.05-1.6.34-2.88,1.61-5.93,3.19-9.02.06-.12.13-.25.19-.38.18-.34.36-.68.54-1.02.08-.16.17-.31.25-.47.89-1.65,1.83-3.29,2.73-4.92.27,1.57.59,3.16.94,4.78.05.24.1.49.15.74.05.21.1.42.15.63.06.29.12.58.19.87.33,1.47.69,2.93,1.06,4.4-2,1.41-3.43,3.59-3.52,6.02,0,.05,0,.11,0,.16-.01.33,0,.65.06.97.37,3,2.73,5.51,5.81,5.32.12,0,.48-.07.48-.07-2.91-.05-5-2.4-5.07-5.21-.02-.32,0-.64.04-.96.01-.06.02-.12.04-.18.24-1.42,1.24-2.84,2.73-3.85.36,1.36.72,2.7,1.1,4.02.1.4.22.8.33,1.19.65,2.29,1.32,4.51,1.97,6.58.06.21.12.42.19.63.54,1.74,1.07,3.36,1.56,4.84-1.22.35-2.53.44-3.88.2Zm11.71-11.11c-.05,2.75-1.1,5.44-2.79,7.49-.14.18-.29.35-.45.52-1.05,1.14-2.3,2.04-3.68,2.59-.45-1.33-.92-2.73-1.4-4.2-.07-.21-.14-.43-.21-.65-.72-2.16-1.46-4.47-2.18-6.83-.13-.4-.25-.81-.37-1.21-.44-1.47-.87-2.94-1.29-4.44,1.15-.66,2.54-1.08,4.08-1.12,3.84-.11,7.65,2.3,8.21,6.57.06.39.09.81.08,1.24v.03Zm-15.79-1.36c-.4,0-.81-.02-1.22-.04.37,3,2.73,5.51,5.81,5.32.12,0,.48-.07.48-.07-2.91-.05-5-2.4-5.07-5.21Zm0,0c-.4,0-.81-.02-1.22-.04.37,3,2.73,5.51,5.81,5.32.12,0,.48-.07.48-.07-2.91-.05-5-2.4-5.07-5.21Z" fill="#fff"/>
      <path d="m69.07,56.25c.23,1.86-1.1,3.55-2.96,3.78-1.86.23-3.56-1.1-3.79-2.96-.23-1.86,1.1-3.55,2.96-3.78,1.86-.23,3.56,1.1,3.79,2.96Z" fill="#fff"/>
    </g>
    <g opacity=".25">
      <path d="m124.53,24.57c-1.87-1.8-5.24-1.37-7.57.94-.04.04-.07.07-.11.11-.25.26-.47.52-.67.8-1.19,1.61-1.61,3.5-1.18,5.06v.04c.2.68.55,1.3,1.06,1.8.02.02.05.04.07.06,1.91,1.77,5.29,1.28,7.6-1.11.93-.96,1.54-2.08,1.82-3.19.11-.39.17-.77.19-1.15.07-1.29-.32-2.49-1.21-3.35Zm-2.07,6.25c-1.68,1.72-3.86,2.53-5.23,1.24-1.36-1.31-.67-3.27,1.02-4.99.03-.03.05-.05.08-.08.33-.32.66-.62,1.01-.86,1.42-1.03,2.92-1.33,4.01-.29.5.47.74,1.03.76,1.62.02.36-.04.74-.17,1.13-.26.74-.77,1.51-1.48,2.23Z" fill="#fff"/>
      <rect x="115.89" y="31.21" width=".98" height="24.42" transform="translate(-2.87 8.63) rotate(-4.2)" fill="#fff"/>
    </g>
    <path d="m199.91,19.12c-4.09-5.29-4.1-12.68-1.21-19.12h.95c-2.89,6.33-3.03,13.59.91,18.94,4.74,6.45,14.18,9.28,22.37,3.1,6.23-4.7,6.62-15.37,2.43-20.13l.27.19c4.41,4.75,3.67,15.98-2.9,20.68-8.62,6.18-17.83,2.79-22.82-3.66Z" fill="#fff" opacity=".25"/>
    <path d="m245.42,26.04c-.27.67-.56,1.34-.89,2-1.2,2.43-2.81,4.77-4.86,6.95-3.57,3.8-7.46,6.77-11.58,9.05h-.01c-1.81,1.01-3.65,1.87-5.54,2.61h0c-26.5,10.46-59.81-3.26-76.1-10.04-7.01-2.91-13.98-5.43-20.88-7.54-.54-.17-1.07-.34-1.61-.49-1.88-.57-3.75-1.1-5.61-1.6-.72-.2-1.43-.38-2.15-.57-15-3.86-29.57-5.79-43.35-5.77-1.55,0-3.08.03-4.6.09-.21,0-.41,0-.61.02-1.6.05-3.19.14-4.76.26-.99.07-1.97.15-2.94.25-.74.06-1.48.14-2.21.23-18,2.02-34.28,7.71-47.97,17.1h-.01c-.8.55-1.58,1.12-2.36,1.69h-.01c-2.56,1.89-5.01,3.89-7.36,6.05v-.56c1.12-1.2,2.27-2.34,3.46-3.45h0c.54-.53,1.1-1.03,1.66-1.51,14.59-12.82,33.89-19.55,55.65-21.1.95-.08,1.91-.14,2.87-.18,1.22-.07,2.44-.12,3.67-.14.2,0,.4-.02.61,0,15.51-.32,32.1,1.83,49.03,6.13.79.2,1.58.41,2.38.62,1.59.42,3.17.86,4.77,1.33.54.15,1.08.31,1.63.47,8.17,2.42,16.39,5.33,24.57,8.69,16.4,6.73,49.63,21,75.67,7.94,2.25-1.13,4.43-2.44,6.55-4,.03-.02.06-.05.09-.07,2.17-1.59,4.27-3.41,6.27-5.5.69-.72,1.34-1.46,1.93-2.21,1.11-1.4,2.05-2.85,2.83-4.35.02-.02.03-.03.03-.05,4.6-8.86,3.6-19.14-1.53-28.37h.84c4.55,8.37,5.73,17.7,2.43,26.04Z" fill="#fff" opacity=".25"/>
    <g opacity=".25">
      <path d="m219.88,98.39c4.6,2.76,8.2-.37,12.55,2.39,4.72,3,4.5,11.77,4.5,11.77l-.28.5s-.84-9.04-4.37-11.29c-4.86-3.1-7.02.63-11.61-2.13l-.79-1.24Z" fill="#fff"/>
      <path d="m232.28,121.55c-.8,2.83-3.26,4.6-5.48,3.98-2.22-.63-3.38-3.43-2.57-6.26.8-2.83,3.26-4.61,5.48-3.98,2.23.63,3.38,3.43,2.57,6.26Z" fill="#fff"/>
      <polygon points="231.37 116.42 230.64 116.88 219.16 98.84 219.89 98.38 231.37 116.42" fill="#fff"/>
    </g>
    <g opacity=".25">
      <path d="m138.09,55.91c2.82,4.3,7.24,3.1,9.85,7.3,2.83,4.56-1.02,9.5-1.02,9.5l-.45.32s2.84-5.51.93-9.04c-1.65-3.05-8.04-3.81-9.03-5.61l-.29-2.47Z" fill="#fff"/>
      <path d="m137.93,59.65c1.35,2.5,6.13,2.4,8.35,5.97,2.4,3.87-1.8,8.84-1.8,8.84l-.38.27s3.35-5.44,1.73-8.45c-1.4-2.59-6.83-3.24-7.67-4.77l-.22-1.87Z" fill="#fff"/>
      <path d="m139.12,81.09c-1.88,2.11-4.74,2.63-6.4,1.15-1.66-1.47-1.49-4.37.39-6.48,1.88-2.11,4.74-2.63,6.4-1.15,1.66,1.47,1.49,4.37-.39,6.48Z" fill="#fff"/>
      <rect x="138.46" y="55.89" width=".82" height="20.51" transform="translate(-6.73 16.53) rotate(-6.65)" fill="#fff"/>
    </g>
    <path d="m238.84,34.05c-.05.11-.49.97-.68,1.17-1.82,1.91-3.66,3.66-5.54,5.27-.03.02-.06.05-.09.07-1.46,1.26-2.94,2.41-4.44,3.48h-.01c-47.49,34.05-110.96-18.44-184.31-10.01-.56.06-1.11.13-1.67.2-13.71,1.75-27.76,5.66-42.1,12.67v-.25c13.08-6.51,25.75-10.51,38.03-12.63.56-.11,1.12-.2,1.67-.29,73.2-11.78,132.77,41.19,182.83,12.92h0c1.15-.65,2.3-1.35,3.44-2.1,4.36-2.8,8.64-6.28,12.86-10.51Z" fill="#fff" opacity=".25"/>
    <path d="m214.84,69.82c6.16-.38,16.49,6.04,19.34,16.06,3.94,13.89-3.44,24.52-15.92,28.76-30.53,10.35-50.25-27.08-61.46-40.3C122.05,33.35,76.52,9.37,39.24,24.64l-4.69,1.69c38.49-14.64,83.62,3.97,119.37,46.51,11.65,13.86,33.71,53.08,64.91,42.09,12.76-4.49,20.32-15.67,15.81-29.85-3.21-10.12-13.43-17.29-22.42-15.33-1.87.41.42.21,2.62.07Z" fill="#fff" opacity=".25"/>
    <path d="m62,61.22c5.86,7.4,5.18,17.35-2.84,20.77-5.23,2.23-11.46,1.4-15.36-4.52-3.64-5.53-.37-11.74,2.2-12.05.33-.04-7.29,4.8.59,13.05,3.1,3.24,7.9,3.91,12.58,1.83,5.89-2.61,6.28-12.17,1.26-18.43-12.26-15.31-37.93-12.75-42.58-12.99-5.09-.26,30.83-4.48,44.14,12.33Z" fill="#fff" opacity=".25"/>
    <path d="m232.4,73.72c-.29.21-2.64,1.87-2.86,2.01C153.6,121.21,99.98,19.51,0,52.61v-.22c101.26-34.94,158.28,69.11,232.4,21.33Z" fill="#fff" opacity=".25"/>
    <path d="m277.04,5.32c9.45-.29,17.06,6.17,15.04,14.64-1.32,5.53-5.69,10.02-12.78,9.63-6.62-.37-9.67-6.69-8.39-8.94.16-.28-.47,8.7,10.86,7.29,4.46-.55,7.85-4,8.97-9,1.41-6.28-6.07-12.28-14.09-11.99-19.62.71-33.18,22.82-36,26.41-2.11,2.69,14.93-27.39,36.4-28.05Z" fill="#fff" opacity=".25"/>
    <path d="m236.07,51.93c-.29.18-2.65,1.62-2.89,1.72-79.88,34.68-138.8-15.55-191.08-19.41-1.36-.11-2.72-.18-4.07-.21-10.43-.28-20.62,1.46-30.66,6.27h-.01c-1.3.63-2.6,1.3-3.89,2.03h0c-1.16.66-2.31,1.35-3.46,2.09v-.53c1.69-1.13,3.4-2.14,5.13-3.05,1.52-.82,3.06-1.55,4.6-2.2h.01c9.59-4.11,19.57-5.41,29.96-4.88,1.35.07,2.7.17,4.07.3,53.49,5.02,117.51,54.11,192.3,17.9Z" fill="#fff" opacity=".25"/>
    <g opacity=".25">
      <polygon points="199.11 55.61 184.37 62.68 183.62 60.49 198.35 53.42 199.11 55.61" fill="#fff"/>
      <path d="m189.21,79.12c-.98,1.73-2.88,2.52-4.24,1.75-1.36-.77-1.68-2.79-.7-4.52.98-1.73,2.88-2.52,4.24-1.75,1.36.77,1.68,2.79.7,4.52Z" fill="#fff"/>
      <polygon points="189.43 75.6 188.88 75.79 184.18 62.11 184.73 61.92 189.43 75.6" fill="#fff"/>
      <path d="m203.51,72.61c-.98,1.73-2.88,2.52-4.24,1.75-1.37-.77-1.68-2.79-.7-4.52.98-1.73,2.87-2.52,4.24-1.75,1.36.77,1.68,2.79.7,4.52Z" fill="#fff"/>
      <polygon points="203.72 69.09 203.17 69.28 198.48 55.59 199.03 55.4 203.72 69.09" fill="#fff"/>
      <polygon points="200.46 59.56 185.73 66.63 184.98 64.44 199.71 57.37 200.46 59.56" fill="#fff"/>
    </g>
    <g opacity=".25">
      <path d="m167.7,34.97c-1.17-4.95-5.69-5.32-6.69-10.11-1.09-5.19,4.17-8.49,4.17-8.49l.52-.14s-4.51,4.16-3.93,8.09c.5,3.39,6.19,6.25,6.49,8.26l-.57,2.39Z" fill="#fff"/>
      <path d="m169.11,31.54c-.41-2.78-4.89-4.3-5.74-8.37-.93-4.41,4.67-7.61,4.67-7.61l.45-.12s-4.96,3.94-4.47,7.27c.42,2.88,5.26,5.31,5.52,7.02l-.43,1.81Z" fill="#fff"/>
      <path d="m175.27,11.2c2.46-1.33,5.3-.84,6.35,1.09,1.05,1.93-.1,4.57-2.56,5.9-2.46,1.33-5.3.84-6.35-1.09-1.05-1.93.1-4.57,2.56-5.9Z" fill="#fff"/>
      <rect x="160.28" y="24.78" width="20.3" height=".81" transform="translate(106.75 185.26) rotate(-76.71)" fill="#fff"/>
    </g>
  </g>
  <g id="more_notes" data-name="more notes">
    <g opacity=".25">
      <path d="m26.99,175.94c-6.15-7.76-5.43-18.2,2.98-21.78,5.49-2.34,12.02-1.47,16.11,4.74,3.82,5.8.39,12.31-2.31,12.64-.34.04,7.64-5.04-.62-13.69-3.25-3.4-8.28-4.1-13.2-1.92-6.18,2.74-6.59,12.77-1.33,19.34,12.85,16.06,39.78,13.38,44.67,13.62,5.33.27-32.34,4.7-46.3-12.94Z" fill="#fff"/>
      <g>
        <path d="m175.27,198.61c2.22-3,5.94-4.02,8.3-2.28,2.36,1.74,2.48,5.58.26,8.58-2.22,3-5.94,4.02-8.3,2.28-2.36-1.74-2.48-5.58-.26-8.58Z" fill="#fff"/>
        <rect x="176.83" y="204.71" width="1.09" height="27.13" transform="translate(-40.87 40.86) rotate(-11.79)" fill="#fff"/>
      </g>
      <g>
        <path d="m236,143.96c4.74,3.95,9.4,1.04,13.86,4.95,4.84,4.25,2.15,10.88,2.15,10.88l-.4.91s1.34-7.31-2.09-10.7c-2.96-2.93-10.56-1.58-12.33-3.3l-1.19-2.73Z" fill="#fff"/>
        <path d="m237.13,148.31c2.43,2.4,7.88.63,11.67,3.96,4.12,3.61,1.02,10.59,1.02,10.59l-.34.63s1.94-7.42-.97-10.3c-2.51-2.49-8.98-1.34-10.48-2.81l-.9-2.07Z" fill="#fff"/>
        <path d="m245.98,172.53c-1.42,3.07-4.53,4.67-6.95,3.55-2.42-1.11-3.23-4.5-1.82-7.58,1.42-3.07,4.53-4.67,6.95-3.55,2.42,1.11,3.23,4.51,1.82,7.58Z" fill="#fff"/>
        <polygon points="245.86 166.53 244.95 166.92 235.09 144.35 236 143.96 245.86 166.53" fill="#fff"/>
      </g>
      <g>
        <path d="m149.17,231.01c2.07-1.84,4.91-2.02,6.36-.4,1.45,1.62.95,4.42-1.12,6.26-2.07,1.84-4.92,2.02-6.36.4-1.45-1.62-.95-4.42,1.12-6.26Z" fill="#fff"/>
        <path d="m148.11,235.54v13.71c-.27.04-.54.08-.8.12v-13.83h.8Z" fill="#fff"/>
        <path d="m127.44,233.15c2.07-1.84,4.92-2.02,6.36-.4,1.45,1.62.95,4.42-1.12,6.26-2.07,1.84-4.92,2.02-6.36.4-1.45-1.62-.95-4.42,1.12-6.26Z" fill="#fff"/>
        <rect x="125.57" y="237.69" width=".81" height="11.73" fill="#fff"/>
      </g>
      <g>
        <path d="m101.23,188.29c-3.38-2.03-7.42-1.54-9.02,1.11-1.6,2.65-.16,6.45,3.22,8.48,3.38,2.03,7.42,1.53,9.02-1.11,1.6-2.65.16-6.45-3.22-8.48Z" fill="#fff"/>
        <rect x="106.56" y="194" width="1.15" height="28.65" transform="translate(-36.53 23.29) rotate(-10.61)" fill="#fff"/>
      </g>
      <path d="m1.5,210.33c141.61,7.76,237.45-20.14,214.73-14.53-63.37,15.67-214.73,14.53-214.73,14.53Z" fill="#fff"/>
      <path d="m166.01,249.42h-13.82c27.21-3.64,55.01-8.4,72.28-14.18,9.83-3.29-14.26,6.46-58.46,14.18Z" fill="#fff"/>
      <path d="m288.4,204.32c4.72-1.46,11.6-3.76,11.6-3.76-118.44,35.62-275.2,20.15-271.65,20.91,26.06,5.62,157.11,10.41,260.05-17.15Z" fill="#fff"/>
      <path d="m242.28,177.97c4.02-1.24,16.56-5.42,16.56-5.42-100.67,30.27-240.62,19.35-237.61,20,22.15,4.78,133.54,8.85,221.04-14.57Z" fill="#fff"/>
      <path d="m271.08,218.9c4.72-1.46,19.48-6.38,19.48-6.38C172.13,248.14,7.48,235.28,11.03,236.05c26.06,5.62,157.11,10.41,260.05-17.15Z" fill="#fff"/>
      <path d="m44.03,223.6c-.44-.04-.86-.08-1.29-.13.59,3.07,3.06,5.54,6.27,5.38.13,0,.53-.07.53-.07-3-.07-5.19-2.36-5.51-5.18Zm18.34-.87c-.61-5.16-4.94-9.22-10.3-9.36-1.7-.04-3.4.45-4.88,1.32-.26-1-.5-1.99-.73-2.98-.15-.6-.28-1.19-.42-1.79-.64-2.86-1.18-5.7-1.57-8.43,1.16-2.11,2.22-4.19,3-6.2.24-.59.44-1.17.61-1.74.42-1.34.69-2.63.75-3.88.04-.68.03-1.32-.02-1.91-.02-.28-.04-.55-.08-.81-.77-5.61-4.98-6.51-5.73-2.13-.02.12-.04.24-.05.36-.06.31-.1.62-.13.94-.24,2.11-.23,4.56-.04,7.26.03.53.08,1.07.14,1.62.11,1.27.26,2.58.45,3.94-2.14,3.51-4.71,7.21-6.79,11.12-.28.52-.54,1.04-.8,1.57-1.26,2.58-2.27,5.26-2.77,8.03-.11.64-.17,1.3-.16,1.96,0,.22.01.44.03.65.51,7.15,7.77,14.72,15.94,14.91,1.35.03,2.65-.13,3.88-.48.08.26.16.52.25.77.27.84.54,1.64.79,2.37.07.2.13.39.2.58,1.07,3.12.17,6.48-1.6,8.99h1.2c1.89-3.09,2.14-6.88,1.43-9.09-.05-.14-.09-.29-.14-.44-.24-.76-.5-1.56-.78-2.39-.11-.36-.23-.73-.35-1.1,4.8-1.75,8.33-6.18,8.72-11.51.01-.21.02-.42.03-.63.01-.52-.01-1.03-.08-1.53Zm-18.58-29.3c-.03-2.16.1-4.16.43-5.98.06-.32.13-.59.2-.82.12-.34.25-.59.39-.78.61-.81,1.46-.38,2.04.62.16.27.3.59.41.94.25.78.34,1.69.16,2.59-.23,1.15-.62,2.3-1.13,3.5-.24.55-.5,1.11-.78,1.68-.45.87-.94,1.76-1.47,2.65-.1-.94-.17-1.87-.21-2.76-.02-.56-.04-1.11-.04-1.65Zm4.58,43.34c-7.87-1.5-11.61-8.57-12.2-14.03-.04-.32-.06-.65-.08-.96-.03-.69,0-1.34.07-1.94.33-2.62,1.37-5.38,2.73-8.17.26-.55.54-1.1.83-1.65,1.3-2.5,2.8-5.04,4.2-7.54.4,2.42.89,4.92,1.43,7.44.13.59.26,1.18.4,1.78.25,1.13.52,2.26.79,3.39-2.26,1.57-3.87,4.04-3.94,6.77v.2c0,.48.05.95.14,1.4.59,3.07,3.06,5.54,6.27,5.38.13,0,.53-.07.53-.07-3-.07-5.19-2.36-5.51-5.18-.06-.48-.06-.98,0-1.48,0-.06,0-.13.02-.19.23-1.63,1.37-3.26,3.09-4.41.41,1.61.83,3.2,1.26,4.77.15.58.31,1.15.47,1.72,1.29,4.66,2.62,8.99,3.79,12.57-1.35.38-2.8.47-4.29.19Zm5.28-.52c-1.17-3.61-2.52-7.76-3.84-12.16-.17-.58-.35-1.17-.52-1.76-.5-1.72-1-3.47-1.47-5.23,1.28-.71,2.81-1.16,4.5-1.19,4.07-.07,8.08,2.4,8.89,6.78.12.61.18,1.26.16,1.94,0,.07,0,.13-.01.2-.2,5-3.38,9.71-7.71,11.41Zm-9.62-12.65c-.44-.04-.86-.08-1.29-.13.59,3.07,3.06,5.54,6.27,5.38.13,0,.53-.07.53-.07-3-.07-5.19-2.36-5.51-5.18Z" fill="#fff"/>
      <g>
        <path d="m222.15,231c-2.28,2.83-5.93,3.67-8.15,1.89-2.23-1.78-2.19-5.52.09-8.35,2.28-2.83,5.93-3.67,8.15-1.89,2.23,1.78,2.19,5.52-.09,8.35Z" fill="#fff"/>
        <rect x="220.35" y="198.62" width="1.06" height="26.38" transform="translate(-31.87 39.28) rotate(-9.48)" fill="#fff"/>
      </g>
      <path d="m259.28,226.32c7.93-.25,14.31,5.18,12.62,12.28-1.11,4.64-4.78,8.41-10.73,8.08-5.55-.31-8.12-5.61-7.04-7.5.14-.24-.4,7.3,9.11,6.12,3.74-.46,6.59-3.36,7.53-7.55,1.18-5.27-5.09-10.3-11.83-10.06-16.47.6-27.84,19.14-30.21,22.16-1.77,2.26,12.53-22.98,30.54-23.54Z" fill="#fff"/>
      <path d="m282.41,180.31c4.68-6.39,3.8-14.71-3.03-17.33-4.46-1.71-9.66-.81-12.74,4.27-2.88,4.75.06,9.85,2.23,10.03.27.02-6.26-3.8.08-10.96,2.49-2.82,6.5-3.53,10.49-1.93,5.02,2,5.65,10.01,1.64,15.42-9.79,13.22-31.56,12.11-35.39,12.36-2.87.18,26.09,2.66,36.72-11.86Z" fill="#fff"/>
    </g>
  </g>
</svg>