<?xml version="1.0" encoding="UTF-8"?>
<svg xmlns="http://www.w3.org/2000/svg" width="300" height="250" viewBox="0 0 300 250">
  <g id="transparent">
    <rect width="300" height="250" fill="none"/>
  </g>
  <g id="text_rotate">
    <g>
      <path d="m224.56,183.51c1.15.31,2.18,1.11,3.09,2.4.97,1.38,1.63,3.04,1.96,4.98.33,1.94.48,3.84.43,5.72s-.18,4.15-.43,6.84c-.18,2.19-.28,3.8-.29,4.83-.02,1.03.13,1.76.44,2.2.33-.41.66-.8.99-1.16.33-.37.66-.67,1.01-.92.6-.42,1.41-.81,2.44-1.15.11-.04.45-.18,1.03-.41.58-.23,1.11-.52,1.59-.86.67-.47,1.17-1.03,1.5-1.68.34-.65.54-1.48.62-2.5l.13-.04c.77.46,1.42,1.05,1.93,1.79.86,1.22,1.11,2.5.74,3.84s-1.25,2.51-2.65,3.5c-.51.36-1.02.66-1.54.9-.52.24-1.15.49-1.9.75-.88.31-1.61.6-2.18.87-.57.26-1.16.61-1.75,1.03-1.29.91-2.67,2.25-4.15,4.01l-.13-.11c-.37-.53-.63-1.46-.76-2.8-.13-1.34-.25-3.33-.36-5.98-.13-3.12-.28-5.75-.46-7.92-.18-2.16-.54-4.34-1.08-6.53-.54-2.19-1.32-4-2.35-5.46-.84-1.2-1.89-2.24-3.13-3.12.5-1.01,1.15-1.79,1.96-2.36,1.06-.75,2.16-.96,3.31-.65Z" fill="#fff"/>
      <path d="m212.2,193.44c1.88,1.31,3.39,3.5,4.54,6.56,1.37,3.64,2.07,7.23,2.1,10.77s-.62,6.62-1.97,9.25c-1.34,2.63-3.32,4.43-5.93,5.41-2.53.95-4.75.82-6.67-.38-1.91-1.21-3.42-3.29-4.53-6.24-1.1-2.93-1.8-6.16-2.11-9.7-.31-3.54.1-6.81,1.22-9.8,1.12-2.99,3.18-5.05,6.19-6.18,2.9-1.09,5.29-.98,7.17.33Zm-9.02,7c-.39,2.31-.37,5.09.08,8.32.45,3.23,1.24,6.37,2.38,9.4.62,1.66,1.34,2.96,2.15,3.91.81.95,1.58,1.28,2.32,1,1.21-.46,2.04-1.87,2.47-4.23.44-2.36.47-5.17.08-8.43-.38-3.26-1.11-6.32-2.19-9.2-1.49-3.96-3.1-5.61-4.84-4.95-1.24.46-2.06,1.86-2.45,4.17Z" fill="#fff"/>
      <path d="m175.14,204.82c0,2.11-.39,4.06-1.15,5.83s-1.8,3.17-3.12,4.2c-1.31,1.03-2.76,1.54-4.33,1.53-1.63,0-2.86-.54-3.67-1.59-.81-1.06-1.22-2.63-1.22-4.71,0-2.08.4-4.01,1.17-5.79.78-1.77,1.83-3.18,3.16-4.22,1.33-1.04,2.78-1.56,4.36-1.55,3.21,0,4.81,2.11,4.8,6.31Zm-7.47-3.02c-.65,1.04-1.17,2.42-1.57,4.14-.4,1.72-.6,3.56-.6,5.54,0,1.13.09,1.93.29,2.41.2.48.53.72,1.01.72.7,0,1.4-.53,2.09-1.58.69-1.06,1.26-2.43,1.7-4.12.44-1.69.66-3.41.67-5.15,0-1.21-.11-2.1-.35-2.66-.24-.56-.62-.85-1.16-.85-.73,0-1.42.52-2.07,1.56Zm2.43,28.74h-3.04s17.65-31.75,17.65-31.75h3.04s-17.65,31.75-17.65,31.75Zm22.63-11.07c0,2.11-.39,4.06-1.15,5.83s-1.8,3.17-3.12,4.2c-1.31,1.03-2.76,1.54-4.33,1.53-1.63,0-2.86-.53-3.67-1.59s-1.22-2.63-1.22-4.71c0-2.08.4-4.01,1.17-5.79.78-1.77,1.83-3.18,3.16-4.22,1.33-1.04,2.78-1.56,4.36-1.55,3.21,0,4.81,2.11,4.8,6.31Zm-7.47-3.02c-.65,1.04-1.17,2.42-1.57,4.14-.4,1.72-.6,3.56-.6,5.54,0,1.13.09,1.93.29,2.41s.53.72,1.01.72c.7,0,1.4-.53,2.09-1.58.69-1.05,1.26-2.43,1.7-4.12s.66-3.41.67-5.15c0-1.21-.12-2.1-.35-2.66-.24-.56-.62-.85-1.16-.85-.73,0-1.42.52-2.07,1.56Z" fill="#fff"/>
      <path d="m153.79,196.48c.63,1.49.44,3.28-.56,5.36-.83,1.73-2.11,3.47-3.83,5.24-1.72,1.77-3.74,3.04-6.06,3.82-2.31.78-4.66.6-7.05-.55-3.25-1.56-3.9-4.38-1.95-8.44l.02-.04c-.06-.06-.2-.14-.4-.24-.84-.4-1.91-.64-3.22-.72-1.3-.08-2.55-.02-3.75.19l.15-1.19c1.12-.43,2.39-.64,3.84-.62,1.44.02,2.92.25,4.42.7,1.31-2.21,2.8-3.98,4.47-5.31,1.67-1.32,3.39-2.14,5.16-2.44,1.77-.3,3.43-.08,4.98.66,1.88.9,3.13,2.1,3.76,3.59Zm-9.26-.73c-.95.41-1.94,1.1-2.97,2.09-1.04.99-2.01,2.17-2.92,3.54.61.48.7,1.18.26,2.09-.5,1.04-1.22,1.54-2.17,1.49-.35.86-.5,1.5-.45,1.92.05.42.33.75.84.99.84.4,1.94.18,3.32-.66,1.37-.84,2.71-2,4.01-3.46,1.3-1.47,2.26-2.85,2.88-4.15.59-1.22.84-2.1.76-2.66-.08-.55-.48-1.01-1.22-1.36-.61-.29-1.39-.24-2.33.17Z" fill="#fff"/>
      <path d="m151.77,186.46c.21,1.3-.12,2.46-.97,3.47-.78.92-1.67,1.49-2.65,1.69-.98.2-2.01.16-3.07-.13-1.06-.29-2.38-.77-3.96-1.44l-19.46,15.14c-2.18,1.7-4.15,2.49-5.91,2.37-1.76-.12-3.29-.74-4.61-1.85-.73-.62-1.26-1.38-1.58-2.28-.32-.9-.37-1.79-.15-2.67-2.2.46-4.25-.11-6.14-1.71-1.01-.86-1.62-1.93-1.83-3.24-.21-1.3.12-2.46.97-3.47.42-.5.82-.91,1.22-1.24l1.52,1.28c-.44.44-.71.71-.8.82-.29.34-.4.71-.33,1.11.07.39.28.74.62,1.03,1.05.89,2.5.66,4.35-.69l2.82-2.15-3.23-2.73,1.38-1.04,3.19,2.7,18.39-14.33c2.18-1.7,4.15-2.49,5.91-2.36,1.76.12,3.3.74,4.61,1.85,1.76,1.49,2.35,3.15,1.76,4.98,2.18-.48,4.21.08,6.11,1.68,1.01.86,1.62,1.93,1.83,3.24Zm-35.27,9.98l-2.71,2.08-.9.67c-.33.31-.56.53-.67.66-.29.34-.4.71-.33,1.11.07.39.28.74.63,1.03,1.05.89,2.5.66,4.35-.69l2.82-2.15-3.19-2.7Zm15.15-11.81l-13.8,10.74,3.19,2.7,14.42-11.21-3.81-2.23Zm7.13-4.9c-.68.11-1.49.52-2.43,1.24l-3.89,3.02,3.84,2.2,3.12-2.45c.71-.54,1.47-1.02,2.28-1.45.13-.63-.31-1.37-1.32-2.23-.39-.33-.92-.44-1.6-.33Zm7.68,6.5c-.68.11-1.49.52-2.43,1.24l-1.97,1.54c1.47.58,2.73.88,3.78.9,1.05.02,1.92-.37,2.61-1.19.22-.26.29-.61.23-1.05s-.27-.81-.62-1.1c-.39-.33-.92-.44-1.6-.33Z" fill="#fff"/>
    </g>
    <circle cx="178.16" cy="127.35" r="120.84" fill="none"/>
  </g>
</svg>