<?xml version="1.0" encoding="UTF-8"?>
<svg xmlns="http://www.w3.org/2000/svg" width="300" height="250" xmlns:xlink="http://www.w3.org/1999/xlink" viewBox="0 0 300 250">
  <defs>
    <clipPath id="clippath">
      <rect x="77.87" y="60.63" width="222.13" height="189.37" fill="none"/>
    </clipPath>
    <linearGradient id="linear-gradient" x1="105.74" y1="241.16" x2="284.61" y2="195.4" gradientUnits="userSpaceOnUse">
      <stop offset=".02" stop-color="#fff"/>
      <stop offset="1" stop-color="#f4efe6"/>
    </linearGradient>
  </defs>
  <g isolation="isolate">
    <g id="wallet">
      <g clip-path="url(#clippath)">
        <g mix-blend-mode="multiply">
          <path d="m396.52,210.18l-111.32-149.3s-79.49,55.47-88.86,61.19c-9.36,5.72-3.64,9.88-14.04,15.08-10.4,5.2-14.56,4.68-22.36,9.36-7.8,4.68-80.61,59.81-80.61,59.81l112.02,145.67,205.16-141.81Z" fill="#fff"/>
          <path d="m395.97,209.83l-110.88-148.26s-79.81,55.61-87.61,60.38c-7.39,6.46-3.27,11.77-13.45,17.15-10.18,5.38-15.6,4.9-23.54,7.82-6.5,3.9-80.74,59.22-80.74,59.22l111.46,145.24,204.76-141.55Z" fill="#f7f8f8"/>
          <path d="m395.43,209.49l-110.44-147.22s-80.13,55.75-86.37,59.56c-5.42,7.2-2.89,13.65-12.86,19.22-9.97,5.56-16.64,5.12-24.72,6.28-5.2,3.12-80.87,58.64-80.87,58.64l110.91,144.8,204.35-141.29Z" fill="#f0f0f1"/>
          <path d="m394.89,209.14l-110-146.18s-80.45,55.89-85.13,58.75c-3.46,7.93-2.52,15.54-12.26,21.29-9.75,5.75-17.68,5.33-25.89,4.74-3.9,2.34-81.01,58.06-81.01,58.06l110.35,144.36,203.94-141.03Z" fill="#e8e9ea"/>
          <path d="m394.35,208.8l-109.56-145.14s-80.77,56.04-83.89,57.94c-1.49,8.67-2.14,17.43-11.67,23.35-9.53,5.93-18.72,5.55-27.07,3.2-2.6,1.56-81.14,57.48-81.14,57.48l109.8,143.93,203.53-140.77Z" fill="#e0e2e2"/>
          <path d="m393.81,208.45l-109.13-144.1s-81.08,56.18-82.64,57.13c.48,9.41-1.77,19.31-11.08,25.42-9.31,6.11-19.75,5.77-28.25,1.66-1.3.78-81.27,56.9-81.27,56.9l109.24,143.49,203.12-140.51Z" fill="#d9dadb"/>
          <path d="m393.27,208.11l-108.69-143.06-81.4,56.32c2.45,10.14-1.39,21.2-10.49,27.49-9.1,6.29-20.79,5.99-29.42.12l-81.4,56.32,108.69,143.06,202.71-140.25Z" fill="#d1d3d4"/>
        </g>
        <path d="m393.95,208.66l-108.69-143.06-81.4,56.32c2.45,10.14-1.39,21.2-10.49,27.49-9.1,6.29-20.79,5.99-29.42.12l-81.4,56.32,108.69,143.06,202.71-140.25Z" fill="url(#linear-gradient)"/>
      </g>
      <rect y="0" width="300" height="250" fill="none"/>
    </g>
  </g>
</svg>