<?xml version="1.0" encoding="UTF-8"?>
<svg id="Layer_1" data-name="Layer 1" xmlns="http://www.w3.org/2000/svg" width="58.37" height="26.79" viewBox="0 0 58.37 26.79">
  <path d="m9.75,21.13c3.74,0,4.41-1.93,4.41-5.16,0-2.57-1.11-4.73-4.7-4.73h-2.16v9.89h2.45Zm-.35-10.42c3.21,0,4.06-1.69,4.06-4.41,0-2.51-.7-4.44-4.14-4.44h-2.01v8.84h2.1ZM0,21.28c2.42-.09,3.03-.55,3.03-1.66V3.41c0-1.11-.61-1.6-3.03-1.69v-.38h9.78c6.36,0,8.03,2.48,8.03,4.87,0,2.16-1.69,4.23-6.19,4.67v.09c4.67.17,6.95,2.19,6.95,4.99s-2.01,5.72-8.52,5.72H0v-.41Z" style="fill: #922933;"/>
  <path d="m29.65,20.17l.29-.32c-.12-.17-.26-.35-.41-.47-.29-.26-.9-.61-1.87-.61-.5,0-1.05.12-1.14.15.15.2.5.79,1.02,1.28.53.5,1.75,1.43,3.65,1.43.82,0,2.39-.23,3.94-1.69,1.72-1.66,2.42-4.11,2.42-6.45,0-.99-.09-3.68-2.07-6.01-.32-.35-1.05-1.17-2.19-1.69-.73-.35-1.64-.61-3.33-.64-2.1-.09-1.96-.03-3.3-.41-1.11,1.75-1.99,2.89-1.99,6.86,0,.58,0,1.17.06,1.75.2,2.07.64,3.24,1.49,5.17.29-.09,1.23-.44,2.22-.44.93,0,1.49.2,2.33.55.23-.47.47-.9.47-1.43,0-.41-.15-.76-.21-.88-.29-.53-.76-.88-1.43-1.81-.23-.35-1.49-2.25-1.49-4.09,0-1.4.73-2.95,1.69-3.94.26-.29.47-.47,1.11-.88-.15.47-.26.76-.26,1.26,0,1.17.82,2.13,1.52,2.95.2.23.38.47.55.7.32.44,1.17,1.52,1.17,3.09,0,.73-.15,1.58-.9,2.98-.93,1.6-1.81,2.54-3.09,3.88l-.26-.29ZM24.81.26c-.23.17-.41.32-.41.64,0,.06.03.2.09.35.23.44.7.41.85.41.32,0,.64-.09,1.28-.26.29-.06.61-.15.93-.23.44-.12,1.87-.47,3.36-.47,1.02,0,3.59.17,5.87,2.04,2.45,2.01,3.53,5.02,3.53,8.08,0,3.5-1.28,5.81-2.04,6.89-1.69,2.48-4.58,4.38-7.67,4.38-.38,0-1.05-.03-1.99-.23-2.19-.47-3.44-1.34-4.2-1.81-.5.64-.82,1.17-.82,1.98,0,.53.18.96.23,1.14.23.5.67,1.2,1.78,1.75,1.43.7,2.92.7,3.47.7.41,0,3.76-.06,5.81-1.4.88-.58,1.2-1.17,1.4-1.55l.35.2c-.53.96-.96,1.58-1.84,2.25-.88.64-2.63,1.66-5.25,1.66-.44,0-2.8-.06-4.41-1.14-.2-.15-.73-.55-1.17-1.14-.7-.96-.82-1.87-.82-2.3,0-1.2.73-2.13.9-2.42-.38-.38-.73-.76-1.08-1.14-.79-.9-2.54-2.95-2.54-6.33,0-1.34.26-4.23,3.21-6.3.82-.55,1.72-.99,2.63-1.43-.23-.12-.5-.26-.73-.41-1.4-.85-1.81-1.87-1.81-2.63,0-.96.56-1.34.82-1.55l.26.26Z" style="fill: #922933;"/>
  <path d="m40.8,21.28c2.42-.09,3.03-.55,3.03-1.66V3.41c0-1.11-.61-1.6-3.03-1.69v-.38h17.36l.2,7.03-.44.06c-2.04-4.64-3.39-6.57-7.03-6.57h-2.8v9.28h1.23c2.33,0,3.62-.93,4.41-3.91h.38v8.46h-.38c-.79-3.01-2.07-4-4.41-4h-1.23v7.91c0,1.14.44,1.63,3.09,1.72v.35h-10.39v-.41Z" style="fill: #922933;"/>
</svg>