<?xml version="1.0" encoding="UTF-8"?>
<svg id="Icons" xmlns="http://www.w3.org/2000/svg" width="265.13" height="22.92" viewBox="0 0 265.13 22.92">
  <path d="m87.01,2.19c3.54-2.68,7.91-.9,8.08,3.75-3.8-6.06-8.91.99-7,5.64,1.69,4.12,7.82,4.54,11.27,2.66,3.45-1.89,5.6-5.28,8.38-7.95,5.2-4.99,12.33-7.53,19.47-5.69,2.13.55,4.01,1.56,5.37,3.14,1.35-1.58,3.24-2.58,5.37-3.14,7.13-1.84,14.26.7,19.47,5.69,2.78,2.66,4.93,6.06,8.38,7.95,3.45,1.88,9.58,1.47,11.27-2.66,1.9-4.65-3.2-11.69-7-5.64.18-4.65,4.54-6.43,8.08-3.75,4.59,3.48,3.41,11.53-.11,15.17-4.34,4.5-10.93,5.53-16.9,5.56-2.9.02-6.16-.09-9.01-.62-3.83-.72-7.59-1.78-11.17-3.33-1.8-.78-3.54-1.68-5.22-2.69-1.38-.83-2.51-2.16-4.13-1.23-3.06,1.76-5.7,3.64-9.1,4.79-3.09,1.05-6.26,1.85-9.47,2.45-2.84.53-6.11.64-9.01.62-5.97-.03-12.56-1.06-16.91-5.56-3.51-3.64-4.7-11.69-.11-15.17Z" style="fill: #fff;"/>
  <g>
    <rect y="13.08" width="76.09" height="1.94" style="fill: #fff;"/>
    <rect x="187.16" y="13.08" width="77.97" height="1.94" style="fill: #fff;"/>
  </g>
</svg>