<?xml version="1.0" encoding="UTF-8"?>
<svg xmlns="http://www.w3.org/2000/svg" width="160" height="600" viewBox="0 0 160 600">
  <g id="Layer_1" data-name="Layer 1">
    <rect width="160" height="600" fill="none"/>
  </g>
  <g id="logo">
    <g>
      <path d="m139.95,265.11c0-5.86-4.75-10.61-10.61-10.61-3.12,0-5.94,1.35-7.88,3.5-3.96-1.58-8.73-2.41-14.14-2.41-1.27,0-2.56.05-3.88.14-.19-.38-.38-.76-.58-1.14-6.01-11.64-14.16-18.04-22.93-18.04s-16.93,6.41-22.93,18.04c-.19.38-.38.75-.58,1.14-1.32-.09-2.62-.14-3.89-.14-5.36,0-10.1.82-14.03,2.36-1.95-2.12-4.74-3.45-7.84-3.45-5.86,0-10.61,4.75-10.61,10.61,0,4.05,2.26,7.57,5.59,9.36-.47,6.21,1.75,13.38,6.58,20.9.23.36.46.72.7,1.07-.24.35-.47.71-.7,1.06-7.07,11.02-8.54,21.28-4.16,28.89,4.06,7.03,12.75,10.9,24.47,10.9,1.27,0,2.57-.05,3.89-.14.19.38.38.77.58,1.15,3.58,6.95,7.93,12.02,12.73,14.99.23,5.65,4.89,10.16,10.6,10.16s10.61-4.75,10.61-10.61v-.05c4.47-3.03,8.54-7.93,11.93-14.48.19-.38.38-.76.58-1.15,1.32.09,2.62.14,3.88.14,11.72,0,20.41-3.87,24.47-10.91,4.39-7.6,2.91-17.86-4.15-28.88-.23-.35-.46-.71-.7-1.06.24-.35.47-.71.7-1.07,4.81-7.5,7.03-14.64,6.57-20.84,3.41-1.76,5.74-5.32,5.74-9.43Zm-34.24,10.04c-3.1-2.25-6.38-4.38-9.82-6.36-3.41-1.97-6.91-3.75-10.41-5.3,5.32-1.75,10.55-2.95,15.49-3.51,2,4.58,3.59,9.69,4.74,15.17Zm1.02,5.81c.72,4.97,1.09,10.17,1.09,15.48s-.37,10.51-1.09,15.47c-3.94,3.11-8.25,6.03-12.85,8.68-4.58,2.64-9.27,4.91-13.95,6.77-4.68-1.86-9.38-4.13-13.95-6.77-4.6-2.65-8.91-5.57-12.85-8.68-.72-4.97-1.1-10.17-1.1-15.47s.38-10.51,1.1-15.48c3.94-3.11,8.25-6.03,12.85-8.68,4.58-2.65,9.27-4.91,13.95-6.77,4.68,1.85,9.38,4.12,13.95,6.77,4.6,2.65,8.91,5.58,12.85,8.68Zm-26.8-40.39c7.14,0,13.95,5.53,19.22,15.6-6.14.83-12.65,2.54-19.21,5.04-6.56-2.49-13.09-4.21-19.24-5.04,5.27-10.07,12.08-15.6,19.23-15.6Zm-21.05,19.42c4.94.56,10.17,1.75,15.5,3.51-3.5,1.55-6.99,3.33-10.41,5.31-3.44,1.98-6.72,4.11-9.82,6.35,1.14-5.48,2.73-10.58,4.73-15.17Zm-29.27,15.69c.35.04.7.05,1.05.05,5.86,0,10.61-4.75,10.61-10.62,0-1.29-.23-2.53-.65-3.67,3.34-1.2,7.35-1.83,11.91-1.83.7,0,1.41.02,2.13.05-2.38,5.75-4.15,12.23-5.27,19.15-5.43,4.43-10.15,9.21-13.95,14.14-4-6.3-5.97-12.21-5.83-17.27Zm19,32.44c-4.18-3.71-7.81-7.65-10.78-11.68,2.96-4.02,6.6-7.96,10.78-11.69-.39,3.81-.59,7.72-.59,11.69s.2,7.87.59,11.68Zm3.92,25.16c-10.22,0-17.68-3.16-20.99-8.9-3.57-6.18-2.18-14.84,3.9-24.44,3.79,4.94,8.52,9.71,13.95,14.14,1.12,6.92,2.89,13.41,5.27,19.16-.72.03-1.43.05-2.13.05Zm1.62-15.55c3.1,2.25,6.38,4.38,9.82,6.36,3.41,1.98,6.91,3.75,10.41,5.31-5.33,1.75-10.56,2.95-15.5,3.51-2.01-4.58-3.59-9.7-4.73-15.17Zm35.86,30.76c-1.66-3.69-5.38-6.26-9.68-6.26s-8.31,2.78-9.88,6.71c-3.58-2.63-6.89-6.76-9.74-12.22,6.15-.83,12.67-2.55,19.23-5.03,6.56,2.48,13.08,4.2,19.22,5.03-2.69,5.15-5.8,9.12-9.14,11.77Zm10.97-15.58c-4.94-.56-10.17-1.75-15.49-3.51,3.5-1.56,6.99-3.34,10.41-5.31,3.44-1.98,6.72-4.11,9.82-6.36-1.15,5.48-2.73,10.59-4.74,15.17Zm27.35-8.52c-3.31,5.74-10.77,8.9-21,8.9-.7,0-1.41-.02-2.12-.05,2.38-5.75,4.15-12.24,5.26-19.16,5.44-4.42,10.17-9.2,13.96-14.14,6.08,9.6,7.47,18.27,3.9,24.44Zm-17.07-39.63c4.18,3.74,7.81,7.68,10.78,11.7-2.98,4.02-6.61,7.96-10.78,11.68.4-3.81.6-7.71.6-11.68s-.2-7.88-.6-11.7Zm13.17,8.2c-3.8-4.94-8.52-9.71-13.96-14.14-1.12-6.92-2.88-13.4-5.26-19.15.72-.03,1.42-.05,2.12-.05,4.62,0,8.68.65,12.04,1.88-.42,1.12-.64,2.35-.64,3.61,0,5.87,4.75,10.62,10.61,10.62.31,0,.62-.02.92-.04.13,5.06-1.84,10.96-5.83,17.25Z" fill="#fff"/>
      <path d="m100.68,296.45c0,11.46-9.29,20.75-20.75,20.75s-20.76-9.29-20.76-20.75,9.29-20.76,20.76-20.76,20.75,9.29,20.75,20.76Z" fill="#fff"/>
    </g>
  </g>
</svg>