<?xml version="1.0" encoding="UTF-8"?>
<svg id="_Layer_" data-name="&amp;lt;Layer&amp;gt;" xmlns="http://www.w3.org/2000/svg" viewBox="0 0 83.21 41.16">
  <path d="m25.34,20.31c-.6-1.91-3.12-1.88-3.7,0h3.7m12.81,5.68v-9.78h-2.96v5.59c0,1.01-1.48,1.02-1.48,0v-5.59h-2.95v-3.59h-3.01v6.48c-.97-2.07-2.79-3.14-5.09-2.82-1.65.37-2.82,1.28-3.45,2.82-.57-1.82-1.91-2.79-3.79-2.89-1.99,0-3.47.98-4.07,2.89-1-2.21-3.01-3.28-5.4-2.73-1.44.45-2.3,1.21-2.96,2.54v-6.29H0v12.79h3.01v-2.87c.86,1.71,2.28,2.66,4.2,2.7,2.03-.12,3.34-1.09,4.16-2.89v3.06h2.9v-5.52c.11-1.21,1.94-1.24,2.05,0v5.52h2.91v-2.89c.67,1.48,1.72,2.38,3.29,2.78,3.45.33,4.82-2.05,4.84-2.64l-2.49-.38c-1.26.95-2.7.46-3.15-.81h6.05v3.94h3.01v-2.02c.5,2.01,2.97,2.69,4.38,1.19,0,.44-.05.96-.18,1.38-.45,1.08-1.96,1.08-2.74.36l-1.77,2.29c1.13.89,2.28,1.32,3.74,1.19,1.21-.12,1.97-.33,2.89-1.16.7-.78,1.03-1.59,1.07-2.64m-31.07-7.2c1.05,0,1.9.86,1.9,1.9s-.85,1.91-1.9,1.91-1.9-.86-1.9-1.91.85-1.9,1.9-1.9m-.12.01l.03-2.56m65.24,3.92h3.65c-.57-1.86-3.15-1.79-3.65,0m1.64-3.91l.11,2.56m8.98,3.13l.13-.12.11,2.53c.03.61-2.29,1.51-3.58.57-1.29-.94-1.32-2.02-1.32-3.45h-6.06c.65,1.72,2.72,1.54,3.3.67l2.51.41c-.93,2.91-3.42,3.29-5.8,2.51-1.21-.59-1.93-1.3-2.48-2.54v2.89h-2.96c0-1.78,0-3.79-.02-5.6-.1-1.18-1.98-1.08-1.98.07v5.53l-2.93.04h-2.01v-1.75c0-.7-.8,1.81-1.74,1.75-2.05.15-3.71-.91-4.57-2.75v2.71h-3.01v-2.71c-.87,1.76-3.16,2.89-5.41,2.32l-.33-.14s.09,3.12.09,3.92h-3v-7.97c.07-3.76,4.13-5.99,7.22-3.75.65.53,1.06,1.07,1.43,1.82v-6.29h3.01v6.29c.98-2.01,2.86-2.97,5.08-2.6,1.65.45,2.6,1.26,3.26,2.8.84-2.45,3.16-3.45,5.57-2.61,1.21.57,1.87,1.34,2.3,2.61,1.1-2.4,3.48-3.44,5.97-2.56,1.24.57,2.03,1.3,2.56,2.56v-4.68h2.91v1.84h1.84v2.69h-1.84c0,.91-.15,1.83.14,2.69.28.6,1.07.73,1.6.3m-25.28-3.1c1.05,0,1.9.86,1.9,1.91s-.85,1.9-1.9,1.9-1.9-.86-1.9-1.9.85-1.91,1.9-1.91m-.06,0l-.03-2.6m-11.03,2.6c1.05,0,1.9.86,1.9,1.91s-.86,1.9-1.9,1.9-1.91-.86-1.91-1.9.86-1.91,1.91-1.91m-.07,0l-.07-2.6m-24.17-2.48C25.03,5.77,32.6,0,41.46,0s16.47,5.71,19.19,13.78l-1.03.37-1.04.36c-2.49-7.14-9.2-12.15-17.11-12.15s-14.62,5.1-17.13,12.19l-2.07-.78Zm38.39,13.9c-2.77,7.84-10.33,13.5-19.19,13.5s-16.47-5.61-19.19-13.54l1.04-.36,1.04-.35c2.49,7,9.2,11.93,17.11,11.93s14.62-5.01,17.14-11.96l2.06.77Zm18.78,0v-1.36h-.76v-.19h1.84v.19h-.76v1.36h-.31Zm1.38,0v-1.54h.46l.55,1.09c.05.1.09.18.11.23.03-.06.07-.14.13-.25l.56-1.07h.4v1.54h-.3v-1.29l-.68,1.29h-.27l-.67-1.31v1.31h-.3Z" style="fill: #14387f; fill-rule: evenodd;"/>
</svg>