<?xml version="1.0" encoding="UTF-8"?>
<svg xmlns="http://www.w3.org/2000/svg" width="160" height="600" viewBox="0 0 160 600">
  <g id="logo_background">
    <rect width="160" height="600" fill="#070741"/>
  </g>
  <g id="logo_bar">
    <rect x="14.52" y="204.74" width="130.45" height="21.41" fill="#fff"/>
  </g>
  <g id="logo_circle">
    <path d="m79.75,161.33c-29.89,0-54.11,24.22-54.11,54.1s24.23,54.11,54.11,54.11,54.1-24.23,54.1-54.11-24.23-54.1-54.1-54.1m34.92,54.1c0,19.28-15.64,34.91-34.92,34.91s-34.91-15.63-34.91-34.91,15.63-34.91,34.91-34.91,34.92,15.63,34.92,34.91" fill="#fff"/>
  </g>
  <g id="logo_tagline">
    <g>
      <polygon points="20.33 331.4 20.33 324.85 24.43 324.85 24.43 326.17 21.87 326.17 21.87 327.29 23.89 327.29 23.89 328.61 21.87 328.61 21.87 330.03 24.63 330.03 24.63 331.4 20.33 331.4" fill="#fff"/>
      <polygon points="28.97 331.4 27.36 331.4 25.02 324.85 26.72 324.85 28.17 329.24 29.62 324.85 31.32 324.85 28.97 331.4" fill="#fff"/>
      <polygon points="32.01 331.4 32.01 324.85 36.1 324.85 36.1 326.17 33.55 326.17 33.55 327.29 35.57 327.29 35.57 328.61 33.55 328.61 33.55 330.03 36.3 330.03 36.3 331.4 32.01 331.4" fill="#fff"/>
      <path d="m38.64,326.08v1.54h.53c.28,0,.51-.07.67-.23.17-.16.26-.35.26-.57,0-.21-.08-.39-.24-.53-.15-.14-.36-.21-.64-.21h-.59Zm1.92,5.32l-1.62-2.47h-.3v2.47h-1.54v-6.55h2.23c.74,0,1.3.18,1.7.54.4.35.61.84.61,1.45,0,.41-.11.77-.31,1.07-.21.3-.5.53-.89.69l1.86,2.8h-1.74Z" fill="#fff"/>
      <polygon points="46.32 328.75 46.32 331.4 44.78 331.4 44.78 328.75 42.55 324.85 44.31 324.85 45.56 327.28 46.83 324.85 48.56 324.85 46.32 328.75" fill="#fff"/>
      <path d="m55.6,329.3c0,.68-.19,1.23-.58,1.62-.39.4-.94.6-1.64.6-.41,0-.76-.09-1.05-.28-.29-.19-.54-.49-.76-.9l1.19-.68c.16.33.37.5.62.5.45,0,.68-.33.68-.98v-4.33h1.54v4.44Z" fill="#fff"/>
      <path d="m59.92,330.14c.56,0,1.02-.19,1.39-.57.37-.38.56-.87.56-1.45s-.19-1.05-.56-1.44c-.38-.38-.83-.58-1.39-.58s-1.01.19-1.39.58c-.37.39-.56.87-.56,1.44s.18,1.05.56,1.44c.37.39.84.58,1.38.58m0,1.38c-.99,0-1.82-.32-2.48-.98-.67-.66-1-1.46-1-2.42s.33-1.76,1-2.41c.67-.65,1.5-.98,2.48-.98.99,0,1.82.33,2.49.98.67.65,1,1.45,1,2.42,0,.96-.34,1.77-1,2.42-.67.65-1.49.97-2.49.97" fill="#fff"/>
      <path d="m70.21,328.36c0,.62-.07,1.11-.21,1.46-.13.34-.33.65-.59.91-.26.27-.57.47-.95.6-.37.13-.8.19-1.3.19-.46,0-.87-.06-1.22-.2-.36-.13-.67-.33-.92-.6-.26-.27-.45-.58-.58-.92-.13-.34-.19-.83-.19-1.44v-3.51h1.54v3.46c0,.61.13,1.07.38,1.38.24.31.6.47,1.06.47.96,0,1.44-.62,1.44-1.84v-3.46h1.54v3.51Z" fill="#fff"/>
      <path d="m72.8,326.08v1.54h.53c.28,0,.51-.07.67-.23.16-.16.25-.35.25-.57,0-.21-.08-.39-.24-.53-.15-.14-.36-.21-.63-.21h-.59Zm1.91,5.32l-1.62-2.47h-.29v2.47h-1.54v-6.55h2.23c.73,0,1.3.18,1.7.54.41.35.6.84.6,1.45,0,.41-.1.77-.31,1.07-.21.3-.5.53-.89.69l1.86,2.8h-1.74Z" fill="#fff"/>
      <polygon points="81.52 331.4 78.64 327.35 78.64 331.4 77.1 331.4 77.1 324.85 78.65 324.85 81.56 328.96 81.56 324.85 83.1 324.85 83.1 331.4 81.52 331.4" fill="#fff"/>
      <polygon points="84.18 331.4 84.18 324.85 88.27 324.85 88.27 326.17 85.72 326.17 85.72 327.29 87.74 327.29 87.74 328.61 85.72 328.61 85.72 330.03 88.48 330.03 88.48 331.4 84.18 331.4" fill="#fff"/>
      <polygon points="92.64 328.75 92.64 331.4 91.11 331.4 91.11 328.75 88.87 324.85 90.64 324.85 91.89 327.28 93.15 324.85 94.88 324.85 92.64 328.75" fill="#fff"/>
      <polygon points="103.53 331.4 103.53 327.34 101.7 329.63 99.93 327.34 99.93 331.4 98.39 331.4 98.39 324.85 99.84 324.85 101.7 327.34 103.53 324.85 105.07 324.85 105.07 331.4 103.53 331.4" fill="#fff"/>
      <path d="m108.96,326.65l-.73,2.23h1.47l-.74-2.23Zm1.57,4.75l-.39-1.19h-2.34l-.38,1.19h-1.67l2.42-6.55h1.55l2.49,6.55h-1.68Z" fill="#fff"/>
      <polygon points="115.86 326.22 115.86 331.4 114.32 331.4 114.32 326.22 112.55 326.22 112.55 324.85 117.62 324.85 117.62 326.22 115.86 326.22" fill="#fff"/>
      <polygon points="121.32 326.22 121.32 331.4 119.78 331.4 119.78 326.22 118.01 326.22 118.01 324.85 123.09 324.85 123.09 326.22 121.32 326.22" fill="#fff"/>
      <polygon points="123.83 331.4 123.83 324.85 127.92 324.85 127.92 326.17 125.36 326.17 125.36 327.29 127.38 327.29 127.38 328.61 125.36 328.61 125.36 330.03 128.12 330.03 128.12 331.4 123.83 331.4" fill="#fff"/>
      <path d="m130.45,326.08v1.54h.53c.28,0,.51-.07.67-.23.17-.16.25-.35.25-.57,0-.21-.08-.39-.24-.53-.15-.14-.36-.21-.63-.21h-.59Zm1.91,5.32l-1.62-2.47h-.3v2.47h-1.54v-6.55h2.22c.73,0,1.3.18,1.71.54.4.35.6.84.6,1.45,0,.41-.1.77-.31,1.07-.2.3-.5.53-.89.69l1.87,2.8h-1.74Z" fill="#fff"/>
      <path d="m134.5,330.1l1.16-.69c.23.53.59.79,1.09.79.27,0,.48-.06.63-.18.16-.12.24-.28.24-.47,0-.17-.06-.31-.18-.44-.12-.12-.45-.31-1-.55-.63-.28-1.06-.57-1.29-.87-.23-.3-.34-.66-.34-1.09,0-.53.2-.97.61-1.33.4-.36.92-.54,1.55-.54.91,0,1.57.36,1.98,1.07l-1.07.69c-.2-.34-.51-.52-.91-.52-.21,0-.37.05-.5.16-.13.11-.19.24-.19.4s.07.3.2.42c.13.11.43.28.88.48.66.31,1.13.62,1.4.93.27.31.41.7.41,1.17,0,.58-.24,1.06-.7,1.43-.46.38-1.04.56-1.73.56-1.01,0-1.75-.47-2.23-1.42" fill="#fff"/>
    </g>
  </g>
  <g id="logo">
    <g>
      <polygon points="32.31 279.94 32.31 290.22 29.26 290.22 29.26 279.94 25.76 279.94 25.76 277.25 35.81 277.25 35.81 279.94 32.31 279.94" fill="#fff"/>
      <path d="m40.34,279.68v3.05h1.06c.56,0,1.01-.14,1.33-.45.33-.3.5-.68.5-1.13,0-.42-.16-.76-.47-1.05-.31-.28-.72-.42-1.25-.42h-1.17Zm3.8,10.54l-3.21-4.9h-.59v4.9h-3.05v-12.98h4.41c1.45,0,2.57.35,3.37,1.06.8.7,1.2,1.66,1.2,2.88,0,.82-.2,1.52-.61,2.12-.41.6-1,1.05-1.76,1.36l3.7,5.55h-3.46Z" fill="#fff"/>
      <path d="m54.43,280.81l-1.45,4.43h2.92l-1.47-4.43Zm3.12,9.41l-.78-2.36h-4.62l-.76,2.36h-3.3l4.78-12.98h3.09l4.93,12.98h-3.34Z" fill="#fff"/>
      <polygon points="70.99 290.22 65.3 282.19 65.3 290.22 62.25 290.22 62.25 277.25 65.31 277.25 71.1 285.37 71.1 277.25 74.15 277.25 74.15 290.22 70.99 290.22" fill="#fff"/>
      <path d="m75.79,287.65l2.29-1.38c.46,1.05,1.17,1.58,2.16,1.58.52,0,.95-.12,1.26-.35.31-.24.47-.55.47-.93,0-.34-.12-.63-.36-.87-.24-.24-.9-.61-1.98-1.1-1.25-.56-2.11-1.13-2.57-1.73-.46-.59-.68-1.31-.68-2.17,0-1.04.41-1.92,1.21-2.64.8-.72,1.83-1.07,3.07-1.07,1.8,0,3.11.71,3.92,2.12l-2.12,1.36c-.4-.68-1-1.01-1.8-1.01-.4,0-.74.1-.99.31-.25.2-.38.46-.38.78s.13.6.4.82c.26.23.84.55,1.73.96,1.32.61,2.25,1.23,2.78,1.85.54.62.81,1.39.81,2.32,0,1.15-.46,2.1-1.39,2.84-.92.74-2.07,1.11-3.43,1.11-1.99,0-3.47-.93-4.42-2.81" fill="#fff"/>
      <path d="m89.78,279.74v3.75h.96c.73,0,1.29-.15,1.66-.48.38-.33.56-.79.56-1.38s-.19-1.08-.56-1.4c-.38-.32-.93-.48-1.66-.48h-.96Zm0,6.24v4.25h-3.05v-12.98h4.34c1.56,0,2.78.39,3.65,1.17.87.78,1.31,1.83,1.31,3.16s-.46,2.42-1.39,3.22c-.93.79-2.16,1.18-3.7,1.18h-1.17Z" fill="#fff"/>
      <path d="m104.17,287.73c1.1,0,2.02-.38,2.76-1.15.74-.76,1.1-1.72,1.1-2.86s-.37-2.09-1.1-2.85c-.74-.76-1.66-1.14-2.76-1.14s-2.02.38-2.75,1.15c-.73.77-1.1,1.71-1.1,2.84s.37,2.08,1.11,2.85c.74.77,1.65,1.15,2.75,1.15m0,2.73c-1.96,0-3.6-.65-4.92-1.94-1.32-1.3-1.98-2.9-1.98-4.79,0-1.89.65-3.49,1.98-4.79,1.32-1.29,2.96-1.95,4.93-1.95,1.96,0,3.61.65,4.94,1.94,1.32,1.29,1.99,2.89,1.99,4.8,0,1.91-.67,3.51-1.99,4.8-1.33,1.29-2.97,1.93-4.94,1.93" fill="#fff"/>
      <path d="m115.87,279.68v3.05h1.05c.56,0,1-.14,1.34-.45.33-.3.5-.68.5-1.13-.01-.42-.17-.76-.47-1.05-.31-.28-.72-.42-1.26-.42h-1.16Zm3.8,10.54l-3.21-4.9h-.58v4.9h-3.05v-12.98h4.41c1.45,0,2.58.35,3.37,1.06.8.7,1.2,1.66,1.2,2.88,0,.82-.21,1.52-.61,2.12-.41.6-1,1.05-1.76,1.36l3.69,5.55h-3.46Z" fill="#fff"/>
      <polygon points="130.27 279.94 130.27 290.22 127.22 290.22 127.22 279.94 123.71 279.94 123.71 277.25 133.77 277.25 133.77 279.94 130.27 279.94" fill="#fff"/>
      <polygon points="22.99 300.44 22.99 302.66 27.08 302.66 27.08 305.29 22.99 305.29 22.99 310.81 19.95 310.81 19.95 297.84 28.15 297.84 28.15 300.44 22.99 300.44" fill="#fff"/>
      <path d="m36.1,308.33c1.1,0,2.02-.38,2.76-1.15.73-.76,1.11-1.72,1.11-2.86s-.37-2.09-1.11-2.85c-.74-.76-1.66-1.14-2.76-1.14s-2.02.38-2.76,1.15c-.73.76-1.1,1.71-1.1,2.84s.37,2.08,1.11,2.85c.74.77,1.65,1.16,2.75,1.16m0,2.73c-1.96,0-3.6-.64-4.92-1.95-1.32-1.3-1.98-2.9-1.98-4.79,0-1.89.65-3.49,1.98-4.78,1.32-1.29,2.97-1.94,4.93-1.95,1.96,0,3.61.65,4.93,1.94,1.33,1.29,1.99,2.89,1.99,4.79,0,1.92-.67,3.51-1.99,4.81-1.32,1.29-2.97,1.93-4.93,1.93" fill="#fff"/>
      <path d="m47.8,300.27v3.05h1.05c.56,0,1-.14,1.33-.44.34-.31.5-.68.5-1.13,0-.41-.16-.77-.46-1.05-.31-.28-.73-.42-1.26-.42h-1.16Zm3.8,10.54l-3.22-4.9h-.58v4.9h-3.05v-12.97h4.42c1.45,0,2.57.35,3.37,1.05.8.71,1.19,1.67,1.19,2.89,0,.82-.21,1.52-.61,2.12-.41.6-1,1.05-1.77,1.36l3.69,5.55h-3.45Z" fill="#fff"/>
      <polygon points="60.49 310.81 60.49 297.84 63.53 297.84 63.53 308.1 68.52 308.1 68.52 310.81 60.49 310.81" fill="#fff"/>
      <path d="m76.47,308.33c1.1,0,2.02-.38,2.75-1.15.74-.76,1.11-1.72,1.11-2.86s-.37-2.09-1.11-2.85c-.74-.76-1.65-1.14-2.75-1.14s-2.02.38-2.76,1.15c-.74.76-1.1,1.71-1.1,2.84s.37,2.08,1.1,2.85c.74.77,1.66,1.16,2.75,1.16m0,2.73c-1.97,0-3.6-.64-4.92-1.95-1.33-1.3-1.98-2.9-1.98-4.79,0-1.89.65-3.49,1.98-4.78,1.33-1.29,2.96-1.94,4.93-1.95,1.96,0,3.61.65,4.93,1.94,1.32,1.29,1.98,2.89,1.98,4.79,0,1.92-.67,3.51-1.98,4.81-1.32,1.29-2.97,1.93-4.93,1.93" fill="#fff"/>
      <polygon points="93.84 310.81 88.15 302.77 88.15 310.81 85.1 310.81 85.1 297.84 88.17 297.84 93.95 305.97 93.95 297.84 97 297.84 97 310.81 93.84 310.81" fill="#fff"/>
      <path d="m102.19,300.37v7.92h.84c1.41,0,2.51-.35,3.31-1.04.8-.69,1.2-1.66,1.2-2.9,0-1.28-.41-2.25-1.2-2.94-.8-.68-1.89-1.03-3.31-1.03h-.84Zm-3.05,10.45v-12.97h4.18c2.21,0,3.97.57,5.28,1.72,1.32,1.15,1.97,2.71,1.97,4.67,0,2.09-.66,3.71-1.98,4.85-1.31,1.15-3.14,1.72-5.47,1.72h-3.99Z" fill="#fff"/>
      <path d="m118.78,308.33c1.1,0,2.02-.38,2.76-1.15.73-.76,1.11-1.72,1.11-2.86s-.37-2.09-1.11-2.85c-.74-.76-1.66-1.14-2.76-1.14s-2.02.38-2.75,1.15c-.73.76-1.1,1.71-1.1,2.84s.37,2.08,1.11,2.85c.74.77,1.65,1.16,2.75,1.16m0,2.73c-1.96,0-3.6-.64-4.92-1.95-1.32-1.3-1.98-2.9-1.98-4.79-.01-1.89.65-3.49,1.97-4.78,1.33-1.29,2.97-1.94,4.93-1.95,1.96,0,3.61.65,4.93,1.94,1.33,1.29,1.99,2.89,1.99,4.79,0,1.92-.67,3.51-1.99,4.81-1.32,1.29-2.96,1.93-4.93,1.93" fill="#fff"/>
      <polygon points="136.39 310.81 130.69 302.77 130.69 310.81 127.64 310.81 127.64 297.84 130.71 297.84 136.49 305.97 136.49 297.84 139.54 297.84 139.54 310.81 136.39 310.81" fill="#fff"/>
    </g>
  </g>
  <g id="logo_line">
    <rect x="20.44" y="317.7" width="118.6" height="1.73" fill="#fff"/>
  </g>
</svg>